<svg version="1.1" id="Layer_1" xmlns="http://www.w3.org/2000/svg" xmlns:xlink="http://www.w3.org/1999/xlink" x="0" y="0" width="510" height="710" xml:space="preserve"><style>.st1{fill:#b7d6ed}.st2{clip-path:url(#XMLID_254_)}.st3{fill:#50bdec}.st4{fill:#2f69b3}.st6{fill:#fdcd9d}.st7{fill:#fff}.st8{fill:#ef518c}.st9{fill:#231f20}.st10{fill:#010101}</style><path id="XMLID_252_" fill="#a6c6e4" d="M5 1.4h500v707.1H5z"/><path id="XMLID_251_" class="st1" d="M249.1 132c11.6-2 21.8-11.6 33.4-10.1 4.7.6 8.9 2.9 13.5 4.3 6.7 2 14.1 1.7 20.6-.8 1.6-.6 3.1-1.4 4.1-2.8.9-1.3 1.1-2.9 1.5-4.5 2.2-7.6 10.3-11.9 18-13.5 7.7-1.6 15.8-1.4 23.2-4.1 7.4-2.7 14.2-9.8 12.9-17.5-.8-4.6-4.2-8.3-7.8-11.2-10.1-7.9-24.6-13.7-26.3-26.4-.5-3.4.1-7.2-1.7-10.2-1.4-2.4-4.1-3.8-6.7-5-6.6-3.2-14.1-6.5-21.1-4.3-5.5 1.7-9.7 6.4-15.3 7.8-8.3 2-16.1-4.1-23-9.1-6.9-5-16.7-9.3-23.5-4.2-6.5 4.8-6.1 15-11.5 20.9-9.1 10-26.1 1.8-38.9 6.2-6.9 2.4-12.3 8.7-13.4 16-1.1 7.2 2.1 14.9 7.9 19.3 5.4 4 12.7 5.2 17.1 10.2 5.2 5.8 4.8 14.5 7.4 21.8 4.2 11.7 17.4 19.3 29.6 17.2z"/><path id="XMLID_250_" class="st1" d="M278.4 569.7c-11.7.8-22.9 9.2-34.3 6.5-4.6-1.1-8.6-3.9-12.9-5.7-6.5-2.7-13.8-3.2-20.6-1.3-1.6.4-3.3 1-4.3 2.3-1 1.2-1.4 2.8-2 4.3-2.9 7.3-11.4 10.7-19.3 11.5-7.8.8-15.9-.3-23.5 1.6-7.6 1.9-15.1 8.2-14.7 16.1.3 4.7 3.3 8.7 6.6 12 9.2 9 23 16.2 23.4 29 .1 3.5-.8 7.1.6 10.3 1.2 2.6 3.7 4.2 6.1 5.7 6.3 3.9 13.3 7.9 20.6 6.5 5.6-1.1 10.3-5.4 16-6.1 8.5-1.1 15.6 5.7 22 11.5 6.4 5.7 15.6 11 22.9 6.6 6.9-4.1 7.6-14.3 13.6-19.6 10.1-9 26.2.9 39.4-2.1 7.1-1.6 13.1-7.4 15-14.5 1.9-7.1-.5-15.1-5.9-20-4.9-4.5-12.1-6.5-16-12-4.5-6.3-3.2-14.9-5.1-22.5-3-11.9-15.2-20.9-27.6-20.1z"/><path id="XMLID_249_" class="st1" d="M339.2 398.3c-16.3 1-31.6 13-47.5 9.1-6.4-1.6-11.9-5.5-18-8.1-9-3.9-19.2-4.6-28.5-2-2.2.6-4.5 1.5-6 3.3-1.4 1.7-1.9 4-2.7 6.1-4 10.4-15.8 15.2-26.7 16.2-10.9 1.1-22-.5-32.6 2.2-10.6 2.7-20.9 11.6-20.3 22.7.4 6.6 4.6 12.4 9.2 17.1 12.8 12.8 32 23.1 32.6 41.3.2 4.9-1.1 10.1.9 14.6 1.7 3.6 5.1 5.9 8.5 8.1 8.7 5.5 18.5 11.3 28.5 9.4 7.8-1.5 14.3-7.6 22.2-8.6 11.7-1.5 21.6 8.2 30.5 16.4 8.8 8.1 21.7 15.6 31.8 9.5 9.6-5.8 10.4-20.2 18.7-27.7 13.9-12.7 36.3 1.4 54.5-2.7 9.9-2.2 18.2-10.4 20.7-20.4 2.6-10-.7-21.4-8.2-28.4-6.9-6.4-16.7-9.3-22.2-17.1-6.3-9-4.6-21.2-7.2-31.9-4.1-17.4-21.2-30.2-38.2-29.1z"/><path id="XMLID_248_" class="st1" d="M114.1 358c-7.4 2.4-13.1 9.7-20.9 9.8-3.1 0-6.2-1.2-9.3-1.7-4.6-.7-9.4.1-13.5 2.4-1 .5-1.9 1.2-2.4 2.2-.5 1-.4 2.1-.5 3.1-.7 5.3-5.5 8.9-10.4 10.6-4.9 1.8-10.3 2.3-14.8 4.8-4.6 2.5-8.3 7.8-6.7 12.9 1 3 3.6 5.2 6.3 6.8 7.4 4.4 17.5 7 19.9 15.3.7 2.3.7 4.8 2.1 6.6 1.2 1.5 3.1 2.2 4.9 2.7 4.7 1.5 9.9 3.1 14.3 1 3.4-1.6 5.7-5.2 9.3-6.6 5.3-2.1 11 1.3 16 4s11.9 4.7 15.9.7c3.8-3.8 2.5-10.6 5.4-15 5-7.5 17-3.6 24.9-7.6 4.3-2.2 7.2-7 7.2-11.9s-2.9-9.8-7.1-12.2c-3.9-2.2-8.8-2.4-12.3-5.3-4-3.4-4.6-9.3-7.1-13.9-4-7.2-13.4-11.2-21.2-8.7z"/><path id="XMLID_247_" class="st1" d="M437.6 256.1c-11 .7-21.4 8.8-32.2 6.1-4.3-1.1-8.1-3.7-12.2-5.5-6.1-2.6-13-3.1-19.3-1.3-1.5.4-3 1-4.1 2.2-1 1.1-1.3 2.7-1.8 4.1-2.7 7-10.7 10.3-18 11-7.4.7-14.9-.3-22.1 1.5-7.2 1.8-14.2 7.8-13.7 15.4.3 4.5 3.1 8.4 6.2 11.5 8.6 8.6 21.6 15.7 22.1 28 .1 3.3-.8 6.8.6 9.9 1.1 2.5 3.5 4 5.7 5.5 5.9 3.8 12.5 7.7 19.3 6.3 5.3-1 9.7-5.1 15-5.8 7.9-1 14.7 5.6 20.6 11.1 6 5.5 14.7 10.6 21.5 6.5 6.5-3.9 7.1-13.7 12.7-18.8 9.4-8.6 24.6 1 36.9-1.8 6.7-1.5 12.3-7.1 14-13.8 1.7-6.8-.5-14.5-5.6-19.2-4.6-4.4-11.3-6.3-15-11.5-4.3-6.1-3.1-14.4-4.9-21.6-2.6-11.9-14.1-20.5-25.7-19.8z"/><defs><path id="XMLID_236_" d="M5 1.4h500v707.1H5z"/></defs><clipPath id="XMLID_254_"><use xlink:href="#XMLID_236_" overflow="visible"/></clipPath><g class="st2"><path id="XMLID_246_" class="st1" d="M28 183.2c14.4-2.5 27-14.3 41.5-12.5 5.8.7 11.1 3.6 16.7 5.3 8.3 2.5 17.5 2.1 25.6-1.1 1.9-.7 3.9-1.7 5-3.4 1.1-1.6 1.3-3.6 1.9-5.5 2.7-9.4 12.7-14.7 22.3-16.7 9.6-2 19.6-1.7 28.8-5.1 9.2-3.4 17.6-12.1 16-21.7-.9-5.7-5.2-10.3-9.7-13.9-12.5-9.9-30.5-17-32.7-32.7-.6-4.3.1-8.9-2.1-12.6-1.8-3-5.1-4.7-8.2-6.2-8.2-4-17.5-8-26.2-5.4-6.8 2.1-12 8-19 9.7-10.3 2.5-20-5.1-28.6-11.3-8.6-6.2-20.7-11.5-29.2-5.2-8 6-7.5 18.6-14.2 26-11.3 12.4-32.4 2.3-48.3 7.7C-41 81.5-47.6 89.4-49 98.4c-1.4 9 2.6 18.5 9.8 23.9 6.7 4.9 15.7 6.5 21.2 12.7 6.4 7.2 5.9 18 9.2 27 5.4 14.4 21.7 23.8 36.8 21.2z"/></g><g class="st2"><path id="XMLID_245_" class="st1" d="M97.1 36.6c14.4-2.5 27-14.3 41.5-12.5 5.8.7 11.1 3.6 16.7 5.3 8.3 2.5 17.5 2.1 25.6-1.1 1.9-.7 3.9-1.7 5-3.4 1.1-1.6 1.3-3.6 1.9-5.5 2.7-9.4 12.7-14.7 22.3-16.7 9.6-2 19.6-1.7 28.8-5.1 9.2-3.4 17.6-12.1 16-21.7-.9-5.7-5.2-10.3-9.7-13.9-12.5-9.9-30.5-17-32.7-32.7-.6-4.3.1-8.9-2.1-12.6-1.8-3-5.1-4.7-8.2-6.2-8.2-4-17.5-8-26.2-5.4-6.8 2.1-12 8-19 9.7-10.3 2.5-20-5.1-28.6-11.3-8.6-6.2-20.7-11.5-29.2-5.2-8 5.9-7.5 18.6-14.2 25.9-11.3 12.4-32.4 2.3-48.3 7.7-8.6 2.9-15.2 10.8-16.6 19.8-1.4 9 2.6 18.5 9.8 23.9 6.7 4.9 15.7 6.5 21.2 12.7 6.4 7.2 5.9 18 9.2 27C65.7 29.7 82 39.2 97.1 36.6z"/></g><g class="st2"><path id="XMLID_244_" class="st1" d="M412.3 43.6c16.1-2.7 30.1-16.2 46.3-14 6.5.9 12.4 4.3 18.7 6.2 9.3 2.9 19.6 2.5 28.6-1 2.1-.8 4.3-1.9 5.6-3.9 1.2-1.8 1.5-4.2 2.1-6.3 2.9-10.7 14.1-16.8 24.8-18.9 10.7-2.2 21.9-1.8 32.2-5.6 10.2-3.8 19.6-13.7 17.8-24.7-1.1-6.5-5.8-11.9-10.9-16-14-11.4-34.2-19.6-36.8-37.7-.7-4.9.1-10.2-2.4-14.4-2-3.4-5.7-5.4-9.3-7.1-9.2-4.6-19.6-9.3-29.3-6.3-7.6 2.3-13.4 9.1-21.1 10.9-11.5 2.7-22.4-5.9-32-13.1-9.6-7.2-23.2-13.3-32.6-6.1-8.9 6.7-8.3 21.2-15.7 29.6-12.5 14.1-36.2 2.4-53.9 8.4-9.6 3.3-17 12.3-18.4 22.5-1.5 10.2 3 21.2 11.2 27.4 7.5 5.7 17.6 7.5 23.8 14.6 7.2 8.2 6.8 20.6 10.5 31 5.6 16.4 23.9 27.4 40.8 24.5z"/></g><g class="st2"><path id="XMLID_243_" class="st1" d="M452.1 228c16.1-2.7 30.1-16.2 46.3-14 6.5.9 12.4 4.3 18.7 6.2 9.3 2.9 19.6 2.5 28.6-1 2.2-.8 4.3-1.9 5.6-3.9 1.2-1.8 1.5-4.2 2.1-6.3 2.9-10.7 14.1-16.8 24.8-18.9 10.7-2.2 21.9-1.8 32.2-5.6 10.2-3.8 19.6-13.7 17.8-24.7-1.1-6.5-5.8-11.9-10.9-16-14-11.4-34.2-19.6-36.8-37.7-.7-4.9.1-10.2-2.4-14.4-2-3.4-5.7-5.4-9.3-7.1-9.2-4.6-19.6-9.3-29.3-6.3-7.6 2.3-13.4 9.1-21.1 10.9-11.5 2.7-22.4-5.9-32-13.1-9.6-7.2-23.2-13.3-32.7-6.1-8.9 6.7-8.3 21.2-15.7 29.6-12.5 14.1-36.2 2.4-53.9 8.4-9.6 3.3-17 12.3-18.4 22.5-1.5 10.2 3 21.2 11.2 27.4 7.5 5.7 17.6 7.5 23.8 14.6 7.2 8.2 6.8 20.6 10.5 31 5.7 16.4 24 27.3 40.9 24.5z"/></g><g class="st2"><path id="XMLID_242_" class="st1" d="M-57.1 365.2c16.1-2.7 30.1-16.2 46.3-14 6.5.9 12.4 4.3 18.7 6.2 9.3 2.9 19.6 2.5 28.6-1 2.2-.8 4.3-1.9 5.6-3.9 1.2-1.8 1.5-4.2 2.1-6.3 2.9-10.7 14.1-16.7 24.8-18.9 10.7-2.2 21.9-1.8 32.2-5.6 10.2-3.8 19.6-13.7 17.8-24.7-1.1-6.5-5.8-11.9-10.9-16-14-11.4-34.2-19.6-36.8-37.7-.7-4.9.1-10.2-2.4-14.4-2-3.4-5.7-5.4-9.3-7.1-9.2-4.6-19.6-9.3-29.3-6.3-7.6 2.3-13.4 9.1-21.1 10.9-11.5 2.7-22.4-5.9-32-13.1-9.6-7.2-23.2-13.3-32.7-6.1-8.9 6.7-8.3 21.2-15.7 29.6-12.5 14.1-36.2 2.4-53.9 8.4-9.6 3.3-17 12.3-18.4 22.5-1.5 10.2 3 21.2 11.2 27.4 7.5 5.7 17.6 7.5 23.8 14.6 7.2 8.2 6.8 20.6 10.5 31 5.7 16.4 24 27.4 40.9 24.5z"/></g><g class="st2"><path id="XMLID_241_" class="st1" d="M503.6 542c-14.6.9-28.3 11.4-42.6 8.1-5.7-1.3-10.6-4.8-16-7-8-3.3-17.2-3.9-25.6-1.6-2 .5-4 1.3-5.4 2.9-1.3 1.5-1.7 3.5-2.5 5.3-3.6 9.1-14.2 13.3-23.9 14.3s-19.7-.4-29.2 2-18.8 10.2-18.2 19.9c.3 5.8 4 10.8 8.2 14.9 11.4 11.1 28.5 20.1 29 36 .1 4.3-1 8.8.8 12.7 1.5 3.2 4.6 5.2 7.5 7 7.8 4.8 16.5 9.8 25.5 8.1 7-1.4 12.8-6.7 19.9-7.6 10.5-1.4 19.3 7.1 27.2 14.2 7.9 7.1 19.3 13.6 28.5 8.2 8.6-5.1 9.4-17.7 16.9-24.3 12.5-11.1 32.5 1.1 48.8-2.6 8.8-2 16.3-9.2 18.6-17.9 2.3-8.8-.6-18.7-7.3-24.8-6.1-5.6-15-8.1-19.8-14.8-5.6-7.8-4-18.5-6.3-27.9-3.6-14.9-18.8-26.1-34.1-25.1z"/></g><g class="st2"><path id="XMLID_240_" class="st1" d="M419.5 680.6c-14.6.9-28.3 11.4-42.6 8.1-5.7-1.3-10.6-4.8-16-7-8-3.3-17.2-3.9-25.6-1.6-2 .5-4 1.3-5.4 2.9-1.3 1.5-1.7 3.5-2.4 5.3-3.6 9.1-14.2 13.3-23.9 14.3s-19.7-.4-29.2 2-18.8 10.2-18.2 19.9c.3 5.8 4 10.8 8.2 14.9 11.4 11.1 28.5 20.1 29 36 .1 4.3-1 8.8.8 12.7 1.5 3.2 4.6 5.2 7.5 7 7.8 4.8 16.5 9.8 25.5 8.1 7-1.4 12.8-6.7 19.9-7.6 10.5-1.4 19.4 7.1 27.2 14.2 7.9 7.1 19.3 13.6 28.5 8.2 8.6-5.1 9.4-17.7 16.9-24.3 12.5-11.1 32.5 1.1 48.8-2.6 8.8-2 16.3-9.2 18.6-17.9 2.3-8.8-.6-18.7-7.3-24.8-6.1-5.6-15-8.1-19.8-14.8-5.6-7.8-4-18.5-6.3-27.9-3.7-14.9-18.9-26.1-34.2-25.1z"/></g><g class="st2"><path id="XMLID_239_" class="st1" d="M106.8 640.5c-16.3 1-31.6 13-47.5 9.1-6.4-1.6-11.9-5.5-18-8.1-9-3.9-19.2-4.6-28.5-2-2.2.6-4.5 1.5-6 3.3-1.4 1.7-1.9 4-2.7 6.1-4 10.4-15.8 15.2-26.6 16.2-10.9 1.1-22-.5-32.6 2.2C-65.7 670-76 678.9-75.4 690c.4 6.6 4.6 12.4 9.2 17.1 12.8 12.8 32 23.1 32.6 41.3.2 4.9-1.1 10.1.9 14.6 1.6 3.6 5.1 5.9 8.5 8.1 8.7 5.5 18.5 11.3 28.5 9.4 7.8-1.5 14.3-7.6 22.2-8.6 11.7-1.5 21.6 8.2 30.5 16.4 8.8 8.1 21.7 15.6 31.8 9.5 9.6-5.8 10.4-20.2 18.7-27.7 13.9-12.7 36.3 1.5 54.5-2.7 9.9-2.2 18.2-10.4 20.7-20.4 2.6-10-.7-21.4-8.2-28.4-6.9-6.4-16.7-9.3-22.2-17.1-6.3-9-4.6-21.2-7.2-31.9-4.1-17.3-21.2-30.1-38.3-29.1z"/></g><g class="st2"><path id="XMLID_238_" class="st1" d="M86.6 453c-16.3 1-31.6 13-47.5 9.1-6.4-1.6-11.9-5.5-18-8.1-9-3.8-19.2-4.6-28.5-2-2.2.6-4.5 1.5-6 3.3-1.4 1.7-1.9 4-2.7 6.1-4 10.4-15.8 15.2-26.6 16.2-10.9 1.1-22-.5-32.6 2.2-10.6 2.7-20.9 11.6-20.3 22.7.4 6.6 4.6 12.4 9.2 17.1 12.8 12.8 32 23.1 32.6 41.3.2 4.9-1.1 10.1.9 14.6 1.7 3.6 5.1 5.9 8.5 8.1 8.7 5.5 18.5 11.3 28.5 9.4 7.8-1.5 14.3-7.6 22.2-8.6 11.7-1.5 21.6 8.2 30.5 16.4 8.8 8.1 21.7 15.7 31.8 9.5 9.6-5.8 10.4-20.2 18.7-27.7 13.9-12.7 36.3 1.4 54.5-2.7 9.9-2.2 18.2-10.4 20.7-20.4 2.6-10-.7-21.4-8.2-28.4-6.9-6.4-16.7-9.3-22.2-17.1-6.3-9-4.6-21.2-7.2-31.9-4.2-17.4-21.2-30.2-38.3-29.1z"/></g><g class="st2"><path id="XMLID_237_" class="st1" d="M607.3 370c-16.3 1-31.6 13-47.5 9.1-6.4-1.6-11.9-5.5-18-8.1-9-3.9-19.2-4.6-28.5-2-2.2.6-4.5 1.5-6 3.3-1.4 1.7-1.9 4-2.7 6.1-4 10.4-15.8 15.2-26.7 16.2-10.9 1.1-22-.5-32.6 2.2-10.6 2.7-20.9 11.6-20.3 22.7.4 6.6 4.6 12.4 9.2 17.1 12.8 12.8 32 23.1 32.6 41.3.2 4.9-1.1 10.1.9 14.6 1.7 3.6 5.1 5.9 8.5 8.1 8.7 5.5 18.5 11.3 28.5 9.4 7.8-1.5 14.3-7.6 22.2-8.6 11.7-1.5 21.6 8.2 30.5 16.4 8.8 8.1 21.6 15.6 31.8 9.5 9.6-5.8 10.4-20.2 18.7-27.7 13.9-12.7 36.3 1.4 54.5-2.7 9.9-2.2 18.2-10.4 20.7-20.4 2.6-10-.7-21.4-8.2-28.4-6.9-6.4-16.7-9.3-22.2-17.1-6.3-9-4.6-21.2-7.2-31.9-4-17.4-21.1-30.2-38.2-29.1z"/></g><g><path id="XMLID_235_" class="st3" d="M440.5 218.9c.1 3.9-.8 10.8-4 22.8-1.5 5.5-4.2 11.1-8.4 17.1l-.7 1c-2.7 3.9-5.8 8.4-5.8 13.6 0 4.1 1.9 7.5 3.7 10.8.9 1.7 1.8 3.4 2.5 5.1 1.9 5.2.7 11.1-2.8 14.3l-.6.5c-.9.8-2 1.7-2.6 3.2-.8 1.9-.4 3.8-.1 5.4l.1.6c1.2 5.9-1.6 12.2-6.5 14.7-2.5 1.2-5.5 1.6-8.2 1.8-.9.1-1.8.1-2.7.2-3.3.2-6.8.4-10.2 1.2-4.5 1-8.2 2.9-10.9 5.5-2.1-2.5-4.4-5-7.1-7.5 2.7-5.7 4.4-11.8 5-18.1.5-5 .3-10.2 0-15.2-.4-9-.7-17.4 2.6-25.1 4-9.1 12.9-15.3 21-20.3 1.3-.8 2.6-1.6 4-2.4 7.7-4.5 15.6-9.2 21.5-16.2.9-1.1 2-2.6 3.2-4.3 2.2-2.6 4.6-5.9 7-8.7z"/><path id="XMLID_234_" class="st3" d="M429.8 268.2c0 2-.3 3.7-1 5-.6 1.2-1.4 2.1-2.4 2.6-.2-.8-.3-1.5-.3-2.3 0-3 1.5-5.9 3.4-8.8.2 1.2.3 2.3.3 3.5z"/><path id="XMLID_233_" class="st3" d="M172.4 408.2c.9-5.3 1.8-10.9 2.3-16.4.6-6.6 1-13.4.2-19.9 3.8 3.4 8.2 6 13 7.5-.6 8.7-1.5 17.6-2.8 25.3l-.3 2.1c-.3 2-.7 3.9-.9 5.9-.3 2.6-.3 5.2-.2 7.8-4.2-1.2-8.4-2.4-12.7-3.7.4-2.8.9-5.7 1.4-8.6z"/><path id="XMLID_232_" class="st3" d="M188.1 421.8c-.2-2.8-.1-5.7.2-8.6.2-1.9.5-3.8.8-5.7l.4-2.1c1.3-8.4 2.4-18.2 2.9-27.6l.1-1.8-1.8-.4c-5.3-1.3-10.4-4.2-14.3-8.2-2.2-2.3-4.2-5-6-7.6-1.6-2.2-3.2-4.5-4.6-6.8-3-5.1-5.2-10.9-7.2-16.8-2-5.7-5.2-22.9-8-38.1-2.9-15.5-4.6-24.7-5.8-27.6l3.9-3.8c.9-.9 3.1-1.2 5.4-1.5 5.8-.8 14.7-2.1 16.2-15.2.1-1.2-.7-2.3-1.9-2.5-1.2-.2-2.3.7-2.5 1.9-1.1 9.7-6.6 10.5-12.5 11.3-3 .4-5.9.9-7.8 2.7l-9.7 9.3c-1.9 1.8-3.8 3.6-5.9 4.9-2.5 1.5-5.4 2.4-8.3 2.5-2.1.1-3.7-.3-4.9-1.1-.7-.5-1.1-1.2-1.3-1.9 4.6-.3 9.4-2.6 14-6.6 1.7-1.5 3.2-3 4.7-4.6 2.7-2.7 5.2-5.2 8.2-7.1 1-.7 1.3-2 .7-3.1-.7-1-2-1.3-3.1-.7-3.4 2.2-6.2 5-8.9 7.7-1.5 1.5-3 3-4.5 4.3-2.9 2.5-8.5 6.5-14.2 5.4-4.1-.8-6.9-5.3-7.5-9l-.2-1.2-1.1-.5c-.8-.4-1.8-.8-2.2-1.3-.1-.1-.1-.2-.1-.3.3 0 .8.1 1.1.1 1.2.2 3 .4 4.5-.7.8-.6 1.2-1.3 1.5-1.8l.2-.3c5.6-8.8 11.8-18 19.8-25.6.4-.4 1-.9 1.6-1.5 5.1-4.7 6.6-6.3 6.5-8.1l-.1-1.2-.8-.6c-3.5-2.7-5-6.6-5.2-9.2-.1-1.5.2-2.2.1-2.2h.1c1.5 0 5.8 4.8 7.6 8l.5 1h.3l.1.1c.7.9 1.2 1.7 2.3 1.8h.1c.7.8 1.6 1.5 2.7 1.7 1.3.3 2.7.4 4.1.4 7.8 0 16.2-3.9 21.2-7.7l.9-.7v-.3c.3-.4.6-.8 1-1.2 2-2.5 6.7-8.3 9-6.8.9.6 1.4 1.2 1.4 1.7.2 1.6-2.3 4.1-4.2 6.2-1.7 1.8-3.3 3.5-4.2 5.4-1.1 2.3-1.7 4.9-2 7.9-.8 10.7 3.4 20.8 8.2 31 2.1 4.5 4.2 8.9 6.8 13.1 9.5 15.3 22.2 25.2 37.9 29.7.6 2.5 1.4 5 2.2 7.5 2.4 6.8 5.7 14.8 10.8 22.2.1.4.3.8.6 1.1.1.1.2.1.3.2 1.7 2.4 3.7 4.7 5.9 6.8 9.7 9.4 22.6 14.8 35.1 19 .3.2.6.3.9.3 3 1 5.9 1.9 8.8 2.9 2 .6 3.7 1.2 4.6 2.4.5.6.9 1.5 1.2 2.8.4 1.8-.1 2.8-1.4 5.1-.6 1-1.3 2.2-1.9 3.6-.4.8-.3 1.7.2 2.4l.6.6c-2.6 2.6-5.2 6.3-7.4 10h-.1l-18.3-.1c-5.6 0-11.4 0-17-.4-2.5-.2-5.7-.4-8.8-1.1-2.2-.5-4.4-1.2-6.6-1.8-3.9-1.2-8-2.4-12.1-2.6l.6-1.5c1.1-3.7.4-7.8-1.8-10.9-.7-1-2.1-1.3-3.1-.6-1 .7-1.3 2.1-.6 3.1 1.4 2 1.9 4.8 1.2 7.2-.6 1.9-1.8 3.6-3 5.5-.3.5-.6.9-1 1.4-8.1 12-10.1 26.7-11.7 40-4.8-1.3-9.6-2.4-14.4-3.6z"/><path id="XMLID_231_" class="st3" d="M133.6 285.1c.2-1.5 0-2.8-.5-4 2.2-1.5 4.2-3.3 6-5.1l2.2-2.1c1.2 4.6 3.2 15.3 5 25 2.9 15.3 6.1 32.7 8.2 38.8 1.1 3.2 2.3 6.4 3.6 9.5-1 .3-2.2.4-3.4.2-1.8-.3-3.3-1.3-4.2-2.6-.2-.3-.3-.5-.5-.8-.5-.9-1.1-1.9-2.2-2.7-1.1-.8-2.6-1.3-4.3-1.4-2.5-.1-4.8.6-7.1 1.3-1.9.6-3.7 1.1-5.4 1.1h-.1c-3.6 0-7.1-2.9-7.8-6.4-.2-1-.2-2.2-.3-3.4-.1-2.8-.2-5.9-2.5-8.3-1.7-1.8-4.4-2.8-7.4-2.5-1.8.1-3.4.6-5 1l-1.4.4c-3.1.8-6.2 1.1-9.4 1-1.2 0-2.4-.1-3.3-.6-.8-.4-1.5-1.3-2.1-2.5-2.7-5.5-.4-12.3 3.1-16.6 2-2.5 4.5-4.5 7-5.6 1.7-.8 3.6-1.2 5.6-1.6l15-3.4c2.7-.6 6-1.4 8.5-3.7 1.5-1.4 2.4-3.2 2.7-5z"/><path id="XMLID_230_" class="st4" d="M146.1 141.7c15.7-11.6 33.3-20.8 52.3-27 1.1 3.9 3.7 7.3 7.3 9.8 4.3 2.9 9.3 3.9 13.9 2.8 2.5-.6 4.8-1.7 7.1-2.8 3.4-1.7 6.6-3.2 9.8-2.6 2.2.4 4.3 2 6.4 3.6 2.8 2.1 5.7 4.3 9.5 4.5 1.9.1 3.8-.3 5.6-.7 2.8-.6 4.6-1 5.9 0 .5.4 1 1.2 1.6 1.9.9 1.3 2.2 3 4.2 3.5-3.8 3.8-6.2 8.9-7.4 15.8-1.1.5-2.2 1-3.2 1.6.1-2.7-.3-5.6-.8-8.5l-.9-6.3-9.6 11.3c-4 4.7-9 10.5-9.7 17.8-.4 4.3 1.3 9.4 5.3 11.4-.2 1.3-.4 2.7-.6 4.1-4.6-4.9-11.8-7.7-19.6-5-7.5 2.6-7.8 12.2-7.9 15.3v2c0 3.6.1 6.1-3.8 8.4-1.9 1.1-5.3-.1-8.2-1.1-1.1-.4-2.1-.7-3.1-1-2.3-.7-8.3-2.4-15.1 3.1-.5-.7-1.2-1.3-2-1.9-4.6-3.2-9.5 1.4-12.9 5.3-.4-6.1-.7-11.9-.7-17.7.2.1.3.2.5.2l2.9.4c2.7.4 4 .6 5.1.6.6 0 1.2-.1 1.9-.2 7.3-1.2 12.2-4.1 14.4-8.7 1.2-2 4.6-3 7.6-4 4.1-1.3 9.3-4.9 10.9-9.3.8-2.2.6-4.2-.5-6-3.3-5.3-7-5.5-10-5.6-2.8-.1-4.9-.2-7.5-4.8-2.7-4.8-9.9-5.2-12.1-5.2-2.5 0-4.9.4-7.2 1.3 1.1-4.4 2.3-8.9 3.7-14l1.9-7-5 3.6c-5 3.6-9.4 8.8-13.4 15-.4.3-.7.8-.8 1.2-.4.7-.9 1.5-1.3 2.2-3.9-5.1-9.5-7.1-14.5-7.3z"/><path id="XMLID_229_" d="M336 164.2c0 5.3-1 13-5.6 19.6-6.6 9.5-4.2 22.5-1.2 28.4 2.9 5.6 4.4 11 4.6 16.1.1 5.8-1.7 11.3-5 15.1-1.2 1.4-2.6 2.6-4 3.8-1.5 1.2-3 2.5-4.3 4-4.8 5.4-6.9 13.2-5.5 20.3.3 1.6.8 3.1 1.3 4.6.6 1.7 1.1 3.4 1.3 5.1.4 2.4-.6 6.8-2.1 9.5-.1-3-1-7-5.7-8.7l-1.5-.6c-5.3-2-8.6-3.2-14.9-4.1-5.7-.8-9.7-4.5-10.3-5.4-2.1-3.7-2-7.7.5-12.5.5-1 1.4-2.4 2.4-3.8 1.9-2.8 3.8-5.8 4.5-8.3 1.9-7.4-.1-13.4-6.5-19.5-3.7-3.5-5.6-11.9-5.2-17.7.1-1.1.1-2.2.2-3.2.2-4.1.4-7.2 1.9-11l1.5-.3c5.1-1.4 9.1-4 12.4-7.9 2.9-3.4 5.3-8 7.4-11.9l2.5-4.7-4.3.1c-3.5.1-7.3.2-10.7.7 1-3 1.2-6.2.6-9.2-1.2-6.1-5.6-11.4-11.3-13.7-1.6-.7-3.3-1-4.9-1.1-2.5-.1-4.9.4-7 1.1 2.1-8.4 6.4-13.2 14.3-16.2 8.9-3.4 22.1-2 29.2-.9 3.5.5 6.3 1.3 8.7 2.4 11.6 4.9 16.7 18.6 16.7 29.9z" fill="#fcb542"/><path id="XMLID_228_" class="st3" d="M385.3 215c.6 2.5 2.3 4.3 4.4 4.8 2.1.5 4.4-.3 6.3-2.2.5-.5.9-1 1.4-1.6.5-.7 1.1-1.3 1.6-1.7 1.6-1.3 4.1-1.4 5.7-.2 1.7 1.1 2.5 3.5 1.9 5.4l-.2.5c-.3.7-.6 1.6-.6 2.6 0 2 1.3 3.8 3.4 4.9 1.2.6 2.4.8 3.5 1.1l.7.1c2.3.5 3.9 1.3 5 2.4 1.2 1.2 1.9 3.4 1.4 4.6 0 .1 0 .2-.1.3-4.1 3.1-8.6 5.8-13 8.4-1.3.8-2.7 1.6-4 2.4-8.7 5.3-18.2 12.1-22.8 22.2-2.1 4.7-2.9 9.7-3.1 14.7-1.6.4-2.8 1.5-3.8 2.3-1.8 1.5-2.9 2.5-5.9 1-.4-.2-.7-.6-1.2-1.4-.9-1.4-2.2-3.6-5.8-4.2-2.8-.5-5.9 1.1-7.6 2-3.5 2-6.4 2.4-9.2 1.1-3-1.4-4.7-4.9-3.6-7.6.3-.7.8-1.5 1.3-2.3 1-1.5 2.1-3.3 2.2-5.5.1-4.1-3.4-7.1-6.9-7.9-2.6-.6-5.2-.3-7.6 0l-1.4.2c-2.1.2-4.8.3-6.6-.9l-.2-.1c0-.2-.1-.3-.2-.4.8-2.1 2-4 3.4-5.6 1.1-1.3 2.5-2.4 3.9-3.6 1.5-1.3 3.1-2.7 4.5-4.3 4-4.6 6.2-11.2 6.1-18.1-.1-2.3-.4-4.7-1-7.2l.1-.1c2.7-3.3 8.2-2.8 10.5-2.4 1.4.2 2.8.6 4.2.9 3.1.7 6.4 1.5 9.7 1.3 1.1-.1 2.5-.3 3.7-1.1 1.6-1.2 2.2-3 2.5-4.3.4-1.7.5-3.3.7-4.9.2-2 .4-3.9 1-5.7 1-3.1 3.4-5.5 6.2-6.3 2.9-.8 6.2.2 7.8 2.4 1.9 2.5 1.8 6.2 1.6 9.1v.4c-.2 1.2-.3 2.8.1 4.5z"/><path id="XMLID_227_" class="st4" d="M377.1 296.1c.2 4.8.4 9.8 0 14.6-.5 5.4-1.9 10.5-4 15.4-1.2-1-2.4-2-3.7-3-2.5-2-5.4-4.1-8.9-4.8-.8-1.9-2.1-3.6-3.8-4.8-2.4-1.9-5.2-2.7-7.9-3.4-1.7-.5-3.3-.9-4.8-1.7-1.6-.8-3.1-1.9-4.6-3l-10.9-8.2c-3.4-2.6-6.8-5.4-7.1-9 0-.2-.1-.4-.2-.5.7-2.7.9-5.3.7-7.2-.3-2-.9-3.9-1.5-5.7-.5-1.4-.9-2.8-1.2-4.2-.4-2-.4-4.1-.2-6.1 2.8 1.5 6 1.4 8.6 1.2l1.5-.2c2.2-.3 4.2-.5 6.1 0 1.7.4 3.6 1.9 3.5 3.5 0 1-.7 2-1.5 3.2-.6 1-1.3 2-1.7 3.1-1.8 4.8.9 10.8 5.9 13.2 4 1.9 8.5 1.5 13.2-1.3 1.8-1 3.7-1.6 4.6-1.5 1.6.3 2.1 1 2.8 2.2.6 1.1 1.4 2.4 3.1 3.1 1.7.8 3.2 1.1 4.5 1.1 2.9 0 4.8-1.6 6.2-2.8.3-.3.6-.5.8-.7.3 2.6.4 5 .5 7.5z"/><path id="XMLID_226_" class="st3" d="M340.1 405.3l-.3.3c-3.8-.7-7.6-2.6-12.1-6.1.2-.2.3-.4.4-.5 1-1.2 2.1-2.3 3.2-3.4 1.2-1.2 2.4-2.5 3.5-3.8 3.8-4.4 6.8-9.3 9.7-14 .1-.2.2-.5.3-.7.6 0 1.1-.1 1.7-.1 6.7-.4 14-1 19.1-1.1-.1 1.3-.5 2.5-1.4 3.4-.4.4-1 .8-1.6 1.3l-1.2.9c-1.8 1.5-3.4 3.4-5 5.5-1 1.3-2 2.6-3.1 3.8-1.7 1.9-3.8 4.2-5.9 6.5-2.7 2.9-5.2 5.8-7.3 8z"/><path id="XMLID_225_" class="st3" d="M314.9 408.6c-1.2-1.6-2.6-3.4-3.4-6.9-.8-3.7 0-10.1 2.5-12.7.3-.3.4-.6.5-1 3.3-3.7 6.7-7 10.2-10 2.2-.1 4.2-.1 5.7-.1 1.8 0 5.1-.2 9.3-.4-2.5 4-5 8-8.1 11.5l-3.3 3.6c-1.1 1.2-2.3 2.4-3.4 3.6-1.3 1.5-2.5 3-3.7 4.5l-6.3 7.9z"/><path id="XMLID_224_" class="st3" d="M300.8 397.6c-.1 0-.1-.1-.2-.1-4.6-1.6-9.2-3.2-13.7-5 2.8-5.3 6.8-11.3 10.3-13.9.1-.1.2-.2.3-.4 1.5.1 3.3.1 5.7.1 3.6 0 8.4-.1 14.7-.3-6.6 6.3-12.3 13-17.1 19.6z"/><path id="XMLID_223_" class="st3" d="M280.3 396.4c-.7 1.7-1.3 3.6-2 5.4-.1.2-.1.3-.2.5-2.2-2.9-3-7.5-1.6-10.9h6c-.9 1.8-1.7 3.5-2.2 5z"/><path id="XMLID_222_" class="st3" d="M346.1 372.6c-6.8.5-13.2.9-15.8.9-2.9 0-7.4.1-12.2.2-6.8.2-17.4.5-21.7.1.2-.4.5-.8.7-1.2 1.4-2.4 2.7-4.7 1.9-8.3-.3-1.2-.8-3-2-4.5-1.8-2.3-4.6-3.1-6.7-3.8-1.9-.6-3.8-1.2-5.6-1.8 7.5-7.3 13.4-15 17.5-23 4.7-9.2 7.1-18.9 7-28.2 1.9 1 3.9 1.9 5.7 2.7 1.3.6 2.7 1.1 4 1.6 3.9 1.5 7.6 3 11 5 3.7 2.1 7.2 4.9 10.4 7.6 3.1 2.6 7.2 6.9 10 10.1 8.1 9.2 13.3 19.2 15.5 29.7.1.5.3 1.3.6 2.4.5 1.9 1.9 7.2 1.9 9.4-5-.1-14 .5-22.2 1.1z"/><path id="XMLID_221_" class="st3" d="M247.2 334.8c-1.5-1.4-2.8-2.9-4-4.5 4-1.4 6.8-3.2 10.6-5.9 7.6-5.6 15.5-11.7 22.2-19.1 7-7.7 11.9-15.8 14.4-24.1.8.2 1.6.4 2.4.5.4.1.8.1 1.2.2-.4 5.4 1.5 10.2 5.9 14.6 1.4 1.5 3 2.7 4.7 3.8.6 9.5-1.6 19.4-6.4 28.9-4.2 8.1-10.4 16-18.4 23.4-12-4.1-23.6-9.1-32.6-17.8z"/><path id="XMLID_220_" class="st3" d="M175.9 226.9c.2-2.5.7-4.6 1.5-6.4.6-1.2 2-2.7 3.4-4.2 2.4-2.5 4.8-5.1 5.3-8 .1-.1.2-.1.3-.2 5.5-5.3 10.1-4 12.3-3.4.9.3 1.8.6 2.8.9 3.7 1.3 8.2 3 12 .8 6.2-3.6 6.1-8.4 6-12.3v-1.8c.2-6.6 1.7-10.1 4.9-11.2 8.9-3.1 15.6 3.2 17.9 8.2l.1.1c0 .1 0 .3.1.4.7 4.1 3.3 7.8 6.9 9.9 1.2.7 2.3 1.2 3.5 1.5-.5 4.3-1.6 8.5-3.4 12.5-.1.2-.2.5-.3.7-.1.1-.2.1-.3.1l-4.1 2.6c-.4.3-.8.5-1.3.7-1.6.7-2.7.5-4.7.3l-.8-.1c-10.4-1.1-21.8.3-33.8 4.4-10.2 3.4-18.8 7.9-27.8 12.6-.6-2.7-.8-5.3-.5-8.1z"/><path id="XMLID_219_" class="st3" d="M242.3 166.9c.6-5.5 4.3-10.2 8.7-15.4l3.3-3.9c.4 3.1.5 5.8-.4 8.2-1.3 1.2-2.5 2.6-3.4 4.1-.7 1-.4 2.4.7 3.1 1 .7 2.4.4 3.1-.7 1.3-2 2.9-3.7 4.9-5 2.6-1.8 5.5-3.2 9-4.2 1.8-.5 3.9-1.1 5.8-1 1.1.1 2.3.3 3.5.8 4.4 1.7 7.8 5.8 8.6 10.5.9 4.6-.7 9.7-4.1 12.9-.9.8-.9 2.2-.1 3.1.4.5 1 .7 1.6.7.5 0 1.1-.2 1.5-.6.9-.8 1.6-1.8 2.3-2.8 2.9-.8 6.5-1.1 10.1-1.2-1.8 3.2-3.7 6.6-5.8 9.2-2.7 3.3-5.9 5.3-10.2 6.5-1.4.4-2.5.5-3.4.2-.6-.2-1.2-.6-1.5-1 1.1-1.3 2.2-2.6 3.2-3.9.8-1 .6-2.3-.3-3.1-.9-.8-2.3-.6-3.1.3-2.7 3.4-5.6 6.9-9 9.5-3.6 2.8-7.6 4.2-11.1 3.9-1.7-.1-2.9-.5-4.5-1.5a10 10 0 0 1-4.7-6.8c-.3-1.5-.2-3.2 0-4.7.5-5.4 1.7-10.8 3.5-15.9.4-1.1-.2-2.4-1.3-2.8-1.2-.4-2.4.2-2.8 1.3-.7 2.1-1.4 4.2-1.9 6.3-1.8-1.2-2.4-3.8-2.2-6.1z"/><path id="XMLID_218_" class="st3" d="M279.8 257.4c-1.3 2.5-2 4.8-2.3 7-14.6 17.7-37.8 25.4-50.7 25.6-.9-6.6-1-13.4-.4-20.4.2-1.9.3-3.8.4-5.7l.3-5.1c1.6.2 3.2.3 4.8.3 8.2 0 16.7-2.3 25.8-7 9.5-4.9 17.4-12.6 22.5-22 .3.3.5.6.8.9 5.2 5 6.7 9.4 5.3 15.3-.4 1.8-2.3 4.5-3.9 6.9-1 1.5-1.9 3-2.6 4.2z"/><path id="XMLID_217_" class="st3" d="M235.5 233.7c1-2.1 2-4.1 3-6.1.8-1.7 1.8-3.3 2.9-4.8 1.1 0 2.3-.3 3.7-.8.7-.3 1.3-.7 2-1.1l2.9-1.9c.5.5 1 1 1.7 1.4 3.1 1.8 6.8 2.7 10.8 2.7.8 0 1.5 0 2.3-.1 3.3-.3 6.9-1.3 10.8-2.9.5 2 1.2 3.9 2 5.7-4.7 9.5-12.4 17.4-21.8 22.2-10.1 5.2-19.3 7.2-28.1 6.2.9-6.7 4.4-13.7 7.8-20.5z"/><path id="XMLID_216_" class="st6" d="M253.4 215.5c2-4.4 3.2-9 3.7-13.7 4.2-.1 8.7-1.8 12.8-4.9 1.3-1 2.4-2 3.5-3.2.8.8 1.8 1.5 2.9 1.9-1.3 3.9-1.5 7.3-1.6 11.1 0 1-.1 2-.2 3.1-.1 1.8 0 3.8.2 5.9-3.8 1.7-7.2 2.6-10.3 2.9-3.9.3-7.6-.4-10.5-2.1-.5-.3-.7-.5-.8-.5.1-.1.2-.3.3-.5z"/><path id="XMLID_215_" class="st3" d="M205.5 226.6c11-3.7 21.4-5.1 30.8-4.2-.7 1.1-1.3 2.2-1.8 3.3-.9 2-1.9 4-2.9 6-1.1 2.2-2.2 4.5-3.3 6.8-14.7 0-31.7 1.3-47.7 10.4-1.3-3.1-2.4-6.2-3.3-9.4 9.1-4.9 17.9-9.4 28.2-12.9z"/><path id="XMLID_214_" class="st3" d="M226.3 242.9c-1.4 3.6-2.6 7.2-3.1 10.9-.5 3.3-.7 6.6-.8 9.8-.1 1.9-.2 3.7-.4 5.6-.8 9.1-.4 17.8 1.2 26.2-13.5-4.5-24.6-13.5-33-27-2.5-4-4.5-8.2-6.6-12.6-.4-.9-.9-1.8-1.3-2.8 14.6-8.4 29.7-9.9 44-10.1z"/><path id="XMLID_213_" class="st6" d="M340.1 405.3l-.3.3c-3.8-.7-7.6-2.6-12.1-6.1.2-.2.3-.4.4-.5 1-1.2 2.1-2.3 3.2-3.4 1.2-1.2 2.4-2.5 3.5-3.8 3.8-4.4 6.8-9.3 9.7-14 .1-.2.2-.5.3-.7.6 0 1.1-.1 1.7-.1 6.7-.4 14-1 19.1-1.1-.1 1.3-.5 2.5-1.4 3.4-.4.4-1 .8-1.6 1.3l-1.2.9c-1.8 1.5-3.4 3.4-5 5.5-1 1.3-2 2.6-3.1 3.8-1.7 1.9-3.8 4.2-5.9 6.5-2.7 2.9-5.2 5.8-7.3 8z"/><path id="XMLID_212_" class="st6" d="M300.8 397.6c-.1 0-.1-.1-.2-.1-4.6-1.6-9.2-3.2-13.7-5 2.8-5.3 6.8-11.3 10.3-13.9.1-.1.2-.2.3-.4 1.5.1 3.3.1 5.7.1 3.6 0 8.4-.1 14.7-.3-6.6 6.3-12.3 13-17.1 19.6z"/><path id="XMLID_211_" class="st6" d="M242.3 166.9c.6-5.5 4.3-10.2 8.7-15.4l3.3-3.9c.4 3.1.5 5.8-.4 8.2-1.3 1.2-2.5 2.6-3.4 4.1-.7 1-.4 2.4.7 3.1 1 .7 2.4.4 3.1-.7 1.3-2 2.9-3.7 4.9-5 2.6-1.8 5.5-3.2 9-4.2 1.8-.5 3.9-1.1 5.8-1 1.1.1 2.3.3 3.5.8 4.4 1.7 7.8 5.8 8.6 10.5.9 4.6-.7 9.7-4.1 12.9-.9.8-.9 2.2-.1 3.1.4.5 1 .7 1.6.7.5 0 1.1-.2 1.5-.6.9-.8 1.6-1.8 2.3-2.8 2.9-.8 6.5-1.1 10.1-1.2-1.8 3.2-3.7 6.6-5.8 9.2-2.7 3.3-5.9 5.3-10.2 6.5-1.4.4-2.5.5-3.4.2-.6-.2-1.2-.6-1.5-1 1.1-1.3 2.2-2.6 3.2-3.9.8-1 .6-2.3-.3-3.1-.9-.8-2.3-.6-3.1.3-2.7 3.4-5.6 6.9-9 9.5-3.6 2.8-7.6 4.2-11.1 3.9-1.7-.1-2.9-.5-4.5-1.5a10 10 0 0 1-4.7-6.8c-.3-1.5-.2-3.2 0-4.7.5-5.4 1.7-10.8 3.5-15.9.4-1.1-.2-2.4-1.3-2.8-1.2-.4-2.4.2-2.8 1.3-.7 2.1-1.4 4.2-1.9 6.3-1.8-1.2-2.4-3.8-2.2-6.1z"/><path id="XMLID_210_" class="st6" d="M205.5 226.6c11-3.7 21.4-5.1 30.8-4.2-.7 1.1-1.3 2.2-1.8 3.3-.9 2-1.9 4-2.9 6-1.1 2.2-2.2 4.5-3.3 6.8-14.7 0-31.7 1.3-47.7 10.4-1.3-3.1-2.4-6.2-3.3-9.4 9.1-4.9 17.9-9.4 28.2-12.9z"/><path id="XMLID_209_" class="st6" d="M355.1 328.9c-.2-.2-.4-.5-.6-.7.5-1.2.9-2.4 1.2-3.6.2-1.2-.5-2.4-1.7-2.6-1.2-.3-2.4.5-2.6 1.7-.1.3-.1.5-.2.7-.3-.3-.6-.7-1-1l1.1-2.5c.5-1.1 0-2.4-1.1-2.9s-2.4 0-2.9 1.1l-.4.9c-1.3-1.3-2.6-2.5-3.8-3.5-3.3-2.8-7-5.7-11.1-8.1-3.7-2.1-7.7-3.7-11.6-5.2-1.3-.5-2.7-1.1-4-1.6-4.5-1.9-9.6-4.3-13.5-8.2-3.4-3.4-4.8-6.7-4.7-10.6 2.8.7 5.1 1.6 8.4 2.8l1.5.6c2.8 1.1 3 3.4 2.8 6.6-.1 1.7-.2 3.5 1.4 4.4.4.3.9.3 1.3.3 1 0 1.9-.6 2.3-.8 1-.7 1.9-1.7 2.7-2.9 1.7 2.8 4.4 5 7.1 7l10.9 8.2c1.6 1.2 3.3 2.5 5.3 3.4 1.8.9 3.7 1.4 5.5 1.9 2.4.7 4.7 1.3 6.4 2.7 1.9 1.5 3.2 3.9 3.2 6.4.2 1.9-.6 3.9-1.9 5.5z"/><path id="XMLID_208_" class="st3" d="M227.5 294.4c14.7-.3 35.8-8.5 50.4-23.8.3 1.2.8 2.4 1.5 3.5.8 1.4 3.4 3.8 6.9 5.6-2.4 7.8-6.9 15.4-13.6 22.7-6.5 7-14.2 13-21.6 18.5-3.9 2.8-6.5 4.4-10.7 5.8-4.5-6.7-7.5-14.1-9.8-20.3-1.3-3.9-2.3-7.9-3.1-12z"/><path id="XMLID_207_" class="st6" d="M355.1 328.9c-.2-.2-.4-.5-.6-.7.5-1.2.9-2.4 1.2-3.6.2-1.2-.5-2.4-1.7-2.6-1.2-.3-2.4.5-2.6 1.7-.1.3-.1.5-.2.7-.3-.3-.6-.7-1-1l1.1-2.5c.5-1.1 0-2.4-1.1-2.9s-2.4 0-2.9 1.1l-.4.9c-1.3-1.3-2.6-2.5-3.8-3.5-3.3-2.8-7-5.7-11.1-8.1-3.7-2.1-7.7-3.7-11.6-5.2-1.3-.5-2.7-1.1-4-1.6-4.5-1.9-9.6-4.3-13.5-8.2-3.4-3.4-4.8-6.7-4.7-10.6 2.8.7 5.1 1.6 8.4 2.8l1.5.6c2.8 1.1 3 3.4 2.8 6.6-.1 1.7-.2 3.5 1.4 4.4.4.3.9.3 1.3.3 1 0 1.9-.6 2.3-.8 1-.7 1.9-1.7 2.7-2.9 1.7 2.8 4.4 5 7.1 7l10.9 8.2c1.6 1.2 3.3 2.5 5.3 3.4 1.8.9 3.7 1.4 5.5 1.9 2.4.7 4.7 1.3 6.4 2.7 1.9 1.5 3.2 3.9 3.2 6.4.2 1.9-.6 3.9-1.9 5.5z"/><path id="XMLID_206_" class="st3" d="M165.9 211.6c-2.4 1.7-5.3 3.1-8.2 4.2 2.7-2.5 5.6-5.4 7.9-8.1.1 1.2.2 2.6.3 3.9z"/><path id="XMLID_205_" class="st3" d="M143.4 212.4c0-.8.7-4.5 1.9-9.9 4.6-5.5 12.8-11.9 19.6-15.4-.1 4.6 0 9 .2 13.5-.2.2-.4.4-.5.6-3.4 6.3-14.6 15.3-16.2 16.3-1.2 0-2.3 0-3.3-.2-.6-.2-1.7-2.8-1.7-4.9z"/><path id="XMLID_204_" class="st3" d="M172.3 142.4c-.8 0-1.5.1-2.3.2 1-1.3 2.1-2.6 3.2-3.8-.3 1.3-.6 2.4-.9 3.6z"/><path id="XMLID_203_" class="st3" d="M174.8 153.1c2.4-1.3 5.2-2.1 7.8-2 2.5 0 7 .7 8.3 3 3.8 6.7 7.9 6.9 11.1 7.1 2.6.1 4.3.2 6.4 3.6.2.4.5 1 .1 2.2-1 2.7-5.1 5.7-8.3 6.7-3.3 1-7.8 2.4-9.8 5.8-.1.1-.2.3-.3.5-1.5 3.1-5.2 5.2-11.1 6.2-1.3.2-1.5.2-5.7-.4l-2.9-.4c-.4-.1-.7 0-1.1.1.2-6.6.9-13.4 2.4-21.1.8-4 1.5-7.5 2.3-11 .3-.2.6-.2.8-.3z"/><path id="XMLID_202_" class="st3" d="M165.7 148.8c1.7-1 3.5-1.6 5.5-1.9-.5 1.9-1 3.9-1.4 5.9-2.7.6-5.3 1.6-7.9 2.7 1.2-2.3 2.4-4.6 3.8-6.7z"/><path id="XMLID_201_" class="st3" d="M158.5 162.3c3.1-2.1 6.5-3.6 10.1-4.7-.4 1.8-.8 3.7-1.2 5.8-.2 1-.3 2-.5 3h-.2c-2.4.5-5.2 2.2-7.6 3.7-.8.5-1.6 1-2.3 1.4-.6.4-1.6 1-2.8 1.9 1.4-3.7 2.9-7.4 4.5-11.1z"/><path id="XMLID_200_" class="st3" d="M149 188.6c.3-.3.5-.6.6-1 .1-.3.1-.7 0-1 .5-1.8 1.1-3.6 1.7-5.5.3-.2 1.1-.8 2-1.6 1.6-1.3 4.6-3.6 5.5-4.1.7-.4 1.6-.9 2.5-1.5 1.5-.9 3.3-2 4.8-2.6-.5 3.8-.9 7.4-1.1 10.9h-.2c-5.6 2.5-12.2 7-17.5 11.8.6-1.7 1.1-3.5 1.7-5.4z"/><path id="XMLID_199_" class="st3" d="M211.3 402.1c4.3-.2 6.9 0 10.3 3.7 2.4 2.6 2.6 4.1 2.8 6.2.2 1.6.4 3.6 1.8 6.2 1.9 3.6 4.6 5 6.6 6.1 2.1 1.1 2.8 1.6 2.9 3.3-.3 0-.6.1-1 .1-2.1.1-4.3.2-6.4.2-7.2 0-14.3-.7-21.4-1.9.9-7.9 2-16.1 4.4-23.9z"/><path id="XMLID_198_" class="st4" d="M240.1 427.1c-.4-4.2-3.1-5.6-5.3-6.8-1.8-.9-3.5-1.8-4.8-4.3-1-1.8-1.1-3.1-1.3-4.6-.3-2.3-.6-4.9-3.9-8.6-4.1-4.5-7.7-5.2-12-5.2 1.4-3.5 3-7 5.1-10.1l.9-1.3c.2-.2.3-.5.5-.8 4.4-.4 8.8.9 13.4 2.4 2.2.7 4.6 1.4 6.9 1.9 3.4.7 6.8 1 9.4 1.2 5.8.4 11.6.4 17.3.4h5.4c-1.4 5.4.5 12 4.6 15.5-.2.6-.5 1.2-.7 1.8l-7 17.6c-1.2-.2-2.3-.3-3.5-.5-1.8-.2-3.7-.3-5.7-.3-5.1 0-10.2.6-15.1 1.1-1.3.3-2.7.5-4.2.6z"/><path id="XMLID_197_" class="st7" d="M279.9 410.3c.9-2.2 1.7-4.6 2.6-7 .6-1.8 1.3-3.6 1.9-5.3.2-.4.4-.9.6-1.4 4.3 1.7 8.8 3.3 13.2 4.8-4.4 6.4-8.1 12.6-11 17.9-1.6 3-3.4 6.4-3.7 10.3-1.2-.3-2.3-.6-3.5-.9-2.2-.5-4.5-1.1-6.7-1.6l6.6-16.8z"/><path id="XMLID_196_" class="st3" d="M287.9 430c.2-3 1.8-6 3.2-8.6.5-1 1.1-2 1.7-3 1.8 1 3.7 2.5 3.5 7-.1 3.1-2.5 5.4-2.8 5.7-.1.1-.2.2-.3.2-1.8-.2-3.6-.5-5.4-.8 0-.2.1-.3.1-.5z"/><path id="XMLID_195_" class="st3" d="M294.9 414.5c3.7-6.2 7.7-12.1 11.8-17.5-.1 2 0 4 .3 5.6 1.1 4.8 3 7.2 4.5 9 .2.2.3.4.4.6l-1.8 2.3c-3.9 5-7.9 10.1-10.4 16.2-.1.3-.2.6-.2 1h-1c1.1-1.7 2-3.8 2-6.1.4-7.1-3.2-9.8-5.6-11.1z"/><path id="XMLID_194_" class="st7" d="M313.7 417.2l10.8-13.9c.1-.1.2-.3.3-.4 3 2.3 6.9 4.9 11.4 6.3l-3.5 3.5c-5.7 5.7-11.2 11.1-16.2 18.3v.1h-1.1c-3.2.1-7.3.3-11.2.4 2.4-5.1 6-9.8 9.5-14.3z"/><path id="XMLID_193_" class="st3" d="M326.7 425.4c3.4.7 5.4 2.3 5.9 5-3.1.2-6.3.4-10.3.5h-.1c1.4-1.9 2.9-3.7 4.5-5.5z"/><path id="XMLID_192_" class="st3" d="M336.9 430c-.6-3.9-3-6.7-6.9-8.2 1.9-2 3.9-4 5.9-6 2.4-2.4 4.9-4.9 7.4-7.6 2.1-2.2 4.7-5.2 7.2-8 2.1-2.3 4.1-4.6 5.8-6.5 1.2-1.3 2.3-2.7 3.4-4.1 1.5-1.9 2.9-3.7 4.3-4.8.3-.3.7-.5 1-.7.7-.5 1.5-1 2.2-1.8 1.8-1.8 2.7-4.2 2.7-6.7.7-.1 1.5-.4 1.9-1 1.6-2 .9-6.1-1.2-13.9-.2-.9-.4-1.7-.5-2.1-1.9-9.3-6.1-18.1-12.2-26.4 2.3-2.4 3.7-5.6 3.7-9 1.7.8 3.4 2 5 3.2 7 5.4 12 10.5 15.9 15.8 4.7 6.4 7.6 13.3 8.3 20.1 1.2 10.2-2.3 19.4-5.5 25.4-4.6 8.7-11.2 16-16.4 21.4l-1.3 1.3c-3.3 3.3-7.6 7.7-7.6 15.4-4.6.8-9.1 1.7-13.4 2.6-3.7.8-6.8 1.3-9.7 1.6z"/><path id="XMLID_191_" class="st7" d="M440.5 218.9c.1 3.9-.8 10.8-4 22.8-1.5 5.5-4.2 11.1-8.4 17.1l-.7 1c-2.7 3.9-5.8 8.4-5.8 13.6 0 4.1 1.9 7.5 3.7 10.8.9 1.7 1.8 3.4 2.5 5.1 1.9 5.2.7 11.1-2.8 14.3l-.6.5c-.9.8-2 1.7-2.6 3.2-.8 1.9-.4 3.8-.1 5.4l.1.6c1.2 5.9-1.6 12.2-6.5 14.7-2.5 1.2-5.5 1.6-8.2 1.8-.9.1-1.8.1-2.7.2-3.3.2-6.8.4-10.2 1.2-4.5 1-8.2 2.9-10.9 5.5-2.1-2.5-4.4-5-7.1-7.5 2.7-5.7 4.4-11.8 5-18.1.5-5 .3-10.2 0-15.2-.4-9-.7-17.4 2.6-25.1 4-9.1 12.9-15.3 21-20.3 1.3-.8 2.6-1.6 4-2.4 7.7-4.5 15.6-9.2 21.5-16.2.9-1.1 2-2.6 3.2-4.3 2.2-2.6 4.6-5.9 7-8.7z"/><path id="XMLID_190_" class="st8" d="M188.1 421.8c-.2-2.8-.1-5.7.2-8.6.2-1.9.5-3.8.8-5.7l.4-2.1c1.3-8.4 2.4-18.2 2.9-27.6l.1-1.8-1.8-.4c-5.3-1.3-10.4-4.2-14.3-8.2-2.2-2.3-4.2-5-6-7.6-1.6-2.2-3.2-4.5-4.6-6.8-3-5.1-5.2-10.9-7.2-16.8-2-5.7-5.2-22.9-8-38.1-2.9-15.5-4.6-24.7-5.8-27.6l3.9-3.8c.9-.9 3.1-1.2 5.4-1.5 5.8-.8 14.7-2.1 16.2-15.2.1-1.2-.7-2.3-1.9-2.5-1.2-.2-2.3.7-2.5 1.9-1.1 9.7-6.6 10.5-12.5 11.3-3 .4-5.9.9-7.8 2.7l-9.7 9.3c-1.9 1.8-3.8 3.6-5.9 4.9-2.5 1.5-5.4 2.4-8.3 2.5-2.1.1-3.7-.3-4.9-1.1-.7-.5-1.1-1.2-1.3-1.9 4.6-.3 9.4-2.6 14-6.6 1.7-1.5 3.2-3 4.7-4.6 2.7-2.7 5.2-5.2 8.2-7.1 1-.7 1.3-2 .7-3.1-.7-1-2-1.3-3.1-.7-3.4 2.2-6.2 5-8.9 7.7-1.5 1.5-3 3-4.5 4.3-2.9 2.5-8.5 6.5-14.2 5.4-4.1-.8-6.9-5.3-7.5-9l-.2-1.2-1.1-.5c-.8-.4-1.8-.8-2.2-1.3-.1-.1-.1-.2-.1-.3.3 0 .8.1 1.1.1 1.2.2 3 .4 4.5-.7.8-.6 1.2-1.3 1.5-1.8l.2-.3c5.6-8.8 11.8-18 19.8-25.6.4-.4 1-.9 1.6-1.5 5.1-4.7 6.6-6.3 6.5-8.1l-.1-1.2-.8-.6c-3.5-2.7-5-6.6-5.2-9.2-.1-1.5.2-2.2.1-2.2h.1c1.5 0 5.8 4.8 7.6 8l.5 1h.3l.1.1c.7.9 1.2 1.7 2.3 1.8h.1c.7.8 1.6 1.5 2.7 1.7 1.3.3 2.7.4 4.1.4 7.8 0 16.2-3.9 21.2-7.7l.9-.7v-.3c.3-.4.6-.8 1-1.2 2-2.5 6.7-8.3 9-6.8.9.6 1.4 1.2 1.4 1.7.2 1.6-2.3 4.1-4.2 6.2-1.7 1.8-3.3 3.5-4.2 5.4-1.1 2.3-1.7 4.9-2 7.9-.8 10.7 3.4 20.8 8.2 31 2.1 4.5 4.2 8.9 6.8 13.1 9.5 15.3 22.2 25.2 37.9 29.7.6 2.5 1.4 5 2.2 7.5 2.4 6.8 5.7 14.8 10.8 22.2.1.4.3.8.6 1.1.1.1.2.1.3.2 1.7 2.4 3.7 4.7 5.9 6.8 9.7 9.4 22.6 14.8 35.1 19 .3.2.6.3.9.3 3 1 5.9 1.9 8.8 2.9 2 .6 3.7 1.2 4.6 2.4.5.6.9 1.5 1.2 2.8.4 1.8-.1 2.8-1.4 5.1-.6 1-1.3 2.2-1.9 3.6-.4.8-.3 1.7.2 2.4l.6.6c-2.6 2.6-5.2 6.3-7.4 10h-.1l-18.3-.1c-5.6 0-11.4 0-17-.4-2.5-.2-5.7-.4-8.8-1.1-2.2-.5-4.4-1.2-6.6-1.8-3.9-1.2-8-2.4-12.1-2.6l.6-1.5c1.1-3.7.4-7.8-1.8-10.9-.7-1-2.1-1.3-3.1-.6-1 .7-1.3 2.1-.6 3.1 1.4 2 1.9 4.8 1.2 7.2-.6 1.9-1.8 3.6-3 5.5-.3.5-.6.9-1 1.4-8.1 12-10.1 26.7-11.7 40-4.8-1.3-9.6-2.4-14.4-3.6z"/><path id="XMLID_189_" class="st8" d="M314.9 408.6c-1.2-1.6-2.6-3.4-3.4-6.9-.8-3.7 0-10.1 2.5-12.7.3-.3.4-.6.5-1 3.3-3.7 6.7-7 10.2-10 2.2-.1 4.2-.1 5.7-.1 1.8 0 5.1-.2 9.3-.4-2.5 4-5 8-8.1 11.5l-3.3 3.6c-1.1 1.2-2.3 2.4-3.4 3.6-1.3 1.5-2.5 3-3.7 4.5l-6.3 7.9z"/><path id="XMLID_188_" class="st8" d="M280.3 396.4c-.7 1.7-1.3 3.6-2 5.4-.1.2-.1.3-.2.5-2.2-2.9-3-7.5-1.6-10.9h6c-.9 1.8-1.7 3.5-2.2 5z"/><path id="XMLID_187_" class="st8" d="M294.9 414.5c3.7-6.2 7.7-12.1 11.8-17.5-.1 2 0 4 .3 5.6 1.1 4.8 3 7.2 4.5 9 .2.2.3.4.4.6l-1.8 2.3c-3.9 5-7.9 10.1-10.4 16.2-.1.3-.2.6-.2 1h-1c1.1-1.7 2-3.8 2-6.1.4-7.1-3.2-9.8-5.6-11.1z"/><path id="XMLID_186_" class="st8" d="M336.9 430c-.6-3.9-3-6.7-6.9-8.2 1.9-2 3.9-4 5.9-6 2.4-2.4 4.9-4.9 7.4-7.6 2.1-2.2 4.7-5.2 7.2-8 2.1-2.3 4.1-4.6 5.8-6.5 1.2-1.3 2.3-2.7 3.4-4.1 1.5-1.9 2.9-3.7 4.3-4.8.3-.3.7-.5 1-.7.7-.5 1.5-1 2.2-1.8 1.8-1.8 2.7-4.2 2.7-6.7.7-.1 1.5-.4 1.9-1 1.6-2 .9-6.1-1.2-13.9-.2-.9-.4-1.7-.5-2.1-1.9-9.3-6.1-18.1-12.2-26.4 2.3-2.4 3.7-5.6 3.7-9 1.7.8 3.4 2 5 3.2 7 5.4 12 10.5 15.9 15.8 4.7 6.4 7.6 13.3 8.3 20.1 1.2 10.2-2.3 19.4-5.5 25.4-4.6 8.7-11.2 16-16.4 21.4l-1.3 1.3c-3.3 3.3-7.6 7.7-7.6 15.4-4.6.8-9.1 1.7-13.4 2.6-3.7.8-6.8 1.3-9.7 1.6z"/><path id="XMLID_185_" class="st8" d="M172.4 408.2c.9-5.3 1.8-10.9 2.3-16.4.6-6.6 1-13.4.2-19.9 3.8 3.4 8.2 6 13 7.5-.6 8.7-1.5 17.6-2.8 25.3l-.3 2.1c-.3 2-.7 3.9-.9 5.9-.3 2.6-.3 5.2-.2 7.8-4.2-1.2-8.4-2.4-12.7-3.7.4-2.8.9-5.7 1.4-8.6z"/><path id="XMLID_184_" class="st4" d="M428.3 227.4c0 .1.1.2.1.2-.4.6-.8 1.1-1.2 1.5-1 1.1-2 2.2-3.1 3.3-.5-1.7-1.4-3.3-2.5-4.4-1.7-1.7-4.1-2.9-7.3-3.6l-.8-.2c-.9-.2-1.7-.3-2.4-.7-.6-.3-.9-.7-.9-1 0-.2.1-.6.3-1 .1-.2.2-.5.2-.7 1.2-3.8-.3-8.2-3.6-10.4-3.3-2.2-7.9-2-11 .4-.9.7-1.6 1.6-2.2 2.3-.4.4-.7.9-1.1 1.3-.7.8-1.6 1.2-2.1 1-.5-.1-1-.8-1.1-1.5-.2-1-.1-2.1 0-3.3v-.4c.3-3.7.3-8.5-2.4-12.2-2.8-3.7-7.9-5.3-12.6-3.9-4.2 1.2-7.7 4.7-9.2 9.1-.8 2.2-1 4.5-1.2 6.7-.1 1.5-.3 3-.6 4.3-.2.9-.5 1.5-.8 1.7-.3.2-1.1.3-1.4.3-2.8.2-5.5-.5-8.5-1.2-1.5-.4-3-.7-4.4-1-5.1-.9-9.6-.1-12.7 2.2-.7-2-1.6-4.1-2.7-6.2-2.7-5.2-4.3-16.4.9-23.8 4.2-6 6.3-13.6 6.4-22.1 0-5.2-1-10.8-3-16 .3 0 .6.1.9.1 3.2 0 6.3-.9 9-2.7 3.6-2.3 6.1-6.1 7-10.2 33.4 21.7 60.1 53.8 74 92.1z"/><path id="XMLID_183_" class="st3" d="M350.2 132.9c0 .1-.1.2-.1.3-.3 3.5-2.4 6.8-5.3 8.8-2.8 1.8-6.5 2.4-9.7 1.5-3.2-5.7-7.8-10.6-14-13.4-2.8-1.3-6-2.2-9.9-2.8-7.5-1.2-21.6-2.6-31.4 1.2-2.5.9-4.7 2.1-6.6 3.4-.4-1-1.5-1.5-2.5-1.3-.4-.1-1.2-1.2-1.7-1.9-.6-.9-1.4-1.9-2.3-2.7-3-2.4-6.5-1.6-9.6-.9-1.6.4-3.1.7-4.4.6-2.5-.1-4.7-1.8-7.1-3.6-2.4-1.9-5-3.8-8.2-4.4-4.6-.9-8.6 1-12.6 2.9-2.1 1-4.2 2-6.2 2.5-3.4.8-7.2 0-10.4-2.1-2.8-1.9-4.7-4.5-5.5-7.4 16.7-5 34.4-7.7 52.8-7.7 33.6-.2 66.4 9.7 94.7 27z"/><path id="XMLID_182_" class="st3" d="M138.4 147.7c.2-.1.4-.1.5-.2 2.9-1.8 13-3.1 18.2 4.3.3.5.8.7 1.4.8-5.4 10.1-9.7 21.7-12.8 31.9-3.8-.3-7.7.6-10.8 2.7-1.7 1.2-3 2.7-4.2 4.2-1.2 1.5-2.4 2.9-3.9 3.7-5.8 3-8.5 2.6-12.7 2-1.5-.2-3.3-.5-5.3-.6-6-.3-11.5 2.9-15.1 5.4 11.2-20.8 26.5-39.2 44.7-54.2z"/><path id="XMLID_181_" class="st4" d="M90.3 208.3c.2.1.4.1.6.1 1.1 0 2.2-.8 3.8-1.9 3-2.1 8.5-5.9 13.8-5.6 1.9.1 3.4.3 4.9.6 4.5.7 8.4 1.2 15.4-2.5 2.2-1.2 3.7-3 5.2-4.7 1.1-1.3 2.1-2.5 3.3-3.3 2.1-1.4 4.6-2.1 7-2.1-2.9 10.2-4.6 18.4-5.1 21.9-2.5-3.2-6.3-6.9-9.7-6-1.7.4-2.9 1.9-3.3 3.9-.8 3.9 1 9.9 5.4 14.1-1.1 1.3-3.3 3.3-4.5 4.4-.6.6-1.2 1.1-1.7 1.6-8.3 7.9-14.8 17.4-20.5 26.4l-.3.6c-.1.1-.2.3-.1.3-.2.1-.9 0-1.3-.1-1.3-.2-3.1-.4-4.6.8-2.1 1.7-1.9 4.6-.5 6.4.8 1.1 1.9 1.7 2.9 2.2 1.1 4.9 4.8 9.9 10.1 11.3.1 2.2 1.3 4.5 3.3 5.9 1.8 1.3 4.2 2 7 2h.6c2.5-.1 4.9-.6 7.2-1.5.2.5.1 1 .1 1.3-.1.9-.6 1.7-1.2 2.3-1.6 1.5-4.2 2.1-6.4 2.6l-15 3.4c-2.1.5-4.3 1-6.4 1.9-3.2 1.4-6.1 3.7-8.6 6.8-5.3 6.6-6.7 15-3.6 21.3 1 2 2.3 3.5 3.9 4.4 1.7 1 3.7 1.1 5.4 1.2 3.6.1 7.1-.3 10.6-1.1.5-.1 1-.3 1.5-.4 1.4-.4 2.8-.8 4.2-.9 1.6-.1 3.1.3 3.9 1.2 1.1 1.2 1.2 3.1 1.3 5.4 0 1.4.1 2.8.4 4.2 1.1 5.5 6.4 9.9 12.1 10 2.4 0 4.7-.7 6.8-1.3 2-.6 3.9-1.2 5.6-1.1.8 0 1.4.2 1.8.5.4.3.7.9 1.1 1.5.2.3.4.7.6 1 1.6 2.3 4.1 3.9 7.1 4.5.7.1 1.5.2 2.2.2 1.3 0 2.6-.3 3.9-.7.7 1.4 1.4 2.7 2.2 4 1.5 2.5 3.2 4.8 4.8 7.1.7 1 1.5 2 2.2 3v.2c1.7 5.4 2 11.6 1.7 17.8-5.1-.4-5.9-1.3-8.8-4.6l-1-1.1c-2.8-3.2-6.5-7.6-10.8-8.3-7.2-1.2-12 0-15.8 1-2.9.8-5.3 1.4-8 .8-3.7-.7-5.8-2.1-8.1-3.6-3-1.9-6-3.9-11.9-3.8-11.5.4-14.7 4.8-16.5 7.2-12.8-25-19.4-52.7-19.4-81 0-29.3 6.9-57.1 19.2-81.7z"/><path id="XMLID_180_" class="st3" d="M92.1 375.3c.6-.4 1-1 1.5-1.6 1.4-1.9 3.7-5.1 13-5.4 4.5-.2 6.6 1.2 9.4 3 2.4 1.6 5.1 3.3 9.6 4.2 3.8.8 6.8 0 10-.9 3.8-1 7.7-2 13.9-.9 2.7.5 6 4.3 8.2 6.8l1 1.2c3.5 3.9 5.2 5.6 11.9 6.1l-.3 3.6c-.5 5.4-1.4 10.8-2.3 16.1-.4 2.7-.9 5.4-1.2 8-.4-.1-.8-.2-1.2-.4l-1-.3c-8.2-2.6-16.7-5.3-25.4-6.5-3.7-.5-7.6-.8-11.6-.8-4.5 0-8.9.3-13.4.9-8.6-10.2-16-21.3-22.1-33.1z"/><path id="XMLID_179_" class="st7" d="M434.2 426.5c.1 7.8-4.3 15.6-7.8 20.8-1.6 2.4-3.2 4.2-4.8 5.9-2.9 3.1-5.6 6.1-6.9 12-.8 3.8-1 7.6-1.1 11.3-.1 2.5-.2 5-.5 7.4-.7 5.9-4.7 15-6.6 17.2 0 0-.9.8-5.3.8-5.4 0-12.5-1.1-17-2.1-3.5-.8-7.1-1.9-10.6-3-3.8-1.2-7.7-2.4-11.7-3.2-4.1-.8-8.2-1.2-12.7-1.2-10.1 0-20.1 2.1-29.7 4.1-9.4 2-19.1 4-28.6 4-4.8 0-9.2-.5-13.4-1.5l-.5-.1c-10.7-2.6-24.1-5.8-35.2-6.5-6.3-.4-12.5.8-18.5 1.9-2.1.4-4.3.8-6.4 1.1-14.2 2.2-29.1 1.3-42.9-2.9-2.6-.8-5.3-1.7-7.9-2.6-8.6-2.9-17.5-6-26.8-5.1-5.2.5-10.5 2.3-15.7 4-5.7 1.9-11.2 3.8-16.3 3.8-2.1-3.2-2.9-7.7-3.7-12.1-.3-1.6-.6-3.2-.9-4.7-2-8.3-3.9-15.6-8.3-21.9-1.3-1.9-2.8-3.6-4.2-5.2-1.8-2.1-3.5-4-4.8-6.2-3.7-6-3.9-13.9-4.1-21.5v-.5c14.5-4 30.8-8.2 46.6-8.2 3.8 0 7.5.2 11 .7 8.4 1.1 16.7 3.8 24.7 6.3l1 .3c21.4 6.8 42.4 12.8 64 12.8 2.3 0 4.5-.1 6.7-.2 3.3-.2 6.7-.6 10-.9 6.7-.7 13.9-1.4 19.9-.8 4.7.5 9.4 1.6 14 2.8 5.2 1.3 10.5 2.6 16.1 3 5.2.4 14.5 0 20.6-.3l6.8-.3c9.7-.4 15-.6 25.1-2.6 19.2-3.8 41.5-8 63.2-8 8-.3 15.7.3 23.2 1.4z"/><path id="XMLID_178_" class="st4" d="M364.5 425.1c.2-5.4 3.3-8.5 6.3-11.4l1.3-1.3c5.4-5.6 12.3-13.3 17.1-22.4 4.9-9.4 7-19 5.9-28-.9-7.3-3.9-14.9-8.9-21.8 2.7-2.7 6.4-4.1 9.1-4.7 3.1-.7 6.2-.9 9.5-1.1.9-.1 1.8-.1 2.7-.2 3.1-.2 6.6-.6 9.8-2.2 6.6-3.3 10.4-11.7 8.8-19.5l-.1-.7c-.2-1.1-.4-2.1-.2-2.7.2-.5.8-1 1.4-1.5l.7-.6c4.9-4.4 6.6-12.2 4-19.1-.7-2-1.8-3.9-2.7-5.7-.4-.8-.8-1.5-1.2-2.3 2-.9 3.7-2.6 4.7-4.8.9-1.9 1.4-4.1 1.4-6.8 0-2.9-.4-5.8-1.3-8.6 1.2-1.9 2.3-3.7 3.3-5.5 2.3 11.7 3.5 23.8 3.5 35.8 0 50-19.7 96.7-55.4 131.7-.1.1-.2.3-.3.5-6.5.8-13 1.8-19.4 2.9z"/><path id="XMLID_177_" class="st9" d="M140.4 223.4c-1.2 0-2.2.9-2.3 2.2 0 .4-.1.7-.2 1.2-.2.6-.4 1.2-.4 2.3 0 1.2.9 2.2 2.2 2.3h.1c1.2 0 2.2-.9 2.2-2.2 0-.4.1-.7.2-1.2.2-.6.4-1.3.4-2.3 0-1.2-1-2.2-2.2-2.3z"/><path id="XMLID_176_" class="st9" d="M153.3 228.3c-1 1.5-1.8 3.2-2.2 5-.3 1.2.5 2.4 1.7 2.6h.5c1 0 1.9-.7 2.2-1.7.3-1.2.8-2.4 1.5-3.4s.5-2.4-.5-3.1c-1.1-.7-2.5-.4-3.2.6z"/><path id="XMLID_175_" class="st9" d="M121.1 253.6c-1.3-.7-2.9-.6-4.3.1-2.1 1-4 3.4-4.6 5.9-.3 1.2.4 2.4 1.6 2.7 1.2.3 2.4-.4 2.7-1.6.3-1.1 1.3-2.5 2.2-2.9.3-.2.5-.1.5-.1.6.3 1 .6 1.1.9.2.6-.6 1.9-1.1 2.8-.3.5-.6 1.1-.8 1.5-.5 1.1 0 2.4 1.1 2.9.3.1.6.2.9.2.8 0 1.6-.5 2-1.3.2-.4.4-.7.6-1.2 1-1.6 2.3-3.9 1.5-6.3-.5-1.5-1.6-2.7-3.4-3.6z"/><path id="XMLID_174_" class="st9" d="M257.5 166.7c.2 0 .3.1.5.1 1 0 1.9-.7 2.2-1.7.1-.4.4-.8.8-1.1 1.1-.6 1.5-1.9.9-3s-1.9-1.5-3-.9c-1.5.8-2.7 2.3-3.1 4-.2 1.2.5 2.3 1.7 2.6z"/><path id="XMLID_173_" class="st9" d="M275.4 175c.2.1.5.1.7.1.9 0 1.8-.6 2.1-1.5.2-.3.9-1.2 1.2-1.4 1-.7 1.3-2 .6-3.1-.7-1-2-1.3-3.1-.6-.9.6-2.5 2.3-2.9 3.6-.4 1.3.3 2.6 1.4 2.9z"/><path id="XMLID_172_" class="st9" d="M260.6 172.4c-1.2-.2-2.3.7-2.5 1.9-.4 2.7.8 5.5 3.1 7 1 .7 2.1 1.1 3.2 1.1h.1c1.8 0 3.5-1.1 4.6-2.8.9-1.3 1.2-2.7 1.6-3.9.3-1.2-.4-2.4-1.5-2.7-1.2-.3-2.4.4-2.7 1.5-.3.9-.5 1.9-1 2.6-.3.5-.7.8-1.1.8-.1 0-.5-.1-.8-.3-.8-.6-1.3-1.7-1.2-2.7.3-1.2-.5-2.3-1.8-2.5z"/><path id="XMLID_171_" class="st9" d="M249.6 180.3c.6 2.4 1.3 5.7 3.8 7.9 1 .9 2.3 1.6 3.3 2 .7.3 1.5.7 2.5.9 1 .3 2.1.4 3.1.4 2.1 0 4.3-.6 6.1-1.7 1-.6 1.4-2 .7-3-.6-1-2-1.4-3-.7-1.7 1-3.8 1.3-5.7.8-.6-.2-1.2-.4-1.8-.7-.8-.4-1.6-.8-2.2-1.3-1.3-1.2-1.9-3.3-2.4-5.6-.3-1.2-1.5-1.9-2.6-1.7-1.3.3-2.1 1.5-1.8 2.7z"/><path id="XMLID_170_" class="st9" d="M327.6 339.3c-1-.7-2.4-.4-3.1.6-.7 1-.4 2.4.6 3.1 4.2 2.7 6.7 7.7 6.5 12.7-.1 1.2.9 2.2 2.1 2.3h.1c1.2 0 2.2-.9 2.2-2.1.4-6.6-2.9-13.1-8.4-16.6z"/><path class="st9" d="M439.7 248.9c-.1-.4-.3-.7-.5-1 .7-1.7 1.2-3.4 1.7-5 3.9-14.6 5-24.4 3.4-29.2l-1-3-2.5 2c-3.4 2.8-6.6 7-9.3 10.7-27.3-72-99.3-122.1-176-122.1C151.4 101.3 66.8 186 66.8 290c0 43.5 15.1 85.7 42.5 119.2-10.8 1.7-21.3 4.6-31 7.2l-1.7.5.1 4c.2 7.8.5 16.6 4.8 23.7 1.5 2.5 3.4 4.7 5.2 6.8 1.4 1.6 2.8 3.2 4 4.9 4 5.7 5.8 12.6 7.7 20.4.3 1.4.6 2.9.9 4.5.9 5.1 2 10.9 5.2 14.9l.6.8h1c6.2.3 12.7-1.9 18.9-4 4.9-1.6 9.9-3.3 14.7-3.8 8.4-.8 16.8 2.1 25 4.9l8.1 2.7c14.4 4.3 30 5.3 44.8 3 2.2-.3 4.3-.8 6.5-1.2 6-1.1 11.6-2.2 17.4-1.9 10.8.7 23.9 3.9 34.5 6.4l.5.1c4.6 1.1 9.3 1.6 14.4 1.6 10 0 19.9-2.1 29.5-4.1 9.4-2 19.2-4 28.8-4 4.2 0 8.1.4 11.8 1.2 3.8.8 7.6 2 11.3 3.1 3.5 1.1 7.2 2.2 10.9 3.1 4.7 1 12.2 2.2 17.9 2.2 4.4 0 7.2-.7 8.6-2.2 3-3.3 7-13.3 7.8-19.6.3-2.6.4-5.2.5-7.7.1-3.6.2-7.1 1-10.4 1.1-4.7 3.2-7 5.9-9.9 1.6-1.8 3.4-3.7 5.2-6.5 4.1-6.2 9.4-15.6 8.3-25.4l-.2-1.7-1.7-.3c-8.3-1.4-16.8-2-25.9-2-6.6 0-13.3.4-19.9 1 34.4-35.4 53.4-81.9 53.4-131.4.1-14-1.4-27.8-4.4-41.2zm.8-30c.1 3.9-.8 10.8-4 22.8-1.5 5.5-4.2 11.1-8.4 17.1l-.7 1c-2.7 3.9-5.8 8.4-5.8 13.6 0 4.1 1.9 7.5 3.7 10.8.9 1.7 1.8 3.4 2.5 5.1 1.9 5.2.7 11.1-2.8 14.3l-.6.5c-.9.8-2 1.7-2.6 3.2-.8 1.9-.4 3.8-.1 5.4l.1.6c1.2 5.9-1.6 12.2-6.5 14.7-2.5 1.2-5.5 1.6-8.2 1.8-.9.1-1.8.1-2.7.2-3.3.2-6.8.4-10.2 1.2-4.5 1-8.2 2.9-10.9 5.5-2.1-2.5-4.4-5-7.1-7.5 2.7-5.7 4.4-11.8 5-18.1.5-5 .3-10.2 0-15.2-.4-9-.7-17.4 2.6-25.1 4-9.1 12.9-15.3 21-20.3 1.3-.8 2.6-1.6 4-2.4 7.7-4.5 15.6-9.2 21.5-16.2.9-1.1 2-2.6 3.2-4.3 2.2-2.6 4.6-5.9 7-8.7zm-10.7 49.3c0 2-.3 3.7-1 5-.6 1.2-1.4 2.1-2.4 2.6-.2-.8-.3-1.5-.3-2.3 0-3 1.5-5.9 3.4-8.8.2 1.2.3 2.3.3 3.5zm-257.4 140c.9-5.3 1.8-10.9 2.3-16.4.6-6.6 1-13.4.2-19.9 3.8 3.4 8.2 6 13 7.5-.6 8.7-1.5 17.6-2.8 25.3l-.3 2.1c-.3 2-.7 3.9-.9 5.9-.3 2.6-.3 5.2-.2 7.8-4.2-1.2-8.4-2.4-12.7-3.7.4-2.8.9-5.7 1.4-8.6zm15.7 13.6c-.2-2.8-.1-5.7.2-8.6.2-1.9.5-3.8.8-5.7l.4-2.1c1.3-8.4 2.4-18.2 2.9-27.6l.1-1.8-1.8-.4c-5.3-1.3-10.4-4.2-14.3-8.2-2.2-2.3-4.2-5-6-7.6-1.6-2.2-3.2-4.5-4.6-6.8-3-5.1-5.2-10.9-7.2-16.8-2-5.7-5.2-22.9-8-38.1-2.9-15.5-4.6-24.7-5.8-27.6l3.9-3.8c.9-.9 3.1-1.2 5.4-1.5 5.8-.8 14.7-2.1 16.2-15.2.1-1.2-.7-2.3-1.9-2.5-1.2-.2-2.3.7-2.5 1.9-1.1 9.7-6.6 10.5-12.5 11.3-3 .4-5.9.9-7.8 2.7l-9.7 9.3c-1.9 1.8-3.8 3.6-5.9 4.9-2.5 1.5-5.4 2.4-8.3 2.5-2.1.1-3.7-.3-4.9-1.1-.7-.5-1.1-1.2-1.3-1.9 4.6-.3 9.4-2.6 14-6.6 1.7-1.5 3.2-3 4.7-4.6 2.7-2.7 5.2-5.2 8.2-7.1 1-.7 1.3-2 .7-3.1-.7-1-2-1.3-3.1-.7-3.4 2.2-6.2 5-8.9 7.7-1.5 1.5-3 3-4.5 4.3-2.9 2.5-8.5 6.5-14.2 5.4-4.1-.8-6.9-5.3-7.5-9l-.2-1.2-1.1-.5c-.8-.4-1.8-.8-2.2-1.3-.1-.1-.1-.2-.1-.3.3 0 .8.1 1.1.1 1.2.2 3 .4 4.5-.7.8-.6 1.2-1.3 1.5-1.8l.2-.3c5.6-8.8 11.8-18 19.8-25.6.4-.4 1-.9 1.6-1.5 5.1-4.7 6.6-6.3 6.5-8.1l-.1-1.2-.8-.6c-3.5-2.7-5-6.6-5.2-9.2-.1-1.5.2-2.2.1-2.2h.1c1.5 0 5.8 4.8 7.6 8l.5 1h.3l.1.1c.7.9 1.2 1.7 2.3 1.8h.1c.7.8 1.6 1.5 2.7 1.7 1.3.3 2.7.4 4.1.4 7.8 0 16.2-3.9 21.2-7.7l.9-.7v-.3c.3-.4.6-.8 1-1.2 2-2.5 6.7-8.3 9-6.8.9.6 1.4 1.2 1.4 1.7.2 1.6-2.3 4.1-4.2 6.2-1.7 1.8-3.3 3.5-4.2 5.4-1.1 2.3-1.7 4.9-2 7.9-.8 10.7 3.4 20.8 8.2 31 2.1 4.5 4.2 8.9 6.8 13.1 9.5 15.3 22.2 25.2 37.9 29.7.6 2.5 1.4 5 2.2 7.5 2.4 6.8 5.7 14.8 10.8 22.2.1.4.3.8.6 1.1.1.1.2.1.3.2 1.7 2.4 3.7 4.7 5.9 6.8 9.7 9.4 22.6 14.8 35.1 19 .3.2.6.3.9.3 3 1 5.9 1.9 8.8 2.9 2 .6 3.7 1.2 4.6 2.4.5.6.9 1.5 1.2 2.8.4 1.8-.1 2.8-1.4 5.1-.6 1-1.3 2.2-1.9 3.6-.4.8-.3 1.7.2 2.4l.6.6c-2.6 2.6-5.2 6.3-7.4 10h-.1l-18.3-.1c-5.6 0-11.4 0-17-.4-2.5-.2-5.7-.4-8.8-1.1-2.2-.5-4.4-1.2-6.6-1.8-3.9-1.2-8-2.4-12.1-2.6l.6-1.5c1.1-3.7.4-7.8-1.8-10.9-.7-1-2.1-1.3-3.1-.6-1 .7-1.3 2.1-.6 3.1 1.4 2 1.9 4.8 1.2 7.2-.6 1.9-1.8 3.6-3 5.5-.3.5-.6.9-1 1.4-8.1 12-10.1 26.7-11.7 40-4.8-1.3-9.6-2.4-14.4-3.6zm-54.5-136.7c.2-1.5 0-2.8-.5-4 2.2-1.5 4.2-3.3 6-5.1l2.2-2.1c1.2 4.6 3.2 15.3 5 25 2.9 15.3 6.1 32.7 8.2 38.8 1.1 3.2 2.3 6.4 3.6 9.5-1 .3-2.2.4-3.4.2-1.8-.3-3.3-1.3-4.2-2.6-.2-.3-.3-.5-.5-.8-.5-.9-1.1-1.9-2.2-2.7-1.1-.8-2.6-1.3-4.3-1.4-2.5-.1-4.8.6-7.1 1.3-1.9.6-3.7 1.1-5.4 1.1h-.1c-3.6 0-7.1-2.9-7.8-6.4-.2-1-.2-2.2-.3-3.4-.1-2.8-.2-5.9-2.5-8.3-1.7-1.8-4.4-2.8-7.4-2.5-1.8.1-3.4.6-5 1l-1.4.4c-3.1.8-6.2 1.1-9.4 1-1.2 0-2.4-.1-3.3-.6-.8-.4-1.5-1.3-2.1-2.5-2.7-5.5-.4-12.3 3.1-16.6 2-2.5 4.5-4.5 7-5.6 1.7-.8 3.6-1.2 5.6-1.6l15-3.4c2.7-.6 6-1.4 8.5-3.7 1.5-1.4 2.4-3.2 2.7-5zm12.5-143.4c15.7-11.6 33.3-20.8 52.3-27 1.1 3.9 3.7 7.3 7.3 9.8 4.3 2.9 9.3 3.9 13.9 2.8 2.5-.6 4.8-1.7 7.1-2.8 3.4-1.7 6.6-3.2 9.8-2.6 2.2.4 4.3 2 6.4 3.6 2.8 2.1 5.7 4.3 9.5 4.5 1.9.1 3.8-.3 5.6-.7 2.8-.6 4.6-1 5.9 0 .5.4 1 1.2 1.6 1.9.9 1.3 2.2 3 4.2 3.5-3.8 3.8-6.2 8.9-7.4 15.8-1.1.5-2.2 1-3.2 1.6.1-2.7-.3-5.6-.8-8.5l-.9-6.3-9.6 11.3c-4 4.7-9 10.5-9.7 17.8-.4 4.3 1.3 9.4 5.3 11.4-.2 1.3-.4 2.7-.6 4.1-4.6-4.9-11.8-7.7-19.6-5-7.5 2.6-7.8 12.2-7.9 15.3v2c0 3.6.1 6.1-3.8 8.4-1.9 1.1-5.3-.1-8.2-1.1-1.1-.4-2.1-.7-3.1-1-2.3-.7-8.3-2.4-15.1 3.1-.5-.7-1.2-1.3-2-1.9-4.6-3.2-9.5 1.4-12.9 5.3-.4-6.1-.7-11.9-.7-17.7.2.1.3.2.5.2l2.9.4c2.7.4 4 .6 5.1.6.6 0 1.2-.1 1.9-.2 7.3-1.2 12.2-4.1 14.4-8.7 1.2-2 4.6-3 7.6-4 4.1-1.3 9.3-4.9 10.9-9.3.8-2.2.6-4.2-.5-6-3.3-5.3-7-5.5-10-5.6-2.8-.1-4.9-.2-7.5-4.8-2.7-4.8-9.9-5.2-12.1-5.2-2.5 0-4.9.4-7.2 1.3 1.1-4.4 2.3-8.9 3.7-14l1.9-7-5 3.6c-5 3.6-9.4 8.8-13.4 15-.4.3-.7.8-.8 1.2-.4.7-.9 1.5-1.3 2.2-3.9-5.1-9.5-7.1-14.5-7.3zM336 164.2c0 5.3-1 13-5.6 19.6-6.6 9.5-4.2 22.5-1.2 28.4 2.9 5.6 4.4 11 4.6 16.1.1 5.8-1.7 11.3-5 15.1-1.2 1.4-2.6 2.6-4 3.8-1.5 1.2-3 2.5-4.3 4-4.8 5.4-6.9 13.2-5.5 20.3.3 1.6.8 3.1 1.3 4.6.6 1.7 1.1 3.4 1.3 5.1.4 2.4-.6 6.8-2.1 9.5-.1-3-1-7-5.7-8.7l-1.5-.6c-5.3-2-8.6-3.2-14.9-4.1-5.7-.8-9.7-4.5-10.3-5.4-2.1-3.7-2-7.7.5-12.5.5-1 1.4-2.4 2.4-3.8 1.9-2.8 3.8-5.8 4.5-8.3 1.9-7.4-.1-13.4-6.5-19.5-3.7-3.5-5.6-11.9-5.2-17.7.1-1.1.1-2.2.2-3.2.2-4.1.4-7.2 1.9-11l1.5-.3c5.1-1.4 9.1-4 12.4-7.9 2.9-3.4 5.3-8 7.4-11.9l2.5-4.7-4.3.1c-3.5.1-7.3.2-10.7.7 1-3 1.2-6.2.6-9.2-1.2-6.1-5.6-11.4-11.3-13.7-1.6-.7-3.3-1-4.9-1.1-2.5-.1-4.9.4-7 1.1 2.1-8.4 6.4-13.2 14.3-16.2 8.9-3.4 22.1-2 29.2-.9 3.5.5 6.3 1.3 8.7 2.4 11.6 4.9 16.7 18.6 16.7 29.9zm49.3 50.8c.6 2.5 2.3 4.3 4.4 4.8 2.1.5 4.4-.3 6.3-2.2.5-.5.9-1 1.4-1.6.5-.7 1.1-1.3 1.6-1.7 1.6-1.3 4.1-1.4 5.7-.2 1.7 1.1 2.5 3.5 1.9 5.4l-.2.5c-.3.7-.6 1.6-.6 2.6 0 2 1.3 3.8 3.4 4.9 1.2.6 2.4.8 3.5 1.1l.7.1c2.3.5 3.9 1.3 5 2.4 1.2 1.2 1.9 3.4 1.4 4.6 0 .1 0 .2-.1.3-4.1 3.1-8.6 5.8-13 8.4-1.3.8-2.7 1.6-4 2.4-8.7 5.3-18.2 12.1-22.8 22.2-2.1 4.7-2.9 9.7-3.1 14.7-1.6.4-2.8 1.5-3.8 2.3-1.8 1.5-2.9 2.5-5.9 1-.4-.2-.7-.6-1.2-1.4-.9-1.4-2.2-3.6-5.8-4.2-2.8-.5-5.9 1.1-7.6 2-3.5 2-6.4 2.4-9.2 1.1-3-1.4-4.7-4.9-3.6-7.6.3-.7.8-1.5 1.3-2.3 1-1.5 2.1-3.3 2.2-5.5.1-4.1-3.4-7.1-6.9-7.9-2.6-.6-5.2-.3-7.6 0l-1.4.2c-2.1.2-4.8.3-6.6-.9l-.2-.1c0-.2-.1-.3-.2-.4.8-2.1 2-4 3.4-5.6 1.1-1.3 2.5-2.4 3.9-3.6 1.5-1.3 3.1-2.7 4.5-4.3 4-4.6 6.2-11.2 6.1-18.1-.1-2.3-.4-4.7-1-7.2l.1-.1c2.7-3.3 8.2-2.8 10.5-2.4 1.4.2 2.8.6 4.2.9 3.1.7 6.4 1.5 9.7 1.3 1.1-.1 2.5-.3 3.7-1.1 1.6-1.2 2.2-3 2.5-4.3.4-1.7.5-3.3.7-4.9.2-2 .4-3.9 1-5.7 1-3.1 3.4-5.5 6.2-6.3 2.9-.8 6.2.2 7.8 2.4 1.9 2.5 1.8 6.2 1.6 9.1v.4c-.2 1.2-.3 2.8.1 4.5zm-8.2 81.1c.2 4.8.4 9.8 0 14.6-.5 5.4-1.9 10.5-4 15.4-1.2-1-2.4-2-3.7-3-2.5-2-5.4-4.1-8.9-4.8-.8-1.9-2.1-3.6-3.8-4.8-2.4-1.9-5.2-2.7-7.9-3.4-1.7-.5-3.3-.9-4.8-1.7-1.6-.8-3.1-1.9-4.6-3l-10.9-8.2c-3.4-2.6-6.8-5.4-7.1-9 0-.2-.1-.4-.2-.5.7-2.7.9-5.3.7-7.2-.3-2-.9-3.9-1.5-5.7-.5-1.4-.9-2.8-1.2-4.2-.4-2-.4-4.1-.2-6.1 2.8 1.5 6 1.4 8.6 1.2l1.5-.2c2.2-.3 4.2-.5 6.1 0 1.7.4 3.6 1.9 3.5 3.5 0 1-.7 2-1.5 3.2-.6 1-1.3 2-1.7 3.1-1.8 4.8.9 10.8 5.9 13.2 4 1.9 8.5 1.5 13.2-1.3 1.8-1 3.7-1.6 4.6-1.5 1.6.3 2.1 1 2.8 2.2.6 1.1 1.4 2.4 3.1 3.1 1.7.8 3.2 1.1 4.5 1.1 2.9 0 4.8-1.6 6.2-2.8.3-.3.6-.5.8-.7.3 2.6.4 5 .5 7.5zm-37 109.2l-.3.3c-3.8-.7-7.6-2.6-12.1-6.1.2-.2.3-.4.4-.5 1-1.2 2.1-2.3 3.2-3.4 1.2-1.2 2.4-2.5 3.5-3.8 3.8-4.4 6.8-9.3 9.7-14 .1-.2.2-.5.3-.7.6 0 1.1-.1 1.7-.1 6.7-.4 14-1 19.1-1.1-.1 1.3-.5 2.5-1.4 3.4-.4.4-1 .8-1.6 1.3l-1.2.9c-1.8 1.5-3.4 3.4-5 5.5-1 1.3-2 2.6-3.1 3.8-1.7 1.9-3.8 4.2-5.9 6.5-2.7 2.9-5.2 5.8-7.3 8zm-25.2 3.3c-1.2-1.6-2.6-3.4-3.4-6.9-.8-3.7 0-10.1 2.5-12.7.3-.3.4-.6.5-1 3.3-3.7 6.7-7 10.2-10 2.2-.1 4.2-.1 5.7-.1 1.8 0 5.1-.2 9.3-.4-2.5 4-5 8-8.1 11.5l-3.3 3.6c-1.1 1.2-2.3 2.4-3.4 3.6-1.3 1.5-2.5 3-3.7 4.5l-6.3 7.9zm-14.1-11c-.1 0-.1-.1-.2-.1-4.6-1.6-9.2-3.2-13.7-5 2.8-5.3 6.8-11.3 10.3-13.9.1-.1.2-.2.3-.4 1.5.1 3.3.1 5.7.1 3.6 0 8.4-.1 14.7-.3-6.6 6.3-12.3 13-17.1 19.6zm-20.5-1.2c-.7 1.7-1.3 3.6-2 5.4-.1.2-.1.3-.2.5-2.2-2.9-3-7.5-1.6-10.9h6c-.9 1.8-1.7 3.5-2.2 5zm65.8-23.8c-6.8.5-13.2.9-15.8.9-2.9 0-7.4.1-12.2.2-6.8.2-17.4.5-21.7.1.2-.4.5-.8.7-1.2 1.4-2.4 2.7-4.7 1.9-8.3-.3-1.2-.8-3-2-4.5-1.8-2.3-4.6-3.1-6.7-3.8-1.9-.6-3.8-1.2-5.6-1.8 7.5-7.3 13.4-15 17.5-23 4.7-9.2 7.1-18.9 7-28.2 1.9 1 3.9 1.9 5.7 2.7 1.3.6 2.7 1.1 4 1.6 3.9 1.5 7.6 3 11 5 3.7 2.1 7.2 4.9 10.4 7.6 3.1 2.6 7.2 6.9 10 10.1 8.1 9.2 13.3 19.2 15.5 29.7.1.5.3 1.3.6 2.4.5 1.9 1.9 7.2 1.9 9.4-5-.1-14 .5-22.2 1.1zm-98.9-37.8c-1.5-1.4-2.8-2.9-4-4.5 4-1.4 6.8-3.2 10.6-5.9 7.6-5.6 15.5-11.7 22.2-19.1 7-7.7 11.9-15.8 14.4-24.1.8.2 1.6.4 2.4.5.4.1.8.1 1.2.2-.4 5.4 1.5 10.2 5.9 14.6 1.4 1.5 3 2.7 4.7 3.8.6 9.5-1.6 19.4-6.4 28.9-4.2 8.1-10.4 16-18.4 23.4-12-4.1-23.6-9.1-32.6-17.8zm-71.3-107.9c.2-2.5.7-4.6 1.5-6.4.6-1.2 2-2.7 3.4-4.2 2.4-2.5 4.8-5.1 5.3-8 .1-.1.2-.1.3-.2 5.5-5.3 10.1-4 12.3-3.4.9.3 1.8.6 2.8.9 3.7 1.3 8.2 3 12 .8 6.2-3.6 6.1-8.4 6-12.3v-1.8c.2-6.6 1.7-10.1 4.9-11.2 8.9-3.1 15.6 3.2 17.9 8.2l.1.1c0 .1 0 .3.1.4.7 4.1 3.3 7.8 6.9 9.9 1.2.7 2.3 1.2 3.5 1.5-.5 4.3-1.6 8.5-3.4 12.5-.1.2-.2.5-.3.7-.1.1-.2.1-.3.1l-4.1 2.6c-.4.3-.8.5-1.3.7-1.6.7-2.7.5-4.7.3l-.8-.1c-10.4-1.1-21.8.3-33.8 4.4-10.2 3.4-18.8 7.9-27.8 12.6-.6-2.7-.8-5.3-.5-8.1zm66.4-60c.6-5.5 4.3-10.2 8.7-15.4l3.3-3.9c.4 3.1.5 5.8-.4 8.2-1.3 1.2-2.5 2.6-3.4 4.1-.7 1-.4 2.4.7 3.1 1 .7 2.4.4 3.1-.7 1.3-2 2.9-3.7 4.9-5 2.6-1.8 5.5-3.2 9-4.2 1.8-.5 3.9-1.1 5.8-1 1.1.1 2.3.3 3.5.8 4.4 1.7 7.8 5.8 8.6 10.5.9 4.6-.7 9.7-4.1 12.9-.9.8-.9 2.2-.1 3.1.4.5 1 .7 1.6.7.5 0 1.1-.2 1.5-.6.9-.8 1.6-1.8 2.3-2.8 2.9-.8 6.5-1.1 10.1-1.2-1.8 3.2-3.7 6.6-5.8 9.2-2.7 3.3-5.9 5.3-10.2 6.5-1.4.4-2.5.5-3.4.2-.6-.2-1.2-.6-1.5-1 1.1-1.3 2.2-2.6 3.2-3.9.8-1 .6-2.3-.3-3.1-.9-.8-2.3-.6-3.1.3-2.7 3.4-5.6 6.9-9 9.5-3.6 2.8-7.6 4.2-11.1 3.9-1.7-.1-2.9-.5-4.5-1.5a10 10 0 0 1-4.7-6.8c-.3-1.5-.2-3.2 0-4.7.5-5.4 1.7-10.8 3.5-15.9.4-1.1-.2-2.4-1.3-2.8-1.2-.4-2.4.2-2.8 1.3-.7 2.1-1.4 4.2-1.9 6.3-1.8-1.2-2.4-3.8-2.2-6.1zm37.5 90.5c-1.3 2.5-2 4.8-2.3 7-14.6 17.7-37.8 25.4-50.7 25.6-.9-6.6-1-13.4-.4-20.4.2-1.9.3-3.8.4-5.7l.3-5.1c1.6.2 3.2.3 4.8.3 8.2 0 16.7-2.3 25.8-7 9.5-4.9 17.4-12.6 22.5-22 .3.3.5.6.8.9 5.2 5 6.7 9.4 5.3 15.3-.4 1.8-2.3 4.5-3.9 6.9-1 1.5-1.9 3-2.6 4.2zm-44.3-23.7c1-2.1 2-4.1 3-6.1.8-1.7 1.8-3.3 2.9-4.8 1.1 0 2.3-.3 3.7-.8.7-.3 1.3-.7 2-1.1l2.9-1.9c.5.5 1 1 1.7 1.4 3.1 1.8 6.8 2.7 10.8 2.7.8 0 1.5 0 2.3-.1 3.3-.3 6.9-1.3 10.8-2.9.5 2 1.2 3.9 2 5.7-4.7 9.5-12.4 17.4-21.8 22.2-10.1 5.2-19.3 7.2-28.1 6.2.9-6.7 4.4-13.7 7.8-20.5zm17.9-18.2c2-4.4 3.2-9 3.7-13.7 4.2-.1 8.7-1.8 12.8-4.9 1.3-1 2.4-2 3.5-3.2.8.8 1.8 1.5 2.9 1.9-1.3 3.9-1.5 7.3-1.6 11.1 0 1-.1 2-.2 3.1-.1 1.8 0 3.8.2 5.9-3.8 1.7-7.2 2.6-10.3 2.9-3.9.3-7.6-.4-10.5-2.1-.5-.3-.7-.5-.8-.5.1-.1.2-.3.3-.5zm-47.9 11.1c11-3.7 21.4-5.1 30.8-4.2-.7 1.1-1.3 2.2-1.8 3.3-.9 2-1.9 4-2.9 6-1.1 2.2-2.2 4.5-3.3 6.8-14.7 0-31.7 1.3-47.7 10.4-1.3-3.1-2.4-6.2-3.3-9.4 9.1-4.9 17.9-9.4 28.2-12.9zm20.8 16.3c-1.4 3.6-2.6 7.2-3.1 10.9-.5 3.3-.7 6.6-.8 9.8-.1 1.9-.2 3.7-.4 5.6-.8 9.1-.4 17.8 1.2 26.2-13.5-4.5-24.6-13.5-33-27-2.5-4-4.5-8.2-6.6-12.6-.4-.9-.9-1.8-1.3-2.8 14.6-8.4 29.7-9.9 44-10.1zm1.2 51.5c14.7-.3 35.8-8.5 50.4-23.8.3 1.2.8 2.4 1.5 3.5.8 1.4 3.4 3.8 6.9 5.6-2.4 7.8-6.9 15.4-13.6 22.7-6.5 7-14.2 13-21.6 18.5-3.9 2.8-6.5 4.4-10.7 5.8-4.5-6.7-7.5-14.1-9.8-20.3-1.3-3.9-2.3-7.9-3.1-12zm127.6 34.5c-.2-.2-.4-.5-.6-.7.5-1.2.9-2.4 1.2-3.6.2-1.2-.5-2.4-1.7-2.6-1.2-.3-2.4.5-2.6 1.7-.1.3-.1.5-.2.7-.3-.3-.6-.7-1-1l1.1-2.5c.5-1.1 0-2.4-1.1-2.9s-2.4 0-2.9 1.1l-.4.9c-1.3-1.3-2.6-2.5-3.8-3.5-3.3-2.8-7-5.7-11.1-8.1-3.7-2.1-7.7-3.7-11.6-5.2-1.3-.5-2.7-1.1-4-1.6-4.5-1.9-9.6-4.3-13.5-8.2-3.4-3.4-4.8-6.7-4.7-10.6 2.8.7 5.1 1.6 8.4 2.8l1.5.6c2.8 1.1 3 3.4 2.8 6.6-.1 1.7-.2 3.5 1.4 4.4.4.3.9.3 1.3.3 1 0 1.9-.6 2.3-.8 1-.7 1.9-1.7 2.7-2.9 1.7 2.8 4.4 5 7.1 7l10.9 8.2c1.6 1.2 3.3 2.5 5.3 3.4 1.8.9 3.7 1.4 5.5 1.9 2.4.7 4.7 1.3 6.4 2.7 1.9 1.5 3.2 3.9 3.2 6.4.2 1.9-.6 3.9-1.9 5.5zM165.9 211.6c-2.4 1.7-5.3 3.1-8.2 4.2 2.7-2.5 5.6-5.4 7.9-8.1.1 1.2.2 2.6.3 3.9zm-22.5.8c0-.8.7-4.5 1.9-9.9 4.6-5.5 12.8-11.9 19.6-15.4-.1 4.6 0 9 .2 13.5-.2.2-.4.4-.5.6-3.4 6.3-14.6 15.3-16.2 16.3-1.2 0-2.3 0-3.3-.2-.6-.2-1.7-2.8-1.7-4.9zm28.9-70c-.8 0-1.5.1-2.3.2 1-1.3 2.1-2.6 3.2-3.8-.3 1.3-.6 2.4-.9 3.6zm2.5 10.7c2.4-1.3 5.2-2.1 7.8-2 2.5 0 7 .7 8.3 3 3.8 6.7 7.9 6.9 11.1 7.1 2.6.1 4.3.2 6.4 3.6.2.4.5 1 .1 2.2-1 2.7-5.1 5.7-8.3 6.7-3.3 1-7.8 2.4-9.8 5.8-.1.1-.2.3-.3.5-1.5 3.1-5.2 5.2-11.1 6.2-1.3.2-1.5.2-5.7-.4l-2.9-.4c-.4-.1-.7 0-1.1.1.2-6.6.9-13.4 2.4-21.1.8-4 1.5-7.5 2.3-11 .3-.2.6-.2.8-.3zm-9.1-4.3c1.7-1 3.5-1.6 5.5-1.9-.5 1.9-1 3.9-1.4 5.9-2.7.6-5.3 1.6-7.9 2.7 1.2-2.3 2.4-4.6 3.8-6.7zm-7.2 13.5c3.1-2.1 6.5-3.6 10.1-4.7-.4 1.8-.8 3.7-1.2 5.8-.2 1-.3 2-.5 3h-.2c-2.4.5-5.2 2.2-7.6 3.7-.8.5-1.6 1-2.3 1.4-.6.4-1.6 1-2.8 1.9 1.4-3.7 2.9-7.4 4.5-11.1zm-9.5 26.3c.3-.3.5-.6.6-1 .1-.3.1-.7 0-1 .5-1.8 1.1-3.6 1.7-5.5.3-.2 1.1-.8 2-1.6 1.6-1.3 4.6-3.6 5.5-4.1.7-.4 1.6-.9 2.5-1.5 1.5-.9 3.3-2 4.8-2.6-.5 3.8-.9 7.4-1.1 10.9h-.2c-5.6 2.5-12.2 7-17.5 11.8.6-1.7 1.1-3.5 1.7-5.4zm62.3 213.5c4.3-.2 6.9 0 10.3 3.7 2.4 2.6 2.6 4.1 2.8 6.2.2 1.6.4 3.6 1.8 6.2 1.9 3.6 4.6 5 6.6 6.1 2.1 1.1 2.8 1.6 2.9 3.3-.3 0-.6.1-1 .1-2.1.1-4.3.2-6.4.2-7.2 0-14.3-.7-21.4-1.9.9-7.9 2-16.1 4.4-23.9zm28.8 25c-.4-4.2-3.1-5.6-5.3-6.8-1.8-.9-3.5-1.8-4.8-4.3-1-1.8-1.1-3.1-1.3-4.6-.3-2.3-.6-4.9-3.9-8.6-4.1-4.5-7.7-5.2-12-5.2 1.4-3.5 3-7 5.1-10.1l.9-1.3c.2-.2.3-.5.5-.8 4.4-.4 8.8.9 13.4 2.4 2.2.7 4.6 1.4 6.9 1.9 3.4.7 6.8 1 9.4 1.2 5.8.4 11.6.4 17.3.4h5.4c-1.4 5.4.5 12 4.6 15.5-.2.6-.5 1.2-.7 1.8l-7 17.6c-1.2-.2-2.3-.3-3.5-.5-1.8-.2-3.7-.3-5.7-.3-5.1 0-10.2.6-15.1 1.1-1.3.3-2.7.5-4.2.6zm39.8-16.8c.9-2.2 1.7-4.6 2.6-7 .6-1.8 1.3-3.6 1.9-5.3.2-.4.4-.9.6-1.4 4.3 1.7 8.8 3.3 13.2 4.8-4.4 6.4-8.1 12.6-11 17.9-1.6 3-3.4 6.4-3.7 10.3-1.2-.3-2.3-.6-3.5-.9-2.2-.5-4.5-1.1-6.7-1.6l6.6-16.8zm8 19.7c.2-3 1.8-6 3.2-8.6.5-1 1.1-2 1.7-3 1.8 1 3.7 2.5 3.5 7-.1 3.1-2.5 5.4-2.8 5.7-.1.1-.2.2-.3.2-1.8-.2-3.6-.5-5.4-.8 0-.2.1-.3.1-.5zm7-15.5c3.7-6.2 7.7-12.1 11.8-17.5-.1 2 0 4 .3 5.6 1.1 4.8 3 7.2 4.5 9 .2.2.3.4.4.6l-1.8 2.3c-3.9 5-7.9 10.1-10.4 16.2-.1.3-.2.6-.2 1h-1c1.1-1.7 2-3.8 2-6.1.4-7.1-3.2-9.8-5.6-11.1zm18.8 2.7l10.8-13.9c.1-.1.2-.3.3-.4 3 2.3 6.9 4.9 11.4 6.3l-3.5 3.5c-5.7 5.7-11.2 11.1-16.2 18.3v.1h-1.1c-3.2.1-7.3.3-11.2.4 2.4-5.1 6-9.8 9.5-14.3zm13 8.2c3.4.7 5.4 2.3 5.9 5-3.1.2-6.3.4-10.3.5h-.1c1.4-1.9 2.9-3.7 4.5-5.5zm10.2 4.6c-.6-3.9-3-6.7-6.9-8.2 1.9-2 3.9-4 5.9-6 2.4-2.4 4.9-4.9 7.4-7.6 2.1-2.2 4.7-5.2 7.2-8 2.1-2.3 4.1-4.6 5.8-6.5 1.2-1.3 2.3-2.7 3.4-4.1 1.5-1.9 2.9-3.7 4.3-4.8.3-.3.7-.5 1-.7.7-.5 1.5-1 2.2-1.8 1.8-1.8 2.7-4.2 2.7-6.7.7-.1 1.5-.4 1.9-1 1.6-2 .9-6.1-1.2-13.9-.2-.9-.4-1.7-.5-2.1-1.9-9.3-6.1-18.1-12.2-26.4 2.3-2.4 3.7-5.6 3.7-9 1.7.8 3.4 2 5 3.2 7 5.4 12 10.5 15.9 15.8 4.7 6.4 7.6 13.3 8.3 20.1 1.2 10.2-2.3 19.4-5.5 25.4-4.6 8.7-11.2 16-16.4 21.4l-1.3 1.3c-3.3 3.3-7.6 7.7-7.6 15.4-4.6.8-9.1 1.7-13.4 2.6-3.7.8-6.8 1.3-9.7 1.6zm91.4-202.6c0 .1.1.2.1.2-.4.6-.8 1.1-1.2 1.5-1 1.1-2 2.2-3.1 3.3-.5-1.7-1.4-3.3-2.5-4.4-1.7-1.7-4.1-2.9-7.3-3.6l-.8-.2c-.9-.2-1.7-.3-2.4-.7-.6-.3-.9-.7-.9-1 0-.2.1-.6.3-1 .1-.2.2-.5.2-.7 1.2-3.8-.3-8.2-3.6-10.4-3.3-2.2-7.9-2-11 .4-.9.7-1.6 1.6-2.2 2.3-.4.4-.7.9-1.1 1.3-.7.8-1.6 1.2-2.1 1-.5-.1-1-.8-1.1-1.5-.2-1-.1-2.1 0-3.3v-.4c.3-3.7.3-8.5-2.4-12.2-2.8-3.7-7.9-5.3-12.6-3.9-4.2 1.2-7.7 4.7-9.2 9.1-.8 2.2-1 4.5-1.2 6.7-.1 1.5-.3 3-.6 4.3-.2.9-.5 1.5-.8 1.7-.3.2-1.1.3-1.4.3-2.8.2-5.5-.5-8.5-1.2-1.5-.4-3-.7-4.4-1-5.1-.9-9.6-.1-12.7 2.2-.7-2-1.6-4.1-2.7-6.2-2.7-5.2-4.3-16.4.9-23.8 4.2-6 6.3-13.6 6.4-22.1 0-5.2-1-10.8-3-16 .3 0 .6.1.9.1 3.2 0 6.3-.9 9-2.7 3.6-2.3 6.1-6.1 7-10.2 33.4 21.7 60.1 53.8 74 92.1zm-78.1-94.5c0 .1-.1.2-.1.3-.3 3.5-2.4 6.8-5.3 8.8-2.8 1.8-6.5 2.4-9.7 1.5-3.2-5.7-7.8-10.6-14-13.4-2.8-1.3-6-2.2-9.9-2.8-7.5-1.2-21.6-2.6-31.4 1.2-2.5.9-4.7 2.1-6.6 3.4-.4-1-1.5-1.5-2.5-1.3-.4-.1-1.2-1.2-1.7-1.9-.6-.9-1.4-1.9-2.3-2.7-3-2.4-6.5-1.6-9.6-.9-1.6.4-3.1.7-4.4.6-2.5-.1-4.7-1.8-7.1-3.6-2.4-1.9-5-3.8-8.2-4.4-4.6-.9-8.6 1-12.6 2.9-2.1 1-4.2 2-6.2 2.5-3.4.8-7.2 0-10.4-2.1-2.8-1.9-4.7-4.5-5.5-7.4 16.7-5 34.4-7.7 52.8-7.7 33.6-.2 66.4 9.7 94.7 27zm-211.8 14.8c.2-.1.4-.1.5-.2 2.9-1.8 13-3.1 18.2 4.3.3.5.8.7 1.4.8-5.4 10.1-9.7 21.7-12.8 31.9-3.8-.3-7.7.6-10.8 2.7-1.7 1.2-3 2.7-4.2 4.2-1.2 1.5-2.4 2.9-3.9 3.7-5.8 3-8.5 2.6-12.7 2-1.5-.2-3.3-.5-5.3-.6-6-.3-11.5 2.9-15.1 5.4 11.2-20.8 26.5-39.2 44.7-54.2zm-48.1 60.6c.2.1.4.1.6.1 1.1 0 2.2-.8 3.8-1.9 3-2.1 8.5-5.9 13.8-5.6 1.9.1 3.4.3 4.9.6 4.5.7 8.4 1.2 15.4-2.5 2.2-1.2 3.7-3 5.2-4.7 1.1-1.3 2.1-2.5 3.3-3.3 2.1-1.4 4.6-2.1 7-2.1-2.9 10.2-4.6 18.4-5.1 21.9-2.5-3.2-6.3-6.9-9.7-6-1.7.4-2.9 1.9-3.3 3.9-.8 3.9 1 9.9 5.4 14.1-1.1 1.3-3.3 3.3-4.5 4.4-.6.6-1.2 1.1-1.7 1.6-8.3 7.9-14.8 17.4-20.5 26.4l-.3.6c-.1.1-.2.3-.1.3-.2.1-.9 0-1.3-.1-1.3-.2-3.1-.4-4.6.8-2.1 1.7-1.9 4.6-.5 6.4.8 1.1 1.9 1.7 2.9 2.2 1.1 4.9 4.8 9.9 10.1 11.3.1 2.2 1.3 4.5 3.3 5.9 1.8 1.3 4.2 2 7 2h.6c2.5-.1 4.9-.6 7.2-1.5.2.5.1 1 .1 1.3-.1.9-.6 1.7-1.2 2.3-1.6 1.5-4.2 2.1-6.4 2.6l-15 3.4c-2.1.5-4.3 1-6.4 1.9-3.2 1.4-6.1 3.7-8.6 6.8-5.3 6.6-6.7 15-3.6 21.3 1 2 2.3 3.5 3.9 4.4 1.7 1 3.7 1.1 5.4 1.2 3.6.1 7.1-.3 10.6-1.1.5-.1 1-.3 1.5-.4 1.4-.4 2.8-.8 4.2-.9 1.6-.1 3.1.3 3.9 1.2 1.1 1.2 1.2 3.1 1.3 5.4 0 1.4.1 2.8.4 4.2 1.1 5.5 6.4 9.9 12.1 10 2.4 0 4.7-.7 6.8-1.3 2-.6 3.9-1.2 5.6-1.1.8 0 1.4.2 1.8.5.4.3.7.9 1.1 1.5.2.3.4.7.6 1 1.6 2.3 4.1 3.9 7.1 4.5.7.1 1.5.2 2.2.2 1.3 0 2.6-.3 3.9-.7.7 1.4 1.4 2.7 2.2 4 1.5 2.5 3.2 4.8 4.8 7.1.7 1 1.5 2 2.2 3v.2c1.7 5.4 2 11.6 1.7 17.8-5.1-.4-5.9-1.3-8.8-4.6l-1-1.1c-2.8-3.2-6.5-7.6-10.8-8.3-7.2-1.2-12 0-15.8 1-2.9.8-5.3 1.4-8 .8-3.7-.7-5.8-2.1-8.1-3.6-3-1.9-6-3.9-11.9-3.8-11.5.4-14.7 4.8-16.5 7.2-12.8-25-19.4-52.7-19.4-81 0-29.3 6.9-57.1 19.2-81.7zm1.8 167c.6-.4 1-1 1.5-1.6 1.4-1.9 3.7-5.1 13-5.4 4.5-.2 6.6 1.2 9.4 3 2.4 1.6 5.1 3.3 9.6 4.2 3.8.8 6.8 0 10-.9 3.8-1 7.7-2 13.9-.9 2.7.5 6 4.3 8.2 6.8l1 1.2c3.5 3.9 5.2 5.6 11.9 6.1l-.3 3.6c-.5 5.4-1.4 10.8-2.3 16.1-.4 2.7-.9 5.4-1.2 8-.4-.1-.8-.2-1.2-.4l-1-.3c-8.2-2.6-16.7-5.3-25.4-6.5-3.7-.5-7.6-.8-11.6-.8-4.5 0-8.9.3-13.4.9-8.6-10.2-16-21.3-22.1-33.1zm342.1 51.2c.1 7.8-4.3 15.6-7.8 20.8-1.6 2.4-3.2 4.2-4.8 5.9-2.9 3.1-5.6 6.1-6.9 12-.8 3.8-1 7.6-1.1 11.3-.1 2.5-.2 5-.5 7.4-.7 5.9-4.7 15-6.6 17.2 0 0-.9.8-5.3.8-5.4 0-12.5-1.1-17-2.1-3.5-.8-7.1-1.9-10.6-3-3.8-1.2-7.7-2.4-11.7-3.2-4.1-.8-8.2-1.2-12.7-1.2-10.1 0-20.1 2.1-29.7 4.1-9.4 2-19.1 4-28.6 4-4.8 0-9.2-.5-13.4-1.5l-.5-.1c-10.7-2.6-24.1-5.8-35.2-6.5-6.3-.4-12.5.8-18.5 1.9-2.1.4-4.3.8-6.4 1.1-14.2 2.2-29.1 1.3-42.9-2.9-2.6-.8-5.3-1.7-7.9-2.6-8.6-2.9-17.5-6-26.8-5.1-5.2.5-10.5 2.3-15.7 4-5.7 1.9-11.2 3.8-16.3 3.8-2.1-3.2-2.9-7.7-3.7-12.1-.3-1.6-.6-3.2-.9-4.7-2-8.3-3.9-15.6-8.3-21.9-1.3-1.9-2.8-3.6-4.2-5.2-1.8-2.1-3.5-4-4.8-6.2-3.7-6-3.9-13.9-4.1-21.5v-.5c14.5-4 30.8-8.2 46.6-8.2 3.8 0 7.5.2 11 .7 8.4 1.1 16.7 3.8 24.7 6.3l1 .3c21.4 6.8 42.4 12.8 64 12.8 2.3 0 4.5-.1 6.7-.2 3.3-.2 6.7-.6 10-.9 6.7-.7 13.9-1.4 19.9-.8 4.7.5 9.4 1.6 14 2.8 5.2 1.3 10.5 2.6 16.1 3 5.2.4 14.5 0 20.6-.3l6.8-.3c9.7-.4 15-.6 25.1-2.6 19.2-3.8 41.5-8 63.2-8 8-.3 15.7.3 23.2 1.4zm-69.7-1.4c.2-5.4 3.3-8.5 6.3-11.4l1.3-1.3c5.4-5.6 12.3-13.3 17.1-22.4 4.9-9.4 7-19 5.9-28-.9-7.3-3.9-14.9-8.9-21.8 2.7-2.7 6.4-4.1 9.1-4.7 3.1-.7 6.2-.9 9.5-1.1.9-.1 1.8-.1 2.7-.2 3.1-.2 6.6-.6 9.8-2.2 6.6-3.3 10.4-11.7 8.8-19.5l-.1-.7c-.2-1.1-.4-2.1-.2-2.7.2-.5.8-1 1.4-1.5l.7-.6c4.9-4.4 6.6-12.2 4-19.1-.7-2-1.8-3.9-2.7-5.7-.4-.8-.8-1.5-1.2-2.3 2-.9 3.7-2.6 4.7-4.8.9-1.9 1.4-4.1 1.4-6.8 0-2.9-.4-5.8-1.3-8.6 1.2-1.9 2.3-3.7 3.3-5.5 2.3 11.7 3.5 23.8 3.5 35.8 0 50-19.7 96.7-55.4 131.7-.1.1-.2.3-.3.5-6.5.8-13 1.8-19.4 2.9z"/><path id="XMLID_122_" class="st9" d="M136.2 432.2c-6.7-1.3-13.8-.7-18.7 0l-1.1.2-.5 1c-.8 1.6-.5 3.4-.2 4.4l7 31.5c.2 1 1.1 1.7 2.2 1.7.2 0 .3 0 .5-.1 1.2-.3 1.9-1.4 1.7-2.6l-3.5-15.6c1 .1 1.9.2 2.9.2 2.7 0 5.5-.2 8.2-.7 1.2-.2 2-1.3 1.8-2.5-.2-1.2-1.3-2-2.5-1.8-3.7.6-7.6.8-11.4.4l-2.5-11.5c0-.1-.1-.3-.1-.5 5.7-.7 11.2-.6 15.5.2 1.2.2 2.4-.6 2.6-1.8.1-1.1-.7-2.3-1.9-2.5z"/><path class="st9" d="M170.4 432.8c-3.5-.4-4.9 3.9-5.8 6.8-.2.6-.3 1.1-.5 1.4-3.3 8.4-6.3 17.2-8.8 25.9-.3 1.2.4 2.4 1.5 2.7 1.2.3 2.4-.4 2.7-1.5.9-3.2 1.9-6.4 2.9-9.5 4.9-.3 9.8.2 14.5 1.4h.2c.7 3.3 1.4 6.7 1.9 10 .2 1.1 1.1 1.9 2.2 1.9h.3c1.2-.2 2-1.3 1.8-2.5.1-.4-5.5-35.7-12.9-36.6zm-6.4 21.4c1.3-3.9 2.7-7.7 4.2-11.5.2-.5.4-1.1.6-1.7.3-.8.8-2.4 1.3-3.3 1.6 2.1 4 9.3 6.1 17.7-4.1-.9-8.1-1.3-12.2-1.2z"/><path id="XMLID_119_" class="st9" d="M232.3 441.7c-1.2-.2-2.4.6-2.6 1.8-1.7 9.4-2.2 19.1-1.5 28.6-.4-.2-.8-.6-1.4-1.2-3.5-3.5-6-7.8-8.7-12.4-1.9-3.3-3.9-6.7-6.3-9.8-.3-.4-.7-1-1.2-1.7-3.3-4.7-4.8-6.7-6.9-6.2-.8.2-1.7.9-1.9 2.3-1.1 8.9-.8 15.7-.5 21.6.2 3.6.3 6.9.2 10.5 0 1.2.9 2.2 2.1 2.3h.1c1.2 0 2.2-.9 2.2-2.1.2-3.8 0-7.2-.2-10.9-.2-5-.5-10.2.1-16.7.5.7.9 1.3 1.2 1.8.5.8 1 1.4 1.3 1.8 2.2 2.9 4.1 6.2 6 9.4 2.7 4.6 5.5 9.4 9.4 13.3 1.3 1.3 3.4 3.1 6 2.7 1.3-.2 2-.9 2.4-1.4.8-1.1.7-2.2.6-2.9-.7-9.4-.2-18.9 1.4-28.2.2-1.2-.6-2.4-1.8-2.6z"/><path id="XMLID_118_" class="st9" d="M278 443.9c-7 .2-14.2 0-21.1-.3l-3.8-.1c-1.2 0-2.2.9-2.3 2.1 0 1.2.9 2.2 2.1 2.3l3.8.1c1.9.1 3.8.1 5.7.2 0 9.8.2 19.7.8 29.4.1 1.2 1 2.1 2.2 2.1h.1c1.2-.1 2.1-1.1 2.1-2.3-.6-9.6-.8-19.3-.8-29 1.8 0 3.6.1 5.4.1 2 0 3.9 0 5.9-.1 1.2 0 2.2-1.1 2.1-2.3.1-1.3-1-2.2-2.2-2.2z"/><path class="st9" d="M309.7 456.4c-.4-.9-.9-2.2-1.3-3.6-1.8-5-3-8.1-5.3-8.8-1-.3-2-.1-2.9.5-.8.5-2.7 1.9-5.7 11.5-2.2 7.3-5 14.6-8.2 21.5-.5 1.1 0 2.4 1.1 2.9s2.4 0 2.9-1.1c1-2.1 1.9-4.3 2.8-6.5 2.5.2 4.8.3 7.1.3 2.8 0 5.6-.1 8.7-.3.7 0 1.3-.2 1.9-.3l.7-.1c.2 0 .4-.1.6-.2 1.3 2.8 2.7 5.7 4 8.4.4.8 1.2 1.2 2 1.2.3 0 .6-.1 1-.2 1.1-.5 1.6-1.9 1-3-3.4-7.1-6.9-14.6-10.4-22.2zm.4 11.8c-.5.1-.9.2-1.4.2-5 .4-9.2.4-13.8.2 1.4-3.7 2.7-7.5 3.9-11.3 1.4-4.6 2.6-7.1 3.3-8.3.7 1.4 1.6 3.8 2.1 5.3s1 2.9 1.5 4c1.5 3.3 3.1 6.6 4.6 9.9h-.2z"/><path id="XMLID_115_" class="st9" d="M337.8 451.3c-.2 2.7.9 5.2 3.4 7.6 3 2.9 5.9 5 8.1 6.7 4 3 6 4.6 6.3 7.2.2 2-.5 2.9-1 3.4-1.9 1.9-6.2 1.9-7.9 1.7-2.1-.3-4.7-2.8-5.7-4.9-.5-1.1-1.8-1.6-2.9-1-1.1.5-1.6 1.8-1 2.9 1.5 3.2 5.2 6.8 9.1 7.4.1 0 1 .1 2.4.1 2.6 0 6.6-.5 9.2-3 1.3-1.2 2.7-3.5 2.3-7.1-.5-4.7-3.8-7.2-8-10.3-2.3-1.7-4.9-3.6-7.7-6.4-1.5-1.4-2.2-2.8-2.1-4.1.1-1.7 1.6-3.3 3-4.3 1.1-.7 3.3-1.2 5.5-.7 1 .3 2.4.8 3 2.1.6 1.1 1.9 1.5 3 .9s1.5-1.9.9-3c-1.1-2.1-3.2-3.7-5.9-4.3-3.2-.8-6.8-.2-9.1 1.3-1.4 1.2-4.6 3.8-4.9 7.8z"/><path id="XMLID_114_" class="st9" d="M386.9 461.7c.1 4.2.2 8.5.1 12.7 0 1.2-.1 2.7-.2 4l-.9.9 1.6 2.9 1.6-.3c.8-.1 1.8-.8 2-2.2.2-1.8.2-3.7.3-5.3.1-4 .1-8 0-12 .4-.3.8-.7 1.1-1.1 3.2-5.3 8.1-11.6 12.6-17 .8-.9.6-2.3-.3-3.1-.9-.8-2.3-.6-3.1.3-4.2 5.2-8.9 11.1-12.2 16.3l-2.3-2.7c-3.2-3.8-7.9-9.6-8.9-11.1-.2-1-1.1-1.7-2.1-1.7h-1.4l-.6 1.3c-.7 1.6-.7 1.6 9.7 14.3l3 3.8z"/><g><path id="XMLID_113_" class="st4" d="M287.9 430c.2-3 1.8-6 3.2-8.6.5-1 1.1-2 1.7-3 1.8 1 3.7 2.5 3.5 7-.1 3.1-2.5 5.4-2.8 5.7-.1.1-.2.2-.3.2-1.8-.2-3.6-.5-5.4-.8 0-.2.1-.3.1-.5z"/></g><g><path id="XMLID_112_" class="st4" d="M326.7 425.4c3.4.7 5.4 2.3 5.9 5-3.1.2-6.3.4-10.3.5h-.1c1.4-1.9 2.9-3.7 4.5-5.5z"/></g><g><path id="XMLID_111_" class="st7" d="M143.4 212.4c0-.8.7-4.5 1.9-9.9 4.6-5.5 12.8-11.9 19.6-15.4-.1 4.6 0 9 .2 13.5-.2.2-.4.4-.5.6-3.4 6.3-14.6 15.3-16.2 16.3-1.2 0-2.3 0-3.3-.2-.6-.2-1.7-2.8-1.7-4.9z"/></g><g><path id="XMLID_110_" class="st7" d="M165.7 148.8c1.7-1 3.5-1.6 5.5-1.9-.5 1.9-1 3.9-1.4 5.9-2.7.6-5.3 1.6-7.9 2.7 1.2-2.3 2.4-4.6 3.8-6.7z"/></g><g><path id="XMLID_109_" class="st7" d="M149 188.6c.3-.3.5-.6.6-1 .1-.3.1-.7 0-1 .5-1.8 1.1-3.6 1.7-5.5.3-.2 1.1-.8 2-1.6 1.6-1.3 4.6-3.6 5.5-4.1.7-.4 1.6-.9 2.5-1.5 1.5-.9 3.3-2 4.8-2.6-.5 3.8-.9 7.4-1.1 10.9h-.2c-5.6 2.5-12.2 7-17.5 11.8.6-1.7 1.1-3.5 1.7-5.4z"/></g><g><path id="XMLID_108_" class="st7" d="M165.9 211.6c-2.4 1.7-5.3 3.1-8.2 4.2 2.7-2.5 5.6-5.4 7.9-8.1.1 1.2.2 2.6.3 3.9z"/></g><g><path id="XMLID_107_" class="st7" d="M172.3 142.4c-.8 0-1.5.1-2.3.2 1-1.3 2.1-2.6 3.2-3.8-.3 1.3-.6 2.4-.9 3.6z"/></g><g><path id="XMLID_106_" class="st7" d="M158.5 162.3c3.1-2.1 6.5-3.6 10.1-4.7-.4 1.8-.8 3.7-1.2 5.8-.2 1-.3 2-.5 3h-.2c-2.4.5-5.2 2.2-7.6 3.7-.8.5-1.6 1-2.3 1.4-.6.4-1.6 1-2.8 1.9 1.4-3.7 2.9-7.4 4.5-11.1z"/></g><g><path id="XMLID_105_" class="st7" d="M346.1 372.6c-6.8.5-13.2.9-15.8.9-2.9 0-7.4.1-12.2.2-6.8.2-17.4.5-21.7.1.2-.4.5-.8.7-1.2 1.4-2.4 2.7-4.7 1.9-8.3-.3-1.2-.8-3-2-4.5-1.8-2.3-4.6-3.1-6.7-3.8-1.9-.6-3.8-1.2-5.6-1.8 7.5-7.3 13.4-15 17.5-23 4.7-9.2 7.1-18.9 7-28.2 1.9 1 3.9 1.9 5.7 2.7 1.3.6 2.7 1.1 4 1.6 3.9 1.5 7.6 3 11 5 3.7 2.1 7.2 4.9 10.4 7.6 3.1 2.6 7.2 6.9 10 10.1 8.1 9.2 13.3 19.2 15.5 29.7.1.5.3 1.3.6 2.4.5 1.9 1.9 7.2 1.9 9.4-5-.1-14 .5-22.2 1.1z"/></g><g><path id="XMLID_104_" class="st7" d="M247.2 334.8c-1.5-1.4-2.8-2.9-4-4.5 4-1.4 6.8-3.2 10.6-5.9 7.6-5.6 15.5-11.7 22.2-19.1 7-7.7 11.9-15.8 14.4-24.1.8.2 1.6.4 2.4.5.4.1.8.1 1.2.2-.4 5.4 1.5 10.2 5.9 14.6 1.4 1.5 3 2.7 4.7 3.8.6 9.5-1.6 19.4-6.4 28.9-4.2 8.1-10.4 16-18.4 23.4-12-4.1-23.6-9.1-32.6-17.8z"/></g><g><path id="XMLID_103_" class="st7" d="M279.8 257.4c-1.3 2.5-2 4.8-2.3 7-14.6 17.7-37.8 25.4-50.7 25.6-.9-6.6-1-13.4-.4-20.4.2-1.9.3-3.8.4-5.7l.3-5.1c1.6.2 3.2.3 4.8.3 8.2 0 16.7-2.3 25.8-7 9.5-4.9 17.4-12.6 22.5-22 .3.3.5.6.8.9 5.2 5 6.7 9.4 5.3 15.3-.4 1.8-2.3 4.5-3.9 6.9-1 1.5-1.9 3-2.6 4.2z"/></g><g><path id="XMLID_102_" class="st7" d="M235.5 233.7c1-2.1 2-4.1 3-6.1.8-1.7 1.8-3.3 2.9-4.8 1.1 0 2.3-.3 3.7-.8.7-.3 1.3-.7 2-1.1l2.9-1.9c.5.5 1 1 1.7 1.4 3.1 1.8 6.8 2.7 10.8 2.7.8 0 1.5 0 2.3-.1 3.3-.3 6.9-1.3 10.8-2.9.5 2 1.2 3.9 2 5.7-4.7 9.5-12.4 17.4-21.8 22.2-10.1 5.2-19.3 7.2-28.1 6.2.9-6.7 4.4-13.7 7.8-20.5z"/></g><g><path id="XMLID_101_" class="st7" d="M227.5 294.4c14.7-.3 35.8-8.5 50.4-23.8.3 1.2.8 2.4 1.5 3.5.8 1.4 3.4 3.8 6.9 5.6-2.4 7.8-6.9 15.4-13.6 22.7-6.5 7-14.2 13-21.6 18.5-3.9 2.8-6.5 4.4-10.7 5.8-4.5-6.7-7.5-14.1-9.8-20.3-1.3-3.9-2.3-7.9-3.1-12z"/></g></g><g><path class="st10" d="M71.8 583.1h1.9v13.2H80v1.6h-8.3v-14.8zM91.4 592.5c0 3.9-2.7 5.7-5.3 5.7-2.9 0-5.1-2.1-5.1-5.5 0-3.6 2.3-5.7 5.3-5.7 3.1.1 5.1 2.3 5.1 5.5zm-8.4.1c0 2.3 1.3 4.1 3.2 4.1 1.8 0 3.2-1.7 3.2-4.1 0-1.8-.9-4.1-3.2-4.1-2.2 0-3.2 2.1-3.2 4.1zM93.9 590.6c0-1.3 0-2.3-.1-3.3h1.7l.1 2.1h.1c.5-1.4 1.6-2.3 2.9-2.3.2 0 .4 0 .5.1v1.8c-.2 0-.4-.1-.7-.1-1.4 0-2.3 1-2.6 2.5 0 .3-.1.6-.1.9v5.7h-1.9v-7.4zM101.9 593c0 2.6 1.7 3.7 3.7 3.7 1.4 0 2.2-.2 2.9-.5l.3 1.4c-.7.3-1.8.7-3.5.7-3.3 0-5.2-2.2-5.2-5.4s1.9-5.7 5-5.7c3.5 0 4.4 3.1 4.4 5 0 .4 0 .7-.1.9h-7.5zm5.7-1.4c0-1.2-.5-3.1-2.7-3.1-2 0-2.8 1.8-3 3.1h5.7zM111.9 590.2c0-1.1 0-2-.1-2.9h1.7l.1 1.7h.1c.6-1 1.6-2 3.3-2 1.5 0 2.6.9 3 2.1.3-.6.7-1.1 1.2-1.4.6-.5 1.3-.7 2.4-.7 1.4 0 3.5.9 3.5 4.6v6.3h-1.9v-6c0-2-.7-3.3-2.3-3.3-1.1 0-2 .8-2.3 1.8-.1.3-.2.6-.2 1v6.6h-1.9v-6.4c0-1.7-.7-2.9-2.2-2.9-1.2 0-2.1 1-2.4 1.9-.1.3-.2.6-.2.9v6.4h-1.9v-7.7zM137 584.3c0 .7-.5 1.2-1.2 1.2s-1.2-.5-1.2-1.2.5-1.2 1.2-1.2c.8 0 1.2.5 1.2 1.2zm-2.1 13.7v-10.7h1.9V598h-1.9zM140 590.8c0-1.4 0-2.5-.1-3.5h1.7l.1 1.8c.8-1.3 2.1-2.1 3.8-2.1 2.6 0 4.5 2.2 4.5 5.4 0 3.8-2.3 5.7-4.8 5.7-1.4 0-2.6-.6-3.3-1.7v5.8H140v-11.4zm1.9 2.8c0 .3 0 .6.1.8.4 1.3 1.5 2.3 2.9 2.3 2 0 3.2-1.7 3.2-4.1 0-2.1-1.1-4-3.2-4-1.3 0-2.6.9-2.9 2.4-.1.2-.1.5-.1.8v1.8zM152.3 596c.6.4 1.6.8 2.6.8 1.4 0 2.1-.7 2.1-1.6 0-.9-.5-1.4-2-2-1.9-.7-2.8-1.7-2.8-3 0-1.7 1.4-3.1 3.7-3.1 1.1 0 2 .3 2.6.7l-.5 1.4c-.4-.3-1.2-.6-2.2-.6-1.1 0-1.8.7-1.8 1.5 0 .9.6 1.3 2 1.8 1.9.7 2.8 1.6 2.8 3.2 0 1.9-1.5 3.2-4 3.2-1.2 0-2.2-.3-3-.7l.5-1.6zM170.2 595c0 1.1 0 2.1.1 2.9h-1.7l-.1-1.7c-.5.9-1.6 2-3.5 2-1.7 0-3.7-.9-3.7-4.7v-6.2h1.9v5.9c0 2 .6 3.4 2.4 3.4 1.3 0 2.2-.9 2.6-1.8.1-.3.2-.6.2-1v-6.5h1.9v7.7zM173.4 590.2c0-1.1 0-2-.1-2.9h1.7l.1 1.7h.1c.6-1 1.6-2 3.3-2 1.5 0 2.6.9 3 2.1.3-.6.7-1.1 1.2-1.4.6-.5 1.3-.7 2.4-.7 1.4 0 3.5.9 3.5 4.6v6.3h-1.9v-6c0-2-.7-3.3-2.3-3.3-1.1 0-2 .8-2.3 1.8-.1.3-.2.6-.2 1v6.6H180v-6.4c0-1.7-.7-2.9-2.2-2.9-1.2 0-2.1 1-2.4 1.9-.1.3-.2.6-.2.9v6.4h-1.9v-7.7zM205.6 582.3v12.9c0 .9 0 2 .1 2.8H204l-.1-1.8c-.6 1.2-1.9 2.1-3.6 2.1-2.6 0-4.6-2.2-4.6-5.4 0-3.5 2.2-5.7 4.8-5.7 1.6 0 2.7.8 3.2 1.6v-6.4h1.9zm-2 9.3c0-.2 0-.6-.1-.8-.3-1.2-1.3-2.2-2.8-2.2-2 0-3.2 1.8-3.2 4.1 0 2.2 1.1 3.9 3.1 3.9 1.3 0 2.5-.9 2.8-2.3.1-.3.1-.5.1-.8v-1.9zM218.4 592.5c0 3.9-2.7 5.7-5.3 5.7-2.9 0-5.1-2.1-5.1-5.5 0-3.6 2.3-5.7 5.3-5.7 3.1.1 5.1 2.3 5.1 5.5zm-8.4.1c0 2.3 1.3 4.1 3.2 4.1 1.8 0 3.2-1.7 3.2-4.1 0-1.8-.9-4.1-3.2-4.1-2.2 0-3.2 2.1-3.2 4.1zM220.9 582.3h1.9V598h-1.9v-15.7zM235.7 592.5c0 3.9-2.7 5.7-5.3 5.7-2.9 0-5.1-2.1-5.1-5.5 0-3.6 2.3-5.7 5.3-5.7 3 .1 5.1 2.3 5.1 5.5zm-8.5.1c0 2.3 1.3 4.1 3.2 4.1 1.9 0 3.2-1.7 3.2-4.1 0-1.8-.9-4.1-3.2-4.1-2.2 0-3.2 2.1-3.2 4.1zM238.1 590.6c0-1.3 0-2.3-.1-3.3h1.7l.1 2.1h.1c.5-1.4 1.6-2.3 2.9-2.3.2 0 .4 0 .6.1v1.8c-.2 0-.4-.1-.7-.1-1.4 0-2.3 1-2.6 2.5 0 .3-.1.6-.1.9v5.7h-1.9v-7.4zM249.7 596c.6.4 1.6.8 2.6.8 1.4 0 2.1-.7 2.1-1.6 0-.9-.5-1.4-2-2-1.9-.7-2.8-1.7-2.8-3 0-1.7 1.4-3.1 3.7-3.1 1.1 0 2 .3 2.6.7l-.5 1.4c-.4-.3-1.2-.6-2.2-.6-1.1 0-1.8.7-1.8 1.5 0 .9.6 1.3 2 1.8 1.8.7 2.8 1.6 2.8 3.2 0 1.9-1.5 3.2-4 3.2-1.2 0-2.2-.3-3-.7l.5-1.6zM260.9 584.3c0 .7-.5 1.2-1.2 1.2s-1.2-.5-1.2-1.2.5-1.2 1.2-1.2 1.2.5 1.2 1.2zm-2.2 13.7v-10.7h1.9V598h-1.9zM266.2 584.2v3.1h2.8v1.5h-2.8v5.7c0 1.3.4 2.1 1.4 2.1.5 0 .9-.1 1.1-.1l.1 1.5c-.4.2-1 .3-1.7.3-.9 0-1.6-.3-2.1-.8-.5-.6-.7-1.5-.7-2.8v-5.8h-1.7v-1.5h1.7v-2.6l1.9-.6zM281.7 598l-.2-1.3h-.1c-.6.8-1.7 1.6-3.3 1.6-2.2 0-3.3-1.5-3.3-3.1 0-2.6 2.3-4 6.4-4v-.2c0-.9-.2-2.5-2.4-2.5-1 0-2 .3-2.8.8l-.4-1.3c.9-.6 2.2-.9 3.5-.9 3.3 0 4.1 2.2 4.1 4.4v4c0 .9 0 1.8.2 2.6h-1.7zm-.3-5.5c-2.1 0-4.5.3-4.5 2.4 0 1.2.8 1.8 1.8 1.8 1.4 0 2.3-.9 2.6-1.8.1-.2.1-.4.1-.6v-1.8zM286.4 590.2c0-1.1 0-2-.1-2.9h1.7l.1 1.7h.1c.6-1 1.6-2 3.3-2 1.5 0 2.6.9 3 2.1.3-.6.7-1.1 1.2-1.4.6-.5 1.3-.7 2.4-.7 1.4 0 3.5.9 3.5 4.6v6.3h-1.9v-6c0-2-.7-3.3-2.3-3.3-1.1 0-2 .8-2.3 1.8-.1.3-.2.6-.2 1v6.6H293v-6.4c0-1.7-.7-2.9-2.2-2.9-1.2 0-2.1 1-2.4 1.9-.1.3-.2.6-.2.9v6.4h-1.9v-7.7zM305.8 593c0 2.6 1.7 3.7 3.6 3.7 1.4 0 2.2-.2 3-.5l.3 1.4c-.7.3-1.8.7-3.5.7-3.3 0-5.2-2.2-5.2-5.4s1.9-5.7 5-5.7c3.5 0 4.4 3.1 4.4 5 0 .4 0 .7-.1.9h-7.5zm5.7-1.4c0-1.2-.5-3.1-2.7-3.1-2 0-2.8 1.8-3 3.1h5.7zM318.1 584.2v3.1h2.8v1.5h-2.8v5.7c0 1.3.4 2.1 1.4 2.1.5 0 .9-.1 1.1-.1l.1 1.5c-.4.2-1 .3-1.7.3-.9 0-1.6-.3-2.1-.8-.5-.6-.7-1.5-.7-2.8v-5.8h-1.7v-1.5h1.7v-2.6l1.9-.6zM321.7 600.7c.5-1.3 1.1-3.7 1.3-5.3l2.2-.2c-.5 1.9-1.5 4.3-2.1 5.3l-1.4.2zM339.8 597.6c-.5.3-1.6.6-3.1.6-3.2 0-5.3-2.2-5.3-5.4 0-3.3 2.2-5.7 5.7-5.7 1.1 0 2.2.3 2.7.6l-.4 1.5c-.5-.3-1.2-.5-2.2-.5-2.4 0-3.8 1.8-3.8 4 0 2.5 1.6 4 3.7 4 1.1 0 1.8-.3 2.4-.5l.3 1.4zM351.6 592.5c0 3.9-2.7 5.7-5.3 5.7-2.9 0-5.1-2.1-5.1-5.5 0-3.6 2.3-5.7 5.3-5.7 3 .1 5.1 2.3 5.1 5.5zm-8.5.1c0 2.3 1.3 4.1 3.2 4.1 1.9 0 3.2-1.7 3.2-4.1 0-1.8-.9-4.1-3.2-4.1-2.2 0-3.2 2.1-3.2 4.1zM354 590.2c0-1.1 0-2-.1-2.9h1.7l.1 1.8c.5-1 1.8-2 3.5-2 1.5 0 3.8.9 3.8 4.5v6.4h-1.9v-6.1c0-1.7-.6-3.1-2.5-3.1-1.3 0-2.3.9-2.6 2-.1.2-.1.6-.1.9v6.4H354v-7.9zM365.9 596c.6.4 1.6.8 2.6.8 1.4 0 2.1-.7 2.1-1.6 0-.9-.5-1.4-2-2-1.9-.7-2.8-1.7-2.8-3 0-1.7 1.4-3.1 3.7-3.1 1.1 0 2 .3 2.6.7l-.5 1.4c-.4-.3-1.2-.6-2.2-.6-1.1 0-1.8.7-1.8 1.5 0 .9.6 1.3 2 1.8 1.9.7 2.8 1.6 2.8 3.2 0 1.9-1.5 3.2-4 3.2-1.2 0-2.2-.3-3-.7l.5-1.6zM376 593c0 2.6 1.7 3.7 3.7 3.7 1.4 0 2.2-.2 3-.5l.3 1.4c-.7.3-1.9.7-3.5.7-3.3 0-5.2-2.2-5.2-5.4s1.9-5.7 5-5.7c3.5 0 4.4 3.1 4.4 5 0 .4 0 .7-.1.9H376zm5.7-1.4c0-1.2-.5-3.1-2.7-3.1-2 0-2.8 1.8-3 3.1h5.7zM393.5 597.6c-.5.3-1.6.6-3.1.6-3.2 0-5.3-2.2-5.3-5.4 0-3.3 2.2-5.7 5.7-5.7 1.1 0 2.2.3 2.7.6l-.4 1.5c-.5-.3-1.2-.5-2.2-.5-2.4 0-3.8 1.8-3.8 4 0 2.5 1.6 4 3.7 4 1.1 0 1.8-.3 2.4-.5l.3 1.4zM398.4 584.2v3.1h2.8v1.5h-2.8v5.7c0 1.3.4 2.1 1.5 2.1.5 0 .9-.1 1.1-.1l.1 1.5c-.4.2-1 .3-1.7.3-.9 0-1.6-.3-2.1-.8-.6-.6-.7-1.5-.7-2.8v-5.8h-1.7v-1.5h1.7v-2.6l1.8-.6zM404.3 593c0 2.6 1.7 3.7 3.7 3.7 1.4 0 2.2-.2 2.9-.5l.3 1.4c-.7.3-1.8.7-3.5.7-3.3 0-5.2-2.2-5.2-5.4s1.9-5.7 5-5.7c3.5 0 4.4 3.1 4.4 5 0 .4 0 .7-.1.9h-7.5zm5.7-1.4c0-1.2-.5-3.1-2.7-3.1-2 0-2.8 1.8-3 3.1h5.7zM416.6 584.2v3.1h2.8v1.5h-2.8v5.7c0 1.3.4 2.1 1.5 2.1.5 0 .9-.1 1.1-.1l.1 1.5c-.4.2-1 .3-1.7.3-.9 0-1.6-.3-2.1-.8-.6-.6-.7-1.5-.7-2.8v-5.8H413v-1.5h1.7v-2.6l1.9-.6zM430.5 595c0 1.1 0 2.1.1 2.9h-1.7l-.1-1.7c-.5.9-1.6 2-3.5 2-1.7 0-3.7-.9-3.7-4.7v-6.2h1.9v5.9c0 2 .6 3.4 2.4 3.4 1.3 0 2.2-.9 2.6-1.8.1-.3.2-.6.2-1v-6.5h1.9v7.7zM433.7 590.6c0-1.3 0-2.3-.1-3.3h1.7l.1 2.1h.1c.5-1.4 1.7-2.3 3-2.3.2 0 .4 0 .5.1v1.8c-.2 0-.4-.1-.7-.1-1.4 0-2.3 1-2.6 2.5 0 .3-.1.6-.1.9v5.7h-1.9v-7.4zM77.6 624.4l-.2-1.3h-.1c-.6.8-1.7 1.6-3.3 1.6-2.2 0-3.3-1.5-3.3-3.1 0-2.6 2.3-4 6.4-4v-.2c0-.9-.2-2.5-2.4-2.5-1 0-2 .3-2.8.8l-.4-1.3c.9-.6 2.2-.9 3.5-.9 3.3 0 4.1 2.2 4.1 4.4v4c0 .9 0 1.8.2 2.6h-1.7zm-.3-5.5c-2.1 0-4.5.3-4.5 2.4 0 1.2.8 1.8 1.8 1.8 1.4 0 2.3-.9 2.6-1.8.1-.2.1-.4.1-.6v-1.8zM91.5 608.7v12.9c0 .9 0 2 .1 2.8h-1.7l-.1-1.8c-.6 1.2-1.9 2.1-3.6 2.1-2.6 0-4.6-2.2-4.6-5.4 0-3.5 2.2-5.7 4.8-5.7 1.6 0 2.7.8 3.2 1.6v-6.4h1.9zm-1.9 9.3c0-.2 0-.6-.1-.8-.3-1.2-1.3-2.2-2.8-2.2-2 0-3.2 1.8-3.2 4.1 0 2.2 1.1 3.9 3.1 3.9 1.3 0 2.5-.9 2.8-2.3.1-.3.1-.5.1-.8V618zM96.9 610.7c0 .7-.5 1.2-1.2 1.2s-1.2-.5-1.2-1.2.5-1.2 1.2-1.2 1.2.5 1.2 1.2zm-2.2 13.7v-10.7h1.9v10.7h-1.9zM99.9 617.2c0-1.4 0-2.5-.1-3.5h1.7l.1 1.8c.8-1.3 2-2.1 3.8-2.1 2.6 0 4.5 2.2 4.5 5.4 0 3.8-2.3 5.7-4.8 5.7-1.4 0-2.6-.6-3.3-1.7v5.8h-1.9v-11.4zm1.9 2.8c0 .3 0 .6.1.8.4 1.3 1.5 2.3 2.9 2.3 2 0 3.2-1.7 3.2-4.1 0-2.1-1.1-4-3.2-4-1.3 0-2.6.9-2.9 2.4-.1.2-.1.5-.1.8v1.8zM114.5 610.7c0 .7-.5 1.2-1.2 1.2s-1.2-.5-1.2-1.2.5-1.2 1.2-1.2c.8 0 1.2.5 1.2 1.2zm-2.1 13.7v-10.7h1.9v10.7h-1.9zM117.3 622.4c.6.4 1.6.8 2.6.8 1.4 0 2.1-.7 2.1-1.6 0-.9-.5-1.4-2-2-1.9-.7-2.8-1.7-2.8-3 0-1.7 1.4-3.1 3.7-3.1 1.1 0 2 .3 2.6.7l-.5 1.4c-.4-.3-1.2-.6-2.2-.6-1.1 0-1.8.7-1.8 1.5 0 .9.6 1.3 2 1.8 1.8.7 2.8 1.6 2.8 3.2 0 1.9-1.5 3.2-4 3.2-1.2 0-2.2-.3-3-.7l.5-1.6zM133.8 624c-.5.3-1.6.6-3.1.6-3.2 0-5.3-2.2-5.3-5.4 0-3.3 2.2-5.7 5.7-5.7 1.1 0 2.2.3 2.7.6l-.4 1.5c-.5-.3-1.2-.5-2.2-.5-2.4 0-3.8 1.8-3.8 4 0 2.5 1.6 4 3.7 4 1.1 0 1.8-.3 2.4-.5l.3 1.4zM138.3 610.7c0 .7-.5 1.2-1.2 1.2s-1.2-.5-1.2-1.2.5-1.2 1.2-1.2 1.2.5 1.2 1.2zm-2.2 13.7v-10.7h1.9v10.7h-1.9zM141.3 616.6c0-1.1 0-2-.1-2.9h1.7l.1 1.8c.5-1 1.8-2 3.5-2 1.5 0 3.8.9 3.8 4.5v6.4h-1.9v-6.1c0-1.7-.6-3.1-2.5-3.1-1.3 0-2.3.9-2.6 2-.1.2-.1.6-.1.9v6.4h-1.9v-7.9zM162.6 613.7c0 .8-.1 1.6-.1 2.9v6.2c0 2.4-.5 3.9-1.5 4.9-1 1-2.5 1.3-3.9 1.3-1.3 0-2.7-.3-3.5-.9l.5-1.5c.7.4 1.8.8 3.1.8 2 0 3.4-1 3.4-3.7v-1.2c-.6 1-1.7 1.8-3.4 1.8-2.6 0-4.5-2.2-4.5-5.2 0-3.6 2.4-5.7 4.8-5.7 1.9 0 2.9 1 3.3 1.9l.1-1.6h1.7zm-2 4.2c0-.3 0-.6-.1-.9-.3-1.1-1.3-2-2.7-2-1.8 0-3.2 1.6-3.2 4 0 2.1 1.1 3.8 3.1 3.8 1.2 0 2.3-.7 2.7-2 .1-.3.2-.7.2-1v-1.9zM171.5 619.4c0 2.6 1.7 3.7 3.6 3.7 1.4 0 2.2-.2 3-.5l.3 1.4c-.7.3-1.9.7-3.5.7-3.3 0-5.2-2.2-5.2-5.4s1.9-5.7 5-5.7c3.5 0 4.4 3.1 4.4 5 0 .4 0 .7-.1.9h-7.5zm5.7-1.4c0-1.2-.5-3.1-2.7-3.1-2 0-2.8 1.8-3 3.1h5.7zM181.4 608.7h1.9v15.6h-1.9v-15.6zM188.8 610.7c0 .7-.5 1.2-1.2 1.2s-1.2-.5-1.2-1.2.5-1.2 1.2-1.2 1.2.5 1.2 1.2zm-2.2 13.7v-10.7h1.9v10.7h-1.9zM194.1 610.6v3.1h2.8v1.5h-2.8v5.7c0 1.3.4 2.1 1.5 2.1.5 0 .9-.1 1.1-.1l.1 1.5c-.4.2-1 .3-1.7.3-.9 0-1.6-.3-2.1-.8-.6-.6-.7-1.5-.7-2.8v-5.8h-1.7v-1.5h1.7v-2.6l1.8-.6zM197.7 627.1c.5-1.3 1.1-3.7 1.3-5.3l2.2-.2c-.5 1.9-1.5 4.3-2.1 5.3l-1.4.2zM208 622.4c.6.4 1.6.8 2.6.8 1.4 0 2.1-.7 2.1-1.6 0-.9-.5-1.4-2-2-1.9-.7-2.8-1.7-2.8-3 0-1.7 1.4-3.1 3.7-3.1 1.1 0 2 .3 2.6.7l-.5 1.4c-.4-.3-1.2-.6-2.2-.6-1.1 0-1.8.7-1.8 1.5 0 .9.6 1.3 2 1.8 1.8.7 2.8 1.6 2.8 3.2 0 1.9-1.5 3.2-4 3.2-1.2 0-2.2-.3-3-.7l.5-1.6zM218 619.4c0 2.6 1.7 3.7 3.7 3.7 1.4 0 2.2-.2 2.9-.5l.3 1.4c-.7.3-1.9.7-3.5.7-3.3 0-5.2-2.2-5.2-5.4s1.9-5.7 5-5.7c3.5 0 4.4 3.1 4.4 5 0 .4 0 .7-.1.9H218zm5.7-1.4c0-1.2-.5-3.1-2.7-3.1-2 0-2.8 1.8-3 3.1h5.7zM237.2 608.7v12.9c0 .9 0 2 .1 2.8h-1.7l-.1-1.8c-.6 1.2-1.9 2.1-3.6 2.1-2.6 0-4.6-2.2-4.6-5.4 0-3.5 2.2-5.7 4.8-5.7 1.6 0 2.7.8 3.2 1.6v-6.4h1.9zm-2 9.3c0-.2 0-.6-.1-.8-.3-1.2-1.3-2.2-2.8-2.2-2 0-3.2 1.8-3.2 4.1 0 2.2 1.1 3.9 3.1 3.9 1.3 0 2.5-.9 2.8-2.3.1-.3.1-.5.1-.8V618zM254.2 608.7v12.9c0 .9 0 2 .1 2.8h-1.7l-.1-1.8c-.6 1.2-1.9 2.1-3.6 2.1-2.6 0-4.6-2.2-4.6-5.4 0-3.5 2.2-5.7 4.8-5.7 1.6 0 2.7.8 3.2 1.6v-6.4h1.9zm-1.9 9.3c0-.2 0-.6-.1-.8-.3-1.2-1.3-2.2-2.8-2.2-2 0-3.2 1.8-3.2 4.1 0 2.2 1.1 3.9 3.1 3.9 1.3 0 2.5-.9 2.8-2.3.1-.3.1-.5.1-.8V618zM267.1 618.9c0 3.9-2.7 5.7-5.3 5.7-2.9 0-5.1-2.1-5.1-5.5 0-3.6 2.3-5.7 5.3-5.7 3 .1 5.1 2.3 5.1 5.5zm-8.5.1c0 2.3 1.3 4.1 3.2 4.1 1.8 0 3.2-1.7 3.2-4.1 0-1.8-.9-4.1-3.2-4.1-2.2 0-3.2 2.1-3.2 4.1zM275.2 619.4c0 2.6 1.7 3.7 3.7 3.7 1.4 0 2.2-.2 3-.5l.3 1.4c-.7.3-1.9.7-3.5.7-3.3 0-5.2-2.2-5.2-5.4s1.9-5.7 5-5.7c3.5 0 4.4 3.1 4.4 5 0 .4 0 .7-.1.9h-7.6zm5.7-1.4c0-1.2-.5-3.1-2.7-3.1-2 0-2.8 1.8-3 3.1h5.7zM287.3 610.7c0 .7-.5 1.2-1.2 1.2s-1.2-.5-1.2-1.2.5-1.2 1.2-1.2c.8 0 1.2.5 1.2 1.2zm-2.1 13.7v-10.7h1.9v10.7h-1.9zM299.3 621.4c0 1.1 0 2.1.1 2.9h-1.7l-.1-1.7c-.5.9-1.6 2-3.5 2-1.7 0-3.7-.9-3.7-4.7v-6.2h1.9v5.9c0 2 .6 3.4 2.4 3.4 1.3 0 2.2-.9 2.6-1.8.1-.3.2-.6.2-1v-6.5h1.9v7.7zM302.2 622.4c.6.4 1.6.8 2.6.8 1.4 0 2.1-.7 2.1-1.6 0-.9-.5-1.4-2-2-1.9-.7-2.8-1.7-2.8-3 0-1.7 1.4-3.1 3.7-3.1 1.1 0 2 .3 2.6.7l-.5 1.4c-.4-.3-1.2-.6-2.2-.6-1.1 0-1.8.7-1.8 1.5 0 .9.6 1.3 2 1.8 1.8.7 2.8 1.6 2.8 3.2 0 1.9-1.4 3.2-4 3.2-1.2 0-2.2-.3-3-.7l.5-1.6zM311.2 616.6c0-1.1 0-2-.1-2.9h1.7l.1 1.7h.1c.6-1 1.6-2 3.3-2 1.5 0 2.6.9 3 2.1.3-.6.7-1.1 1.2-1.4.6-.5 1.3-.7 2.4-.7 1.4 0 3.5.9 3.5 4.6v6.3h-1.9v-6c0-2-.7-3.3-2.3-3.3-1.1 0-2 .8-2.3 1.8-.1.3-.2.6-.2 1v6.6h-1.9V618c0-1.7-.7-2.9-2.2-2.9-1.2 0-2.1 1-2.4 1.9-.1.3-.2.6-.2.9v6.4h-1.9v-7.7zM339.2 618.9c0 3.9-2.7 5.7-5.3 5.7-2.9 0-5.1-2.1-5.1-5.5 0-3.6 2.3-5.7 5.3-5.7 3 .1 5.1 2.3 5.1 5.5zm-8.5.1c0 2.3 1.3 4.1 3.2 4.1 1.9 0 3.2-1.7 3.2-4.1 0-1.8-.9-4.1-3.2-4.1-2.2 0-3.2 2.1-3.2 4.1zM350.8 608.7v12.9c0 .9 0 2 .1 2.8h-1.7l-.1-1.8c-.6 1.2-1.9 2.1-3.6 2.1-2.6 0-4.6-2.2-4.6-5.4 0-3.5 2.2-5.7 4.8-5.7 1.6 0 2.7.8 3.2 1.6v-6.4h1.9zm-1.9 9.3c0-.2 0-.6-.1-.8-.3-1.2-1.3-2.2-2.8-2.2-2 0-3.2 1.8-3.2 4.1 0 2.2 1.1 3.9 3.1 3.9 1.3 0 2.5-.9 2.8-2.3.1-.3.1-.5.1-.8V618zM361 610.6v3.1h2.8v1.5H361v5.7c0 1.3.4 2.1 1.5 2.1.5 0 .9-.1 1.1-.1l.1 1.5c-.4.2-1 .3-1.7.3-.9 0-1.6-.3-2.1-.8-.6-.6-.7-1.5-.7-2.8v-5.8h-1.7v-1.5h1.7v-2.6l1.8-.6zM366.9 619.4c0 2.6 1.7 3.7 3.7 3.7 1.4 0 2.2-.2 2.9-.5l.3 1.4c-.7.3-1.8.7-3.5.7-3.3 0-5.2-2.2-5.2-5.4s1.9-5.7 5-5.7c3.5 0 4.4 3.1 4.4 5 0 .4 0 .7-.1.9h-7.5zm5.7-1.4c0-1.2-.5-3.1-2.7-3.1-2 0-2.8 1.8-3 3.1h5.7zM376.8 616.6c0-1.1 0-2-.1-2.9h1.7l.1 1.7h.1c.6-1 1.6-2 3.3-2 1.5 0 2.6.9 3 2.1.3-.6.7-1.1 1.2-1.4.6-.5 1.3-.7 2.4-.7 1.4 0 3.5.9 3.5 4.6v6.3h-1.9v-6c0-2-.7-3.3-2.3-3.3-1.1 0-2 .8-2.3 1.8-.1.3-.2.6-.2 1v6.6h-1.9V618c0-1.7-.7-2.9-2.2-2.9-1.2 0-2.1 1-2.4 1.9-.1.3-.2.6-.2.9v6.4h-1.9v-7.7zM395.2 617.2c0-1.4 0-2.5-.1-3.5h1.7l.1 1.8c.8-1.3 2-2.1 3.8-2.1 2.6 0 4.5 2.2 4.5 5.4 0 3.8-2.3 5.7-4.8 5.7-1.4 0-2.6-.6-3.3-1.7v5.8h-1.9v-11.4zm1.9 2.8c0 .3 0 .6.1.8.3 1.3 1.5 2.3 2.9 2.3 2.1 0 3.2-1.7 3.2-4.1 0-2.1-1.1-4-3.2-4-1.3 0-2.6.9-2.9 2.4-.1.2-.1.5-.1.8v1.8zM417.3 618.9c0 3.9-2.7 5.7-5.3 5.7-2.9 0-5.1-2.1-5.1-5.5 0-3.6 2.3-5.7 5.3-5.7 3.1.1 5.1 2.3 5.1 5.5zm-8.4.1c0 2.3 1.3 4.1 3.2 4.1 1.9 0 3.2-1.7 3.2-4.1 0-1.8-.9-4.1-3.2-4.1-2.2 0-3.2 2.1-3.2 4.1zM419.8 617c0-1.3 0-2.3-.1-3.3h1.7l.1 2.1h.1c.5-1.4 1.7-2.3 3-2.3.2 0 .4 0 .5.1v1.8c-.2 0-.4-.1-.7-.1-1.4 0-2.3 1-2.6 2.5 0 .3-.1.6-.1.9v5.7h-1.9V617z"/></g></svg>