<svg version="1.1" id="Layer_1" xmlns="http://www.w3.org/2000/svg" x="0" y="0" width="510" height="710" xml:space="preserve"><style>.st0{fill:#fff}.st1{fill:#6d6c6d}.st3{fill:#a45170}.st4{fill:#b2c765}.st5{fill:#fdcd9d}.st6{fill:#aeaeae}.st8{fill:#505050}.st10{fill:#fec65f}.st12{fill:#6b97cf}.st14{fill:#d69329}.st15{fill:#231f20}.st16{fill:#152347}.st17{fill:#7e8d3e}</style><path id="XMLID_206_" class="st0" d="M5 1.4h500v707.1H5z"/><path id="XMLID_205_" class="st1" d="M292.7 239c1.5.7 3.1 1.1 4.8 1.4 1.7.2 3.3.2 5 .2 2.5 0 4.9-.1 7 .8.9.4 1.6 1.1 1.6 1.6 0 .7-.9 1.4-2.4 2.4-1.8 1.2-4 2.7-4.4 5.4-.4 3 1.9 5.4 4.3 6.3 2.1.7 4.2.6 6.3.4 5.5-.4 9.9-.2 13.9.6-4.9 6.7-10.1 13-17.1 13.9-4.5-5.9-11-12.3-20.4-18.6-2.6-1.7-5.3-2.9-8-4.1-1.5-.6-2.8-1.3-4.2-2 .2-.3.4-.7.6-1l3.3-5.5c.4.1.9.2 1.2.3 1.1.2 2.1.4 3.2.4.9 0 1.6-.1 2.4-.4 1.1-.3 2.1-1.1 2.9-2.1z"/><path id="XMLID_204_" class="st1" d="M256.1 259.6c.8.4 1.6.7 2.5.9.9.2 1.8.3 2.8.3 1.2 0 2.5-.2 3.8-.6-.4 1-.8 1.9-1.2 2.8-.7 1.3-1.7 3.2-3.1 3.6-1 .3-2.2-.1-3.1-.9-.9-.9-1.5-2.2-1.6-3.7-.3-.8-.2-1.6-.1-2.4z"/><path id="XMLID_203_" class="st1" d="M269 253.4c-3 2.6-6.5 3.7-9.5 3-4.7-1.1-7.3-6.5-7.5-11.1-.1-5.3 2.2-10.7 4.3-15.5l1.4-3.2c.2.2.5.4.7.5 2.7 2.1 5.5 4.3 8.5 6.1 4.5 2.6 8.7 4.7 12 6.1l-2.9 4.8c-2 3.3-4.1 6.8-7 9.3z"/><path id="XMLID_202_" d="M287 362.3c-.1.6-.4 1.8.1 3-.3.1-.6.3-.9.4-2.1 1.1-3.5 3.1-3.7 5.2v-.4c-.3-6.9-.4-22.4-.4-27.8v-.6c.1.1.2.1.4.2.7.3 1.4.8 2.1 1.3.9.6 1.7 1.2 2.8 1.6l5.5 2.4c-2.3 4.5-4.7 9.4-5.9 14.7z" fill="#7d7d7d"/><path id="XMLID_201_" class="st3" d="M424.5 394.4c8.7-.6 12.6-3.4 15.4-5.5 2.1-1.6 2.9-2.1 4.7-1.6 5 1.2 5 4.6 4.6 9.3l-.1.7c0 .2 0 .3.1.5-3.5 21.3-29.5 33.8-52.1 38.2-7.9 1.5-16.3 1.5-24.3 1.5h-6.3c15.8-13.9 28.9-30.1 38.9-47.9 4.4 2.8 11.5 5.3 19.1 4.8z"/><path id="XMLID_200_" class="st4" d="M117.3 422.4s0-.1-.1-.1c-15.7-16.9-27.8-36.3-35.9-57.4 1.3.1 2.5.2 3.8.2 4.8 0 9.6-1 17.1-5.8 6-3.9 19.7-21.6 34-40.7.2 0 .4 0 .6-.1 1.9-.9 4.2-2.1 6.5-3.4 3-1.7 6.1-3.4 8.5-4.3.8-.3 1.1-.3 1.2-.3.1.1.2.4.2 1.4.1 2.9-.4 5.6-.8 8.3-.7 4.5-1.5 9.2.2 14.3.5 1.5 1.2 3.2 2.6 4.4.9.8 2.1 1.3 3.3 1.3.3 0 .6 0 .9-.1 1.8-.3 3.2-1.6 4.3-3.9 3.6-7.2 8.1-13.3 12.6-17.2 0 0 1-.5 1.3 0 .4.7 1.2 2.8 2 4.9 3.3 8.8 5.9 15.1 9.9 15.1h.1c3-.1 3.9-4.1 5.1-11.1.2-1.3.4-2.5.6-3.5.1-.6.3-1 .4-1.2.1.1.3.2.5.5 1.6 1.7 3.4 2.9 5.1 4.1 1.5 1 2.9 2 4.1 3.2 3.3 3.3 5.9 5.2 8.3 4.6 2.3-.6 3.2-3.1 3.6-4.2.4-1.2.7-3.1 1.1-5.4.4-2.3.9-5.5 1.4-6.5.5-1 1.8-1.6 2.9-1.4.3.1.5.1.8 0 7.4 6.3 16.1 10 24.8 10.6.5 1.8 1.1 3.5 1.6 5.3.4 1.2.8 2.3 1.1 3.5 3.9 12.6 4.5 26 1.9 38.9l-.1.7c-.5 2.4-1 4.8-.6 7.4.8 5.6 5.5 9.3 9.4 12 4.4 3 9.1 5.6 13.6 8.2 4.7 2.6 9.5 5.4 14 8.5 5.5 3.8 10.5 8.3 15.1 13.4.4.4.7.7 1.1 1 .2 1.1.3 2.2.3 3.3 0 .8-.2 1.6-.3 2.3-.3 1-.8 2-1.3 3l-3.4 7.1c-.2.4-.4.9-.6 1.5-.3 0-.6-.1-.8-.1-4-.6-8.1-1.8-12-3-3.2-.9-6.6-1.9-10-2.6-9.7-2-19.8-1.8-29.4-1.5-4.4.1-8.9.2-13.3.1-17.2-.4-34.6-4.1-51.5-7.7-21.9-4.8-43.9-9.5-65.8-7.6z"/><path id="XMLID_199_" class="st5" d="M256.1 259.6c.8.4 1.6.7 2.5.9.9.2 1.8.3 2.8.3 1.2 0 2.5-.2 3.8-.6-.4 1-.8 1.9-1.2 2.8-.7 1.3-1.7 3.2-3.1 3.6-1 .3-2.2-.1-3.1-.9-.9-.9-1.5-2.2-1.6-3.7-.3-.8-.2-1.6-.1-2.4z"/><path id="XMLID_198_" class="st5" d="M213.9 156.3s0-.1-.1-.1c.3-1.1-.3-2.2-1.4-2.6-1.1-.4-2.3.3-2.7 1.4-.1.4-.4.9-.7 1.1-.3.1-.6.1-.8 0 0-.1-.1-.2-.1-.3 0-.1 0-.4-.1-.6-.1-.9-.1-2.6-1.7-3.4-1.5-.8-2.8.3-4.1 1.3-.2.1-.3.2-.4.4v-.5c0-.9 0-2.2-1-3.2-1.5-1.4-3.3-.4-4.3.2-.1.1-.3.2-.5.3.1-.2.2-.3.4-.5l.3-.4c1-1.1 1.8-2.1 3.8-2.3 4.4-.6 8.4.2 10.7 2.1.7.5 1.3 1.2 2 2.3.5.7 1 1.5 1.1 2.3.2.7-.1 1.6-.4 2.5z"/><path id="XMLID_197_" class="st5" d="M269 253.4c-3 2.6-6.5 3.7-9.5 3-4.7-1.1-7.3-6.5-7.5-11.1-.1-5.3 2.2-10.7 4.3-15.5l1.4-3.2c.2.2.5.4.7.5 2.7 2.1 5.5 4.3 8.5 6.1 4.5 2.6 8.7 4.7 12 6.1l-2.9 4.8c-2 3.3-4.1 6.8-7 9.3z"/><path id="XMLID_196_" class="st5" d="M304 376.8c-1.1-.4-2.3.2-2.7 1.3l-.3.9c-.3 1-1.2 3.9-1.7 4.5-1 .9-1.6 1.2-1.9 1.3-.1-.2-.1-.6 0-1.1v-.4c.6-.8 1.1-1.6 1.6-2.5l.8-1.3c.6-1 .3-2.3-.6-2.9-1-.6-2.3-.3-2.9.6l-.9 1.4c-1.6 2.7-2.5 4-4.2 4.5-.1 0-.2 0-.3-.1 0-.1.1-.3.2-.6.6-2 1.6-3.8 2.9-5.5.7-.9.5-2.3-.4-3-.9-.7-2.3-.5-3 .4-1.4 1.9-2.5 4-3.3 6.2-.1.1-.2.1-.3.2-.3.3-.6.4-.7.5.7-3 2.9-5.8 4.8-8.2.7-.9.6-2.3-.4-3-.9-.7-2.3-.6-3 .4-.3.4-.6.7-.9 1.1l-.2-.2c0-.6.7-1.4 1.5-1.9.4-.2 1-.4 1.5-.6.3-.1.6-.2.8-.3 4.2 2.7 9 4.5 14 5.2.2 0 .5.1.8.1.7 3.2.9 5.6.5 7.2-.2.9-.6 1.9-1.2 2.1-.2-.1-.4-.2-.5-.3.2-.7.5-1.5.8-2.5l.3-.8c.6-1.1 0-2.3-1.1-2.7z"/><path id="XMLID_195_" class="st1" d="M128.8 263.1c-1.4-.6-2.8-.6-3.9-.6l-18.3-.1c-1.9 0-4 0-5.5-.8-2.4-1.3-3.2-4.5-2.8-7 .4-2.6 1.9-5.2 4.6-8 1.8-1.9 3.5-3.2 5.2-4 1.2-.6 2.6-1 4-1.4l2.1-.6c3.7-1.2 7.2-3 10.2-5.5 1-.8 2-1.7 2.3-3.2.6-2.6-1.4-4.7-3.4-5.6-1.4-.6-2.8-.8-4.1-1-1.2-.2-2.4-.3-3.3-.8-1.1-.6-1.9-2-1.9-3.2v-1c-.1-2.6-.3-6.4 5.8-8.8 14.3-5.6 65.4-4 68.2-3.5 1.5.5 2.6 1.7 2.9 2.8.4 1.9-1.1 3.8-1.8 4.6-2.2 2.4-5.2 4.1-8.4 5.8-3.5 1.9-7.1 3.9-9.8 7.1-1.9 2.3-2.7 4.6-2.2 6.8.5 2.4 2.6 5.3 9.4 5.9l2.6.2c6.6.6 13.5 1.1 19.4 4 5.1 2.4 6.9 5 9.3 10.3 1 2.2.4 8.9-2.8 11.7-2 1.7-7 3.9-11.9 5.2l-.6.3c-2.7-1.3-5.6-2.3-8.5-2.7-7.6-1-15.6 1.2-21.5 6.1-3 2.5-5.3 5.4-7.6 8.3-1 1.3-2.1 2.7-3.2 4.1l-10.6.3c-4.5.1-9.1.3-13.2-1.1-3.6-1.1-7.2-4.2-6.8-7.7.3-2.4 2.3-4.4 4.5-6.5 1-.9 2-1.9 2.9-2.9.7-.8 1.4-1.8 1.5-3.2.3-1.7-.9-3.5-2.8-4.3z"/><path id="XMLID_194_" class="st6" d="M159.9 287.1c2.1-2.7 4.3-5.5 7-7.7 5-4.1 11.8-6.1 18.2-5.2 6.4.9 12.4 4.6 16.1 9.9 1.7 2.5 3 5.3 4.3 8.3.4.9.8 1.7 1.2 2.6 3.5 7.6 7.7 14 12.7 19.2-1.5.6-2.8 1.8-3.5 3.3-.7 1.4-1.1 3.9-1.8 7.6-.3 1.9-.6 3.9-.9 4.8-.3.8-.5 1.2-.6 1.4-.4-.1-1.6-.8-4.3-3.4-1.5-1.4-3.1-2.6-4.7-3.6-1.6-1.1-3.2-2.2-4.4-3.5-.6-.7-1.9-1.9-3.8-2-1.3 0-3.5.7-4.4 4.7-.2 1-.4 2.3-.7 3.7-.3 2-.9 5.3-1.5 7.1-1.8-2.1-4.4-9-5.4-11.8-1.1-2.9-1.7-4.6-2.3-5.6-.7-1.2-1.9-2-3.2-2.2-1.9-.3-3.6.5-4.3 1.1-5 4.3-9.9 10.9-13.7 18.6-.6 1.1-1.1 1.6-1.4 1.6-.2 0-.4-.1-.5-.2-.6-.6-1-1.6-1.4-2.6-1.4-4.2-.8-8-.1-12.3.5-2.8.9-5.8.9-9 0-1-.1-3.5-2-4.8-1.9-1.3-4.2-.5-5.1-.1-2.5.9-5.5 2.6-8.4 4.2l.9-1.2c6.4-8.9 12.5-17.1 17.1-22.9z"/><path id="XMLID_193_" d="M239.8 253.9c-.1-3-.3-5.9.2-8.7.2-1.2-.6-2.3-1.7-2.5-1.2-.2-2.3.6-2.5 1.7-.6 3.2-.4 6.5-.3 9.6v.2c-1.5-2.5-2.1-5.4-2.3-7.3-.3-2.3-.3-4.7-.3-7.1 0-2.1 0-4.3-.2-6.5-.5-5.8-2.3-11.6-5.3-16.7-3.2-5.5-7.7-10-12-14.4-3.6-3.7-7.4-7.5-10.3-11.8-1.6-2.3-2.6-4.5-3.3-6.6-.8-2.6-1-5.5-1.1-7.6-.2-6 1.3-14.6 2.1-18.7.4-.1.7-.3 1.1-.6 0 .1.1.2.1.3.3.7.7 1.3 1.1 1.8.8.9 2.7 1.6 4.6 1.1.2-.1.5-.1.9-.3.7 1.1 1.6 1.5 2.4 1.6.2 0 .4.1.6.1.2 0 .4 0 .6-.1.2 3.3 1.1 6.6 2.6 9.6 1.8 3.6 4.5 6.7 7 9.6l1.1 1.2 2.4 2.7c3.3 3.7 5.9 6.6 8.7 9.8l5.4 6.1c2.1 2.4 4.3 6.7 5.3 8.8 0 .1.1.1.1.2-1.1.8-1.6 1.8-1.7 2.5-.4 2.6 1.9 5.2 3 6.5l.2.2c1.8 2 3.9 3.6 5.9 5.1l-1.8 4.2c-2.2 5.2-4.8 11-4.6 17.3.1 3.9 1.6 8.2 4.4 11.3-.3 1.5-.7 3.6-.5 5.7.3 2.5 1.3 4.8 2.9 6.4 1.5 1.4 3.4 2.2 5.3 2.2.7 0 1.3-.1 2-.3 3-.9 4.7-3.7 5.7-5.8 1.2-2.4 2.1-4.8 2.8-7.4.4-.3.9-.6 1.3-.9 1.9-1.7 3.5-3.6 4.9-5.7 1.6.8 3.2 1.6 4.8 2.3 2.6 1.2 5.1 2.3 7.4 3.8 21.1 14 26.9 29 28.3 34.8 5.7 22.5 2.7 49.1-8.3 73.1-.8 1.6-1.9 3.1-3.2 4.3l-.2.2h-.3c-4.9-.6-9.5-2.4-13.5-5.3-.1-.1-.4-.3-.5-.4 0-.1 0-.3.1-.5 1.1-5.1 3.5-9.8 6-14.7 1.5-3.1 3.1-6.2 4.4-9.5 3.3-8.5 4.5-17.8 3.5-26.8-.4-4-1.3-7.3-2.5-10.1-1.1-2.5-2.5-4.7-3.8-6.7-2.8-4.1-5.5-7.6-8.3-10.6-.2-.3-.4-.6-.8-.8-3.3-3.3-6.6-5.9-10.2-8-1-.6-2.3-.2-2.9.8-.6 1-.2 2.3.8 2.9 3 1.7 5.9 4 8.7 6.8-1.8 6.8-.9 15.1 2.5 21.5-8.2 3.3-15.1 5.3-22.2 6.5-4 .7-10.7.8-14.5-.7.5-3.9.7-10.4-1.4-13.8-1.1-1.7-2.3-3.4-3.5-4.9-1.1-1.4-2.1-2.7-3-4.1-2.1-3.2-3.5-6.9-4.2-10.7-.8-4.6-.6-9.3-.3-14.3.2-2.8.3-5.7.3-8.6.1-1 .1-2.2 0-3.3z" fill="#c61e50"/><path id="XMLID_192_" class="st1" d="M213.9 156.3s0-.1-.1-.1c.3-1.1-.3-2.2-1.4-2.6-1.1-.4-2.3.3-2.7 1.4-.1.4-.4.9-.7 1.1-.3.1-.6.1-.8 0 0-.1-.1-.2-.1-.3 0-.1 0-.4-.1-.6-.1-.9-.1-2.6-1.7-3.4-1.5-.8-2.8.3-4.1 1.3-.2.1-.3.2-.4.4v-.5c0-.9 0-2.2-1-3.2-1.5-1.4-3.3-.4-4.3.2-.1.1-.3.2-.5.3.1-.2.2-.3.4-.5l.3-.4c1-1.1 1.8-2.1 3.8-2.3 4.4-.6 8.4.2 10.7 2.1.7.5 1.3 1.2 2 2.3.5.7 1 1.5 1.1 2.3.2.7-.1 1.6-.4 2.5z"/><path id="XMLID_191_" class="st1" d="M276.4 202.5c1.9 0 4.4.3 5.9 1.9 1.1 1.1 2.1 2.6 2.5 3.6.9 2.5.3 4.8-.4 6.4-.7 1.6-1.8 3.6-3.8 5.3-.9.7-1.3 1.8-1.1 2.8.2 1.2 1.1 2.3 2.4 2.8 3 1.2 5.5 3.1 6.8 5 .7 1 1.5 2.6 1.4 4.2-.1 1.2-.8 2.4-1.8 2.7-.8.3-1.9.1-3.3-.2-2.2-.5-7.5-2.7-16-7.5-2.8-1.6-5.3-3.6-8-5.7-1.4-1.1-2.7-2.2-4.1-3.2-1.9-1.4-3.9-2.9-5.4-4.6l-.2-.3c-1.4-1.6-1.8-2.4-1.9-2.8 1.6-.8 4.6.6 7.1 3.1.6.6 1.5 1.5 2.8 1.5 2.4 0 3.2-2.8 3.8-4.9.7-2.4 2.8-4.4 5-6.3l.5-.5c1-1 2-1.8 3-2.4 1.2-.6 2.8-.9 4.8-.9z"/><path id="XMLID_190_" class="st6" d="M388.4 241.8c1.1 2.5 2.2 5.1 3.4 7.6 1 2 2.1 4.5 3.3 7.3 1.3 3 2.8 6.2 4.4 9.5-1.2 2.1-6.2 7.5-8.1 8.9-1-.5-2.1-1.2-3.4-2.6-1.7-1.8-3.3-4.8-4.2-8-.1-.4-.2-.9-.3-1.4-.3-1.8-.7-3.8-2.2-4.8-.7-.5-1.6-.6-2.5-.4-1.1.2-2 1.1-5.7 5.5-1.8 2.1-4.9 5.7-6.3 6.8-2.5-1.3-4.4-6-5.7-9.4-1.3-3.3-2.1-5.5-3.8-6.3-2.9-1.4-4.9 1.5-6 3.1-.3.5-.6.9-1 1.3l-4.5 4.7c.1-1.5.4-3 .6-4.4.4-2.6.8-4.5.3-5.9l-.5-1.1-.9-.3c-.7-.3-1.5-.2-2.1.2-2 1.1-3.8 2.8-5.7 4.5-1.8 1.6-3.6 3.2-5.5 4.4.7-1 1.4-1.9 2.1-2.9 2.8-3.9 5.6-7.9 8.4-11.8l4.4-6.2c3.5-4.9 7.1-10 12-13.4 3.2-2.2 11.4-6.9 18.8-2.4 4.2 2.6 7.4 9.8 10.7 17.5z"/><path id="XMLID_189_" class="st8" d="M423.7 301.6c0 11.1-1.1 22.2-3.1 33l-.3-.3c-1.6-1.9-3.3-3.9-5.3-5.6-.9-.8-1.8-1.5-2.8-2.2-.7-.5-1.4-1-2-1.6-2.4-1.9-4.4-4.2-6.1-6.7l-.7-1.1c-.9-1.4-1.8-2.9-3.2-4.1-2.2-2.1-5.1-2.9-7.5-2.2-2.1.6-3.5 2.2-4.6 3.4l-3.3 3.8c-.7-.3-1.3-.5-1.8-.5-1.8 0-32.4 16-41.9 22.2-.7.5-1.6 1-2.2 1-.8 0-1.7-1-2.6-1.9-3.8-3.7-8.1-6.8-12.7-9.3 1.7-13.4 1-26.6-2.1-38.7-.8-3.1-2.7-8.5-7-15 5.1-1.3 9.2-4.8 12.9-8.9h.4c5.2-.5 9.2-4.1 12.6-7.2.7-.7 1.4-1.3 2.1-1.9 0 .2-.1.5-.1.7-.4 2.3-.8 4.9-.7 7.3.1 1.4.9 2.6 2.2 3.1 1.3.5 2.7.2 3.7-.8l6-6.3c.5-.5.9-1.1 1.4-1.8.2-.4.6-.9.9-1.2.5.9 1.1 2.4 1.5 3.6 1.9 4.8 4.2 10.9 9.1 12.2 2.1.6 3.9-1.2 10.1-8.4.9-1 2-2.3 2.8-3.2.1.3.1.7.2 1 .1.7.2 1.3.4 1.9 1.1 3.8 3 7.4 5.2 9.7 2.1 2.2 3.9 3.2 5.5 3.9.2.1.5.2.8.2 2.9 0 7.7-5.6 10.3-9.1 4 8.2 8.5 16.2 13 20.5l2.1 2.1c4.2 4.1 4.3 4.2 5.8 4.8.3.1.6.2 1.1.4-.2 1-.1 2.1-.1 3.2z"/><path id="XMLID_188_" class="st8" d="M398.2 393.5l-2.1-.4c-7.3-1.3-17.3-3.1-21.4-7.9-1.6-1.9-2.7-4.3-3.8-6.8-.6-1.4-1.3-2.9-2-4.2-2.3-4.1-5.4-6.9-8.7-7.9.5-.5 1-1 1.5-1.4.6-.5 1.1-1.1 1.7-1.6 5.1-4.8 10.9-9 16.6-13 6.1-4.4 12.4-8.9 17.9-14.3h.1l.3-.3c6.3 4.6 12.8 9 19.3 13.2-4.5 15.8-10.9 30.7-19.4 44.6z"/><path id="XMLID_187_" class="st1" d="M304 376.8c-1.1-.4-2.3.2-2.7 1.3l-.3.9c-.3 1-1.2 3.9-1.7 4.5-1 .9-1.6 1.2-1.9 1.3-.1-.2-.1-.6 0-1.1v-.4c.6-.8 1.1-1.6 1.6-2.5l.8-1.3c.6-1 .3-2.3-.6-2.9-1-.6-2.3-.3-2.9.6l-.9 1.4c-1.6 2.7-2.5 4-4.2 4.5-.1 0-.2 0-.3-.1 0-.1.1-.3.2-.6.6-2 1.6-3.8 2.9-5.5.7-.9.5-2.3-.4-3-.9-.7-2.3-.5-3 .4-1.4 1.9-2.5 4-3.3 6.2-.1.1-.2.1-.3.2-.3.3-.6.4-.7.5.7-3 2.9-5.8 4.8-8.2.7-.9.6-2.3-.4-3-.9-.7-2.3-.6-3 .4-.3.4-.6.7-.9 1.1l-.2-.2c0-.6.7-1.4 1.5-1.9.4-.2 1-.4 1.5-.6.3-.1.6-.2.8-.3 4.2 2.7 9 4.5 14 5.2.2 0 .5.1.8.1.7 3.2.9 5.6.5 7.2-.2.9-.6 1.9-1.2 2.1-.2-.1-.4-.2-.5-.3.2-.7.5-1.5.8-2.5l.3-.8c.6-1.1 0-2.3-1.1-2.7z"/><path id="XMLID_186_" class="st8" d="M289.7 290.3c1.9 2.2 3.7 4.6 5.5 7.4 1.2 1.9 2.5 3.9 3.4 6 1 2.4 1.7 5.2 2.1 8.5-.2-.2-.4-.5-.6-.7-2-2.3-4.5-3.8-7-4.3-2.5-4.2-4.2-10.7-3.4-16.9z"/><path id="XMLID_185_" class="st8" d="M244 303c.8-.5 1.6-1.2 2.3-2 .2.4.5.7.7 1.1 1.4 2.3 1.3 8.3.7 11.9-.4.3-.6.7-.7 1.2-.6 3.1-.5 6.1.1 9.1-7.5-.8-15-4.2-21.4-9.8-1.7-1.5-3.3-3.1-4.8-4.8h.1c3.9 0 8.5-.3 13-1.7 3.6-1.1 7-2.8 10-5z"/><path id="XMLID_184_" class="st1" d="M304.1 445l3.4-7.1c.6-1.2 1.1-2.4 1.5-3.7.3-1 .4-2.1.5-3.2.1-1.5-.1-3-.4-4.5l.6-.6c3.8-4.4 8.3-8.1 13.4-10.9.2-.1.2-.2.4-.3 2.5 1.1 5 2.4 7.4 3.8.4.3 1.3.7 1.4 1.2.1.3 0 1-.4 1.5-.5.6-1.2 1.2-1.9 1.8l-.5.4c-4.1 3.3-7.4 7.5-10.5 11.6-1.2 1.5-2.3 3-3.6 4.5-1.4 1.7-5.2 5-6.3 5.8-1.5-.1-3.3-.1-5-.3z"/><path id="XMLID_183_" class="st4" d="M318.8 442.1c1.2-1.5 2.5-3.1 3.7-4.6 3.1-4 6-7.8 9.8-10.8l.4-.4c.9-.7 1.9-1.5 2.8-2.6 1.3-1.8 1.6-4 .9-5.7-.7-1.6-2-2.4-3.2-3.1-2.6-1.5-5.3-2.9-8-4.1-.3-.8-1-1.3-1.3-1.5L298 389.1c1.9-.3 3.5-1.8 4.3-2.5.8.4 1.7.8 2.5.8h.5c2.3-.4 4-2.3 4.7-5.3.6-2.5.4-5.9-.7-10.2v-.1c1.4-1.4 2.6-3.1 3.5-5 1.2-2.5 2.2-5.1 3.2-7.7l8.5 4.5c1.7.9 3.4 1.8 5 2.8l2.7 1.8c4.1 2.7 8.3 5.5 13.4 5.5h.1c3.4 0 6.8-1.3 10.2-3.8l.1-.1c.3.2.7.3 1.1.3 3.3-.1 6.4 3 8 6.1.7 1.3 1.3 2.6 1.9 3.9 1.2 2.7 2.4 5.4 4.4 7.8 5 6 15.9 7.9 23.9 9.3l.4.1c-9.7 15-21.8 28.6-36 40.4-1.6.1-3.1.2-4.7.3-6.9.6-13.8 2.1-20.4 3.4-6.3 1.3-12.3 2.5-18.3 3.2 1.1-.9 2-1.9 2.5-2.5z"/><path id="XMLID_182_" class="st1" d="M423.8 346.7c-.3.3-1.5.3-2 .1-7.6-4.8-15.2-10-22.5-15.3-.1-.1-.2-.1-.3-.1-.3-.9-.8-1.6-1.2-2.1-.5-.6-1.4-1.5-2.4-2.6-.8-.8-1.7-1.8-2.7-2.8 0 0-2-1.9-4.4-3.6l2.8-3.2c.9-1.1 1.7-1.9 2.6-2.2 1-.3 2.3.2 3.4 1.2.9.9 1.7 2.1 2.5 3.3l.7 1.2c1.9 2.9 4.3 5.5 6.9 7.6.7.6 1.4 1.1 2.2 1.7.9.7 1.7 1.3 2.5 2 1.8 1.5 3.4 3.4 4.9 5.2l2.1 2.4c2.6 2.5 5.4 5.6 4.9 7.2z"/><path id="XMLID_181_" class="st1" d="M423.5 293.6c-.4-.3-1.1-1-3.8-3.6l-2.1-2.1c-6.4-6.2-13.4-21.7-18.5-33-1.3-2.8-2.4-5.3-3.4-7.4-1.2-2.5-2.3-5-3.4-7.5-.2-.4-.3-.7-.5-1.1 2.8-.4 6-1.3 6.9-1.8 4.3-2.1 7.5-4.1 10.2-6.5 8.7 20.1 13.6 41.2 14.6 63z"/><path id="XMLID_180_" class="st1" d="M410.6 222.7c-3.2 4.6-6.9 7.5-13.7 10.8-1 .5-5 1.4-6.9 1.5-2.9-6.2-5.9-11.7-10.3-14.3-9.5-5.7-19.6-.1-23.4 2.6-5.5 3.8-9.5 9.4-13 14.4l-4.4 6.2-7.5 10.5c-4.8-1.2-10.2-1.5-17.2-1.1-1.6.1-3.1.2-4.3-.2-.9-.3-1.7-1.2-1.6-1.8.1-.8 1.3-1.7 2.5-2.5 1.8-1.2 4.3-2.9 4.3-6-.1-2.2-1.6-4.2-4-5.3-2.9-1.3-5.9-1.3-8.8-1.2-1.5 0-3 .1-4.4-.1-1.3-.2-2.6-.5-3.8-1.1 0-.1 0-.2.1-.3.2-2.2-.5-4.5-2-6.8-2-3.2-5.5-5.2-7.7-6.2 1.9-1.9 3-4 3.7-5.6 1.5-3.3 1.7-6.6.5-9.6-.7-1.9-2.3-3.9-3.5-5.1-2-2-4.9-3.1-8.5-3.1-.2-.2-.5-.4-.8-.5-.3-.3-.6-2.1 1-5 3.2-5.7 8.7-9.7 15.9-11.5 8.6-2.2 14 .1 16.2 3 .6.8 1.2 1.9 1.1 2.8-.2 1-1.4 2-2.5 2.7-.6.4-1.1.8-1.4 1.2-2.5 2.5-3.5 5.3-2.9 7.9.9 3.5 4.6 5.4 7.8 5.5 2.6 0 4.8-.8 7-1.6l.9-.3c6.3-2.2 13.2-3.2 19.8-2.9 1.1 0 3.7.4 4.9 2.5 1 1.8.8 2.2.1 3.3-.5.8-1.1 1.8-1.2 3.3-.2 2.4.8 4 1.7 4.8 2 2.1 5 2.2 6.2 2.1 10.1-.4 20.9-2.9 29.5-6.8.9-.4 1.8-.8 2.7-1.3 1.4-.7 2.7-1.4 4.1-1.9 2.6-1 5.7-1.4 8.8-1.5 3.3 0 9.5.7 13.6 5 3.3 3.1 3.9 9.8 1.4 13.5z"/><path id="XMLID_179_" class="st1" d="M214.6 128.1c12.6-2.7 19.8-3.5 32.1-3.5 57.9 0 111.9 28.2 145.1 75.6-2.2.3-4.3.7-6.2 1.4-1.6.6-3.1 1.3-4.5 2-.8.4-1.7.8-2.5 1.2-8.2 3.7-18.4 6-28 6.5-1.2 0-2.4-.3-3-.9-.2-.2-.5-.7-.5-1.6 0-.4.2-.8.6-1.4 1.1-1.8 1.9-3.9-.1-7.5-1.6-2.8-4.6-4.4-8.4-4.6-7.2-.3-14.6.8-21.4 3.1l-1 .3c-1.9.7-3.8 1.3-5.5 1.3-1.6 0-3.4-.9-3.7-2.2-.3-1.1.4-2.6 1.8-4 .2-.2.6-.5.9-.7 1.5-1.1 3.7-2.7 4.2-5.5.3-1.9-.4-3.9-1.9-5.9-1.4-1.9-7.2-7.9-20.6-4.6-8.4 2.1-14.8 6.8-18.6 13.5-1.7 3-2.1 5.9-1.4 8.1-.8.2-1.6.5-2.4.9-1.5.8-2.7 1.9-3.9 3l-.5.5c-2.4 2.2-5.2 4.8-6.2 8.3-.1.3-.2.6-.2.8-1.5-1.3-4.4-3.5-7.6-3.8v-.1c-.1-.2-.3-.5-.5-1-1.1-2.3-3.5-7-6-9.8l-5.3-6c-2.8-3.2-5.4-6.1-8.8-9.9-.8-.9-1.5-1.7-2.3-2.6l-1.1-1.3c-2.4-2.7-4.8-5.5-6.4-8.7-1.6-3.1-2.3-6.6-2.2-10.1.8.9 1.8 1.7 2.6 2.2l2.5 1.5c.3.2.7.3 1.1.3.7 0 1.4-.4 1.8-1.1.6-1 .2-2.3-.8-2.9l-2-1.2c.9-.3 1.8-.7 2.7-1.2 1-.6 1.3-1.9.7-2.9-.6-1-1.9-1.3-2.9-.7-.8.5-1.8.8-2.8 1v-.1l.2-.4c.3-.8 1-1.4 1.7-1.8 1.1-.5 1.5-1.7 1.1-2.8-.5-1.1-1.7-1.5-2.8-1.1-1.5.7-2.7 1.9-3.5 3.3-.4-.9-.9-1.7-1.4-2.3-.6-.8-1.5-2-2.7-3-4.6-3.8-11.3-3.4-14-3-3.6.5-5.3 2.5-6.5 3.8l-.3.4c-.1.1-.2.2-.3.4-2.1.4-4.4-.9-5.3-2.8.9-2 1.4-4.4 1.4-7.3 0-.4 0-.8-.1-1.1h.7c1.7 0 3.3-.3 4.9-.5.5-.1 1-.2 1.6-.2 6.5-.9 13-4 18.3-7.4-.1 0 0 .1.1.1z"/><path id="XMLID_178_" d="M236.6 76.4c.2-.6.2-1.2 0-1.8l1.3-1.3c4.1-4.2 7.4-7.4 12.6-9.8.4-.1 1.2-.2 1.8-.1-2.6 7.1-8.1 13-13.5 18.7l-.4.4c-.8.9-.8 2.2.1 3 .4.4.9.6 1.4.6.6 0 1.1-.2 1.5-.7l.4-.4c.7-.7 1.3-1.4 2-2.1.1 0 .2 0 .2-.1 4.8-3.4 12.4-5.7 17.7-5.4.2 0 .6 0 .8.1-.7 2.6-3 4.9-5.3 7.1l-.6.6c-2.2 2.2-5.1 4-7.7 5.6-.7.4-1.4.9-2 1.3l-.3.3c-2.1.7-4 1.7-5.8 2.8-1 .6-1.3 1.9-.6 2.9.6 1 1.9 1.3 2.9.6 4.4-2.8 10.2-4.3 16.1-4 1 .1 1.5.4 1.6.5 0 .1-.1.4-.3.5-5.2 3.2-10.6 5.8-15.9 8.3-8 3.8-16.2 7.7-23.6 13.9-9 7.6-18.2 12.4-25.8 13.5-.5.1-1.1.2-1.7.3-2 .3-3.9.6-5.6.3-.3-1.1-.7-2.3-1.1-3.4.9-.1 1.7-.4 2.4-1.4.4-.5.5-1.1.6-1.6 0 .1.1.1.1.2.3.5.8 1.1 1.4 1.6 1.2.9 2.8 1.1 4.3.4 1.5-.6 2.5-2 2.7-3.4.2-1.5-.4-2.6-.8-3.6l-.2-.5c-.1-.2-.2-.4-.2-.6.1 0 .3 0 .5.1.7.1 1.3.4 2 .6.7.2 1.5.5 2.2.6 2.3.5 4.5.2 6-1 1.6-1.2 2.5-3.4 2.3-5.8-.1-1.4-.4-2.6-.8-3.8l-.3-1c-.1-.5-.2-1-.2-1.3.1-.6 1.1-1.3 2.4-1.8.4-.1.7-.2 1.1-.3 1.5-.4 3.2-.9 4.6-2.1 2.1-1.8 2.6-4.3 3.1-6.5.3-1.5.7-3 1.4-3.9.6-.9 2.5-1.4 4.2-1.9 2.4-.7 4.9-1.5 6.4-3.5 2.9-3.9-.8-7-2.2-8.2l-.1-.1c.2-.1.6-.2 1-.3 4.6-1 5.5-2.2 5.9-3.1z" fill="#fcb542"/><path id="XMLID_177_" class="st1" d="M116.8 93.2c.9-.5 1.8-1.1 2.7-1.7.3.6.7 1.2 1.1 1.7h-3.8z"/><path id="XMLID_176_" class="st1" d="M132.4 131.9c-1.1.4-2.2.7-3.2.9-1.8.4-3.7-.4-6.1-2.4-2.6-2.1-5.3-.6-7.6.5-1.7.9-3.5 1.8-5.5 1.9-.8 0-3.6-1-4.2-1.4-.1-.1-.2-.4-.2-.6-.2-.6-.5-1.5-1.1-2.3-1.9-2.1-4.4-.9-6-.2-.4.2-.9.4-1.3.5-1.1.3-2.7.6-3.8.1-.4-.2-.7-.6-.9-1 0-.1-.1-.3 0-.4.5-.9.5-2 .1-3-.5-1.2-1.4-2.1-2.6-2.6-1.6-.6-3.3-.3-4.4-.1l-6.8 1.3c-.7.1-1.5.3-2.1.2-.6-.1-1.2-.6-1.3-1.2-.2-.6.1-1.3.5-1.7.7-.6 1-1.4 1-2.3 0-1-.4-2-1.2-2.7-1-.9-2.2-1.1-3-1.2l-3.9-.6c-.1 0-.4-.4-.4-.8 0-.8.5-1.6 1.1-2.4.5-.6 1.1-1.4 1.3-2.6.2-1-.2-2.2-.9-3-.6-.7-1.5-1.1-2.5-1-.4 0-.9.1-1.3.1-1.2.1-4.5.4-5.1 0 .1-.3.9-1.1 5-2.5 8.1-2.7 16.9-2.2 26-1.4 9 .8 17.9 2.9 26.6 5 2 .5 4 .9 5.8 1.7 2.8 1.1 5.6 2.9 8.7 5.6h.1c.3 1.3.6 2.7.8 4.2l.1.4c.6 4.6 1.5 9.1 2.4 13.7-1.5.5-2.8.9-4.1 1.3z"/><path id="XMLID_175_" class="st10" d="M142 137.2c-1.6-6.8-3-13.7-3.9-20.6l-.1-.4c-.3-2.1-.6-4.3-1.4-6.5-.6-1.7-1.5-3.2-2.3-4.7-.6-1-1.2-2.1-1.7-3.1-.2-.6-.5-1.1-.7-1.7-.8-2-1.6-4.2-3.4-5.8-.6-.5-1.2-1-1.9-1.4-.4-.2-.7-.5-1.1-.7-1.5-1.2-2.6-2.7-2.7-3.9-.1-1.2.1-2.5 2.5-4.3 1.4-1.1 3.2-2 5.2-2.9h.7c4.2.6 7.7 3.7 10.7 6.5 7.5 7.1 14.3 15.1 20.2 23.6.7 1.2 3.5 9.4 3.6 10.9 0 1.1.9 2.1 2.1 2.1 1.2 0 2.1-.9 2.2-2.1.1-1.8-2.8-10.2-4-12.8 2.1-5.4 6.8-9.5 11.2-12.9l.2-.2c8.7-6.8 17-13.3 27.1-16.7 1.6-.5 3.1-1.2 4.5-1.8 2.4-1 4.6-2 7-2.4 5.7-1 11.4-1.7 14.7-.6-.1 0-.3 0-.4.1-3.3.5-5.3 2.6-4.9 5.1.2 1.2 1.1 1.9 2 2.7 2 1.7 1.9 2 1.5 2.4-.6.9-2.5 1.4-4.2 2-2.4.7-4.9 1.5-6.4 3.5-1.3 1.7-1.7 3.8-2.1 5.6-.4 1.8-.8 3.4-1.8 4.2-.7.6-1.8.9-3 1.2-.4.1-.8.2-1.3.4-3 1-4.9 2.7-5.3 5-.2 1.2 0 2.3.2 3.2l.3 1.1c.3 1 .6 2 .6 2.9.1 1-.2 1.9-.7 2.3-.5.4-1.4.5-2.5.2-.6-.1-1.2-.3-1.8-.5-.8-.3-1.6-.5-2.5-.7-1.9-.4-3.5 0-4.6 1.2-1.2 1.3-1.3 3.2-.4 5.2l.3.5c.2.5.5 1 .5 1.2-.1.1-.3.2-.3.2-.1-.1-.3-.4-.5-.6-.3-.4-.7-1-1.3-1.5-1.5-1.3-3.7-1.4-5.3-.3-1.1.7-1.3 1.8-1.3 2.6-.2-.1-.3-.1-.5-.2-1.1-.4-2.4-.9-3.7-.6-3 .5-5.4 2.6-6 5.1-.3 1.1.4 2.3 1.6 2.5.2 0 .3.1.5.1 1 0 1.8-.7 2.1-1.6.2-1 1.4-1.7 2.5-1.9.2.7.5 1.4.7 2.1.9 2.7 1.8 5.1 1.7 7.8 0 1.6-.2 4-1.2 5.9-.1.1-.1.2-.2.4-.4.6-.9 1.1-1.5 1.5-1 .6-2.2.7-3.6 1-.5.1-1.1.2-1.6.3-3.3.6-6.2 2.1-9.1 3.5-3.2 1.6-6.3 3.1-9.5 3.3-2.8.2-5.6-.6-8.1-2.2-.3-.5-.8-.8-1.3-.9-1.5-1.2-2.9-2.7-3.8-4.5-1-2.7-1.8-5.5-2.5-8.4z"/><path id="XMLID_174_" class="st1" d="M148 154.6c2.8 1.7 6 2.7 9.2 2.7h1.2c2.5-.2 4.8-.9 7-1.9.6 2.6 1.4 5.3 3.1 7.6 2.2 3 5.8 5 9.6 5.3h1.1c2.6 0 5.2-.8 7.7-2.2l4.4 2.5c.3.7 1 1.2 1.8 1.2h.1c1.1 0 2.1-.9 2.1-2.1 0-.8-.3-1.9-1.8-2.7l-1.9-1.1c.5 0 1-.1 1.6-.1 1.2 0 2.1-1 2.1-2.2 0-1.2-1.1-2-2.2-2.1-1.2 0-2.6.1-4 .5.2-.6.6-1.2 1.1-1.7.9-.8.9-2.1.1-3-.8-.9-2.1-.9-3-.1-1.9 1.8-2.9 4.5-2.6 7.1-2.1 1.2-4.2 1.7-6.2 1.5-2.6-.2-5-1.6-6.5-3.6-1.4-1.9-2.1-4.3-2.6-6.8 0 0 .1 0 .1-.1 2.7-1.3 5.3-2.6 8-3.1.5-.1 1-.2 1.4-.2 1.6-.2 3.4-.5 5.1-1.5.3-.2.6-.4.8-.6 1.6 2.1 4.1 3.4 6.8 3.6.2 1.4.8 2.2 1.4 2.6 1.6 1.2 3.4.6 4.7 0 .1.6.3 1.2.7 1.7l.6.6c-.8 4.2-2.5 13.3-2.3 19.9.1 2.4.3 5.6 1.3 8.7.8 2.5 2 5 3.8 7.6 3.1 4.6 7 8.6 10.8 12.5 4.3 4.4 8.4 8.5 11.3 13.6 2.7 4.5 4.3 9.7 4.7 14.9.2 2 .2 4 .2 6.2 0 2.5 0 5 .3 7.6.7 5.9 3 10.5 6.6 13.3 0 1.6-.1 3.3-.2 4.9-.3 5-.6 10.2.4 15.3.8 4.3 2.4 8.5 4.8 12.2 1 1.5 2.1 3 3.1 4.3-.5.8-1.4 1.5-2.2 2.1-2.7 1.9-5.7 3.4-8.8 4.3-5.5 1.6-11.3 1.6-15.3 1.4-2.6-3.6-4.9-7.6-6.9-12.1-.4-.8-.8-1.7-1.1-2.5-1.3-3-2.7-6.2-4.7-9a28 28 0 0 0-5.8-6.1c4-1.3 8.3-3.2 10.6-5.2 4.7-4.1 5.5-12.9 3.8-16.6-2.7-5.9-5.2-9.4-11.3-12.4-6.6-3.2-13.8-3.8-20.9-4.4l-2.6-.2c-1.6-.1-5.3-.7-5.7-2.6-.2-.8.3-2 1.3-3.2 2.2-2.6 5.3-4.3 8.6-6.1 3.3-1.8 6.8-3.7 9.5-6.7 2.4-2.7 3.4-5.7 2.8-8.4-.6-2.6-2.7-4.8-5.6-5.9-2.9-1.1-55.9-2.5-71.2 3.5-8.9 3.5-8.6 10.4-8.5 13v.7c-.1 2.9 1.5 5.7 4.1 7.1 1.6.8 3.2 1.1 4.7 1.3 1.1.2 2.2.3 3 .7.6.3.9.7 1 .8 0 .1-.1.3-.8.8-2.6 2.1-5.6 3.7-8.9 4.8-.7.2-1.3.4-2 .6-1.5.4-3.1.9-4.7 1.6-2.2 1-4.2 2.6-6.4 4.9-3.3 3.4-5.2 6.8-5.7 10.3-.8 4.7 1.3 9.4 5 11.4 2.5 1.3 5.3 1.3 7.5 1.3l18.2.1c.8 0 1.7 0 2.2.3.2.1.4.3.4.3s-.1.2-.5.7c-.8.9-1.7 1.7-2.6 2.6-2.5 2.4-5.4 5.1-5.8 9.1-.6 5.7 4.4 10.5 9.7 12.2 3.4 1.1 7 1.3 10.5 1.3 1.4 0 2.8 0 4.2-.1l7.1-.2c-3.3 4.4-6.9 9.2-10.7 14.2-14.8 19.8-33.2 44.4-39.5 48.5-8.7 5.7-12.7 5.4-19.2 5l-.9-.1c-6.6-18.7-10.1-38.6-10.1-59 .1-60.9 28.6-114.4 78.4-146.9z"/><path id="XMLID_173_" class="st3" d="M72.4 392c4.9.8 7.3 2.5 10.3 4.5 3.2 2.2 6.8 4.6 13.9 6.6 4.7 6.9 9.9 13.6 15.6 19.9-1.2.2-2.4.3-3.6.6-2.6.5-5.2 1-7.8 1.6-5.3 1.1-10.2 2.2-15.3 2.5-8.5.4-15.9-2-20.2-6.7-2.9-3.1-4.8-11.4-4.4-18.6.2-3 .8-5.5 1.8-7.2 2.1-2.2 6.6-3.7 9.7-3.2z"/><path id="XMLID_172_" d="M292.7 239c1.5.7 3.1 1.1 4.8 1.4 1.7.2 3.3.2 5 .2 2.5 0 4.9-.1 7 .8.9.4 1.6 1.1 1.6 1.6 0 .7-.9 1.4-2.4 2.4-1.8 1.2-4 2.7-4.4 5.4-.4 3 1.9 5.4 4.3 6.3 2.1.7 4.2.6 6.3.4 5.5-.4 9.9-.2 13.9.6-4.9 6.7-10.1 13-17.1 13.9-4.5-5.9-11-12.3-20.4-18.6-2.6-1.7-5.3-2.9-8-4.1-1.5-.6-2.8-1.3-4.2-2 .2-.3.4-.7.6-1l3.3-5.5c.4.1.9.2 1.2.3 1.1.2 2.1.4 3.2.4.9 0 1.6-.1 2.4-.4 1.1-.3 2.1-1.1 2.9-2.1z" fill="#9ab7e0"/><path id="XMLID_171_" class="st12" d="M214.6 128.1c12.6-2.7 19.8-3.5 32.1-3.5 57.9 0 111.9 28.2 145.1 75.6-2.2.3-4.3.7-6.2 1.4-1.6.6-3.1 1.3-4.5 2-.8.4-1.7.8-2.5 1.2-8.2 3.7-18.4 6-28 6.5-1.2 0-2.4-.3-3-.9-.2-.2-.5-.7-.5-1.6 0-.4.2-.8.6-1.4 1.1-1.8 1.9-3.9-.1-7.5-1.6-2.8-4.6-4.4-8.4-4.6-7.2-.3-14.6.8-21.4 3.1l-1 .3c-1.9.7-3.8 1.3-5.5 1.3-1.6 0-3.4-.9-3.7-2.2-.3-1.1.4-2.6 1.8-4 .2-.2.6-.5.9-.7 1.5-1.1 3.7-2.7 4.2-5.5.3-1.9-.4-3.9-1.9-5.9-1.4-1.9-7.2-7.9-20.6-4.6-8.4 2.1-14.8 6.8-18.6 13.5-1.7 3-2.1 5.9-1.4 8.1-.8.2-1.6.5-2.4.9-1.5.8-2.7 1.9-3.9 3l-.5.5c-2.4 2.2-5.2 4.8-6.2 8.3-.1.3-.2.6-.2.8-1.5-1.3-4.4-3.5-7.6-3.8v-.1c-.1-.2-.3-.5-.5-1-1.1-2.3-3.5-7-6-9.8l-5.3-6c-2.8-3.2-5.4-6.1-8.8-9.9-.8-.9-1.5-1.7-2.3-2.6l-1.1-1.3c-2.4-2.7-4.8-5.5-6.4-8.7-1.6-3.1-2.3-6.6-2.2-10.1.8.9 1.8 1.7 2.6 2.2l2.5 1.5c.3.2.7.3 1.1.3.7 0 1.4-.4 1.8-1.1.6-1 .2-2.3-.8-2.9l-2-1.2c.9-.3 1.8-.7 2.7-1.2 1-.6 1.3-1.9.7-2.9-.6-1-1.9-1.3-2.9-.7-.8.5-1.8.8-2.8 1v-.1l.2-.4c.3-.8 1-1.4 1.7-1.8 1.1-.5 1.5-1.7 1.1-2.8-.5-1.1-1.7-1.5-2.8-1.1-1.5.7-2.7 1.9-3.5 3.3-.4-.9-.9-1.7-1.4-2.3-.6-.8-1.5-2-2.7-3-4.6-3.8-11.3-3.4-14-3-3.6.5-5.3 2.5-6.5 3.8l-.3.4c-.1.1-.2.2-.3.4-2.1.4-4.4-.9-5.3-2.8.9-2 1.4-4.4 1.4-7.3 0-.4 0-.8-.1-1.1h.7c1.7 0 3.3-.3 4.9-.5.5-.1 1-.2 1.6-.2 6.5-.9 13-4 18.3-7.4-.1 0 0 .1.1.1z"/><path id="XMLID_170_" class="st12" d="M148 154.6c2.8 1.7 6 2.7 9.2 2.7h1.2c2.5-.2 4.8-.9 7-1.9.6 2.6 1.4 5.3 3.1 7.6 2.2 3 5.8 5 9.6 5.3h1.1c2.6 0 5.2-.8 7.7-2.2l4.4 2.5c.3.7 1 1.2 1.8 1.2h.1c1.1 0 2.1-.9 2.1-2.1 0-.8-.3-1.9-1.8-2.7l-1.9-1.1c.5 0 1-.1 1.6-.1 1.2 0 2.1-1 2.1-2.2 0-1.2-1.1-2-2.2-2.1-1.2 0-2.6.1-4 .5.2-.6.6-1.2 1.1-1.7.9-.8.9-2.1.1-3-.8-.9-2.1-.9-3-.1-1.9 1.8-2.9 4.5-2.6 7.1-2.1 1.2-4.2 1.7-6.2 1.5-2.6-.2-5-1.6-6.5-3.6-1.4-1.9-2.1-4.3-2.6-6.8 0 0 .1 0 .1-.1 2.7-1.3 5.3-2.6 8-3.1.5-.1 1-.2 1.4-.2 1.6-.2 3.4-.5 5.1-1.5.3-.2.6-.4.8-.6 1.6 2.1 4.1 3.4 6.8 3.6.2 1.4.8 2.2 1.4 2.6 1.6 1.2 3.4.6 4.7 0 .1.6.3 1.2.7 1.7l.6.6c-.8 4.2-2.5 13.3-2.3 19.9.1 2.4.3 5.6 1.3 8.7.8 2.5 2 5 3.8 7.6 3.1 4.6 7 8.6 10.8 12.5 4.3 4.4 8.4 8.5 11.3 13.6 2.7 4.5 4.3 9.7 4.7 14.9.2 2 .2 4 .2 6.2 0 2.5 0 5 .3 7.6.7 5.9 3 10.5 6.6 13.3 0 1.6-.1 3.3-.2 4.9-.3 5-.6 10.2.4 15.3.8 4.3 2.4 8.5 4.8 12.2 1 1.5 2.1 3 3.1 4.3-.5.8-1.4 1.5-2.2 2.1-2.7 1.9-5.7 3.4-8.8 4.3-5.5 1.6-11.3 1.6-15.3 1.4-2.6-3.6-4.9-7.6-6.9-12.1-.4-.8-.8-1.7-1.1-2.5-1.3-3-2.7-6.2-4.7-9a28 28 0 0 0-5.8-6.1c4-1.3 8.3-3.2 10.6-5.2 4.7-4.1 5.5-12.9 3.8-16.6-2.7-5.9-5.2-9.4-11.3-12.4-6.6-3.2-13.8-3.8-20.9-4.4l-2.6-.2c-1.6-.1-5.3-.7-5.7-2.6-.2-.8.3-2 1.3-3.2 2.2-2.6 5.3-4.3 8.6-6.1 3.3-1.8 6.8-3.7 9.5-6.7 2.4-2.7 3.4-5.7 2.8-8.4-.6-2.6-2.7-4.8-5.6-5.9-2.9-1.1-55.9-2.5-71.2 3.5-8.9 3.5-8.6 10.4-8.5 13v.7c-.1 2.9 1.5 5.7 4.1 7.1 1.6.8 3.2 1.1 4.7 1.3 1.1.2 2.2.3 3 .7.6.3.9.7 1 .8 0 .1-.1.3-.8.8-2.6 2.1-5.6 3.7-8.9 4.8-.7.2-1.3.4-2 .6-1.5.4-3.1.9-4.7 1.6-2.2 1-4.2 2.6-6.4 4.9-3.3 3.4-5.2 6.8-5.7 10.3-.8 4.7 1.3 9.4 5 11.4 2.5 1.3 5.3 1.3 7.5 1.3l18.2.1c.8 0 1.7 0 2.2.3.2.1.4.3.4.3s-.1.2-.5.7c-.8.9-1.7 1.7-2.6 2.6-2.5 2.4-5.4 5.1-5.8 9.1-.6 5.7 4.4 10.5 9.7 12.2 3.4 1.1 7 1.3 10.5 1.3 1.4 0 2.8 0 4.2-.1l7.1-.2c-3.3 4.4-6.9 9.2-10.7 14.2-14.8 19.8-33.2 44.4-39.5 48.5-8.7 5.7-12.7 5.4-19.2 5l-.9-.1c-6.6-18.7-10.1-38.6-10.1-59 .1-60.9 28.6-114.4 78.4-146.9z"/><path id="XMLID_169_" class="st12" d="M423.5 293.6c-.4-.3-1.1-1-3.8-3.6l-2.1-2.1c-6.4-6.2-13.4-21.7-18.5-33-1.3-2.8-2.4-5.3-3.4-7.4-1.2-2.5-2.3-5-3.4-7.5-.2-.4-.3-.7-.5-1.1 2.8-.4 6-1.3 6.9-1.8 4.3-2.1 7.5-4.1 10.2-6.5 8.7 20.1 13.6 41.2 14.6 63z"/><path id="XMLID_168_" d="M463.6 489.9c-3.7 4.5-10.5 7.9-16.6 10.7-10.9 5-24 7.9-39 8.5-11.5.5-23.1-.2-34.5-.9-10.3-.6-21-1.2-31.5-1-11 .3-22.1 1.5-32.9 2.8-19 2.1-38.6 4.4-57.4 1.1-7.9-1.4-15.9-3.7-23.5-5.9-10.5-3.1-21.3-6.3-32.5-7.1-9.8-.7-19.7.4-29.2 1.5-9.6 1.1-19.6 2.3-29.3 1.4-7-.6-14.1-2.2-20.9-3.8-9.3-2.2-19-4.4-28.9-4.1-3.1.1-6.2.4-9.2.8-3.7.4-7.3.8-10.9.7-4.2-.1-12.1-1-16.6-6.4-6-7-3.8-16.9-1.5-27.4.7-3.1 1.4-6.4 1.9-9.5 1.3-8.6.4-17.4-2.5-25.5-.4-1-.8-2.1-1.2-3.1-1.3-3.4-2.6-6.7-2.6-10 0-7.1 5.9-12.6 12.8-16.2-.5 1.9-.8 3.9-.9 5.6-.5 7.2 1.3 17.2 5.5 21.7 7.1 7.6 17.7 8.3 23.5 8 5.5-.3 10.8-1.4 16-2.6 2.5-.6 5.1-1.1 7.6-1.6 24-4.2 48.6 1 72.4 6.1 17 3.6 34.7 7.4 52.3 7.8 4.5.1 9.1 0 13.5-.1 9.5-.2 19.2-.5 28.5 1.5 3.2.7 6.5 1.6 9.7 2.6 4.1 1.2 8.2 2.4 12.5 3.1 3.2.5 6.4.7 9.6.7 9.4 0 18.7-1.9 27.8-3.8 6.6-1.3 13.3-2.7 20-3.4 5.7-.5 11.6-.5 17.3-.5 8.3 0 16.8 0 25.1-1.6 22.9-4.4 49.1-17 54.8-38.5 4.8 15.3 10.5 39.4 9.6 50.6-.2 2.3-.5 4.6-.7 6.9-.5 3.9-1 8-1 12.1 0 4.5.4 8.3 1.5 11.8.4 1.4 1 2.5 1.4 3.4.9 2 1 2.3 0 3.6z" fill="#ef477e"/><path id="XMLID_167_" class="st14" d="M284.2 150.4c.1-.4 1.8-9.5 10.5-9.5h.7c3.1.2 6.3 1.4 9.3 3.5 1.5 1.1 5.9 7.3 2.4 14-1.6 2.9-6.2 3.8-8.8 4-2.7.2-5.4-.2-7.9-1.2-1.4-.6-3.9-1.9-5-4.2-1.1-2.7-1.5-4.9-1.2-6.6z"/><path class="st15" d="M467.3 484.4c-.4-.8-.8-1.7-1.2-2.7-.9-3.1-1.4-6.5-1.3-10.5 0-3.9.5-7.8 1-11.6.3-2.3.6-4.7.8-7 1.2-14.4-7.6-47.7-12.8-61l-.3-.6c-.6-3.2-2.5-6.5-7.7-7.8-3.8-1-6.1.7-8.3 2.3-2.5 1.9-5.6 4.2-13.1 4.7-7.1.5-13.4-2.1-16.9-4.2 5.9-11.1 10.5-22.8 13.9-35 .5.1 1 .2 1.5.2.8 0 1.5-.1 2.2-.4 1.3-.5 2.3-1.4 2.7-2.5 1.1-3.4-1-6.6-3.6-9.6 2.5-12.1 3.8-24.6 3.8-37 0-25.5-5.2-50.1-15.4-73.2-.1-.3-.3-.5-.5-.7.7-.8 1.4-1.7 2-2.6 3.8-5.4 3-14.2-1.6-19-3.7-3.8-9.3-6-15.7-6.2-33.8-49.8-89.9-79.6-150.1-79.6-9.3 0-16 .5-24.1 1.9.5-.4 1-.8 1.4-1.2 7-5.9 14.6-9.5 22.7-13.4 5.3-2.5 10.9-5.2 16.3-8.5 1.8-1.1 2.6-3.2 2.1-5.2-.6-2.2-2.6-3.6-5.5-3.7h-2.4c.9-.7 1.8-1.4 2.6-2.2l.6-.6c2.7-2.7 5.8-5.7 6.6-9.8.3-1.5-.5-3.1-2-3.9-1-.5-2-.7-2.9-.7-3.4-.2-7.5.5-11.4 1.8 2.5-3.3 4.6-6.8 5.9-10.8.5-1.5.2-2.9-.9-3.8-1.9-1.8-5.8-1.2-6.9-.7-6 2.7-9.6 6.4-13.9 10.7l-1.4 1.4c-4.2-2.2-10.7-1.4-18.2-.2-2.9.5-5.5 1.6-8 2.7-1.4.6-2.7 1.2-4.2 1.7-10.8 3.6-19.7 10.6-28.3 17.4l-.2.2c-4.4 3.5-8.8 7.4-11.4 12.3C157.8 98 151.7 91 145 84.7c-3.7-3.5-7.9-6.9-13-7.7-.8-.1-1.9-.2-2.9.2-2.4 1-4.5 2.1-6.2 3.4-2.4 1.8-3.8 3.8-4.1 6.1-2.1 1.6-4.5 3-6.8 4.3-.9.5-1.8 1.3-2.4 2.3-.5.8-.5 1.8.1 2.6.9 1.2 4.7 1.5 8.3 1.5 3.2 0 6.2-.3 7-.5l.9.6c1.1 1 1.7 2.5 2.3 4.2.2.6.5 1.3.8 1.9.2.4.4.8.6 1.1-1.2-.7-2.3-1.3-3.5-1.7-2.1-.8-4.3-1.3-6.4-1.8-8.8-2.1-17.9-4.2-27.2-5.1-9.5-.9-18.8-1.4-27.7 1.6-2.8 1-8.7 2.9-7.8 7.2.9 4.1 5.6 3.9 8.9 3.6-1.1 1.6-1.7 3.1-1.6 4.7.1 2.4 1.8 4.5 4 4.8l3.9.6c-.9 1.4-1.2 3.2-.8 4.9.6 2.2 2.5 3.9 4.6 4.3 1.4.3 2.7 0 3.7-.2l6.8-1.3c.7-.1 1.5-.3 2.1 0-.4 1.1-.4 2.2 0 3.4.5 1.5 1.7 2.8 3.2 3.4 2.3 1 4.9.5 6.6.1.7-.2 1.4-.5 2-.8.3-.2.8-.4 1.2-.5 0 .1.1.2.1.3.2.7.6 1.9 1.6 2.7 1.3 1 5.1 2.3 7 2.3 3-.1 5.4-1.4 7.3-2.4 1.5-.8 2.6-1.3 2.9-1 1.9 1.5 4.6 3.4 7.9 3.4.6 0 1.2-.1 1.8-.2 1.3-.3 2.5-.7 3.7-1.1 1.2-.4 2.3-.8 3.5-1 .2 1.1.4 2.2.7 3.2.7 3.1 1.6 6.3 3.2 9.2.9 1.6 2.1 3.1 3.4 4.4-50.3 33.4-79 87.8-79 149.8 0 34.2 9.6 67.3 27.4 95.8-3.4-1.4-5.6-2.9-7.8-4.3-3.2-2.1-6.1-4.2-11.9-5.2-3.1-.5-7.2.3-10.5 2.1h-.3c-.2 0-.4 0-.5.1-5 1.7-21.1 8.5-21.2 22.6 0 4.2 1.5 7.9 2.9 11.6.4 1 .8 2 1.1 3 2.7 7.5 3.5 15.6 2.3 23.5-.4 3-1.1 6-1.8 9.2-2.5 11-5 22.4 2.4 31.1 4.2 4.9 11.2 7.7 19.8 7.9 3.8 0 7.7-.4 11.4-.8 2.9-.3 5.9-.6 8.8-.7 9.3-.3 18.3 1.8 27.8 4 7 1.6 14.2 3.3 21.5 3.9 10.1.9 20.3-.3 30.1-1.4 9.4-1.1 19-2.2 28.4-1.5 10.7.8 21.3 3.9 31.6 6.9 7.8 2.3 15.8 4.7 24 6.1 7.1 1.2 14.3 1.7 21.5 1.7 12.5 0 24.9-1.4 37.1-2.8 10.7-1.2 21.7-2.5 32.5-2.7 10.4-.3 20.9.4 31.2 1 11.4.7 23.2 1.4 34.9.9 15.5-.7 29.1-3.7 40.5-8.9 6.9-3.2 13.9-6.8 18.1-11.9 2.7-3.5 1.3-6.1.3-8.3zm-42.8-90c8.7-.6 12.6-3.4 15.4-5.5 2.1-1.6 2.9-2.1 4.7-1.6 5 1.2 5 4.6 4.6 9.3l-.1.7c0 .2 0 .3.1.5-3.5 21.3-29.5 33.8-52.1 38.2-7.9 1.5-16.3 1.5-24.3 1.5h-6.3c15.8-13.9 28.9-30.1 38.9-47.9 4.4 2.8 11.5 5.3 19.1 4.8zm-307.2 28s0-.1-.1-.1c-15.7-16.9-27.8-36.3-35.9-57.4 1.3.1 2.5.2 3.8.2 4.8 0 9.6-1 17.1-5.8 6-3.9 19.7-21.6 34-40.7.2 0 .4 0 .6-.1 1.9-.9 4.2-2.1 6.5-3.4 3-1.7 6.1-3.4 8.5-4.3.8-.3 1.1-.3 1.2-.3.1.1.2.4.2 1.4.1 2.9-.4 5.6-.8 8.3-.7 4.5-1.5 9.2.2 14.3.5 1.5 1.2 3.2 2.6 4.4.9.8 2.1 1.3 3.3 1.3.3 0 .6 0 .9-.1 1.8-.3 3.2-1.6 4.3-3.9 3.6-7.2 8.1-13.3 12.6-17.2 0 0 1-.5 1.3 0 .4.7 1.2 2.8 2 4.9 3.3 8.8 5.9 15.1 9.9 15.1h.1c3-.1 3.9-4.1 5.1-11.1.2-1.3.4-2.5.6-3.5.1-.6.3-1 .4-1.2.1.1.3.2.5.5 1.6 1.7 3.4 2.9 5.1 4.1 1.5 1 2.9 2 4.1 3.2 3.3 3.3 5.9 5.2 8.3 4.6 2.3-.6 3.2-3.1 3.6-4.2.4-1.2.7-3.1 1.1-5.4.4-2.3.9-5.5 1.4-6.5.5-1 1.8-1.6 2.9-1.4.3.1.5.1.8 0 7.4 6.3 16.1 10 24.8 10.6.5 1.8 1.1 3.5 1.6 5.3.4 1.2.8 2.3 1.1 3.5 3.9 12.6 4.5 26 1.9 38.9l-.1.7c-.5 2.4-1 4.8-.6 7.4.8 5.6 5.5 9.3 9.4 12 4.4 3 9.1 5.6 13.6 8.2 4.7 2.6 9.5 5.4 14 8.5 5.5 3.8 10.5 8.3 15.1 13.4.4.4.7.7 1.1 1 .2 1.1.3 2.2.3 3.3 0 .8-.2 1.6-.3 2.3-.3 1-.8 2-1.3 3l-3.4 7.1c-.2.4-.4.9-.6 1.5-.3 0-.6-.1-.8-.1-4-.6-8.1-1.8-12-3-3.2-.9-6.6-1.9-10-2.6-9.7-2-19.8-1.8-29.4-1.5-4.4.1-8.9.2-13.3.1-17.2-.4-34.6-4.1-51.5-7.7-21.9-4.8-43.9-9.5-65.8-7.6zm11.5-159.3c-1.4-.6-2.8-.6-3.9-.6l-18.3-.1c-1.9 0-4 0-5.5-.8-2.4-1.3-3.2-4.5-2.8-7 .4-2.6 1.9-5.2 4.6-8 1.8-1.9 3.5-3.2 5.2-4 1.2-.6 2.6-1 4-1.4l2.1-.6c3.7-1.2 7.2-3 10.2-5.5 1-.8 2-1.7 2.3-3.2.6-2.6-1.4-4.7-3.4-5.6-1.4-.6-2.8-.8-4.1-1-1.2-.2-2.4-.3-3.3-.8-1.1-.6-1.9-2-1.9-3.2v-1c-.1-2.6-.3-6.4 5.8-8.8 14.3-5.6 65.4-4 68.2-3.5 1.5.5 2.6 1.7 2.9 2.8.4 1.9-1.1 3.8-1.8 4.6-2.2 2.4-5.2 4.1-8.4 5.8-3.5 1.9-7.1 3.9-9.8 7.1-1.9 2.3-2.7 4.6-2.2 6.8.5 2.4 2.6 5.3 9.4 5.9l2.6.2c6.6.6 13.5 1.1 19.4 4 5.1 2.4 6.9 5 9.3 10.3 1 2.2.4 8.9-2.8 11.7-2 1.7-7 3.9-11.9 5.2l-.6.3c-2.7-1.3-5.6-2.3-8.5-2.7-7.6-1-15.6 1.2-21.5 6.1-3 2.5-5.3 5.4-7.6 8.3-1 1.3-2.1 2.7-3.2 4.1l-10.6.3c-4.5.1-9.1.3-13.2-1.1-3.6-1.1-7.2-4.2-6.8-7.7.3-2.4 2.3-4.4 4.5-6.5 1-.9 2-1.9 2.9-2.9.7-.8 1.4-1.8 1.5-3.2.3-1.7-.9-3.5-2.8-4.3zm31.1 24c2.1-2.7 4.3-5.5 7-7.7 5-4.1 11.8-6.1 18.2-5.2 6.4.9 12.4 4.6 16.1 9.9 1.7 2.5 3 5.3 4.3 8.3.4.9.8 1.7 1.2 2.6 3.5 7.6 7.7 14 12.7 19.2-1.5.6-2.8 1.8-3.5 3.3-.7 1.4-1.1 3.9-1.8 7.6-.3 1.9-.6 3.9-.9 4.8-.3.8-.5 1.2-.6 1.4-.4-.1-1.6-.8-4.3-3.4-1.5-1.4-3.1-2.6-4.7-3.6-1.6-1.1-3.2-2.2-4.4-3.5-.6-.7-1.9-1.9-3.8-2-1.3 0-3.5.7-4.4 4.7-.2 1-.4 2.3-.7 3.7-.3 2-.9 5.3-1.5 7.1-1.8-2.1-4.4-9-5.4-11.8-1.1-2.9-1.7-4.6-2.3-5.6-.7-1.2-1.9-2-3.2-2.2-1.9-.3-3.6.5-4.3 1.1-5 4.3-9.9 10.9-13.7 18.6-.6 1.1-1.1 1.6-1.4 1.6-.2 0-.4-.1-.5-.2-.6-.6-1-1.6-1.4-2.6-1.4-4.2-.8-8-.1-12.3.5-2.8.9-5.8.9-9 0-1-.1-3.5-2-4.8-1.9-1.3-4.2-.5-5.1-.1-2.5.9-5.5 2.6-8.4 4.2l.9-1.2c6.4-8.9 12.5-17.1 17.1-22.9zm79.9-33.2c-.1-3-.3-5.9.2-8.7.2-1.2-.6-2.3-1.7-2.5-1.2-.2-2.3.6-2.5 1.7-.6 3.2-.4 6.5-.3 9.6v.2c-1.5-2.5-2.1-5.4-2.3-7.3-.3-2.3-.3-4.7-.3-7.1 0-2.1 0-4.3-.2-6.5-.5-5.8-2.3-11.6-5.3-16.7-3.2-5.5-7.7-10-12-14.4-3.6-3.7-7.4-7.5-10.3-11.8-1.6-2.3-2.6-4.5-3.3-6.6-.8-2.6-1-5.5-1.1-7.6-.2-6 1.3-14.6 2.1-18.7.4-.1.7-.3 1.1-.6 0 .1.1.2.1.3.3.7.7 1.3 1.1 1.8.8.9 2.7 1.6 4.6 1.1.2-.1.5-.1.9-.3.7 1.1 1.6 1.5 2.4 1.6.2 0 .4.1.6.1.2 0 .4 0 .6-.1.2 3.3 1.1 6.6 2.6 9.6 1.8 3.6 4.5 6.7 7 9.6l1.1 1.2 2.4 2.7c3.3 3.7 5.9 6.6 8.7 9.8l5.4 6.1c2.1 2.4 4.3 6.7 5.3 8.8 0 .1.1.1.1.2-1.1.8-1.6 1.8-1.7 2.5-.4 2.6 1.9 5.2 3 6.5l.2.2c1.8 2 3.9 3.6 5.9 5.1l-1.8 4.2c-2.2 5.2-4.8 11-4.6 17.3.1 3.9 1.6 8.2 4.4 11.3-.3 1.5-.7 3.6-.5 5.7.3 2.5 1.3 4.8 2.9 6.4 1.5 1.4 3.4 2.2 5.3 2.2.7 0 1.3-.1 2-.3 3-.9 4.7-3.7 5.7-5.8 1.2-2.4 2.1-4.8 2.8-7.4.4-.3.9-.6 1.3-.9 1.9-1.7 3.5-3.6 4.9-5.7 1.6.8 3.2 1.6 4.8 2.3 2.6 1.2 5.1 2.3 7.4 3.8 21.1 14 26.9 29 28.3 34.8 5.7 22.5 2.7 49.1-8.3 73.1-.8 1.6-1.9 3.1-3.2 4.3l-.2.2h-.3c-4.9-.6-9.5-2.4-13.5-5.3-.1-.1-.4-.3-.5-.4 0-.1 0-.3.1-.5 1.1-5.1 3.5-9.8 6-14.7 1.5-3.1 3.1-6.2 4.4-9.5 3.3-8.5 4.5-17.8 3.5-26.8-.4-4-1.3-7.3-2.5-10.1-1.1-2.5-2.5-4.7-3.8-6.7-2.8-4.1-5.5-7.6-8.3-10.6-.2-.3-.4-.6-.8-.8-3.3-3.3-6.6-5.9-10.2-8-1-.6-2.3-.2-2.9.8-.6 1-.2 2.3.8 2.9 3 1.7 5.9 4 8.7 6.8-1.8 6.8-.9 15.1 2.5 21.5-8.2 3.3-15.1 5.3-22.2 6.5-4 .7-10.7.8-14.5-.7.5-3.9.7-10.4-1.4-13.8-1.1-1.7-2.3-3.4-3.5-4.9-1.1-1.4-2.1-2.7-3-4.1-2.1-3.2-3.5-6.9-4.2-10.7-.8-4.6-.6-9.3-.3-14.3.2-2.8.3-5.7.3-8.6.1-1 .1-2.2 0-3.3zm-25.9-97.6s0-.1-.1-.1c.3-1.1-.3-2.2-1.4-2.6-1.1-.4-2.3.3-2.7 1.4-.1.4-.4.9-.7 1.1-.3.1-.6.1-.8 0 0-.1-.1-.2-.1-.3 0-.1 0-.4-.1-.6-.1-.9-.1-2.6-1.7-3.4-1.5-.8-2.8.3-4.1 1.3-.2.1-.3.2-.4.4v-.5c0-.9 0-2.2-1-3.2-1.5-1.4-3.3-.4-4.3.2-.1.1-.3.2-.5.3.1-.2.2-.3.4-.5l.3-.4c1-1.1 1.8-2.1 3.8-2.3 4.4-.6 8.4.2 10.7 2.1.7.5 1.3 1.2 2 2.3.5.7 1 1.5 1.1 2.3.2.7-.1 1.6-.4 2.5zm62.5 46.2c1.9 0 4.4.3 5.9 1.9 1.1 1.1 2.1 2.6 2.5 3.6.9 2.5.3 4.8-.4 6.4-.7 1.6-1.8 3.6-3.8 5.3-.9.7-1.3 1.8-1.1 2.8.2 1.2 1.1 2.3 2.4 2.8 3 1.2 5.5 3.1 6.8 5 .7 1 1.5 2.6 1.4 4.2-.1 1.2-.8 2.4-1.8 2.7-.8.3-1.9.1-3.3-.2-2.2-.5-7.5-2.7-16-7.5-2.8-1.6-5.3-3.6-8-5.7-1.4-1.1-2.7-2.2-4.1-3.2-1.9-1.4-3.9-2.9-5.4-4.6l-.2-.3c-1.4-1.6-1.8-2.4-1.9-2.8 1.6-.8 4.6.6 7.1 3.1.6.6 1.5 1.5 2.8 1.5 2.4 0 3.2-2.8 3.8-4.9.7-2.4 2.8-4.4 5-6.3l.5-.5c1-1 2-1.8 3-2.4 1.2-.6 2.8-.9 4.8-.9zm16.3 36.5c1.5.7 3.1 1.1 4.8 1.4 1.7.2 3.3.2 5 .2 2.5 0 4.9-.1 7 .8.9.4 1.6 1.1 1.6 1.6 0 .7-.9 1.4-2.4 2.4-1.8 1.2-4 2.7-4.4 5.4-.4 3 1.9 5.4 4.3 6.3 2.1.7 4.2.6 6.3.4 5.5-.4 9.9-.2 13.9.6-4.9 6.7-10.1 13-17.1 13.9-4.5-5.9-11-12.3-20.4-18.6-2.6-1.7-5.3-2.9-8-4.1-1.5-.6-2.8-1.3-4.2-2 .2-.3.4-.7.6-1l3.3-5.5c.4.1.9.2 1.2.3 1.1.2 2.1.4 3.2.4.9 0 1.6-.1 2.4-.4 1.1-.3 2.1-1.1 2.9-2.1zm95.7 2.8c1.1 2.5 2.2 5.1 3.4 7.6 1 2 2.1 4.5 3.3 7.3 1.3 3 2.8 6.2 4.4 9.5-1.2 2.1-6.2 7.5-8.1 8.9-1-.5-2.1-1.2-3.4-2.6-1.7-1.8-3.3-4.8-4.2-8-.1-.4-.2-.9-.3-1.4-.3-1.8-.7-3.8-2.2-4.8-.7-.5-1.6-.6-2.5-.4-1.1.2-2 1.1-5.7 5.5-1.8 2.1-4.9 5.7-6.3 6.8-2.5-1.3-4.4-6-5.7-9.4-1.3-3.3-2.1-5.5-3.8-6.3-2.9-1.4-4.9 1.5-6 3.1-.3.5-.6.9-1 1.3l-4.5 4.7c.1-1.5.4-3 .6-4.4.4-2.6.8-4.5.3-5.9l-.5-1.1-.9-.3c-.7-.3-1.5-.2-2.1.2-2 1.1-3.8 2.8-5.7 4.5-1.8 1.6-3.6 3.2-5.5 4.4.7-1 1.4-1.9 2.1-2.9 2.8-3.9 5.6-7.9 8.4-11.8l4.4-6.2c3.5-4.9 7.1-10 12-13.4 3.2-2.2 11.4-6.9 18.8-2.4 4.2 2.6 7.4 9.8 10.7 17.5zm35.3 59.8c0 11.1-1.1 22.2-3.1 33l-.3-.3c-1.6-1.9-3.3-3.9-5.3-5.6-.9-.8-1.8-1.5-2.8-2.2-.7-.5-1.4-1-2-1.6-2.4-1.9-4.4-4.2-6.1-6.7l-.7-1.1c-.9-1.4-1.8-2.9-3.2-4.1-2.2-2.1-5.1-2.9-7.5-2.2-2.1.6-3.5 2.2-4.6 3.4l-3.3 3.8c-.7-.3-1.3-.5-1.8-.5-1.8 0-32.4 16-41.9 22.2-.7.5-1.6 1-2.2 1-.8 0-1.7-1-2.6-1.9-3.8-3.7-8.1-6.8-12.7-9.3 1.7-13.4 1-26.6-2.1-38.7-.8-3.1-2.7-8.5-7-15 5.1-1.3 9.2-4.8 12.9-8.9h.4c5.2-.5 9.2-4.1 12.6-7.2.7-.7 1.4-1.3 2.1-1.9 0 .2-.1.5-.1.7-.4 2.3-.8 4.9-.7 7.3.1 1.4.9 2.6 2.2 3.1 1.3.5 2.7.2 3.7-.8l6-6.3c.5-.5.9-1.1 1.4-1.8.2-.4.6-.9.9-1.2.5.9 1.1 2.4 1.5 3.6 1.9 4.8 4.2 10.9 9.1 12.2 2.1.6 3.9-1.2 10.1-8.4.9-1 2-2.3 2.8-3.2.1.3.1.7.2 1 .1.7.2 1.3.4 1.9 1.1 3.8 3 7.4 5.2 9.7 2.1 2.2 3.9 3.2 5.5 3.9.2.1.5.2.8.2 2.9 0 7.7-5.6 10.3-9.1 4 8.2 8.5 16.2 13 20.5l2.1 2.1c4.2 4.1 4.3 4.2 5.8 4.8.3.1.6.2 1.1.4-.2 1-.1 2.1-.1 3.2zm-25.5 91.9l-2.1-.4c-7.3-1.3-17.3-3.1-21.4-7.9-1.6-1.9-2.7-4.3-3.8-6.8-.6-1.4-1.3-2.9-2-4.2-2.3-4.1-5.4-6.9-8.7-7.9.5-.5 1-1 1.5-1.4.6-.5 1.1-1.1 1.7-1.6 5.1-4.8 10.9-9 16.6-13 6.1-4.4 12.4-8.9 17.9-14.3h.1l.3-.3c6.3 4.6 12.8 9 19.3 13.2-4.5 15.8-10.9 30.7-19.4 44.6zM256.1 259.6c.8.4 1.6.7 2.5.9.9.2 1.8.3 2.8.3 1.2 0 2.5-.2 3.8-.6-.4 1-.8 1.9-1.2 2.8-.7 1.3-1.7 3.2-3.1 3.6-1 .3-2.2-.1-3.1-.9-.9-.9-1.5-2.2-1.6-3.7-.3-.8-.2-1.6-.1-2.4zm12.9-6.2c-3 2.6-6.5 3.7-9.5 3-4.7-1.1-7.3-6.5-7.5-11.1-.1-5.3 2.2-10.7 4.3-15.5l1.4-3.2c.2.2.5.4.7.5 2.7 2.1 5.5 4.3 8.5 6.1 4.5 2.6 8.7 4.7 12 6.1l-2.9 4.8c-2 3.3-4.1 6.8-7 9.3zm35 123.4c-1.1-.4-2.3.2-2.7 1.3l-.3.9c-.3 1-1.2 3.9-1.7 4.5-1 .9-1.6 1.2-1.9 1.3-.1-.2-.1-.6 0-1.1v-.4c.6-.8 1.1-1.6 1.6-2.5l.8-1.3c.6-1 .3-2.3-.6-2.9-1-.6-2.3-.3-2.9.6l-.9 1.4c-1.6 2.7-2.5 4-4.2 4.5-.1 0-.2 0-.3-.1 0-.1.1-.3.2-.6.6-2 1.6-3.8 2.9-5.5.7-.9.5-2.3-.4-3-.9-.7-2.3-.5-3 .4-1.4 1.9-2.5 4-3.3 6.2-.1.1-.2.1-.3.2-.3.3-.6.4-.7.5.7-3 2.9-5.8 4.8-8.2.7-.9.6-2.3-.4-3-.9-.7-2.3-.6-3 .4-.3.4-.6.7-.9 1.1l-.2-.2c0-.6.7-1.4 1.5-1.9.4-.2 1-.4 1.5-.6.3-.1.6-.2.8-.3 4.2 2.7 9 4.5 14 5.2.2 0 .5.1.8.1.7 3.2.9 5.6.5 7.2-.2.9-.6 1.9-1.2 2.1-.2-.1-.4-.2-.5-.3.2-.7.5-1.5.8-2.5l.3-.8c.6-1.1 0-2.3-1.1-2.7zm-14.3-86.5c1.9 2.2 3.7 4.6 5.5 7.4 1.2 1.9 2.5 3.9 3.4 6 1 2.4 1.7 5.2 2.1 8.5-.2-.2-.4-.5-.6-.7-2-2.3-4.5-3.8-7-4.3-2.5-4.2-4.2-10.7-3.4-16.9zm-2.7 72c-.1.6-.4 1.8.1 3-.3.1-.6.3-.9.4-2.1 1.1-3.5 3.1-3.7 5.2v-.4c-.3-6.9-.4-22.4-.4-27.8v-.6c.1.1.2.1.4.2.7.3 1.4.8 2.1 1.3.9.6 1.7 1.2 2.8 1.6l5.5 2.4c-2.3 4.5-4.7 9.4-5.9 14.7zm-4.2 10.4c.2.5.5.9.8 1.4-.5-.5-.7-.9-.8-1.4zm-.1-.4zM244 303c.8-.5 1.6-1.2 2.3-2 .2.4.5.7.7 1.1 1.4 2.3 1.3 8.3.7 11.9-.4.3-.6.7-.7 1.2-.6 3.1-.5 6.1.1 9.1-7.5-.8-15-4.2-21.4-9.8-1.7-1.5-3.3-3.1-4.8-4.8h.1c3.9 0 8.5-.3 13-1.7 3.6-1.1 7-2.8 10-5zm60.1 142l3.4-7.1c.6-1.2 1.1-2.4 1.5-3.7.3-1 .4-2.1.5-3.2.1-1.5-.1-3-.4-4.5l.6-.6c3.8-4.4 8.3-8.1 13.4-10.9.2-.1.2-.2.4-.3 2.5 1.1 5 2.4 7.4 3.8.4.3 1.3.7 1.4 1.2.1.3 0 1-.4 1.5-.5.6-1.2 1.2-1.9 1.8l-.5.4c-4.1 3.3-7.4 7.5-10.5 11.6-1.2 1.5-2.3 3-3.6 4.5-1.4 1.7-5.2 5-6.3 5.8-1.5-.1-3.3-.1-5-.3zm14.7-2.9c1.2-1.5 2.5-3.1 3.7-4.6 3.1-4 6-7.8 9.8-10.8l.4-.4c.9-.7 1.9-1.5 2.8-2.6 1.3-1.8 1.6-4 .9-5.7-.7-1.6-2-2.4-3.2-3.1-2.6-1.5-5.3-2.9-8-4.1-.3-.8-1-1.3-1.3-1.5L298 389.1c1.9-.3 3.5-1.8 4.3-2.5.8.4 1.7.8 2.5.8h.5c2.3-.4 4-2.3 4.7-5.3.6-2.5.4-5.9-.7-10.2v-.1c1.4-1.4 2.6-3.1 3.5-5 1.2-2.5 2.2-5.1 3.2-7.7l8.5 4.5c1.7.9 3.4 1.8 5 2.8l2.7 1.8c4.1 2.7 8.3 5.5 13.4 5.5h.1c3.4 0 6.8-1.3 10.2-3.8l.1-.1c.3.2.7.3 1.1.3 3.3-.1 6.4 3 8 6.1.7 1.3 1.3 2.6 1.9 3.9 1.2 2.7 2.4 5.4 4.4 7.8 5 6 15.9 7.9 23.9 9.3l.4.1c-9.7 15-21.8 28.6-36 40.4-1.6.1-3.1.2-4.7.3-6.9.6-13.8 2.1-20.4 3.4-6.3 1.3-12.3 2.5-18.3 3.2 1.1-.9 2-1.9 2.5-2.5zm105-95.4c-.3.3-1.5.3-2 .1-7.6-4.8-15.2-10-22.5-15.3-.1-.1-.2-.1-.3-.1-.3-.9-.8-1.6-1.2-2.1-.5-.6-1.4-1.5-2.4-2.6-.8-.8-1.7-1.8-2.7-2.8 0 0-2-1.9-4.4-3.6l2.8-3.2c.9-1.1 1.7-1.9 2.6-2.2 1-.3 2.3.2 3.4 1.2.9.9 1.7 2.1 2.5 3.3l.7 1.2c1.9 2.9 4.3 5.5 6.9 7.6.7.6 1.4 1.1 2.2 1.7.9.7 1.7 1.3 2.5 2 1.8 1.5 3.4 3.4 4.9 5.2l2.1 2.4c2.6 2.5 5.4 5.6 4.9 7.2zm-.3-53.1c-.4-.3-1.1-1-3.8-3.6l-2.1-2.1c-6.4-6.2-13.4-21.7-18.5-33-1.3-2.8-2.4-5.3-3.4-7.4-1.2-2.5-2.3-5-3.4-7.5-.2-.4-.3-.7-.5-1.1 2.8-.4 6-1.3 6.9-1.8 4.3-2.1 7.5-4.1 10.2-6.5 8.7 20.1 13.6 41.2 14.6 63zm-12.9-70.9c-3.2 4.6-6.9 7.5-13.7 10.8-1 .5-5 1.4-6.9 1.5-2.9-6.2-5.9-11.7-10.3-14.3-9.5-5.7-19.6-.1-23.4 2.6-5.5 3.8-9.5 9.4-13 14.4l-4.4 6.2-7.5 10.5c-4.8-1.2-10.2-1.5-17.2-1.1-1.6.1-3.1.2-4.3-.2-.9-.3-1.7-1.2-1.6-1.8.1-.8 1.3-1.7 2.5-2.5 1.8-1.2 4.3-2.9 4.3-6-.1-2.2-1.6-4.2-4-5.3-2.9-1.3-5.9-1.3-8.8-1.2-1.5 0-3 .1-4.4-.1-1.3-.2-2.6-.5-3.8-1.1 0-.1 0-.2.1-.3.2-2.2-.5-4.5-2-6.8-2-3.2-5.5-5.2-7.7-6.2 1.9-1.9 3-4 3.7-5.6 1.5-3.3 1.7-6.6.5-9.6-.7-1.9-2.3-3.9-3.5-5.1-2-2-4.9-3.1-8.5-3.1-.2-.2-.5-.4-.8-.5-.3-.3-.6-2.1 1-5 3.2-5.7 8.7-9.7 15.9-11.5 8.6-2.2 14 .1 16.2 3 .6.8 1.2 1.9 1.1 2.8-.2 1-1.4 2-2.5 2.7-.6.4-1.1.8-1.4 1.2-2.5 2.5-3.5 5.3-2.9 7.9.9 3.5 4.6 5.4 7.8 5.5 2.6 0 4.8-.8 7-1.6l.9-.3c6.3-2.2 13.2-3.2 19.8-2.9 1.1 0 3.7.4 4.9 2.5 1 1.8.8 2.2.1 3.3-.5.8-1.1 1.8-1.2 3.3-.2 2.4.8 4 1.7 4.8 2 2.1 5 2.2 6.2 2.1 10.1-.4 20.9-2.9 29.5-6.8.9-.4 1.8-.8 2.7-1.3 1.4-.7 2.7-1.4 4.1-1.9 2.6-1 5.7-1.4 8.8-1.5 3.3 0 9.5.7 13.6 5 3.3 3.1 3.9 9.8 1.4 13.5zm-196-94.6c12.6-2.7 19.8-3.5 32.1-3.5 57.9 0 111.9 28.2 145.1 75.6-2.2.3-4.3.7-6.2 1.4-1.6.6-3.1 1.3-4.5 2-.8.4-1.7.8-2.5 1.2-8.2 3.7-18.4 6-28 6.5-1.2 0-2.4-.3-3-.9-.2-.2-.5-.7-.5-1.6 0-.4.2-.8.6-1.4 1.1-1.8 1.9-3.9-.1-7.5-1.6-2.8-4.6-4.4-8.4-4.6-7.2-.3-14.6.8-21.4 3.1l-1 .3c-1.9.7-3.8 1.3-5.5 1.3-1.6 0-3.4-.9-3.7-2.2-.3-1.1.4-2.6 1.8-4 .2-.2.6-.5.9-.7 1.5-1.1 3.7-2.7 4.2-5.5.3-1.9-.4-3.9-1.9-5.9-1.4-1.9-7.2-7.9-20.6-4.6-8.4 2.1-14.8 6.8-18.6 13.5-1.7 3-2.1 5.9-1.4 8.1-.8.2-1.6.5-2.4.9-1.5.8-2.7 1.9-3.9 3l-.5.5c-2.4 2.2-5.2 4.8-6.2 8.3-.1.3-.2.6-.2.8-1.5-1.3-4.4-3.5-7.6-3.8v-.1c-.1-.2-.3-.5-.5-1-1.1-2.3-3.5-7-6-9.8l-5.3-6c-2.8-3.2-5.4-6.1-8.8-9.9-.8-.9-1.5-1.7-2.3-2.6l-1.1-1.3c-2.4-2.7-4.8-5.5-6.4-8.7-1.6-3.1-2.3-6.6-2.2-10.1.8.9 1.8 1.7 2.6 2.2l2.5 1.5c.3.2.7.3 1.1.3.7 0 1.4-.4 1.8-1.1.6-1 .2-2.3-.8-2.9l-2-1.2c.9-.3 1.8-.7 2.7-1.2 1-.6 1.3-1.9.7-2.9-.6-1-1.9-1.3-2.9-.7-.8.5-1.8.8-2.8 1v-.1l.2-.4c.3-.8 1-1.4 1.7-1.8 1.1-.5 1.5-1.7 1.1-2.8-.5-1.1-1.7-1.5-2.8-1.1-1.5.7-2.7 1.9-3.5 3.3-.4-.9-.9-1.7-1.4-2.3-.6-.8-1.5-2-2.7-3-4.6-3.8-11.3-3.4-14-3-3.6.5-5.3 2.5-6.5 3.8l-.3.4c-.1.1-.2.2-.3.4-2.1.4-4.4-.9-5.3-2.8.9-2 1.4-4.4 1.4-7.3 0-.4 0-.8-.1-1.1h.7c1.7 0 3.3-.3 4.9-.5.5-.1 1-.2 1.6-.2 6.5-.9 13-4 18.3-7.4-.1 0 0 .1.1.1zm22-51.7c.2-.6.2-1.2 0-1.8l1.3-1.3c4.1-4.2 7.4-7.4 12.6-9.8.4-.1 1.2-.2 1.8-.1-2.6 7.1-8.1 13-13.5 18.7l-.4.4c-.8.9-.8 2.2.1 3 .4.4.9.6 1.4.6.6 0 1.1-.2 1.5-.7l.4-.4c.7-.7 1.3-1.4 2-2.1.1 0 .2 0 .2-.1 4.8-3.4 12.4-5.7 17.7-5.4.2 0 .6 0 .8.1-.7 2.6-3 4.9-5.3 7.1l-.6.6c-2.2 2.2-5.1 4-7.7 5.6-.7.4-1.4.9-2 1.3l-.3.3c-2.1.7-4 1.7-5.8 2.8-1 .6-1.3 1.9-.6 2.9.6 1 1.9 1.3 2.9.6 4.4-2.8 10.2-4.3 16.1-4 1 .1 1.5.4 1.6.5 0 .1-.1.4-.3.5-5.2 3.2-10.6 5.8-15.9 8.3-8 3.8-16.2 7.7-23.6 13.9-9 7.6-18.2 12.4-25.8 13.5-.5.1-1.1.2-1.7.3-2 .3-3.9.6-5.6.3-.3-1.1-.7-2.3-1.1-3.4.9-.1 1.7-.4 2.4-1.4.4-.5.5-1.1.6-1.6 0 .1.1.1.1.2.3.5.8 1.1 1.4 1.6 1.2.9 2.8 1.1 4.3.4 1.5-.6 2.5-2 2.7-3.4.2-1.5-.4-2.6-.8-3.6l-.2-.5c-.1-.2-.2-.4-.2-.6.1 0 .3 0 .5.1.7.1 1.3.4 2 .6.7.2 1.5.5 2.2.6 2.3.5 4.5.2 6-1 1.6-1.2 2.5-3.4 2.3-5.8-.1-1.4-.4-2.6-.8-3.8l-.3-1c-.1-.5-.2-1-.2-1.3.1-.6 1.1-1.3 2.4-1.8.4-.1.7-.2 1.1-.3 1.5-.4 3.2-.9 4.6-2.1 2.1-1.8 2.6-4.3 3.1-6.5.3-1.5.7-3 1.4-3.9.6-.9 2.5-1.4 4.2-1.9 2.4-.7 4.9-1.5 6.4-3.5 2.9-3.9-.8-7-2.2-8.2l-.1-.1c.2-.1.6-.2 1-.3 4.6-1 5.5-2.2 5.9-3.1zM116.8 93.2c.9-.5 1.8-1.1 2.7-1.7.3.6.7 1.2 1.1 1.7h-3.8zm15.6 38.7c-1.1.4-2.2.7-3.2.9-1.8.4-3.7-.4-6.1-2.4-2.6-2.1-5.3-.6-7.6.5-1.7.9-3.5 1.8-5.5 1.9-.8 0-3.6-1-4.2-1.4-.1-.1-.2-.4-.2-.6-.2-.6-.5-1.5-1.1-2.3-1.9-2.1-4.4-.9-6-.2-.4.2-.9.4-1.3.5-1.1.3-2.7.6-3.8.1-.4-.2-.7-.6-.9-1 0-.1-.1-.3 0-.4.5-.9.5-2 .1-3-.5-1.2-1.4-2.1-2.6-2.6-1.6-.6-3.3-.3-4.4-.1l-6.8 1.3c-.7.1-1.5.3-2.1.2-.6-.1-1.2-.6-1.3-1.2-.2-.6.1-1.3.5-1.7.7-.6 1-1.4 1-2.3 0-1-.4-2-1.2-2.7-1-.9-2.2-1.1-3-1.2l-3.9-.6c-.1 0-.4-.4-.4-.8 0-.8.5-1.6 1.1-2.4.5-.6 1.1-1.4 1.3-2.6.2-1-.2-2.2-.9-3-.6-.7-1.5-1.1-2.5-1-.4 0-.9.1-1.3.1-1.2.1-4.5.4-5.1 0 .1-.3.9-1.1 5-2.5 8.1-2.7 16.9-2.2 26-1.4 9 .8 17.9 2.9 26.6 5 2 .5 4 .9 5.8 1.7 2.8 1.1 5.6 2.9 8.7 5.6h.1c.3 1.3.6 2.7.8 4.2l.1.4c.6 4.6 1.5 9.1 2.4 13.7-1.5.5-2.8.9-4.1 1.3zm9.6 5.3c-1.6-6.8-3-13.7-3.9-20.6l-.1-.4c-.3-2.1-.6-4.3-1.4-6.5-.6-1.7-1.5-3.2-2.3-4.7-.6-1-1.2-2.1-1.7-3.1-.2-.6-.5-1.1-.7-1.7-.8-2-1.6-4.2-3.4-5.8-.6-.5-1.2-1-1.9-1.4-.4-.2-.7-.5-1.1-.7-1.5-1.2-2.6-2.7-2.7-3.9-.1-1.2.1-2.5 2.5-4.3 1.4-1.1 3.2-2 5.2-2.9h.7c4.2.6 7.7 3.7 10.7 6.5 7.5 7.1 14.3 15.1 20.2 23.6.7 1.2 3.5 9.4 3.6 10.9 0 1.1.9 2.1 2.1 2.1 1.2 0 2.1-.9 2.2-2.1.1-1.8-2.8-10.2-4-12.8 2.1-5.4 6.8-9.5 11.2-12.9l.2-.2c8.7-6.8 17-13.3 27.1-16.7 1.6-.5 3.1-1.2 4.5-1.8 2.4-1 4.6-2 7-2.4 5.7-1 11.4-1.7 14.7-.6-.1 0-.3 0-.4.1-3.3.5-5.3 2.6-4.9 5.1.2 1.2 1.1 1.9 2 2.7 2 1.7 1.9 2 1.5 2.4-.6.9-2.5 1.4-4.2 2-2.4.7-4.9 1.5-6.4 3.5-1.3 1.7-1.7 3.8-2.1 5.6-.4 1.8-.8 3.4-1.8 4.2-.7.6-1.8.9-3 1.2-.4.1-.8.2-1.3.4-3 1-4.9 2.7-5.3 5-.2 1.2 0 2.3.2 3.2l.3 1.1c.3 1 .6 2 .6 2.9.1 1-.2 1.9-.7 2.3-.5.4-1.4.5-2.5.2-.6-.1-1.2-.3-1.8-.5-.8-.3-1.6-.5-2.5-.7-1.9-.4-3.5 0-4.6 1.2-1.2 1.3-1.3 3.2-.4 5.2l.3.5c.2.5.5 1 .5 1.2-.1.1-.3.2-.3.2-.1-.1-.3-.4-.5-.6-.3-.4-.7-1-1.3-1.5-1.5-1.3-3.7-1.4-5.3-.3-1.1.7-1.3 1.8-1.3 2.6-.2-.1-.3-.1-.5-.2-1.1-.4-2.4-.9-3.7-.6-3 .5-5.4 2.6-6 5.1-.3 1.1.4 2.3 1.6 2.5.2 0 .3.1.5.1 1 0 1.8-.7 2.1-1.6.2-1 1.4-1.7 2.5-1.9.2.7.5 1.4.7 2.1.9 2.7 1.8 5.1 1.7 7.8 0 1.6-.2 4-1.2 5.9-.1.1-.1.2-.2.4-.4.6-.9 1.1-1.5 1.5-1 .6-2.2.7-3.6 1-.5.1-1.1.2-1.6.3-3.3.6-6.2 2.1-9.1 3.5-3.2 1.6-6.3 3.1-9.5 3.3-2.8.2-5.6-.6-8.1-2.2-.3-.5-.8-.8-1.3-.9-1.5-1.2-2.9-2.7-3.8-4.5-1-2.7-1.8-5.5-2.5-8.4zm6 17.4c2.8 1.7 6 2.7 9.2 2.7h1.2c2.5-.2 4.8-.9 7-1.9.6 2.6 1.4 5.3 3.1 7.6 2.2 3 5.8 5 9.6 5.3h1.1c2.6 0 5.2-.8 7.7-2.2l4.4 2.5c.3.7 1 1.2 1.8 1.2h.1c1.1 0 2.1-.9 2.1-2.1 0-.8-.3-1.9-1.8-2.7l-1.9-1.1c.5 0 1-.1 1.6-.1 1.2 0 2.1-1 2.1-2.2 0-1.2-1.1-2-2.2-2.1-1.2 0-2.6.1-4 .5.2-.6.6-1.2 1.1-1.7.9-.8.9-2.1.1-3-.8-.9-2.1-.9-3-.1-1.9 1.8-2.9 4.5-2.6 7.1-2.1 1.2-4.2 1.7-6.2 1.5-2.6-.2-5-1.6-6.5-3.6-1.4-1.9-2.1-4.3-2.6-6.8 0 0 .1 0 .1-.1 2.7-1.3 5.3-2.6 8-3.1.5-.1 1-.2 1.4-.2 1.6-.2 3.4-.5 5.1-1.5.3-.2.6-.4.8-.6 1.6 2.1 4.1 3.4 6.8 3.6.2 1.4.8 2.2 1.4 2.6 1.6 1.2 3.4.6 4.7 0 .1.6.3 1.2.7 1.7l.6.6c-.8 4.2-2.5 13.3-2.3 19.9.1 2.4.3 5.6 1.3 8.7.8 2.5 2 5 3.8 7.6 3.1 4.6 7 8.6 10.8 12.5 4.3 4.4 8.4 8.5 11.3 13.6 2.7 4.5 4.3 9.7 4.7 14.9.2 2 .2 4 .2 6.2 0 2.5 0 5 .3 7.6.7 5.9 3 10.5 6.6 13.3 0 1.6-.1 3.3-.2 4.9-.3 5-.6 10.2.4 15.3.8 4.3 2.4 8.5 4.8 12.2 1 1.5 2.1 3 3.1 4.3-.5.8-1.4 1.5-2.2 2.1-2.7 1.9-5.7 3.4-8.8 4.3-5.5 1.6-11.3 1.6-15.3 1.4-2.6-3.6-4.9-7.6-6.9-12.1-.4-.8-.8-1.7-1.1-2.5-1.3-3-2.7-6.2-4.7-9a28 28 0 0 0-5.8-6.1c4-1.3 8.3-3.2 10.6-5.2 4.7-4.1 5.5-12.9 3.8-16.6-2.7-5.9-5.2-9.4-11.3-12.4-6.6-3.2-13.8-3.8-20.9-4.4l-2.6-.2c-1.6-.1-5.3-.7-5.7-2.6-.2-.8.3-2 1.3-3.2 2.2-2.6 5.3-4.3 8.6-6.1 3.3-1.8 6.8-3.7 9.5-6.7 2.4-2.7 3.4-5.7 2.8-8.4-.6-2.6-2.7-4.8-5.6-5.9-2.9-1.1-55.9-2.5-71.2 3.5-8.9 3.5-8.6 10.4-8.5 13v.7c-.1 2.9 1.5 5.7 4.1 7.1 1.6.8 3.2 1.1 4.7 1.3 1.1.2 2.2.3 3 .7.6.3.9.7 1 .8 0 .1-.1.3-.8.8-2.6 2.1-5.6 3.7-8.9 4.8-.7.2-1.3.4-2 .6-1.5.4-3.1.9-4.7 1.6-2.2 1-4.2 2.6-6.4 4.9-3.3 3.4-5.2 6.8-5.7 10.3-.8 4.7 1.3 9.4 5 11.4 2.5 1.3 5.3 1.3 7.5 1.3l18.2.1c.8 0 1.7 0 2.2.3.2.1.4.3.4.3s-.1.2-.5.7c-.8.9-1.7 1.7-2.6 2.6-2.5 2.4-5.4 5.1-5.8 9.1-.6 5.7 4.4 10.5 9.7 12.2 3.4 1.1 7 1.3 10.5 1.3 1.4 0 2.8 0 4.2-.1l7.1-.2c-3.3 4.4-6.9 9.2-10.7 14.2-14.8 19.8-33.2 44.4-39.5 48.5-8.7 5.7-12.7 5.4-19.2 5l-.9-.1c-6.6-18.7-10.1-38.6-10.1-59 .1-60.9 28.6-114.4 78.4-146.9zM72.4 392c4.9.8 7.3 2.5 10.3 4.5 3.2 2.2 6.8 4.6 13.9 6.6 4.7 6.9 9.9 13.6 15.6 19.9-1.2.2-2.4.3-3.6.6-2.6.5-5.2 1-7.8 1.6-5.3 1.1-10.2 2.2-15.3 2.5-8.5.4-15.9-2-20.2-6.7-2.9-3.1-4.8-11.4-4.4-18.6.2-3 .8-5.5 1.8-7.2 2.1-2.2 6.6-3.7 9.7-3.2zm391.2 97.9c-3.7 4.5-10.5 7.9-16.6 10.7-10.9 5-24 7.9-39 8.5-11.5.5-23.1-.2-34.5-.9-10.3-.6-21-1.2-31.5-1-11 .3-22.1 1.5-32.9 2.8-19 2.1-38.6 4.4-57.4 1.1-7.9-1.4-15.9-3.7-23.5-5.9-10.5-3.1-21.3-6.3-32.5-7.1-9.8-.7-19.7.4-29.2 1.5-9.6 1.1-19.6 2.3-29.3 1.4-7-.6-14.1-2.2-20.9-3.8-9.3-2.2-19-4.4-28.9-4.1-3.1.1-6.2.4-9.2.8-3.7.4-7.3.8-10.9.7-4.2-.1-12.1-1-16.6-6.4-6-7-3.8-16.9-1.5-27.4.7-3.1 1.4-6.4 1.9-9.5 1.3-8.6.4-17.4-2.5-25.5-.4-1-.8-2.1-1.2-3.1-1.3-3.4-2.6-6.7-2.6-10 0-7.1 5.9-12.6 12.8-16.2-.5 1.9-.8 3.9-.9 5.6-.5 7.2 1.3 17.2 5.5 21.7 7.1 7.6 17.7 8.3 23.5 8 5.5-.3 10.8-1.4 16-2.6 2.5-.6 5.1-1.1 7.6-1.6 24-4.2 48.6 1 72.4 6.1 17 3.6 34.7 7.4 52.3 7.8 4.5.1 9.1 0 13.5-.1 9.5-.2 19.2-.5 28.5 1.5 3.2.7 6.5 1.6 9.7 2.6 4.1 1.2 8.2 2.4 12.5 3.1 3.2.5 6.4.7 9.6.7 9.4 0 18.7-1.9 27.8-3.8 6.6-1.3 13.3-2.7 20-3.4 5.7-.5 11.6-.5 17.3-.5 8.3 0 16.8 0 25.1-1.6 22.9-4.4 49.1-17 54.8-38.5 4.8 15.3 10.5 39.4 9.6 50.6-.2 2.3-.5 4.6-.7 6.9-.5 3.9-1 8-1 12.1 0 4.5.4 8.3 1.5 11.8.4 1.4 1 2.5 1.4 3.4.9 2 1 2.3 0 3.6z"/><path id="XMLID_133_" class="st15" d="M258 236.2c.2.9 1.1 1.6 2.1 1.6h.1c1.2 0 2.1-1 2.1-2.2 0-1.5-1-2.9-2.3-3.5-1.4-.6-3-.4-4.3.7-.9.7-1 2-.2 2.9.5.8 1.6 1 2.5.5z"/><path id="XMLID_132_" class="st15" d="M270.8 242.3c.3-.2.8-.1 1 .2.4.6 1.1.8 1.7.8.4 0 .9-.1 1.3-.4.9-.7 1.1-2 .4-3-1.5-2-4.6-2.6-6.7-1.2-1 .6-1.2 2-.6 2.9.6 1 1.9 1.3 2.9.7z"/><path id="XMLID_131_" class="st15" d="M272.5 248c.5-1 .1-2.3-1-2.8-1-.5-2.3-.1-2.8 1-.7 1.4-2.1 2.5-3.8 3-1.9.5-4.2.3-5.2-.5-2-1.7-1.6-4.5-1.4-5.4.3-1.1-.5-2.3-1.6-2.5-1.1-.2-2.3.5-2.5 1.6-.3 1.4-1 6.3 2.8 9.5 1.5 1.3 3.7 1.8 5.7 1.8 1.2 0 2.3-.2 3.3-.4 2.8-.8 5.2-2.8 6.5-5.3z"/><path id="XMLID_130_" class="st15" d="M259.9 242.4c-.1 2.4 1.6 4.4 3.7 4.7h.3c1 0 2-.7 2.1-1.8.2-1.2-.6-2.2-1.7-2.4-.1 0-.2-.3-.2-.5 0-.6.5-1.4.9-2 .7-1 .4-2.3-.5-3-1-.7-2.3-.4-2.9.5-.8 1.3-1.6 2.7-1.7 4.5z"/><path id="XMLID_129_" class="st15" d="M132.9 89.5c-.3-1.1-.3-1.4-.3-2.6 0-1.2-1-2.1-2.1-2.1-1.2 0-2.1 1-2.1 2.1 0 1.6.1 2.2.4 3.5l.1.5c.2 1 1.1 1.7 2.1 1.7.2 0 .3 0 .5-.1 1.1-.3 1.9-1.4 1.6-2.5l-.2-.5z"/><path class="st15" d="M288.9 165.1c2.5 1 5.3 1.6 8.1 1.6.6 0 1.2 0 1.7-.1 6.1-.5 10.4-2.7 12.2-6.2 4.8-9.2-1.1-17.6-3.7-19.4-3.7-2.6-7.7-4.1-11.5-4.3-10.4-.5-14.8 8.3-15.6 13-.5 2.6.1 5.6 1.6 9.1 1.5 3.4 4.7 5.3 7.2 6.3zm-4.7-14.7c.1-.4 1.8-9.5 10.5-9.5h.7c3.1.2 6.3 1.4 9.3 3.5 1.5 1.1 5.9 7.3 2.4 14-1.6 2.9-6.2 3.8-8.8 4-2.7.2-5.4-.2-7.9-1.2-1.4-.6-3.9-1.9-5-4.2-1.1-2.7-1.5-4.9-1.2-6.6zM100.3 466.6c0-.1 0-.1 0 0 0-.2-.1-.2-.1-.4-2.3-8.3-5.4-18.8-7.8-24.7l-.4-.9-1-.3c-1.2-.4-2.9 0-4 2.2-5.2 10.9-9.4 22.4-12.5 34.1-.3 1.1.4 2.3 1.5 2.6 1.1.3 2.3-.4 2.6-1.5.8-3.1 1.7-6.2 2.7-9.2.4 0 .8.1 1.3.1 2.3.3 5.7.6 9.6.6 1.4 0 2.9-.1 4.4-.2 1.7 5.9 2.8 10.4 2.9 10.5.2 1 1.1 1.6 2.1 1.6.2 0 .4 0 .5-.1 1.1-.3 1.8-1.4 1.5-2.6-.1 0-1.4-5.2-3.3-11.8zm-17.2-2.2h-.3c2.1-6 4.4-11.9 7.1-17.7 1.8 5.2 3.9 12.1 5.6 18.2-4.9.3-9.5-.2-12.4-.5zM137.8 448.8c-5-3-10.5-4.1-15.6-3.1l-1.5.3-.2 1.6c-1.1 11.3-.2 22.6.7 33.6v.2c0 1 0 2.8 7.7 2.8 2.9 0 5.8-.4 8.5-1.3 4.8-1.5 9.1-7.4 10.4-12.3.5-1.9.6-3.8.5-5.3 0-1.9-.2-4.8-1.4-7.5-1.7-4.1-5.5-6.9-9.1-9zm6 20.7c-1 3.6-4.4 8.4-7.6 9.4-2.3.7-4.7 1.1-7.2 1.1-1.5 0-2.7-.1-3.6-.3-.8-9.9-1.6-20.1-.8-30 3.6-.3 7.4.7 11 2.8 3 1.8 6.2 4 7.6 7.1.7 1.5 1 3.3 1 5.8 0 1.2 0 2.7-.4 4.1z"/><path id="XMLID_122_" class="st15" d="M187.9 452.4c-4.4 5.2-7.3 11.3-10 17.2l-3.7 7.9-10.8-27.5c-.4-1.1-1.7-1.6-2.7-1.2-1.1.4-1.6 1.7-1.2 2.7l14.3 36.6 7.9-16.8c2.7-5.6 5.4-11.4 9.5-16.3.8-.9.6-2.2-.3-3-.9-.6-2.2-.5-3 .4z"/><path id="XMLID_121_" class="st15" d="M227.3 454c-6.4-1.4-13-2.1-19.6-2h-2.1l.1 25.1c0 3.4 0 7.3 1.2 10.9l.4 1.3 18.8 1.8h.2c1.1 0 2-.8 2.1-1.9.1-1.2-.7-2.2-1.9-2.3l-16-1.5c-.6-2.7-.6-5.5-.6-8.3v-4.2c2.8.6 5.7.6 8.5.6 1.8 0 3.6 0 5.4.1h.2c1.1 0 2-.9 2.1-2 .1-1.2-.8-2.2-2-2.3-2-.1-3.9-.1-5.8-.1-3 0-5.9 0-8.5-.7l-.1-12.4c5.5.1 11.1.7 16.5 1.9 1.1.2 2.3-.5 2.5-1.6.5-1-.2-2.1-1.4-2.4z"/><path id="XMLID_120_" class="st15" d="M274.8 459l-1.7.3c-2 .3-2 .3-2.2 14.5 0 3.1-.1 9.8 0 15.9-6.5-7.5-16.8-23.6-19-28l-2.4-4.7-1.5 5.1c-2.3 7.6-2.7 14.3-3.1 21.4-.2 3.1-.4 6.3-.7 9.6-.1 1.2.7 2.2 1.9 2.3 1.2.1 2.2-.7 2.3-1.9.4-3.5.6-6.7.7-9.8.3-5.2.6-10.2 1.7-15.4 5.2 8.6 15.7 24.3 20.9 28.1.4.3.9.5 1.4.5.4 0 .7-.1 1.1-.3l1.3-.8-.1-1.3c-.4-9.6-.1-27 .2-31.5.4-.6.4-1.4.1-2.1l-.9-1.9z"/><path id="XMLID_119_" class="st15" d="M316.7 459.8c-.9.3-5.8.9-28.1 1.5-1.2 0-2.1 1-2.1 2.2 0 1.1 1 2.1 2.1 2.1h.1c5.9-.1 10.5-.3 14.3-.5l.6 30.4c0 1.2 1 2.1 2.1 2.1 1.2 0 2.1-1 2.1-2.2l-.6-30.5c8.8-.4 10.6-.9 11.4-1.3 1-.5 1.5-1.9.9-2.9-.5-1-1.7-1.4-2.8-.9z"/><path id="XMLID_118_" class="st15" d="M358.7 456.9c-1.1.3-1.8 1.5-1.5 2.6 1.9 7.1 1.9 14.8-.2 21.8-1 3.4-2.2 5.8-3.9 7.4-1.9 1.8-4.5 2.4-6.4 1.6-.7-.3-1.4-.9-2.3-1.7-2.9-3-4.8-7.3-6-13.7-.7-4.2-.5-7.8.5-15.9.1-1.2-.7-2.2-1.8-2.4-1.2-.1-2.2.7-2.4 1.8-1 7.9-1.3 12.1-.4 17.1 1.3 7.3 3.6 12.3 7.1 15.9 1.2 1.2 2.3 2.1 3.6 2.6 1.1.5 2.3.7 3.5.7 2.6 0 5.4-1.1 7.5-3.1 2.3-2.1 3.9-5.1 5.1-9.3 2.3-7.9 2.3-16.2.2-24.1-.3-.9-1.5-1.6-2.6-1.3z"/><path id="XMLID_117_" class="st15" d="M439.3 479.8c-4.7 1.8-9.6 2.9-14.6 3.4-.1 0-.5 0-.4.1-.1-.1-.2-.3-.3-.9-1.1-3.6-2-7.4-2.8-11.1 4.5-1.1 9-2.5 13.3-4.2 1.1-.4 1.6-1.7 1.2-2.8-.4-1.1-1.7-1.6-2.8-1.2-4.1 1.6-8.3 2.9-12.5 4-.8-4.4-1.4-8.8-1.9-13.2 5.3-2.3 10.2-3.1 14.9-2.4 1.2.2 2.2-.6 2.4-1.8.2-1.2-.6-2.2-1.8-2.4-5.9-.9-12.2.2-18.7 3.3l-1.3.6.1 1.5c.9 10.4 2.8 20.8 5.8 30.8.2.8.8 2.6 2.4 3.4.7.3 1.4.4 1.9.4h.8c5.4-.5 10.7-1.7 15.7-3.6 1.1-.4 1.6-1.6 1.2-2.7-.2-1.1-1.5-1.7-2.6-1.2z"/><path class="st15" d="M396.9 477.4c6.8-4 6.5-7.8 6.1-11.4 0-.4-.1-.8-.1-1.3-.2-2.4-2.2-7-3.7-8.7-2.1-2.6-5.9-4-10.2-3.8-3.1.1-6.2 1-9 2.5l-.4.3s-1.9 1.8-1.2 3.5c.1 7.4.2 15 1.5 22.5.2 1.2.4 2.4.7 3.6.6 3.1 1.1 6.1 1.2 9.1 0 1.1 1 2.1 2.1 2.1h.1c1.2 0 2.1-1 2.1-2.2-.1-3.3-.7-6.6-1.3-9.7-.2-1.2-.4-2.3-.6-3.5 2.5.1 5-.2 7.3-.8 6.2 2.5 11.7 7 15.4 12.7.4.6 1.1 1 1.8 1 .4 0 .8-.1 1.2-.3 1-.6 1.3-2 .6-2.9-3.4-5.4-8.1-9.7-13.6-12.7zm-13.3-1.3c-.7-5.9-.8-12-.8-17.9 2.1-1 4.3-1.6 6.6-1.7 1.4-.1 4.9 0 6.7 2.2 1 1.2 2.6 5 2.7 6.3 0 .5.1.9.1 1.4.3 3.3.5 4.8-4.2 7.5-2.9 1.6-7.3 2.4-11.1 2.2z"/><g><path id="XMLID_114_" class="st5" d="M213.9 156.3s0-.1-.1-.1c.3-1.1-.3-2.2-1.4-2.6-1.1-.4-2.3.3-2.7 1.4-.1.4-.4.9-.7 1.1-.3.1-.6.1-.8 0 0-.1-.1-.2-.1-.3 0-.1 0-.4-.1-.6-.1-.9-.1-2.6-1.7-3.4-1.5-.8-2.8.3-4.1 1.3-.2.1-.3.2-.4.4v-.5c0-.9 0-2.2-1-3.2-1.5-1.4-3.3-.4-4.3.2-.1.1-.3.2-.5.3.1-.2.2-.3.4-.5l.3-.4c1-1.1 1.8-2.1 3.8-2.3 4.4-.6 8.4.2 10.7 2.1.7.5 1.3 1.2 2 2.3.5.7 1 1.5 1.1 2.3.2.7-.1 1.6-.4 2.5z"/></g><g><path id="XMLID_113_" class="st5" d="M304 376.8c-1.1-.4-2.3.2-2.7 1.3l-.3.9c-.3 1-1.2 3.9-1.7 4.5-1 .9-1.6 1.2-1.9 1.3-.1-.2-.1-.6 0-1.1v-.4c.6-.8 1.1-1.6 1.6-2.5l.8-1.3c.6-1 .3-2.3-.6-2.9-1-.6-2.3-.3-2.9.6l-.9 1.4c-1.6 2.7-2.5 4-4.2 4.5-.1 0-.2 0-.3-.1 0-.1.1-.3.2-.6.6-2 1.6-3.8 2.9-5.5.7-.9.5-2.3-.4-3-.9-.7-2.3-.5-3 .4-1.4 1.9-2.5 4-3.3 6.2-.1.1-.2.1-.3.2-.3.3-.6.4-.7.5.7-3 2.9-5.8 4.8-8.2.7-.9.6-2.3-.4-3-.9-.7-2.3-.6-3 .4-.3.4-.6.7-.9 1.1l-.2-.2c0-.6.7-1.4 1.5-1.9.4-.2 1-.4 1.5-.6.3-.1.6-.2.8-.3 4.2 2.7 9 4.5 14 5.2.2 0 .5.1.8.1.7 3.2.9 5.6.5 7.2-.2.9-.6 1.9-1.2 2.1-.2-.1-.4-.2-.5-.3.2-.7.5-1.5.8-2.5l.3-.8c.6-1.1 0-2.3-1.1-2.7z"/></g><g><path id="XMLID_112_" class="st0" d="M410.6 222.7c-3.2 4.6-6.9 7.5-13.7 10.8-1 .5-5 1.4-6.9 1.5-2.9-6.2-5.9-11.7-10.3-14.3-9.5-5.7-19.6-.1-23.4 2.6-5.5 3.8-9.5 9.4-13 14.4l-4.4 6.2-7.5 10.5c-4.8-1.2-10.2-1.5-17.2-1.1-1.6.1-3.1.2-4.3-.2-.9-.3-1.7-1.2-1.6-1.8.1-.8 1.3-1.7 2.5-2.5 1.8-1.2 4.3-2.9 4.3-6-.1-2.2-1.6-4.2-4-5.3-2.9-1.3-5.9-1.3-8.8-1.2-1.5 0-3 .1-4.4-.1-1.3-.2-2.6-.5-3.8-1.1 0-.1 0-.2.1-.3.2-2.2-.5-4.5-2-6.8-2-3.2-5.5-5.2-7.7-6.2 1.9-1.9 3-4 3.7-5.6 1.5-3.3 1.7-6.6.5-9.6-.7-1.9-2.3-3.9-3.5-5.1-2-2-4.9-3.1-8.5-3.1-.2-.2-.5-.4-.8-.5-.3-.3-.6-2.1 1-5 3.2-5.7 8.7-9.7 15.9-11.5 8.6-2.2 14 .1 16.2 3 .6.8 1.2 1.9 1.1 2.8-.2 1-1.4 2-2.5 2.7-.6.4-1.1.8-1.4 1.2-2.5 2.5-3.5 5.3-2.9 7.9.9 3.5 4.6 5.4 7.8 5.5 2.6 0 4.8-.8 7-1.6l.9-.3c6.3-2.2 13.2-3.2 19.8-2.9 1.1 0 3.7.4 4.9 2.5 1 1.8.8 2.2.1 3.3-.5.8-1.1 1.8-1.2 3.3-.2 2.4.8 4 1.7 4.8 2 2.1 5 2.2 6.2 2.1 10.1-.4 20.9-2.9 29.5-6.8.9-.4 1.8-.8 2.7-1.3 1.4-.7 2.7-1.4 4.1-1.9 2.6-1 5.7-1.4 8.8-1.5 3.3 0 9.5.7 13.6 5 3.3 3.1 3.9 9.8 1.4 13.5z"/></g><g><path id="XMLID_111_" class="st0" d="M128.8 263.1c-1.4-.6-2.8-.6-3.9-.6l-18.3-.1c-1.9 0-4 0-5.5-.8-2.4-1.3-3.2-4.5-2.8-7 .4-2.6 1.9-5.2 4.6-8 1.8-1.9 3.5-3.2 5.2-4 1.2-.6 2.6-1 4-1.4l2.1-.6c3.7-1.2 7.2-3 10.2-5.5 1-.8 2-1.7 2.3-3.2.6-2.6-1.4-4.7-3.4-5.6-1.4-.6-2.8-.8-4.1-1-1.2-.2-2.4-.3-3.3-.8-1.1-.6-1.9-2-1.9-3.2v-1c-.1-2.6-.3-6.4 5.8-8.8 14.3-5.6 65.4-4 68.2-3.5 1.5.5 2.6 1.7 2.9 2.8.4 1.9-1.1 3.8-1.8 4.6-2.2 2.4-5.2 4.1-8.4 5.8-3.5 1.9-7.1 3.9-9.8 7.1-1.9 2.3-2.7 4.6-2.2 6.8.5 2.4 2.6 5.3 9.4 5.9l2.6.2c6.6.6 13.5 1.1 19.4 4 5.1 2.4 6.9 5 9.3 10.3 1 2.2.4 8.9-2.8 11.7-2 1.7-7 3.9-11.9 5.2l-.6.3c-2.7-1.3-5.6-2.3-8.5-2.7-7.6-1-15.6 1.2-21.5 6.1-3 2.5-5.3 5.4-7.6 8.3-1 1.3-2.1 2.7-3.2 4.1l-10.6.3c-4.5.1-9.1.3-13.2-1.1-3.6-1.1-7.2-4.2-6.8-7.7.3-2.4 2.3-4.4 4.5-6.5 1-.9 2-1.9 2.9-2.9.7-.8 1.4-1.8 1.5-3.2.3-1.7-.9-3.5-2.8-4.3z"/></g><g><path id="XMLID_110_" class="st16" d="M304.1 445l3.4-7.1c.6-1.2 1.1-2.4 1.5-3.7.3-1 .4-2.1.5-3.2.1-1.5-.1-3-.4-4.5l.6-.6c3.8-4.4 8.3-8.1 13.4-10.9.2-.1.2-.2.4-.3 2.5 1.1 5 2.4 7.4 3.8.4.3 1.3.7 1.4 1.2.1.3 0 1-.4 1.5-.5.6-1.2 1.2-1.9 1.8l-.5.4c-4.1 3.3-7.4 7.5-10.5 11.6-1.2 1.5-2.3 3-3.6 4.5-1.4 1.7-5.2 5-6.3 5.8-1.5-.1-3.3-.1-5-.3z"/></g><g><path id="XMLID_109_" class="st16" d="M423.8 346.7c-.3.3-1.5.3-2 .1-7.6-4.8-15.2-10-22.5-15.3-.1-.1-.2-.1-.3-.1-.3-.9-.8-1.6-1.2-2.1-.5-.6-1.4-1.5-2.4-2.6-.8-.8-1.7-1.8-2.7-2.8 0 0-2-1.9-4.4-3.6l2.8-3.2c.9-1.1 1.7-1.9 2.6-2.2 1-.3 2.3.2 3.4 1.2.9.9 1.7 2.1 2.5 3.3l.7 1.2c1.9 2.9 4.3 5.5 6.9 7.6.7.6 1.4 1.1 2.2 1.7.9.7 1.7 1.3 2.5 2 1.8 1.5 3.4 3.4 4.9 5.2l2.1 2.4c2.6 2.5 5.4 5.6 4.9 7.2z"/></g><g><path id="XMLID_108_" class="st10" d="M276.4 202.5c1.9 0 4.4.3 5.9 1.9 1.1 1.1 2.1 2.6 2.5 3.6.9 2.5.3 4.8-.4 6.4-.7 1.6-1.8 3.6-3.8 5.3-.9.7-1.3 1.8-1.1 2.8.2 1.2 1.1 2.3 2.4 2.8 3 1.2 5.5 3.1 6.8 5 .7 1 1.5 2.6 1.4 4.2-.1 1.2-.8 2.4-1.8 2.7-.8.3-1.9.1-3.3-.2-2.2-.5-7.5-2.7-16-7.5-2.8-1.6-5.3-3.6-8-5.7-1.4-1.1-2.7-2.2-4.1-3.2-1.9-1.4-3.9-2.9-5.4-4.6l-.2-.3c-1.4-1.6-1.8-2.4-1.9-2.8 1.6-.8 4.6.6 7.1 3.1.6.6 1.5 1.5 2.8 1.5 2.4 0 3.2-2.8 3.8-4.9.7-2.4 2.8-4.4 5-6.3l.5-.5c1-1 2-1.8 3-2.4 1.2-.6 2.8-.9 4.8-.9z"/></g><g><path id="XMLID_107_" class="st14" d="M132.4 131.9c-1.1.4-2.2.7-3.2.9-1.8.4-3.7-.4-6.1-2.4-2.6-2.1-5.3-.6-7.6.5-1.7.9-3.5 1.8-5.5 1.9-.8 0-3.6-1-4.2-1.4-.1-.1-.2-.4-.2-.6-.2-.6-.5-1.5-1.1-2.3-1.9-2.1-4.4-.9-6-.2-.4.2-.9.4-1.3.5-1.1.3-2.7.6-3.8.1-.4-.2-.7-.6-.9-1 0-.1-.1-.3 0-.4.5-.9.5-2 .1-3-.5-1.2-1.4-2.1-2.6-2.6-1.6-.6-3.3-.3-4.4-.1l-6.8 1.3c-.7.1-1.5.3-2.1.2-.6-.1-1.2-.6-1.3-1.2-.2-.6.1-1.3.5-1.7.7-.6 1-1.4 1-2.3 0-1-.4-2-1.2-2.7-1-.9-2.2-1.1-3-1.2l-3.9-.6c-.1 0-.4-.4-.4-.8 0-.8.5-1.6 1.1-2.4.5-.6 1.1-1.4 1.3-2.6.2-1-.2-2.2-.9-3-.6-.7-1.5-1.1-2.5-1-.4 0-.9.1-1.3.1-1.2.1-4.5.4-5.1 0 .1-.3.9-1.1 5-2.5 8.1-2.7 16.9-2.2 26-1.4 9 .8 17.9 2.9 26.6 5 2 .5 4 .9 5.8 1.7 2.8 1.1 5.6 2.9 8.7 5.6h.1c.3 1.3.6 2.7.8 4.2l.1.4c.6 4.6 1.5 9.1 2.4 13.7-1.5.5-2.8.9-4.1 1.3z"/></g><g><path id="XMLID_106_" class="st17" d="M423.7 301.6c0 11.1-1.1 22.2-3.1 33l-.3-.3c-1.6-1.9-3.3-3.9-5.3-5.6-.9-.8-1.8-1.5-2.8-2.2-.7-.5-1.4-1-2-1.6-2.4-1.9-4.4-4.2-6.1-6.7l-.7-1.1c-.9-1.4-1.8-2.9-3.2-4.1-2.2-2.1-5.1-2.9-7.5-2.2-2.1.6-3.5 2.2-4.6 3.4l-3.3 3.8c-.7-.3-1.3-.5-1.8-.5-1.8 0-32.4 16-41.9 22.2-.7.5-1.6 1-2.2 1-.8 0-1.7-1-2.6-1.9-3.8-3.7-8.1-6.8-12.7-9.3 1.7-13.4 1-26.6-2.1-38.7-.8-3.1-2.7-8.5-7-15 5.1-1.3 9.2-4.8 12.9-8.9h.4c5.2-.5 9.2-4.1 12.6-7.2.7-.7 1.4-1.3 2.1-1.9 0 .2-.1.5-.1.7-.4 2.3-.8 4.9-.7 7.3.1 1.4.9 2.6 2.2 3.1 1.3.5 2.7.2 3.7-.8l6-6.3c.5-.5.9-1.1 1.4-1.8.2-.4.6-.9.9-1.2.5.9 1.1 2.4 1.5 3.6 1.9 4.8 4.2 10.9 9.1 12.2 2.1.6 3.9-1.2 10.1-8.4.9-1 2-2.3 2.8-3.2.1.3.1.7.2 1 .1.7.2 1.3.4 1.9 1.1 3.8 3 7.4 5.2 9.7 2.1 2.2 3.9 3.2 5.5 3.9.2.1.5.2.8.2 2.9 0 7.7-5.6 10.3-9.1 4 8.2 8.5 16.2 13 20.5l2.1 2.1c4.2 4.1 4.3 4.2 5.8 4.8.3.1.6.2 1.1.4-.2 1-.1 2.1-.1 3.2z"/></g><g><path id="XMLID_105_" class="st17" d="M398.2 393.5l-2.1-.4c-7.3-1.3-17.3-3.1-21.4-7.9-1.6-1.9-2.7-4.3-3.8-6.8-.6-1.4-1.3-2.9-2-4.2-2.3-4.1-5.4-6.9-8.7-7.9.5-.5 1-1 1.5-1.4.6-.5 1.1-1.1 1.7-1.6 5.1-4.8 10.9-9 16.6-13 6.1-4.4 12.4-8.9 17.9-14.3h.1l.3-.3c6.3 4.6 12.8 9 19.3 13.2-4.5 15.8-10.9 30.7-19.4 44.6z"/></g><g><path id="XMLID_104_" class="st17" d="M289.7 290.3c1.9 2.2 3.7 4.6 5.5 7.4 1.2 1.9 2.5 3.9 3.4 6 1 2.4 1.7 5.2 2.1 8.5-.2-.2-.4-.5-.6-.7-2-2.3-4.5-3.8-7-4.3-2.5-4.2-4.2-10.7-3.4-16.9z"/></g><g><path id="XMLID_103_" class="st17" d="M244 303c.8-.5 1.6-1.2 2.3-2 .2.4.5.7.7 1.1 1.4 2.3 1.3 8.3.7 11.9-.4.3-.6.7-.7 1.2-.6 3.1-.5 6.1.1 9.1-7.5-.8-15-4.2-21.4-9.8-1.7-1.5-3.3-3.1-4.8-4.8h.1c3.9 0 8.5-.3 13-1.7 3.6-1.1 7-2.8 10-5z"/></g><g><path id="XMLID_102_" class="st4" d="M287 362.3c-.1.6-.4 1.8.1 3-.3.1-.6.3-.9.4-2.1 1.1-3.5 3.1-3.7 5.2v-.4c-.3-6.9-.4-22.4-.4-27.8v-.6c.1.1.2.1.4.2.7.3 1.4.8 2.1 1.3.9.6 1.7 1.2 2.8 1.6l5.5 2.4c-2.3 4.5-4.7 9.4-5.9 14.7z"/></g><g><path id="XMLID_101_" class="st12" d="M292.7 239c1.5.7 3.1 1.1 4.8 1.4 1.7.2 3.3.2 5 .2 2.5 0 4.9-.1 7 .8.9.4 1.6 1.1 1.6 1.6 0 .7-.9 1.4-2.4 2.4-1.8 1.2-4 2.7-4.4 5.4-.4 3 1.9 5.4 4.3 6.3 2.1.7 4.2.6 6.3.4 5.5-.4 9.9-.2 13.9.6-4.9 6.7-10.1 13-17.1 13.9-4.5-5.9-11-12.3-20.4-18.6-2.6-1.7-5.3-2.9-8-4.1-1.5-.6-2.8-1.3-4.2-2 .2-.3.4-.7.6-1l3.3-5.5c.4.1.9.2 1.2.3 1.1.2 2.1.4 3.2.4.9 0 1.6-.1 2.4-.4 1.1-.3 2.1-1.1 2.9-2.1z"/></g><g><path class="st16" d="M67.9 583.1h1.9v13.2h6.3v1.6h-8.3v-14.8zM87.5 592.5c0 3.9-2.7 5.7-5.3 5.7-2.9 0-5.1-2.1-5.1-5.5 0-3.6 2.3-5.7 5.3-5.7 3.1.1 5.1 2.3 5.1 5.5zm-8.4.1c0 2.3 1.3 4.1 3.2 4.1 1.9 0 3.2-1.7 3.2-4.1 0-1.8-.9-4.1-3.2-4.1-2.2 0-3.2 2.1-3.2 4.1zM90 590.6c0-1.3 0-2.3-.1-3.3h1.7l.1 2.1h.1c.5-1.4 1.6-2.3 2.9-2.3.2 0 .4 0 .5.1v1.8c-.2 0-.4-.1-.7-.1-1.4 0-2.3 1-2.6 2.5 0 .3-.1.6-.1.9v5.7H90v-7.4zM98 593c0 2.6 1.7 3.7 3.7 3.7 1.4 0 2.2-.2 2.9-.5l.3 1.4c-.7.3-1.9.7-3.5.7-3.3 0-5.2-2.2-5.2-5.4s1.9-5.7 5-5.7c3.5 0 4.4 3.1 4.4 5 0 .4 0 .7-.1.9H98zm5.7-1.4c0-1.2-.5-3.1-2.7-3.1-2 0-2.8 1.8-3 3.1h5.7zM107.9 590.2c0-1.1 0-2-.1-2.9h1.7l.1 1.7h.1c.6-1 1.6-2 3.3-2 1.5 0 2.6.9 3 2.1.3-.6.7-1.1 1.2-1.4.6-.5 1.3-.7 2.4-.7 1.4 0 3.5.9 3.5 4.6v6.3h-1.9v-6c0-2-.7-3.3-2.3-3.3-1.1 0-2 .8-2.3 1.8-.1.3-.2.6-.2 1v6.6h-1.9v-6.4c0-1.7-.7-2.9-2.2-2.9-1.2 0-2.1 1-2.4 1.9-.1.3-.2.6-.2.9v6.4h-1.9v-7.7zM133.1 584.3c0 .7-.5 1.2-1.2 1.2s-1.2-.5-1.2-1.2.5-1.2 1.2-1.2c.8 0 1.2.5 1.2 1.2zM131 598v-10.7h1.9V598H131zM136.1 590.8c0-1.4 0-2.5-.1-3.5h1.7l.1 1.8c.8-1.3 2-2.1 3.8-2.1 2.6 0 4.5 2.2 4.5 5.4 0 3.8-2.3 5.7-4.8 5.7-1.4 0-2.6-.6-3.3-1.7v5.8h-1.9v-11.4zm1.9 2.8c0 .3 0 .6.1.8.4 1.3 1.5 2.3 2.9 2.3 2 0 3.2-1.7 3.2-4.1 0-2.1-1.1-4-3.2-4-1.3 0-2.6.9-2.9 2.4-.1.2-.1.5-.1.8v1.8zM148.4 596c.6.4 1.6.8 2.6.8 1.4 0 2.1-.7 2.1-1.6 0-.9-.5-1.4-2-2-1.9-.7-2.8-1.7-2.8-3 0-1.7 1.4-3.1 3.7-3.1 1.1 0 2 .3 2.6.7l-.5 1.4c-.4-.3-1.2-.6-2.2-.6-1.1 0-1.8.7-1.8 1.5 0 .9.6 1.3 2 1.8 1.8.7 2.8 1.6 2.8 3.2 0 1.9-1.4 3.2-4 3.2-1.2 0-2.2-.3-3-.7l.5-1.6zM166.3 595c0 1.1 0 2.1.1 2.9h-1.7l-.1-1.7c-.5.9-1.6 2-3.5 2-1.7 0-3.7-.9-3.7-4.7v-6.2h1.9v5.9c0 2 .6 3.4 2.4 3.4 1.3 0 2.2-.9 2.6-1.8.1-.3.2-.6.2-1v-6.5h1.9v7.7zM169.5 590.2c0-1.1 0-2-.1-2.9h1.7l.1 1.7h.1c.6-1 1.6-2 3.3-2 1.5 0 2.6.9 3 2.1.3-.6.7-1.1 1.2-1.4.6-.5 1.3-.7 2.4-.7 1.4 0 3.5.9 3.5 4.6v6.3h-1.9v-6c0-2-.7-3.3-2.3-3.3-1.1 0-2 .8-2.3 1.8-.1.3-.2.6-.2 1v6.6h-1.9v-6.4c0-1.7-.7-2.9-2.2-2.9-1.2 0-2.1 1-2.4 1.9-.1.3-.2.6-.2.9v6.4h-1.9v-7.7zM201.7 582.3v12.9c0 .9 0 2 .1 2.8H200l-.1-1.8c-.6 1.2-1.9 2.1-3.6 2.1-2.6 0-4.6-2.2-4.6-5.4 0-3.5 2.2-5.7 4.8-5.7 1.6 0 2.7.8 3.2 1.6v-6.4h2zm-2 9.3c0-.2 0-.6-.1-.8-.3-1.2-1.3-2.2-2.8-2.2-2 0-3.2 1.8-3.2 4.1 0 2.2 1.1 3.9 3.1 3.9 1.3 0 2.5-.9 2.8-2.3.1-.3.1-.5.1-.8v-1.9zM214.5 592.5c0 3.9-2.7 5.7-5.3 5.7-2.9 0-5.1-2.1-5.1-5.5 0-3.6 2.3-5.7 5.3-5.7 3.1.1 5.1 2.3 5.1 5.5zm-8.4.1c0 2.3 1.3 4.1 3.2 4.1 1.9 0 3.2-1.7 3.2-4.1 0-1.8-.9-4.1-3.2-4.1-2.2 0-3.2 2.1-3.2 4.1zM217 582.3h1.9V598H217v-15.7zM231.8 592.5c0 3.9-2.7 5.7-5.3 5.7-2.9 0-5.1-2.1-5.1-5.5 0-3.6 2.3-5.7 5.3-5.7 3 .1 5.1 2.3 5.1 5.5zm-8.5.1c0 2.3 1.3 4.1 3.2 4.1 1.8 0 3.2-1.7 3.2-4.1 0-1.8-.9-4.1-3.2-4.1-2.2 0-3.2 2.1-3.2 4.1zM234.2 590.6c0-1.3 0-2.3-.1-3.3h1.7l.1 2.1h.1c.5-1.4 1.7-2.3 2.9-2.3.2 0 .4 0 .5.1v1.8c-.2 0-.4-.1-.7-.1-1.4 0-2.3 1-2.6 2.5 0 .3-.1.6-.1.9v5.7h-1.9v-7.4zM245.8 596c.6.4 1.6.8 2.6.8 1.4 0 2.1-.7 2.1-1.6 0-.9-.5-1.4-2-2-1.9-.7-2.8-1.7-2.8-3 0-1.7 1.4-3.1 3.7-3.1 1.1 0 2 .3 2.6.7l-.5 1.4c-.4-.3-1.2-.6-2.2-.6-1.1 0-1.8.7-1.8 1.5 0 .9.6 1.3 2 1.8 1.8.7 2.8 1.6 2.8 3.2 0 1.9-1.4 3.2-4 3.2-1.2 0-2.2-.3-3-.7l.5-1.6zM257 584.3c0 .7-.5 1.2-1.2 1.2s-1.2-.5-1.2-1.2.5-1.2 1.2-1.2 1.2.5 1.2 1.2zm-2.2 13.7v-10.7h1.9V598h-1.9zM262.3 584.2v3.1h2.8v1.5h-2.8v5.7c0 1.3.4 2.1 1.5 2.1.5 0 .9-.1 1.1-.1l.1 1.5c-.4.2-1 .3-1.7.3-.9 0-1.6-.3-2.1-.8-.5-.6-.7-1.5-.7-2.8v-5.8h-1.7v-1.5h1.7v-2.6l1.8-.6zM277.8 598l-.2-1.3h-.1c-.6.8-1.7 1.6-3.3 1.6-2.2 0-3.3-1.5-3.3-3.1 0-2.6 2.3-4 6.4-4v-.2c0-.9-.2-2.5-2.4-2.5-1 0-2 .3-2.8.8l-.4-1.3c.9-.6 2.2-.9 3.5-.9 3.3 0 4 2.2 4 4.4v4c0 .9 0 1.8.2 2.6h-1.6zm-.3-5.5c-2.1 0-4.5.3-4.5 2.4 0 1.2.8 1.8 1.8 1.8 1.4 0 2.3-.9 2.6-1.8.1-.2.1-.4.1-.6v-1.8zM282.5 590.2c0-1.1 0-2-.1-2.9h1.7l.1 1.7h.1c.6-1 1.6-2 3.3-2 1.5 0 2.6.9 3 2.1.3-.6.7-1.1 1.2-1.4.6-.5 1.3-.7 2.4-.7 1.4 0 3.5.9 3.5 4.6v6.3h-1.9v-6c0-2-.7-3.3-2.3-3.3-1.1 0-2 .8-2.3 1.8-.1.3-.2.6-.2 1v6.6h-1.9v-6.4c0-1.7-.7-2.9-2.2-2.9-1.2 0-2.1 1-2.4 1.9-.1.3-.2.6-.2.9v6.4h-1.9v-7.7zM301.9 593c0 2.6 1.7 3.7 3.7 3.7 1.4 0 2.2-.2 2.9-.5l.3 1.4c-.7.3-1.8.7-3.5.7-3.3 0-5.2-2.2-5.2-5.4s1.9-5.7 5-5.7c3.5 0 4.4 3.1 4.4 5 0 .4 0 .7-.1.9h-7.5zm5.7-1.4c0-1.2-.5-3.1-2.7-3.1-2 0-2.8 1.8-3 3.1h5.7zM314.2 584.2v3.1h2.8v1.5h-2.8v5.7c0 1.3.4 2.1 1.5 2.1.5 0 .9-.1 1.1-.1l.1 1.5c-.4.2-1 .3-1.7.3-.9 0-1.6-.3-2.1-.8-.5-.6-.7-1.5-.7-2.8v-5.8h-1.7v-1.5h1.7v-2.6l1.8-.6zM317.8 600.7c.5-1.3 1.1-3.7 1.3-5.3l2.2-.2c-.5 1.9-1.5 4.3-2.1 5.3l-1.4.2zM335.9 597.6c-.5.3-1.6.6-3.1.6-3.2 0-5.3-2.2-5.3-5.4 0-3.3 2.2-5.7 5.7-5.7 1.1 0 2.2.3 2.7.6l-.4 1.5c-.5-.3-1.2-.5-2.2-.5-2.4 0-3.8 1.8-3.8 4 0 2.5 1.6 4 3.7 4 1.1 0 1.8-.3 2.4-.5l.3 1.4zM347.7 592.5c0 3.9-2.7 5.7-5.3 5.7-2.9 0-5.1-2.1-5.1-5.5 0-3.6 2.3-5.7 5.3-5.7 3 .1 5.1 2.3 5.1 5.5zm-8.5.1c0 2.3 1.3 4.1 3.2 4.1 1.9 0 3.2-1.7 3.2-4.1 0-1.8-.9-4.1-3.2-4.1-2.2 0-3.2 2.1-3.2 4.1zM350.1 590.2c0-1.1 0-2-.1-2.9h1.7l.1 1.8c.5-1 1.8-2 3.5-2 1.5 0 3.8.9 3.8 4.5v6.4h-1.9v-6.1c0-1.7-.6-3.1-2.5-3.1-1.3 0-2.3.9-2.6 2-.1.2-.1.6-.1.9v6.4h-1.9v-7.9zM362 596c.6.4 1.6.8 2.6.8 1.4 0 2.1-.7 2.1-1.6 0-.9-.5-1.4-2-2-1.9-.7-2.8-1.7-2.8-3 0-1.7 1.4-3.1 3.7-3.1 1.1 0 2 .3 2.6.7l-.5 1.4c-.4-.3-1.2-.6-2.2-.6-1.1 0-1.8.7-1.8 1.5 0 .9.6 1.3 2 1.8 1.8.7 2.8 1.6 2.8 3.2 0 1.9-1.5 3.2-4 3.2-1.2 0-2.2-.3-3-.7l.5-1.6zM372.1 593c0 2.6 1.7 3.7 3.6 3.7 1.4 0 2.2-.2 3-.5l.3 1.4c-.7.3-1.9.7-3.5.7-3.3 0-5.2-2.2-5.2-5.4s1.9-5.7 5-5.7c3.5 0 4.4 3.1 4.4 5 0 .4 0 .7-.1.9h-7.5zm5.7-1.4c0-1.2-.5-3.1-2.7-3.1-2 0-2.8 1.8-3 3.1h5.7zM389.6 597.6c-.5.3-1.6.6-3.1.6-3.2 0-5.3-2.2-5.3-5.4 0-3.3 2.2-5.7 5.7-5.7 1.1 0 2.2.3 2.7.6l-.4 1.5c-.5-.3-1.2-.5-2.2-.5-2.4 0-3.8 1.8-3.8 4 0 2.5 1.6 4 3.7 4 1.1 0 1.8-.3 2.4-.5l.3 1.4zM394.5 584.2v3.1h2.8v1.5h-2.8v5.7c0 1.3.4 2.1 1.4 2.1.5 0 .9-.1 1.1-.1l.1 1.5c-.4.2-1 .3-1.7.3-.9 0-1.6-.3-2.1-.8-.5-.6-.7-1.5-.7-2.8v-5.8H391v-1.5h1.7v-2.6l1.8-.6zM400.4 593c0 2.6 1.7 3.7 3.6 3.7 1.4 0 2.2-.2 3-.5l.3 1.4c-.7.3-1.9.7-3.5.7-3.3 0-5.2-2.2-5.2-5.4s1.9-5.7 5-5.7c3.5 0 4.4 3.1 4.4 5 0 .4 0 .7-.1.9h-7.5zm5.7-1.4c0-1.2-.5-3.1-2.7-3.1-2 0-2.8 1.8-3 3.1h5.7zM412.7 584.2v3.1h2.8v1.5h-2.8v5.7c0 1.3.4 2.1 1.5 2.1.5 0 .9-.1 1.1-.1l.1 1.5c-.4.2-1 .3-1.7.3-.9 0-1.6-.3-2.1-.8-.6-.6-.7-1.5-.7-2.8v-5.8h-1.7v-1.5h1.7v-2.6l1.8-.6zM426.5 595c0 1.1 0 2.1.1 2.9h-1.7l-.1-1.7c-.5.9-1.6 2-3.5 2-1.7 0-3.7-.9-3.7-4.7v-6.2h1.9v5.9c0 2 .6 3.4 2.4 3.4 1.3 0 2.2-.9 2.6-1.8.1-.3.2-.6.2-1v-6.5h1.9v7.7zM429.8 590.6c0-1.3 0-2.3-.1-3.3h1.7l.1 2.1h.1c.5-1.4 1.7-2.3 3-2.3.2 0 .4 0 .5.1v1.8c-.2 0-.4-.1-.7-.1-1.4 0-2.3 1-2.6 2.5 0 .3-.1.6-.1.9v5.7h-1.9v-7.4zM73.7 624.4l-.2-1.3h-.1c-.6.8-1.7 1.6-3.3 1.6-2.2 0-3.3-1.5-3.3-3.1 0-2.6 2.3-4 6.4-4v-.2c0-.9-.2-2.5-2.4-2.5-1 0-2 .3-2.8.8l-.4-1.3c.9-.6 2.2-.9 3.5-.9 3.3 0 4.1 2.2 4.1 4.4v4c0 .9 0 1.8.2 2.6h-1.7zm-.3-5.5c-2.1 0-4.5.3-4.5 2.4 0 1.2.8 1.8 1.8 1.8 1.4 0 2.3-.9 2.6-1.8.1-.2.1-.4.1-.6v-1.8zM87.6 608.7v12.9c0 .9 0 2 .1 2.8H86l-.1-1.8c-.6 1.2-1.9 2.1-3.6 2.1-2.6 0-4.6-2.2-4.6-5.4 0-3.5 2.2-5.7 4.8-5.7 1.6 0 2.7.8 3.2 1.6v-6.4h1.9zm-1.9 9.3c0-.2 0-.6-.1-.8-.3-1.2-1.3-2.2-2.8-2.2-2 0-3.2 1.8-3.2 4.1 0 2.2 1.1 3.9 3.1 3.9 1.3 0 2.5-.9 2.8-2.3.1-.3.1-.5.1-.8V618zM93 610.7c0 .7-.5 1.2-1.2 1.2s-1.2-.5-1.2-1.2.5-1.2 1.2-1.2 1.2.5 1.2 1.2zm-2.2 13.7v-10.7h1.9v10.7h-1.9zM96 617.2c0-1.4 0-2.5-.1-3.5h1.7l.1 1.8c.8-1.3 2-2.1 3.8-2.1 2.6 0 4.5 2.2 4.5 5.4 0 3.8-2.3 5.7-4.8 5.7-1.4 0-2.6-.6-3.3-1.7v5.8H96v-11.4zm1.9 2.8c0 .3 0 .6.1.8.4 1.3 1.5 2.3 2.9 2.3 2 0 3.2-1.7 3.2-4.1 0-2.1-1.1-4-3.2-4-1.3 0-2.6.9-2.9 2.4-.1.2-.1.5-.1.8v1.8zM110.6 610.7c0 .7-.5 1.2-1.2 1.2s-1.2-.5-1.2-1.2.5-1.2 1.2-1.2c.8 0 1.2.5 1.2 1.2zm-2.1 13.7v-10.7h1.9v10.7h-1.9zM113.4 622.4c.6.4 1.6.8 2.6.8 1.4 0 2.1-.7 2.1-1.6 0-.9-.5-1.4-2-2-1.9-.7-2.8-1.7-2.8-3 0-1.7 1.4-3.1 3.7-3.1 1.1 0 2 .3 2.6.7l-.5 1.4c-.4-.3-1.2-.6-2.2-.6-1.1 0-1.8.7-1.8 1.5 0 .9.6 1.3 2 1.8 1.9.7 2.8 1.6 2.8 3.2 0 1.9-1.4 3.2-4 3.2-1.2 0-2.2-.3-3-.7l.5-1.6zM129.9 624c-.5.3-1.6.6-3.1.6-3.2 0-5.3-2.2-5.3-5.4 0-3.3 2.2-5.7 5.7-5.7 1.1 0 2.2.3 2.7.6l-.4 1.5c-.5-.3-1.2-.5-2.2-.5-2.4 0-3.8 1.8-3.8 4 0 2.5 1.6 4 3.7 4 1.1 0 1.8-.3 2.4-.5l.3 1.4zM134.4 610.7c0 .7-.5 1.2-1.2 1.2s-1.2-.5-1.2-1.2.5-1.2 1.2-1.2 1.2.5 1.2 1.2zm-2.2 13.7v-10.7h1.9v10.7h-1.9zM137.3 616.6c0-1.1 0-2-.1-2.9h1.7l.1 1.8c.5-1 1.8-2 3.5-2 1.5 0 3.8.9 3.8 4.5v6.4h-1.9v-6.1c0-1.7-.6-3.1-2.5-3.1-1.3 0-2.3.9-2.6 2-.1.2-.1.6-.1.9v6.4h-1.9v-7.9zM158.7 613.7c0 .8-.1 1.6-.1 2.9v6.2c0 2.4-.5 3.9-1.5 4.9-1 1-2.5 1.3-3.9 1.3-1.3 0-2.7-.3-3.5-.9l.5-1.5c.7.4 1.8.8 3.1.8 2 0 3.4-1 3.4-3.7v-1.2c-.6 1-1.7 1.8-3.4 1.8-2.6 0-4.5-2.2-4.5-5.2 0-3.6 2.4-5.7 4.8-5.7 1.9 0 2.9 1 3.3 1.9l.1-1.6h1.7zm-2 4.2c0-.3 0-.6-.1-.9-.4-1.1-1.3-2-2.7-2-1.9 0-3.2 1.6-3.2 4 0 2.1 1.1 3.8 3.1 3.8 1.2 0 2.3-.7 2.7-2 .1-.3.2-.7.2-1v-1.9zM167.6 619.4c0 2.6 1.7 3.7 3.7 3.7 1.4 0 2.2-.2 2.9-.5l.3 1.4c-.7.3-1.9.7-3.5.7-3.3 0-5.2-2.2-5.2-5.4s1.9-5.7 5-5.7c3.5 0 4.4 3.1 4.4 5 0 .4 0 .7-.1.9h-7.5zm5.7-1.4c0-1.2-.5-3.1-2.7-3.1-2 0-2.8 1.8-3 3.1h5.7zM177.5 608.7h1.9v15.6h-1.9v-15.6zM184.9 610.7c0 .7-.5 1.2-1.2 1.2s-1.2-.5-1.2-1.2.5-1.2 1.2-1.2 1.2.5 1.2 1.2zm-2.2 13.7v-10.7h1.9v10.7h-1.9zM190.2 610.6v3.1h2.8v1.5h-2.8v5.7c0 1.3.4 2.1 1.5 2.1.5 0 .9-.1 1.1-.1l.1 1.5c-.4.2-1 .3-1.7.3-.9 0-1.6-.3-2.1-.8-.6-.6-.7-1.5-.7-2.8v-5.8h-1.7v-1.5h1.7v-2.6l1.8-.6zM193.8 627.1c.5-1.3 1.1-3.7 1.3-5.3l2.2-.2c-.5 1.9-1.5 4.3-2.1 5.3l-1.4.2zM204 622.4c.6.4 1.6.8 2.6.8 1.4 0 2.1-.7 2.1-1.6 0-.9-.5-1.4-2-2-1.9-.7-2.8-1.7-2.8-3 0-1.7 1.4-3.1 3.7-3.1 1.1 0 2 .3 2.6.7l-.5 1.4c-.4-.3-1.2-.6-2.2-.6-1.1 0-1.8.7-1.8 1.5 0 .9.6 1.3 2 1.8 1.9.7 2.8 1.6 2.8 3.2 0 1.9-1.5 3.2-4 3.2-1.2 0-2.2-.3-3-.7l.5-1.6zM214.1 619.4c0 2.6 1.7 3.7 3.7 3.7 1.4 0 2.2-.2 2.9-.5l.3 1.4c-.7.3-1.8.7-3.5.7-3.3 0-5.2-2.2-5.2-5.4s1.9-5.7 5-5.7c3.5 0 4.4 3.1 4.4 5 0 .4 0 .7-.1.9h-7.5zm5.7-1.4c0-1.2-.5-3.1-2.7-3.1-2 0-2.8 1.8-3 3.1h5.7zM233.2 608.7v12.9c0 .9 0 2 .1 2.8h-1.7l-.1-1.8c-.6 1.2-1.9 2.1-3.6 2.1-2.6 0-4.6-2.2-4.6-5.4 0-3.5 2.2-5.7 4.8-5.7 1.6 0 2.7.8 3.2 1.6v-6.4h1.9zm-1.9 9.3c0-.2 0-.6-.1-.8-.3-1.2-1.3-2.2-2.8-2.2-2 0-3.2 1.8-3.2 4.1 0 2.2 1.1 3.9 3.1 3.9 1.3 0 2.5-.9 2.8-2.3.1-.3.1-.5.1-.8V618zM250.3 608.7v12.9c0 .9 0 2 .1 2.8h-1.7l-.1-1.8c-.6 1.2-1.9 2.1-3.6 2.1-2.6 0-4.6-2.2-4.6-5.4 0-3.5 2.2-5.7 4.8-5.7 1.6 0 2.7.8 3.2 1.6v-6.4h1.9zm-1.9 9.3c0-.2 0-.6-.1-.8-.3-1.2-1.3-2.2-2.8-2.2-2 0-3.2 1.8-3.2 4.1 0 2.2 1.1 3.9 3.1 3.9 1.3 0 2.5-.9 2.8-2.3.1-.3.1-.5.1-.8V618zM263.2 618.9c0 3.9-2.7 5.7-5.3 5.7-2.9 0-5.1-2.1-5.1-5.5 0-3.6 2.3-5.7 5.3-5.7 3 .1 5.1 2.3 5.1 5.5zm-8.5.1c0 2.3 1.3 4.1 3.2 4.1 1.8 0 3.2-1.7 3.2-4.1 0-1.8-.9-4.1-3.2-4.1-2.2 0-3.2 2.1-3.2 4.1zM271.3 619.4c0 2.6 1.7 3.7 3.7 3.7 1.4 0 2.2-.2 2.9-.5l.3 1.4c-.7.3-1.8.7-3.5.7-3.3 0-5.2-2.2-5.2-5.4s1.9-5.7 5-5.7c3.5 0 4.4 3.1 4.4 5 0 .4 0 .7-.1.9h-7.5zm5.7-1.4c0-1.2-.5-3.1-2.7-3.1-2 0-2.8 1.8-3 3.1h5.7zM283.4 610.7c0 .7-.5 1.2-1.2 1.2s-1.2-.5-1.2-1.2.5-1.2 1.2-1.2c.8 0 1.2.5 1.2 1.2zm-2.1 13.7v-10.7h1.9v10.7h-1.9zM295.3 621.4c0 1.1 0 2.1.1 2.9h-1.7l-.1-1.7c-.5.9-1.6 2-3.5 2-1.7 0-3.7-.9-3.7-4.7v-6.2h1.9v5.9c0 2 .6 3.4 2.4 3.4 1.3 0 2.2-.9 2.6-1.8.1-.3.2-.6.2-1v-6.5h1.9v7.7zM298.3 622.4c.6.4 1.6.8 2.6.8 1.4 0 2.1-.7 2.1-1.6 0-.9-.5-1.4-2-2-1.9-.7-2.8-1.7-2.8-3 0-1.7 1.4-3.1 3.7-3.1 1.1 0 2 .3 2.6.7l-.5 1.4c-.4-.3-1.2-.6-2.2-.6-1.1 0-1.8.7-1.8 1.5 0 .9.6 1.3 2 1.8 1.8.7 2.8 1.6 2.8 3.2 0 1.9-1.5 3.2-4 3.2-1.2 0-2.2-.3-3-.7l.5-1.6zM307.3 616.6c0-1.1 0-2-.1-2.9h1.7l.1 1.7h.1c.6-1 1.6-2 3.3-2 1.5 0 2.6.9 3 2.1.3-.6.7-1.1 1.2-1.4.6-.5 1.3-.7 2.4-.7 1.4 0 3.5.9 3.5 4.6v6.3h-1.9v-6c0-2-.7-3.3-2.3-3.3-1.1 0-2 .8-2.3 1.8-.1.3-.2.6-.2 1v6.6h-1.9V618c0-1.7-.7-2.9-2.2-2.9-1.2 0-2.1 1-2.4 1.9-.1.3-.2.6-.2.9v6.4h-1.9v-7.7zM335.3 618.9c0 3.9-2.7 5.7-5.3 5.7-2.9 0-5.1-2.1-5.1-5.5 0-3.6 2.3-5.7 5.3-5.7 3 .1 5.1 2.3 5.1 5.5zm-8.5.1c0 2.3 1.3 4.1 3.2 4.1 1.8 0 3.2-1.7 3.2-4.1 0-1.8-.9-4.1-3.2-4.1-2.2 0-3.2 2.1-3.2 4.1zM346.9 608.7v12.9c0 .9 0 2 .1 2.8h-1.7l-.1-1.8c-.6 1.2-1.9 2.1-3.6 2.1-2.6 0-4.6-2.2-4.6-5.4 0-3.5 2.2-5.7 4.8-5.7 1.6 0 2.7.8 3.2 1.6v-6.4h1.9zM345 618c0-.2 0-.6-.1-.8-.3-1.2-1.3-2.2-2.8-2.2-2 0-3.2 1.8-3.2 4.1 0 2.2 1.1 3.9 3.1 3.9 1.3 0 2.5-.9 2.8-2.3.1-.3.1-.5.1-.8V618zM357.1 610.6v3.1h2.8v1.5h-2.8v5.7c0 1.3.4 2.1 1.5 2.1.5 0 .9-.1 1.1-.1l.1 1.5c-.4.2-1 .3-1.7.3-.9 0-1.6-.3-2.1-.8-.6-.6-.7-1.5-.7-2.8v-5.8h-1.7v-1.5h1.7v-2.6l1.8-.6zM363 619.4c0 2.6 1.7 3.7 3.7 3.7 1.4 0 2.2-.2 2.9-.5l.3 1.4c-.7.3-1.8.7-3.5.7-3.3 0-5.2-2.2-5.2-5.4s1.9-5.7 5-5.7c3.5 0 4.4 3.1 4.4 5 0 .4 0 .7-.1.9H363zm5.7-1.4c0-1.2-.5-3.1-2.7-3.1-2 0-2.8 1.8-3 3.1h5.7zM372.9 616.6c0-1.1 0-2-.1-2.9h1.7l.1 1.7h.1c.6-1 1.6-2 3.3-2 1.5 0 2.6.9 3 2.1.3-.6.7-1.1 1.2-1.4.6-.5 1.3-.7 2.4-.7 1.4 0 3.5.9 3.5 4.6v6.3h-1.9v-6c0-2-.7-3.3-2.3-3.3-1.1 0-2 .8-2.3 1.8-.1.3-.2.6-.2 1v6.6h-1.9V618c0-1.7-.7-2.9-2.2-2.9-1.2 0-2.1 1-2.4 1.9-.1.3-.2.6-.2.9v6.4h-1.9v-7.7zM391.3 617.2c0-1.4 0-2.5-.1-3.5h1.7l.1 1.8c.8-1.3 2-2.1 3.8-2.1 2.6 0 4.5 2.2 4.5 5.4 0 3.8-2.3 5.7-4.8 5.7-1.4 0-2.6-.6-3.3-1.7v5.8h-1.9v-11.4zm1.9 2.8c0 .3 0 .6.1.8.4 1.3 1.5 2.3 2.9 2.3 2 0 3.2-1.7 3.2-4.1 0-2.1-1.1-4-3.2-4-1.3 0-2.6.9-2.9 2.4-.1.2-.1.5-.1.8v1.8zM413.4 618.9c0 3.9-2.7 5.7-5.3 5.7-2.9 0-5.1-2.1-5.1-5.5 0-3.6 2.3-5.7 5.3-5.7 3.1.1 5.1 2.3 5.1 5.5zm-8.4.1c0 2.3 1.3 4.1 3.2 4.1 1.8 0 3.2-1.7 3.2-4.1 0-1.8-.9-4.1-3.2-4.1-2.2 0-3.2 2.1-3.2 4.1zM415.9 617c0-1.3 0-2.3-.1-3.3h1.7l.1 2.1h.1c.5-1.4 1.7-2.3 2.9-2.3.2 0 .4 0 .5.1v1.8c-.2 0-.4-.1-.7-.1-1.4 0-2.3 1-2.6 2.5 0 .3-.1.6-.1.9v5.7h-1.9V617z"/></g></svg>