<svg version="1.1" id="Layer_1" xmlns="http://www.w3.org/2000/svg" xmlns:xlink="http://www.w3.org/1999/xlink" x="0" y="0" width="510" height="710" xml:space="preserve"><style>.st0{opacity:.5;clip-path:url(#XMLID_237_)}.st1{fill:#f7b4d1}.st2{fill:#152347}.st3{fill:#ef477e}.st4{fill:#fdcd9d}.st5{fill:#231f20}.st6{fill:#ef518c}.st8{fill:#c61e50}.st9{fill:#fff}</style><defs><path id="XMLID_208_" d="M5 1.4h500v707.1H5z"/></defs><use xlink:href="#XMLID_208_" overflow="visible" fill="#f177ab"/><clipPath id="XMLID_237_"><use xlink:href="#XMLID_208_" overflow="visible"/></clipPath><g class="st0"><path id="XMLID_235_" class="st1" d="M74.5 176.6h1.6c8.4.5 25 7.9 29.8 14.6l8.5 11.5.4-14.3c.4-13.1 11.4-29 23.6-34.1 10.5-4.4 21.4-.1 29 11.3 5.7 8.6.4 20.8-4.7 32.6-.8 1.9-1.6 3.7-2.3 5.5-2.8 6.8-7.5 14.9-12.1 22.7-3.4 5.8-6.9 11.7-9.7 17.3-.5-.2-.9-.4-1.3-.5-10.5-3-19.1-4.3-28.1-5.8-8.9-1.4-18.2-2.8-30.5-6-17.5-4.4-25.6-16.1-24.8-35.4.3-6.3 5.7-19.4 20.6-19.4z"/></g><g class="st0"><path id="XMLID_234_" class="st1" d="M200.9 109.1c.3.1.7.3 1 .5 5.2 2.6 13.8 11.8 15.2 17.4l2.3 9.7 4.1-9c3.8-8.3 15.1-15.5 24.3-15.5 7.9 0 13.7 5.7 15.5 15.1 1.3 7-5.3 13.4-11.8 19.6-1 1-2 1.9-3 2.9-3.6 3.6-8.9 7.5-13.9 11.3-3.7 2.8-7.6 5.7-10.8 8.5l-.7-.7c-5.9-4.8-11-7.9-16.5-11.3-5.3-3.3-10.9-6.7-17.9-12.1-10-7.6-12-17.3-6.3-29.4 2-4.1 9-11.1 18.5-7z"/></g><g class="st0"><path id="XMLID_233_" class="st1" d="M68.6 61.2c.4.2.9.4 1.3.6 6.8 3.3 18 15.3 19.7 22.6l3 12.6L98 85.2c4.9-10.7 19.7-20.1 31.6-20.1 10.3 0 17.9 7.4 20.2 19.6 1.8 9.1-6.9 17.4-15.3 25.5-1.3 1.3-2.6 2.5-3.8 3.7-4.7 4.7-11.5 9.8-18.1 14.7-4.9 3.6-9.8 7.4-14.1 11-.3-.4-.6-.6-.9-.9-7.7-6.2-14.4-10.3-21.4-14.6-6.9-4.3-14.1-8.7-23.2-15.7-13-9.9-15.7-22.4-8.3-38.2 2.5-5.2 11.5-14.2 23.9-9z"/></g><g class="st0"><path id="XMLID_232_" class="st1" d="M-34-23.6c.4.2.9.4 1.3.6 6.8 3.3 18 15.3 19.7 22.6l3 12.6L-4.6.4C.3-10.4 15-19.8 26.9-19.7c10.3 0 17.9 7.4 20.2 19.6 1.8 9.1-6.9 17.4-15.3 25.5-1.3 1.3-2.6 2.5-3.9 3.7-4.7 4.7-11.5 9.8-18.1 14.7C5 47.4 0 51.1-4.2 54.7c-.3-.4-.6-.6-.9-.9-7.7-6.2-14.4-10.3-21.4-14.6-6.9-4.3-14.1-8.7-23.2-15.7-13-9.9-15.6-22.4-8.2-38.2 2.4-5.1 11.5-14.1 23.9-8.9z"/></g><g class="st0"><path id="XMLID_231_" class="st1" d="M191.7 25.6h1.4c7.6.1 22.8 6.2 27.5 12.1l8.1 10.1-.1-12.9c-.1-11.8 9.2-26.6 20-31.6 9.3-4.3 19.3-.8 26.6 9.1 5.5 7.5 1.1 18.7-3 29.6-.7 1.7-1.3 3.4-1.9 5-2.3 6.2-6.3 13.7-10.1 21-2.9 5.3-5.8 10.8-8.1 16-.5-.2-.8-.3-1.2-.4-9.6-2.3-17.4-3.2-25.6-4.2-8.1-.9-16.5-1.9-27.7-4.3-16-3.5-23.7-13.7-23.6-31.1-.1-5.8 4.3-17.8 17.7-18.4z"/></g><g class="st0"><path id="XMLID_230_" class="st1" d="M310.1 74.9h1.4c7.6.1 22.8 6.2 27.5 12.1l8.1 10.1-.1-12.9c-.1-11.8 9.2-26.6 20-31.6 9.3-4.3 19.3-.8 26.6 9.1 5.5 7.5 1.1 18.7-3 29.6-.7 1.7-1.3 3.4-1.9 5-2.3 6.2-6.3 13.7-10.1 21-2.9 5.3-5.8 10.8-8.1 16-.5-.2-.8-.3-1.2-.4-9.6-2.3-17.4-3.2-25.6-4.2-8.1-.9-16.5-1.9-27.7-4.3-15.9-3.5-23.7-13.7-23.6-31.1-.1-5.9 4.3-17.9 17.7-18.4z"/></g><g class="st0"><path id="XMLID_229_" class="st1" d="M317.5-43.3c.4.3.7.6 1.1.9 5.8 4.8 13.9 19.1 13.9 26.6v12.9l8-10.2c7.3-9.3 23.8-15 35.4-12.2 10 2.5 15.6 11.4 15 23.7-.4 9.3-10.8 15.3-20.8 21.2-1.6.9-3.1 1.8-4.6 2.7-5.7 3.5-13.5 6.8-21 10-5.6 2.4-11.3 4.8-16.3 7.4-.2-.4-.4-.8-.7-1.1-6-7.8-11.5-13.4-17.4-19.2-5.7-5.8-11.7-11.8-18.9-20.7-10.3-12.7-10-25.5 1-39 3.6-4.4 14.5-11 25.3-3z"/></g><g class="st0"><path id="XMLID_228_" class="st1" d="M426.7.7c.5 0 .9.1 1.4.2 7.5 1 21.9 8.9 25.8 15.3l6.8 11 1.4-12.8c1.3-11.7 12.4-25.3 23.7-29 9.8-3.2 19.3 1.5 25.3 12.3 4.5 8.1-1.1 18.7-6.6 29-.9 1.6-1.7 3.2-2.5 4.7-3 5.9-7.9 12.9-12.6 19.6-3.5 5-7 10.1-9.9 14.9-.4-.3-.8-.4-1.1-.6-9.3-3.5-16.9-5.3-24.9-7.2-7.9-1.9-16.1-3.8-27-7.6-15.3-5.5-21.8-16.5-19.7-33.9.8-5.6 6.5-17 19.9-15.9z"/></g><g class="st0"><path id="XMLID_227_" class="st1" d="M448.2 87.9c.4.2.9.4 1.3.6 6.8 3.4 17.9 15.5 19.5 22.8l2.9 12.6 5.5-11.7c5-10.7 19.8-20 31.7-19.8 10.3.1 17.8 7.6 20 19.7 1.7 9.1-7.1 17.4-15.5 25.3-1.3 1.3-2.6 2.5-3.9 3.7-4.8 4.6-11.6 9.7-18.2 14.5-4.9 3.6-9.9 7.3-14.2 10.9-.3-.4-.6-.7-.9-.9-7.7-6.3-14.3-10.4-21.3-14.8-6.9-4.3-14-8.8-23.1-15.9-12.9-10-15.4-22.6-7.8-38.3 2.5-5.1 11.6-14 24-8.7z"/></g><g class="st0"><path id="XMLID_226_" class="st1" d="M427.3 185c.4.3.9.6 1.3 1 6.7 5.4 16.1 21.4 16.3 29.9l.2 14.6 8.8-11.7c8.1-10.7 26.7-17.4 39.9-14.5 11.4 2.6 17.9 12.6 17.5 26.6-.3 10.5-12 17.6-23.2 24.4-1.8 1.1-3.5 2.1-5.2 3.2-6.4 4-15.1 8-23.6 11.8-6.3 2.8-12.7 5.7-18.3 8.7-.3-.5-.5-.9-.8-1.2-7-8.8-13.3-14.9-20.1-21.5-6.6-6.5-13.5-13.1-21.8-23.1-11.9-14.2-11.8-28.7.4-44.3 3.9-5.1 16.2-12.8 28.6-3.9z"/></g><g class="st0"><path id="XMLID_225_" class="st1" d="M498.5 292.9c.4.3.9.6 1.3 1 6.7 5.4 16.1 21.4 16.3 29.9l.2 14.6 8.8-11.7c8.1-10.7 26.7-17.4 39.9-14.5 11.4 2.6 17.9 12.6 17.5 26.6-.3 10.5-12 17.6-23.2 24.4-1.8 1.1-3.5 2.1-5.2 3.2-6.4 4-15.1 8-23.6 11.8-6.3 2.8-12.7 5.7-18.3 8.7-.3-.5-.5-.9-.8-1.2-7-8.8-13.3-14.9-20.1-21.5-6.6-6.5-13.5-13.1-21.8-23.1-11.9-14.2-11.8-28.7.4-44.3 3.9-5.1 16.2-12.8 28.6-3.9z"/></g><g class="st0"><path id="XMLID_224_" class="st1" d="M40 506.8c.6 0 1.2-.1 1.8-.1 9.7-.2 29.6 6.9 35.9 14.2l10.8 12.6-.8-16.6c-.7-15.2 10.6-34.6 24.2-41.6 11.8-6 24.8-2 34.6 10.4 7.4 9.4 2.4 24-2.5 38.1-.8 2.2-1.5 4.4-2.2 6.5-2.6 8.1-7.4 17.9-12 27.4-3.4 7-6.9 14.2-9.6 20.9-.6-.2-1.1-.4-1.5-.5-12.5-2.5-22.5-3.3-33.1-4.1-10.5-.8-21.3-1.6-35.8-4.2-20.7-3.7-31.1-16.4-31.9-38.8-.2-7.2 4.8-22.8 22.1-24.2z"/></g><g class="st0"><path id="XMLID_223_" class="st1" d="M-18.9 550.8c.4.4.8.9 1.2 1.4 6.1 7.5 12.8 27.6 11 37l-3.2 16.3 12.6-10.9c11.5-9.9 33.7-13 47.6-6.6 12 5.6 16.9 18.2 13.1 33.7-2.8 11.6-17.4 16.7-31.5 21.6-2.2.8-4.4 1.5-6.5 2.3-8 3-18.7 5.3-29 7.5-7.6 1.6-15.4 3.3-22.4 5.3-.2-.6-.4-1.1-.6-1.5-5.7-11.4-11.3-19.7-17.2-28.5-5.8-8.7-11.8-17.7-18.8-30.8-9.8-18.5-6.3-34.6 10.9-49 5.7-4.9 21.1-10.5 32.8 2.2z"/></g><g class="st0"><path id="XMLID_222_" class="st1" d="M147.6 608.1c.5.6 1 1.1 1.5 1.7 7.7 9.4 16 34.5 13.7 46.2l-4 20.4 15.7-13.6c14.4-12.4 42.2-16.3 59.6-8.3 15 7 21.1 22.8 16.4 42.1-3.5 14.5-21.8 20.8-39.4 27-2.8 1-5.5 1.9-8.1 2.9-10 3.7-23.3 6.6-36.2 9.4-9.5 2.1-19.3 4.2-28 6.7-.2-.8-.4-1.3-.7-1.9-7.1-14.2-14.1-24.6-21.5-35.7-7.3-10.9-14.8-22.2-23.5-38.5-12.3-23.2-7.9-43.2 13.6-61.3 7.1-5.9 26.3-13 40.9 2.9z"/></g><g class="st0"><path id="XMLID_221_" class="st1" d="M212.1 499c.7.4 1.3.8 2 1.2 10.2 6.6 26 27.8 27.4 39.7l2.5 20.6 10.7-17.8c9.8-16.3 35-28.6 54-26.4 16.4 1.9 27.2 15.1 28.7 34.9 1.1 14.9-14.2 26.6-29.1 37.9-2.3 1.8-4.6 3.5-6.8 5.3-8.4 6.6-20.1 13.5-31.5 20.1-8.4 4.9-17 10-24.5 15-.5-.7-.8-1.1-1.3-1.6-11.2-11.3-21.1-19-31.5-27.2-10.3-8.1-21-16.5-34.3-29.3-18.9-18.2-20.9-38.6-6.1-62.5 4.8-7.7 20.9-20.4 39.8-9.9z"/></g><g class="st0"><path id="XMLID_220_" class="st1" d="M387.2 542.7c.4.2.9.5 1.3.8 6.8 4.3 17.2 18.4 18.1 26.3l1.7 13.6 7.1-11.8c6.5-10.8 23.2-18.9 35.8-17.5 10.9 1.3 18 10 19 23.1.8 9.9-9.4 17.6-19.2 25.1-1.5 1.2-3.1 2.3-4.5 3.5-5.6 4.4-13.3 8.9-20.9 13.3-5.6 3.3-11.3 6.6-16.2 10-.3-.4-.6-.8-.8-1-7.4-7.5-13.9-12.6-20.9-18-6.8-5.4-13.9-10.9-22.7-19.4-12.5-12-13.8-25.6-4.1-41.4 3.2-5.1 13.9-13.6 26.3-6.6z"/></g><g class="st0"><path id="XMLID_219_" class="st1" d="M303 671.4c.5 0 1.1-.1 1.7-.1 8.9-.3 27.2 5.9 33 12.5l10.1 11.4-.9-15.2c-.9-13.9 9.2-31.8 21.6-38.3 10.7-5.7 22.6-2.2 31.8 9.1 6.9 8.5 2.5 21.9-1.8 34.9-.7 2-1.3 4-1.9 6-2.3 7.5-6.5 16.5-10.6 25.2-3 6.5-6.1 13.1-8.5 19.2-.6-.2-1-.3-1.4-.4-11.4-2.2-20.6-2.7-30.3-3.3-9.6-.6-19.5-1.2-32.8-3.4-18.9-3.1-28.6-14.6-29.6-35.1-.6-6.7 3.9-21 19.6-22.5z"/></g><g class="st0"><path id="XMLID_218_" class="st1" d="M474.6 635.4c.4.3.9.7 1.3 1.1 6.6 6 15.4 23.1 15.1 31.9l-.6 15.2 9.8-11.6c9-10.6 28.7-16.5 42.1-12.6 11.6 3.3 17.8 14.1 16.6 28.6-.9 10.9-13.4 17.5-25.5 23.9-1.9 1-3.8 2-5.5 3-6.8 3.8-16.1 7.4-25.1 10.8-6.7 2.6-13.5 5.2-19.5 7.9-.3-.5-.5-.9-.7-1.3-6.7-9.5-12.9-16.2-19.5-23.4-6.5-7.1-13.2-14.4-21.3-25.2-11.5-15.4-10.5-30.4 3-45.8 4.4-5.1 17.5-12.4 29.8-2.5z"/></g><g class="st0"><path id="XMLID_217_" class="st1" d="M292.7 613.7c.3 0 .6 0 .9-.1 4.7-.2 14.3 3.1 17.4 6.6l5.3 6-.5-8c-.5-7.3 4.9-16.8 11.4-20.2 5.7-3 11.9-1.1 16.8 4.8 3.6 4.5 1.3 11.6-.9 18.4-.4 1.1-.7 2.1-1 3.2-1.2 3.9-3.4 8.7-5.6 13.3-1.6 3.4-3.2 6.9-4.5 10.2-.3-.1-.5-.2-.7-.2-6-1.1-10.9-1.4-16-1.8-5.1-.3-10.3-.6-17.3-1.8-10-1.6-15.1-7.7-15.6-18.5-.4-3.5 2-11.1 10.3-11.9z"/></g><g class="st0"><path id="XMLID_216_" class="st1" d="M-58.5 721.9c.7-.1 1.5-.2 2.3-.3 12.1-1.1 37.5 5.9 46 14.3l14.7 14.7L1.9 730c-2.3-18.8 9.9-44.1 26.3-54.1 14.1-8.6 30.7-4.8 44.1 9.8 10.1 11 5.2 29.7.5 47.8-.7 2.8-1.5 5.6-2.1 8.3-2.5 10.4-7.5 23-12.4 35.3-3.6 9.1-7.3 18.4-10 26.9-.8-.2-1.4-.4-2-.5-15.8-2-28.3-2-41.6-2-13.1 0-26.7 0-45-1.9-26.1-2.7-40.3-17.5-43.3-45.4-1.1-9.1 3.7-29 25.1-32.3z"/></g><g class="st0"><path id="XMLID_215_" class="st1" d="M431.4 357.1c.3.4.6.9.9 1.4 4.5 7.3 8 25.6 5.2 33.6l-4.7 13.9 12.3-8c11.2-7.3 31-7.4 42.4-.2 9.8 6.3 12.6 17.9 7.5 31-3.8 9.8-17.2 12.5-30.1 15.2-2 .4-4 .8-5.9 1.2-7.4 1.6-16.9 2.4-26.2 3.1-6.9.5-13.9 1.1-20.2 2-.1-.6-.2-1-.3-1.4-3.6-10.6-7.5-18.6-11.7-27-4.1-8.3-8.3-16.9-12.8-29.1-6.4-17.4-1.4-31 15.3-41.6 5.5-3.4 19.6-6.6 28.3 5.9z"/></g><g class="st0"><path id="XMLID_214_" class="st1" d="M433 488.2c.5-.1 1.1-.1 1.6-.2 8.6-.7 26.4 4.5 32.3 10.6l10.2 10.5-1.6-14.6c-1.4-13.3 7.5-31 19.1-37.9 10.1-5.9 21.7-3.1 31 7.4 7 7.9 3.3 21-.2 33.7-.6 2-1.1 4-1.6 5.9-1.9 7.3-5.6 16.2-9.1 24.8-2.6 6.4-5.3 12.9-7.4 18.9-.5-.2-1-.3-1.4-.3-11.1-1.6-20-1.7-29.3-1.9-9.3-.2-18.8-.3-31.7-1.8-18.4-2.2-28.2-12.8-30.1-32.5-.6-6.5 3.1-20.5 18.2-22.6z"/></g><g class="st0"><path id="XMLID_213_" class="st1" d="M21.3 245c.5.4 1 .7 1.5 1.1 7.8 6.3 18.9 25.1 19.1 35l.3 17.2 10.4-13.7c9.5-12.5 31.3-20.5 46.8-17 13.4 3 21 14.8 20.5 31.2-.4 12.3-14 20.6-27.2 28.6-2.1 1.3-4.1 2.5-6.1 3.7-7.5 4.7-17.8 9.3-27.7 13.8-7.4 3.3-14.9 6.7-21.5 10.2-.3-.6-.6-1-.9-1.4-8.2-10.3-15.6-17.5-23.5-25.2-7.8-7.6-15.8-15.4-25.6-27.1-14-16.6-13.8-33.6.4-51.9 4.6-5.8 19-14.9 33.5-4.5z"/></g><g class="st0"><path id="XMLID_212_" class="st1" d="M-30.6 409.5c.6-.1 1.2-.2 1.9-.2 10-.8 31 5.3 37.9 12.4l12 12.3-1.9-17c-1.7-15.6 8.8-36.4 22.4-44.4 11.8-6.9 25.5-3.6 36.4 8.6 8.2 9.2 3.9 24.6-.2 39.5-.6 2.3-1.3 4.6-1.9 6.9-2.2 8.6-6.5 19-10.7 29-3.1 7.4-6.2 15.1-8.6 22.2-.6-.2-1.1-.3-1.6-.4-13-1.8-23.4-2-34.4-2.2-10.8-.2-22.1-.4-37.2-2.1-21.6-2.5-33.1-15-35.3-38.1-.7-7.6 3.5-24.1 21.2-26.5z"/></g><g class="st0"><path id="XMLID_211_" class="st1" d="M298.6 150.4c.4.3.8.6 1.1.9 5.9 4.7 14.3 18.8 14.4 26.3l.2 12.9 7.7-10.3c7.1-9.5 23.5-15.5 35.1-12.9 10 2.2 15.8 11.1 15.5 23.4-.2 9.3-10.5 15.5-20.4 21.6-1.6 1-3.1 1.9-4.6 2.8-5.6 3.6-13.3 7.1-20.8 10.5-5.5 2.5-11.2 5.1-16.1 7.7-.2-.4-.5-.8-.7-1-6.2-7.7-11.8-13.1-17.8-18.9-5.9-5.7-11.9-11.5-19.3-20.3-10.5-12.5-10.5-25.2.2-39.1 3.7-4.5 14.5-11.3 25.5-3.6z"/></g><g class="st0"><path id="XMLID_210_" class="st1" d="M83.8-16.3h1.4c7.6.1 22.8 6.2 27.5 12.1l8.1 10.1-.2-12.9c-.1-11.8 9.2-26.6 20-31.6 9.3-4.3 19.3-.8 26.6 9.1 5.5 7.5 1.1 18.7-3 29.6-.7 1.7-1.3 3.4-1.9 5-2.3 6.2-6.3 13.7-10.1 21-2.9 5.3-5.8 10.8-8.1 16-.5-.2-.8-.3-1.2-.4-9.6-2.3-17.4-3.2-25.6-4.2-8.1-.9-16.5-1.9-27.7-4.3C73.7 29.6 66 19.4 66 2c0-5.8 4.4-17.7 17.8-18.3z"/></g><g class="st0"><path id="XMLID_209_" class="st1" d="M-7.6 107.4c.3.3.6.7.9 1.1 4.8 5.8 10.1 21.4 8.6 28.7l-2.5 12.7 9.7-8.5c8.9-7.8 26.2-10.2 37-5.3 9.4 4.3 13.2 14.1 10.3 26.2-2.2 9-13.5 13-24.5 16.9-1.7.6-3.4 1.2-5 1.8-6.2 2.3-14.5 4.1-22.5 5.9-5.9 1.3-12 2.6-17.4 4.2-.1-.5-.3-.8-.4-1.2-4.5-8.8-8.8-15.3-13.4-22.2-4.6-6.8-9.3-13.8-14.7-23.9-7.7-14.4-5-26.9 8.3-38.2 4.5-3.7 16.5-8.1 25.6 1.8z"/></g><g><path id="XMLID_207_" class="st2" d="M397.1 490.2c-.7.1-78.5 13-116 13.5-114.2 1.4-170.7-18.9-183.7-27.1-1.5-4.8-2.1-10-2.6-15.1-.7-6.5-1.3-13.2-1.7-19.8-.1-2.1-.2-4.3-.3-6.4-.1-1.8-.1-3.5-.2-5.3-.5-11.2-1.7-21.3-3.7-31 .6.5 1.5 1.3 2.2 1.9l1.4 1.3c7 6.2 19.5 10.3 28.5 13.2l1.5.5c22.4 7.3 41.7 10.5 62.9 13.5 30.8 4.5 69 10 105.9 10 5.6 0 11.1-.1 16.4-.4 44.9-2.1 83.2-13.1 114-32.9.1 1.9-.1 3.6-.4 4.9l-2.3 10c-6 25.5-10.7 45.6-12.7 64.9.1 1.9-2.2 2.9-9.2 4.3z"/><path id="XMLID_206_" class="st3" d="M259.5 144.2c13.1 0 26.2 1.4 38.9 4.1-4.3 2.9-6.8 7.8-6.6 12.8.3 5.8 4.8 11 10.5 12.1.3.1.4.1.5.1 0 .1-.1.1-.1.2l-.8.8c-2.6 2.6-4.3 4.2-6.4 7.8-2.2 3.7-2.2 7.7-1.9 10.5.2 1.3.5 3.2 1.6 4.8.6.8 1.4 1.5 2.3 2.1 1.6 1.1 3.6 1.6 5.7 1.6s4.4-.6 6.3-1.6c1.4-.8 2.6-1.6 3.6-2.6 1.2 4.5 2.7 8.1 4.5 11.2.7 1.2 1.7 2.6 2.8 4-.1.2-.1.5-.1.7l-.1 6.2c-.1 5-.3 9.4-2.8 12.5-2.4 2.9-7 4.4-12.2 4-2.8-.2-5.6-.9-8.6-1.6-2.1-.5-4.3-1-6.5-1.4-3.5-.6-7-.7-10.4-.8-2-.1-5.4-.2-7.7 1.9-1.4 1.2-2.1 2.9-2.5 4.1-.7 2.2-1 4.6-.9 7-5.3 1.1-9.5 2.8-14.7 6-6.3 3.8-11.1 9.2-13.4 15.3-1.4 3.7-2.1 7.8-2 12.1.3 10.4 5.4 20.5 13.6 26.9 4 3.1 8.6 5.3 13.4 6.5-.2 3.1 0 6.2 2 8.6 1 1.2 2.2 2 3.3 2.7.4.3.9.5 1.3.8 1.9 1.4 3.5 3.7 4.3 6.4.4 1.4.7 3 .8 4.7l-49.3-32.4c-2.7-1.8-6-3.9-9.8-5l.1-.5-1.9.1c-.3-.1-.7-.1-1-.2-.4 0-.7.1-1.1.2-2.8-.3-7.2-2.3-8.2-3.9-.7-1-1.2-2-1.8-3-1-1.7-2-3.5-3.3-5.1-5.2-5.9-13.4-6.6-20-6.6-1.6 0-3.2 0-4.7.1-30.7 1-61.4-2.3-91.2-9.8 25.5-74.4 95.3-124.4 174.5-124.4z"/><path id="XMLID_205_" class="st4" d="M319.2 182.6c.4.8.8 1.6 1.5 2.2 1.3 1.2 3 1.9 4.7 1.9 1.1 0 2.2-.3 3.2-.9 1.3-.8 2.3-2.2 2.8-3.9.4-1.3.5-2.6.6-3.9.1-1.2-.9-2.2-2.1-2.3-1.2-.1-2.3.9-2.3 2.1 0 1-.1 1.9-.4 2.7-.2.7-.6 1.2-1 1.5-.6.4-1.8.2-2.4-.4-.7-.7-1.1-2-.9-3.2.2-1.2-.7-2.3-1.9-2.5-.6-.1-1.2.1-1.6.4-.1-2.1-.3-4.2-.7-6.1-.9-4 .4-7.7 1.5-10.1.7-1.5 1.3-2.2 1.6-2.6.2.5.5 1.2.6 1.5l.1.3c.7 2.1 1.5 4.5 3.6 6.1 2.2 1.7 5.4 2.1 7.8 1.1 1.9-.8 3.1-2.2 4.2-3.5.6-.7 1.2-1.4 1.8-1.9 2.4 2.3 5.5 3.8 8.8 4.3.8.1 1.6.2 2.5.2 1.1.1 2.1.1 3.1.4 1.1.3 2.3 1 2.4 1.9.1 1.1-1 2.4-2.1 3.6-1.4 1.6-2.7 3.3-3.8 5-.2-.6-.6-1.2-1.3-1.4-1.1-.4-2.4.1-2.9 1.2-.6 1.4-.4 3.1.4 4.4.5.7 1.1 1.3 1.9 1.6.3.9.8 1.9 1.6 2.7 1.7 1.8 4.1 2.9 6.6 2.9h1.9c0 .3-.1.7-.2 1l-.1.4c-.6 2.3-.3 4.5.8 6.3.5.8 1.2 1.5 2.1 2-.7 1.3-1.4 2.5-2.1 3.7-1.4 2.7-2.8 5.2-4.9 7.8-1.7 2.1-4.4 4.8-6.2 6.3-1.4 1.1-4 1.9-6.7 2.1-1.4.1-2.8-.3-4.2-.6-2.1-.5-4.3-1-6.3-1.8-4.8-2.1-7.9-6.1-9.6-9-2-3.4-3.6-7.6-4.8-13.2v-.1c.2-.3.4-.6.5-.9.8-2.4 1.5-5.8 1.9-9.3z"/><path class="st5" d="M469.3 156.4c-1.7-4-6.7-5.1-10.9-4.7-2.4.2-4.6 1-6.7 1.8-2.4.9-4.6 1.8-6.7 1.5-.5-.1-.9-.2-1.4-.3-1.1-.2-2.3-.5-3.7-.4-2.7.3-4.6 2.1-6.4 3.9-1.2 1.3-2.6 2.9-2.9 5-.2 1-.1 1.9-.1 2.8 0 .4.1.8 0 1.3-.1 1.6-1.1 3-1.9 3.9-.9 1-1.7 1.6-2.4 1.6-.4 0-.9 0-1.4-.1-.6-.1-1.2-.2-1.9-.1-2.9.1-5.6 2-6.9 4.8-1.1 2.4-1.1 5.2-.1 7.9.2.5.4 1 .6 1.4.4.9.8 1.8.8 2.5 0 .3-.2.7-.3 1.2-.2.7-.5 1.7-.5 2.7 0 2.2 1.5 4.4 4 5.7.8.4 1.8 1.1 2.7 1.7.6.4 1.2.8 1.8 1.1-5.8 2.4-11.4 4.9-16.8 7.3l-2.1.9c-8.3-10.2-17.6-19.6-27.8-27.9-.1-.1-.2-.1-.3-.2.1-.2.2-.4.3-.7 3.3-7.6 3.9-14.5 1.9-20.3-1.5-4.4-4.5-7.9-7.3-10.8-1.7-1.8-3.7-3.7-6.4-4.5-2.1-.6-4.7-.3-7 0-1.7.3-3.1.5-4.6.3-1.6-.3-3-1.2-3.8-2.6-.6-.9-.9-2-1.3-3.2-.6-1.7-1.2-3.7-2.6-5.3-1.7-1.9-4.1-2.9-6.9-2.9-2.4 0-4.9.8-6.9 2.1-.5.4-1 .7-1.5 1.1-.7.5-1.3 1-2 1.4-.8.4-1.7.6-2.2.3-.2-.1-.4-.3-.6-.5-.4-.4-.8-.7-1.3-1-2.3-1.3-5.6-.7-7.8 1.4-1.2 1.1-2 2.5-2.8 3.8-.3.4-.5.8-.8 1.3-.6.9-1.8 1.4-3.2 1.9l-.3.1c-1.4.6-3 .9-4.6 1.3-.4.1-.7.2-1.1.3-.1 0-.2-.1-.3-.2-14.8-3.7-30.1-5.5-45.6-5.5-81.2 0-152.7 51.4-178.7 128.1-4.8-1.3-9.7-3-13.8-5.7-3.2-2.1-5.9-4.8-8.9-7.7-3-2.9-6.1-5.9-9.7-8.3-1.1-.7-2.5-1.5-4.1-1.5-1.2 0-2.5.5-3.6 1.4l-.6.5-.2.7c-2.3 10.5 2.7 22.2 11.9 27.8 1.6 1 3.4 1.8 5 2.6s3.1 1.5 4.6 2.3c3 1.9 5.6 4.5 7.4 7.6-3.6-.6-7.3-.8-10.9-.4-.5 0-1.7.2-2.6 1.2-.8.9-.8 2.1-.8 2.5l.2 10.6 2.5-.4c2.1-.4 4.3-.6 6.6-.6 2.9 0 5.8.3 8.7.8-1.6 10-1.9 17.5-1.9 27.2 0 25.2 3.6 47 10.9 66.5-2.7.2-4.8 1.4-5.9 3.3-1.4 2.5-.5 5.5 1 7.4 1 1.2 2.2 2 3.4 2.6-2.4.9-4.5 2.5-5.8 4.9-2 3.6.9 7.7 3.1 9 .5.3 1 .5 1.5.8-.9.4-1.9.8-2.8 1.6-1.7 1.4-2.5 3.4-2.3 5.3.2 1.9 1.4 3.4 2.3 4.3.4.4.9.8 1.4 1.3-.2.2-.5.3-.7.5-2.3 1.7-2.8 3.8-2.9 4.7-.4 3 .3 5.4 1.9 7.1 1.4 1.4 3.1 2.1 4.4 2.4-.2.2-.4.4-.6.5-1.9 2.3-2.2 5.5-.7 7.7.6.9 1.5 1.6 2.1 2 .3.2.8.4 1.1.6-.8.6-1.5 1.3-2.1 2.1-2.2 3.3-2 7.8.3 11 2.1 2.8 5.3 4.1 7.6 4.8 2.6.8 5.3 1.3 8.1 1.5h.2c.2 0 .3-.1.5-.1 13 8.1 66.7 27.4 173 27.4 3.7 0 7.6 0 11.4-.1 37.9-.5 115.1-13.2 115.8-13.3 4-.8 7.4-1.6 9.7-3.1.1 0 .2.1.4.1h.1c2.6-.2 5.1-.5 7.6-1 2.1-.4 4.4-1.2 5.9-3.1 1.9-2.5 1.7-6.1-.5-8.8l-.3-.3c.9-.3 1.8-.6 2.7-1.2 2.7-1.8 3-4 3-5.2-.1-2.1-1.5-4-2.9-5 2.2-1.2 3.7-3.4 3.8-5.8.1-2.5-1.2-4.5-2.9-6 .9-.2 1.7-.3 2.7-.6 1-.3 2.8-.8 4-2.3 1.5-1.8 1.6-4.5.2-6.4-.7-1-1.8-1.6-2.6-2.1-.3-.2-.7-.3-1.1-.5 2.1-.7 3.9-1.8 5.2-3.4.8-1 1.3-2.1 1.4-3.1.2-2.4-1.3-4.7-4.3-6.4-.2-.1-.4-.2-.5-.3 1.4-.4 2.8-1 4-1.8 1.8-1.1 3-2.4 3.8-3.8 1.1-2.1 1-4.6-.2-6.3-.9-1.3-2.2-2-3.4-2.6-.3-.2-.7-.3-1.1-.5.5-.2 1-.5 1.5-.8 2.1-1.3 3.9-3.9 3.2-6.8-.4-1.6-1.7-2.8-3.2-3.5 10.3-23.7 15.6-49 15.6-75.1 0-39.7-12.2-77.6-35.2-109.8.5-.2.9-.4 1.3-.5 5.4-2.2 11-4.6 17-6.8.4.1.9.2 1.5.2 1.1 0 2.3-.2 3.1-.7 1.8-1 2.6-2.8 2.3-5.1-.1-1.1.4-2 1.6-2.9 4-2.8 6.1-6.3 6-9.9-.1-2.4-1.2-4.7-3.2-6.7l-.9-.9c-.8-.8-1.7-1.6-1.8-2.2-.1-.7.8-1.8 1.3-2.5.6-.7 1.3-1.7 2.1-2 .3-.1.8-.1 1.4-.1h1.5c2.9-.3 4.9-1.3 6.9-2.3.6-.3 1.2-.6 1.9-.9.7-.3 1.5-.1 2.6.3l.9.3c3.8.9 6.9-.2 7.9-2.8 1.1-2.9-.6-5.1-1.6-6.4-.1-.1-.2-.3-.3-.4.2-.1.4-.3.7-.4 1.9-1.3 6.4-3.8 3.9-9.4zM402 211.7c-4.7 2.1-9.5 4.2-14.4 6.1l-.3.1c-.5-.2-1.1-.3-1.6-.3-1.8-.2-3.4.4-4.6 1.6-.4.4-.6.9-.7 1.5h-1c-1.3.1-3 .3-4.6 1.3-1.4.9-2.2 2.2-2.9 3.3-1.4 2.1-3 4.2-4.5 6.2-2.5 3.3-5 6.6-6.9 10.4l-3.1-1.3c-1.5-.6-3.1-1.3-4.1-2.3-1.1-1-1.9-2.5-2.6-4.7-1.2-4.1-1.5-8.6-.7-12.8.1-.5.2-.9.3-1.4.2-.1.4-.3.6-.4 2-1.7 5-4.7 6.8-7 2.3-2.9 3.8-5.6 5.3-8.5.8-1.5 1.7-3.1 2.7-4.8.1-.2.1-.3.2-.5 1.2-.5 2.1-1.4 2.8-2.2 2.8-3.1 5.1-6.5 7.1-10.1 9.8 7.6 18.4 16.3 26.2 25.8zM378.5 261c4.4 8.1 2 15.3-1.2 24.5-.7 1.9-1.4 4-2 6-1.6 5.3-4 11.9-6.5 18.9-.8 2.2-1.6 4.3-2.3 6.5.1-3.2.1-6.3.1-9.4 0-11.7 0-23.7 2.6-35.1 1-4.3 2.6-9.6 6.3-13 .5-.4 1-.7 1.5-1.1l1.5 2.7zm.6-9.3c-2.3 1.2-4.6 2.5-6.6 4.4-4.7 4.3-6.6 10.4-7.7 15.3-2.7 11.9-2.7 24.2-2.7 36.1 0 5.3 0 10.7-.3 16.1-.3 5.8-.8 11.8-3.2 17.2-2.5 5.6-6.9 9.5-11.7 10.6-1.6.4-3.7.4-4.6-.7-.8-1.3-2.3-9.8-2.2-11.3 1.3-27 4.5-42.9 13.4-65.2 1.5-3.8 3.5-9.5 5.6-15.5 1.5-4.2 2.9-8.4 4.3-12.1 0-.1.1-.2.1-.3.2-.2.5-.5.6-.8.1-.3.2-.6.2-.9 1.7-3.7 4.2-7.1 6.9-10.6 1.6-2.1 3.2-4.2 4.7-6.4.5-.8 1-1.6 1.6-2 .7-.4 1.7-.5 2.4-.6h.7c0 .1.1.2.1.4.2 1.5-.6 3.3-1.4 5-1.2 2.3-2.4 4.7-3.8 7-.6 1.1-.3 2.4.8 3 1 .6 2.4.3 3-.8 1.4-2.4 2.7-4.8 3.9-7.2 1.1-2.2 2.2-4.8 1.8-7.6-.1-.9-.4-1.7-.9-2.3l.1-.1c.3-.3.6-.4 1.1-.3.9.1 1.8.6 2.3 1.3.1.2.2.4.4.7.1.3.2.6.4.8.5 1.3.6 3 .7 4.7.4 6.2.4 13.2-3.5 17.6-1.6 1.8-4 3.1-6.5 4.5zm-41.6 180c-.4.2-.7.5-1 .9-.6.1-1.3.2-1.9.3 4.9-8.3 3.8-21.3 3.8-21.5l-.3-3.2c-.2-2.2-.4-4.2-.6-6.1.3-.7.2-1.6-.3-2.3-1.1-9.2-3.1-15.7-10.1-25-.1-.1-.2-.3-.3-.4-.1-.1-.2-.3-.3-.4-7.2-9.4-15.6-17.9-19.1-20.8-4.4-3.7-9.6-7.5-15.7-9.8 11.5.1 22.9 2.7 33.4 7.5 6.2 2.8 11.5 7.7 16.7 12.4l3 2.7c1.5 1.3 3.1 2.7 4 4.4.1.1.2.2.2.3v2.7c.2 2.3.8 4.5 1.4 6.6l.5 1.8c4 15.2 1.2 32.1-7.4 45.2-1.3 2.3-2.9 3.5-6 4.7zm-133.1-38.6c0-.2 0-.6-.1-.6.1-.1.3-.1.6-.1.6.1 1.3.5 2 .9l.5.3c4.6 2.5 9.9 3.5 15 2.6 4.3 4.8 10 10.6 17.3 16.9 1.7 1.4 19.8 14.6 34 22.2-29-1.3-58-5.3-82.6-8.8 8.9-8.6 14-21 13.3-33.4zm80.5 42.6c-.2-.1-.3-.2-.5-.3-12.5-4.4-39-23.2-41.8-25.6-11.2-9.7-18.6-18.1-22.8-23.5-12.7-16.2-23.4-31.1-26.2-49.5.6-.4 1.2-.9 1.8-1.4.4-.3.7-.6.9-.7 6.8-3.2 12.6-12.5 14.9-17.5 2.1-4.5 4.6-11.9 5.7-15.3 3 .8 5.9 2.7 8.5 4.4l59.3 39c-.9 1.4-1.8 3.4-1.5 5.5.2 1.5 1 3.7 3.8 5.3.9.5 1.8.7 2.7.7.9 0 1.7-.2 2.6-.5.1 1.1.4 2.3 1 3.3 1 1.8 2.7 3.1 4.6 3.6.6.1 1.2.2 1.8.2.7 0 1.5-.1 2.2-.3 0 .4-.1.8-.1 1.2 0 .6.1 1.4.4 2.2.5 1.2 1.5 2.1 3 2.7 1.2.5 2.4.7 3.7.7.2 0 .4-.1.6-.1-.3.9-.4 1.9-.4 2.7.2 3.2 2.7 6.1 5.9 6.9.6.2 1.3.2 2 .2h.2c-.8 1.5-1.3 2.9-1.3 4.2-.1 2.3.9 4.4 2.6 5.7.9.6 1.9 1 3.3 1.2h.5c-1.5 2.5-1 7-.2 8.8.8 2 2.8 3.4 5.6 4.1-.2.2-.4.4-.5.6-1.8 2.4-1.7 6.1.1 8.6.4.6 1 1.1 1.6 1.6-.1.1-.3.1-.4.2-.9.6-1.6 1.3-2.1 1.9-.7.8-1.6 2-1.9 3.5-.5 2.2.3 4.5 2.1 6.3l.3.3c-1 .4-2 .9-3.2 1.6-1.5 1-2.5 1.9-3.3 3-.8 1-1.2 2.2-1.4 3.3-3.8.3-7.6.6-11.4.8-5.2.2-10.6.4-16.1.4h-6.6zm45.7-28.8c.7-1 1.9-1.6 2.9-1.9l.3 3.6.3 3.2c0 .2 0 .4.1.7-1.6-.6-2.8-1.4-3.4-2.2-.8-1-.8-2.6-.2-3.4zm.1 11.5c.8-.5 2.1-.7 3.4-.4-.1 2.3-.5 5-1.1 7.4-1.2-.6-2.5-1.2-3.4-2.1-.7-.7-1.1-1.6-.9-2.3.1-.5.6-1.1 1-1.6.3-.5.7-.8 1-1zm-2.6-19.1c-1.1-.4-1.9-.9-2.1-1.5-.5-1.1-.5-4.1-.1-4.8.7-.9 2.8-3.6 4.4-3.6.1 0 .2 0 .2-.1 1.2 3.3 1.9 6.6 2.4 10.4-1.3.2-3.1.2-4.8-.4zm-5.7-13c-.6-.1-1.1-.2-1.4-.4-.5-.3-.7-1.1-.7-1.8 0-.9.4-1.8 1.1-2.9.8-1.3 1.7-2.2 2.7-2.7.1 0 .1 0 .2-.1 1.8 2.4 3.2 4.6 4.3 6.7-1.9 1-4.1 1.6-6.2 1.2zm-1.9-12.5c-1.3 1.1-3 1.6-4.4 1.3-1.4-.3-2.5-1.6-2.6-2.8 0-.7.2-1.6.8-2.7.5-.9 1-1.4 1.5-1.7 1.6 1.8 3.2 3.7 4.9 5.8-.1 0-.2.1-.2.1zm-13.6-8.8c-.5-.2-.6-.3-.6-.3v-.5c0-1.1.1-3.4 1.2-5 1.4 1.3 3.1 3.1 5 5.1-1.7 1.1-3.8 1.5-5.6.7zm-5.6-6.5c-.7.4-1.5.6-2.3.4-.8-.2-1.5-.7-1.8-1.4-.7-1.3-.4-3.2 0-4.9l.8-.8.1-.1c1.9 1.3 3.7 2.6 5.3 4-.5 1.1-1.2 2.2-2.1 2.8zm-8-8.2l-.6.6c-1.2 1.1-2.8 1.7-3.5 1.3-1.5-.9-1.6-1.7-1.6-2-.1-1.2.7-2.6 1.3-3.2 1.7.6 3.3 1.3 4.9 2.1-.2.4-.4.8-.5 1.2zm30.5 83.6c.5-.6 1.2-1.2 2.2-1.9 1.2-.8 2.3-1.3 3.3-1.5.6-.1 1.1-.1 1.7 0-.7 1.2-1.5 2.2-2.5 3-.1 0-.1.1-.1.2-1.6.2-3.1.4-4.7.5 0-.1 0-.2.1-.3zm25.8-69.6c-.6-.6-1.1-1.1-1.7-1.6l-3-2.7c-5.4-4.9-11.1-10-17.8-13.1-12.9-5.9-27.1-8.6-41.3-7.8-.6 0-1.1.2-1.6.4l-2.5-1.7c.1-3.4-.2-6.4-1-8.9-1.1-3.6-3.2-6.7-5.9-8.7-.5-.4-1-.7-1.5-1-.9-.6-1.7-1.1-2.3-1.7-1-1.2-1.1-3-1-5.1 1.4.2 2.8.3 4.3.3 2.4 0 4.8-.2 7.2-.8.5-.1 1.6-.4 2.5-1.1 1.5 2.3 3.2 4 4.8 5.2 7.1 5.4 18 7.1 23.3 7.2h.7c8 0 16.1-2.8 25.1-8.6-1 7.4-1.7 15.4-2.1 24.6-.1 1.6 1.4 12.1 3.1 14.2 1.4 1.7 3.6 2.7 6.3 2.7.9 0 1.8-.1 2.8-.3.8-.2 1.7-.5 2.5-.8l-.9 9.3zm-78.3-115.5c.2 0 .4-.1.5-.1l2.4-.3c4-.4 8.4-.9 10.7-4.9.6-1.1.2-2.4-.8-3-1-.6-2.4-.2-3 .8-1.2 2-4.2 2.3-7.4 2.7-.3 0-.6.1-.8.1 0-1.7.2-3.4.7-4.9.3-1.1.7-1.7 1.2-2.1 1-.9 2.9-.9 4.7-.8 3.3.1 6.7.2 9.9.7 2.1.3 4.1.8 6.2 1.3 3 .7 6 1.4 9.2 1.7 6.9.6 12.7-1.5 16-5.6 3.7-4.5 3.7-10.7 3.8-15.2v-2.9c1.4 1 2.9 2 4.6 2.8 2.4 1 4.9 1.6 7.1 2.1 1.5.3 3.1.7 4.9.7h.5c.7 0 2.1-.1 3.8-.5-.6 4.5-.3 9.1 1 13.4.6 1.9 1.6 4.7 3.8 6.7 1.6 1.5 3.6 2.4 5.4 3.2l3.1 1.3c-1.3 3.5-2.7 7.5-4 11.4-1.6 4.6-3.1 9-4.4 12.5-1-.2-1.9-.3-2.6-.2-1.8.1-4.3.1-6.4 1.5-.2-1.5-.5-3-1.4-4.3-1.5-2.4-4.2-4-7.3-4.1-2.1-.1-4.7 0-7.2 1.7-.7.5-1.5 1.3-2.2 2.1-.1-.1-.1-.3-.2-.4-1.8-3.2-4.7-4.6-8.4-4-2.1.3-4.1 1.8-5.4 4.1-1.6-1.4-3.7-2.1-5.9-1.9-2.3.2-4.5 1.6-5.7 3.6-.9 1.4-1.2 2.9-1.3 4.5-.3-.2-.6-.4-.9-.5-2.1-.9-4.3-.8-6.1.2-.3.2-.6.5-.9.8 1.2-1.9 2.5-3.7 3.9-5 5-4.9 11-8.4 18.4-12.3 1.1-.6 1.5-1.9.9-3s-1.9-1.5-3-.9c-6 3.3-13.5 7.3-19.4 13.1-2.1 2.1-4 4.8-5.7 7.8-1.3-.4-3.2-.6-5.1-.2.2-.4.4-.8.6-1.3.6-1.6.6-6.3-2.7-8.2-1.3-.7-3.4-1.4-6-.8.4-.9.6-1.9.6-3 0-1.8-.9-3.4-2.3-4.1-.7-.3-1.4-.4-1.9-.4-1.7 0-3.4.4-5 1 .1-1 .1-2 0-3 0-.2-.1-.5-.2-.8 3-1.6 6-2.4 9.7-3.1zm47.9-66.2c.4.8.8 1.6 1.5 2.2 1.3 1.2 3 1.9 4.7 1.9 1.1 0 2.2-.3 3.2-.9 1.3-.8 2.3-2.2 2.8-3.9.4-1.3.5-2.6.6-3.9.1-1.2-.9-2.2-2.1-2.3-1.2-.1-2.3.9-2.3 2.1 0 1-.1 1.9-.4 2.7-.2.7-.6 1.2-1 1.5-.6.4-1.8.2-2.4-.4-.7-.7-1.1-2-.9-3.2.2-1.2-.7-2.3-1.9-2.5-.6-.1-1.2.1-1.6.4-.1-2.1-.3-4.2-.7-6.1-.9-4 .4-7.7 1.5-10.1.7-1.5 1.3-2.2 1.6-2.6.2.5.5 1.2.6 1.5l.1.3c.7 2.1 1.5 4.5 3.6 6.1 2.2 1.7 5.4 2.1 7.8 1.1 1.9-.8 3.1-2.2 4.2-3.5.6-.7 1.2-1.4 1.8-1.9 2.4 2.3 5.5 3.8 8.8 4.3.8.1 1.6.2 2.5.2 1.1.1 2.1.1 3.1.4 1.1.3 2.3 1 2.4 1.9.1 1.1-1 2.4-2.1 3.6-1.4 1.6-2.7 3.3-3.8 5-.2-.6-.6-1.2-1.3-1.4-1.1-.4-2.4.1-2.9 1.2-.6 1.4-.4 3.1.4 4.4.5.7 1.1 1.3 1.9 1.6.3.9.8 1.9 1.6 2.7 1.7 1.8 4.1 2.9 6.6 2.9h1.9c0 .3-.1.7-.2 1l-.1.4c-.6 2.3-.3 4.5.8 6.3.5.8 1.2 1.5 2.1 2-.7 1.3-1.4 2.5-2.1 3.7-1.4 2.7-2.8 5.2-4.9 7.8-1.7 2.1-4.4 4.8-6.2 6.3-1.4 1.1-4 1.9-6.7 2.1-1.4.1-2.8-.3-4.2-.6-2.1-.5-4.3-1-6.3-1.8-4.8-2.1-7.9-6.1-9.6-9-2-3.4-3.6-7.6-4.8-13.2v-.1c.2-.3.4-.6.5-.9.8-2.4 1.5-5.8 1.9-9.3zm19.6 126c-.1 0-.1 0-.2.1-10 7.1-18.2 10.2-26.5 10-4.5-.1-14.5-1.5-20.7-6.3-3.3-2.5-7.1-7.6-8.2-17.3.2-.3.4-.6.4-.9.2-1.3 1.1-2.5 2.1-3.7 7.7-9.4 19.5-15.5 31.5-16.3 7.6-.6 14.6.9 20.4 4.2 2.4 1.4 5.5 3.7 7.1 7-2.7 7.8-4.6 15.3-5.9 23.2zm-59.9-28.7c-.5-.8-1-1.6-1.6-2.3 1.6-1.2 3.3-1.3 4.3-1.1-.7 1.7-1.3 3.5-1.8 5.2l-.9-1.8zm-13.5-17.8l-.9 1.6c-1.1-1-2.3-1.9-3.5-2.8 1.5-1.2 3.5-1.9 5.6-1.9v.1c0 .9-.7 2-1.2 3zm8.8 4.5c.8.4.9 2.3.7 2.9-.5 1.3-1 2.3-1.7 3.2-1.4-1.6-2.9-3.3-4.5-4.9 3.1-2.5 4.9-1.6 5.5-1.2zm27.3 3.5c.5-.8 1.5-1.4 2.5-1.5 1-.1 2 .3 2.7 1 .2.2.4.5.5.7.1.3.2.8.2 1.2-2.3.6-4.4 1.5-6.6 2.4 0-1.5.1-2.8.7-3.8zm11.7-1.8c.6-1.1 1.4-1.8 2.2-1.9 2.5-.4 3.3.7 3.9 1.8.2.4.3.9.4 1.5-.9 0-1.9 0-2.8.1-1.4.1-2.8.3-4.2.5.1-.7.2-1.4.5-2zm23.9 4.9c-3.4-1.6-7-2.6-10.9-3.1.4-.8 1.2-1.6 1.9-2.1 1.2-.8 2.4-1.1 4.5-1 1.6.1 3 .9 3.7 2 .7 1.1.8 2.6.8 4.2zm-53.3 10.6c.5.2.9.5 1.4.8-.7.7-1.3 1.4-2 2.2.1-.9.3-1.9.6-3zm6.6-3.8v-.7c.1-1.1.3-3 1.3-3.6.5-.3 1.3-.3 2 0 .5.2.9.6 1.4 1-1.6 1.1-3.2 2.2-4.7 3.3zm-4.4 0c-.2-.1-.3-.2-.4-.3-.1 0-.2-.1-.4-.2.3-.9.7-1.8 1.1-2.6-.1.7-.3 1.4-.3 2.2v.9zm60.5.2c-1.1-1.4-2.5-2.7-4.1-3.8.3-.6.8-1.2 1.3-1.5 1-.7 2.5-.8 4.3-.8h.8c-.8 2-1.6 4.1-2.3 6.1zm-90.4-25.6c.4-.3.8-.5 1.3-.7.1 1.4-.3 2.9-1.1 4.1-.9-.5-1.9-1-2.8-1.5.8-.7 1.7-1.3 2.6-1.9zm-6.2 5c4.5 2 8.7 4.6 12.4 7.9 3.1 2.7 5.8 5.9 8.5 9 1.6 1.8 3.1 3.6 4.2 5.5 2.2 3.9 3 8.5 3.7 13v.1c.4 4.5 1.4 8.1 2.7 11.1-.4.3-.6.8-.7 1.2-.1 0-.2 0-.2.1-8.9 1.9-18.5-.3-25.7-6-7.2-5.6-11.6-14.4-11.9-23.5-.1-3.7.4-7.2 1.7-10.4 1.1-2.8 2.9-5.5 5.3-8zm62.8-111.7l.3-.1c1.8-.7 3.9-1.6 5.2-3.6.3-.5.6-.9.9-1.4.6-1.1 1.3-2.1 2-2.8.6-.5 1.3-.9 2-.9.2 0 .4 0 .5.1.2.1.4.3.6.5.4.4.8.7 1.3 1 2.1 1.2 5.1.5 6.5-.2 1-.5 1.8-1.2 2.6-1.8.4-.3.8-.7 1.3-1 1.3-.9 2.9-1.4 4.4-1.4 1.1 0 2.6.2 3.6 1.4.8.9 1.3 2.3 1.7 3.7.5 1.4.9 2.8 1.8 4.2 1.5 2.4 4 4.1 6.8 4.5 2.1.4 4.1.1 6.1-.3 1.9-.3 3.7-.5 5-.1 1.7.5 3.2 1.9 4.5 3.3 2.4 2.5 5 5.6 6.3 9.2 2.1 5.9.2 12.5-1.8 17.1-2.1 5-5.1 9.6-8.6 13.6-.3.3-.8.9-1.4 1.1-.4 0-.9-.3-1.2-.7-.4-.7-.5-1.7-.2-2.9l.1-.3c.3-1.3.9-3.4-.6-5.1-1.2-1.4-3-1.4-3.6-1.4H357c-1.3 0-2.6-.6-3.4-1.5-.4-.5-.5-.8-.5-.9 0-.3.4-.9.6-1.2 1.3-1.9 2.6-3.8 4.2-5.5 1.5-1.7 3.5-4.1 3.1-7.1-.4-2.6-2.6-4.8-5.6-5.6-1.4-.4-2.7-.4-3.9-.5-.7 0-1.4-.1-2.1-.2-2.4-.3-4.7-1.5-6.5-3.2-.3-.3-.9-.9-1.8-1.1-1.1-.3-2.2-.1-3.3.7-1.2.8-2.1 1.8-2.9 2.8-.9 1-1.7 1.9-2.6 2.3-1 .4-2.5.2-3.5-.6s-1.6-2.3-2.1-4l-.1-.3c-.7-2.1-1.4-4-3.1-4.6-.5-.2-.9-.3-1.4-.3-2.9 0-4.7 3.1-5.8 5.4-2.1 4.4-2.8 8.9-1.9 13 1.3 5.8.7 14.7-1.2 18.7-1.2 2.5-3 4.3-5.7 5.8-2.5 1.3-5.6 1.4-7.5.2-.5-.3-.8-.6-1.1-1-.4-.6-.7-1.5-.9-2.8-.3-2.1-.3-5.1 1.3-7.7 1.8-3 3.2-4.5 5.7-6.9l.8-.8c1.2-1.2 1.7-3.1 1.2-4.6-.5-1.6-1.9-2.8-3.9-3.2-3.7-.7-6.7-4.2-6.9-8-.2-3.8 2.2-7.7 5.7-9.5 1.7-.9 3.6-1.3 5.6-1.8 1.7-.5 3.5-1 5.2-1.7zm-53.2-3.7c13.1 0 26.2 1.4 38.9 4.1-4.3 2.9-6.8 7.8-6.6 12.8.3 5.8 4.8 11 10.5 12.1.3.1.4.1.5.1 0 .1-.1.1-.1.2l-.8.8c-2.6 2.6-4.3 4.2-6.4 7.8-2.2 3.7-2.2 7.7-1.9 10.5.2 1.3.5 3.2 1.6 4.8.6.8 1.4 1.5 2.3 2.1 1.6 1.1 3.6 1.6 5.7 1.6s4.4-.6 6.3-1.6c1.4-.8 2.6-1.6 3.6-2.6 1.2 4.5 2.7 8.1 4.5 11.2.7 1.2 1.7 2.6 2.8 4-.1.2-.1.5-.1.7l-.1 6.2c-.1 5-.3 9.4-2.8 12.5-2.4 2.9-7 4.4-12.2 4-2.8-.2-5.6-.9-8.6-1.6-2.1-.5-4.3-1-6.5-1.4-3.5-.6-7-.7-10.4-.8-2-.1-5.4-.2-7.7 1.9-1.4 1.2-2.1 2.9-2.5 4.1-.7 2.2-1 4.6-.9 7-5.3 1.1-9.5 2.8-14.7 6-6.3 3.8-11.1 9.2-13.4 15.3-1.4 3.7-2.1 7.8-2 12.1.3 10.4 5.4 20.5 13.6 26.9 4 3.1 8.6 5.3 13.4 6.5-.2 3.1 0 6.2 2 8.6 1 1.2 2.2 2 3.3 2.7.4.3.9.5 1.3.8 1.9 1.4 3.5 3.7 4.3 6.4.4 1.4.7 3 .8 4.7l-49.3-32.4c-2.7-1.8-6-3.9-9.8-5l.1-.5-1.9.1c-.3-.1-.7-.1-1-.2-.4 0-.7.1-1.1.2-2.8-.3-7.2-2.3-8.2-3.9-.7-1-1.2-2-1.8-3-1-1.7-2-3.5-3.3-5.1-5.2-5.9-13.4-6.6-20-6.6-1.6 0-3.2 0-4.7.1-30.7 1-61.4-2.3-91.2-9.8 25.5-74.4 95.3-124.4 174.5-124.4zM77 302.1c3.5.8 7 1.7 10.5 2.7l1.5.4c1.9.5 4 1.1 5.3 2.3.3.3.9 1.1 1.6 1.9 3.1 4 8.8 11.4 19.4 14.3 8.6 2.4 18 2.9 30.9 1.5 3-.3 6-.8 8.9-1.2 6.3-1 12.8-1.9 19.1-1.5 6.4.5 12.3 5 13.8 10.6-.2.7-.2 1.4 0 2 .2.6.7 1.2 1.3 1.6.3 1.9.6 3.8 1 5.6l-12 2.1c-2.6.5-5.6 1-8.2 2.7-4 2.6-5.7 7.1-7.1 11.2-3.9 11.8-9.6 50-9.7 62-9-1.9-18.1-4.2-28-7.4l-1.4-.5c-8.6-2.8-20.4-6.6-26.7-12.1l-1.4-1.2c-2.3-2-3.9-3.5-5.9-3.5-.7 0-1.3.2-1.9.5-.5-.2-1-.3-1.5-.5-7.6-19.5-11.3-41.5-11.3-67 0-9.7.3-16.8 1.8-26.5zm6 151.3c.6-.7 4.2-2.2 7.9-1.7.2 2.5.5 5 .7 7.5h-1.5c-2.2-.3-4.6-1-6.6-2.4-.3-.2-.7-.5-.9-.8-.4-.7-.2-1.8.4-2.6zm-3.5-52.9c.3-.5 1.2-1 2.4-1.1 1.3-.1 2.7.1 4 .5.5 2.3 1 4.7 1.4 7l-3.6-1.8c-1.4-.7-2.8-1.4-3.6-2.4-.6-.6-.9-1.6-.6-2.2zm-1.3 14.9c1.6-2.9 5.5-4 8.8-3.6l1.1.5c.4 2.8.7 5.7 1 8.7-3.3 0-6.6-.9-9.4-2.6-.8-.4-2-2.2-1.5-3zM79 428c.7-.6 1.8-1 2.6-1.2 2.5-.7 5.1-.9 7.7-.7h.1l.1.1.3 4.8c0 .9.1 1.9.1 2.8-1.3-.2-2.5-.3-3.7-.3-.5-.1-.9-.2-1.4-.3-.7-.2-1.4-.3-2.4-.5-.7-.2-1.4-.3-1.9-.6-.4-.2-.7-.5-1.2-1-.7-.7-1-1.3-1.1-1.7-.1-.4.2-1 .8-1.4zm-.7 13.1c0-.1.2-.9 1.2-1.7.8-.6 2.7-1.5 6.3-1.5 1.3.3 2.6.4 4.3.5 0 1.4.1 2.7.2 4.1l.3 4.5c-3.6-.1-6.9-.5-9.1-1.1-1.2-.4-2-.8-2.5-1.3-.9-.9-.9-2.4-.7-3.5zm5.6 30.4c-1.2-1.7-1.3-4.2-.1-5.9.9-1.3 2.9-2 6-2.1.8.1 1.6.1 2.4.2.4 4 .9 8.1 2 12.1-1.6-.2-3.3-.6-4.8-1.1-2.9-.8-4.6-1.8-5.5-3.2zm312 18.5c-.7.1-77.8 12.8-115 13.2-113.3 1.4-169.2-18.6-182.1-26.6-1.5-4.7-2-9.8-2.5-14.9-.6-6.4-1.3-12.9-1.6-19.4-.1-2.1-.2-4.2-.2-6.3-.1-1.7-.1-3.5-.2-5.2-.5-11-1.7-20.9-3.6-30.4.6.5 1.5 1.2 2.2 1.9l1.4 1.3c7 6.1 19.3 10.1 28.3 13l1.4.5c22.2 7.2 41.4 10.3 62.4 13.3 30.5 4.4 68.4 9.9 105 9.9 5.5 0 11-.1 16.3-.4 44.5-2 82.5-12.9 113-32.3.1 1.9-.1 3.5-.4 4.8l-2.3 9.8c-5.9 25-10.6 44.7-12.6 63.7-.3 1.7-2.6 2.7-9.5 4.1zm22.9-26.7c-1.5.2-3.4-.6-4.8-2.1-.1-.1-.2-.1-.3-.2.3-1.6.6-3.1.9-4.7h.1c.9-.2 2 0 3.4.6 1.8.8 3.6 2.3 3.6 3.9-.1 1.2-1.4 2.4-2.9 2.5zm-1.9 21.3c-.6.8-2 1.2-3.3 1.5-1.3.3-2.6.5-4 .6 0-.1.1-.2.1-.4.3-2.5.6-4.9.9-7.4.5 0 1 .1 1.5.1 1.4.3 3.3.9 4.4 2.2.8 1 1 2.5.4 3.4zm2.9-11.4c-2.7 1.8-6.8.5-8.3-.2.3-1.8.6-3.7 1-5.5 2.5.3 4.9 1.5 7.2 2.8.4.2 1.1 1 1.1 1.6 0 .5-.5 1-1 1.3zm6.6-24c-.4.4-1.3.7-1.9.9-2.7.8-6.3 1.4-8.5-.1.4-1.6.7-3.3 1.1-5 2.8.2 5.6 1.1 8.2 2.4.5.2.9.5 1.2.8.1.2.1.7-.1 1zm1.6-12.4c-1.3 1.7-3.6 2.2-4.8 2.3-1.5.2-3.2.1-4.8-.1.6-2.5 1.2-4.9 1.8-7.5 2.2.5 4.2 1.3 6.2 2.4 1.5.8 2.1 1.7 2.1 2.1-.1.1-.1.4-.5.8zm3.9-14.6c-.4.7-1.1 1.4-2.2 2.1-2.3 1.4-5.1 2.1-7.8 1.9-.1-.1-.2-.2-.4-.3.2-.9.4-1.8.7-2.8l1.3-5.4c2.5-.2 5.1.7 6.8 1.6.7.3 1.4.7 1.6 1.1.4.4.3 1.2 0 1.8zm-1.6-11.9c-1.1.7-2.7 1-4.3 1.2l-1.2.2c.2-1.5.2-3.2.2-5l1.6-.1c1-.1 1.1-.1 2 .2 1.6.5 2.8 1.2 2.9 1.4.2.6-.4 1.6-1.2 2.1zm13.5-81.8c0 25.6-5.2 50.4-15.4 73.7-.8-.1-1.4-.1-2.2 0l-4 .3c-.3-.1-.5-.2-.8-.2-.7 0-1.3.2-1.9.6-20.9 13.5-45.5 22.9-73.4 28.1.4-.5.8-1 1.2-1.6 9.3-14.2 12.2-32.4 7.9-48.7-.2-.6-.3-1.2-.5-1.8-.6-2-1.1-3.9-1.3-5.8-.2-1.9 0-3.8.2-5.8l1.3-15c3.1-2.4 5.8-5.7 7.6-9.7 1.1-2.4 1.8-4.8 2.3-7.3 0-.1.1-.2.1-.3 1.8-6.4 4.9-14.9 7.9-23.1 2.5-7 4.9-13.7 6.6-19.1.6-2 1.3-4 1.9-5.9 3.2-9.3 6.2-18.2.9-28l-1.6-3c.2-.1.3-.2.5-.3 2.7-1.5 5.5-3 7.7-5.5 5-5.7 5-13.7 4.6-20.8-.1-.9-.1-2-.3-3 4.5-1.3 9.7-3.4 15.5-5.8 23.1 31.5 35.2 68.9 35.2 108zm-31.1-114.4c-8 3.3-15 6.2-20.6 7.9 0-.1-.1-.2-.1-.3 0-.1-.1-.1-.1-.2-.1-.2-.1-.4-.2-.6 4.6-1.9 17.9-7.8 18.5-8 5.5-2.5 11.1-5 16.8-7.4.2.4.5.9.8 1.4.1.3.3.6.5.9-5.5 2.1-10.7 4.3-15.6 6.3zm50-52.1c-.4.2-.9.5-1.3.7-1.1.7-1.7 1.5-1.9 2.6-.3 1.7.7 3 1.5 4 .9 1.2 1.2 1.7 1 2.2-.1.2-1 .5-2.7.1-.2 0-.4-.1-.6-.2-1.3-.4-3.5-1.1-5.8 0-.7.3-1.4.7-2 1-1.9 1-3.3 1.7-5.3 1.9h-1c-.8 0-1.7 0-2.7.3-2.1.6-3.5 2.4-4.3 3.5-.9 1.2-2.4 3.1-2.2 5.5.2 2.4 1.9 3.9 3.2 5.1.3.2.5.5.8.7 1.1 1.1 1.8 2.5 1.9 3.7.1 2.8-2.8 5.2-4.1 6.1-2.5 1.7-3.7 4.3-3.4 7 .1.5 0 .7 0 .7-.1.1-.6.2-1.1.2-.2-.4-.4-.9-.7-1.4.1-.3.2-.7.2-1.1-.3-2.4-1.3-3.9-2.3-5v-.1h-.1c-.8-.8-1.6-1.3-2.3-1.7-.6-.3-1.2-.8-1.9-1.2-1-.7-2.1-1.4-3-1.8-1-.5-1.6-1.3-1.7-1.9 0-.3.1-.8.3-1.3.2-.6.4-1.3.5-2.2.2-1.9-.5-3.4-1.2-4.8-.2-.4-.4-.8-.5-1.2-.6-1.6-.6-3.2 0-4.5.6-1.3 1.8-2.2 3-2.2.4 0 .8 0 1.2.1.7.1 1.5.2 2.4.1 1.8-.2 3.6-1.3 5.2-3.1 1.8-2.1 2.8-4.4 3-6.6 0-.6 0-1.2-.1-1.8 0-.6-.1-1.2 0-1.6.2-.9 1-1.9 1.8-2.8 1.1-1.2 2.3-2.4 3.6-2.5.6-.1 1.4.1 2.2.3.6.1 1.2.3 1.8.3 3.2.4 6.1-.7 8.8-1.8 1.9-.7 3.7-1.4 5.5-1.6 2.6-.2 5.7.4 6.5 2.1 1.1 2 .8 2.6-2.2 4.2z"/><path class="st5" d="M336.5 210.9c1.6.9 3.9 1.5 6.2 1.5 1 0 1.9-.1 2.7-.3 2.1-.5 4.2-1.9 6.1-4.1 2.5-2.8 4.4-6.6 4.5-6.8l.5-1-.5-1c-.9-1.8-3.8-7.1-5-8.6-.8-.9-2.4-2.5-4.6-2.5-1 0-2 .3-2.9 1-1.1.8-1.6 2-2 2.9-.1-.3-.3-.5-.4-.7-1-1.8-2.4-2.9-4-3.1h-.3c-1.7 0-3.2 1-4.6 3.1-1.8 2.7-3.2 5.7-4.1 8.8l-.3.9.4.8c2 4 5 7.2 8.3 9.1zm-.7-17.1c.5-.7.8-1 .8-1 .1.1.3.3.6.9.8 1.5 2.1 3.9 4.4 3.9 2.5 0 3.3-2.2 3.8-3.4.2-.5.5-1.2.7-1.4.3-.2.9-.1 1.5.7.6.7 2.5 4 4 6.8-.7 1.2-1.9 3.2-3.3 4.8-1.4 1.5-2.7 2.5-4 2.8-1.5.4-4.3.1-5.6-.7-2.4-1.4-4.6-3.6-6.2-6.5.8-2.5 1.9-4.8 3.3-6.9z"/><path id="XMLID_150_" class="st5" d="M337.4 185.8c.9.9 2.2 1.4 3.4 1.4 1.1 0 2.2-.4 2.9-1.2.8-.9.8-2.3-.1-3.1-.8-.8-2.2-.8-3 0 0 0 0-.1-.1-.2-.4-.4-.6-1.3-.7-2-.1-.5-.1-1-.1-1.6-.1-1.2-1.1-2.1-2.3-2.1-1.2.1-2.2 1.1-2.1 2.3 0 .6.1 1.3.2 1.9.2 1.5.6 3.2 1.9 4.6z"/><path id="XMLID_149_" class="st6" d="M135.7 433c-4.4-1-9-2-16.7-2.5l-2.3-.1-.1 2.3c-.3 11.7 0 23.5.9 35.2l.1 1.7 1.7.3c2.4.4 4.2.8 6 1.2 2.5.5 5 1.1 9.1 1.6h.3c1.1 0 2-.8 2.2-1.9.2-1.2-.7-2.3-1.9-2.5-3.9-.6-6.3-1.1-8.8-1.6-1.4-.3-2.8-.6-4.5-.9-.3-4.3-.5-8.6-.7-12.9l10.7 2h.4c1 0 2-.7 2.2-1.8.2-1.2-.6-2.4-1.8-2.6l-11.2-2.1h-.4c-.1-4.5-.1-8.9 0-13.4 6 .5 9.8 1.3 13.8 2.2 1.2.3 2.4-.5 2.6-1.7.3-1-.4-2.2-1.6-2.5z"/><path class="st6" d="M228.3 459.4c-1.8-6-3.7-12.1-16.5-12.1h-.5c-8 .1-12.2 7.5-13.5 14.4-1 5.3 1 13.4 4.3 17.6 2.4 3.1 6.9 6.3 12.7 6.3 3.2 0 6.4-1 9.5-3.1 5.5-3.7 6.1-16.2 4.1-22.9l-.1-.2zm-6.4 19.6c-2.3 1.5-4.7 2.3-7 2.3-4.2 0-7.5-2.5-9.2-4.6-2.5-3.3-4.2-10-3.5-14.1.9-5.2 3.8-10.7 9.2-10.8h.5c9.5 0 10.5 3.4 12.3 9l.1.3c1.6 5.6.7 15.8-2.4 17.9zM172.7 465.2c-.7-.4-1.5-.8-2.3-1.2-.9-.5-1.7-.9-2.5-1.4 2-.1 4.1-.4 6.1-1.3 4.6-2.1 7.2-5.6 7.1-9.3-.1-3.9-2.6-8.8-6.4-10.1-3.3-1.1-6.7-.8-9.7-.6-1.3.1-3.1.9-4.3 1.5l-1.2.6-.1 32.6c0 1.2 1 2.2 2.2 2.2 1.2 0 2.2-1 2.2-2.2v-10.9c1.5 1.1 3.1 2 4.6 2.8.7.4 1.4.7 2.1 1.1 4 2.3 7.3 5.8 9.4 9.9.4.8 1.2 1.2 2 1.2.3 0 .7-.1 1-.2 1.1-.5 1.5-1.9 1-3-2.5-4.8-6.5-9-11.2-11.7zm-8.9-19.1c.7-.3 1.2-.5 1.4-.5 2.7-.2 5.5-.5 7.9.3 1.6.5 3.3 3.6 3.4 6.1.1 2.2-2.3 4.1-4.5 5.2-2.1 1-4.6 1.2-8.3.8l.1-11.9z"/><path id="XMLID_144_" class="st6" d="M273.6 452.8c-8.8-1.2-17.7-1.4-26.5-.5-1.2.1-2.1 1.2-2 2.4.1 1.2 1.2 2.1 2.4 2 3.8-.4 7.7-.6 11.5-.5l.2 30.6c0 1.2 1 2.2 2.2 2.2 1.2 0 2.2-1 2.2-2.2l-.2-30.5c3.2.2 6.3.4 9.5.8h.3c1.1 0 2-.8 2.2-1.9.2-1.1-.6-2.2-1.8-2.4z"/><path id="XMLID_143_" class="st6" d="M296.5 451.7c-1.2.2-2.1 1.3-1.9 2.5l4.1 30.3c.2 1.1 1.1 1.9 2.2 1.9h.3c1.2-.2 2.1-1.3 1.9-2.5l-4.1-30.3c-.2-1.2-1.3-2.1-2.5-1.9z"/><path id="XMLID_142_" class="st6" d="M341.4 480.3c-4 1-8.8-.2-12.1-3.1-3.1-2.7-5.1-6.8-5.4-11.3-.3-4.2 1.3-9.3 5.4-11.4 3.1-1.5 7.2-1.1 10.4-.8 1.2.1 2.3-.8 2.4-2 .1-1.2-.8-2.3-2-2.4-3.8-.4-8.6-.8-12.8 1.2-5.3 2.6-8.3 8.7-7.9 15.6.4 5.6 2.9 10.9 6.9 14.3 3.4 2.9 7.7 4.5 12 4.5 1.3 0 2.7-.2 4-.5 1.2-.3 1.9-1.5 1.6-2.7-.2-1-1.4-1.7-2.5-1.4z"/><path class="st6" d="M394.4 471.8c-.1-.1-.2-.3-.2-.4-4.4-8.9-9.6-17.6-15.5-25.6-1.9-2.6-4.2-3.5-6.3-2.4-1.7.9-2.2 2.7-2.4 3.6l-6.5 29.1c-.3 1.2.5 2.4 1.7 2.6.2 0 .3.1.5.1 1 0 1.9-.7 2.2-1.7l2.2-9.7c3.6-.9 7.2-1.2 10.9-1.5 1.7-.1 3.3-.3 5.1-.5 1.5 2.6 2.9 5.3 4.2 7.9.3.6.7 1.5 1.8 2.1 1 .6 2.5.4 3.1-.7.5-1 .2-2.3-.8-2.9zm-13.8-10.4c-3.2.2-6.3.5-9.5 1.1l3.3-14.6c0-.1.1-.2.1-.3.2.2.4.4.7.8 3 4.1 5.8 8.4 8.5 12.8-1.1.1-2.2.2-3.1.2z"/><path class="st5" d="M182.3 220.6c5.7 1.5 10 2.2 14.1 2.8 3.9.6 7.6 1.2 11.9 2.4l.8.4c.9.5 1.3.7 1.8.8l1.8.4.7-1.7c1.2-2.8 3.2-6.2 5.1-9.4 2.1-3.6 4.4-7.4 5.7-10.8.3-.8.7-1.6 1-2.4 2.5-5.8 5.6-13 1.7-18.8-4.6-6.9-11.7-9.5-18.4-6.7-5.8 2.4-10.8 8.6-12.6 14.9-4-2.8-9.7-5-13.4-5.3-9.7-.6-14.4 7.3-14.6 12.9-.6 13.7 7.5 18.7 14.4 20.5zm-.8-28.9h.7c3.8.2 11.2 3.6 13.4 6.6l3.8 5.2.2-6.4c.2-5.9 5.1-13 10.6-15.3 4.7-2 9.6 0 13 5.1 2.6 3.8.2 9.3-2.1 14.6-.4.8-.7 1.7-1 2.5-1.3 3.1-3.4 6.7-5.5 10.2-1.5 2.6-3.1 5.3-4.3 7.8-.2-.1-.4-.2-.6-.2-4.7-1.4-8.6-2-12.6-2.6-4-.6-8.1-1.3-13.7-2.7-7.9-2-11.5-7.3-11.1-15.9.1-3.1 2.5-8.9 9.2-8.9z"/><path id="XMLID_137_" d="M312.7 147.9l.3-.1c1.8-.7 3.9-1.6 5.2-3.6.3-.5.6-.9.9-1.4.6-1.1 1.3-2.1 2-2.8.6-.5 1.3-.9 2-.9.2 0 .4 0 .5.1.2.1.4.3.6.5.4.4.8.7 1.3 1 2.1 1.2 5.1.5 6.5-.2 1-.5 1.8-1.2 2.6-1.8.4-.3.8-.7 1.3-1 1.3-.9 2.9-1.4 4.4-1.4 1.1 0 2.6.2 3.6 1.4.8.9 1.3 2.3 1.7 3.7.5 1.4.9 2.8 1.8 4.2 1.5 2.4 4 4.1 6.8 4.5 2.1.4 4.1.1 6.1-.3 1.9-.3 3.7-.5 5-.1 1.7.5 3.2 1.9 4.5 3.3 2.4 2.5 5 5.6 6.3 9.2 2.1 5.9.2 12.5-1.8 17.1-2.1 5-5.1 9.6-8.6 13.6-.3.3-.8.9-1.4 1.1-.4 0-.9-.3-1.2-.7-.4-.7-.5-1.7-.2-2.9l.1-.3c.3-1.3.9-3.4-.6-5.1-1.2-1.4-3-1.4-3.6-1.4H357c-1.3 0-2.6-.6-3.4-1.5-.4-.5-.5-.8-.5-.9 0-.3.4-.9.6-1.2 1.3-1.9 2.6-3.8 4.2-5.5 1.5-1.7 3.5-4.1 3.1-7.1-.4-2.6-2.6-4.8-5.6-5.6-1.4-.4-2.7-.4-3.9-.5-.7 0-1.4-.1-2.1-.2-2.4-.3-4.7-1.5-6.5-3.2-.3-.3-.9-.9-1.8-1.1-1.1-.3-2.2-.1-3.3.7-1.2.8-2.1 1.8-2.9 2.8-.9 1-1.7 1.9-2.6 2.3-1 .4-2.5.2-3.5-.6s-1.6-2.3-2.1-4l-.1-.3c-.7-2.1-1.4-4-3.1-4.6-.5-.2-.9-.3-1.4-.3-2.9 0-4.7 3.1-5.8 5.4-2.1 4.4-2.8 8.9-1.9 13 1.3 5.8.7 14.7-1.2 18.7-1.2 2.5-3 4.3-5.7 5.8-2.5 1.3-5.6 1.4-7.5.2-.5-.3-.8-.6-1.1-1-.4-.6-.7-1.5-.9-2.8-.3-2.1-.3-5.1 1.3-7.7 1.8-3 3.2-4.5 5.7-6.9l.8-.8c1.2-1.2 1.7-3.1 1.2-4.6-.5-1.6-1.9-2.8-3.9-3.2-3.7-.7-6.7-4.2-6.9-8-.2-3.8 2.2-7.7 5.7-9.5 1.7-.9 3.6-1.3 5.6-1.8 1.7-.5 3.5-1 5.2-1.7z" fill="#73b4e2"/><path id="XMLID_136_" class="st8" d="M335.8 193.8c.5-.7.8-1 .8-1 .1.1.3.3.6.9.8 1.5 2.1 3.9 4.4 3.9 2.5 0 3.3-2.2 3.8-3.4.2-.5.5-1.2.7-1.4.3-.2.9-.1 1.5.7.6.7 2.5 4 4 6.8-.7 1.2-1.9 3.2-3.3 4.8-1.4 1.5-2.7 2.5-4 2.8-1.5.4-4.3.1-5.6-.7-2.4-1.4-4.6-3.6-6.2-6.5.8-2.5 1.9-4.8 3.3-6.9z"/><path id="XMLID_135_" class="st4" d="M379.1 251.7c-2.3 1.2-4.6 2.5-6.6 4.4-4.7 4.3-6.6 10.4-7.7 15.3-2.7 11.9-2.7 24.2-2.7 36.1 0 5.3 0 10.7-.3 16.1-.3 5.8-.8 11.8-3.2 17.2-2.5 5.6-6.9 9.5-11.7 10.6-1.6.4-3.7.4-4.6-.7-.8-1.3-2.3-9.8-2.2-11.3 1.3-27 4.5-42.9 13.4-65.2 1.5-3.8 3.5-9.5 5.6-15.5 1.5-4.2 2.9-8.4 4.3-12.1 0-.1.1-.2.1-.3.2-.2.5-.5.6-.8.1-.3.2-.6.2-.9 1.7-3.7 4.2-7.1 6.9-10.6 1.6-2.1 3.2-4.2 4.7-6.4.5-.8 1-1.6 1.6-2 .7-.4 1.7-.5 2.4-.6h.7c0 .1.1.2.1.4.2 1.5-.6 3.3-1.4 5-1.2 2.3-2.4 4.7-3.8 7-.6 1.1-.3 2.4.8 3 1 .6 2.4.3 3-.8 1.4-2.4 2.7-4.8 3.9-7.2 1.1-2.2 2.2-4.8 1.8-7.6-.1-.9-.4-1.7-.9-2.3l.1-.1c.3-.3.6-.4 1.1-.3.9.1 1.8.6 2.3 1.3.1.2.2.4.4.7.1.3.2.6.4.8.5 1.3.6 3 .7 4.7.4 6.2.4 13.2-3.5 17.6-1.6 1.8-4 3.1-6.5 4.5z"/><path id="XMLID_134_" class="st4" d="M271.3 248.8c.2 0 .4-.1.5-.1l2.4-.3c4-.4 8.4-.9 10.7-4.9.6-1.1.2-2.4-.8-3-1-.6-2.4-.2-3 .8-1.2 2-4.2 2.3-7.4 2.7-.3 0-.6.1-.8.1 0-1.7.2-3.4.7-4.9.3-1.1.7-1.7 1.2-2.1 1-.9 2.9-.9 4.7-.8 3.3.1 6.7.2 9.9.7 2.1.3 4.1.8 6.2 1.3 3 .7 6 1.4 9.2 1.7 6.9.6 12.7-1.5 16-5.6 3.7-4.5 3.7-10.7 3.8-15.2v-2.9c1.4 1 2.9 2 4.6 2.8 2.4 1 4.9 1.6 7.1 2.1 1.5.3 3.1.7 4.9.7h.5c.7 0 2.1-.1 3.8-.5-.6 4.5-.3 9.1 1 13.4.6 1.9 1.6 4.7 3.8 6.7 1.6 1.5 3.6 2.4 5.4 3.2l3.1 1.3c-1.3 3.5-2.7 7.5-4 11.4-1.6 4.6-3.1 9-4.4 12.5-1-.2-1.9-.3-2.6-.2-1.8.1-4.3.1-6.4 1.5-.2-1.5-.5-3-1.4-4.3-1.5-2.4-4.2-4-7.3-4.1-2.1-.1-4.7 0-7.2 1.7-.7.5-1.5 1.3-2.2 2.1-.1-.1-.1-.3-.2-.4-1.8-3.2-4.7-4.6-8.4-4-2.1.3-4.1 1.8-5.4 4.1-1.6-1.4-3.7-2.1-5.9-1.9-2.3.2-4.5 1.6-5.7 3.6-.9 1.4-1.2 2.9-1.3 4.5-.3-.2-.6-.4-.9-.5-2.1-.9-4.3-.8-6.1.2-.3.2-.6.5-.9.8 1.2-1.9 2.5-3.7 3.9-5 5-4.9 11-8.4 18.4-12.3 1.1-.6 1.5-1.9.9-3s-1.9-1.5-3-.9c-6 3.3-13.5 7.3-19.4 13.1-2.1 2.1-4 4.8-5.7 7.8-1.3-.4-3.2-.6-5.1-.2.2-.4.4-.8.6-1.3.6-1.6.6-6.3-2.7-8.2-1.3-.7-3.4-1.4-6-.8.4-.9.6-1.9.6-3 0-1.8-.9-3.4-2.3-4.1-.7-.3-1.4-.4-1.9-.4-1.7 0-3.4.4-5 1 .1-1 .1-2 0-3 0-.2-.1-.5-.2-.8 3-1.6 6-2.4 9.7-3.1z"/><path id="XMLID_133_" class="st8" d="M338.8 308.6c-.1 0-.1 0-.2.1-10 7.1-18.2 10.2-26.5 10-4.5-.1-14.5-1.5-20.7-6.3-3.3-2.5-7.1-7.6-8.2-17.3.2-.3.4-.6.4-.9.2-1.3 1.1-2.5 2.1-3.7 7.7-9.4 19.5-15.5 31.5-16.3 7.6-.6 14.6.9 20.4 4.2 2.4 1.4 5.5 3.7 7.1 7-2.7 7.8-4.6 15.3-5.9 23.2z"/><path id="XMLID_132_" class="st9" d="M278.9 279.9c-.5-.8-1-1.6-1.6-2.3 1.6-1.2 3.3-1.3 4.3-1.1-.7 1.7-1.3 3.5-1.8 5.2l-.9-1.8z"/><path id="XMLID_131_" class="st9" d="M265.4 262.1l-.9 1.6c-1.1-1-2.3-1.9-3.5-2.8 1.5-1.2 3.5-1.9 5.6-1.9v.1c0 .9-.7 2-1.2 3z"/><path id="XMLID_130_" class="st9" d="M274.2 266.6c.8.4.9 2.3.7 2.9-.5 1.3-1 2.3-1.7 3.2-1.4-1.6-2.9-3.3-4.5-4.9 3.1-2.5 4.9-1.6 5.5-1.2z"/><path id="XMLID_129_" class="st9" d="M301.5 270.1c.5-.8 1.5-1.4 2.5-1.5 1-.1 2 .3 2.7 1 .2.2.4.5.5.7.1.3.2.8.2 1.2-2.3.6-4.4 1.5-6.6 2.4 0-1.5.1-2.8.7-3.8z"/><path id="XMLID_128_" class="st9" d="M313.2 268.3c.6-1.1 1.4-1.8 2.2-1.9 2.5-.4 3.3.7 3.9 1.8.2.4.3.9.4 1.5-.9 0-1.9 0-2.8.1-1.4.1-2.8.3-4.2.5.1-.7.2-1.4.5-2z"/><path id="XMLID_127_" class="st9" d="M337.1 273.2c-3.4-1.6-7-2.6-10.9-3.1.4-.8 1.2-1.6 1.9-2.1 1.2-.8 2.4-1.1 4.5-1 1.6.1 3 .9 3.7 2 .7 1.1.8 2.6.8 4.2z"/><path id="XMLID_126_" class="st9" d="M283.8 283.8c.5.2.9.5 1.4.8-.7.7-1.3 1.4-2 2.2.1-.9.3-1.9.6-3z"/><path id="XMLID_125_" class="st9" d="M290.4 280v-.7c.1-1.1.3-3 1.3-3.6.5-.3 1.3-.3 2 0 .5.2.9.6 1.4 1-1.6 1.1-3.2 2.2-4.7 3.3z"/><path id="XMLID_124_" class="st4" d="M286 280c-.2-.1-.3-.2-.4-.3-.1 0-.2-.1-.4-.2.3-.9.7-1.8 1.1-2.6-.1.7-.3 1.4-.3 2.2v.9z"/><path id="XMLID_123_" class="st9" d="M346.5 280.2c-1.1-1.4-2.5-2.7-4.1-3.8.3-.6.8-1.2 1.3-1.5 1-.7 2.5-.8 4.3-.8h.8c-.8 2-1.6 4.1-2.3 6.1z"/><path id="XMLID_122_" class="st9" d="M256.1 254.6c.4-.3.8-.5 1.3-.7.1 1.4-.3 2.9-1.1 4.1-.9-.5-1.9-1-2.8-1.5.8-.7 1.7-1.3 2.6-1.9z"/><path id="XMLID_121_" class="st8" d="M249.9 259.6c4.5 2 8.7 4.6 12.4 7.9 3.1 2.7 5.8 5.9 8.5 9 1.6 1.8 3.1 3.6 4.2 5.5 2.2 3.9 3 8.5 3.7 13v.1c.4 4.5 1.4 8.1 2.7 11.1-.4.3-.6.8-.7 1.2-.1 0-.2 0-.2.1-8.9 1.9-18.5-.3-25.7-6-7.2-5.6-11.6-14.4-11.9-23.5-.1-3.7.4-7.2 1.7-10.4 1.1-2.8 2.9-5.5 5.3-8z"/><path id="XMLID_120_" class="st3" d="M412.7 214.1c-8 3.3-15 6.2-20.6 7.9 0-.1-.1-.2-.1-.3 0-.1-.1-.1-.1-.2-.1-.2-.1-.4-.2-.6 4.6-1.9 17.9-7.8 18.5-8 5.5-2.5 11.1-5 16.8-7.4.2.4.5.9.8 1.4.1.3.3.6.5.9-5.5 2.1-10.7 4.3-15.6 6.3z"/><path id="XMLID_119_" d="M462.7 162c-.4.2-.9.5-1.3.7-1.1.7-1.7 1.5-1.9 2.6-.3 1.7.7 3 1.5 4 .9 1.2 1.2 1.7 1 2.2-.1.2-1 .5-2.7.1-.2 0-.4-.1-.6-.2-1.3-.4-3.5-1.1-5.8 0-.7.3-1.4.7-2 1-1.9 1-3.3 1.7-5.3 1.9h-1c-.8 0-1.7 0-2.7.3-2.1.6-3.5 2.4-4.3 3.5-.9 1.2-2.4 3.1-2.2 5.5.2 2.4 1.9 3.9 3.2 5.1.3.2.5.5.8.7 1.1 1.1 1.8 2.5 1.9 3.7.1 2.8-2.8 5.2-4.1 6.1-2.5 1.7-3.7 4.3-3.4 7 .1.5 0 .7 0 .7-.1.1-.6.2-1.1.2-.2-.4-.4-.9-.7-1.4.1-.3.2-.7.2-1.1-.3-2.4-1.3-3.9-2.3-5v-.1h-.1c-.8-.8-1.6-1.3-2.3-1.7-.6-.3-1.2-.8-1.9-1.2-1-.7-2.1-1.4-3-1.8-1-.5-1.6-1.3-1.7-1.9 0-.3.1-.8.3-1.3.2-.6.4-1.3.5-2.2.2-1.9-.5-3.4-1.2-4.8-.2-.4-.4-.8-.5-1.2-.6-1.6-.6-3.2 0-4.5.6-1.3 1.8-2.2 3-2.2.4 0 .8 0 1.2.1.7.1 1.5.2 2.4.1 1.8-.2 3.6-1.3 5.2-3.1 1.8-2.1 2.8-4.4 3-6.6 0-.6 0-1.2-.1-1.8 0-.6-.1-1.2 0-1.6.2-.9 1-1.9 1.8-2.8 1.1-1.2 2.3-2.4 3.6-2.5.6-.1 1.4.1 2.2.3.6.1 1.2.3 1.8.3 3.2.4 6.1-.7 8.8-1.8 1.9-.7 3.7-1.4 5.5-1.6 2.6-.2 5.7.4 6.5 2.1 1.1 2 .8 2.6-2.2 4.2z" fill="#aeaeae"/><path id="XMLID_118_" class="st4" d="M378.5 261c4.4 8.1 2 15.3-1.2 24.5-.7 1.9-1.4 4-2 6-1.6 5.3-4 11.9-6.5 18.9-.8 2.2-1.6 4.3-2.3 6.5.1-3.2.1-6.3.1-9.4 0-11.7 0-23.7 2.6-35.1 1-4.3 2.6-9.6 6.3-13 .5-.4 1-.7 1.5-1.1l1.5 2.7z"/><path id="XMLID_117_" class="st8" d="M337.5 431.7c-.4.2-.7.5-1 .9-.6.1-1.3.2-1.9.3 4.9-8.3 3.8-21.3 3.8-21.5l-.3-3.2c-.2-2.2-.4-4.2-.6-6.1.3-.7.2-1.6-.3-2.3-1.1-9.2-3.1-15.7-10.1-25-.1-.1-.2-.3-.3-.4-.1-.1-.2-.3-.3-.4-7.2-9.4-15.6-17.9-19.1-20.8-4.4-3.7-9.6-7.5-15.7-9.8 11.5.1 22.9 2.7 33.4 7.5 6.2 2.8 11.5 7.7 16.7 12.4l3 2.7c1.5 1.3 3.1 2.7 4 4.4.1.1.2.2.2.3v2.7c.2 2.3.8 4.5 1.4 6.6l.5 1.8c4 15.2 1.2 32.1-7.4 45.2-1.3 2.3-2.9 3.5-6 4.7z"/><path id="XMLID_116_" class="st4" d="M349.6 364.3c-.6-.6-1.1-1.1-1.7-1.6l-3-2.7c-5.4-4.9-11.1-10-17.8-13.1-12.9-5.9-27.1-8.6-41.3-7.8-.6 0-1.1.2-1.6.4l-2.5-1.7c.1-3.4-.2-6.4-1-8.9-1.1-3.6-3.2-6.7-5.9-8.7-.5-.4-1-.7-1.5-1-.9-.6-1.7-1.1-2.3-1.7-1-1.2-1.1-3-1-5.1 1.4.2 2.8.3 4.3.3 2.4 0 4.8-.2 7.2-.8.5-.1 1.6-.4 2.5-1.1 1.5 2.3 3.2 4 4.8 5.2 7.1 5.4 18 7.1 23.3 7.2h.7c8 0 16.1-2.8 25.1-8.6-1 7.4-1.7 15.4-2.1 24.6-.1 1.6 1.4 12.1 3.1 14.2 1.4 1.7 3.6 2.7 6.3 2.7.9 0 1.8-.1 2.8-.3.8-.2 1.7-.5 2.5-.8l-.9 9.3z"/><path id="XMLID_115_" class="st3" d="M402 211.7c-4.7 2.1-9.5 4.2-14.4 6.1l-.3.1c-.5-.2-1.1-.3-1.6-.3-1.8-.2-3.4.4-4.6 1.6-.4.4-.6.9-.7 1.5h-1c-1.3.1-3 .3-4.6 1.3-1.4.9-2.2 2.2-2.9 3.3-1.4 2.1-3 4.2-4.5 6.2-2.5 3.3-5 6.6-6.9 10.4l-3.1-1.3c-1.5-.6-3.1-1.3-4.1-2.3-1.1-1-1.9-2.5-2.6-4.7-1.2-4.1-1.5-8.6-.7-12.8.1-.5.2-.9.3-1.4.2-.1.4-.3.6-.4 2-1.7 5-4.7 6.8-7 2.3-2.9 3.8-5.6 5.3-8.5.8-1.5 1.7-3.1 2.7-4.8.1-.2.1-.3.2-.5 1.2-.5 2.1-1.4 2.8-2.2 2.8-3.1 5.1-6.5 7.1-10.1 9.8 7.6 18.4 16.3 26.2 25.8z"/><path id="XMLID_114_" class="st3" d="M204.4 393.1c0-.2 0-.6-.1-.6.1-.1.3-.1.6-.1.6.1 1.3.5 2 .9l.5.3c4.6 2.5 9.9 3.5 15 2.6 4.3 4.8 10 10.6 17.3 16.9 1.7 1.4 19.8 14.6 34 22.2-29-1.3-58-5.3-82.6-8.8 8.9-8.6 14-21 13.3-33.4z"/><path id="XMLID_113_" class="st4" d="M284.9 435.7c-.2-.1-.3-.2-.5-.3-12.5-4.4-39-23.2-41.8-25.6-11.2-9.7-18.6-18.1-22.8-23.5-12.7-16.2-23.4-31.1-26.2-49.5.6-.4 1.2-.9 1.8-1.4.4-.3.7-.6.9-.7 6.8-3.2 12.6-12.5 14.9-17.5 2.1-4.5 4.6-11.9 5.7-15.3 3 .8 5.9 2.7 8.5 4.4l59.3 39c-.9 1.4-1.8 3.4-1.5 5.5.2 1.5 1 3.7 3.8 5.3.9.5 1.8.7 2.7.7.9 0 1.7-.2 2.6-.5.1 1.1.4 2.3 1 3.3 1 1.8 2.7 3.1 4.6 3.6.6.1 1.2.2 1.8.2.7 0 1.5-.1 2.2-.3 0 .4-.1.8-.1 1.2 0 .6.1 1.4.4 2.2.5 1.2 1.5 2.1 3 2.7 1.2.5 2.4.7 3.7.7.2 0 .4-.1.6-.1-.3.9-.4 1.9-.4 2.7.2 3.2 2.7 6.1 5.9 6.9.6.2 1.3.2 2 .2h.2c-.8 1.5-1.3 2.9-1.3 4.2-.1 2.3.9 4.4 2.6 5.7.9.6 1.9 1 3.3 1.2h.5c-1.5 2.5-1 7-.2 8.8.8 2 2.8 3.4 5.6 4.1-.2.2-.4.4-.5.6-1.8 2.4-1.7 6.1.1 8.6.4.6 1 1.1 1.6 1.6-.1.1-.3.1-.4.2-.9.6-1.6 1.3-2.1 1.9-.7.8-1.6 2-1.9 3.5-.5 2.2.3 4.5 2.1 6.3l.3.3c-1 .4-2 .9-3.2 1.6-1.5 1-2.5 1.9-3.3 3-.8 1-1.2 2.2-1.4 3.3-3.8.3-7.6.6-11.4.8-5.2.2-10.6.4-16.1.4h-6.6z"/><path id="XMLID_112_" class="st9" d="M330.6 406.9c.7-1 1.9-1.6 2.9-1.9l.3 3.6.3 3.2c0 .2 0 .4.1.7-1.6-.6-2.8-1.4-3.4-2.2-.8-1-.8-2.6-.2-3.4z"/><path id="XMLID_111_" class="st9" d="M330.7 418.4c.8-.5 2.1-.7 3.4-.4-.1 2.3-.5 5-1.1 7.4-1.2-.6-2.5-1.2-3.4-2.1-.7-.7-1.1-1.6-.9-2.3.1-.5.6-1.1 1-1.6.3-.5.7-.8 1-1z"/><g><path id="XMLID_110_" class="st9" d="M328.1 399.3c-1.1-.4-1.9-.9-2.1-1.5-.5-1.1-.5-4.1-.1-4.8.7-.9 2.8-3.6 4.4-3.6.1 0 .2 0 .2-.1 1.2 3.3 1.9 6.6 2.4 10.4-1.3.2-3.1.2-4.8-.4z"/></g><g><path id="XMLID_109_" class="st9" d="M322.4 386.3c-.6-.1-1.1-.2-1.4-.4-.5-.3-.7-1.1-.7-1.8 0-.9.4-1.8 1.1-2.9.8-1.3 1.7-2.2 2.7-2.7.1 0 .1 0 .2-.1 1.8 2.4 3.2 4.6 4.3 6.7-1.9 1-4.1 1.6-6.2 1.2z"/></g><g><path id="XMLID_108_" class="st9" d="M320.5 373.8c-1.3 1.1-3 1.6-4.4 1.3-1.4-.3-2.5-1.6-2.6-2.8 0-.7.2-1.6.8-2.7.5-.9 1-1.4 1.5-1.7 1.6 1.8 3.2 3.7 4.9 5.8-.1 0-.2.1-.2.1z"/></g><g><path id="XMLID_107_" class="st9" d="M306.9 365c-.5-.2-.6-.3-.6-.3v-.5c0-1.1.1-3.4 1.2-5 1.4 1.3 3.1 3.1 5 5.1-1.7 1.1-3.8 1.5-5.6.7z"/></g><g><path id="XMLID_106_" class="st9" d="M301.3 358.5c-.7.4-1.5.6-2.3.4-.8-.2-1.5-.7-1.8-1.4-.7-1.3-.4-3.2 0-4.9l.8-.8.1-.1c1.9 1.3 3.7 2.6 5.3 4-.5 1.1-1.2 2.2-2.1 2.8z"/></g><g><path id="XMLID_105_" class="st9" d="M293.3 350.3l-.6.6c-1.2 1.1-2.8 1.7-3.5 1.3-1.5-.9-1.6-1.7-1.6-2-.1-1.2.7-2.6 1.3-3.2 1.7.6 3.3 1.3 4.9 2.1-.2.4-.4.8-.5 1.2z"/></g><g><path id="XMLID_104_" class="st9" d="M323.8 433.9c.5-.6 1.2-1.2 2.2-1.9 1.2-.8 2.3-1.3 3.3-1.5.6-.1 1.1-.1 1.7 0-.7 1.2-1.5 2.2-2.5 3-.1 0-.1.1-.1.2-1.6.2-3.1.4-4.7.5 0-.1 0-.2.1-.3z"/></g><g><path id="XMLID_103_" class="st3" d="M77 302.1c3.5.8 7 1.7 10.5 2.7l1.5.4c1.9.5 4 1.1 5.3 2.3.3.3.9 1.1 1.6 1.9 3.1 4 8.8 11.4 19.4 14.3 8.6 2.4 18 2.9 30.9 1.5 3-.3 6-.8 8.9-1.2 6.3-1 12.8-1.9 19.1-1.5 6.4.5 12.3 5 13.8 10.6-.2.7-.2 1.4 0 2 .2.6.7 1.2 1.3 1.6.3 1.9.6 3.8 1 5.6l-12 2.1c-2.6.5-5.6 1-8.2 2.7-4 2.6-5.7 7.1-7.1 11.2-3.9 11.8-9.6 50-9.7 62-9-1.9-18.1-4.2-28-7.4l-1.4-.5c-8.6-2.8-20.4-6.6-26.7-12.1l-1.4-1.2c-2.3-2-3.9-3.5-5.9-3.5-.7 0-1.3.2-1.9.5-.5-.2-1-.3-1.5-.5-7.6-19.5-11.3-41.5-11.3-67 0-9.7.3-16.8 1.8-26.5z"/></g><g><path id="XMLID_102_" class="st3" d="M443.8 328.5c0 25.6-5.2 50.4-15.4 73.7-.8-.1-1.4-.1-2.2 0l-4 .3c-.3-.1-.5-.2-.8-.2-.7 0-1.3.2-1.9.6-20.9 13.5-45.5 22.9-73.4 28.1.4-.5.8-1 1.2-1.6 9.3-14.2 12.2-32.4 7.9-48.7-.2-.6-.3-1.2-.5-1.8-.6-2-1.1-3.9-1.3-5.8-.2-1.9 0-3.8.2-5.8l1.3-15c3.1-2.4 5.8-5.7 7.6-9.7 1.1-2.4 1.8-4.8 2.3-7.3 0-.1.1-.2.1-.3 1.8-6.4 4.9-14.9 7.9-23.1 2.5-7 4.9-13.7 6.6-19.1.6-2 1.3-4 1.9-5.9 3.2-9.3 6.2-18.2.9-28l-1.6-3c.2-.1.3-.2.5-.3 2.7-1.5 5.5-3 7.7-5.5 5-5.7 5-13.7 4.6-20.8-.1-.9-.1-2-.3-3 4.5-1.3 9.7-3.4 15.5-5.8 23.1 31.5 35.2 68.9 35.2 108z"/></g><g><path id="XMLID_101_" class="st8" d="M181.5 191.7h.7c3.8.2 11.2 3.6 13.4 6.6l3.8 5.2.2-6.4c.2-5.9 5.1-13 10.6-15.3 4.7-2 9.6 0 13 5.1 2.6 3.8.2 9.3-2.1 14.6-.4.8-.7 1.7-1 2.5-1.3 3.1-3.4 6.7-5.5 10.2-1.5 2.6-3.1 5.3-4.3 7.8-.2-.1-.4-.2-.6-.2-4.7-1.4-8.6-2-12.6-2.6-4-.6-8.1-1.3-13.7-2.7-7.9-2-11.5-7.3-11.1-15.9.1-3.1 2.5-8.9 9.2-8.9z"/></g></g><g><path class="st2" d="M67.9 582.1h1.9v13.2h6.3v1.6h-8.3v-14.8zM87.5 591.5c0 3.9-2.7 5.7-5.3 5.7-2.9 0-5.1-2.1-5.1-5.5 0-3.6 2.3-5.7 5.3-5.7 3.1 0 5.1 2.2 5.1 5.5zm-8.4.1c0 2.3 1.3 4.1 3.2 4.1 1.9 0 3.2-1.7 3.2-4.1 0-1.8-.9-4.1-3.2-4.1-2.2 0-3.2 2.1-3.2 4.1zM90 589.6c0-1.3 0-2.3-.1-3.3h1.7l.1 2.1h.1c.5-1.4 1.6-2.3 2.9-2.3.2 0 .4 0 .5.1v1.8c-.2 0-.4-.1-.7-.1-1.4 0-2.3 1-2.6 2.5 0 .3-.1.6-.1.9v5.7H90v-7.4zM98 591.9c0 2.6 1.7 3.7 3.7 3.7 1.4 0 2.2-.2 2.9-.6l.3 1.4c-.7.3-1.9.7-3.5.7-3.3 0-5.2-2.2-5.2-5.4s1.9-5.7 5-5.7c3.5 0 4.4 3.1 4.4 5 0 .4 0 .7-.1.9H98zm5.7-1.4c0-1.2-.5-3.1-2.7-3.1-2 0-2.8 1.8-3 3.1h5.7zM107.9 589.1c0-1.1 0-2-.1-2.9h1.7l.1 1.7h.1c.6-1 1.6-2 3.3-2 1.5 0 2.6.9 3 2.1.3-.6.7-1.1 1.2-1.4.6-.5 1.3-.7 2.4-.7 1.4 0 3.5.9 3.5 4.6v6.3h-1.9v-6c0-2-.7-3.3-2.3-3.3-1.1 0-2 .8-2.3 1.8-.1.3-.2.6-.2 1v6.6h-1.9v-6.4c0-1.7-.7-2.9-2.2-2.9-1.2 0-2.1 1-2.4 1.9-.1.3-.2.6-.2.9v6.4h-1.9v-7.7zM133.1 583.3c0 .7-.5 1.2-1.2 1.2s-1.2-.5-1.2-1.2.5-1.2 1.2-1.2c.8-.1 1.2.5 1.2 1.2zm-2.1 13.6v-10.7h1.9v10.7H131zM136.1 589.7c0-1.4 0-2.5-.1-3.5h1.7l.1 1.8c.8-1.3 2-2.1 3.8-2.1 2.6 0 4.5 2.2 4.5 5.4 0 3.8-2.3 5.7-4.8 5.7-1.4 0-2.6-.6-3.3-1.7v5.8h-1.9v-11.4zm1.9 2.9c0 .3 0 .6.1.8.4 1.3 1.5 2.3 2.9 2.3 2 0 3.2-1.7 3.2-4.1 0-2.1-1.1-4-3.2-4-1.3 0-2.6.9-2.9 2.4-.1.2-.1.5-.1.8v1.8zM148.4 594.9c.6.4 1.6.8 2.6.8 1.4 0 2.1-.7 2.1-1.6 0-.9-.5-1.4-2-2-1.9-.7-2.8-1.7-2.8-3 0-1.7 1.4-3.1 3.7-3.1 1.1 0 2 .3 2.6.7l-.5 1.4c-.4-.3-1.2-.6-2.2-.6-1.1 0-1.8.7-1.8 1.5 0 .9.6 1.3 2 1.8 1.8.7 2.8 1.6 2.8 3.2 0 1.9-1.4 3.2-4 3.2-1.2 0-2.2-.3-3-.7l.5-1.6zM166.3 594c0 1.1 0 2.1.1 2.9h-1.7l-.1-1.7c-.5.9-1.6 2-3.5 2-1.7 0-3.7-.9-3.7-4.7v-6.2h1.9v5.9c0 2 .6 3.4 2.4 3.4 1.3 0 2.2-.9 2.6-1.8.1-.3.2-.6.2-1v-6.5h1.9v7.7zM169.5 589.1c0-1.1 0-2-.1-2.9h1.7l.1 1.7h.1c.6-1 1.6-2 3.3-2 1.5 0 2.6.9 3 2.1.3-.6.7-1.1 1.2-1.4.6-.5 1.3-.7 2.4-.7 1.4 0 3.5.9 3.5 4.6v6.3h-1.9v-6c0-2-.7-3.3-2.3-3.3-1.1 0-2 .8-2.3 1.8-.1.3-.2.6-.2 1v6.6h-1.9v-6.4c0-1.7-.7-2.9-2.2-2.9-1.2 0-2.1 1-2.4 1.9-.1.3-.2.6-.2.9v6.4h-1.9v-7.7zM201.7 581.3v12.9c0 .9 0 2 .1 2.8H200l-.1-1.8c-.6 1.2-1.9 2.1-3.6 2.1-2.6 0-4.6-2.2-4.6-5.4 0-3.5 2.2-5.7 4.8-5.7 1.6 0 2.7.8 3.2 1.6v-6.4h2zm-2 9.3c0-.2 0-.6-.1-.8-.3-1.2-1.3-2.2-2.8-2.2-2 0-3.2 1.8-3.2 4.1 0 2.2 1.1 3.9 3.1 3.9 1.3 0 2.5-.9 2.8-2.3.1-.3.1-.5.1-.8v-1.9zM214.5 591.5c0 3.9-2.7 5.7-5.3 5.7-2.9 0-5.1-2.1-5.1-5.5 0-3.6 2.3-5.7 5.3-5.7 3.1 0 5.1 2.2 5.1 5.5zm-8.4.1c0 2.3 1.3 4.1 3.2 4.1 1.9 0 3.2-1.7 3.2-4.1 0-1.8-.9-4.1-3.2-4.1-2.2 0-3.2 2.1-3.2 4.1zM217 581.3h1.9v15.6H217v-15.6zM231.8 591.5c0 3.9-2.7 5.7-5.3 5.7-2.9 0-5.1-2.1-5.1-5.5 0-3.6 2.3-5.7 5.3-5.7s5.1 2.2 5.1 5.5zm-8.5.1c0 2.3 1.3 4.1 3.2 4.1 1.8 0 3.2-1.7 3.2-4.1 0-1.8-.9-4.1-3.2-4.1-2.2 0-3.2 2.1-3.2 4.1zM234.2 589.6c0-1.3 0-2.3-.1-3.3h1.7l.1 2.1h.1c.5-1.4 1.7-2.3 2.9-2.3.2 0 .4 0 .5.1v1.8c-.2 0-.4-.1-.7-.1-1.4 0-2.3 1-2.6 2.5 0 .3-.1.6-.1.9v5.7h-1.9v-7.4zM245.8 594.9c.6.4 1.6.8 2.6.8 1.4 0 2.1-.7 2.1-1.6 0-.9-.5-1.4-2-2-1.9-.7-2.8-1.7-2.8-3 0-1.7 1.4-3.1 3.7-3.1 1.1 0 2 .3 2.6.7l-.5 1.4c-.4-.3-1.2-.6-2.2-.6-1.1 0-1.8.7-1.8 1.5 0 .9.6 1.3 2 1.8 1.8.7 2.8 1.6 2.8 3.2 0 1.9-1.4 3.2-4 3.2-1.2 0-2.2-.3-3-.7l.5-1.6zM257 583.3c0 .7-.5 1.2-1.2 1.2s-1.2-.5-1.2-1.2.5-1.2 1.2-1.2c.7-.1 1.2.5 1.2 1.2zm-2.2 13.6v-10.7h1.9v10.7h-1.9zM262.3 583.2v3.1h2.8v1.5h-2.8v5.7c0 1.3.4 2.1 1.5 2.1.5 0 .9-.1 1.1-.1l.1 1.5c-.4.2-1 .3-1.7.3-.9 0-1.6-.3-2.1-.8-.5-.6-.7-1.5-.7-2.8v-5.8h-1.7v-1.5h1.7v-2.6l1.8-.6zM277.8 596.9l-.2-1.3h-.1c-.6.8-1.7 1.6-3.3 1.6-2.2 0-3.3-1.5-3.3-3.1 0-2.6 2.3-4 6.4-4v-.2c0-.9-.2-2.5-2.4-2.5-1 0-2 .3-2.8.8l-.4-1.3c.9-.6 2.2-.9 3.5-.9 3.3 0 4 2.2 4 4.4v4c0 .9 0 1.8.2 2.6h-1.6zm-.3-5.4c-2.1 0-4.5.3-4.5 2.4 0 1.3.8 1.8 1.8 1.8 1.4 0 2.3-.9 2.6-1.8.1-.2.1-.4.1-.6v-1.8zM282.5 589.1c0-1.1 0-2-.1-2.9h1.7l.1 1.7h.1c.6-1 1.6-2 3.3-2 1.5 0 2.6.9 3 2.1.3-.6.7-1.1 1.2-1.4.6-.5 1.3-.7 2.4-.7 1.4 0 3.5.9 3.5 4.6v6.3h-1.9v-6c0-2-.7-3.3-2.3-3.3-1.1 0-2 .8-2.3 1.8-.1.3-.2.6-.2 1v6.6h-1.9v-6.4c0-1.7-.7-2.9-2.2-2.9-1.2 0-2.1 1-2.4 1.9-.1.3-.2.6-.2.9v6.4h-1.9v-7.7zM301.9 591.9c0 2.6 1.7 3.7 3.7 3.7 1.4 0 2.2-.2 2.9-.6l.3 1.4c-.7.3-1.8.7-3.5.7-3.3 0-5.2-2.2-5.2-5.4s1.9-5.7 5-5.7c3.5 0 4.4 3.1 4.4 5 0 .4 0 .7-.1.9h-7.5zm5.7-1.4c0-1.2-.5-3.1-2.7-3.1-2 0-2.8 1.8-3 3.1h5.7zM314.2 583.2v3.1h2.8v1.5h-2.8v5.7c0 1.3.4 2.1 1.5 2.1.5 0 .9-.1 1.1-.1l.1 1.5c-.4.2-1 .3-1.7.3-.9 0-1.6-.3-2.1-.8-.5-.6-.7-1.5-.7-2.8v-5.8h-1.7v-1.5h1.7v-2.6l1.8-.6zM317.8 599.6c.5-1.3 1.1-3.7 1.3-5.3l2.2-.2c-.5 1.9-1.5 4.3-2.1 5.3l-1.4.2zM335.9 596.5c-.5.3-1.6.6-3.1.6-3.2 0-5.3-2.2-5.3-5.4 0-3.3 2.2-5.7 5.7-5.7 1.1 0 2.2.3 2.7.6l-.4 1.5c-.5-.3-1.2-.5-2.2-.5-2.4 0-3.8 1.8-3.8 4 0 2.5 1.6 4 3.7 4 1.1 0 1.8-.3 2.4-.5l.3 1.4zM347.7 591.5c0 3.9-2.7 5.7-5.3 5.7-2.9 0-5.1-2.1-5.1-5.5 0-3.6 2.3-5.7 5.3-5.7s5.1 2.2 5.1 5.5zm-8.5.1c0 2.3 1.3 4.1 3.2 4.1 1.9 0 3.2-1.7 3.2-4.1 0-1.8-.9-4.1-3.2-4.1-2.2 0-3.2 2.1-3.2 4.1zM350.1 589.1c0-1.1 0-2-.1-2.9h1.7l.1 1.8c.5-1 1.8-2 3.5-2 1.5 0 3.8.9 3.8 4.5v6.4h-1.9v-6.1c0-1.7-.6-3.1-2.5-3.1-1.3 0-2.3.9-2.6 2-.1.2-.1.6-.1.9v6.4h-1.9v-7.9zM362 594.9c.6.4 1.6.8 2.6.8 1.4 0 2.1-.7 2.1-1.6 0-.9-.5-1.4-2-2-1.9-.7-2.8-1.7-2.8-3 0-1.7 1.4-3.1 3.7-3.1 1.1 0 2 .3 2.6.7l-.5 1.4c-.4-.3-1.2-.6-2.2-.6-1.1 0-1.8.7-1.8 1.5 0 .9.6 1.3 2 1.8 1.8.7 2.8 1.6 2.8 3.2 0 1.9-1.5 3.2-4 3.2-1.2 0-2.2-.3-3-.7l.5-1.6zM372.1 591.9c0 2.6 1.7 3.7 3.6 3.7 1.4 0 2.2-.2 3-.6l.3 1.4c-.7.3-1.9.7-3.5.7-3.3 0-5.2-2.2-5.2-5.4s1.9-5.7 5-5.7c3.5 0 4.4 3.1 4.4 5 0 .4 0 .7-.1.9h-7.5zm5.7-1.4c0-1.2-.5-3.1-2.7-3.1-2 0-2.8 1.8-3 3.1h5.7zM389.6 596.5c-.5.3-1.6.6-3.1.6-3.2 0-5.3-2.2-5.3-5.4 0-3.3 2.2-5.7 5.7-5.7 1.1 0 2.2.3 2.7.6l-.4 1.5c-.5-.3-1.2-.5-2.2-.5-2.4 0-3.8 1.8-3.8 4 0 2.5 1.6 4 3.7 4 1.1 0 1.8-.3 2.4-.5l.3 1.4zM394.5 583.2v3.1h2.8v1.5h-2.8v5.7c0 1.3.4 2.1 1.4 2.1.5 0 .9-.1 1.1-.1l.1 1.5c-.4.2-1 .3-1.7.3-.9 0-1.6-.3-2.1-.8-.5-.6-.7-1.5-.7-2.8v-5.8H391v-1.5h1.7v-2.6l1.8-.6zM400.4 591.9c0 2.6 1.7 3.7 3.6 3.7 1.4 0 2.2-.2 3-.6l.3 1.4c-.7.3-1.9.7-3.5.7-3.3 0-5.2-2.2-5.2-5.4s1.9-5.7 5-5.7c3.5 0 4.4 3.1 4.4 5 0 .4 0 .7-.1.9h-7.5zm5.7-1.4c0-1.2-.5-3.1-2.7-3.1-2 0-2.8 1.8-3 3.1h5.7zM412.7 583.2v3.1h2.8v1.5h-2.8v5.7c0 1.3.4 2.1 1.5 2.1.5 0 .9-.1 1.1-.1l.1 1.5c-.4.2-1 .3-1.7.3-.9 0-1.6-.3-2.1-.8-.6-.6-.7-1.5-.7-2.8v-5.8h-1.7v-1.5h1.7v-2.6l1.8-.6zM426.5 594c0 1.1 0 2.1.1 2.9h-1.7l-.1-1.7c-.5.9-1.6 2-3.5 2-1.7 0-3.7-.9-3.7-4.7v-6.2h1.9v5.9c0 2 .6 3.4 2.4 3.4 1.3 0 2.2-.9 2.6-1.8.1-.3.2-.6.2-1v-6.5h1.9v7.7zM429.8 589.6c0-1.3 0-2.3-.1-3.3h1.7l.1 2.1h.1c.5-1.4 1.7-2.3 3-2.3.2 0 .4 0 .5.1v1.8c-.2 0-.4-.1-.7-.1-1.4 0-2.3 1-2.6 2.5 0 .3-.1.6-.1.9v5.7h-1.9v-7.4zM73.7 623.3l-.2-1.3h-.1c-.6.8-1.7 1.6-3.3 1.6-2.2 0-3.3-1.5-3.3-3.1 0-2.6 2.3-4 6.4-4v-.2c0-.9-.2-2.5-2.4-2.5-1 0-2 .3-2.8.8l-.4-1.3c.9-.6 2.2-.9 3.5-.9 3.3 0 4.1 2.2 4.1 4.4v4c0 .9 0 1.8.2 2.6h-1.7zm-.3-5.4c-2.1 0-4.5.3-4.5 2.4 0 1.3.8 1.8 1.8 1.8 1.4 0 2.3-.9 2.6-1.8.1-.2.1-.4.1-.6v-1.8zM87.6 607.7v12.9c0 .9 0 2 .1 2.8H86l-.1-1.9c-.6 1.2-1.9 2.1-3.6 2.1-2.6 0-4.6-2.2-4.6-5.4 0-3.5 2.2-5.7 4.8-5.7 1.6 0 2.7.8 3.2 1.6v-6.4h1.9zm-1.9 9.3c0-.2 0-.6-.1-.8-.3-1.2-1.3-2.2-2.8-2.2-2 0-3.2 1.8-3.2 4.1 0 2.2 1.1 3.9 3.1 3.9 1.3 0 2.5-.9 2.8-2.3.1-.3.1-.5.1-.8V617zM93 609.7c0 .7-.5 1.2-1.2 1.2s-1.2-.5-1.2-1.2.5-1.2 1.2-1.2c.7-.1 1.2.5 1.2 1.2zm-2.2 13.6v-10.7h1.9v10.7h-1.9zM96 616.1c0-1.4 0-2.5-.1-3.5h1.7l.1 1.8c.8-1.3 2-2.1 3.8-2.1 2.6 0 4.5 2.2 4.5 5.4 0 3.8-2.3 5.7-4.8 5.7-1.4 0-2.6-.6-3.3-1.7v5.8H96v-11.4zm1.9 2.9c0 .3 0 .6.1.8.4 1.3 1.5 2.3 2.9 2.3 2 0 3.2-1.7 3.2-4.1 0-2.1-1.1-4-3.2-4-1.3 0-2.6.9-2.9 2.4-.1.2-.1.5-.1.8v1.8zM110.6 609.7c0 .7-.5 1.2-1.2 1.2s-1.2-.5-1.2-1.2.5-1.2 1.2-1.2c.8-.1 1.2.5 1.2 1.2zm-2.1 13.6v-10.7h1.9v10.7h-1.9zM113.4 621.3c.6.4 1.6.8 2.6.8 1.4 0 2.1-.7 2.1-1.6 0-.9-.5-1.4-2-2-1.9-.7-2.8-1.7-2.8-3 0-1.7 1.4-3.1 3.7-3.1 1.1 0 2 .3 2.6.7l-.5 1.4c-.4-.3-1.2-.6-2.2-.6-1.1 0-1.8.7-1.8 1.5 0 .9.6 1.3 2 1.8 1.9.7 2.8 1.6 2.8 3.2 0 1.9-1.4 3.2-4 3.2-1.2 0-2.2-.3-3-.7l.5-1.6zM129.9 622.9c-.5.3-1.6.6-3.1.6-3.2 0-5.3-2.2-5.3-5.4 0-3.3 2.2-5.7 5.7-5.7 1.1 0 2.2.3 2.7.6l-.4 1.5c-.5-.3-1.2-.5-2.2-.5-2.4 0-3.8 1.8-3.8 4 0 2.5 1.6 4 3.7 4 1.1 0 1.8-.3 2.4-.5l.3 1.4zM134.4 609.7c0 .7-.5 1.2-1.2 1.2s-1.2-.5-1.2-1.2.5-1.2 1.2-1.2c.7-.1 1.2.5 1.2 1.2zm-2.2 13.6v-10.7h1.9v10.7h-1.9zM137.3 615.5c0-1.1 0-2-.1-2.9h1.7l.1 1.8c.5-1 1.8-2 3.5-2 1.5 0 3.8.9 3.8 4.5v6.4h-1.9v-6.1c0-1.7-.6-3.1-2.5-3.1-1.3 0-2.3.9-2.6 2-.1.2-.1.6-.1.9v6.4h-1.9v-7.9zM158.7 612.7c0 .8-.1 1.6-.1 2.9v6.2c0 2.4-.5 3.9-1.5 4.9-1 1-2.5 1.3-3.9 1.3-1.3 0-2.7-.3-3.5-.9l.5-1.5c.7.4 1.8.8 3.1.8 2 0 3.4-1 3.4-3.7v-1.2c-.6 1-1.7 1.8-3.4 1.8-2.6 0-4.5-2.2-4.5-5.2 0-3.6 2.4-5.7 4.8-5.7 1.9 0 2.9 1 3.3 1.9l.1-1.6h1.7zm-2 4.2c0-.3 0-.6-.1-.9-.4-1.1-1.3-2-2.7-2-1.9 0-3.2 1.6-3.2 4 0 2.1 1.1 3.8 3.1 3.8 1.2 0 2.3-.7 2.7-2 .1-.3.2-.7.2-1v-1.9zM167.6 618.3c0 2.6 1.7 3.7 3.7 3.7 1.4 0 2.2-.2 2.9-.6l.3 1.4c-.7.3-1.9.7-3.5.7-3.3 0-5.2-2.2-5.2-5.4s1.9-5.7 5-5.7c3.5 0 4.4 3.1 4.4 5 0 .4 0 .7-.1.9h-7.5zm5.7-1.4c0-1.2-.5-3.1-2.7-3.1-2 0-2.8 1.8-3 3.1h5.7zM177.5 607.7h1.9v15.6h-1.9v-15.6zM184.9 609.7c0 .7-.5 1.2-1.2 1.2s-1.2-.5-1.2-1.2.5-1.2 1.2-1.2c.7-.1 1.2.5 1.2 1.2zm-2.2 13.6v-10.7h1.9v10.7h-1.9zM190.2 609.6v3.1h2.8v1.5h-2.8v5.7c0 1.3.4 2.1 1.5 2.1.5 0 .9-.1 1.1-.1l.1 1.5c-.4.2-1 .3-1.7.3-.9 0-1.6-.3-2.1-.8-.6-.6-.7-1.5-.7-2.8v-5.8h-1.7v-1.5h1.7v-2.6l1.8-.6zM193.8 626c.5-1.3 1.1-3.7 1.3-5.3l2.2-.2c-.5 1.9-1.5 4.3-2.1 5.3l-1.4.2zM204 621.3c.6.4 1.6.8 2.6.8 1.4 0 2.1-.7 2.1-1.6 0-.9-.5-1.4-2-2-1.9-.7-2.8-1.7-2.8-3 0-1.7 1.4-3.1 3.7-3.1 1.1 0 2 .3 2.6.7l-.5 1.4c-.4-.3-1.2-.6-2.2-.6-1.1 0-1.8.7-1.8 1.5 0 .9.6 1.3 2 1.8 1.9.7 2.8 1.6 2.8 3.2 0 1.9-1.5 3.2-4 3.2-1.2 0-2.2-.3-3-.7l.5-1.6zM214.1 618.3c0 2.6 1.7 3.7 3.7 3.7 1.4 0 2.2-.2 2.9-.6l.3 1.4c-.7.3-1.8.7-3.5.7-3.3 0-5.2-2.2-5.2-5.4s1.9-5.7 5-5.7c3.5 0 4.4 3.1 4.4 5 0 .4 0 .7-.1.9h-7.5zm5.7-1.4c0-1.2-.5-3.1-2.7-3.1-2 0-2.8 1.8-3 3.1h5.7zM233.2 607.7v12.9c0 .9 0 2 .1 2.8h-1.7l-.1-1.9c-.6 1.2-1.9 2.1-3.6 2.1-2.6 0-4.6-2.2-4.6-5.4 0-3.5 2.2-5.7 4.8-5.7 1.6 0 2.7.8 3.2 1.6v-6.4h1.9zm-1.9 9.3c0-.2 0-.6-.1-.8-.3-1.2-1.3-2.2-2.8-2.2-2 0-3.2 1.8-3.2 4.1 0 2.2 1.1 3.9 3.1 3.9 1.3 0 2.5-.9 2.8-2.3.1-.3.1-.5.1-.8V617zM250.3 607.7v12.9c0 .9 0 2 .1 2.8h-1.7l-.1-1.9c-.6 1.2-1.9 2.1-3.6 2.1-2.6 0-4.6-2.2-4.6-5.4 0-3.5 2.2-5.7 4.8-5.7 1.6 0 2.7.8 3.2 1.6v-6.4h1.9zm-1.9 9.3c0-.2 0-.6-.1-.8-.3-1.2-1.3-2.2-2.8-2.2-2 0-3.2 1.8-3.2 4.1 0 2.2 1.1 3.9 3.1 3.9 1.3 0 2.5-.9 2.8-2.3.1-.3.1-.5.1-.8V617zM263.2 617.9c0 3.9-2.7 5.7-5.3 5.7-2.9 0-5.1-2.1-5.1-5.5 0-3.6 2.3-5.7 5.3-5.7s5.1 2.2 5.1 5.5zm-8.5.1c0 2.3 1.3 4.1 3.2 4.1 1.8 0 3.2-1.7 3.2-4.1 0-1.8-.9-4.1-3.2-4.1-2.2 0-3.2 2.1-3.2 4.1zM271.3 618.3c0 2.6 1.7 3.7 3.7 3.7 1.4 0 2.2-.2 2.9-.6l.3 1.4c-.7.3-1.8.7-3.5.7-3.3 0-5.2-2.2-5.2-5.4s1.9-5.7 5-5.7c3.5 0 4.4 3.1 4.4 5 0 .4 0 .7-.1.9h-7.5zm5.7-1.4c0-1.2-.5-3.1-2.7-3.1-2 0-2.8 1.8-3 3.1h5.7zM283.4 609.7c0 .7-.5 1.2-1.2 1.2s-1.2-.5-1.2-1.2.5-1.2 1.2-1.2c.8-.1 1.2.5 1.2 1.2zm-2.1 13.6v-10.7h1.9v10.7h-1.9zM295.3 620.4c0 1.1 0 2.1.1 2.9h-1.7l-.1-1.7c-.5.9-1.6 2-3.5 2-1.7 0-3.7-.9-3.7-4.7v-6.2h1.9v5.9c0 2 .6 3.4 2.4 3.4 1.3 0 2.2-.9 2.6-1.8.1-.3.2-.6.2-1v-6.5h1.9v7.7zM298.3 621.3c.6.4 1.6.8 2.6.8 1.4 0 2.1-.7 2.1-1.6 0-.9-.5-1.4-2-2-1.9-.7-2.8-1.7-2.8-3 0-1.7 1.4-3.1 3.7-3.1 1.1 0 2 .3 2.6.7l-.5 1.4c-.4-.3-1.2-.6-2.2-.6-1.1 0-1.8.7-1.8 1.5 0 .9.6 1.3 2 1.8 1.8.7 2.8 1.6 2.8 3.2 0 1.9-1.5 3.2-4 3.2-1.2 0-2.2-.3-3-.7l.5-1.6zM307.3 615.5c0-1.1 0-2-.1-2.9h1.7l.1 1.7h.1c.6-1 1.6-2 3.3-2 1.5 0 2.6.9 3 2.1.3-.6.7-1.1 1.2-1.4.6-.5 1.3-.7 2.4-.7 1.4 0 3.5.9 3.5 4.6v6.3h-1.9v-6c0-2-.7-3.3-2.3-3.3-1.1 0-2 .8-2.3 1.8-.1.3-.2.6-.2 1v6.6h-1.9v-6.4c0-1.7-.7-2.9-2.2-2.9-1.2 0-2.1 1-2.4 1.9-.1.3-.2.6-.2.9v6.4h-1.9v-7.7zM335.3 617.9c0 3.9-2.7 5.7-5.3 5.7-2.9 0-5.1-2.1-5.1-5.5 0-3.6 2.3-5.7 5.3-5.7s5.1 2.2 5.1 5.5zm-8.5.1c0 2.3 1.3 4.1 3.2 4.1 1.8 0 3.2-1.7 3.2-4.1 0-1.8-.9-4.1-3.2-4.1-2.2 0-3.2 2.1-3.2 4.1zM346.9 607.7v12.9c0 .9 0 2 .1 2.8h-1.7l-.1-1.9c-.6 1.2-1.9 2.1-3.6 2.1-2.6 0-4.6-2.2-4.6-5.4 0-3.5 2.2-5.7 4.8-5.7 1.6 0 2.7.8 3.2 1.6v-6.4h1.9zM345 617c0-.2 0-.6-.1-.8-.3-1.2-1.3-2.2-2.8-2.2-2 0-3.2 1.8-3.2 4.1 0 2.2 1.1 3.9 3.1 3.9 1.3 0 2.5-.9 2.8-2.3.1-.3.1-.5.1-.8V617zM357.1 609.6v3.1h2.8v1.5h-2.8v5.7c0 1.3.4 2.1 1.5 2.1.5 0 .9-.1 1.1-.1l.1 1.5c-.4.2-1 .3-1.7.3-.9 0-1.6-.3-2.1-.8-.6-.6-.7-1.5-.7-2.8v-5.8h-1.7v-1.5h1.7v-2.6l1.8-.6zM363 618.3c0 2.6 1.7 3.7 3.7 3.7 1.4 0 2.2-.2 2.9-.6l.3 1.4c-.7.3-1.8.7-3.5.7-3.3 0-5.2-2.2-5.2-5.4s1.9-5.7 5-5.7c3.5 0 4.4 3.1 4.4 5 0 .4 0 .7-.1.9H363zm5.7-1.4c0-1.2-.5-3.1-2.7-3.1-2 0-2.8 1.8-3 3.1h5.7zM372.9 615.5c0-1.1 0-2-.1-2.9h1.7l.1 1.7h.1c.6-1 1.6-2 3.3-2 1.5 0 2.6.9 3 2.1.3-.6.7-1.1 1.2-1.4.6-.5 1.3-.7 2.4-.7 1.4 0 3.5.9 3.5 4.6v6.3h-1.9v-6c0-2-.7-3.3-2.3-3.3-1.1 0-2 .8-2.3 1.8-.1.3-.2.6-.2 1v6.6h-1.9v-6.4c0-1.7-.7-2.9-2.2-2.9-1.2 0-2.1 1-2.4 1.9-.1.3-.2.6-.2.9v6.4h-1.9v-7.7zM391.3 616.1c0-1.4 0-2.5-.1-3.5h1.7l.1 1.8c.8-1.3 2-2.1 3.8-2.1 2.6 0 4.5 2.2 4.5 5.4 0 3.8-2.3 5.7-4.8 5.7-1.4 0-2.6-.6-3.3-1.7v5.8h-1.9v-11.4zm1.9 2.9c0 .3 0 .6.1.8.4 1.3 1.5 2.3 2.9 2.3 2 0 3.2-1.7 3.2-4.1 0-2.1-1.1-4-3.2-4-1.3 0-2.6.9-2.9 2.4-.1.2-.1.5-.1.8v1.8zM413.4 617.9c0 3.9-2.7 5.7-5.3 5.7-2.9 0-5.1-2.1-5.1-5.5 0-3.6 2.3-5.7 5.3-5.7 3.1 0 5.1 2.2 5.1 5.5zm-8.4.1c0 2.3 1.3 4.1 3.2 4.1 1.8 0 3.2-1.7 3.2-4.1 0-1.8-.9-4.1-3.2-4.1-2.2 0-3.2 2.1-3.2 4.1zM415.9 616c0-1.3 0-2.3-.1-3.3h1.7l.1 2.1h.1c.5-1.4 1.7-2.3 2.9-2.3.2 0 .4 0 .5.1v1.8c-.2 0-.4-.1-.7-.1-1.4 0-2.3 1-2.6 2.5 0 .3-.1.6-.1.9v5.7h-1.9V616z"/></g></svg>