<svg version="1.1" id="Layer_1" xmlns="http://www.w3.org/2000/svg" xmlns:xlink="http://www.w3.org/1999/xlink" x="0" y="0" width="510" height="710" xml:space="preserve"><style>.st1{fill:#3a7ec1}.st2{fill:#145ba1}.st3{fill:#73b4e2}.st4{fill:#aeaeae}.st5{fill:#878787}.st6{fill:#bf8b34}.st7{fill:#152347}.st8{fill:#ef477e}.st10{fill:#0d162e}.st11{fill:#231f20}.st12{fill:#50bdec}.st14{fill:#fcb542}.st15{fill:#505050}.st17{fill:#fff}</style><defs><path id="XMLID_215_" d="M5 1.4h500v707.1H5z"/></defs><use xlink:href="#XMLID_215_" overflow="visible" fill="#2f69b3"/><clipPath id="XMLID_261_"><use xlink:href="#XMLID_215_" overflow="visible"/></clipPath><g clip-path="url(#XMLID_261_)"><path id="XMLID_259_" class="st1" d="M84.3 212c9.7 10.3 26.7 13.1 40.9 12.4 14.1-.7 27.9-8.7 34.9-20.9 7.2-12.7 7-28.5 2.6-42.5-1.6-5.2-3.8-10.3-7.1-14.6-10.4-13.5-34.6-16.6-51.3-13.3-3.8.8-25.3 10.9-29.8 28.5-8.8 33.1 6.5 46.8 9.8 50.4z"/><path id="XMLID_258_" class="st2" d="M188 140.2c-6.1-27.5-41.9-23.5-65-8 6.6.4 12.9 2 18.3 4.1 2.9 1.1 6.8 3 9.5 5.4 8.5-2.6 16.1-2.6 9.1 8.1-7.2 11.1-21.9 17.7-32.6 24.8-13 8.6-26.3 17-41.1 22-5.5 1.8-14.5 4.5-19.7.4-3.6-2.9-1.4-8.3 5.4-11.5-.5-2.7-.2-6.5-.1-8.7.2-3.4 1.2-9.8 1.3-10.1-22.1 2-37.4 33.8-14.9 48.8 22.9 15.2 60.1-7.7 79.6-19.4 20.1-12.2 54.9-34.9 50.2-55.9z"/><path id="XMLID_257_" class="st1" d="M201 98.4c.9 8.7 8.3 16.6 15.6 21.5 7.3 5 17 6.2 25.1 2.8 8.4-3.5 14.2-11.5 17.3-20 1.2-3.2 2-6.5 2-9.9 0-10.6-10.9-21.3-20.4-25.9-2.2-1.1-16.6-4.1-25.5 2.9-16.8 13.1-14.4 25.7-14.1 28.6z"/><path id="XMLID_256_" class="st2" d="M279.3 102c7.3-15.9-11.9-27.4-29.2-28.4 3.1 2.7 5.6 5.9 7.5 8.9 1 1.6 2.2 4 2.7 6.3 5.2 1.9 9 4.7 1.5 7.4-7.7 2.8-17.5.5-25.5 0-9.7-.7-19.4-1.5-28.6-4.6-3.4-1.1-8.9-3.2-9.9-7.2-.7-2.8 2.4-4.6 7-3.7.7-1.5 2.3-3.3 3.2-4.4 1.4-1.6 4.3-4.4 4.4-4.5-11.7-7.3-31.2 2.6-25.7 18.6 5.6 16.1 32.7 18.8 46.7 20.4 14.6 1.5 40.4 3.4 45.9-8.8z"/><path id="XMLID_255_" class="st1" d="M240.6 187.9c1.3 12.1 11.5 22.9 21.5 29.8 10 6.9 23.6 8.6 34.8 3.8 11.6-4.9 19.6-15.9 23.9-27.7 1.6-4.4 2.7-9 2.7-13.7-.1-14.6-15.1-29.4-28.2-35.8-3-1.5-23-5.7-35.3 4-23.1 18.1-19.8 35.5-19.4 39.6z"/><path id="XMLID_254_" class="st2" d="M349.1 192.8c10.1-22-16.5-37.9-40.4-39.4 4.4 3.7 7.7 8.1 10.4 12.3 1.4 2.3 3.1 5.6 3.7 8.7 7.2 2.7 12.4 6.6 2 10.3-10.7 3.8-24.2.7-35.2 0-13.4-.9-26.8-2-39.6-6.4-4.7-1.6-12.3-4.5-13.7-10-1-3.9 3.4-6.4 9.7-5.1 1-2.1 3.2-4.6 4.5-6 1.9-2.2 5.9-6.1 6.1-6.3-16.1-10.2-43.2 3.6-35.6 25.7 7.7 22.3 45.2 26 64.6 28.2 20.1 2.2 55.7 4.8 63.5-12z"/><path id="XMLID_253_" class="st1" d="M328.6 124c6 10.6 19.7 16.4 31.7 18.6 12 2.2 25-1.6 33.4-10.5 8.6-9.1 11.6-22.5 10.8-35-.3-4.7-1.1-9.4-3-13.7-5.9-13.4-25.6-20.9-40.2-21.5-3.3-.1-23.3 4-30.7 17.8-14 26.1-4 40.7-2 44.3z"/><path id="XMLID_252_" class="st2" d="M429.9 84.9c.4-24.2-30.3-28.1-52.8-19.8 5.5 1.6 10.3 4.3 14.5 7.1 2.2 1.5 5 3.9 6.9 6.5 7.6-.4 14 1 6 8.6-8.3 7.8-21.9 10.4-32.3 14.1-12.6 4.5-25.4 8.9-38.8 10.1-5 .4-13.1.9-16.5-3.6-2.4-3.1.5-7.2 6.8-8.6.1-2.3 1.1-5.5 1.7-7.3.8-2.8 3-8 3.1-8.2-18.9-2.8-38.1 20.7-22.3 37.8 16 17.3 51.8 5.7 70.5-.2 19.2-6 52.9-18 53.2-36.5z"/><path id="XMLID_251_" class="st1" d="M54.3 79.1c8.2 14.3 26.6 22.1 42.8 25.1 16.1 3 33.8-2.2 45.1-14.1 11.6-12.3 15.6-30.3 14.5-47.2-.4-6.3-1.5-12.7-4.1-18.4-8-18.1-34.6-28.2-54.3-29-4.5-.2-31.5 5.4-41.5 24.1-18.7 35-5.2 54.6-2.5 59.5z"/><path id="XMLID_250_" class="st2" d="M191 26.4c.6-32.7-40.9-38-71.3-26.8 7.4 2.2 14 5.8 19.6 9.6 3 2 6.8 5.3 9.3 8.7 10.3-.6 18.9 1.4 8.1 11.6-11.1 10.6-29.5 14-43.5 19.1-17.1 6.1-34.3 12-52.4 13.6-6.7.6-17.6 1.2-22.3-4.9-3.3-4.3.7-9.8 9.2-11.6.1-3.1 1.5-7.4 2.3-9.9 1.1-3.7 4-10.8 4.2-11.1C28.7 21 2.7 52.7 24 75.8c21.7 23.4 70 7.6 95.2-.2 25.9-8.1 71.4-24.2 71.8-49.2z"/><path id="XMLID_249_" class="st1" d="M248.6 17c5.7 15.4 22.5 26.2 38 31.9 15.4 5.7 33.7 3.5 46.8-6.4 13.5-10.2 20.5-27.3 22.2-44.1.6-6.3.6-12.7-.9-18.9-4.9-19.1-29.4-33.5-48.7-37.6-4.4-.9-31.9.1-44.9 16.8-24.4 31.4-14.4 53.1-12.5 58.3z"/><path id="XMLID_248_" class="st2" d="M392.2-12.2c6-32.2-34-44.3-65.8-38.3 6.9 3.4 12.8 8.1 17.7 12.7 2.6 2.5 5.8 6.3 7.7 10.2 10.3 1.1 18.4 4.5 6 12.8-12.7 8.5-31.4 8.9-46.1 11.5-17.8 3.2-35.8 6.1-54 4.7-6.7-.5-17.6-1.8-21.2-8.5-2.5-4.7 2.3-9.5 11-9.9.6-3.1 2.7-7 3.9-9.4 1.7-3.5 5.7-9.9 6-10.2-24.5-8-55.4 19-38.2 45.3 17.5 26.7 67.7 19.2 93.9 15.7 27-3.6 74.5-12 79.1-36.6z"/><path id="XMLID_247_" class="st1" d="M440.4 34.3c5.7 15.4 22.5 26.2 38 31.9 15.4 5.7 33.7 3.5 46.8-6.4 13.5-10.2 20.5-27.3 22.2-44.1.6-6.3.6-12.7-.9-18.9-4.9-19.2-29.4-33.6-48.7-37.6-4.4-.9-31.9.1-44.9 16.8-24.5 31.4-14.5 53.1-12.5 58.3z"/><path id="XMLID_246_" class="st2" d="M583.9 5.1c6-32.2-34-44.3-65.8-38.3 6.9 3.4 12.8 8.1 17.7 12.7 2.6 2.5 5.8 6.3 7.7 10.2 10.3 1.1 18.4 4.5 6 12.8-12.7 8.5-31.4 8.9-46.1 11.5-17.8 3.2-35.8 6.1-54 4.7-6.7-.5-17.6-1.8-21.2-8.5-2.5-4.7 2.3-9.5 11-9.9.6-3.1 2.7-7 3.9-9.4 1.7-3.5 5.7-9.9 6-10.2-24.5-8-55.4 19-38.2 45.3 17.5 26.7 67.7 19.2 93.9 15.7 27-3.7 74.6-12 79.1-36.6z"/><path id="XMLID_245_" class="st1" d="M436.8 210.4c11.7 11.5 31.6 14 48 12.5s31.9-11.3 39.5-25.9c7.8-15 6.8-33.4 1.1-49.4-2.1-6-4.9-11.8-8.9-16.6-12.6-15.2-40.9-17.7-60.1-13.1-4.4 1-28.8 13.8-33.3 34.4-8.7 39 9.7 54.2 13.7 58.1z"/><path id="XMLID_244_" class="st2" d="M553.9 122.5c-8.4-31.6-49.7-25.4-75.9-6.4 7.7.1 15 1.8 21.4 3.9 3.4 1.1 8 3.2 11.3 5.9 9.8-3.4 18.5-3.8 11 9-7.8 13.2-24.6 21.5-36.7 30.2-14.8 10.5-29.7 20.9-46.7 27.4-6.3 2.4-16.7 5.9-22.8 1.4-4.3-3.2-2-9.6 5.7-13.6-.7-3.1-.5-7.5-.5-10.1.1-3.9.9-11.4 1-11.8-25.5 3.3-41.9 40.9-15.1 57.3 27.2 16.6 69.4-11.7 91.5-26.1 22.9-15 62.2-43 55.8-67.1z"/><path id="XMLID_243_" class="st1" d="M-29.6 303.8c-1.1 16.4 9.8 33.2 21.6 44.6s29.3 17 45.3 13.3c16.5-3.8 29.8-16.5 38.3-31.2 3.2-5.5 5.8-11.4 6.9-17.6 3.4-19.5-13.1-42.6-29.1-54.3-3.6-2.7-29.2-13-47.8-3-35.1 18.7-34.8 42.6-35.2 48.2z"/><path id="XMLID_242_" class="st2" d="M113.4 335.8C132 308.9 100.5 281.5 69 274c4.9 5.9 8.4 12.6 10.9 18.8 1.4 3.3 2.7 8.2 2.9 12.4 8.9 5.2 14.9 11.6.3 14.2-15.1 2.6-32.3-4.7-46.8-8.3-17.6-4.4-35.2-9-51.2-17.8-5.9-3.2-15.3-8.8-15.8-16.5-.4-5.4 6-7.7 14.1-4.5 1.8-2.5 5.4-5.3 7.4-7 3-2.5 9.3-6.7 9.6-6.9-19.1-17.3-58.3-5.3-53.4 25.7 5 31.5 54 45.2 79.3 52.7 26.1 7.7 72.9 19.6 87.1-1z"/><path id="XMLID_241_" class="st1" d="M406.9 319.1c4.4 15.8 20.3 28 35.2 35 14.9 6.9 33.3 6.3 47.2-2.5 14.3-9.1 22.7-25.5 25.8-42.1 1.2-6.2 1.7-12.6.6-18.9-3.3-19.5-26.5-35.9-45.4-41.6-4.3-1.3-31.8-2.6-46.1 13-26.9 29.3-18.8 51.7-17.3 57.1z"/><path id="XMLID_240_" class="st2" d="M552.4 302c8.7-31.5-30.2-47-62.4-43.6 6.6 4 12.1 9.1 16.6 14.1 2.4 2.7 5.3 6.8 6.8 10.8 10.1 2 17.9 6 5 13.3-13.4 7.5-32.1 6.3-46.9 7.7-18 1.7-36.2 3.1-54.2.2-6.6-1.1-17.4-3.3-20.4-10.3-2.1-4.9 3.1-9.3 11.8-8.9.9-3 3.3-6.8 4.7-9 2-3.4 6.6-9.4 6.8-9.7-23.7-10-56.8 14.3-41.8 42 15.2 28 65.9 24.8 92.3 23.4 27-1.5 75.1-5.9 81.7-30z"/><path id="XMLID_239_" class="st1" d="M1.5 436.9c3 10.7 13.8 19 23.9 23.7 10.1 4.7 22.6 4.3 32-1.7 9.7-6.1 15.4-17.3 17.5-28.6.8-4.2 1.1-8.6.4-12.8-2.2-13.2-18-24.3-30.8-28.2-2.9-.9-21.6-1.8-31.3 8.8-18.3 20-12.7 35.1-11.7 38.8z"/><path id="XMLID_238_" class="st2" d="M100.2 425.3c5.9-21.4-20.5-31.9-42.3-29.6 4.5 2.7 8.2 6.2 11.2 9.6 1.6 1.8 3.6 4.6 4.6 7.3 6.9 1.3 12.2 4.1 3.4 9-9.1 5.1-21.8 4.3-31.8 5.2-12.2 1.1-24.5 2.1-36.7.1-4.5-.7-11.8-2.2-13.8-7-1.4-3.3 2.1-6.3 8-6 .6-2 2.2-4.6 3.2-6.1 1.4-2.3 4.4-6.4 4.6-6.6-16.1-6.8-38.5 9.7-28.4 28.5 10.3 19 44.7 16.8 62.6 15.9 18.3-1 50.9-3.9 55.4-20.3z"/><g><path id="XMLID_237_" class="st1" d="M441.8 420.5c-2 11 4.1 23.1 11.2 31.7 7.1 8.6 18.5 13.6 29.6 12.4 11.4-1.3 21.4-8.9 28.2-18.2 2.5-3.5 4.8-7.2 6-11.3 3.7-12.9-5.6-29.7-15.5-38.8-2.3-2.1-18.7-11-32-5.6-25.3 9.9-26.9 26-27.5 29.8z"/><path id="XMLID_236_" class="st2" d="M535.7 452.9c14.6-16.7-4.6-37.6-25.3-45 2.9 4.4 4.7 9.1 6 13.5.7 2.4 1.2 5.7 1 8.6 5.6 4.2 9.2 9-.9 9.6-10.4.6-21.4-5.6-30.9-9.1-11.5-4.3-23-8.7-33.2-15.9-3.7-2.6-9.7-7.1-9.4-12.3.2-3.6 4.6-4.8 9.8-2 1.4-1.6 4-3.2 5.5-4.1 2.2-1.5 6.8-3.8 7-3.9-11.6-13.1-38.9-8-37.9 13.3 1 21.6 33 34.6 49.5 41.5 17 7 47.7 18.5 58.8 5.8z"/></g><g><path id="XMLID_235_" class="st1" d="M-32.1 192.2c8.8 8.7 23.8 10.6 36.2 9.5 12.3-1.1 24.1-8.5 29.8-19.5 5.9-11.3 5.1-25.2.8-37.2-1.6-4.5-3.7-8.9-6.7-12.6-9.5-11.5-30.9-13.4-45.4-9.9-3.3.8-21.7 10.4-25.1 26-6.4 29.3 7.4 40.8 10.4 43.7z"/><path id="XMLID_234_" class="st2" d="M56.3 125.9c-6.3-23.8-37.5-19.2-57.2-4.8 5.8.1 11.3 1.3 16.2 2.9 2.6.9 6 2.4 8.5 4.4 7.4-2.6 14-2.9 8.3 6.8-5.9 9.9-18.5 16.2-27.7 22.8-11.1 7.9-22.4 15.8-35.3 20.6-4.7 1.8-12.6 4.5-17.2 1-3.3-2.4-1.5-7.2 4.3-10.3-.6-2.3-.4-5.7-.4-7.6 0-3 .7-8.6.8-8.9-19.3 2.5-31.6 30.8-11.4 43.2 20.5 12.5 52.4-8.8 69-19.7 17.2-11.1 46.9-32.2 42.1-50.4z"/></g><g><path id="XMLID_233_" class="st1" d="M443 501c-9.7-10.3-26.7-13.1-40.9-12.4-14.1.7-27.9 8.7-34.9 20.9-7.2 12.7-7 28.5-2.6 42.5 1.6 5.2 3.8 10.3 7.1 14.6 10.4 13.5 34.6 16.6 51.3 13.3 3.8-.8 25.3-10.9 29.8-28.5 8.8-33.2-6.5-46.9-9.8-50.4z"/><path id="XMLID_232_" class="st2" d="M339.2 572.8c6.2 27.5 41.9 23.5 65 8-6.6-.4-12.9-2-18.3-4.1-2.9-1.1-6.8-3-9.5-5.4-8.5 2.6-16.1 2.6-9.1-8.1 7.2-11.1 21.9-17.7 32.6-24.8 13-8.6 26.3-17 41.1-22 5.5-1.8 14.5-4.5 19.7-.4 3.6 2.9 1.4 8.3-5.4 11.5.5 2.7.2 6.5.1 8.7-.2 3.4-1.2 9.8-1.3 10.1 22.1-2 37.4-33.8 14.9-48.8-22.9-15.2-60.1 7.8-79.6 19.4-20.1 12.1-54.9 34.9-50.2 55.9z"/></g><g><path id="XMLID_231_" class="st1" d="M326.3 614.5c-.9-8.7-8.3-16.6-15.6-21.5-7.3-5-17-6.2-25.1-2.8-8.4 3.5-14.2 11.5-17.3 20-1.2 3.2-2 6.5-2 9.9 0 10.6 10.9 21.3 20.4 25.9 2.2 1.1 16.6 4.1 25.5-2.9 16.8-13.1 14.4-25.6 14.1-28.6z"/><path id="XMLID_230_" class="st2" d="M247.9 611c-7.3 15.9 11.9 27.4 29.2 28.4-3.1-2.7-5.6-5.9-7.5-8.9-1-1.6-2.2-4-2.7-6.3-5.2-1.9-9-4.7-1.5-7.4 7.7-2.8 17.5-.5 25.5 0 9.7.7 19.4 1.5 28.6 4.6 3.4 1.1 8.9 3.2 9.9 7.2.7 2.8-2.4 4.6-7 3.7-.7 1.5-2.3 3.3-3.2 4.4-1.4 1.6-4.3 4.4-4.4 4.5 11.7 7.3 31.2-2.6 25.7-18.5-5.6-16.1-32.7-18.8-46.7-20.4-14.5-1.6-40.3-3.5-45.9 8.7z"/></g><g><path id="XMLID_229_" class="st1" d="M286.6 525.1c-1.3-12.1-11.5-22.9-21.5-29.8-10-6.9-23.6-8.6-34.8-3.8-11.6 4.9-19.6 15.9-23.9 27.7-1.6 4.4-2.7 9-2.7 13.7.1 14.6 15.1 29.4 28.2 35.8 3 1.5 23 5.7 35.3-4 23.2-18.2 19.9-35.5 19.4-39.6z"/><path id="XMLID_228_" class="st2" d="M178.2 520.2c-10.1 22 16.4 37.9 40.4 39.4-4.4-3.7-7.7-8.1-10.4-12.3-1.4-2.3-3.1-5.6-3.7-8.7-7.2-2.7-12.4-6.6-2-10.3 10.7-3.8 24.2-.7 35.2 0 13.4.9 26.8 2 39.6 6.4 4.7 1.6 12.3 4.5 13.7 10 1 3.9-3.4 6.4-9.7 5.1-1 2.1-3.2 4.6-4.5 6-1.9 2.2-5.9 6.1-6.1 6.3 16.1 10.2 43.2-3.6 35.6-25.7-7.7-22.3-45.2-26-64.6-28.2-20.1-2.3-55.8-4.9-63.5 12z"/></g><g><path id="XMLID_227_" class="st1" d="M198.6 589c-6-10.6-19.7-16.4-31.7-18.6-12-2.2-25 1.6-33.4 10.5-8.6 9.1-11.6 22.5-10.8 35 .3 4.7 1.1 9.4 3 13.7 5.9 13.4 25.6 20.9 40.2 21.5 3.3.1 23.3-4 30.7-17.8 14.1-26.1 4.1-40.7 2-44.3z"/><path id="XMLID_226_" class="st2" d="M97.4 628c-.4 24.2 30.3 28.1 52.8 19.8-5.5-1.6-10.3-4.3-14.5-7.1-2.2-1.5-5-3.9-6.9-6.5-7.6.4-14-1-6-8.6 8.3-7.8 21.9-10.4 32.3-14.1 12.6-4.5 25.4-8.9 38.8-10.1 5-.4 13.1-.9 16.5 3.6 2.4 3.1-.5 7.2-6.8 8.6-.1 2.3-1.1 5.5-1.7 7.3-.8 2.8-3 8-3.1 8.2 18.9 2.8 38.1-20.7 22.3-37.8-16-17.3-51.8-5.7-70.5.2-19.2 6.1-52.9 18-53.2 36.5z"/></g><g><path id="XMLID_225_" class="st1" d="M472.9 633.9c-8.2-14.3-26.6-22.1-42.8-25.1-16.1-3-33.8 2.2-45.1 14.1-11.6 12.3-15.6 30.3-14.5 47.2.4 6.3 1.5 12.7 4.1 18.4 8 18.1 34.6 28.2 54.3 29 4.5.2 31.5-5.4 41.5-24.1 18.8-35 5.3-54.7 2.5-59.5z"/><path id="XMLID_224_" class="st2" d="M336.2 686.6c-.6 32.7 40.9 38 71.3 26.8-7.4-2.2-14-5.8-19.6-9.6-3-2-6.8-5.3-9.3-8.7-10.3.6-18.9-1.4-8.1-11.6 11.1-10.6 29.5-14 43.5-19.1 17.1-6.1 34.3-12 52.4-13.6 6.7-.6 17.6-1.2 22.3 4.9 3.3 4.3-.7 9.8-9.2 11.6-.1 3.1-1.5 7.4-2.3 9.9-1.1 3.8-4 10.8-4.2 11.1 25.5 3.8 51.5-28 30.1-51-21.7-23.4-70-7.6-95.2.2-25.8 7.9-71.3 24.1-71.7 49.1z"/></g><g><path id="XMLID_223_" class="st1" d="M278.6 695.9c-5.7-15.4-22.5-26.2-38-31.9-15.4-5.7-33.7-3.5-46.8 6.4-13.5 10.2-20.5 27.3-22.2 44.1-.6 6.3-.6 12.7.9 18.9 4.9 19.1 29.4 33.6 48.7 37.6 4.4.9 31.9-.1 44.9-16.8 24.5-31.4 14.5-53 12.5-58.3z"/><path id="XMLID_222_" class="st2" d="M135 725.1c-6 32.2 34 44.3 65.8 38.3-6.9-3.4-12.8-8.1-17.7-12.7-2.6-2.5-5.8-6.3-7.7-10.2-10.3-1.1-18.4-4.5-6-12.8 12.7-8.5 31.4-8.9 46.1-11.5 17.8-3.2 35.8-6.1 54-4.7 6.7.5 17.6 1.8 21.2 8.5 2.5 4.7-2.3 9.5-11 9.9-.6 3.1-2.7 7-3.9 9.4-1.7 3.5-5.7 9.9-6 10.2 24.5 8 55.4-19 38.2-45.3-17.5-26.7-67.7-19.2-93.9-15.7-26.9 3.7-74.5 12-79.1 36.6z"/></g><g><path id="XMLID_221_" class="st1" d="M86.9 678.6c-5.7-15.4-22.5-26.2-38-31.9-15.4-5.7-33.7-3.5-46.8 6.4-13.5 10.2-20.5 27.3-22.2 44.1-.6 6.3-.6 12.7.9 18.9 4.9 19.1 29.4 33.6 48.7 37.6 4.4.9 31.9-.1 44.9-16.8 24.4-31.4 14.4-53 12.5-58.3z"/><path id="XMLID_220_" class="st2" d="M-56.7 707.8c-6 32.2 34 44.3 65.8 38.3-6.9-3.4-12.8-8.1-17.7-12.7-2.6-2.5-5.8-6.3-7.7-10.2-10.3-1.1-18.4-4.5-6-12.8 12.7-8.5 31.4-8.9 46.1-11.5 17.8-3.2 35.8-6.1 54-4.7 6.7.5 17.6 1.8 21.2 8.5 2.5 4.7-2.3 9.5-11 9.9-.6 3.1-2.7 7-3.9 9.4-1.7 3.5-5.7 9.9-6 10.2 24.5 8 55.4-19 38.2-45.3-17.5-26.7-67.7-19.2-93.9-15.7-26.9 3.7-74.5 12-79.1 36.6z"/></g><g><path id="XMLID_219_" class="st1" d="M90.5 502.5c-11.7-11.5-31.6-14-48-12.5S10.6 501.3 3 515.9c-7.8 15-6.8 33.4-1.1 49.4 2.1 6 4.9 11.8 8.9 16.6C23.4 597.1 51.7 599.6 71 595c4.4-1 28.8-13.8 33.3-34.4 8.5-38.9-9.8-54.2-13.8-58.1z"/><path id="XMLID_218_" class="st2" d="M-26.7 590.5c8.4 31.6 49.7 25.4 75.9 6.4-7.7-.1-15-1.8-21.4-3.9-3.4-1.1-8-3.2-11.3-5.9-9.8 3.4-18.5 3.8-11-9 7.8-13.2 24.6-21.5 36.7-30.2C57 537.4 71.9 527 88.9 520.5c6.3-2.4 16.7-5.9 22.8-1.4 4.3 3.2 2 9.6-5.7 13.6.7 3.1.5 7.5.5 10.1-.1 3.9-.9 11.4-1 11.8 25.5-3.3 41.9-40.9 15.1-57.3-27.2-16.6-69.4 11.7-91.5 26.1-22.8 15-62.2 42.9-55.8 67.1z"/></g><g><path id="XMLID_217_" class="st1" d="M559.4 520.7c-8.8-8.7-23.8-10.6-36.2-9.5-12.3 1.1-24.1 8.5-29.8 19.5-5.9 11.3-5.1 25.2-.8 37.2 1.6 4.5 3.7 8.9 6.7 12.6 9.5 11.5 30.9 13.4 45.4 9.9 3.3-.8 21.7-10.4 25.1-26 6.4-29.2-7.4-40.7-10.4-43.7z"/><path id="XMLID_216_" class="st2" d="M471 587.1c6.3 23.8 37.5 19.2 57.2 4.8-5.8-.1-11.3-1.4-16.2-2.9-2.6-.9-6-2.4-8.5-4.4-7.4 2.6-14 2.9-8.3-6.8 5.9-9.9 18.5-16.2 27.7-22.8 11.1-7.9 22.4-15.8 35.3-20.6 4.7-1.8 12.6-4.5 17.2-1 3.3 2.4 1.5 7.2-4.3 10.3.6 2.3.4 5.7.4 7.6 0 3-.7 8.6-.8 8.9 19.3-2.5 31.6-30.8 11.4-43.2-20.5-12.5-52.4 8.8-69 19.7-17.2 11.1-46.9 32.1-42.1 50.4z"/></g></g><g><path id="XMLID_214_" class="st3" d="M328 121.6c1.6-.1 2.9 0 3.9.4.9.3 1.8.8 2.8 1.7 2.6 2.1 4.8 4.9 6.4 8.5-8.4-2-17-3.7-25.5-5.2 3.9-3.2 8.1-5.1 12.4-5.4z"/><path id="XMLID_213_" class="st4" d="M441.3 371.9c1.5 2.6 2.7 5.6 3.7 9.5 2.4 9.3 2.5 18.5.3 26.5-2.3 8.3-7.1 15.8-11.8 23.1 0 .1 0 .1-.1.2-3.2 1.8-7.6 3.7-13.6 5.3-5 1.3-10.2 2.3-15.2 2.9 1.1-5.5 2.7-10.3 4.9-14.5 2.1-4.2 2.1-9.3 0-13.5-.6-1.1-1.9-1.5-3-.9s-1.5 1.9-.9 3c1.5 2.8 1.5 6.5 0 9.4-2.5 4.9-4.3 10.5-5.6 17-1.6.2-3.2.3-4.8.4 2.2-6.7 4.2-13.4 6.1-19.9l3.2-10.6c.8-2.6 1.2-5.5 1.3-8.9.1-3-1.9-5.6-4.7-6.5l-2.9-.9c-1.1-.3-2.2-.6-3.3-1-.2-.2-.5-.3-.8-.4-.3-.1-.6-.1-.9-.1-3.7-1-7.9-2.2-14-3.7-.6-.2-1.4-.4-2.1-.6-4.8-1.3-10.8-3-13.6 1-3.8 5.5-6.2 13-8.4 20.3-1 3.3-2 6.5-3.1 9.2-2.8 7.1-5.6 14.5-6.4 22.3-4.7 0-8.9.2-12.8.4-8.3.5-16.7 1.2-24.8 2-9.9.9-20.1 1.8-30.2 2.2.6-2.1 1.7-4.2 3-6.4.7-1.2 1.4-2.4 2-3.6 1.8-3.7 2.8-7.7 3.8-11.5l.1-.4c4-15.6 8.5-31.2 13.5-46.5.4-1.2-.2-2.4-1.4-2.8-1.2-.4-2.4.2-2.8 1.4-5.1 15.3-9.7 31.1-13.6 46.8l-.1.4c-.9 3.6-1.9 7.4-3.5 10.7-.5 1.1-1.2 2.3-1.8 3.4-1.5 2.7-3 5.5-3.6 8.7-5 .1-10 0-15-.1.7-3.8 2.1-8.3 3.7-13.5 3.5-11.1 7.8-24.8 6.8-37.7-.5-6.6-3.2-13-6.5-19.1.2-.4.4-.8.3-1.3-1.8-17.6 6-36 19.9-46.9 1.6-1.3 3.3-2.4 5.1-3.5 5.2 13.2 18.2 27.4 36.1 39.4 10.3 6.9 25.1 9.5 35.7 10.5 1.1.1 2.6.2 4.6.2 12.3 0 40-2.8 59.6-18l.1-.1c2.3 1.5 4.7 3.2 7.3 5.1 2.6 2.2 8.6 8.8 10.2 11.6z"/><path id="XMLID_212_" class="st5" d="M350.1 440.6c.6-5.1 2.1-10 3.8-14.8l8.5 1.5c-2.2 4.3-4 8.8-5.5 13.4-2.2 0-4.5-.1-6.8-.1z"/><path id="XMLID_211_" class="st5" d="M396.9 397.8l3 .9c.9.3 1.6 1.1 1.6 2.1-.1 3-.4 5.5-1.1 7.7l-1.5 4.9c-2.2-.4-5-1.1-8.1-1.9l4.2-14.2c.6.1 1.3.3 1.9.5z"/><path id="XMLID_210_" class="st3" d="M397.2 419.1c-1 3.2-2 6.5-3 9.8-2.6-.3-5.3-.8-8.2-1.3l3.5-11.9c3 .8 5.8 1.5 8.1 1.9l-.4 1.5z"/><path id="XMLID_209_" class="st5" d="M373.8 411.4c2.9.8 5.8 1.6 8.7 2.3.9.3 1.9.5 2.8.8l-3.6 12.2c-1.5-.3-3-.7-4.5-1-3-.7-5.9-1.3-8.7-1.8.1-.2.1-.3.2-.5.6-1.7 1.1-3.4 1.9-4.9 1.1-2.3 2.2-4.7 3.2-7.1z"/><path id="XMLID_208_" class="st3" d="M386.5 410.3c-.9-.3-1.9-.5-2.9-.8-2.7-.8-5.5-1.5-8.2-2.2 1.8-4.6 3.4-9.3 4.7-14.1 4.3 1.1 7.6 2 10.5 2.8l-4.1 14.3z"/><path id="XMLID_207_" class="st5" d="M371.1 406.2c-3.6-.9-6.9-1.6-9.8-2.1 1.6-4.8 3.4-9.3 5.8-12.8 1-1.4 6 0 8.7.7-1.2 4.9-2.8 9.6-4.7 14.2z"/><path id="XMLID_206_" class="st3" d="M359.4 410.4c.2-.7.4-1.4.6-2 2.7.4 5.9 1.1 9.5 1.9-.9 2.1-1.9 4.2-2.9 6.3-.9 1.8-1.5 3.6-2.1 5.4-.1.4-.2.7-.4 1.1l-8.6-1.5c.2-.6.4-1.1.6-1.7 1.2-2.9 2.2-6.1 3.3-9.5z"/><path id="XMLID_205_" class="st3" d="M366.5 429.1c.2-.3.3-.6.4-1 2.9.6 6 1.2 9.3 2l4.2.9-2.7 9-.5.5c-.2.1-.3.3-.4.5h-.3c-4.6 0-9.2-.1-13.8-.1h-1.2c1.5-4.1 3.1-8.1 5-11.8z"/><path id="XMLID_204_" class="st5" d="M384.8 431.9c2.8.6 5.5 1 8.1 1.4-.8 2.5-1.5 4.9-2.3 7.4-2.9.1-5.7.2-8.4.3l2.6-9.1z"/><path id="XMLID_203_" class="st3" d="M146.5 436.7c-.8-6.7-1.5-14.1-1.2-21.3.3-6.9.9-19.9 8.3-27.8 11.8-12.6 24.8-11.1 31.4-9.1 13.2 3.9 17.7 8.9 22.8 18.6 1.2 2.3 2.3 7.2 3.1 14.7 1.2 10.4 1.7 21.1 1.5 30.5l-58.3-4.8c-2.5-.3-5-.5-7.6-.8z"/><path id="XMLID_202_" class="st3" d="M215.4 411.2c-.6-5.2-1.6-12.5-3.6-16.2-5.5-10.4-10.9-16.4-25.4-20.8-7.7-2.3-22.5-4-35.9 10.4-8.6 9.2-9.2 23.2-9.5 30.7-.3 7.3.4 14.6 1.1 21.2-2.7-.2-5.5-.5-8.2-.8.1-6 .1-11.9 0-17.6l-.1-9.2c-.1-7.7-.1-15.5-.3-23.2-.1-3.3-.2-7.4-1.4-11.1-1.3-4.1-3.7-7.6-5.9-10.7-1.1-1.6-2.6-3.7-4.7-5.2.8-.9 1.6-1.7 2.4-2.6 2.4-2.6 4.8-5.3 7-8 2.4-2.9 4.8-6.1 7.3-9.8.6.6 1.1 1.2 1.7 1.7.6.6 1.2 1.1 1.7 1.7 8.8 9.7 22.4 15.3 36.4 15.3 2.8 0 5.6-.2 8.4-.7 9-1.5 17.6-5.8 24.1-12.1 3.4-3.3 6.2-7 9-10.8 2.5 1.9 5.1 3.7 7.5 5.3-4.6 5-8.7 10.5-12.2 16.4-2.2 3.8-7.2 15.2-3.4 18.6.7.6 1.5.9 2.5.9 2.3 0 5.5-2.1 8.7-4.9-1 2.2-1.2 3.5-1.5 5.2-.1.6-.2 1.3-.3 2.1-.3 1.5.7 3 1.5 4.1.7 1.1 2 1.8 3.5 1.8.5 0 1-.1 1.4-.2 1.4-.4 2.4-1.4 3-2 .9-.8 1.7-1.7 2.5-2.5l-1 2.3c-.7 1.6-1.5 3.5-1.3 5.6.2 2.5 2.1 5 4.8 5.2-.6 6.7.1 13.4.7 19.9.2 1.6.3 3.2.5 4.7.8 9.4 1 18.9.5 28.3-5.4-.4-10.8-.8-16.1-1.3l-4-.3c.3-9.7-.2-20.7-1.4-31.4z"/><path id="XMLID_201_" class="st3" d="M107.9 432.4c-3-10.7-2.8-21.6-2.7-31.2 0-1.9.1-3.7.1-5.5 0-4.6.1-8.8 1-12.9 1.8-8 6.5-14.5 12.1-21 1.5.9 2.8 2.5 4.1 4.3 2.1 3 4.3 6.1 5.3 9.5 1 3.2 1.1 6.8 1.2 9.9.2 7.7.3 15.4.3 23.2l.1 9.2c.1 5.5.1 11.1 0 16.8-.1.1-.1.2-.1.4-7.1-.7-14.3-1.6-21.4-2.7z"/><path id="XMLID_200_" class="st3" d="M141.3 333.4l2.4-3.9c4.8 5 10.9 10.2 18.7 12.6 3.3 1 6.6 1.4 9.5 1.6 2.2.2 4.2.3 6 .3 1.1 0 2.1 0 3.1-.1 12.3-.8 24-6.9 31.7-16.5 1.1 1.1 2.2 2.2 3.3 3.2-2.7 3.7-5.4 7.3-8.6 10.4-5.9 5.7-13.7 9.6-21.8 10.9-15.2 2.5-31.2-2.7-40.7-13.2l-1.9-1.9c-.8-.8-1.7-1.6-2.2-2.3.1-.5.3-.8.5-1.1z"/><path id="XMLID_199_" class="st3" d="M225.3 233.7c-2.9 1.7-6.6 3.7-10.3 3.4-5.9-.5-10.3-1.9-13.9-4.6-2.6-2-4.7-4.9-6-8.2-1.1-2.9-1.6-6.2-1.9-10.7-.2-4.1.9-9.5 2.8-14.6 1.5-4 4.7-9.2 7.9-11.5 6.1-4.4 16.3-4.3 23.3-2.4 5.7 1.6 10.2 5 12.5 9.5-2.2 12.3-7 25.1-14.4 39.1z"/><path id="XMLID_198_" class="st6" d="M220.8 250.3l1.2-1.9c.6-.9 1.1-1.9 1.6-2.8.2-.1.4-.2.6-.4 1.4-1.3 3.1-2.5 5.2-3.5 4.9-2.4 10.9-3.6 17.3-3.4 5.4.1 11.1 1.2 17.9 3.2 1.7.5 3.7 1.2 5.4 2.1 3.7 2.1 6.8 5.5 8.5 9.3 1.4 3.2 2.9 8.6 3 11.7 0 .2.1.3.1.5-5.4 3.8-11.8 4.6-18 5-9.5.7-20.6 0-33.7-1.9-6.2-.9-10.5-2.9-15.6-6.1 1.7-4 4.1-8 6.5-11.8z"/><path id="XMLID_197_" class="st6" d="M210.2 279.8c.1-1.2.2-2.4.4-3.5 2 1.7 4 2.9 6.6 4 3.1 1.3 7.6 3.1 11.7 3.8 4.1.7 7.7 1 11.6 1.3l4.5.3c2.7.2 5.4.4 8.1.4 9.2 0 18.5-1.4 27.3-4.1-1 4.2-4.1 12.9-12.6 18.1-6.6 4-15.2 5.5-18.4 5.6-7.9.2-15.5-.9-23.2-3.2-8.2-2.5-13.8-5.3-16.7-11.6 0-.1-.1-.1-.1-.2.2-3.7.5-7.3.8-10.9z"/><path id="XMLID_196_" class="st3" d="M245.4 281.2c-1.6-.1-3.1-.2-4.6-.4-3.8-.3-7.3-.5-11.2-1.2-2.9-.5-6.7-1.8-10.8-3.5-3.2-1.4-5.2-2.6-7.5-5.3.3-1.5.7-3 1.1-4.4 5.3 3.2 10 5.3 16.6 6.2 10.1 1.5 19 2.2 26.9 2.2 2.7 0 5.3-.1 7.8-.3 7-.5 14.4-1.4 20.8-6.2 1.3-1 5.6-4.4 7-8 1.2-3.2-.1-8.4-2.9-10.8-2.6-2.3-6.1-2.3-8.5-2.4-.6-.8-1.2-1.7-1.9-2.5 4.1-.1 8.3.2 12.5 1.1 4.4.9 8.2 5.5 8.8 6.9 1.8 4.9 1.3 10.3-1.5 14.3-2.9 4.2-7.9 6.5-12 8.2-12.7 5.3-26.7 7.4-40.6 6.1z"/><path id="XMLID_195_" class="st3" d="M285.6 261.7c-.5-3.3-1.7-7.1-2.8-9.9 1.3.1 2.4.4 3.1 1.1 1.4 1.2 2.3 4.4 1.7 6-.3.8-1.1 1.8-2 2.8z"/><path id="XMLID_194_" class="st7" d="M209.2 298.1c4.3 4.7 10.3 6.9 15.8 8.5 7.6 2.3 15 3.4 22.7 3.4h1.9c2.8-.1 12.7-1.3 20.6-6.2 12.2-7.5 14.7-20.8 15.1-23.5.8-.3 1.6-.6 2.5-.9 4.7-1.9 10.5-4.6 14-9.8 3.5-5.1 4.3-12.2 2-18.4-.9-2.3-5.6-8.4-12-9.7-5.8-1.2-11.8-1.5-17.3-1-.3 0-.5.1-.8.2-.5-.4-1-.8-1.6-1.1-2.1-1.2-4.3-1.9-6.3-2.5-7.2-2.2-13.3-3.3-19.1-3.4-1.6 0-3.2 0-4.8.1 4.4-6.5 13.4-20.4 21-32.1 5.6-8.7 10.5-16.2 11.7-17.9 2.2-3.2 4.6-6.5 6.3-10.2l.5-1c.6-1.4 1.2-2.7 2-3.6 6.1 1.4 12.1 2.7 17.9 4 6.1 1.3 12.3 2.6 18.7 4.1l3.7.9c8.6 2 17.9 4.2 27.1 5.1.1 1.6.5 3.1.8 4.6l8 30.1c-5.1 2-10.3 4.5-15.4 7.6-23.9 14.6-29.9 29.3-33.9 43-4.6 15.5-2.1 30.6.7 41.7-11.9 2-22.6 6.4-31 13-13.3 10.5-21.4 27.3-21.8 44.2-.2-.4-.4-.7-.7-1.1l-.4-.7-.3-.3c.6-1.9 1.1-3.9 1.5-5.8.4-1.8 1.3-5.4-1-8-1.3-1.5-3.5-2.2-5.7-1.9l-.9.1c-.3 0-.5.1-.8.1.4-1.6 1.3-5.1-.9-7.5-1.4-1.6-4-2.1-6.3-1.4-.8.3-1.5.6-2.2 1 0-.6 0-1.2-.1-1.8 0-.8-.2-1.7-.6-2.6-.6-1.1-1.7-2-3.1-2.5-1.8-.6-3.8-.5-5.5.2-.3.1-.6.2-.8.3-8.8-5.8-20.5-13.7-20.9-24.2-.3-4.3-.4-8.7-.3-13.1z"/><path id="XMLID_193_" class="st6" d="M277.4 163.2c0-.2 0-.5-.1-.7l.1-.1c2.7-2.4 5-3.8 7.3-4.2 2.9-.6 6.1.4 8.2 2.5 1.7 1.7 2.7 4.2 2.7 6.7-3.8-.8-7.5-1.7-11.4-2.5-.5-.3-1-.4-1.5-.4-1.8-.4-3.6-.8-5.3-1.3z"/><path id="XMLID_192_" class="st6" d="M309.7 163.3l-.1-.8c-.2-1.9-.4-4.6 2-6.9 3-3 15.7-1.3 18 1 5.9 5.9 1.9 13.7-1.4 17.4-.1.1-.2.3-.3.5-1.1-.2-2.2-.5-3.2-.7l-3.7-.9c-3.4-.8-6.8-1.5-10.1-2.2-.6-2.4-1-4.9-1.2-7.4z"/><path id="XMLID_191_" class="st6" d="M342.4 177.5c1-2.4 4.1-5.8 7.4-7.2 4.4-2 7.6.1 9.5 1.3.4.2.7.4.9.6 2.2 1.2 3.3 4.1 4.1 7-7.1.4-14.5-.4-21.9-1.7z"/><path id="XMLID_190_" class="st8" d="M411.6 251.4c1.1 2.3 3.2 3.5 5.1 4.6 1.4.8 2.7 1.6 3.3 2.6.6 1.1.4 2.5.2 4.3-.2 1.6-.4 3.4.1 5.3.5 1.8 1.5 3.3 2.4 4.6.5.7.9 1.3 1.3 2 1.7 3.2 1.1 7.6-1.3 11-1.4 2-3.4 3.5-5.3 4.7.7-1.7 1.2-3.4 1.6-5.2.8-4.1 1.5-8.6.3-13.9-1-4.7-1.9-9.2-6.6-14.5-1.6-1.8-5.8-6.2-10.4-8.1-9.8-4.1-18.3-4.5-28.5-1.6-3.4 1-7.2 3.9-11.6 9.1-4.3 5-6.4 9.9-8.4 16.2-.7 2.3-1.3 4.7-1.8 7-3-2.2-4.9-3.7-5.3-6.4-.4-2.6.3-9 4.6-12.5 6.6-5.3 7.9-7.1 12.2-17.6.9-2.1 2.1-3.5 3.7-4.1 2.6-1 6.4-.4 11.5 1.9 2 .9 10 2.4 14.4-.4 1.8-1.2 5.7-1.7 8.6-1.8 2.1 0 4.1 0 5.8.6 1.6.5 2.9 1.6 3.3 2.8.3 1 .2 2.2.1 3.5-.1 1.7-.3 3.8.7 5.9z"/><path id="XMLID_189_" d="M352.2 296.6c.3-.8.6-1.7.9-2.5 1.3-3.7 2.1-7.6 2.9-11.3.6-3 1.3-6.2 2.2-9.2 1.8-5.9 3.7-10.2 7.5-14.6 4.7-5.5 7.7-7.2 9.4-7.7 9.3-2.6 16.7-2.2 25.6 1.5 2.6 1.1 5.8 3.7 8.8 7 3.9 4.4 4.6 7.8 5.6 12.4.9 4.3.5 8-.3 12.2-1.3 6.3-5.5 11.9-9.3 16.7-4.5 5.6-9.2 12.3-13.2 19-4.2 7-3.5 13.7 1.9 19.4-6.9 2.7-15.4 5.3-22.4 5.3-10.2.1-21-2.3-31.4-7.1-3.5-1.6-6.1-3.1-8.3-4.7-4.7-3.5-8.3-8.2-11.5-13.3 9.3-.1 13.9-2 19.6-5.8 7.9-5.4 9.9-11.1 12-17.3z" fill="#fdcd9d"/><path id="XMLID_188_" class="st10" d="M434.1 319.2c.1 2.3.1 4.6.1 6.9 0 9.9-.8 18.9-2.6 29.3-4.1-3-7.6-5.2-11.1-7.4s-6.8-4.3-10.7-7.1c-1-.7-1.6-1.5-2.3-2.5 0-.1-.1-.1-.2-.2 10.7-4.7 19.1-10.7 26.8-19z"/><path id="XMLID_187_" class="st3" d="M300.4 317.3c2.2 5 5.1 9.8 8.7 14.3 2.3 2.9 12.2 13.5 15.9 15.5 9.4 5.2 20.1 11.1 32.3 12.6 3.5.4 8.5.8 11.8.8h.5c13.4-.1 25.3-4.2 35.1-8.2 2.7-1.1 5.3-2.4 7.4-4.5 2.1 1.4 4.1 2.7 6.1 3.9.5.3 1.1.7 1.6 1-21.5 15.9-52.6 16.7-59.9 16-10.1-1-24.1-3.4-33.7-9.8-17.4-11.7-30-25.4-34.7-37.9 2.9-1.4 5.8-2.7 8.9-3.7z"/><path id="XMLID_186_" class="st11" d="M402.9 338.2c.2.3 9.2 7.5 9.6 7.7-1.5 1.3-7.1 3.1-9.1 3.9-9.5 4-20.9 8-33.7 8.2-3.1 0-8.3-.3-11.7-.7-11.5-1.5-21.8-7.4-31-12.6-2.6-1.5-11.9-11.5-14.7-15-3.3-4.2-6-10.3-8.1-15 2.4-.7 6.6-.7 9.2-1.1 4.4 8.2 9.3 15.8 16.9 21.7 2.5 1.9 8 4.5 11.8 6.3 11 5.2 20 6 30.9 5.9 10.3-.2 21.1-4.8 29.9-9.3z"/><path id="XMLID_185_" class="st3" d="M237.4 385.4c-.3.3-1.3 1.4-1.8 1.4v1.6-1.6c-.3 0-.7-.6-.8-1.2-.1-1.1.5-2.4 1-3.6l6.8-16.1c.4-1 0-2.3-1-2.8-.3-.2-.7-.3-1-.3-.7 0-1.4.3-1.8 1-3.2 4.7-6.6 8.7-11.6 13.5-.4.3-.9.8-1.4 1-.1-.2-.5-.7-.6-1 .1-.7.2-1.4.3-1.9.3-1.8.4-2.6 1.4-4.7.8-1.6 1.5-3.3 2.2-4.9.9-2.2 1.8-4.3 2.8-6 .7-.8 1.3-1.6 1.9-2.3.7-.9.6-2.2-.2-3-.8-.8-2.1-.8-3-.1-.8.7-1.6 1.6-2.3 2.7-6.9 8-12.2 12.1-14.1 12.8-.2-2 1.4-8.1 4.2-12.8 3.7-6.2 8-11.9 13-17.1l.3-.3c.5-.1.9-.3 1.3-.6.7-.2 1.5-.2 2.1 0 .4.1.6.3.6.4.1.1.1.4.1.8.1 1.9 0 3.7-.4 5.5-.2.9.2 1.8 1 2.3.8.5 1.8.5 2.5-.1.2-.1.4-.2.7-.4.5-.3 1-.6 1.3-.8 1-.8 1.9-1.6 2.9-1.9.7-.2 1.4-.1 1.7.2.6.7 0 2.8-.1 3.4l-.9 3.4c-.2.8 0 1.7.7 2.3.7.6 1.6.7 2.4.3.7-.3 2.4-.5 3.4-.6l1-.1c.8-.1 1.6.1 1.9.5.7.8.4 2.5 0 4-.9 3.9-1.9 8-3.8 11.4-1.1 2-2.6 3.9-4 5.6-2.8 3.5-5.8 6.9-8.7 10.1z"/><path id="XMLID_184_" class="st3" d="M240.8 415.4c-.1-1.6-.3-3.2-.5-4.8-.7-7.1-1.4-14.4-.5-21.3v-.1l.8-.8c3-3.3 6-6.7 8.8-10.2 1.6-1.9 3.2-4 4.5-6.3.3-.5.5-1 .8-1.6 4.5 7.5 9.2 15.9 9.8 24 .9 12-3.3 25.3-6.6 36-1.8 5.6-3.3 10.5-4 14.7-4.2-.2-8.4-.4-12.6-.7.5-9.5.4-19.3-.5-28.9z"/><path id="XMLID_183_" class="st12" d="M435.6 240.7c4.4 5.7 9.1 21.2 9.7 29.2 1.3 19.8-2.1 32.1-12.2 43.9-8.6 10-18 16.7-30.4 21.7-.3.1-.6.3-.8.6-1 .5-2.2 1.1-3.5 1.6-5.3-4.7-6-9.5-2.5-15.3 3.9-6.5 8.5-13 12.9-18.5 1.8-2.2 3.6-4.6 5.2-7.1 5.4-1.8 9.6-4.7 12.3-8.4 3.4-4.8 4-10.9 1.6-15.6-.4-.9-1-1.7-1.6-2.5-.8-1.1-1.5-2.1-1.7-3.2-.3-1.1-.1-2.4 0-3.7.2-2.1.5-4.5-.7-6.8-1.1-2.2-3.2-3.4-5-4.4-1.5-.9-2.8-1.6-3.3-2.7-.5-1-.3-2.2-.2-3.7.1-1.6.3-3.4-.3-5.3-.8-2.5-3.1-4.6-6.1-5.6-2.3-.8-4.7-.8-7.2-.8-1.2 0-7.4.2-11 2.5-2.5 1.6-8.7.7-10.2.1-4-1.8-9.9-3.9-14.9-1.9-2.8 1.1-4.8 3.3-6.2 6.5-4.2 10.2-5.1 11.2-10.9 15.8-5.6 4.4-6.8 12.5-6.2 16.5.7 4.8 4 7.2 7.3 9.5.5.3.9.7 1.4 1-.6 3-1.3 5.8-2.3 8.6-.3.9-.6 1.7-.9 2.6-2 5.8-3.5 10.5-10.4 15-5.6 3.7-9.7 5.3-19.8 5-.6-1-1.1-1.9-1.7-2.9-3-10.7-6.3-26.6-1.6-42.6 4-13.5 9.4-26.7 32-40.5 5.8-3.6 11.3-6.1 16.3-7.9h.1c12.4-4.5 22.3-4.4 29.3-3.7 26.5 2.5 33.5 9.9 43.5 23z"/><path id="XMLID_182_" class="st10" d="M395.8 213.6c-1-.1-2.1-.3-3.2-.4-9.8-.9-19.4.1-28.9 3.2l-7.9-29.7c-.3-1.1-.5-2.1-.6-3.1 1.6.1 3.2.1 4.8.1 2.2 0 4.4-.1 6.5-.3 11 8.9 20.7 19 29.3 30.2z"/><path id="XMLID_181_" class="st3" d="M361.6 163.3c4.2 1 8.3 2.8 11.9 5.1 2.3 1.5 3.5 2.8 3.8 4.2.2 1.5-.8 3.1-2 4-1.6 1.2-3.8 1.7-5.7 2-.3 0-.6.1-.9.1v-.3c-1.1-3.8-2.6-8.1-6.5-10.2-.2-.1-.4-.2-.7-.4-2.1-1.3-7.1-4.4-13.7-1.5-4.5 2-8.7 6.5-9.9 10.5-1.8-.4-3.6-.7-5.4-1.1 4.8-6.3 6.8-15.5.1-22.1-3.9-3.9-19.4-5.8-24.2-1-3.8 3.8-3.4 8.1-3.3 10.4v.7c.1 2.1.4 4.1.8 6.1-1.3-.3-2.6-.6-3.9-.8-.7-.2-1.5-.3-2.2-.5.3-4-1.2-8-4-10.8-3.2-3.1-7.8-4.5-12.2-3.7-3.2.6-6.2 2.3-9.5 5.3-.7.6-1.4 1.7-1.6 2.8-1-.4-1.9-.8-2.7-1.4-1.2-.9-2.3-2.4-2.1-3.8.3-2 2.6-3.3 3.6-3.8 3.4-1.6 7.2-2 11.9-2h6.1c3.6 0 7.4 0 10.9.5l1.9.2.5-1.8c.7-2.6 1.5-4.9 2.3-7 6.4.8 12.9 2.4 19.1 4 6.7 1.7 13.6 3.5 20.7 4.2h.2c.1 1.9.2 3.7.1 5.6 0 .6.2 1.1.6 1.5.8.9 3.4 1.9 16 5z"/><path id="XMLID_180_" class="st3" d="M311.5 131.2c.2-.2.3-.4.5-.5 10.4 1.8 20.8 3.9 31.1 6.4.8 2.8 1.4 6 1.8 9.5-6.5-.8-13.1-2.4-19.5-4-6-1.5-12.1-3-18.4-3.9 1.3-2.9 2.8-5.3 4.5-7.5z"/><path id="XMLID_179_" class="st10" d="M292.3 146.6h-6.9c-5.3-.1-10.8.1-15.7 2.5-3.5 1.7-5.7 4.2-6.1 7.2-.4 2.9 1.1 6 3.8 8 2.2 1.6 4.7 2.3 7.2 2.9 1.4.4 2.8.7 4.2 1-.6 1-1 1.9-1.4 2.9l-.4 1c-1.5 3.3-3.7 6.5-5.9 9.5-1.2 1.8-5.9 9-11.8 18.1-9.1 14.1-20.5 31.7-22.9 34.9-.1.1-.2.3-.2.5-2.8.6-5.4 1.5-7.9 2.6 8.6-15.7 13.8-29.9 16.2-43.9l.5-2.9c2.7-15.1 5.6-31.9-9.7-48.3 19.1-1.8 38.4-.3 57 4z"/><path id="XMLID_178_" d="M140.6 169c6.8-14.5 13-26.3 26-34 12.6-7.5 37.5-9.8 50.7-1.5 29.1 18.2 26.8 36.8 23.6 54.8-3.1-3.6-7.3-6.2-12.5-7.6-8.2-2.2-19.8-2.2-27.1 3.1-4 2.9-7.7 9.1-9.4 13.5-2.2 5.7-3.3 11.7-3.1 16.4.1 3.1.5 7.7 2.1 12 1.5 4.2 4.1 7.8 7.5 10.3 4.3 3.2 9.6 5 16.2 5.5h1c2.1 0 4-.5 5.9-1.1-1.1 1.9-2.2 3.7-3.3 5.6l-1.2 2c-3.2 5.2-6.5 10.6-8.5 16.6-1.6 4.9-2.2 10-2.7 14.8-1 10.6-1.3 21.4-.9 32 .2 4.7 2.1 8.8 4.8 12.5-6.9 9-17.7 14.8-29 15.5-2.5.2-5.2.1-8.5-.2-2.6-.2-5.6-.6-8.5-1.4-7.3-2.2-13.2-7.6-17.7-12.4 1.4-2.7 2.7-5.4 3.6-8.4 3.4-10.5 2.7-21.9 2.1-32-.8-12.4-5.3-24.1-9.7-35.4-1.7-4.3-3.4-8.7-4.9-13 3.8 3.2 6.9 4.3 12.4 5.4 2.8.6 5.5.9 8.1.9 10.6 0 19-5 24-14.5 3.3-6.2 4.4-13.6 3.4-22.4-.9-8.3-6.9-17.4-13.8-21.1-1.9-1-3.9-1.7-5.8-2.3-5.6-1.8-12.8-3.6-19.6-1.1-3.5 1.3-7.6 3-11.4 6.5 1.3-6.6 3.4-13 6.2-19z" fill="#d3e075"/><path id="XMLID_177_" class="st3" d="M132.9 202.6c.5-3.5 2.3-9.5 4.1-11.2 2.7-2.6 5.7-4.3 10.3-5.9 5.5-2 11.8-.4 16.7 1.2 1.7.5 3.5 1.2 5.1 2 5.7 3.1 10.8 10.9 11.5 17.8.9 8.1 0 14.4-2.9 19.9-6.7 12.7-18.5 13.2-27.2 11.4-6.8-1.4-8.9-2.1-15.7-9.8l-.1-.1c-1.8-7.9-2.6-16-2.3-24.1.2-.4.4-.8.5-1.2z"/><path id="XMLID_176_" class="st14" d="M66.1 260.1c8.8-5.1 15.2-13.5 17.1-22.4 1.6-7.7-1.6-15.5-6.3-21.1 6.1 1.6 12.3 4.7 15.7 9.7 5.1 7.5 6.4 14 4.2 21.5-.8 2.6-2.8 9.6-8.2 13.1-3.5 2.2-8.1 3.4-13.3 3.4-.4 0-.8 0-1.1-.1-.1-.1-.2-.1-.3-.2-.5-.2-1.1-.1-1.5.1-3.6-.3-7.2-1.2-10.4-2.5 1.5-.4 3.1-.9 4.1-1.5z"/><path id="XMLID_175_" class="st10" d="M74.7 268.6h.6c6 0 11.4-1.4 15.6-4.1 6.8-4.3 9.2-12.5 10.1-15.8 2.5-8.5 1-16.4-4.7-24.8 9.5-14.2 20.9-27 33.9-38.1-3.9 16.9-3.1 34.8 2.4 51.3 1.6 4.7 3.4 9.5 5.2 14.1 4.5 11.5 8.7 22.3 9.5 34 .6 10.2 1.2 20.7-1.9 30.4-.9 2.9-2.2 5.7-3.7 8.3-.3.3-.5.7-.6 1.1-1.1 2-2.3 4-3.5 5.9-3.6 5.7-6.8 10.2-10.1 14.1-2.2 2.6-4.6 5.3-6.9 7.8-7.8 8.6-15.9 17.4-18.5 29-1 4.5-1.1 9.1-1.1 13.9 0 1.7 0 3.5-.1 5.4-.1 9.3-.3 19.8 2.4 30.4-1.7-.3-3.5-.6-5.1-1-21.3-30.8-32.5-67-32.5-104.6-.1-19.5 3-38.8 9-57.3z"/><path id="XMLID_174_" class="st3" d="M80.6 417.9c1.4 0 2.8-.1 4.2-.3 2.2 3.9 4.4 7.7 6.9 11.4-11.6-3.4-20.1-8.4-25.8-15 4.5 2.5 9.6 3.9 14.7 3.9z"/><path id="XMLID_173_" class="st14" d="M442.6 435.6c-1.5 3.1-2.8 6.1-3.2 8.3-2.2 12.8-6.9 23.6-11.4 34.1-3.9 8.9-7.5 17.3-9.5 26.5-.1.6-2.3 5.7-40.1 10.4-16.6 2.1-53.8 3.2-80.4 3.2-5.3 0-10 0-13.7-.1l-64.4-1.6c-24.2-.6-49.3-1.3-73.9-3-18.9-1.3-40.7-4-59.9-13.6-.5-.5-1.1-.8-1.8-.8h-.1c-3.2-3.2-4.1-8.5-4.7-13.7L77 463.2c-.5-4.6-1.1-9.4-2.6-14-1-2.9-2.3-5.7-3.6-8.3-.8-1.7-1.6-3.3-2.3-5-2.2-5.3-3.5-11-3.9-16.7 8.7 8.7 22.2 14.4 40.8 17.4 16.1 2.6 32.5 3.9 48.4 5.2l66.7 5.5c18 1.5 36.6 3 55.1 2.5 11-.3 22.1-1.3 32.9-2.3 8.1-.8 16.4-1.5 24.7-2 4.3-.2 8.9-.4 14.2-.4H347.7c.1 0 .2 0 .3-.1h1c2.7 0 5.4 0 8 .1.2.1.4.3.6.4.2.1.5.1.7.1.5 0 .9-.2 1.3-.4h3.1c4.6.1 9.2.1 13.8.1 7.7 0 16.2-.2 24.9-1.1h.4c.3 0 .5-.1.8-.2 6.1-.7 12.3-1.7 18.4-3.4 14.1-3.8 20.1-9.3 23.2-12.2.6-.5 1.2-1.1 1.6-1.5 0 1.9-2 6.2-3.2 8.7z"/><path id="XMLID_172_" class="st3" d="M385 281.1v.2c-.1 2.5-.4 5-1 7.6-2.2-.8-4.2-1.7-5.5-3.2 2-1.9 4.1-3.6 6.5-4.6z"/><path id="XMLID_171_" class="st8" d="M363.2 295.2c.1-.8.1-1.7.1-2.5 1.5.7 2.8 1.3 4.4 2.3 6.5 4.1 15.6 7.6 24.4 9.4-2.2 4.2-7.4 7.4-11.9 8.3-1.1.2-2.4.4-3.6.4h-.8c-4.1-.1-9.5-1.9-11.6-6.3-.8-1.8-1-4-1.2-6.1 0-1.9.1-3.6.2-5.5z"/><path class="st11" d="M446.6 422.4h-.4c-1.1 0-1.9.4-2.8 1.1 2.6-4.5 4.8-9.3 6.2-14.4 2.4-8.7 2.3-18.7-.3-28.7-1.1-4.3-2.4-7.7-4.1-10.6-1.6-2.8-6.2-8.1-9.6-11.2 2.1-11.8 3.1-21.5 3.1-32.5 0-3.9-.1-7.8-.4-11.7 9.4-12 12.7-25.2 11.4-44.8-.5-7.7-5.3-24.7-10.6-31.6-10-13-17.6-20.2-37.2-23.6-.1-.2-.1-.4-.3-.6-8.5-11.5-18.4-22-29.3-31.3 1.8-.4 3.8-1.1 5.6-2.4 2.8-2 4.2-5.3 3.8-8.2-.6-3.6-3.6-5.8-5.8-7.2-4.1-2.6-8.5-4.5-13.2-5.6-3.7-.9-9.7-2.6-12.4-3.5l-.5-.4c0-3-.2-5.9-.5-8.9-1.2-12.2-5.2-21-11.7-26.2-1.4-1.1-2.8-1.9-4.1-2.4-1.6-.6-3.5-.7-5.7-.6-7.3.6-14.4 4.7-19.7 11.3-2.3 2.9-4.3 6.3-6 10.4-.3.3-.6.8-.6 1.3v.2c-.5 1.2-.9 2.4-1.3 3.7-22-6-45.2-8.1-68-5.9-.3 0-.5.1-.8.2-3.2-2.9-7-5.7-11.6-8.6-14.7-9.2-41.3-6.8-55.3 1.4-14.1 8.4-20.6 20.7-27.7 35.9-1.7 3.7-3.2 7.5-4.4 11.3h-.1c-15 12-28 26.1-38.7 42-5.1-5.1-13.2-8.5-22.6-9.5-1 0-1.9.6-2.3 1.6l-.4 1.7 1.2 1c5.8 4.5 11.2 13.2 9.5 21.5-1.6 7.7-7.2 15-15 19.5-1.1.7-4.7 1.6-6.2 1.7-1 0-2 .5-2.5 1.4-.6.8-.7 1.8-.3 2.7.5 1.3 1.7 1.9 2.2 2.2 3.9 2.1 8.5 3.5 13.1 4.1-6 18.6-9 38-9 57.7 0 30.7 7.4 60.5 21.4 87.3-7.5.6-10.1-2.9-16.9-6-5.4-2.5-5.8 2.1-5.3 2.6l-.2 3.3c-.5 8.3 1 16.8 4.2 24.4.7 1.8 1.6 3.5 2.4 5.2 1.3 2.6 2.5 5.1 3.4 7.8 1.4 4.2 1.9 8.7 2.5 13.1l2.6 22.1c.8 6.5 2 13.3 7.2 17.3.7.5 1.4.8 2.2.7 19.7 9.8 42 12.5 61.2 13.9 24.7 1.7 49.8 2.4 74.1 3l64.3 1.6c3.7.1 8.4.1 13.8.1 26.8 0 64.2-1.1 80.9-3.2 37.2-4.6 43-9.8 43.9-13.9 1.9-8.8 5.5-17 9.3-25.7 4.7-10.7 9.5-21.8 11.7-35.1.3-1.6 1.6-4.4 2.9-7.1 2.5-5.4 4.7-10.1 3.1-13-.9-1-2-1.7-3.4-1.9zm-5.3-50.5c1.5 2.6 2.7 5.6 3.7 9.5 2.4 9.3 2.5 18.5.3 26.5-2.3 8.3-7.1 15.8-11.8 23.1 0 .1 0 .1-.1.2-3.2 1.8-7.6 3.7-13.6 5.3-5 1.3-10.2 2.3-15.2 2.9 1.1-5.5 2.7-10.3 4.9-14.5 2.1-4.2 2.1-9.3 0-13.5-.6-1.1-1.9-1.5-3-.9s-1.5 1.9-.9 3c1.5 2.8 1.5 6.5 0 9.4-2.5 4.9-4.3 10.5-5.6 17-1.6.2-3.2.3-4.8.4 2.2-6.7 4.2-13.4 6.1-19.9l3.2-10.6c.8-2.6 1.2-5.5 1.3-8.9.1-3-1.9-5.6-4.7-6.5l-2.9-.9c-1.1-.3-2.2-.6-3.3-1-.2-.2-.5-.3-.8-.4-.3-.1-.6-.1-.9-.1-3.7-1-7.9-2.2-14-3.7-.6-.2-1.4-.4-2.1-.6-4.8-1.3-10.8-3-13.6 1-3.8 5.5-6.2 13-8.4 20.3-1 3.3-2 6.5-3.1 9.2-2.8 7.1-5.6 14.5-6.4 22.3-4.7 0-8.9.2-12.8.4-8.3.5-16.7 1.2-24.8 2-9.9.9-20.1 1.8-30.2 2.2.6-2.1 1.7-4.2 3-6.4.7-1.2 1.4-2.4 2-3.6 1.8-3.7 2.8-7.7 3.8-11.5l.1-.4c4-15.6 8.5-31.2 13.5-46.5.4-1.2-.2-2.4-1.4-2.8-1.2-.4-2.4.2-2.8 1.4-5.1 15.3-9.7 31.1-13.6 46.8l-.1.4c-.9 3.6-1.9 7.4-3.5 10.7-.5 1.1-1.2 2.3-1.8 3.4-1.5 2.7-3 5.5-3.6 8.7-5 .1-10 0-15-.1.7-3.8 2.1-8.3 3.7-13.5 3.5-11.1 7.8-24.8 6.8-37.7-.5-6.6-3.2-13-6.5-19.1.2-.4.4-.8.3-1.3-1.8-17.6 6-36 19.9-46.9 1.6-1.3 3.3-2.4 5.1-3.5 5.2 13.2 18.2 27.4 36.1 39.4 10.3 6.9 25.1 9.5 35.7 10.5 1.1.1 2.6.2 4.6.2 12.3 0 40-2.8 59.6-18l.1-.1c2.3 1.5 4.7 3.2 7.3 5.1 2.6 2.2 8.6 8.8 10.2 11.6zm-91.2 68.7c.6-5.1 2.1-10 3.8-14.8l8.5 1.5c-2.2 4.3-4 8.8-5.5 13.4-2.2 0-4.5-.1-6.8-.1zm46.8-42.8l3 .9c.9.3 1.6 1.1 1.6 2.1-.1 3-.4 5.5-1.1 7.7l-1.5 4.9c-2.2-.4-5-1.1-8.1-1.9l4.2-14.2c.6.1 1.3.3 1.9.5zm.3 21.3c-1 3.2-2 6.5-3 9.8-2.6-.3-5.3-.8-8.2-1.3l3.5-11.9c3 .8 5.8 1.5 8.1 1.9l-.4 1.5zm-23.4-7.7c2.9.8 5.8 1.6 8.7 2.3.9.3 1.9.5 2.8.8l-3.6 12.2c-1.5-.3-3-.7-4.5-1-3-.7-5.9-1.3-8.7-1.8.1-.2.1-.3.2-.5.6-1.7 1.1-3.4 1.9-4.9 1.1-2.3 2.2-4.7 3.2-7.1zm12.7-1.1c-.9-.3-1.9-.5-2.9-.8-2.7-.8-5.5-1.5-8.2-2.2 1.8-4.6 3.4-9.3 4.7-14.1 4.3 1.1 7.6 2 10.5 2.8l-4.1 14.3zm-15.4-4.1c-3.6-.9-6.9-1.6-9.8-2.1 1.6-4.8 3.4-9.3 5.8-12.8 1-1.4 6 0 8.7.7-1.2 4.9-2.8 9.6-4.7 14.2zm-11.7 4.2c.2-.7.4-1.4.6-2 2.7.4 5.9 1.1 9.5 1.9-.9 2.1-1.9 4.2-2.9 6.3-.9 1.8-1.5 3.6-2.1 5.4-.1.4-.2.7-.4 1.1l-8.6-1.5c.2-.6.4-1.1.6-1.7 1.2-2.9 2.2-6.1 3.3-9.5zm7.1 18.7c.2-.3.3-.6.4-1 2.9.6 6 1.2 9.3 2l4.2.9-2.7 9-.5.5c-.2.1-.3.3-.4.5h-.3c-4.6 0-9.2-.1-13.8-.1h-1.2c1.5-4.1 3.1-8.1 5-11.8zm18.3 2.8c2.8.6 5.5 1 8.1 1.4-.8 2.5-1.5 4.9-2.3 7.4-2.9.1-5.7.2-8.4.3l2.6-9.1zm-238.3 4.8c-.8-6.7-1.5-14.1-1.2-21.3.3-6.9.9-19.9 8.3-27.8 11.8-12.6 24.8-11.1 31.4-9.1 13.2 3.9 17.7 8.9 22.8 18.6 1.2 2.3 2.3 7.2 3.1 14.7 1.2 10.4 1.7 21.1 1.5 30.5l-58.3-4.8c-2.5-.3-5-.5-7.6-.8zm68.9-25.5c-.6-5.2-1.6-12.5-3.6-16.2-5.5-10.4-10.9-16.4-25.4-20.8-7.7-2.3-22.5-4-35.9 10.4-8.6 9.2-9.2 23.2-9.5 30.7-.3 7.3.4 14.6 1.1 21.2-2.7-.2-5.5-.5-8.2-.8.1-6 .1-11.9 0-17.6l-.1-9.2c-.1-7.7-.1-15.5-.3-23.2-.1-3.3-.2-7.4-1.4-11.1-1.3-4.1-3.7-7.6-5.9-10.7-1.1-1.6-2.6-3.7-4.7-5.2.8-.9 1.6-1.7 2.4-2.6 2.4-2.6 4.8-5.3 7-8 2.4-2.9 4.8-6.1 7.3-9.8.6.6 1.1 1.2 1.7 1.7.6.6 1.2 1.1 1.7 1.7 8.8 9.7 22.4 15.3 36.4 15.3 2.8 0 5.6-.2 8.4-.7 9-1.5 17.6-5.8 24.1-12.1 3.4-3.3 6.2-7 9-10.8 2.5 1.9 5.1 3.7 7.5 5.3-4.6 5-8.7 10.5-12.2 16.4-2.2 3.8-7.2 15.2-3.4 18.6.7.6 1.5.9 2.5.9 2.3 0 5.5-2.1 8.7-4.9-1 2.2-1.2 3.5-1.5 5.2-.1.6-.2 1.3-.3 2.1-.3 1.5.7 3 1.5 4.1.7 1.1 2 1.8 3.5 1.8.5 0 1-.1 1.4-.2 1.4-.4 2.4-1.4 3-2 .9-.8 1.7-1.7 2.5-2.5l-1 2.3c-.7 1.6-1.5 3.5-1.3 5.6.2 2.5 2.1 5 4.8 5.2-.6 6.7.1 13.4.7 19.9.2 1.6.3 3.2.5 4.7.8 9.4 1 18.9.5 28.3-5.4-.4-10.8-.8-16.1-1.3l-4-.3c.3-9.7-.2-20.7-1.4-31.4zm-107.5 21.2c-3-10.7-2.8-21.6-2.7-31.2 0-1.9.1-3.7.1-5.5 0-4.6.1-8.8 1-12.9 1.8-8 6.5-14.5 12.1-21 1.5.9 2.8 2.5 4.1 4.3 2.1 3 4.3 6.1 5.3 9.5 1 3.2 1.1 6.8 1.2 9.9.2 7.7.3 15.4.3 23.2l.1 9.2c.1 5.5.1 11.1 0 16.8-.1.1-.1.2-.1.4-7.1-.7-14.3-1.6-21.4-2.7zm33.4-99l2.4-3.9c4.8 5 10.9 10.2 18.7 12.6 3.3 1 6.6 1.4 9.5 1.6 2.2.2 4.2.3 6 .3 1.1 0 2.1 0 3.1-.1 12.3-.8 24-6.9 31.7-16.5 1.1 1.1 2.2 2.2 3.3 3.2-2.7 3.7-5.4 7.3-8.6 10.4-5.9 5.7-13.7 9.6-21.8 10.9-15.2 2.5-31.2-2.7-40.7-13.2l-1.9-1.9c-.8-.8-1.7-1.6-2.2-2.3.1-.5.3-.8.5-1.1zm84-99.7c-2.9 1.7-6.6 3.7-10.3 3.4-5.9-.5-10.3-1.9-13.9-4.6-2.6-2-4.7-4.9-6-8.2-1.1-2.9-1.6-6.2-1.9-10.7-.2-4.1.9-9.5 2.8-14.6 1.5-4 4.7-9.2 7.9-11.5 6.1-4.4 16.3-4.3 23.3-2.4 5.7 1.6 10.2 5 12.5 9.5-2.2 12.3-7 25.1-14.4 39.1zm-4.5 16.6l1.2-1.9c.6-.9 1.1-1.9 1.6-2.8.2-.1.4-.2.6-.4 1.4-1.3 3.1-2.5 5.2-3.5 4.9-2.4 10.9-3.6 17.3-3.4 5.4.1 11.1 1.2 17.9 3.2 1.7.5 3.7 1.2 5.4 2.1 3.7 2.1 6.8 5.5 8.5 9.3 1.4 3.2 2.9 8.6 3 11.7 0 .2.1.3.1.5-5.4 3.8-11.8 4.6-18 5-9.5.7-20.6 0-33.7-1.9-6.2-.9-10.5-2.9-15.6-6.1 1.7-4 4.1-8 6.5-11.8zm-10.6 29.5c.1-1.2.2-2.4.4-3.5 2 1.7 4 2.9 6.6 4 3.1 1.3 7.6 3.1 11.7 3.8 4.1.7 7.7 1 11.6 1.3l4.5.3c2.7.2 5.4.4 8.1.4 9.2 0 18.5-1.4 27.3-4.1-1 4.2-4.1 12.9-12.6 18.1-6.6 4-15.2 5.5-18.4 5.6-7.9.2-15.5-.9-23.2-3.2-8.2-2.5-13.8-5.3-16.7-11.6 0-.1-.1-.1-.1-.2.2-3.7.5-7.3.8-10.9zm35.2 1.4c-1.6-.1-3.1-.2-4.6-.4-3.8-.3-7.3-.5-11.2-1.2-2.9-.5-6.7-1.8-10.8-3.5-3.2-1.4-5.2-2.6-7.5-5.3.3-1.5.7-3 1.1-4.4 5.3 3.2 10 5.3 16.6 6.2 10.1 1.5 19 2.2 26.9 2.2 2.7 0 5.3-.1 7.8-.3 7-.5 14.4-1.4 20.8-6.2 1.3-1 5.6-4.4 7-8 1.2-3.2-.1-8.4-2.9-10.8-2.6-2.3-6.1-2.3-8.5-2.4-.6-.8-1.2-1.7-1.9-2.5 4.1-.1 8.3.2 12.5 1.1 4.4.9 8.2 5.5 8.8 6.9 1.8 4.9 1.3 10.3-1.5 14.3-2.9 4.2-7.9 6.5-12 8.2-12.7 5.3-26.7 7.4-40.6 6.1zm40.2-19.5c-.5-3.3-1.7-7.1-2.8-9.9 1.3.1 2.4.4 3.1 1.1 1.4 1.2 2.3 4.4 1.7 6-.3.8-1.1 1.8-2 2.8zm-76.4 36.4c4.3 4.7 10.3 6.9 15.8 8.5 7.6 2.3 15 3.4 22.7 3.4h1.9c2.8-.1 12.7-1.3 20.6-6.2 12.2-7.5 14.7-20.8 15.1-23.5.8-.3 1.6-.6 2.5-.9 4.7-1.9 10.5-4.6 14-9.8 3.5-5.1 4.3-12.2 2-18.4-.9-2.3-5.6-8.4-12-9.7-5.8-1.2-11.8-1.5-17.3-1-.3 0-.5.1-.8.2-.5-.4-1-.8-1.6-1.1-2.1-1.2-4.3-1.9-6.3-2.5-7.2-2.2-13.3-3.3-19.1-3.4-1.6 0-3.2 0-4.8.1 4.4-6.5 13.4-20.4 21-32.1 5.6-8.7 10.5-16.2 11.7-17.9 2.2-3.2 4.6-6.5 6.3-10.2l.5-1c.6-1.4 1.2-2.7 2-3.6 6.1 1.4 12.1 2.7 17.9 4 6.1 1.3 12.3 2.6 18.7 4.1l3.7.9c8.6 2 17.9 4.2 27.1 5.1.1 1.6.5 3.1.8 4.6l8 30.1c-5.1 2-10.3 4.5-15.4 7.6-23.9 14.6-29.9 29.3-33.9 43-4.6 15.5-2.1 30.6.7 41.7-11.9 2-22.6 6.4-31 13-13.3 10.5-21.4 27.3-21.8 44.2-.2-.4-.4-.7-.7-1.1l-.4-.7-.3-.3c.6-1.9 1.1-3.9 1.5-5.8.4-1.8 1.3-5.4-1-8-1.3-1.5-3.5-2.2-5.7-1.9l-.9.1c-.3 0-.5.1-.8.1.4-1.6 1.3-5.1-.9-7.5-1.4-1.6-4-2.1-6.3-1.4-.8.3-1.5.6-2.2 1 0-.6 0-1.2-.1-1.8 0-.8-.2-1.7-.6-2.6-.6-1.1-1.7-2-3.1-2.5-1.8-.6-3.8-.5-5.5.2-.3.1-.6.2-.8.3-8.8-5.8-20.5-13.7-20.9-24.2-.3-4.3-.4-8.7-.3-13.1zm68.2-134.9c0-.2 0-.5-.1-.7l.1-.1c2.7-2.4 5-3.8 7.3-4.2 2.9-.6 6.1.4 8.2 2.5 1.7 1.7 2.7 4.2 2.7 6.7-3.8-.8-7.5-1.7-11.4-2.5-.5-.3-1-.4-1.5-.4-1.8-.4-3.6-.8-5.3-1.3zm32.3.1l-.1-.8c-.2-1.9-.4-4.6 2-6.9 3-3 15.7-1.3 18 1 5.9 5.9 1.9 13.7-1.4 17.4-.1.1-.2.3-.3.5-1.1-.2-2.2-.5-3.2-.7l-3.7-.9c-3.4-.8-6.8-1.5-10.1-2.2-.6-2.4-1-4.9-1.2-7.4zm32.7 14.2c1-2.4 4.1-5.8 7.4-7.2 4.4-2 7.6.1 9.5 1.3.4.2.7.4.9.6 2.2 1.2 3.3 4.1 4.1 7-7.1.4-14.5-.4-21.9-1.7zm69.2 73.9c1.1 2.3 3.2 3.5 5.1 4.6 1.4.8 2.7 1.6 3.3 2.6.6 1.1.4 2.5.2 4.3-.2 1.6-.4 3.4.1 5.3.5 1.8 1.5 3.3 2.4 4.6.5.7.9 1.3 1.3 2 1.7 3.2 1.1 7.6-1.3 11-1.4 2-3.4 3.5-5.3 4.7.7-1.7 1.2-3.4 1.6-5.2.8-4.1 1.5-8.6.3-13.9-1-4.7-1.9-9.2-6.6-14.5-1.6-1.8-5.8-6.2-10.4-8.1-9.8-4.1-18.3-4.5-28.5-1.6-3.4 1-7.2 3.9-11.6 9.1-4.3 5-6.4 9.9-8.4 16.2-.7 2.3-1.3 4.7-1.8 7-3-2.2-4.9-3.7-5.3-6.4-.4-2.6.3-9 4.6-12.5 6.6-5.3 7.9-7.1 12.2-17.6.9-2.1 2.1-3.5 3.7-4.1 2.6-1 6.4-.4 11.5 1.9 2 .9 10 2.4 14.4-.4 1.8-1.2 5.7-1.7 8.6-1.8 2.1 0 4.1 0 5.8.6 1.6.5 2.9 1.6 3.3 2.8.3 1 .2 2.2.1 3.5-.1 1.7-.3 3.8.7 5.9zm-59.4 45.2c.3-.8.6-1.7.9-2.5 1.3-3.7 2.1-7.6 2.9-11.3.6-3 1.3-6.2 2.2-9.2 1.8-5.9 3.7-10.2 7.5-14.6 4.7-5.5 7.7-7.2 9.4-7.7 9.3-2.6 16.7-2.2 25.6 1.5 2.6 1.1 5.8 3.7 8.8 7 3.9 4.4 4.6 7.8 5.6 12.4.9 4.3.5 8-.3 12.2-1.3 6.3-5.5 11.9-9.3 16.7-4.5 5.6-9.2 12.3-13.2 19-4.2 7-3.5 13.7 1.9 19.4-6.9 2.7-15.4 5.3-22.4 5.3-10.2.1-21-2.3-31.4-7.1-3.5-1.6-6.1-3.1-8.3-4.7-4.7-3.5-8.3-8.2-11.5-13.3 9.3-.1 13.9-2 19.6-5.8 7.9-5.4 9.9-11.1 12-17.3zm81.9 22.6c.1 2.3.1 4.6.1 6.9 0 9.9-.8 18.9-2.6 29.3-4.1-3-7.6-5.2-11.1-7.4s-6.8-4.3-10.7-7.1c-1-.7-1.6-1.5-2.3-2.5 0-.1-.1-.1-.2-.2 10.7-4.7 19.1-10.7 26.8-19zm-133.7-1.9c2.2 5 5.1 9.8 8.7 14.3 2.3 2.9 12.2 13.5 15.9 15.5 9.4 5.2 20.1 11.1 32.3 12.6 3.5.4 8.5.8 11.8.8h.5c13.4-.1 25.3-4.2 35.1-8.2 2.7-1.1 5.3-2.4 7.4-4.5 2.1 1.4 4.1 2.7 6.1 3.9.5.3 1.1.7 1.6 1-21.5 15.9-52.6 16.7-59.9 16-10.1-1-24.1-3.4-33.7-9.8-17.4-11.7-30-25.4-34.7-37.9 2.9-1.4 5.8-2.7 8.9-3.7zm103.1 22.8c.2.3.4.5.6.8.8 1.1 1.7 2.4 3.3 3.5.4.3.7.5 1.1.8-1.5 1.3-3.5 2.2-5.4 3-9.4 3.8-20.8 7.7-33.5 7.8-3.1 0-8.2-.3-11.7-.7-11.4-1.4-21.7-7.1-30.8-12.1-2.6-1.4-11.8-11-14.6-14.4-3.2-4.1-5.9-8.4-7.9-12.8 2.4-.6 4.9-1.2 7.5-1.6 4.4 7.8 9.4 16.5 17 22.1 2.5 1.8 5.4 3.5 9.1 5.2 10.9 5 22.4 7.6 33.3 7.5 10.3-.1 23.3-4.8 32-9.1zm-166.1 45.3c-.3.3-1.3 1.4-1.8 1.4v1.6-1.6c-.3 0-.7-.6-.8-1.2-.1-1.1.5-2.4 1-3.6l6.8-16.1c.4-1 0-2.3-1-2.8-.3-.2-.7-.3-1-.3-.7 0-1.4.3-1.8 1-3.2 4.7-6.6 8.7-11.6 13.5-.4.3-.9.8-1.4 1-.1-.2-.5-.7-.6-1 .1-.7.2-1.4.3-1.9.3-1.8.4-2.6 1.4-4.7.8-1.6 1.5-3.3 2.2-4.9.9-2.2 1.8-4.3 2.8-6 .7-.8 1.3-1.6 1.9-2.3.7-.9.6-2.2-.2-3-.8-.8-2.1-.8-3-.1-.8.7-1.6 1.6-2.3 2.7-6.9 8-12.2 12.1-14.1 12.8-.2-2 1.4-8.1 4.2-12.8 3.7-6.2 8-11.9 13-17.1l.3-.3c.5-.1.9-.3 1.3-.6.7-.2 1.5-.2 2.1 0 .4.1.6.3.6.4.1.1.1.4.1.8.1 1.9 0 3.7-.4 5.5-.2.9.2 1.8 1 2.3.8.5 1.8.5 2.5-.1.2-.1.4-.2.7-.4.5-.3 1-.6 1.3-.8 1-.8 1.9-1.6 2.9-1.9.7-.2 1.4-.1 1.7.2.6.7 0 2.8-.1 3.4l-.9 3.4c-.2.8 0 1.7.7 2.3.7.6 1.6.7 2.4.3.7-.3 2.4-.5 3.4-.6l1-.1c.8-.1 1.6.1 1.9.5.7.8.4 2.5 0 4-.9 3.9-1.9 8-3.8 11.4-1.1 2-2.6 3.9-4 5.6-2.8 3.5-5.8 6.9-8.7 10.1zm3.4 30c-.1-1.6-.3-3.2-.5-4.8-.7-7.1-1.4-14.4-.5-21.3v-.1l.8-.8c3-3.3 6-6.7 8.8-10.2 1.6-1.9 3.2-4 4.5-6.3.3-.5.5-1 .8-1.6 4.5 7.5 9.2 15.9 9.8 24 .9 12-3.3 25.3-6.6 36-1.8 5.6-3.3 10.5-4 14.7-4.2-.2-8.4-.4-12.6-.7.5-9.5.4-19.3-.5-28.9zm194.8-174.7c4.4 5.7 9.1 21.2 9.7 29.2 1.3 19.8-2.1 32.1-12.2 43.9-8.6 10-18 16.7-30.4 21.7-.3.1-.6.3-.8.6-1 .5-2.2 1.1-3.5 1.6-5.3-4.7-6-9.5-2.5-15.3 3.9-6.5 8.5-13 12.9-18.5 1.8-2.2 3.6-4.6 5.2-7.1 5.4-1.8 9.6-4.7 12.3-8.4 3.4-4.8 4-10.9 1.6-15.6-.4-.9-1-1.7-1.6-2.5-.8-1.1-1.5-2.1-1.7-3.2-.3-1.1-.1-2.4 0-3.7.2-2.1.5-4.5-.7-6.8-1.1-2.2-3.2-3.4-5-4.4-1.5-.9-2.8-1.6-3.3-2.7-.5-1-.3-2.2-.2-3.7.1-1.6.3-3.4-.3-5.3-.8-2.5-3.1-4.6-6.1-5.6-2.3-.8-4.7-.8-7.2-.8-1.2 0-7.4.2-11 2.5-2.5 1.6-8.7.7-10.2.1-4-1.8-9.9-3.9-14.9-1.9-2.8 1.1-4.8 3.3-6.2 6.5-4.2 10.2-5.1 11.2-10.9 15.8-5.6 4.4-6.8 12.5-6.2 16.5.7 4.8 4 7.2 7.3 9.5.5.3.9.7 1.4 1-.6 3-1.3 5.8-2.3 8.6-.3.9-.6 1.7-.9 2.6-2 5.8-3.5 10.5-10.4 15-5.6 3.7-9.7 5.3-19.8 5-.6-1-1.1-1.9-1.7-2.9-3-10.7-6.3-26.6-1.6-42.6 4-13.5 9.4-26.7 32-40.5 5.8-3.6 11.3-6.1 16.3-7.9h.1c12.4-4.5 22.3-4.4 29.3-3.7 26.5 2.5 33.5 9.9 43.5 23zm-39.8-27.1c-1-.1-2.1-.3-3.2-.4-9.8-.9-19.4.1-28.9 3.2l-7.9-29.7c-.3-1.1-.5-2.1-.6-3.1 1.6.1 3.2.1 4.8.1 2.2 0 4.4-.1 6.5-.3 11 8.9 20.7 19 29.3 30.2zm-34.2-50.3c4.2 1 8.3 2.8 11.9 5.1 2.3 1.5 3.5 2.8 3.8 4.2.2 1.5-.8 3.1-2 4-1.6 1.2-3.8 1.7-5.7 2-.3 0-.6.1-.9.1v-.3c-1.1-3.8-2.6-8.1-6.5-10.2-.2-.1-.4-.2-.7-.4-2.1-1.3-7.1-4.4-13.7-1.5-4.5 2-8.7 6.5-9.9 10.5-1.8-.4-3.6-.7-5.4-1.1 4.8-6.3 6.8-15.5.1-22.1-3.9-3.9-19.4-5.8-24.2-1-3.8 3.8-3.4 8.1-3.3 10.4v.7c.1 2.1.4 4.1.8 6.1-1.3-.3-2.6-.6-3.9-.8-.7-.2-1.5-.3-2.2-.5.3-4-1.2-8-4-10.8-3.2-3.1-7.8-4.5-12.2-3.7-3.2.6-6.2 2.3-9.5 5.3-.7.6-1.4 1.7-1.6 2.8-1-.4-1.9-.8-2.7-1.4-1.2-.9-2.3-2.4-2.1-3.8.3-2 2.6-3.3 3.6-3.8 3.4-1.6 7.2-2 11.9-2h6.1c3.6 0 7.4 0 10.9.5l1.9.2.5-1.8c.7-2.6 1.5-4.9 2.3-7 6.4.8 12.9 2.4 19.1 4 6.7 1.7 13.6 3.5 20.7 4.2h.2c.1 1.9.2 3.7.1 5.6 0 .6.2 1.1.6 1.5.8.9 3.4 1.9 16 5zM328 121.6c1.6-.1 2.9 0 3.9.4.9.3 1.8.8 2.8 1.7 2.6 2.1 4.8 4.9 6.4 8.5-8.4-2-17-3.7-25.5-5.2 3.9-3.2 8.1-5.1 12.4-5.4zm-16.5 9.6c.2-.2.3-.4.5-.5 10.4 1.8 20.8 3.9 31.1 6.4.8 2.8 1.4 6 1.8 9.5-6.5-.8-13.1-2.4-19.5-4-6-1.5-12.1-3-18.4-3.9 1.3-2.9 2.8-5.3 4.5-7.5zm-19.2 15.4h-6.9c-5.3-.1-10.8.1-15.7 2.5-3.5 1.7-5.7 4.2-6.1 7.2-.4 2.9 1.1 6 3.8 8 2.2 1.6 4.7 2.3 7.2 2.9 1.4.4 2.8.7 4.2 1-.6 1-1 1.9-1.4 2.9l-.4 1c-1.5 3.3-3.7 6.5-5.9 9.5-1.2 1.8-5.9 9-11.8 18.1-9.1 14.1-20.5 31.7-22.9 34.9-.1.1-.2.3-.2.5-2.8.6-5.4 1.5-7.9 2.6 8.6-15.7 13.8-29.9 16.2-43.9l.5-2.9c2.7-15.1 5.6-31.9-9.7-48.3 19.1-1.8 38.4-.3 57 4zM140.6 169c6.8-14.5 13-26.3 26-34 12.6-7.5 37.5-9.8 50.7-1.5 29.1 18.2 26.8 36.8 23.6 54.8-3.1-3.6-7.3-6.2-12.5-7.6-8.2-2.2-19.8-2.2-27.1 3.1-4 2.9-7.7 9.1-9.4 13.5-2.2 5.7-3.3 11.7-3.1 16.4.1 3.1.5 7.7 2.1 12 1.5 4.2 4.1 7.8 7.5 10.3 4.3 3.2 9.6 5 16.2 5.5h1c2.1 0 4-.5 5.9-1.1-1.1 1.9-2.2 3.7-3.3 5.6l-1.2 2c-3.2 5.2-6.5 10.6-8.5 16.6-1.6 4.9-2.2 10-2.7 14.8-1 10.6-1.3 21.4-.9 32 .2 4.7 2.1 8.8 4.8 12.5-6.9 9-17.7 14.8-29 15.5-2.5.2-5.2.1-8.5-.2-2.6-.2-5.6-.6-8.5-1.4-7.3-2.2-13.2-7.6-17.7-12.4 1.4-2.7 2.7-5.4 3.6-8.4 3.4-10.5 2.7-21.9 2.1-32-.8-12.4-5.3-24.1-9.7-35.4-1.7-4.3-3.4-8.7-4.9-13 3.8 3.2 6.9 4.3 12.4 5.4 2.8.6 5.5.9 8.1.9 10.6 0 19-5 24-14.5 3.3-6.2 4.4-13.6 3.4-22.4-.9-8.3-6.9-17.4-13.8-21.1-1.9-1-3.9-1.7-5.8-2.3-5.6-1.8-12.8-3.6-19.6-1.1-3.5 1.3-7.6 3-11.4 6.5 1.3-6.6 3.4-13 6.2-19zm-7.7 33.6c.5-3.5 2.3-9.5 4.1-11.2 2.7-2.6 5.7-4.3 10.3-5.9 5.5-2 11.8-.4 16.7 1.2 1.7.5 3.5 1.2 5.1 2 5.7 3.1 10.8 10.9 11.5 17.8.9 8.1 0 14.4-2.9 19.9-6.7 12.7-18.5 13.2-27.2 11.4-6.8-1.4-8.9-2.1-15.7-9.8l-.1-.1c-1.8-7.9-2.6-16-2.3-24.1.2-.4.4-.8.5-1.2zm-66.8 57.5c8.8-5.1 15.2-13.5 17.1-22.4 1.6-7.7-1.6-15.5-6.3-21.1 6.1 1.6 12.3 4.7 15.7 9.7 5.1 7.5 6.4 14 4.2 21.5-.8 2.6-2.8 9.6-8.2 13.1-3.5 2.2-8.1 3.4-13.3 3.4-.4 0-.8 0-1.1-.1-.1-.1-.2-.1-.3-.2-.5-.2-1.1-.1-1.5.1-3.6-.3-7.2-1.2-10.4-2.5 1.5-.4 3.1-.9 4.1-1.5zm8.6 8.5h.6c6 0 11.4-1.4 15.6-4.1 6.8-4.3 9.2-12.5 10.1-15.8 2.5-8.5 1-16.4-4.7-24.8 9.5-14.2 20.9-27 33.9-38.1-3.9 16.9-3.1 34.8 2.4 51.3 1.6 4.7 3.4 9.5 5.2 14.1 4.5 11.5 8.7 22.3 9.5 34 .6 10.2 1.2 20.7-1.9 30.4-.9 2.9-2.2 5.7-3.7 8.3-.3.3-.5.7-.6 1.1-1.1 2-2.3 4-3.5 5.9-3.6 5.7-6.8 10.2-10.1 14.1-2.2 2.6-4.6 5.3-6.9 7.8-7.8 8.6-15.9 17.4-18.5 29-1 4.5-1.1 9.1-1.1 13.9 0 1.7 0 3.5-.1 5.4-.1 9.3-.3 19.8 2.4 30.4-1.7-.3-3.5-.6-5.1-1-21.3-30.8-32.5-67-32.5-104.6-.1-19.5 3-38.8 9-57.3zm5.9 149.3c1.4 0 2.8-.1 4.2-.3 2.2 3.9 4.4 7.7 6.9 11.4-11.6-3.4-20.1-8.4-25.8-15 4.5 2.5 9.6 3.9 14.7 3.9zm362 17.7c-1.5 3.1-2.8 6.1-3.2 8.3-2.2 12.8-6.9 23.6-11.4 34.1-3.9 8.9-7.5 17.3-9.5 26.5-.1.6-2.3 5.7-40.1 10.4-16.6 2.1-53.8 3.2-80.4 3.2-5.3 0-10 0-13.7-.1l-64.4-1.6c-24.2-.6-49.3-1.3-73.9-3-18.9-1.3-40.7-4-59.9-13.6-.5-.5-1.1-.8-1.8-.8h-.1c-3.2-3.2-4.1-8.5-4.7-13.7L77 463.2c-.5-4.6-1.1-9.4-2.6-14-1-2.9-2.3-5.7-3.6-8.3-.8-1.7-1.6-3.3-2.3-5-2.2-5.3-3.5-11-3.9-16.7 8.7 8.7 22.2 14.4 40.8 17.4 16.1 2.6 32.5 3.9 48.4 5.2l66.7 5.5c18 1.5 36.6 3 55.1 2.5 11-.3 22.1-1.3 32.9-2.3 8.1-.8 16.4-1.5 24.7-2 4.3-.2 8.9-.4 14.2-.4H347.7c.1 0 .2 0 .3-.1h1c2.7 0 5.4 0 8 .1.2.1.4.3.6.4.2.1.5.1.7.1.5 0 .9-.2 1.3-.4h3.1c4.6.1 9.2.1 13.8.1 7.7 0 16.2-.2 24.9-1.1h.4c.3 0 .5-.1.8-.2 6.1-.7 12.3-1.7 18.4-3.4 14.1-3.8 20.1-9.3 23.2-12.2.6-.5 1.2-1.1 1.6-1.5 0 1.9-2 6.2-3.2 8.7z"/><path id="XMLID_127_" class="st11" d="M179.1 254.5c.9.8 2.3.7 3.1-.2 1.1-1.2 2.6-2 4.3-2.1 1.6-.1 3.3.5 4.5 1.6.2.1.2.2.2.2.2 1.1 1.1 1.8 2.2 1.8h.3c1.2-.2 2-1.3 1.9-2.5-.2-1.5-1.2-2.4-1.6-2.7-2.1-1.9-4.9-3-7.7-2.8-2.8.1-5.5 1.5-7.4 3.6-.8 1-.7 2.3.2 3.1z"/><path class="st11" d="M374.4 287.7c2.1 3.1 5.5 4.5 8.9 5.7.4.1.9.3 1.5.3s1.1-.1 1.5-.4c1.2-.7 1.6-2 1.7-2.5.7-3.1 1.1-6.2 1.3-9.3.1-3.1-1.4-4.6-3-4.9l-.7-.1c-.6 0-1.1.1-1.5.3-3.7 1.2-6.6 3.7-9.1 6-.3.3-.9.8-1.2 1.7-.3 1-.1 2.1.6 3.2zm10.6-6.6v.2c-.1 2.5-.4 5-1 7.6-2.2-.8-4.2-1.7-5.5-3.2 2-1.9 4.1-3.6 6.5-4.6zM368.6 278.2c.5.1 1.1.2 1.6.2.6 0 1.2-.1 1.7-.3.8-.3 1.5-.9 2.1-1.6 1.1-1.5 1.3-3.3.5-4.9-1.1-2.2-4.2-3.5-6.6-2.9-2.5.6-4.1 3.1-3.6 5.4.4 1.9 2 3.5 4.3 4.1zm.4-5.3c.7 0 1.3.4 1.4.6 0 0 0 .1-.3.4 0 0-.1 0-.5-.1-.7-.2-1.1-.6-1.2-.7.1 0 .3-.1.6-.2zM402.7 289.5c.5.1 1 .2 1.5.2 1.7 0 3.3-.8 4.2-2.1 1.1-1.5 1.1-3.7.2-5.3-.9-1.6-2.6-2.5-4.5-2.5-.7 0-1.4.2-2 .5-.7.4-1.1.9-1.4 1.3-1.6 2-1.9 4.3-.8 6 .6.9 1.6 1.6 2.8 1.9zm1.4-5.3c.3 0 .6.2.7.4.1.2.1.4 0 .5-.1.1-.3.2-.6.2h-.5c0-.1.2-.6.4-1.1zM358.8 294.9c-.1 2-.3 4-.1 6.2.2 2.4.5 5 1.6 7.5 2.9 6.3 9.8 8.7 15.4 8.9h.9c1.6 0 3.1-.2 4.6-.5 6.4-1.4 14.2-6.3 16.1-13.8l.6-2.3-2.4-.4c-9-1.5-18.8-5.1-25.4-9.3-2.2-1.4-3.9-2.2-6.1-3.1l-5.5-2.5.4 3.8c.2 1.9 0 3.6-.1 5.5zm4.4.3c.1-.8.1-1.7.1-2.5 1.5.7 2.8 1.3 4.4 2.3 6.5 4.1 15.6 7.6 24.4 9.4-2.2 4.2-7.4 7.4-11.9 8.3-1.1.2-2.4.4-3.6.4h-.8c-4.1-.1-9.5-1.9-11.6-6.3-.8-1.8-1-4-1.2-6.1 0-1.9.1-3.6.2-5.5z"/><path id="XMLID_118_" class="st11" d="M144 470.3c-1.1-.5-2.3-1-2.9-1.8-.5-.7-.7-1.6-.7-2.3-.1-2.7 1.4-5.4 3.7-6.7 2.3-1.3 5.5-1.1 7.6.4 1 .7 2.4.5 3.1-.5.7-1 .5-2.4-.5-3.1-3.6-2.5-8.5-2.8-12.3-.7-3.8 2.1-6.2 6.4-6 10.8.1 1.9.7 3.5 1.6 4.7 1.3 1.6 3.1 2.5 4.5 3.1 2.7 1.2 5.8 2.7 8.1 4.8 1.7 1.7 3.4 4.4 2.9 7.1-.5 2.8-3.3 5.1-6.6 5.5-4.1.5-7.7-1.8-9.5-3.3-1-.8-2.3-.6-3.1.4-.8 1-.6 2.3.4 3.1 3.5 2.8 7.4 4.3 11.2 4.3.5 0 1 0 1.5-.1 5.2-.6 9.6-4.4 10.4-9.1.7-3.8-.9-8-4.2-11.1-2.7-2.5-6.2-4.1-9.2-5.5z"/><path id="XMLID_117_" class="st11" d="M195.4 463.9c2.2-.4 5 .2 5.6 1.8.4 1.2 1.7 1.8 2.8 1.4 1.1-.4 1.8-1.7 1.3-2.8-1.5-4.1-6.4-5.5-10.6-4.7-8.3 1.6-15 9.6-15.8 19-.2 2.7 0 5 .7 7.1 1.5 4.3 5.2 8 10.1 9.7 2.5.9 5.3 1.4 8.5 1.4 1.6 0 3.2-.1 4.9-.3 1.2-.2 2.1-1.3 1.9-2.5-.2-1.2-1.3-2.1-2.5-1.9-4.5.6-8.2.3-11.3-.8-3.6-1.3-6.4-3.9-7.4-7-.5-1.5-.7-3.3-.5-5.3.7-7.5 6-14 12.3-15.1z"/><path id="XMLID_116_" class="st11" d="M233.4 462.5c-1.2-.2-2.4.6-2.6 1.8-2.1 11.1-3 22.5-2.9 33.8 0 1.2 1 2.2 2.2 2.2 1.2 0 2.2-1 2.2-2.2-.2-11 .7-22.1 2.8-32.9.3-1.3-.5-2.5-1.7-2.7z"/><path id="XMLID_115_" class="st11" d="M271.8 480.5H259c-1.2 0-2.2 1-2.2 2.2 0 1.2 1 2.2 2.2 2.2h12.8c1.2 0 2.2-1 2.2-2.2 0-1.2-1-2.2-2.2-2.2z"/><path id="XMLID_114_" class="st11" d="M307.9 466.7c-4.7.6-11.9-.2-16.1-1.7-.6-.2-2-.7-3.4.2-.9.6-1.4 1.7-1.4 2.8.2 8.7-.1 16.1-.3 22-.1 3.9-.3 7.2-.2 10 0 1.2 1 2.2 2.2 2.2 1.2 0 2.2-1 2.2-2.2 0-2.6.1-5.9.2-9.7.1-1.7.1-3.5.2-5.3l9.4.6h.2c1.2 0 2.1-.9 2.2-2.1.1-1.2-.8-2.3-2.1-2.4l-9.6-.7c.1-3.3.1-6.9 0-10.9 4.9 1.5 12 2.2 17 1.6 1.2-.2 2.1-1.3 1.9-2.5-.1-1.2-1.2-2-2.4-1.9z"/><path id="XMLID_113_" class="st11" d="M338.7 466.2c-1.2-.3-2.4.5-2.6 1.7-1 4.7-1.1 9.4-1.2 14l-.4 18.4c0 1.2.9 2.2 2.2 2.3 1.2 0 2.2-1 2.2-2.2l.4-18.4c.1-4.4.2-8.9 1.1-13.2.2-1.2-.5-2.4-1.7-2.6z"/><path id="XMLID_112_" class="st3" d="M245.4 281.2c-1.6-.1-3.1-.2-4.6-.4-3.8-.3-7.3-.5-11.2-1.2-2.9-.5-6.7-1.8-10.8-3.5-3.2-1.4-5.2-2.6-7.5-5.3.3-1.5.7-3 1.1-4.4 5.3 3.2 10 5.3 16.6 6.2 10.1 1.5 19 2.2 26.9 2.2 2.7 0 5.3-.1 7.8-.3 7-.5 14.4-1.4 20.8-6.2 1.3-1 5.6-4.4 7-8 1.2-3.2-.1-8.4-2.9-10.8-2.6-2.3-6.1-2.3-8.5-2.4-.6-.8-1.2-1.7-1.9-2.5 4.1-.1 8.3.2 12.5 1.1 4.4.9 8.2 5.5 8.8 6.9 1.8 4.9 1.3 10.3-1.5 14.3-2.9 4.2-7.9 6.5-12 8.2-12.7 5.3-26.7 7.4-40.6 6.1z"/><g><path id="XMLID_111_" class="st7" d="M285.6 261.7c-.5-3.3-1.7-7.1-2.8-9.9 1.3.1 2.4.4 3.1 1.1 1.4 1.2 2.3 4.4 1.7 6-.3.8-1.1 1.8-2 2.8z"/></g><g><path id="XMLID_110_" class="st15" d="M225.3 233.7c-2.9 1.7-6.6 3.7-10.3 3.4-5.9-.5-10.3-1.9-13.9-4.6-2.6-2-4.7-4.9-6-8.2-1.1-2.9-1.6-6.2-1.9-10.7-.2-4.1.9-9.5 2.8-14.6 1.5-4 4.7-9.2 7.9-11.5 6.1-4.4 16.3-4.3 23.3-2.4 5.7 1.6 10.2 5 12.5 9.5-2.2 12.3-7 25.1-14.4 39.1z"/></g><g><path id="XMLID_109_" class="st15" d="M132.9 202.6c.5-3.5 2.3-9.5 4.1-11.2 2.7-2.6 5.7-4.3 10.3-5.9 5.5-2 11.8-.4 16.7 1.2 1.7.5 3.5 1.2 5.1 2 5.7 3.1 10.8 10.9 11.5 17.8.9 8.1 0 14.4-2.9 19.9-6.7 12.7-18.5 13.2-27.2 11.4-6.8-1.4-8.9-2.1-15.7-9.8l-.1-.1c-1.8-7.9-2.6-16-2.3-24.1.2-.4.4-.8.5-1.2z"/></g><g><path id="XMLID_108_" class="st8" d="M385 281.1v.2c-.1 2.5-.4 5-1 7.6-2.2-.8-4.2-1.7-5.5-3.2 2-1.9 4.1-3.6 6.5-4.6z"/></g><g><path id="XMLID_107_" class="st3" d="M311.5 131.2c.2-.2.3-.4.5-.5 10.4 1.8 20.8 3.9 31.1 6.4.8 2.8 1.4 6 1.8 9.5-6.5-.8-13.1-2.4-19.5-4-6-1.5-12.1-3-18.4-3.9 1.3-2.9 2.8-5.3 4.5-7.5z"/></g><g><path id="XMLID_106_" class="st4" d="M141.3 333.4l2.4-3.9c4.8 5 10.9 10.2 18.7 12.6 3.3 1 6.6 1.4 9.5 1.6 2.2.2 4.2.3 6 .3 1.1 0 2.1 0 3.1-.1 12.3-.8 24-6.9 31.7-16.5 1.1 1.1 2.2 2.2 3.3 3.2-2.7 3.7-5.4 7.3-8.6 10.4-5.9 5.7-13.7 9.6-21.8 10.9-15.2 2.5-31.2-2.7-40.7-13.2l-1.9-1.9c-.8-.8-1.7-1.6-2.2-2.3.1-.5.3-.8.5-1.1z"/></g><g><path id="XMLID_105_" class="st11" d="M144.7 438.3c-.8-7.1-1.6-14.9-1.3-22.6.3-7.3.9-21 8.8-29.4 12.5-13.3 26.2-11.8 33.2-9.7 13.9 4.2 18.7 9.4 24.1 19.7 1.3 2.4 2.4 7.7 3.3 15.5 1.3 11 1.8 22.3 1.6 32.2l-61.6-5c-2.7-.3-5.4-.5-8.1-.7z"/></g><g><path id="XMLID_104_" d="M215.4 411.2c-.6-5.2-1.6-12.5-3.6-16.2-5.5-10.4-10.9-16.4-25.4-20.8-7.7-2.3-22.5-4-35.9 10.4-8.6 9.2-9.2 23.2-9.5 30.7-.3 7.3.4 14.6 1.1 21.2-2.7-.2-5.5-.5-8.2-.8.1-6 .1-11.9 0-17.6l-.1-9.2c-.1-7.7-.1-15.5-.3-23.2-.1-3.3-.2-7.4-1.4-11.1-1.3-4.1-3.7-7.6-5.9-10.7-1.1-1.6-2.6-3.7-4.7-5.2.8-.9 1.6-1.7 2.4-2.6 2.4-2.6 4.8-5.3 7-8 2.4-2.9 4.8-6.1 7.3-9.8.6.6 1.1 1.2 1.7 1.7.6.6 1.2 1.1 1.7 1.7 8.8 9.7 22.4 15.3 36.4 15.3 2.8 0 5.6-.2 8.4-.7 9-1.5 17.6-5.8 24.1-12.1 3.4-3.3 6.2-7 9-10.8 2.5 1.9 5.1 3.7 7.5 5.3-4.6 5-8.7 10.5-12.2 16.4-2.2 3.8-7.2 15.2-3.4 18.6.7.6 1.5.9 2.5.9 2.3 0 5.5-2.1 8.7-4.9-1 2.2-1.2 3.5-1.5 5.2-.1.6-.2 1.3-.3 2.1-.3 1.5.7 3 1.5 4.1.7 1.1 2 1.8 3.5 1.8.5 0 1-.1 1.4-.2 1.4-.4 2.4-1.4 3-2 .9-.8 1.7-1.7 2.5-2.5l-1 2.3c-.7 1.6-1.5 3.5-1.3 5.6.2 2.5 2.1 5 4.8 5.2-.6 6.7.1 13.4.7 19.9.2 1.6.3 3.2.5 4.7.8 9.4 1 18.9.5 28.3-5.4-.4-10.8-.8-16.1-1.3l-4-.3c.3-9.7-.2-20.7-1.4-31.4z" fill="#6d6c6d"/></g><g><path id="XMLID_103_" class="st15" d="M107.9 432.4c-3-10.7-2.8-21.6-2.7-31.2 0-1.9.1-3.7.1-5.5 0-4.6.1-8.8 1-12.9 1.8-8 6.5-14.5 12.1-21 1.5.9 2.8 2.5 4.1 4.3 2.1 3 4.3 6.1 5.3 9.5 1 3.2 1.1 6.8 1.2 9.9.2 7.7.3 15.4.3 23.2l.1 9.2c.1 5.5.1 11.1 0 16.8-.1.1-.1.2-.1.4-7.1-.7-14.3-1.6-21.4-2.7z"/></g><g><path id="XMLID_102_" class="st12" d="M237.4 385.4c-.3.3-1.3 1.4-1.8 1.4v1.6-1.6c-.3 0-.7-.6-.8-1.2-.1-1.1.5-2.4 1-3.6l6.8-16.1c.4-1 0-2.3-1-2.8-.3-.2-.7-.3-1-.3-.7 0-1.4.3-1.8 1-3.2 4.7-6.6 8.7-11.6 13.5-.4.3-.9.8-1.4 1-.1-.2-.5-.7-.6-1 .1-.7.2-1.4.3-1.9.3-1.8.4-2.6 1.4-4.7.8-1.6 1.5-3.3 2.2-4.9.9-2.2 1.8-4.3 2.8-6 .7-.8 1.3-1.6 1.9-2.3.7-.9.6-2.2-.2-3-.8-.8-2.1-.8-3-.1-.8.7-1.6 1.6-2.3 2.7-6.9 8-12.2 12.1-14.1 12.8-.2-2 1.4-8.1 4.2-12.8 3.7-6.2 8-11.9 13-17.1l.3-.3c.5-.1.9-.3 1.3-.6.7-.2 1.5-.2 2.1 0 .4.1.6.3.6.4.1.1.1.4.1.8.1 1.9 0 3.7-.4 5.5-.2.9.2 1.8 1 2.3.8.5 1.8.5 2.5-.1.2-.1.4-.2.7-.4.5-.3 1-.6 1.3-.8 1-.8 1.9-1.6 2.9-1.9.7-.2 1.4-.1 1.7.2.6.7 0 2.8-.1 3.4l-.9 3.4c-.2.8 0 1.7.7 2.3.7.6 1.6.7 2.4.3.7-.3 2.4-.5 3.4-.6l1-.1c.8-.1 1.6.1 1.9.5.7.8.4 2.5 0 4-.9 3.9-1.9 8-3.8 11.4-1.1 2-2.6 3.9-4 5.6-2.8 3.5-5.8 6.9-8.7 10.1z"/></g><g><path id="XMLID_101_" class="st15" d="M240.8 415c-.1-1.6-.3-3.2-.5-4.8-.7-7.1-1.4-14.4-.5-21.3v-.1l.8-.8c3-3.3 6-6.7 8.8-10.2 1.6-1.9 3.2-4 4.5-6.3.3-.5.5-1 .8-1.6 4.5 7.5 9.2 15.9 9.8 24 .9 12-3.3 25.3-6.6 36-1.8 5.6-3.3 10.5-4 14.7-4.2-.2-8.4-.4-12.6-.7.5-9.5.4-19.2-.5-28.9z"/></g></g><g><path class="st17" d="M70.6 582.1h1.9v13.2h6.3v1.6h-8.3v-14.8zM90.2 591.5c0 3.9-2.7 5.7-5.3 5.7-2.9 0-5.1-2.1-5.1-5.5 0-3.6 2.3-5.7 5.3-5.7 3.1 0 5.1 2.2 5.1 5.5zm-8.4.1c0 2.3 1.3 4.1 3.2 4.1 1.9 0 3.2-1.7 3.2-4.1 0-1.8-.9-4.1-3.2-4.1-2.2 0-3.2 2.1-3.2 4.1zM92.7 589.6c0-1.3 0-2.3-.1-3.3h1.7l.1 2.1h.1c.5-1.4 1.6-2.3 2.9-2.3.2 0 .4 0 .5.1v1.8c-.2 0-.4-.1-.7-.1-1.4 0-2.3 1-2.6 2.5 0 .3-.1.6-.1.9v5.7h-1.9v-7.4zM100.7 591.9c0 2.6 1.7 3.7 3.7 3.7 1.4 0 2.2-.2 2.9-.6l.3 1.4c-.7.3-1.8.7-3.5.7-3.3 0-5.2-2.2-5.2-5.4s1.9-5.7 5-5.7c3.5 0 4.4 3.1 4.4 5 0 .4 0 .7-.1.9h-7.5zm5.7-1.4c0-1.2-.5-3.1-2.7-3.1-2 0-2.8 1.8-3 3.1h5.7zM110.7 589.1c0-1.1 0-2-.1-2.9h1.7l.1 1.7h.1c.6-1 1.6-2 3.3-2 1.5 0 2.6.9 3 2.1.3-.6.7-1.1 1.2-1.4.6-.5 1.3-.7 2.4-.7 1.4 0 3.5.9 3.5 4.6v6.3H124v-6c0-2-.7-3.3-2.3-3.3-1.1 0-2 .8-2.3 1.8-.1.3-.2.6-.2 1v6.6h-1.9v-6.4c0-1.7-.7-2.9-2.2-2.9-1.2 0-2.1 1-2.4 1.9-.1.3-.2.6-.2.9v6.4h-1.9v-7.7zM135.8 583.3c0 .7-.5 1.2-1.2 1.2s-1.2-.5-1.2-1.2.5-1.2 1.2-1.2c.8-.1 1.2.5 1.2 1.2zm-2.1 13.6v-10.7h1.9v10.7h-1.9zM138.8 589.7c0-1.4 0-2.5-.1-3.5h1.7l.1 1.8c.8-1.3 2-2.1 3.8-2.1 2.6 0 4.5 2.2 4.5 5.4 0 3.8-2.3 5.7-4.8 5.7-1.4 0-2.6-.6-3.3-1.7v5.8h-1.9v-11.4zm1.9 2.9c0 .3 0 .6.1.8.4 1.3 1.5 2.3 2.9 2.3 2 0 3.2-1.7 3.2-4.1 0-2.1-1.1-4-3.2-4-1.3 0-2.6.9-2.9 2.4-.1.2-.1.5-.1.8v1.8zM151.1 594.9c.6.4 1.6.8 2.6.8 1.4 0 2.1-.7 2.1-1.6 0-.9-.6-1.4-2-2-1.9-.7-2.8-1.7-2.8-3 0-1.7 1.4-3.1 3.7-3.1 1.1 0 2 .3 2.6.7l-.5 1.4c-.4-.3-1.2-.6-2.2-.6-1.1 0-1.8.7-1.8 1.5 0 .9.6 1.3 2 1.8 1.9.7 2.8 1.6 2.8 3.2 0 1.9-1.5 3.2-4 3.2-1.2 0-2.2-.3-3-.7l.5-1.6zM169 594c0 1.1 0 2.1.1 2.9h-1.7l-.1-1.7c-.5.9-1.6 2-3.5 2-1.7 0-3.7-.9-3.7-4.7v-6.2h1.9v5.9c0 2 .6 3.4 2.4 3.4 1.3 0 2.2-.9 2.6-1.8.1-.3.2-.6.2-1v-6.5h1.9v7.7zM172.2 589.1c0-1.1 0-2-.1-2.9h1.7l.1 1.7h.1c.6-1 1.6-2 3.3-2 1.5 0 2.6.9 3 2.1.3-.6.7-1.1 1.2-1.4.6-.5 1.3-.7 2.4-.7 1.4 0 3.5.9 3.5 4.6v6.3h-1.9v-6c0-2-.7-3.3-2.3-3.3-1.1 0-2 .8-2.3 1.8-.1.3-.2.6-.2 1v6.6h-1.9v-6.4c0-1.7-.7-2.9-2.2-2.9-1.2 0-2.1 1-2.4 1.9-.1.3-.2.6-.2.9v6.4h-1.9v-7.7zM204.4 581.3v12.9c0 .9 0 2 .1 2.8h-1.7l-.1-1.8c-.6 1.2-1.9 2.1-3.6 2.1-2.6 0-4.6-2.2-4.6-5.4 0-3.5 2.2-5.7 4.8-5.7 1.6 0 2.7.8 3.2 1.6v-6.4h1.9zm-2 9.3c0-.2 0-.6-.1-.8-.3-1.2-1.3-2.2-2.8-2.2-2 0-3.2 1.8-3.2 4.1 0 2.2 1.1 3.9 3.1 3.9 1.3 0 2.5-.9 2.8-2.3.1-.3.1-.5.1-.8v-1.9zM217.2 591.5c0 3.9-2.7 5.7-5.3 5.7-2.9 0-5.1-2.1-5.1-5.5 0-3.6 2.3-5.7 5.3-5.7 3.1 0 5.1 2.2 5.1 5.5zm-8.4.1c0 2.3 1.3 4.1 3.2 4.1 1.8 0 3.2-1.7 3.2-4.1 0-1.8-.9-4.1-3.2-4.1-2.2 0-3.2 2.1-3.2 4.1zM219.7 581.3h1.9v15.6h-1.9v-15.6zM234.5 591.5c0 3.9-2.7 5.7-5.3 5.7-2.9 0-5.1-2.1-5.1-5.5 0-3.6 2.3-5.7 5.3-5.7s5.1 2.2 5.1 5.5zm-8.5.1c0 2.3 1.3 4.1 3.2 4.1 1.8 0 3.2-1.7 3.2-4.1 0-1.8-.9-4.1-3.2-4.1-2.2 0-3.2 2.1-3.2 4.1zM236.9 589.6c0-1.3 0-2.3-.1-3.3h1.7l.1 2.1h.1c.5-1.4 1.6-2.3 2.9-2.3.2 0 .4 0 .6.1v1.8c-.2 0-.4-.1-.7-.1-1.4 0-2.3 1-2.6 2.5 0 .3-.1.6-.1.9v5.7h-1.9v-7.4zM248.5 594.9c.6.4 1.6.8 2.6.8 1.4 0 2.1-.7 2.1-1.6 0-.9-.5-1.4-2-2-1.9-.7-2.8-1.7-2.8-3 0-1.7 1.4-3.1 3.7-3.1 1.1 0 2 .3 2.6.7l-.5 1.4c-.4-.3-1.2-.6-2.2-.6-1.1 0-1.8.7-1.8 1.5 0 .9.6 1.3 2 1.8 1.8.7 2.8 1.6 2.8 3.2 0 1.9-1.5 3.2-4 3.2-1.2 0-2.2-.3-3-.7l.5-1.6zM259.7 583.3c0 .7-.5 1.2-1.2 1.2s-1.2-.5-1.2-1.2.5-1.2 1.2-1.2c.7-.1 1.2.5 1.2 1.2zm-2.2 13.6v-10.7h1.9v10.7h-1.9zM265 583.2v3.1h2.8v1.5H265v5.7c0 1.3.4 2.1 1.5 2.1.5 0 .9-.1 1.1-.1l.1 1.5c-.4.2-1 .3-1.7.3-.9 0-1.6-.3-2.1-.8-.6-.6-.7-1.5-.7-2.8v-5.8h-1.7v-1.5h1.7v-2.6l1.8-.6zM280.5 596.9l-.2-1.3h-.1c-.6.8-1.7 1.6-3.3 1.6-2.2 0-3.3-1.5-3.3-3.1 0-2.6 2.3-4 6.4-4v-.2c0-.9-.2-2.5-2.4-2.5-1 0-2 .3-2.8.8l-.4-1.3c.9-.6 2.2-.9 3.5-.9 3.3 0 4.1 2.2 4.1 4.4v4c0 .9 0 1.8.2 2.6h-1.7zm-.3-5.4c-2.1 0-4.5.3-4.5 2.4 0 1.3.8 1.8 1.8 1.8 1.4 0 2.3-.9 2.6-1.8.1-.2.1-.4.1-.6v-1.8zM285.2 589.1c0-1.1 0-2-.1-2.9h1.7l.1 1.7h.1c.6-1 1.6-2 3.3-2 1.5 0 2.6.9 3 2.1.3-.6.7-1.1 1.2-1.4.6-.5 1.3-.7 2.4-.7 1.4 0 3.5.9 3.5 4.6v6.3h-1.9v-6c0-2-.7-3.3-2.3-3.3-1.1 0-2 .8-2.3 1.8-.1.3-.2.6-.2 1v6.6h-1.9v-6.4c0-1.7-.7-2.9-2.2-2.9-1.2 0-2.1 1-2.4 1.9-.1.3-.2.6-.2.9v6.4h-1.9v-7.7zM304.6 591.9c0 2.6 1.7 3.7 3.7 3.7 1.4 0 2.2-.2 2.9-.6l.3 1.4c-.7.3-1.8.7-3.5.7-3.3 0-5.2-2.2-5.2-5.4s1.9-5.7 5-5.7c3.5 0 4.4 3.1 4.4 5 0 .4 0 .7-.1.9h-7.5zm5.7-1.4c0-1.2-.5-3.1-2.7-3.1-2 0-2.8 1.8-3 3.1h5.7zM316.9 583.2v3.1h2.8v1.5h-2.8v5.7c0 1.3.4 2.1 1.5 2.1.5 0 .9-.1 1.1-.1l.1 1.5c-.4.2-1 .3-1.7.3-.9 0-1.6-.3-2.1-.8-.6-.6-.7-1.5-.7-2.8v-5.8h-1.7v-1.5h1.7v-2.6l1.8-.6zM320.5 599.6c.5-1.3 1.1-3.7 1.3-5.3l2.2-.2c-.5 1.9-1.5 4.3-2.1 5.3l-1.4.2zM338.6 596.5c-.5.3-1.6.6-3.1.6-3.2 0-5.3-2.2-5.3-5.4 0-3.3 2.2-5.7 5.7-5.7 1.1 0 2.2.3 2.7.6l-.4 1.5c-.5-.3-1.2-.5-2.2-.5-2.4 0-3.8 1.8-3.8 4 0 2.5 1.6 4 3.7 4 1.1 0 1.8-.3 2.4-.5l.3 1.4zM350.4 591.5c0 3.9-2.7 5.7-5.3 5.7-2.9 0-5.1-2.1-5.1-5.5 0-3.6 2.3-5.7 5.3-5.7s5.1 2.2 5.1 5.5zm-8.5.1c0 2.3 1.3 4.1 3.2 4.1 1.8 0 3.2-1.7 3.2-4.1 0-1.8-.9-4.1-3.2-4.1-2.2 0-3.2 2.1-3.2 4.1zM352.8 589.1c0-1.1 0-2-.1-2.9h1.7l.1 1.8c.5-1 1.8-2 3.5-2 1.5 0 3.8.9 3.8 4.5v6.4h-1.9v-6.1c0-1.7-.6-3.1-2.5-3.1-1.3 0-2.3.9-2.6 2-.1.2-.1.6-.1.9v6.4h-1.9v-7.9zM364.8 594.9c.6.4 1.6.8 2.6.8 1.4 0 2.1-.7 2.1-1.6 0-.9-.5-1.4-2-2-1.9-.7-2.8-1.7-2.8-3 0-1.7 1.4-3.1 3.7-3.1 1.1 0 2 .3 2.6.7l-.5 1.4c-.4-.3-1.2-.6-2.2-.6-1.1 0-1.8.7-1.8 1.5 0 .9.6 1.3 2 1.8 1.8.7 2.8 1.6 2.8 3.2 0 1.9-1.5 3.2-4 3.2-1.2 0-2.2-.3-3-.7l.5-1.6zM374.8 591.9c0 2.6 1.7 3.7 3.7 3.7 1.4 0 2.2-.2 2.9-.6l.3 1.4c-.7.3-1.8.7-3.5.7-3.3 0-5.2-2.2-5.2-5.4s1.9-5.7 5-5.7c3.5 0 4.4 3.1 4.4 5 0 .4 0 .7-.1.9h-7.5zm5.7-1.4c0-1.2-.5-3.1-2.7-3.1-2 0-2.8 1.8-3 3.1h5.7zM392.3 596.5c-.5.3-1.6.6-3.1.6-3.2 0-5.3-2.2-5.3-5.4 0-3.3 2.2-5.7 5.7-5.7 1.1 0 2.2.3 2.7.6l-.4 1.5c-.5-.3-1.2-.5-2.2-.5-2.4 0-3.8 1.8-3.8 4 0 2.5 1.6 4 3.7 4 1.1 0 1.8-.3 2.4-.5l.3 1.4zM397.2 583.2v3.1h2.8v1.5h-2.8v5.7c0 1.3.4 2.1 1.5 2.1.5 0 .9-.1 1.1-.1l.1 1.5c-.4.2-1 .3-1.7.3-.9 0-1.6-.3-2.1-.8-.6-.6-.7-1.5-.7-2.8v-5.8h-1.7v-1.5h1.7v-2.6l1.8-.6zM403.1 591.9c0 2.6 1.7 3.7 3.7 3.7 1.4 0 2.2-.2 2.9-.6l.3 1.4c-.7.3-1.8.7-3.5.7-3.3 0-5.2-2.2-5.2-5.4s1.9-5.7 5-5.7c3.5 0 4.4 3.1 4.4 5 0 .4 0 .7-.1.9h-7.5zm5.7-1.4c0-1.2-.5-3.1-2.7-3.1-2 0-2.8 1.8-3 3.1h5.7zM415.4 583.2v3.1h2.8v1.5h-2.8v5.7c0 1.3.4 2.1 1.5 2.1.5 0 .9-.1 1.1-.1l.1 1.5c-.4.2-1 .3-1.7.3-.9 0-1.6-.3-2.1-.8-.6-.6-.7-1.5-.7-2.8v-5.8h-1.7v-1.5h1.7v-2.6l1.8-.6zM429.3 594c0 1.1 0 2.1.1 2.9h-1.7l-.1-1.7c-.5.9-1.6 2-3.5 2-1.7 0-3.7-.9-3.7-4.7v-6.2h1.9v5.9c0 2 .6 3.4 2.4 3.4 1.3 0 2.2-.9 2.6-1.8.1-.3.2-.6.2-1v-6.5h1.9v7.7zM432.5 589.6c0-1.3 0-2.3-.1-3.3h1.7l.1 2.1h.1c.5-1.4 1.6-2.3 2.9-2.3.2 0 .4 0 .5.1v1.8c-.2 0-.4-.1-.7-.1-1.4 0-2.3 1-2.6 2.5 0 .3-.1.6-.1.9v5.7h-1.9v-7.4zM76.4 623.3l-.2-1.3h-.1c-.6.8-1.7 1.6-3.3 1.6-2.2 0-3.3-1.5-3.3-3.1 0-2.6 2.3-4 6.4-4v-.2c0-.9-.2-2.5-2.4-2.5-1 0-2 .3-2.8.8l-.4-1.3c.9-.6 2.2-.9 3.5-.9 3.3 0 4 2.2 4 4.4v4c0 .9 0 1.8.2 2.6h-1.6zm-.3-5.4c-2.1 0-4.5.3-4.5 2.4 0 1.3.8 1.8 1.8 1.8 1.4 0 2.3-.9 2.6-1.8.1-.2.1-.4.1-.6v-1.8zM90.3 607.7v12.9c0 .9 0 2 .1 2.8h-1.7l-.1-1.9c-.6 1.2-1.9 2.1-3.6 2.1-2.6 0-4.6-2.2-4.6-5.4 0-3.5 2.2-5.7 4.8-5.7 1.6 0 2.7.8 3.2 1.6v-6.4h1.9zm-1.9 9.3c0-.2 0-.6-.1-.8-.3-1.2-1.3-2.2-2.8-2.2-2 0-3.2 1.8-3.2 4.1 0 2.2 1.1 3.9 3.1 3.9 1.3 0 2.5-.9 2.8-2.3.1-.3.1-.5.1-.8V617zM95.7 609.7c0 .7-.5 1.2-1.2 1.2s-1.2-.5-1.2-1.2.5-1.2 1.2-1.2c.7-.1 1.2.5 1.2 1.2zm-2.2 13.6v-10.7h1.9v10.7h-1.9zM98.7 616.1c0-1.4 0-2.5-.1-3.5h1.7l.1 1.8c.8-1.3 2-2.1 3.8-2.1 2.6 0 4.5 2.2 4.5 5.4 0 3.8-2.3 5.7-4.8 5.7-1.4 0-2.6-.6-3.3-1.7v5.8h-1.9v-11.4zm1.9 2.9c0 .3 0 .6.1.8.4 1.3 1.5 2.3 2.9 2.3 2 0 3.2-1.7 3.2-4.1 0-2.1-1.1-4-3.2-4-1.3 0-2.6.9-2.9 2.4-.1.2-.1.5-.1.8v1.8zM113.3 609.7c0 .7-.5 1.2-1.2 1.2s-1.2-.5-1.2-1.2.5-1.2 1.2-1.2c.8-.1 1.2.5 1.2 1.2zm-2.1 13.6v-10.7h1.9v10.7h-1.9zM116.1 621.3c.6.4 1.6.8 2.6.8 1.4 0 2.1-.7 2.1-1.6 0-.9-.6-1.4-2-2-1.9-.7-2.8-1.7-2.8-3 0-1.7 1.4-3.1 3.7-3.1 1.1 0 2 .3 2.6.7l-.5 1.4c-.4-.3-1.2-.6-2.2-.6-1.1 0-1.8.7-1.8 1.5 0 .9.6 1.3 2 1.8 1.8.7 2.8 1.6 2.8 3.2 0 1.9-1.5 3.2-4 3.2-1.2 0-2.2-.3-3-.7l.5-1.6zM132.6 622.9c-.5.3-1.6.6-3.1.6-3.2 0-5.3-2.2-5.3-5.4 0-3.3 2.2-5.7 5.7-5.7 1.1 0 2.2.3 2.7.6l-.4 1.5c-.5-.3-1.2-.5-2.2-.5-2.4 0-3.8 1.8-3.8 4 0 2.5 1.6 4 3.7 4 1.1 0 1.8-.3 2.4-.5l.3 1.4zM137.1 609.7c0 .7-.5 1.2-1.2 1.2s-1.2-.5-1.2-1.2.5-1.2 1.2-1.2c.7-.1 1.2.5 1.2 1.2zm-2.2 13.6v-10.7h1.9v10.7h-1.9zM140.1 615.5c0-1.1 0-2-.1-2.9h1.7l.1 1.8c.5-1 1.8-2 3.5-2 1.5 0 3.8.9 3.8 4.5v6.4h-1.9v-6.1c0-1.7-.6-3.1-2.5-3.1-1.3 0-2.3.9-2.6 2-.1.2-.1.6-.1.9v6.4h-1.9v-7.9zM161.4 612.7c0 .8-.1 1.6-.1 2.9v6.2c0 2.4-.5 3.9-1.5 4.9-1 1-2.5 1.3-3.9 1.3-1.3 0-2.7-.3-3.5-.9l.5-1.5c.7.4 1.8.8 3.1.8 2 0 3.4-1 3.4-3.7v-1.2c-.6 1-1.7 1.8-3.4 1.8-2.6 0-4.5-2.2-4.5-5.2 0-3.6 2.4-5.7 4.8-5.7 1.8 0 2.9 1 3.3 1.9l.1-1.6h1.7zm-2 4.2c0-.3 0-.6-.1-.9-.4-1.1-1.3-2-2.7-2-1.8 0-3.2 1.6-3.2 4 0 2.1 1.1 3.8 3.1 3.8 1.2 0 2.3-.7 2.7-2 .1-.3.2-.7.2-1v-1.9zM170.3 618.3c0 2.6 1.7 3.7 3.7 3.7 1.4 0 2.2-.2 3-.6l.3 1.4c-.7.3-1.8.7-3.5.7-3.3 0-5.2-2.2-5.2-5.4s1.9-5.7 5-5.7c3.5 0 4.4 3.1 4.4 5 0 .4 0 .7-.1.9h-7.6zm5.7-1.4c0-1.2-.5-3.1-2.7-3.1-2 0-2.8 1.8-3 3.1h5.7zM180.2 607.7h1.9v15.6h-1.9v-15.6zM187.6 609.7c0 .7-.5 1.2-1.2 1.2s-1.2-.5-1.2-1.2.5-1.2 1.2-1.2c.7-.1 1.2.5 1.2 1.2zm-2.2 13.6v-10.7h1.9v10.7h-1.9zM192.9 609.6v3.1h2.8v1.5h-2.8v5.7c0 1.3.4 2.1 1.5 2.1.5 0 .9-.1 1.1-.1l.1 1.5c-.4.2-1 .3-1.7.3-.9 0-1.6-.3-2.1-.8-.6-.6-.7-1.5-.7-2.8v-5.8h-1.7v-1.5h1.7v-2.6l1.8-.6zM196.6 626c.5-1.3 1.1-3.7 1.3-5.3l2.2-.2c-.5 1.9-1.5 4.3-2.1 5.3l-1.4.2zM206.8 621.3c.6.4 1.6.8 2.6.8 1.4 0 2.1-.7 2.1-1.6 0-.9-.5-1.4-2-2-1.9-.7-2.8-1.7-2.8-3 0-1.7 1.4-3.1 3.7-3.1 1.1 0 2 .3 2.6.7l-.5 1.4c-.4-.3-1.2-.6-2.2-.6-1.1 0-1.8.7-1.8 1.5 0 .9.6 1.3 2 1.8 1.8.7 2.8 1.6 2.8 3.2 0 1.9-1.5 3.2-4 3.2-1.2 0-2.2-.3-3-.7l.5-1.6zM216.8 618.3c0 2.6 1.7 3.7 3.7 3.7 1.4 0 2.2-.2 2.9-.6l.3 1.4c-.7.3-1.9.7-3.5.7-3.3 0-5.2-2.2-5.2-5.4s1.9-5.7 5-5.7c3.5 0 4.4 3.1 4.4 5 0 .4 0 .7-.1.9h-7.5zm5.7-1.4c0-1.2-.5-3.1-2.7-3.1-2 0-2.8 1.8-3 3.1h5.7zM236 607.7v12.9c0 .9 0 2 .1 2.8h-1.7l-.1-1.9c-.6 1.2-1.9 2.1-3.6 2.1-2.6 0-4.6-2.2-4.6-5.4 0-3.5 2.2-5.7 4.8-5.7 1.6 0 2.7.8 3.2 1.6v-6.4h1.9zm-2 9.3c0-.2 0-.6-.1-.8-.3-1.2-1.3-2.2-2.8-2.2-2 0-3.2 1.8-3.2 4.1 0 2.2 1.1 3.9 3.1 3.9 1.3 0 2.5-.9 2.8-2.3.1-.3.1-.5.1-.8V617zM253 607.7v12.9c0 .9 0 2 .1 2.8h-1.7l-.1-1.9c-.6 1.2-1.9 2.1-3.6 2.1-2.6 0-4.6-2.2-4.6-5.4 0-3.5 2.2-5.7 4.8-5.7 1.6 0 2.7.8 3.2 1.6v-6.4h1.9zm-1.9 9.3c0-.2 0-.6-.1-.8-.3-1.2-1.3-2.2-2.8-2.2-2 0-3.2 1.8-3.2 4.1 0 2.2 1.1 3.9 3.1 3.9 1.3 0 2.5-.9 2.8-2.3.1-.3.1-.5.1-.8V617zM265.9 617.9c0 3.9-2.7 5.7-5.3 5.7-2.9 0-5.1-2.1-5.1-5.5 0-3.6 2.3-5.7 5.3-5.7s5.1 2.2 5.1 5.5zm-8.5.1c0 2.3 1.3 4.1 3.2 4.1 1.8 0 3.2-1.7 3.2-4.1 0-1.8-.9-4.1-3.2-4.1-2.2 0-3.2 2.1-3.2 4.1zM274.1 618.3c0 2.6 1.7 3.7 3.7 3.7 1.4 0 2.2-.2 2.9-.6l.3 1.4c-.7.3-1.8.7-3.5.7-3.3 0-5.2-2.2-5.2-5.4s1.9-5.7 5-5.7c3.5 0 4.4 3.1 4.4 5 0 .4 0 .7-.1.9h-7.5zm5.6-1.4c0-1.2-.5-3.1-2.7-3.1-2 0-2.8 1.8-3 3.1h5.7zM286.2 609.7c0 .7-.5 1.2-1.2 1.2s-1.2-.5-1.2-1.2.5-1.2 1.2-1.2c.7-.1 1.2.5 1.2 1.2zm-2.2 13.6v-10.7h1.9v10.7H284zM298.1 620.4c0 1.1 0 2.1.1 2.9h-1.7l-.1-1.7c-.5.9-1.6 2-3.5 2-1.7 0-3.7-.9-3.7-4.7v-6.2h1.9v5.9c0 2 .6 3.4 2.4 3.4 1.3 0 2.2-.9 2.6-1.8.1-.3.2-.6.2-1v-6.5h1.9v7.7zM301 621.3c.6.4 1.6.8 2.6.8 1.4 0 2.1-.7 2.1-1.6 0-.9-.5-1.4-2-2-1.9-.7-2.8-1.7-2.8-3 0-1.7 1.4-3.1 3.7-3.1 1.1 0 2 .3 2.6.7l-.5 1.4c-.4-.3-1.2-.6-2.2-.6-1.1 0-1.8.7-1.8 1.5 0 .9.6 1.3 2 1.8 1.8.7 2.8 1.6 2.8 3.2 0 1.9-1.5 3.2-4 3.2-1.2 0-2.2-.3-3-.7l.5-1.6zM310 615.5c0-1.1 0-2-.1-2.9h1.7l.1 1.7h.1c.6-1 1.6-2 3.3-2 1.5 0 2.6.9 3 2.1.3-.6.7-1.1 1.2-1.4.6-.5 1.3-.7 2.4-.7 1.4 0 3.5.9 3.5 4.6v6.3h-1.9v-6c0-2-.7-3.3-2.3-3.3-1.1 0-2 .8-2.3 1.8-.1.3-.2.6-.2 1v6.6h-1.9v-6.4c0-1.7-.7-2.9-2.2-2.9-1.2 0-2.1 1-2.4 1.9-.1.3-.2.6-.2.9v6.4H310v-7.7zM338 617.9c0 3.9-2.7 5.7-5.3 5.7-2.9 0-5.1-2.1-5.1-5.5 0-3.6 2.3-5.7 5.3-5.7s5.1 2.2 5.1 5.5zm-8.5.1c0 2.3 1.3 4.1 3.2 4.1 1.8 0 3.2-1.7 3.2-4.1 0-1.8-.9-4.1-3.2-4.1-2.2 0-3.2 2.1-3.2 4.1zM349.6 607.7v12.9c0 .9 0 2 .1 2.8H348l-.1-1.9c-.6 1.2-1.9 2.1-3.6 2.1-2.6 0-4.6-2.2-4.6-5.4 0-3.5 2.2-5.7 4.8-5.7 1.6 0 2.7.8 3.2 1.6v-6.4h1.9zm-1.9 9.3c0-.2 0-.6-.1-.8-.3-1.2-1.3-2.2-2.8-2.2-2 0-3.2 1.8-3.2 4.1 0 2.2 1.1 3.9 3.1 3.9 1.3 0 2.5-.9 2.8-2.3.1-.3.1-.5.1-.8V617zM359.8 609.6v3.1h2.8v1.5h-2.8v5.7c0 1.3.4 2.1 1.5 2.1.5 0 .9-.1 1.1-.1l.1 1.5c-.4.2-1 .3-1.7.3-.9 0-1.6-.3-2.1-.8-.6-.6-.7-1.5-.7-2.8v-5.8h-1.7v-1.5h1.7v-2.6l1.8-.6zM365.7 618.3c0 2.6 1.7 3.7 3.7 3.7 1.4 0 2.2-.2 2.9-.6l.3 1.4c-.7.3-1.8.7-3.5.7-3.3 0-5.2-2.2-5.2-5.4s1.9-5.7 5-5.7c3.5 0 4.4 3.1 4.4 5 0 .4 0 .7-.1.9h-7.5zm5.7-1.4c0-1.2-.5-3.1-2.7-3.1-2 0-2.8 1.8-3 3.1h5.7zM375.6 615.5c0-1.1 0-2-.1-2.9h1.7l.1 1.7h.1c.6-1 1.6-2 3.3-2 1.5 0 2.6.9 3 2.1.3-.6.7-1.1 1.2-1.4.6-.5 1.3-.7 2.4-.7 1.4 0 3.5.9 3.5 4.6v6.3H389v-6c0-2-.7-3.3-2.3-3.3-1.1 0-2 .8-2.3 1.8-.1.3-.2.6-.2 1v6.6h-1.9v-6.4c0-1.7-.7-2.9-2.2-2.9-1.2 0-2.1 1-2.4 1.9-.1.3-.2.6-.2.9v6.4h-1.9v-7.7zM394 616.1c0-1.4 0-2.5-.1-3.5h1.7l.1 1.8c.8-1.3 2-2.1 3.8-2.1 2.6 0 4.5 2.2 4.5 5.4 0 3.8-2.3 5.7-4.8 5.7-1.4 0-2.6-.6-3.3-1.7v5.8H394v-11.4zm1.9 2.9c0 .3 0 .6.1.8.4 1.3 1.5 2.3 2.9 2.3 2 0 3.2-1.7 3.2-4.1 0-2.1-1.1-4-3.2-4-1.3 0-2.6.9-2.9 2.4-.1.2-.1.5-.1.8v1.8zM416.2 617.9c0 3.9-2.7 5.7-5.3 5.7-2.9 0-5.1-2.1-5.1-5.5 0-3.6 2.3-5.7 5.3-5.7s5.1 2.2 5.1 5.5zm-8.5.1c0 2.3 1.3 4.1 3.2 4.1 1.8 0 3.2-1.7 3.2-4.1 0-1.8-.9-4.1-3.2-4.1-2.2 0-3.2 2.1-3.2 4.1zM418.6 616c0-1.3 0-2.3-.1-3.3h1.7l.1 2.1h.1c.5-1.4 1.6-2.3 2.9-2.3.2 0 .4 0 .5.1v1.8c-.2 0-.4-.1-.7-.1-1.4 0-2.3 1-2.6 2.5 0 .3-.1.6-.1.9v5.7h-1.9V616z"/></g></svg>