<svg version="1.1" id="Layer_1" xmlns="http://www.w3.org/2000/svg" x="0" y="0" width="510" height="710" xml:space="preserve"><style>.st1{fill:#fec65f}.st2{fill:#f2aa37}.st3{fill:#2f69b3}.st4{fill:#ef477e}.st5{fill:#fdcd9d}.st6{fill:#fff}.st7{fill:#7e8d3e}.st8{fill:#c61e50}.st9{fill:#152347}.st10{fill:#b2c765}.st11{fill:#231f20}.st12{fill:#010101}</style><path id="XMLID_232_" fill="#fcb542" d="M5 1.4h500v707.1H5z"/><path id="XMLID_231_" class="st1" d="M374.3 195.2c-.2.1-.5.2-.8.3 3.6 3.5 6.9 7 10.1 10.5 5.6-3 11.2-6.1 16.7-9.1-3.2-3.7-6.3-7.4-9.4-10.9-5.5 2.8-10.9 5.7-16.6 9.2z"/><path id="XMLID_230_" class="st2" d="M401.3 188.4c-.6-2.4-1.1-4.7-1.7-7-1.6.8-3.2 1.7-4.8 2.5 2.5 2.8 4.9 5.7 7.5 8.7l-1-4.2z"/><path id="XMLID_229_" class="st3" d="M116.1 317.8c1.6 6.1 5.5 8.3 11.5 11.6l.3.2c5.5 3.1 11.8 4.9 17.9 6.6l2.2.6c11.8 3.4 18.8 7.3 27 11.9 4.5 2.5 9.2 5.1 15.2 8 3.2 1.5 13.1 3.1 17.8 3.1h.4c8.4-.2 15.8-3 20.7-7.9 4.9-4.9 8.9-9.4 11.9-15.4 4.9-9.7 12.7-26.3 17.4-36.2 1.6-3.5 2.5-5.4 3.1-6.5-.8-2-3.6-8-8.8-12.6-1.5-1.4-3.1-2.5-4.7-3.6-.6-.4-1.3-.9-1.9-1.4-.2.3-.4.7-.6 1-3.8 6.4-11.6 19.7-17.7 26.2-3.9 4.2-9.2 9.1-16.2 10.5-4.5.9-9.5.2-15.7-2.2-6.7-2.5-12.8-6.1-18.8-9.6-4.1-2.4-8.4-4.9-12.8-7-7.4-3.5-15.3-5.5-22.1-5.5-4.3 0-8.2.8-11.6 2.3-6.8 3.1-9.7 6.5-13.4 12.6-1.3 2-1.8 10.5-1.1 13.3z"/><path id="XMLID_228_" class="st4" d="M198.4 291.9l7.7 17.8v.2c1.6.1 3.2.1 4.6-.2 5.7-1.1 10.4-5.5 13.9-9.2.9-1 1.8-2.1 2.8-3.4-10.6-4.5-23.6-10.1-30.8-21.2-1.1-1.6-2-3.3-2.9-5-1-1.9-2-3.7-3.1-5.3-1.9-2.8-4.5-5.2-7.4-7-.7 2.5-1.4 4.7-2.4 6.1l-.2.2c5.1 5.9 10.4 12.1 14.1 19.3 1.4 2.6 2.6 5.2 3.7 7.7z"/><path id="XMLID_227_" class="st1" d="M382.8 211.3c-7.1 3.8-14.2 7.6-21.4 11.3-.1.1-.2 0-.3.1-.7 1.4-1.3 2.8-1.8 3.9 4.7.5 12.7 1.2 21 1.6.1 0 .1-.1.2-.1 3.8-2.1 7.7-4.1 11.6-6.2-.3-.3-.5-.6-.8-.9-2.7-3.1-5.6-6.4-8.5-9.7z"/><path id="XMLID_226_" class="st2" d="M368 207.8c-.9 2.2-2.4 5.4-4 8.6 5.3-2.8 10.6-5.5 15.8-8.3-2.6-2.9-5.3-5.7-8.2-8.5-1.2 2.7-2.4 5.4-3.6 8.2z"/><path id="XMLID_225_" class="st2" d="M394.8 225.1c-2.1 1.1-4.1 2.2-6.1 3.3 2.8 0 5.7-.2 8.6-.5-.8-.9-1.6-1.8-2.5-2.8z"/><path class="st5" d="M362.2 241.8l.1-.4c.2-.7.4-1.3.4-1.8-1.6 1.9-3.2 6.4-3.5 8.8-.4 3-.5 5.8-.6 8.4-.2 4.2-.3 8.2-1.4 13-.5 2.3-1.1 4.9-2.5 7.2-1.6 2.7-4.1 4.7-6.7 5.2-.2 0-.4 0-.6.1-.7 5.9-.3 11.9 1.3 17.6 2.2 8.3 6.7 14.9 12.4 18.5 4 2.5 9 4 14.7 4.2 5.9.2 10.6.2 15.6-.8 2.4-.5 7.6-2.1 10.1-3.2 2.6-1.1 7-4.9 11.5-12.6 4.4-7.5 5.2-14.4 5.9-20.5l.2-1.6c.4-3.1.6-7.2.1-9.5-2.4-.5-4.4-2-5.8-4.5-3.2-5.5-1.8-12.7-1.5-14.1.3-1.3.7-2.8 1.1-4.4.9-3.5 2.2-8.7 1.9-10.2-.6-2.8-2-5.4-3.2-5.7-.5-.1-1 0-1.5.3-.8.5-1.4 1.4-1.7 2.4-.1.5-.1 1.1-.1 1.8 0 2.5 0 5.1-1.4 7.4-1.6 2.8-5.4 4.7-8.4 3.1-4.6-2.4-5-7.1-3.4-10.6-.1-.5-1.1-.9-2-.6-.6.2-.7.5-.7 1.1.2 2.6-.3 5.1-.9 7.5-.7 2.9-2.6 4.8-5.7 5.5-1 .2-2.1.2-3.3 0-1.9-.4-3.5-1.2-4.5-2.5-1.6-2-1.6-4.6-1.6-6.7v-.5c0-.4 0-.8.1-1.3.1-1 .3-3.2-.3-3.6-.1 0-.3 0-.4.1 0 .1 0 .6-.1 1.2-.3 2.8-.9 7.5-4.1 10.7-1.8 1.8-3.7 2-5 1.9-2.2-.2-4-1.5-4.8-2.7-1-1.5-.9-3.1-.8-4.4.4-1.2.7-2.5 1.1-3.8zm38.4 21.6c.1-1.2 1.2-2 2.3-1.9 1.2.1 2 1.2 1.9 2.3l-.3 2.8c-.1 1.1-1 1.9-2.1 1.9h-.2c-1.2-.1-2-1.2-1.9-2.3l.3-2.8zm-21.2 10.9c1.2.1 2 1.1 1.9 2.3-.1.9.2 2 .8 2.7.7.9 1.8 1.3 2.7 1.1.2 0 .4-.1.6-.2 1-.5 1.6-1.7 1.5-2.8-.1-1.2.7-2.2 1.9-2.3 1.2-.1 2.2.7 2.3 1.9.3 2.8-1.3 5.7-3.8 7-.5.3-1.1.5-1.6.6-.5.1-.9.2-1.4.2-2.1 0-4.1-1-5.5-2.7-1.3-1.6-1.9-3.7-1.7-5.8.1-1.3 1.1-2.1 2.3-2zm-13.5-11.6c0-1.2.9-2.1 2.1-2.1 1.2 0 2.1.9 2.1 2.1v2.6c0 1.2-.9 2.1-2.1 2.1-1.2 0-2.1-.9-2.1-2.1v-2.6zm25.5 24.7c2.3.3 4.3.8 6.1 1.5 3.4 1.3 6.6 3.4 9.9 6.3.6-.6 1.3-1.3 2.1-1.8 1-.7 2.3-.4 3 .5.7 1 .4 2.3-.5 3-1.2.8-2.2 2-3.1 3.2l-3.1 3.8c-.4.5-1 .8-1.7.8-.5 0-.9-.2-1.3-.5-.9-.7-1.1-2.1-.3-3l2.3-2.8c-2.9-2.6-5.7-4.5-8.6-5.6-1.5-.6-3.3-1-5.3-1.3-10.2-1.5-21 1.2-29.3 7.2 1 .5 1.5 1.8 1 2.8-.4.8-1.1 1.2-1.9 1.2-.3 0-.6-.1-.9-.2-2.2-1-4.2-2.4-6-3.9-.9-.8-1-2.1-.2-3 .8-.9 2.1-1 3-.2.4.3.8.6 1.3.9 9.1-7.4 21.7-10.7 33.5-8.9z"/><path id="XMLID_219_" class="st6" d="M407.7 357c5.8 2 10.5 6 14.1 10.4 2.4-7.1 4.3-14.4 5.7-21.8-1.9-.4-3.3-.4-5.1-.2-1.1.1-2.2.1-3.6.1-7.3-.1-14.5-1.5-21.3-4.2 0 1-.1 2.1-.1 3.1 0 1.4.1 2.7.6 3.6 1.8-.2 3.6-.3 5.3-.6h.3c.4-.1.8-.1 1.2-.1 1.5 0 2.3.7 2.8 1.2 1.1 1.3 1 2.9.9 3.6 0 1.6-.4 3.3-.8 4.9z"/><path id="XMLID_218_" class="st6" d="M304.5 379.6c.9 2.1 1.8 4.1 2.7 5.8.3-1.3.6-2.7 1.2-4.2-1-.1-2-.4-3-.9-.4-.2-.7-.5-.9-.7z"/><path id="XMLID_217_" class="st4" d="M121.6 429.2c1.8-.4 3.7-.7 5.6-1 2.2-13.6 10.8-25.1 24.8-33.2-.3-.8-.5-1.7-.8-2.6-1.3-4.4-5.5-13.4-9.3-19.7-1.6-2.7-3.4-5.4-5.2-7.9-2.4-3.4-4.8-7-6.8-10.8-.8-1.5-1.6-3.2-2.3-4.8-.8.1-1.8 1-2.7 1.7-10.9 9.7-24.8 15.6-39.4 16.8 7.4 22.5 19.5 43.2 35.9 61.3.1 0 .1.1.2.2z"/><path id="XMLID_216_" class="st4" d="M337.4 155.5c-14.1 11.4-24 27.1-33.5 42.3-2.2 3.5-4.5 7.1-6.1 10.9-1.4 3.2-2.4 6.7-3.5 11.4-2.4 11-3 21.3-1.8 30.5v.4c1.2 0 2.6 0 4.1.1.6 0 1.2 0 1.8.1 3.1.1 6.4.2 9.6 2.1 1.3.8 2 2.3 1.7 3.9-.4 2-2.2 3.5-4.6 3.8-4.5.6-8.6 1.3-13.4 2.3.2 20.2-5.8 40.1-16.7 57 8.4-4.9 15.4-12.4 21.6-19.2 4.1-4.4 8.3-9 11.1-14.3 2.5-4.6 4-10 5.4-15.2 2-7.4 4.1-15 9.2-21.2 4.2-5.2 10.4-8.9 17.3-10.6.3-.1.6-.1 1 0 .7-.8 1.4-1.5 2.1-2.2 1.5-1.6 7.9-6.7 11.7-9.3.1-.6.5-1.7 4.9-11 1.9-4 3.9-8.3 5.1-11 1.3-3 2.6-6 4-8.9 2.2-4.7 4.5-9.9 6.6-15.1-11.5-10.8-24-19.7-37.6-26.8 0-.1 0-.1 0 0z"/><path id="XMLID_215_" class="st6" d="M335.8 245.3c-4.1 1.7-7.7 4.3-10.4 7.6-4.5 5.5-6.4 12.3-8.4 19.6-1.5 5.4-3 11-5.7 16.1-3.1 5.8-7.5 10.6-11.7 15.2-6.2 6.8-13 14.2-21.4 19.3 10.6-.4 19.5-2.9 28.4-7.9 1.7-.9 3.3-1.9 5-2.9 10.2-5.9 20.8-12 32.7-13.7-1.2-5.5-1.5-11.1-.9-16.7-1.1-.4-2.3-.9-3.3-1.6-1.9-1.4-3.5-3.3-4.9-5.9-4.9-8.9-4.9-20 .1-28.3.1-.3.3-.6.5-.8z"/><path class="st3" d="M422.2 444c-.6.1-1.2.1-1.9.1-4.4 0-8.7-1.2-12.5-2.3-11.1-3.2-22.1-6.2-32.7-8.9-21.1-5.4-43-6.2-65.4-6.6-47.8-.8-96.2.1-143.9 2.8l-4.4.2c-19 1-38.6 2.1-56.3 8.8-7.8 2.9-17.2-.2-20.5-2.9.2 4.6 1.7 9.9 4.4 15.9 2.6 5.6 5.6 11.6 8.5 17.4l2.3 4.6c3.1 6.2 4.8 12.9 6.4 19.7.7 3.1 1.4 5.9 2.9 8.3 2.2 3.5 3.3 3.7 4.2 3.4l3.8-1.4c12.1-4.4 24.6-8.9 37.5-11.2 7.2-1.3 14.9-2.4 23.7-3.4 68.7-7.5 136.8-.5 217.8 12.3 1.7.3 2.3 0 2.8-.5.9-1 1.5-2.4 2.1-4 .7-1.9 1.3-3.7 2-5.6 1.3-3.7 2.6-7.5 4.2-11.2 2.8-6.7 5.9-12 9.3-17.5 1.3-2.1 2.6-4.2 3.9-6.5l1.4-2.4c1.7-2.9 4-6.8 5.9-10.6-1.7.9-3.6 1.4-5.5 1.5zm-278.4 29.1c-1.7 2.2-4.6 2.9-7.1 2.9-1.5 0-2.9-.3-3.8-.6-6.2-2.4-8.1-9.5-7.9-15.3.3-6.6 2.8-11.8 7.2-15.1 2.1-1.6 6.1-2.4 9.7-.3 1 .6 1.4 1.9.8 2.9-.6 1-1.9 1.4-2.9.8-2-1.1-4.2-.7-5.1 0-3.4 2.5-5.3 6.5-5.5 11.9-.2 4.3 1.1 9.5 5.2 11.1 1.4.5 4.9.5 6-.9.7-.9 2.1-1.1 3-.4 1 .7 1.1 2 .4 3zm48.7-11.4c-.7 3.7-1.9 6.3-3.6 8.3-1.9 2.3-4.7 3.6-7.4 3.6-.6 0-1.3-.1-1.9-.2-2.9-.7-4.9-2.9-6.1-4.5-1.4-1.8-2.5-3.5-3.1-5.2-2-5.3-1.9-10.6.4-17.2l.2-.4c2-3.4 5.5-5.4 9.5-5.4 1.2 0 2.5.2 3.6.6 3.8 1.3 6.8 4.6 8.2 8.9 1 3.3 1 7.1.2 11.5zm59.7 7.3c-1.1.4-2.3-.2-2.7-1.3-1.9-5.2-3.6-10.6-5.2-15.9-.3.8-.7 1.7-1 2.5-1.5 3.9-3 7.9-5.6 11.4l-1.6 2.3-1.8-2.2c-2.7-3.4-4.4-7-6.3-10.9-.7-1.4-1.3-2.8-2-4.2-2.5 6-4.8 11.8-6.2 17.9-.2 1-1.1 1.7-2.1 1.7-.2 0-.3 0-.5-.1-1.1-.3-1.9-1.4-1.6-2.5 1.5-6.7 4-12.9 6.8-19.4l2.9-7.1 2.2 3.6c1.7 2.9 3.1 5.6 4.3 8.3 1.3 2.6 2.5 5.2 4 7.5 1.4-2.5 2.4-5.1 3.5-7.9 1-2.7 2.1-5.5 3.5-8.1l2.5-4.7 1.4 5.1c1.9 7.1 4.2 14.3 6.7 21.2.5 1.2-.1 2.4-1.2 2.8zm27.2-14.4c2.9-.2 5.7-.1 8.6.2 1.2.2 2 1.2 1.8 2.4-.1 1.1-1.1 1.8-2.1 1.8h-.3c-2.6-.4-5.3-.4-8-.2v7.4c2.4-.1 6-.1 8.3.4 1.1.3 1.9 1.4 1.6 2.5-.2 1-1.1 1.7-2.1 1.7-.2 0-.3 0-.5-.1-2.1-.5-6.8-.4-9.4-.2l-2.3.1v-2.3c.1-7.9 0-15.8-.1-23.5V443l1.7-.4c3.7-.8 7.9-.5 11.6-.2 1.2.1 2 1.1 1.9 2.3-.1 1.2-1.1 2-2.3 1.9-2.7-.2-5.8-.4-8.6-.1.2 2.8.2 5.4.2 8.1zm60.9 7.3c-.2 1.2-.7 2.4-1.5 3.6-3.6 5.8-11.4 6.7-17.2 6.8v.1l-2 .1c-.3 0-.7-.1-1-.2h-1v-.8c-.3-.3-.4-.8-.4-1.3v-2.1h.4c1.4-7.1 2.4-14.3 2.8-21.5l.1-2h2c9.2 0 16.6 5.7 17.8 13.5.2 1.5.2 2.7 0 3.8zM387 457l-11 8.7c-.3.2-.5.4-.8.5-.2 2.3-.9 4.3-1.5 6.2-.6 1.8-1.2 3.7-1.5 5.9-.1 1.1-1.1 1.8-2.1 1.8h-.3c-1.2-.2-2-1.2-1.8-2.4.4-2.6 1.1-4.7 1.7-6.6.6-1.9 1.2-3.6 1.4-5.5-.2-.2-.3-.4-.4-.6l-6.8-11.3c-.6-1-.3-2.3.7-2.9 1-.6 2.3-.3 2.9.7l6.3 10.5 10.6-8.4c.9-.7 2.3-.6 3 .4.6.9.5 2.2-.4 3z"/><path id="XMLID_207_" class="st7" d="M103.6 434.2c4.3-1.6 8.8-2.9 13.3-4-6.9-7.7-13-15.9-18.3-24.5-.5 3.5-1.5 7.8-4.7 12.1-1.3 1.7-2.7 3.2-4.2 4.6-.7.7-1.4 1.4-2 2.1-.6.7-1.2 1.3-1.6 2-.9 1.6-.5 4 .9 5.3 2 1.8 10.2 4.8 16.6 2.4z"/><path class="st5" d="M89.1 233.1c.7 4 5.5 15.3 15.9 24.5l3.1 2.7-4 .9c-.2.2-.5 1.2-.7 1.8-.1.3-.2.7-.3 1-.3 1.2 1.1 6.2 2.4 7.1 3.6 2.7 6.7 3.1 8.2 3.1.8 0 1.4-.1 1.7-.2 2.4-.7 4.3-2 4.5-3.2l.4-2.1 2.1.5c8.2 1.8 16.6 3.6 25 3.9h2c8.4 0 15.7-1.7 21.7-5.1 2.9-1.6 5-3.4 6.3-5.4 1.2-1.8 2.4-7.2 2.9-9.5l.1-.6c1.1-4.9-1.7-14.1-3.7-17.9-5.8 14.1-20 18.7-26.2 18.7-.5 0-1 0-1.4-.1-3.8-.5-7.3-2.1-10.3-3.5l-5.9-2.7c-.7-.3-2.9-1.4-4-3.3l-1-1.7 1.6-1.1c5.4-3.8 8.6-9.7 12.1-15.9 3-5.4 6.1-11.1 10.8-15.4-3-1-5.4-3.2-6.5-5.9l-.2-.5.1-.6c.2-1.6.7-3.2 1.4-4.7.3-.7.7-1.3 1.1-2l.3-.5c1.2-2 2.2-4.1 3-6.3-4.8 1.3-9.6 2.9-14.3 4.6l-1 .4-.9-.6c-3.4-2.3-6.7-4.1-9.7-5.2-2.8-1-5.7-1.5-8.8-1.5-7.6 0-15.3 3.2-20.7 8.5-7.6 7.2-10.1 20.7-7.1 37.8zm24.1-25.6c2.7-1.2 6.9-1.8 11.5 2.1 2.1 1.7 3.6 3.9 5 5.9.7 1 .4 2.3-.6 3-1 .7-2.3.4-2.9-.6-1.2-1.8-2.6-3.7-4.2-5-2.4-2-4.7-2.5-7.1-1.4-.6.3-1.5 2.5-1.5 4.2 0 4.4 1.1 7.2 2.8 11.4l.4 1c.4 1.1-.1 2.3-1.2 2.8-.3.1-.5.2-.8.2-.8 0-1.6-.5-2-1.3l-.4-1c-1.8-4.3-3.2-7.8-3.2-13 .1-2.6 1.3-7 4.2-8.3z"/><path id="XMLID_204_" class="st3" d="M182.6 445.3c-.7-.2-1.5-.4-2.2-.4-1.2 0-4 .3-5.8 3.1-1.9 5.5-2 9.7-.3 14.1.5 1.3 1.3 2.6 2.4 4.1 1.4 1.8 2.6 2.7 3.8 3 1.6.4 3.7-.4 5.1-2 1.2-1.5 2.1-3.5 2.7-6.4.7-3.7.7-6.8-.2-9.4-.9-2.9-3-5.2-5.5-6.1z"/><path id="XMLID_203_" class="st6" d="M152.3 184.4c.6-.2 1.4-.2 2.1 0 1.3.5 2.3 2.1 1.6 4.4-1 3-2.3 5.9-3.9 8.6l-.3.5c-.3.6-.7 1.1-.9 1.7-.4.9-.8 1.8-.9 2.8.7 1.3 2.1 2.4 3.7 3 1.1.4 3.6 1.2 3.5 3.8 0 1.6-1.1 2.5-1.7 3-4.3 3.7-7.1 8.8-10 14.2.1.1.1.1.2.1 2.8 1.3 4.6 3.9 6.2 6.1.9 1.2 1.7 2.4 2.6 3.3 3.2 3.3 8.4 4.4 12.5 5.4 2.7-2.6 5-5.9 6.4-10.1.7-2.2 2.3-2.4 2.9-2.4 1.6 0 2.6 1.3 2.9 1.7 3.1 3.8 6.8 16.3 5.3 22.7l-.1.5c0 .1-.1.3-.1.4 3.9 2.2 7.3 5.2 9.8 8.9 1.3 1.9 2.3 3.8 3.4 5.7.9 1.6 1.7 3.2 2.7 4.7 6.8 10.3 19.5 15.6 29.7 19.9.1 0 .1.1.2.1 1.7-2.4 3.4-5 5-7.5-7.6-5.1-16.6-11.4-21.4-20.7-3.3-6.4-4.2-13.4-5.1-20.3-.7-5-1.3-10.2-3-14.9-2.4-7-6.7-13-11.3-19.4-3.5-4.9-7.1-9.9-9.8-15.4-3.2-6.6-5-13.7-6.7-20.6-1.7-6.7-3.4-14.1-2.9-21.5-16.4 8.1-31.5 18.9-44.9 32 2.5 1.2 4.9 2.6 6.7 3.8 5.1-1.5 10.4-3.1 15.6-4.5z"/><path id="XMLID_202_" class="st3" d="M324.5 449c-.5 6.4-1.4 12.8-2.6 19.1 7-.1 11.4-1.7 13.3-4.8.5-.8.8-1.5.9-2.2.1-.6.1-1.4 0-2.3-.8-5.8-6.3-9.1-11.6-9.8z"/><path id="XMLID_201_" class="st1" d="M76.3 263.1c1.5-1.2 5.8-3.7 9.9-4.2 2.6-.3 5.2.3 7.6.9 1.6.4 3.6 1.2 5.4 2.2.2-.9.5-1.9 1.1-2.9-9.6-9.2-14.6-20.2-15.4-25.3-2.9-16.9-.7-30.7 6.2-39.3-5.2.4-10.6 3.1-14.7 7.5-4.3 4.6-7.3 10.8-9.2 19.1-4.2 17.7-3 34.9 3.3 49 1.4-2.6 3.5-5.1 5.8-7z"/><path id="XMLID_200_" class="st6" d="M260.7 421.8c-5.7-8.1-6.3-21.9-3.3-31.9 1.3-4.2 3.2-8.2 5-12.1 1.1-2.2 2.2-4.5 3.1-6.7 3.4-8.2 4.6-21 4.2-32.4-4 13.2-14 24.7-26.7 29.9-1.4.6-2.9 1.1-4.4 1.7-3.8 1.4-7.4 2.7-10.1 5.1.3.6.6 1.1.8 1.7 5.8 12.7 7.3 28.3 4.5 45.1 8.9-.2 17.9-.3 26.9-.4z"/><path id="XMLID_199_" class="st2" d="M386 166.8c2.8-2 5.5-4 8.2-6-.4-1.2-.7-2.4-1.1-3.6l-.3-.8c-.1-.4-.3-1.1-.6-1.8-2 3.5-4.1 7.7-6.2 12.2z"/><path id="XMLID_198_" class="st6" d="M154.4 406.2c-.2-2.6-.7-4.8-1.3-7-8.8 5.3-18.7 14.2-21.6 28.4 7.1-1 14.3-1.5 21.5-2v-.2c.1-1.3.3-2.5.5-3.8.6-5.1 1.3-10.3.9-15.4z"/><path id="XMLID_197_" class="st8" d="M402.7 231.6c-.3.1-.6.2-.9.2-.1 0-.3-.1-.4-.1-4.1.5-8.7.9-13.2.9h-2c-11-.3-22.7-1.4-28.2-1.9-2.4 1.5-10.8 8.1-12.4 9.7-2.4 2.5-4.9 5-6.6 7.9-4.2 7-4.3 16.4-.1 24 1.1 2.1 2.3 3.6 3.7 4.5 1 .7 2 1.1 3 1.2h.4c.1 0 .2.1.3.1.4 0 .7 0 1.1-.1 1.5-.3 3-1.5 4-3.2 1.1-1.8 1.6-3.9 2-6 1-4.4 1.1-8.2 1.3-12.2.1-2.7.2-5.6.6-8.8.4-3.3 2.5-8.9 4.8-11.4.4-.4 1.1-1.1 2-1.4 1-.3 2.1-.1 3 .5 1.1.7 1.9 1.9 2 3.2.2 1.5-.2 2.9-.6 4l-.1.4c-.4 1.1-.6 2.2-.8 3.3-.1 1 0 1.3 0 1.4.2.3.9.8 1.7.9.4 0 .9 0 1.6-.7 2.2-2.2 2.6-6 2.9-8.2.1-1.1.2-1.9.5-2.5.5-1.1 1.5-2 2.8-2.4 1.3-.4 2.8-.2 3.8.6 2.6 1.8 2.3 5.4 2.1 7.5 0 .4-.1.7-.1 1v.5c0 1.5-.1 3.1.6 3.9.4.5 1.1.8 2 1 .6.1 1.1.1 1.6 0 1.5-.4 2.2-1 2.5-2.3.5-2.1.9-4.2.8-6.2-.2-2.3.9-4.3 2.9-5.3 2.3-1.1 5.3-.6 7 1 1.4 1.3 1.7 3.2.9 5-.5 1.1-1.3 3.7 1.5 5.2.7.4 2.2-.4 2.8-1.5.8-1.4.8-3.2.8-5.2 0-.9 0-1.9.2-2.9.5-2.1 1.9-3.9 3.6-5 1.5-.9 3.1-1.1 4.7-.7 4.5 1.2 6 7.7 6.3 8.9.4 2.2-.5 6.2-1.9 12-.4 1.5-.8 3-1 4.3-.6 2.5-1 7.7.9 11 .6 1.1 1.6 2.9 4.3 2.7.3-.1 1.4-.7 1.7-1 1.3-2.3 1.2-4.2 1-6.8 0-.7-.1-1.5-.1-2.3-.1-5.5-.4-11-.9-16.5-.2-2.3-.4-4.4-1-6.3-1-3.1-3.1-6-5.9-7.8-.3-.2-.6-.4-.9-.5l-1.8.4c-1.8.5-5.8 1.3-10.8 2z"/><path id="XMLID_196_" class="st3" d="M408.9 437.7c1.1.3 2.3.6 3.5 1 1.7-4.3 3.7-8.5 5.7-12.6 2.2-4.5 4.5-9.2 6.3-13.9 4.1-10.8 4.8-20.2 2.1-28-.6-1.6-1.3-3.3-2.4-5.4-3.4-6.5-9.2-14.7-17.8-17.7-.8 1.8-1.8 3.6-3 5.2-1.7 2.3-3.4 2.8-4.5 2.8-.3 0-.7 0-1-.1-.9-.2-1.5-.7-2-1l-5.9-4.4c-.7 1.8-1.7 3.5-2.8 4.7-.7.7-1.6 1.4-2.5 2 2.1 5.7 2.9 11.7 3.7 17.8 1.6 13.4 3 29 .2 44.1 6.7 1.6 13.6 3.5 20.4 5.5z"/><path id="XMLID_195_" class="st8" d="M329.5 388.8c.9 0 1.9-.6 2.7-1.4.8-.8 1.4-1.9 2-3.4.6-1.6 1-3.2 1.2-4.9.1-1.1.2-2.3.2-3.4 0-1.4.1-2.9.3-4.4.4-2.5 1.4-6 4.3-8.1.4-.3.8-.5 1.2-.8.3-.2.5-.3.8-.5 2.8-1.9 3.6-3.3 3.4-5.6-.1-.9-.2-1.3-.3-1.4h-1.1c-.8 0-3.3 1.7-4.1 2.3l-.7.5c-2.6 1.8-6 2.7-10.3 2.9-1.5.1-2.9 0-4.4 0-1.7 0-3.5-.1-5.2.1-.7 0-1.5.1-2.3.4-1.3.4-2.6 1.2-3.9 1.9-2.3 1.4-5.4 5-6.5 7.7-.7 1.7-.4 5.1.8 5.8 1.9 1.1 3.9-.1 5.1-.9l.4-.3c1.5-1 2.4-2.6 3.2-4.1.5-.9 1-1.8 1.6-2.5 1.5-1.6 3.3-3.1 5.3-3.1.8 0 1.5.2 2.1.7 3.3 2.3 1.8 6.4 1 8.4-.2.4-.3.8-.4 1-.7 3.3-1 4.8-.8 8.1 0 1.2.1 2.3.6 3.1.4.7 1.2 1.3 2.2 1.6.6.2 1.1.3 1.6.3v2.1-2.1z"/><path id="XMLID_194_" class="st6" d="M349.4 350.4c.8-2.9 2.8-9 5.7-9 .7.1 1.4.2 2.1.4 1-1.9 1.8-3.9 2.5-6-5.2-1.3-10.6-1.4-15.8-.3 0 .1 0 .2-.1.3-.8 3.5-2.3 5.8-4.5 6.9-.9.5-1.9.7-3 .7-2.2 0-4.5-1-5.9-2.8-1.3-1.5-2.1-3.6-2.3-5.9-7.9 2.8-14.8 4.2-21.7 4.2-3.1 0-6.2-.3-9.4-.8-5.8-.9-10.6-2.8-15.2-4.6l-4.8-1.8c1 1.1 2.1 2.3 3.2 3.6 4.5 4.9 10.1 11 14.5 19.9 1.4 2.8 3 7.1 4.9 12 .8 2.1 1.6 4.3 2.5 6.5-.1-1.7.2-3.4.7-4.6 1.5-3.4 5.2-7.8 8.2-9.6 1.4-.9 3.1-1.9 4.9-2.4 1.2-.3 2.3-.4 3.2-.5 1.9-.1 3.7-.1 5.6-.1 1.4 0 2.8.1 4.2 0 3.5-.1 6.2-.9 8.1-2.2l.7-.5c2.3-1.6 4.5-3.1 6.6-3.1h.7c.8 0 1.6.2 2.2.4.7-.3 1.4-.6 2.2-.7z"/><path id="XMLID_193_" class="st9" d="M384.4 430.9c2.7-14.5 1.3-29.5-.3-42.5-.7-5.8-1.5-11.4-3.4-16.6-1.2.3-2.4.5-3.6.5-1.7 0-3.4-.4-4.9-1.1l-.3.4c-.9 1.2-1.7 2.4-2.5 3.6-5.4 8.1-9.4 16.9-12.1 26.3-1.2 4.1-2.1 8.4-3 12.5l-2.2 10.3c8.1 1 16.1 2.4 24.1 4.4 2.7.8 5.4 1.5 8.2 2.2z"/><path id="XMLID_192_" class="st4" d="M419.3 304.7c-.3 0-.5-.1-.7-.1-.6 1.2-1.2 2.5-1.9 3.7-4.3 7.3-9.3 12.6-13.5 14.3-1 .4-2.3.9-3.7 1.4-.6 1.3-.9 2.8-1.1 4.4-.3 2.7-.6 5.3-.8 8 .3.2.5.4.6.7.1 0 .1.1.3.1 6.5 2.6 13.3 4 20.3 4.1 1.2 0 2.3-.1 3.3-.1 1.9-.1 3.8-.2 6.1.3 1.6-9.7 2.4-19.6 2.4-29.5 0-1.3 0-2.6-.1-3.9-3.3-2.2-7.3-3.4-11.2-3.4z"/><path id="XMLID_191_" class="st1" d="M398.7 223.1c1.3 1.5 2.5 2.9 3.7 4.2 2.9-.4 5.6-.8 8-1.3l-1.9-8c-3.2 1.7-6.5 3.4-9.8 5.1z"/><path id="XMLID_190_" class="st3" d="M311.9 406.1c.4 2.4.9 4.8 1.5 7.1l2.1 9c10.9.2 21.8.7 32.5 1.8l2.3-10.8c.9-4.2 1.8-8.5 3.1-12.8 2.8-9.7 7.1-19 12.7-27.4.8-1.3 1.7-2.5 2.6-3.8l.5-.7c-1.3-1.8-2.1-4.1-2.3-6.3-2.3 1.2-4.8 2.3-7.3 3.1-1.1.3-2.4.6-3.6.3-1.5-.3-2.9-1.3-4.1-3.1-.9-1.3-1.5-2.7-2-4.2-.5 3.3-2.7 5.4-5.1 7.1-.3.2-.7.4-1 .6l-.9.6c-1.8 1.3-2.4 3.9-2.6 5.3-.2 1.3-.2 2.6-.3 3.9 0 1.2-.1 2.5-.2 3.7-.2 2-.7 4.1-1.5 6-.8 2-1.7 3.6-2.9 4.8-1.6 1.6-3.6 2.6-5.6 2.7h-.4c-1 0-2-.2-3-.6-2-.7-3.5-1.9-4.4-3.4-1-1.6-1.2-3.5-1.2-5.2-.1-3.7.2-5.6.9-9.1.1-.4.3-1 .6-1.7.5-1.2 1-2.6.7-3.1-.3.1-.9.6-2 1.8-.2.3-.6.9-.9 1.6-.9 1.7-2.1 4-4.6 5.6l-.3.2c-.4.3-.9.6-1.5.9-1.7 2.8-2.5 6.9-2.8 9.9-.3 3.5.1 7.1.4 10.6.1 1.9.3 3.7.6 5.6z"/><path id="XMLID_189_" class="st2" d="M403.2 200.2c-5.5 3-11.1 6.1-16.6 9.1 2.7 3.1 5.3 6.1 7.8 8.9.5.6 1 1.1 1.4 1.7 3.7-1.9 7.4-3.9 11.2-5.7.2-.1.4-.1.5-.1l-3-12.2c-.4-.7-.8-1.2-1.3-1.7z"/><path id="XMLID_188_" class="st6" d="M111.6 314.4c-1.6.1-2.9.3-4.9.7-11.3 2.4-20.4 7.1-28.8 15-.1 0-.1.1-.2.1 1.1 11.4 3.3 22.6 6.6 33.3 13.9-1 27.3-6.6 37.8-15.9 1-.9 2.4-2.1 4-2.6-.4-1.4-.8-2.9-.9-4.4-.2-2.5 0-5 .6-7.4l-.2-.1c-6.4-3.6-11.5-6.4-13.5-14.3-.3-.9-.5-2.5-.5-4.4z"/><path id="XMLID_187_" class="st4" d="M266.1 421.8c14.6-.1 29.2 0 43.7.2h1.2l-1.8-7.9c-.6-2.4-1.1-4.9-1.5-7.4-.3-1.9-.5-3.9-.7-5.8-.3-2.8-.5-5.6-.5-8.5-3.5-4.5-7.4-14.7-10.8-23.6-1.8-4.7-3.5-9.1-4.8-11.7-4.1-8.3-9.2-13.9-13.8-18.9-1.2-1.3-2.3-2.5-3.3-3.7 1 12.8-.1 28.2-4.3 38.3-1 2.4-2.1 4.7-3.2 7-1.9 3.9-3.6 7.5-4.8 11.4-2.9 9.7-2.1 24.1 4.5 30.3 0 0 .1.2.1.3z"/><path id="XMLID_186_" class="st5" d="M271.9 258.4c-1.9.6-4 1.1-6.1 1.2h-1l-.7-.8c-.6-.7-3-1.8-3.8-1.6-.2.1-.7.5-1 .9-3.5 3.7-7.2 10.3-9.6 15.6.2.1.4.3.6.4 1.7 1.2 3.4 2.4 5.1 3.9 3.3 2.9 5.9 6.6 7.7 9.7 3.4-1.3 6.7-2.7 9.9-4.3 2.2-1.1 4.5-2.4 5.5-4.5.9-2 .4-4.6-.3-6.9l-.1-.4c-.3-1.2-.7-2.4-.8-3.8-.1-2 .5-3.8 1.6-5 1.3-1.4 3.1-2 4.8-2.4 8-1.9 14-3 20.6-3.9.3 0 .5-.1.6-.2-2.1-1-4.2-1.1-6.9-1.1-.6 0-1.2 0-1.8-.1-7.8-.4-10.6.2-21.5 2.4-.9.4-1.9.7-2.8.9z"/><path id="XMLID_185_" class="st4" d="M105.8 311c2.3-.5 3.9-.7 5.9-.8.2-3.1.8-6.2 1.7-7.8 2-3.3 3.9-6 6.3-8.3-1.5-5.2-2.5-10.6-3-16-.1 0-.2.1-.3.1-.9.2-1.8.4-2.9.4-2.1 0-6.2-.5-10.7-3.9-1.7-1.3-3-4.4-3.7-7.2-1.1-1.4-4.2-2.8-6.5-3.4-2.1-.5-4.1-1-6-.8-.7.1-1.3.3-2 .5-4.2 14-8 29.6-8 48.4 0 4.4.2 8.7.5 13 8.5-7.4 17.6-11.9 28.7-14.2z"/><path id="XMLID_184_" class="st8" d="M148.3 235.2c-1.5-2.1-2.9-4.2-5-4.9h-.1c-2.6 4.6-5.5 9-9.5 12.5.2.1.5.3.7.4l5.9 2.7c2.9 1.3 6 2.7 9.1 3.1 2.6.3 8-.8 13.2-4.1-4-1-8.2-2.5-11.4-5.8-1-1.2-1.9-2.6-2.9-3.9z"/><path id="XMLID_183_" class="st7" d="M428.1 414.3c-1.8 4.7-4 9.2-6.1 13.6-1.8 3.8-3.7 7.7-5.3 11.6 1.7.3 3.4.4 5.2.3 4.4-.4 8-2.6 9.4-5.8.6-1.5.9-3.3.7-5.8-.4-5.6-1.6-10-3.9-13.9z"/><path id="XMLID_182_" class="st6" d="M241.4 135.4c3.5 5.5 4.7 12 5.4 17.8.6 5.3.9 10.7.8 16.1-.1 7.7-.9 15.4-1.7 22.9-.8 7.4-1.6 15-1.7 22.5-.2 12 1.7 28.6 11.7 40.4.1 0 .2.1.4.1 0 0 0-.1.1-.1.6-.7 1.5-1.6 2.8-2 2.2-.7 5.6.6 7.5 2.1 1.3-.1 2.7-.6 4.2-1 1.1-.3 2.1-.6 3.2-.8 6.7-1.4 10.5-2.1 14.3-2.4-1.3-9.7-.6-20.5 1.9-31.9 1.1-4.9 2.3-8.8 3.7-12.2 1.8-4.1 4.2-7.9 6.4-11.5 9.4-15 19.2-30.4 33.1-42.2-24.2-12-51.3-18.4-79.7-18.4-4.2.2-8.3.4-12.4.6z"/><path id="XMLID_181_" class="st2" d="M388.1 182.7c-2-2.3-4-4.6-6.1-6.9-.9 2.1-1.8 4.3-2.7 6.4-1 2.3-2 4.7-3 7 4-2.4 7.9-4.5 11.8-6.5z"/><path id="XMLID_180_" class="st1" d="M385 172.7c2.4 2.7 4.7 5.3 7 8 .2-.1.4-.2.7-.3 2-1 4-2 6-3.1-1-4.1-2-8.1-3.1-12.1-3.5 2.5-7 5-10.6 7.5z"/><path id="XMLID_179_" class="st4" d="M188.3 193.7c2.5 5.2 6 10 9.4 14.8 4.6 6.3 9.3 12.9 11.9 20.5 1.7 5.1 2.5 10.5 3.1 15.7.9 6.8 1.7 13.2 4.7 18.9 4.2 8.3 12.4 14 19.8 19 1.8-3 3.4-5.6 4.5-7.5 2.4-4 2.4-4.1 3.7-4.1h.8c1.8-3.9 4.3-8.5 7-12.2-9-10.2-13.7-25.4-13.4-44.1.1-7.7.9-15.4 1.7-22.9.8-7.4 1.6-15 1.7-22.5.1-5.2-.2-10.4-.8-15.6-.7-5.8-1.9-12.4-5.7-17.4-.1-.2-.2-.3-.2-.5-20 1.9-39.2 7.2-57.1 15.4-1.3 7.5.7 15.5 2.4 22.7 1.8 6.7 3.5 13.6 6.5 19.8z"/><path id="XMLID_178_" class="st6" d="M423.5 274.2c.5 3.5.1 8.3-.1 10.4l-.2 1.5c-.5 4.2-1.1 9.1-2.9 14.4 3.5.1 6.9 1 10.1 2.5-.6-9.6-2.1-19.9-4.5-30.4-.7.7-1.5 1.2-2.4 1.6z"/><path id="XMLID_177_" class="st9" d="M373.7 367.2c2.2 1.2 5.2 1.1 7.9-.3 1-.5 1.8-1.1 2.5-1.8 1.1-1.2 2-3.1 2.2-4.5l-3.6-2.7c-.9-.7-1.8-1.4-2.8-1.7-1.3-.4-3-.4-3.6 0-1.7 1.1-3.5 2.3-5.3 3.4-.7 2.3.8 6.6 2.7 7.6z"/><path id="XMLID_176_" class="st10" d="M398.8 364.7c.2-.1.6-.3 1.1-1 2.6-3.4 4.2-7.7 4.5-12v-.2h-.2l-.4.1c-7.4.9-14.8 1.2-22 .9 1.3.5 2.4 1.4 3.4 2.1l13.1 9.8c.2.1.4.3.5.3z"/><path id="XMLID_175_" class="st10" d="M356.7 361.5c.6 0 1-.1 1.5-.2 5.7-1.7 10.9-5.2 15.9-8.5.6-.4 1.2-.6 1.9-.8-4.3-.7-8.9-2.4-13-3.9-2.8-1-5.5-2-7.3-2.3-.8 1.3-2.2 4.5-2.5 6.6-.3 2.6.4 5.5 2 7.9.8.9 1.2 1.1 1.5 1.2z"/><path id="XMLID_174_" class="st8" d="M337.4 338.9c1-.5 1.8-1.9 2.3-4.1 1.1-4.6.9-9.5-.6-14l-.9 1.1c-3 3.9-5.4 7.1-5.8 10.9-.2 2 .2 3.8 1.2 5 .9 1.1 2.7 1.6 3.8 1.1z"/><path id="XMLID_173_" class="st5" d="M394.6 325.5c-.8.2-1.6.4-2.3.5-3.7.7-7.4 1-11.3 1-1.7 0-3.5 0-5.3-.1-3.3-.1-6.4-.7-9.3-1.5-.7 6.1-2.5 12-5.1 17.6 1 .3 2 .7 3.1 1.1 4.7 1.7 10.1 3.6 14.5 4 4.8.4 9.6.4 14.6.2-.3-1.3-.4-2.6-.4-3.8 0-5.5.4-11.1 1-16.6.2-.8.3-1.6.5-2.4z"/><path id="XMLID_172_" class="st4" d="M313.6 316c-1.7 1-3.3 1.9-5 2.9-9.8 5.6-19.5 8.2-31.2 8.5 2 .7 4 1.4 5.9 2.2 4.7 1.8 9.1 3.5 14.4 4.4 10.3 1.6 19.2.5 30.8-3.8h.2c1.1-4.3 4-7.9 6.3-10.9l5.2-6.6 1.5 3.1c2.3 4.8 3.3 10.1 2.9 15.4 5.4-.9 11-.8 16.2.6.1 0 .1.1.2.1.7-2.6 1.1-5.2 1.4-7.8-1.2-.5-2.4-1.2-3.5-1.8-6.2-4-11-10.8-13.7-19.3-11.2 1.3-21.6 7.2-31.6 13z"/><path id="XMLID_171_" class="st4" d="M266.3 313.8c0-3.8 0-7.7-.7-11.3-.3-1.6-.8-3.2-1.4-4.7-.6 1.2-1.3 2.7-2 4.3-1 2.2-2.2 4.7-3.4 7.3 2.8 3.3 5.5 7.3 7.3 10.7.2-2.1.2-4.2.2-6.3z"/><path id="XMLID_170_" class="st4" d="M238.7 347.7c-2 2.5-4.2 4.8-6.7 7.3-2.7 2.6-5.9 4.7-9.6 6.2.7 3.5 2.3 6.8 4 10.3 3.2-2.4 7-3.8 10.7-5.1 1.4-.5 2.8-1 4.2-1.6 12-5 21.3-16 24.7-28.5-7.1 7.1-17.2 11.4-27.3 11.4z"/><path id="XMLID_169_" class="st4" d="M258.4 326.5c1.5 0 3.6-.3 5.7-.7-.7-1.9-3.5-7.3-7.4-12.2-1.9 4.1-4 8.4-6 12.6 1.2 0 2.4.1 3.4.1 1.4.1 2.7.2 4.3.2z"/><path id="XMLID_168_" class="st6" d="M248.8 330.2l-4.1 8.2c-.9 1.7-1.8 3.3-2.8 4.8 8.1-.8 16.1-4.6 21.6-10.6.7-.8 1.5-1.8 2.2-2.9-3.7.8-7.2.9-7.2.9h-.8c-1.4 0-2.6-.1-3.8-.2-1.4-.1-2.7-.2-4.2-.1-.4.1-.6 0-.9-.1z"/><path id="XMLID_167_" class="st6" d="M287.3 264.1c-.8.2-1.7.4-2.6.6-1.1.3-2.1.5-2.6 1.1-.4.4-.6 1.1-.5 2 0 .9.3 1.8.6 2.8l.1.4c.9 3 1.5 6.5.1 9.8-1.4 3.2-4.4 5-7.4 6.5s-6.2 2.9-9.3 4.1c2 3.2 3.4 6.6 4.1 10.3.8 4.1.8 8.2.8 12.2 0 1.7 0 3.5-.2 5.3 10.9-16.3 16.8-35.6 16.9-55.1z"/><g><path id="XMLID_166_" class="st11" d="M112.7 229.7c.3.8 1.1 1.3 2 1.3.3 0 .5 0 .8-.2 1.1-.4 1.6-1.7 1.2-2.8l-.4-1c-1.7-4.2-2.9-7-2.8-11.4 0-1.8.9-4 1.5-4.2 2.4-1 4.7-.6 7.1 1.4 1.6 1.4 3 3.3 4.2 5 .7 1 2 1.2 2.9.6 1-.7 1.2-2 .6-3-1.4-2-2.9-4.2-5-5.9-4.6-3.9-8.8-3.3-11.5-2.1-3 1.3-4.1 5.7-4.1 8.1 0 5.2 1.4 8.7 3.2 13l.3 1.2z"/><path id="XMLID_165_" class="st11" d="M357.6 296.4c-.4-.3-.9-.6-1.3-.9-.9-.8-2.2-.6-3 .2-.8.9-.6 2.2.2 3 1.8 1.6 3.9 2.9 6 3.9.3.1.6.2.9.2.8 0 1.5-.4 1.9-1.2.5-1 .1-2.3-1-2.8 8.3-6 19.1-8.7 29.3-7.2 2 .3 3.8.7 5.3 1.3 2.9 1.1 5.7 2.9 8.6 5.6l-2.3 2.8c-.7.9-.6 2.2.3 3 .4.3.9.5 1.3.5.6 0 1.2-.3 1.7-.8l3.1-3.8c1-1.2 2-2.4 3.1-3.2 1-.7 1.2-2 .5-3s-2-1.2-3-.5c-.8.5-1.5 1.2-2.1 1.8-3.3-2.9-6.5-5-9.9-6.3-1.8-.7-3.8-1.2-6.1-1.5-11.5-1.9-24.1 1.4-33.5 8.9z"/><path id="XMLID_164_" class="st11" d="M384.4 284.7c.5 0 .9 0 1.4-.2.5-.1 1.1-.3 1.6-.6 2.5-1.3 4.1-4.2 3.8-7-.1-1.2-1.2-2-2.3-1.9-1.2.1-2 1.1-1.9 2.3.1 1.1-.5 2.3-1.5 2.8-.2.1-.4.2-.6.2-.9.2-2-.2-2.7-1.1-.6-.7-.9-1.8-.8-2.7.1-1.2-.7-2.2-1.9-2.3-1.2-.1-2.2.7-2.3 1.9-.2 2.1.4 4.2 1.7 5.8 1.3 1.8 3.4 2.8 5.5 2.8z"/><path class="st11" d="M436.2 428c-.4-7.6-2.4-13.4-6.3-18.7 3.1-10 3.3-18.9.6-26.5-.6-1.8-1.5-3.7-2.7-6-.8-1.6-1.9-3.3-3-5v-.1c6.7-19.1 10-39.2 10-59.6 0-1.4 0-2.8-.1-4.3 0-.2.1-.3.1-.5 0-.1-.1-.2-.1-.3-.5-12.9-2.7-27.3-6.5-41.9 0-.9 0-1.8-.1-2.6 0-.7-.1-1.4-.1-2.1-.1-5.5-.5-11.2-.9-16.7-.2-2.5-.5-4.9-1.2-7.2-1.3-4.1-4-7.7-7.6-10-1.4-.9-2.7-1.3-3.9-1.4l-5.8-23.8c0-.4-.1-.8-.3-1.2l-3-12.5c-.6-2.4-1.1-4.7-1.7-7-2-8.4-3.8-16.2-6.7-24.7l-.2-.7c-1.3-4-2.2-6.5-4.5-6.5-.8 0-1.6.4-2.1 1.2-4.7 7-9.3 17.6-13.8 28.2-32.7-30.5-76.2-47.2-122.7-47.2-26.4 0-52 5.7-75.4 16.4-.1 0-.1-.1-.2-.1-1-.2-2 .3-2.4 1.2-18.3 8.7-35.2 20.6-50 35.3-.1.1-.1.1-.1.2-2.8-.9-5.8-1.4-8.9-1.4-7.8 0-15.7 2.9-21.6 7.9-7.6-1-15.9 2.4-21.8 8.8-4.8 5.2-8.1 12-10.2 21-4.9 20.6-2.8 40.6 5.8 56.3l2.9 5.3 1-6c.5-2.9 3.1-6.7 6.2-9.2.1-.1.4-.3.6-.4-3.8 13.4-7.1 28.2-7.1 45.9 0 31.7 7.8 61.5 22.6 87.8-.2.8-.3 1.8-.4 2.9-.3 3.4-.8 8.1-4.2 12.6-1.1 1.5-2.4 2.8-3.8 4.2-.7.7-1.4 1.4-2.1 2.2-.7.8-1.6 1.7-2.2 2.8-.2.4-.4.8-.5 1.2-.2.2-.4.5-.5.8-2.3 7.2-1 15.9 3.7 26.4 2.6 5.7 5.6 11.7 8.6 17.6l2.3 4.6c2.9 5.8 4.6 12.2 6.1 18.9.7 3.2 1.5 6.4 3.3 9.4 1 1.6 3.4 5.5 7.2 5.5.7 0 1.3-.1 2.1-.4l3.8-1.4c11.9-4.3 24.2-8.7 36.8-11 7.1-1.3 14.7-2.4 23.4-3.3 68.2-7.4 136-.5 216.7 12.3 1.8.3 4.4.4 6.5-1.7 1.5-1.6 2.3-3.5 3.1-5.5.7-1.9 1.3-3.7 2-5.6 1.3-3.6 2.6-7.4 4.1-10.9 2.7-6.4 5.6-11.3 9-16.9 1.3-2.1 2.6-4.3 3.9-6.6l1.4-2.4c3.1-5.3 7.4-12.5 9-18.5v-.2c.2-.4.4-.7.6-1.1 1.4-2.9 1.4-5.9 1.3-7.8zm-5 6c-1.3 3.1-5 5.4-9.4 5.8-1.7.1-3.4 0-5.2-.3 1.6-3.9 3.5-7.8 5.3-11.6 2.1-4.4 4.3-8.9 6.1-13.6 2.3 4 3.5 8.3 3.8 13.9.3 2.5 0 4.3-.6 5.8zm-6.8-21.9c-1.8 4.7-4.1 9.4-6.3 13.9-2 4.1-4 8.3-5.7 12.6-1.2-.3-2.3-.6-3.5-1-6.9-2-13.7-3.9-20.4-5.7 2.8-15.2 1.4-30.7-.2-44.1-.7-6.2-1.6-12.2-3.7-17.8.9-.6 1.8-1.2 2.5-2 1.1-1.2 2.1-2.9 2.8-4.7l5.9 4.4c.5.3 1.1.8 2 1 .3.1.7.1 1 .1 1.1 0 2.8-.5 4.5-2.8 1.2-1.6 2.2-3.4 3-5.2 8.6 3 14.4 11.1 17.8 17.7 1.1 2.1 1.9 3.8 2.4 5.4 2.7 8 2 17.4-2.1 28.2zm-302.8 17.1c-.1-.1-.1-.2-.1-.2-16.4-18.1-28.5-38.8-35.9-61.3 14.5-1.2 28.4-7.1 39.4-16.8.8-.7 1.9-1.6 2.7-1.7.7 1.7 1.5 3.3 2.3 4.8 2 3.8 4.5 7.4 6.8 10.8 1.8 2.6 3.6 5.2 5.2 7.9 3.7 6.3 8 15.3 9.3 19.7.3.9.5 1.8.8 2.6-14 8.1-22.5 19.6-24.8 33.2-2 .3-3.9.6-5.7 1zm-44-99c.1 0 .1-.1.2-.1 8.4-7.9 17.6-12.6 28.8-15 2-.4 3.4-.6 4.9-.7 0 1.9.2 3.5.4 4.4 2 7.8 7.1 10.7 13.5 14.3l.2.1c-.6 2.4-.8 4.9-.6 7.4.1 1.5.5 3 .9 4.4-1.7.5-3 1.7-4 2.6-10.5 9.3-23.9 14.9-37.8 15.9a190.5 190.5 0 0 1-6.5-33.3zm65.7-99.9c.1 0 .1 0 0 0 2.1.8 3.5 2.8 5 4.9.9 1.3 1.9 2.7 3 3.8 3.2 3.2 7.4 4.8 11.4 5.8-5.2 3.3-10.6 4.4-13.2 4.1-3.1-.4-6.1-1.8-9.1-3.1l-5.9-2.7c-.2-.1-.5-.2-.7-.4 4.1-3.4 6.9-7.9 9.5-12.4zm23.7 11.2c-4.2-1-9.4-2.1-12.6-5.4-.9-.9-1.7-2.1-2.6-3.3-1.6-2.3-3.4-4.8-6.2-6.1 0-.1-.1-.1-.2-.1 2.9-5.4 5.8-10.4 10-14.2.6-.5 1.7-1.5 1.7-3 0-2.5-2.5-3.4-3.5-3.8-1.6-.6-3-1.7-3.7-3 .2-1 .5-1.9.9-2.8.3-.6.6-1.1.9-1.7l.3-.5c1.6-2.7 2.9-5.6 3.9-8.6.8-2.3-.2-3.9-1.6-4.4-.7-.3-1.5-.2-2.1 0-5.2 1.4-10.5 3-15.6 4.8-1.8-1.2-4.2-2.6-6.7-3.8 13.4-13.1 28.6-23.9 44.9-32-.6 7.4 1.2 14.8 2.9 21.5 1.7 6.9 3.5 14 6.7 20.6 2.7 5.5 6.3 10.5 9.8 15.4 4.6 6.4 8.9 12.4 11.3 19.4 1.6 4.7 2.3 9.9 3 14.9.9 6.8 1.8 13.9 5.1 20.3 4.7 9.3 13.8 15.6 21.4 20.7-1.6 2.5-3.3 5.1-5 7.5-.1 0-.1-.1-.2-.1-10.2-4.3-23-9.6-29.7-19.9-1-1.5-1.8-3-2.7-4.7-1-1.9-2.1-3.9-3.4-5.7-2.5-3.7-5.9-6.7-9.8-8.9 0-.1.1-.3.1-.4l.1-.5c1.5-6.5-2.3-18.9-5.3-22.7-.3-.4-1.4-1.7-2.9-1.7-.6 0-2.2.2-2.9 2.4-1.4 3.9-3.7 7.2-6.3 9.8zm69.6-105.7c.1.2.1.3.2.5 3.9 5 5.1 11.6 5.7 17.4.6 5.1.9 10.4.8 15.6-.1 7.5-.9 15.1-1.7 22.5-.8 7.5-1.6 15.2-1.7 22.9-.3 18.6 4.4 33.9 13.4 44.1-2.7 3.8-5.3 8.4-7 12.2h-.8c-1.3 0-1.3.1-3.7 4.1-1.1 1.9-2.7 4.5-4.5 7.5-7.4-5-15.6-10.7-19.8-19-2.9-5.7-3.8-12.1-4.7-18.9-.7-5.2-1.4-10.6-3.1-15.7-2.6-7.6-7.3-14.2-11.9-20.5-3.4-4.7-6.9-9.6-9.4-14.8-3-6.2-4.7-13.1-6.4-19.8-1.8-7.1-3.7-15.1-2.4-22.7 17.8-8.3 37-13.5 57-15.4zm100.9 19.6c13.5 7.1 26 16.1 37.2 26.7-2.2 5.1-4.4 10.4-6.6 15.1-1.4 3-2.7 5.9-4 8.9-1.2 2.7-3.2 7-5.1 11-4.3 9.3-4.8 10.4-4.9 11-3.7 2.7-10.2 7.8-11.7 9.3-.7.7-1.4 1.5-2.1 2.2-.3-.1-.6-.1-1 0-6.9 1.6-13 5.4-17.3 10.6-5 6.1-7.1 13.8-9.2 21.2-1.4 5.2-2.9 10.5-5.4 15.2-2.8 5.3-7 9.9-11.1 14.3-6.3 6.8-13.2 14.4-21.6 19.2 11-16.9 16.9-36.8 16.7-57 4.7-1 8.9-1.7 13.4-2.3 2.4-.3 4.2-1.8 4.6-3.8.3-1.6-.3-3.1-1.7-3.9-3.2-1.9-6.5-2-9.6-2.1-.6 0-1.2 0-1.8-.1-1.5-.1-2.8-.1-4.1-.1v-.4c-1.2-9.2-.6-19.5 1.8-30.5 1-4.7 2.1-8.2 3.5-11.4 1.7-3.8 3.9-7.4 6.1-10.9 9.8-15 19.7-30.7 33.9-42.2-.1 0-.1 0 0 0zm61.2 21.8c-2 1.1-4 2.1-6 3.1-.2.1-.4.2-.7.3-2.3-2.6-4.6-5.3-7-8 3.6-2.5 7.1-5 10.6-7.6 1.1 4.1 2.1 8.1 3.1 12.2zm1 4.3c.5 2.3 1.1 4.6 1.7 7l1 4.2-7.5-8.7c1.6-.9 3.2-1.7 4.8-2.5zM380.4 228c-.1 0-.1.1-.2.1-8.3-.4-16.3-1.1-21-1.6.5-1.1 1.1-2.5 1.8-3.9.1 0 .2 0 .3-.1 7.1-3.7 14.2-7.5 21.4-11.3 2.9 3.3 5.8 6.6 8.4 9.6.3.3.5.6.8.9-3.8 2.2-7.7 4.2-11.5 6.3zm14.4-2.9c.8 1 1.6 1.9 2.4 2.8-2.9.3-5.8.5-8.6.5 2.1-1.1 4.2-2.2 6.2-3.3zm5.6-28.2c-5.5 3.1-11.1 6.1-16.7 9.1-3.2-3.5-6.6-7.1-10.1-10.5.3 0 .5-.1.8-.3 5.7-3.5 11.1-6.4 16.7-9.3 3 3.6 6.1 7.2 9.3 11zm-28.8 2.7c2.8 2.8 5.6 5.7 8.2 8.5-5.3 2.8-10.6 5.6-15.8 8.3 1.5-3.3 3-6.5 4-8.6 1.2-2.8 2.4-5.5 3.6-8.2zm22.8 18.6c-2.5-2.9-5.1-5.9-7.8-8.9 5.6-3 11.1-6 16.6-9.1.4.5.9 1 1.3 1.6l3 12.2c-.2 0-.4.1-.5.1-3.7 1.9-7.4 3.8-11.2 5.7-.4-.5-.9-1.1-1.4-1.6zM382 175.7c2.1 2.3 4.1 4.6 6.1 6.9-4 2.1-7.9 4.2-11.8 6.5 1-2.3 2-4.7 3-7 .9-2.1 1.8-4.2 2.7-6.4zm-46.9 98.7c1.4 2.6 3.1 4.6 4.9 5.9 1 .7 2.1 1.3 3.3 1.6-.6 5.6-.3 11.2.9 16.7-11.9 1.7-22.4 7.8-32.7 13.7-1.7 1-3.3 1.9-5 2.9-8.9 5-17.8 7.5-28.4 7.9 8.4-5.1 15.2-12.6 21.4-19.3 4.2-4.6 8.6-9.4 11.7-15.2 2.7-5.1 4.2-10.7 5.7-16.1 2-7.3 3.9-14.2 8.4-19.6 2.7-3.3 6.3-5.9 10.4-7.6-.2.3-.4.6-.6.8-4.9 8.3-4.9 19.3 0 28.3zm26.9-24.2c.8 1.2 2.7 2.5 4.8 2.7 1.3.1 3.2-.1 5-1.9 3.2-3.2 3.8-7.9 4.1-10.7.1-.6.1-1.1.1-1.2.1-.1.3-.1.4-.1.6.4.4 2.6.3 3.6 0 .5-.1 1-.1 1.3v.5c0 2.1-.1 4.7 1.6 6.7 1 1.3 2.6 2.1 4.5 2.5 1.2.2 2.3.2 3.3 0 3.1-.7 5-2.6 5.7-5.5.6-2.4 1.1-4.9.9-7.5-.1-.7.1-1 .7-1.1.9-.3 1.9.1 2 .6-1.6 3.6-1.2 8.3 3.4 10.6 3.1 1.6 6.8-.3 8.4-3.1 1.3-2.3 1.4-4.9 1.4-7.4 0-.7 0-1.3.1-1.8.2-1 .9-1.9 1.7-2.4.5-.3 1-.4 1.5-.3 1.2.3 2.6 2.8 3.2 5.7.3 1.5-1 6.7-1.9 10.2-.4 1.6-.8 3.1-1.1 4.4-.3 1.4-1.7 8.7 1.5 14.1 1.4 2.5 3.4 4 5.8 4.5.4 2.4.2 6.4-.1 9.5l-.2 1.6c-.7 6.1-1.5 12.9-5.9 20.5-4.5 7.6-8.9 11.5-11.5 12.6-2.5 1-7.7 2.7-10.1 3.2-5 1-9.7 1-15.6.8-5.7-.2-10.8-1.7-14.7-4.2-5.8-3.7-10.2-10.2-12.4-18.5-1.5-5.7-1.9-11.8-1.3-17.6.2 0 .4 0 .6-.1 2.7-.6 5.1-2.5 6.7-5.2 1.4-2.3 2-5 2.5-7.2 1-4.8 1.2-8.8 1.4-13 .1-2.7.2-5.4.6-8.4.3-2.4 2-6.9 3.5-8.8 0 .5-.2 1.1-.4 1.8l-.1.4c-.4 1.3-.7 2.7-.9 4-.3 1.1-.4 2.8.6 4.2zm57.3 54.5c3.9 0 7.9 1.1 11.3 3.3 0 1.3.1 2.6.1 3.9 0 10-.8 19.8-2.4 29.5-2.4-.5-4.2-.4-6.1-.3-1 .1-2.1.1-3.3.1-7-.1-13.8-1.5-20.3-4.1-.1-.1-.2-.1-.3-.1-.2-.3-.4-.5-.6-.7.2-2.7.4-5.4.8-8 .2-1.6.5-3.1 1.1-4.4 1.4-.5 2.8-1 3.7-1.4 4.2-1.7 9.2-7.1 13.5-14.3.7-1.3 1.4-2.5 1.9-3.7.2.1.4.2.6.2zm-14.9 47c-.3 4.3-1.9 8.5-4.5 12-.5.7-.9 1-1.1 1-.1-.1-.3-.2-.4-.3l-13.1-9.8c-1-.7-2.1-1.6-3.4-2.1 7.2.4 14.6.1 22-.9l.4-.1h.2c-.1.1-.1.1-.1.2zm-20.3 13.5c-.6.7-1.4 1.3-2.5 1.8-2.7 1.4-5.7 1.5-7.9.3-2-1.1-3.4-5.3-2.6-7.6 1.8-1.1 3.6-2.2 5.3-3.4.6-.4 2.3-.4 3.6 0 .9.3 1.8 1 2.8 1.7l3.6 2.7c-.3 1.4-1.2 3.3-2.3 4.5zm-56.3 23.3c-1-.4-1.8-1-2.2-1.6-.5-.8-.6-2-.6-3.1-.1-3.3.2-4.7.8-8.1.1-.3.2-.6.4-1 .8-2 2.4-6-1-8.4-.6-.4-1.3-.7-2.1-.7-2 0-3.8 1.6-5.3 3.1-.6.7-1.1 1.6-1.6 2.5-.8 1.4-1.6 3.1-3.2 4.1l-.4.3c-1.2.8-3.2 2-5.1.9-1.2-.7-1.5-4.1-.8-5.8 1.1-2.7 4.2-6.2 6.5-7.7 1.3-.8 2.6-1.6 3.9-1.9.8-.2 1.7-.3 2.3-.4 1.7-.1 3.5-.1 5.2-.1 1.5 0 2.9.1 4.4 0 4.3-.2 7.7-1.1 10.3-2.9l.7-.5c.8-.6 3.3-2.3 4.1-2.3h1.1c.1.1.2.5.3 1.4.2 2.4-.6 3.7-3.4 5.6-.2.2-.5.3-.8.5-.4.2-.8.5-1.2.8-2.9 2.1-3.9 5.6-4.3 8.1-.2 1.5-.3 3-.3 4.4 0 1.1-.1 2.3-.2 3.4-.2 1.7-.6 3.3-1.2 4.9-.6 1.5-1.2 2.6-2 3.4-.8.8-1.8 1.4-2.7 1.4l-.2 2.1v-2.1c-.3 0-.8-.1-1.4-.3zm-23.3-8.9c.3.2.5.5.9.7.9.5 1.9.8 3 .9-.5 1.4-.9 2.9-1.2 4.2-.9-1.8-1.8-3.7-2.7-5.8zm44.9-29.2c-.8.2-1.5.4-2.2.8-.6-.3-1.3-.4-2.2-.4h-.7c-2 0-4.3 1.5-6.6 3.1l-.7.5c-1.9 1.3-4.6 2-8.1 2.2-1.4.1-2.8 0-4.2 0-1.9 0-3.7-.1-5.6.1-.9.1-2 .2-3.2.5-1.9.5-3.5 1.5-4.9 2.4-3 1.9-6.7 6.2-8.2 9.6-.5 1.3-.8 2.9-.7 4.6-.9-2.2-1.7-4.4-2.5-6.5-1.9-5-3.6-9.3-4.9-12-4.3-8.9-9.9-15-14.5-19.9-1.2-1.3-2.3-2.5-3.2-3.6l4.8 1.8c4.7 1.8 9.5 3.7 15.2 4.6 3.2.5 6.3.8 9.4.8 6.9 0 13.8-1.4 21.7-4.2.2 2.3.9 4.3 2.3 5.9 1.5 1.7 3.7 2.8 5.9 2.8 1.1 0 2.1-.2 3-.7 2.2-1.1 3.7-3.4 4.5-6.9 0-.1 0-.2.1-.3 5.2-1.1 10.7-1 15.8.3-.7 2.1-1.5 4.1-2.5 6-.8-.2-1.5-.3-2.1-.4-2.9-.1-5 6-5.7 8.9zm-123 21c-1.8-3.4-3.3-6.8-4-10.3 3.7-1.5 6.9-3.6 9.6-6.2 2.5-2.4 4.7-4.8 6.7-7.3 10.1 0 20.2-4.3 27.3-11.5-3.3 12.5-12.7 23.6-24.7 28.5-1.4.6-2.8 1.1-4.2 1.6-3.7 1.4-7.5 2.8-10.7 5.2zm55.9-100.5l-.1-.4c-.3-1-.6-1.9-.6-2.8 0-.8.1-1.6.5-2 .5-.5 1.5-.8 2.6-1.1.9-.2 1.7-.4 2.6-.6 0 19.5-6 38.8-16.9 55 .1-1.8.2-3.5.2-5.3 0-4 0-8.1-.8-12.2-.7-3.7-2.1-7.1-4.1-10.3 3.2-1.2 6.3-2.6 9.3-4.1 3-1.5 6-3.3 7.4-6.5 1.4-3.2.8-6.7-.1-9.7zm62.9 31.9c2.7 8.5 7.5 15.3 13.7 19.3 1.1.7 2.2 1.3 3.5 1.8-.3 2.6-.7 5.3-1.4 7.8-.1 0-.1-.1-.2-.1-5.3-1.3-10.9-1.5-16.2-.6.4-5.3-.6-10.6-2.9-15.4l-1.5-3.1-5.2 6.6c-2.3 3-5.1 6.6-6.3 10.9h-.2c-11.6 4.3-20.5 5.4-30.8 3.8-5.3-.8-9.7-2.5-14.4-4.4-1.9-.7-3.9-1.5-5.9-2.2 11.7-.3 21.4-2.9 31.2-8.5 1.7-.9 3.3-1.9 5-2.9 10-5.6 20.4-11.5 31.6-13zm-5.5 32c-.5 2.2-1.3 3.6-2.3 4.1-1.1.6-2.8.1-3.8-1-1-1.2-1.5-3-1.2-5 .4-3.8 2.8-7.1 5.8-10.9l.9-1.1c1.4 4.4 1.7 9.2.6 13.9zm-77.6-32.7c.8-1.6 1.5-3.1 2-4.3.6 1.5 1.1 3.1 1.4 4.7.7 3.7.7 7.6.7 11.3 0 2.1 0 4.3-.3 6.3-1.9-3.4-4.5-7.4-7.3-10.7 1.3-2.7 2.5-5.2 3.5-7.3zm-5.4 11.5c3.9 4.9 6.7 10.3 7.4 12.2-2 .4-4.1.6-5.7.7-1.5 0-2.8-.1-4.2-.1-1.1-.1-2.2-.1-3.4-.1 1.9-4.3 4-8.6 5.9-12.7zm-7.9 16.6c.3.1.6.2.9.2 1.5 0 2.8 0 4.2.1 1.2.1 2.4.2 3.8.2h.8c.1 0 3.5-.2 7.2-.9-.6 1.1-1.5 2.1-2.2 2.9-5.6 6-13.5 9.8-21.6 10.6 1-1.5 1.9-3.1 2.8-4.8 1.2-2.5 2.6-5.3 4.1-8.3zm104.5 22.1c.3-2.1 1.7-5.3 2.5-6.6 1.8.4 4.5 1.3 7.3 2.3 4.1 1.5 8.7 3.1 13 3.9-.7.2-1.4.4-1.9.8-5 3.3-10.2 6.8-15.9 8.5-.5.1-.9.2-1.5.2-.2 0-.7-.3-1.4-1.3-1.7-2.3-2.5-5.2-2.1-7.8zM379 348c-4.4-.4-9.8-2.3-14.5-4-1.1-.4-2.1-.8-3.1-1.1 2.6-5.5 4.4-11.5 5.1-17.6 2.9.9 6 1.4 9.3 1.5 1.9.1 3.6.1 5.3.1 3.9 0 7.5-.2 11.3-1 .6-.1 1.4-.3 2.3-.5-.2.8-.3 1.6-.4 2.3-.7 5.5-1 11-1 16.6 0 1.3.1 2.6.4 3.8-5 .4-9.9.3-14.7-.1zm-82.7-92.7c.6 0 1.2 0 1.8.1 2.7.1 4.8.1 6.9 1.1-.1.1-.4.1-.6.2-6.6.8-12.6 1.9-20.6 3.9-1.7.4-3.5.9-4.8 2.4-1.1 1.3-1.7 3-1.6 5 .1 1.4.4 2.6.8 3.8l.1.4c.6 2.3 1.2 4.9.3 6.9-.9 2-3.3 3.4-5.5 4.5-3.2 1.6-6.5 3.1-9.9 4.3-1.8-3.1-4.4-6.8-7.7-9.7-1.7-1.5-3.4-2.7-5.1-3.9-.2-.1-.4-.3-.6-.4 2.4-5.3 6.1-11.9 9.6-15.6.3-.3.8-.8 1-.9.8-.2 3.2.9 3.8 1.6l.7.8h1c2.1-.1 4.1-.6 6.1-1.2 1-.3 1.9-.5 2.9-.7 10.7-2.4 13.6-2.9 21.4-2.6zm-115.4 9.5c.9-1.4 1.7-3.6 2.4-6.1 2.9 1.8 5.4 4.2 7.4 7 1.1 1.7 2.1 3.4 3.1 5.3.9 1.7 1.8 3.4 2.9 5 7.3 11.1 20.2 16.7 30.8 21.2-1 1.3-1.9 2.4-2.8 3.4-3.5 3.7-8.1 8.1-13.9 9.2-1.4.3-3 .3-4.6.2v-.2l-7.7-17.8c-1.1-2.5-2.2-5.1-3.5-7.6-3.8-7.2-9-13.3-14.1-19.3-.1-.1-.1-.2 0-.3zM130.5 292c3.4-1.5 7.3-2.3 11.6-2.3 6.9 0 14.7 2 22.1 5.5 4.4 2.1 8.6 4.6 12.8 7 6 3.5 12.2 7.1 18.8 9.6 6.2 2.4 11.2 3 15.7 2.2 6.9-1.3 12.3-6.3 16.2-10.5 6-6.5 13.9-19.8 17.7-26.2.2-.4.4-.7.6-1 .6.5 1.3.9 1.9 1.4 1.6 1.1 3.2 2.2 4.7 3.6 5.1 4.6 8 10.6 8.8 12.6-.6 1.1-1.5 3-3.1 6.5-4.6 9.9-12.4 26.5-17.4 36.2-3.1 6-7 10.5-11.9 15.4s-12.3 7.7-20.7 7.9h-.4c-4.6 0-14.6-1.6-17.8-3.1-6-2.8-10.7-5.4-15.2-8-8.1-4.6-15.2-8.5-27-11.9l-2.2-.6c-6.1-1.7-12.4-3.5-17.9-6.6l-.3-.2c-6-3.3-9.9-5.6-11.5-11.6-.7-2.8-.3-11.2.9-13.2 3.8-6.2 6.8-9.7 13.6-12.7zm22.6 107.2c.6 2.2 1.1 4.5 1.3 7 .4 5.1-.3 10.3-.9 15.4-.2 1.2-.3 2.5-.5 3.8v.2c-7.2.4-14.3 1-21.5 2 2.9-14.2 12.8-23.1 21.6-28.4zm76.1-22.1c-.3-.6-.6-1.1-.8-1.7 2.8-2.3 6.3-3.7 10.1-5.1 1.5-.5 3-1.1 4.4-1.7 12.7-5.3 22.7-16.7 26.7-29.9.4 11.4-.7 24.2-4.2 32.4-.9 2.3-2 4.5-3.1 6.7-1.8 3.8-3.8 7.8-5 12.1-3 10-2.4 23.7 3.3 31.9-9 .1-18 .2-27 .4 3-16.9 1.4-32.5-4.4-45.1zm36.9 44.7c-.1-.1-.1-.2-.2-.3-6.5-6.2-7.4-20.5-4.5-30.3 1.2-3.9 2.9-7.6 4.8-11.4 1.1-2.3 2.2-4.6 3.2-7 4.2-10.1 5.2-25.5 4.3-38.3 1 1.2 2.2 2.4 3.3 3.7 4.5 5 9.7 10.6 13.8 18.9 1.3 2.6 3 7 4.8 11.7 3.4 8.9 7.3 19.1 10.8 23.6 0 2.9.3 5.7.5 8.5.2 1.9.4 3.9.7 5.8.4 2.5 1 5 1.5 7.4l1.8 7.9h-1.2c-14.4-.2-29-.3-43.6-.2zm49.3.3l-2.1-9c-.5-2.3-1.1-4.7-1.5-7.1-.3-1.8-.5-3.7-.6-5.6-.3-3.5-.7-7.1-.4-10.6.2-3 1.1-7.1 2.8-9.9.6-.3 1.1-.6 1.5-.9l.3-.2c2.5-1.6 3.7-3.9 4.6-5.6.3-.6.7-1.3.9-1.6 1.1-1.2 1.8-1.6 2-1.8.3.6-.2 1.9-.7 3.1-.3.7-.5 1.3-.6 1.7-.7 3.5-1.1 5.4-.9 9.1.1 1.7.3 3.5 1.2 5.2.9 1.5 2.5 2.7 4.4 3.4 1 .4 2.1.6 3 .6h.4c2-.1 4-1.1 5.6-2.7 1.2-1.2 2.1-2.8 2.9-4.8.7-1.9 1.2-3.9 1.5-6 .1-1.2.2-2.5.2-3.7 0-1.4.1-2.7.3-3.9.2-1.4.8-4 2.6-5.3l.9-.6c.3-.2.7-.4 1-.6 2.4-1.7 4.6-3.7 5.1-7.1.5 1.4 1.1 2.9 2 4.2 1.2 1.8 2.5 2.8 4.1 3.1 1.2.3 2.5 0 3.6-.3 2.6-.8 5-1.9 7.3-3.1.2 2.2 1 4.5 2.3 6.3l-.5.7c-.9 1.2-1.8 2.5-2.6 3.8-5.6 8.5-9.9 17.7-12.7 27.4-1.2 4.3-2.2 8.6-3.1 12.8l-2.3 10.8c-10.7-1.1-21.6-1.5-32.5-1.8zm38.9-8.1c.9-4.1 1.8-8.4 3-12.5 2.7-9.3 6.8-18.2 12.1-26.3.8-1.2 1.7-2.4 2.5-3.6l.3-.4c1.5.7 3.2 1.1 4.9 1.1 1.2 0 2.4-.2 3.6-.5 1.8 5.2 2.7 10.8 3.4 16.6 1.5 13 2.9 28.1.3 42.5-2.8-.7-5.5-1.4-8.2-2.1-8-2-16-3.4-24.1-4.4l2.2-10.4zm67.5-46.6c-3.6-4.4-8.3-8.4-14.1-10.4.4-1.6.8-3.3.9-5 .1-.7.2-2.3-.9-3.6-.5-.6-1.4-1.2-2.8-1.2-.4 0-.8.1-1.2.1h-.3c-1.8.2-3.6.4-5.3.6-.5-.9-.6-2.2-.6-3.6 0-1 .1-2.1.1-3.1 6.8 2.7 14 4.1 21.3 4.2 1.4 0 2.5-.1 3.6-.1 1.8-.1 3.2-.2 5.1.2-1.5 7.5-3.4 14.8-5.8 21.9zm8.6-64.3c-3.1-1.5-6.6-2.4-10.1-2.5 1.8-5.3 2.4-10.2 2.9-14.4l.2-1.5c.2-2.1.7-6.9.1-10.4.9-.4 1.7-1 2.3-1.6 2.5 10.5 4 20.8 4.6 30.4zm-8.4-65.4c.6 1.9.8 4 1 6.3.5 5.5.8 11 .9 16.5 0 .8.1 1.5.1 2.3.2 2.6.3 4.5-1 6.8-.3.3-1.4 1-1.7 1-2.7.2-3.6-1.6-4.3-2.7-1.9-3.3-1.5-8.5-.9-11 .3-1.3.6-2.7 1-4.3 1.5-5.8 2.4-9.8 1.9-12-.3-1.3-1.8-7.8-6.3-8.9-1.6-.4-3.2-.1-4.7.7-1.7 1-3.1 2.9-3.6 5-.3 1-.2 2-.2 2.9 0 2 0 3.8-.8 5.2-.6 1.1-2.1 1.9-2.8 1.5-2.8-1.4-2-4.1-1.5-5.2.8-1.8.5-3.7-.9-5-1.7-1.7-4.7-2.1-7-1-2 1-3.1 2.9-2.9 5.3.2 1.9-.3 4-.8 6.2-.3 1.3-1 2-2.5 2.3-.4.1-1 .1-1.6 0-.9-.2-1.6-.5-2-1-.7-.8-.6-2.4-.6-3.9v-.5c0-.3 0-.6.1-1 .2-2.1.5-5.6-2.1-7.5-1.1-.7-2.5-1-3.8-.6-1.3.4-2.3 1.2-2.8 2.4-.3.6-.4 1.4-.5 2.5-.3 2.3-.7 6.1-2.9 8.2-.7.7-1.3.7-1.6.7-.8-.1-1.5-.6-1.7-.9-.1-.1-.2-.4 0-1.4.2-1.1.4-2.2.8-3.3l.1-.4c.4-1.1.8-2.4.6-4-.2-1.3-1-2.5-2-3.2-.9-.6-2-.8-3-.5-1 .3-1.6.9-2 1.4-2.3 2.5-4.4 8.1-4.8 11.4-.4 3.2-.5 6-.6 8.8-.2 4-.3 7.8-1.3 12.2-.4 2-1 4.2-2 6-1 1.7-2.5 2.9-4 3.2-.3.1-.7.1-1.1.1-.1 0-.2-.1-.3-.1h-.4c-1-.1-2.1-.5-3-1.2-1.3-1-2.6-2.5-3.7-4.5-4.2-7.6-4.2-17 .1-24 1.8-2.9 4.2-5.4 6.6-7.9 1.6-1.6 10-8.2 12.4-9.7 5.6.5 17.2 1.6 28.2 1.9h2c4.5 0 9.1-.4 13.2-.9.1 0 .3.1.4.1.3 0 .6-.1.9-.2 5-.7 9.1-1.5 10.8-1.8l1.8-.4c.3.1.6.3.9.5 2.8 1.6 4.9 4.4 5.9 7.6zm-19.6-10.4c-1.2-1.3-2.5-2.7-3.7-4.2 3.3-1.7 6.6-3.4 9.8-5l1.9 8c-2.4.4-5.1.9-8 1.2zm-10.1-72.7c.3.7.5 1.4.6 1.8l.3.8c.4 1.2.8 2.4 1.1 3.6-2.7 2-5.5 4-8.2 6 2-4.5 4.1-8.7 6.2-12.2zm-58.9-1.3c-13.9 11.7-23.7 27.2-33.1 42.2-2.3 3.6-4.7 7.4-6.4 11.5-1.5 3.4-2.7 7.2-3.7 12.2-2.5 11.5-3.2 22.2-1.9 31.9-3.8.3-7.6 1-14.3 2.4-1.1.2-2.1.5-3.2.8-1.5.4-2.9.8-4.2 1-1.9-1.5-5.2-2.8-7.5-2.1-1.3.4-2.2 1.3-2.8 2l-.1.1c-.1 0-.2-.1-.4-.1-9.9-11.8-11.8-28.4-11.7-40.4.1-7.5.9-15.1 1.7-22.5.8-7.5 1.6-15.2 1.7-22.9.1-5.4-.2-10.8-.8-16.1-.7-5.8-1.9-12.3-5.4-17.8 4.1-.3 8.2-.5 12.3-.5 28.5 0 55.6 6.3 79.8 18.3zm-207.8 34.9c2.9 1.1 6.3 2.9 9.7 5.2l.9.6 1-.4c4.7-1.7 9.5-3.2 14.3-4.6-.8 2.2-1.8 4.3-3 6.3l-.3.5c-.4.7-.8 1.3-1.1 2-.7 1.5-1.2 3-1.4 4.7l-.1.6.2.5c1.1 2.7 3.5 4.9 6.5 5.9-4.7 4.3-7.8 9.9-10.8 15.4-3.4 6.3-6.7 12.2-12.1 15.9l-1.6 1.1 1 1.7c1.1 1.9 3.3 3 4 3.3l5.9 2.7c3.1 1.4 6.6 3 10.3 3.5.4.1.9.1 1.4.1 6.3 0 20.5-4.6 26.2-18.7 2 3.8 4.8 13 3.7 17.9l-.1.6c-.5 2.3-1.7 7.7-2.9 9.5-1.3 2-3.4 3.8-6.3 5.4-5.9 3.4-13.2 5.1-21.7 5.1h-2c-8.4-.3-16.8-2.1-25-3.9l-2.1-.5-.4 2.1c-.2 1.2-2.1 2.5-4.5 3.2-.3.1-.9.2-1.7.2-1.5 0-4.6-.4-8.2-3.1-1.2-.9-2.6-5.9-2.4-7.1.1-.3.2-.6.3-1 .1-.6.4-1.6.7-1.8l4-.9-3.1-2.7C94.5 248.3 89.7 237.1 89 233c-2.9-17.1-.5-30.6 7-37.9 5.4-5.3 13.1-8.5 20.7-8.5 3.1 0 6.1.5 8.9 1.6zm-49.3 74.9c-2.4 1.9-4.5 4.4-5.9 6.9-6.3-14.1-7.5-31.3-3.3-49 1.9-8.2 5-14.5 9.2-19.1 4.1-4.4 9.5-7.1 14.7-7.5-6.9 8.7-9.1 22.4-6.2 39.3.9 5 5.8 16 15.4 25.3-.6.9-.9 2-1.1 2.9-1.8-1-3.8-1.8-5.4-2.2-2.4-.6-4.9-1.2-7.6-.9-3.9.6-8.3 3.2-9.8 4.3zm8.4.5c.7-.2 1.3-.4 2-.5 1.9-.2 3.9.2 6 .8 2.3.6 5.3 2 6.5 3.4.6 2.8 1.9 5.9 3.7 7.2 4.6 3.4 8.7 3.9 10.7 3.9 1 0 2-.1 2.9-.4.1 0 .2-.1.3-.1.5 5.4 1.5 10.8 3 16-2.4 2.3-4.3 5-6.3 8.3-1 1.6-1.5 4.7-1.7 7.8-2 0-3.6.3-5.9.8-11 2.3-20.2 6.8-28.6 14-.3-4.3-.5-8.7-.5-13-.1-18.7 3.8-34.2 7.9-48.2zm1.4 163c.4-.7 1-1.3 1.6-2 .7-.7 1.3-1.4 2-2.1 1.4-1.4 2.9-2.9 4.2-4.6 3.2-4.3 4.2-8.6 4.7-12.1 5.3 8.6 11.4 16.7 18.3 24.5-4.5 1.1-8.9 2.4-13.3 4-6.4 2.4-14.6-.6-16.6-2.4-1.4-1.3-1.8-3.7-.9-5.3zm335.7 26.7l-1.4 2.4c-1.3 2.3-2.6 4.5-3.9 6.5-3.3 5.5-6.5 10.7-9.3 17.5-1.5 3.7-2.9 7.5-4.2 11.2-.7 1.9-1.3 3.7-2 5.6-.6 1.6-1.2 3-2.1 4-.5.5-1.2.8-2.8.5-81-12.8-149.1-19.8-217.8-12.3-8.8 1-16.5 2.1-23.7 3.4-12.9 2.3-25.4 6.9-37.5 11.2l-3.8 1.4c-.9.3-2 .1-4.2-3.4-1.5-2.3-2.1-5.2-2.9-8.3-1.6-6.8-3.3-13.4-6.4-19.7l-2.3-4.6c-2.9-5.8-5.9-11.8-8.5-17.4-2.7-6-4.2-11.3-4.4-15.9 3.4 2.7 12.8 5.8 20.5 2.9 17.7-6.7 37.3-7.8 56.3-8.8l4.4-.2c47.7-2.7 96.2-3.7 143.9-2.8 22.4.4 44.3 1.2 65.4 6.6 10.5 2.7 21.5 5.7 32.7 8.9 3.8 1.1 8.1 2.3 12.5 2.3.6 0 1.2 0 1.9-.1 2-.2 3.8-.7 5.5-1.4-1.9 3.6-4.1 7.5-5.9 10.5z"/><path id="XMLID_110_" class="st11" d="M368 267.4c1.2 0 2.1-.9 2.1-2.1v-2.6c0-1.2-.9-2.1-2.1-2.1-1.2 0-2.1.9-2.1 2.1v2.6c0 1.2 1 2.1 2.1 2.1z"/><path id="XMLID_109_" class="st11" d="M402.2 268.6h.2c1.1 0 2-.8 2.1-1.9l.3-2.8c.1-1.2-.7-2.2-1.9-2.3-1.1-.1-2.2.7-2.3 1.9l-.3 2.8c-.1 1.1.7 2.2 1.9 2.3z"/><path id="XMLID_108_" class="st11" d="M140.5 470.4c-1.1 1.5-4.7 1.5-6 .9-4.1-1.6-5.3-6.8-5.2-11.1.2-5.4 2.1-9.4 5.5-11.9.9-.7 3.1-1.2 5.1 0 1 .6 2.3.2 2.9-.8.6-1 .2-2.3-.8-2.9-3.6-2-7.6-1.3-9.7.3-4.4 3.3-6.9 8.5-7.2 15.1-.2 5.8 1.7 12.9 7.9 15.3.9.3 2.3.6 3.8.6 2.5 0 5.4-.7 7.1-2.9.7-.9.6-2.3-.4-3-1-.6-2.3-.5-3 .4z"/><path class="st11" d="M184 441.3c-1.1-.4-2.4-.6-3.6-.6-4 0-7.5 2-9.5 5.4l-.2.4c-2.3 6.5-2.4 11.8-.4 17.2.6 1.7 1.7 3.4 3.1 5.2 1.3 1.6 3.3 3.8 6.1 4.5.6.2 1.3.2 1.9.2 2.7 0 5.5-1.3 7.4-3.6 1.7-2 2.9-4.7 3.6-8.3.9-4.4.8-8.2-.3-11.5-1.3-4.3-4.3-7.6-8.1-8.9zm4.3 19.6c-.6 2.9-1.4 4.9-2.7 6.4-1.4 1.6-3.4 2.4-5.1 2-1.2-.3-2.4-1.3-3.8-3-1.2-1.5-2-2.8-2.4-4.1-1.6-4.3-1.5-8.6.3-14.1 1.8-2.8 4.6-3.1 5.8-3.1.8 0 1.6.1 2.2.4 2.5.9 4.6 3.2 5.5 6.2.9 2.5.9 5.6.2 9.3z"/><path id="XMLID_105_" class="st11" d="M246.8 445.1l-1.4-5.1-2.5 4.7c-1.4 2.6-2.5 5.4-3.5 8.1-1.1 2.8-2.1 5.5-3.5 7.9-1.5-2.4-2.7-4.9-4-7.5-1.3-2.7-2.6-5.4-4.3-8.3l-2.2-3.6-2.9 7.1c-2.7 6.5-5.3 12.7-6.8 19.4-.3 1.1.5 2.3 1.6 2.5.2 0 .3.1.5.1 1 0 1.9-.7 2.1-1.7 1.3-6.1 3.7-11.8 6.2-17.9.7 1.4 1.4 2.8 2 4.2 1.8 3.8 3.6 7.5 6.3 10.9l1.8 2.2 1.6-2.3c2.5-3.6 4.1-7.6 5.6-11.4.3-.9.7-1.7 1-2.5 1.6 5.4 3.3 10.7 5.2 15.9.4 1.1 1.6 1.7 2.7 1.3 1.1-.4 1.7-1.6 1.3-2.7-2.6-7.1-4.9-14.2-6.8-21.3z"/><path id="XMLID_104_" class="st11" d="M287.9 446.8c1.2.1 2.2-.8 2.3-1.9.1-1.2-.8-2.2-1.9-2.3-3.6-.3-7.8-.6-11.6.2l-1.7.4v1.8c.1 7.7.1 15.6.1 23.5v2.3l2.3-.1c2.6-.2 7.3-.2 9.4.2.2 0 .3.1.5.1 1 0 1.9-.7 2.1-1.7.3-1.1-.5-2.3-1.6-2.5-2.2-.5-5.9-.5-8.3-.4V459c2.7-.2 5.3-.1 8 .2h.3c1 0 2-.8 2.1-1.8.2-1.2-.7-2.2-1.8-2.4-2.8-.4-5.7-.5-8.6-.2 0-2.6 0-5.3-.1-7.9 2.7-.5 5.8-.3 8.5-.1z"/><path class="st11" d="M322.6 444.7h-2l-.1 2c-.5 7.2-1.4 14.4-2.8 21.5h-.4v2.1c0 .5.2.9.4 1.3v.8h1c.3.1.7.2 1 .2l2-.1v-.1c5.8-.1 13.6-1 17.2-6.8.8-1.2 1.3-2.4 1.5-3.6.2-1.1.2-2.3 0-3.7-1.3-7.9-8.6-13.6-17.8-13.6zm13.6 16.4c-.1.7-.4 1.4-.9 2.2-1.9 3.1-6.2 4.6-13.3 4.8 1.2-6.3 2.1-12.7 2.6-19.1 5.3.6 10.7 4 11.6 9.8.1 1 .1 1.7 0 2.3z"/><path id="XMLID_101_" class="st11" d="M384.3 453.6l-10.6 8.4-6.3-10.5c-.6-1-1.9-1.3-2.9-.7-1 .6-1.3 1.9-.7 2.9l6.8 11.3c.1.2.2.4.4.6-.2 1.9-.7 3.6-1.4 5.5-.6 1.9-1.4 4.1-1.7 6.6-.2 1.2.7 2.2 1.8 2.4h.3c1 0 2-.8 2.1-1.8.3-2.2.9-4.1 1.5-5.9.6-1.9 1.3-3.9 1.5-6.2.3-.1.5-.3.8-.5l11-8.7c.9-.7 1.1-2.1.4-3-.7-.9-2-1.1-3-.4z"/></g><g><path class="st12" d="M74.9 582.1h1.9v13.2h6.3v1.6h-8.3v-14.8zM94.5 591.5c0 3.9-2.7 5.7-5.3 5.7-2.9 0-5.1-2.1-5.1-5.5 0-3.6 2.3-5.7 5.3-5.7 3.1 0 5.1 2.2 5.1 5.5zm-8.4.1c0 2.3 1.3 4.1 3.2 4.1 1.8 0 3.2-1.7 3.2-4.1 0-1.8-.9-4.1-3.2-4.1-2.2 0-3.2 2.1-3.2 4.1zM97 589.6c0-1.3 0-2.3-.1-3.3h1.7l.1 2.1h.1c.5-1.4 1.7-2.3 3-2.3.2 0 .4 0 .5.1v1.8c-.2 0-.4-.1-.7-.1-1.4 0-2.3 1-2.6 2.5 0 .3-.1.6-.1.9v5.7H97v-7.4zM105 591.9c0 2.6 1.7 3.7 3.7 3.7 1.4 0 2.2-.2 3-.6l.3 1.4c-.7.3-1.8.7-3.5.7-3.3 0-5.2-2.2-5.2-5.4s1.9-5.7 5-5.7c3.5 0 4.4 3.1 4.4 5 0 .4 0 .7-.1.9H105zm5.7-1.4c0-1.2-.5-3.1-2.7-3.1-2 0-2.8 1.8-3 3.1h5.7zM115 589.1c0-1.1 0-2-.1-2.9h1.7l.1 1.7h.1c.6-1 1.6-2 3.3-2 1.5 0 2.6.9 3 2.1.3-.6.7-1.1 1.2-1.4.6-.5 1.3-.7 2.4-.7 1.4 0 3.5.9 3.5 4.6v6.3h-1.9v-6c0-2-.7-3.3-2.3-3.3-1.1 0-2 .8-2.3 1.8-.1.3-.2.6-.2 1v6.6h-1.9v-6.4c0-1.7-.7-2.9-2.2-2.9-1.2 0-2.1 1-2.4 1.9-.1.3-.2.6-.2.9v6.4H115v-7.7zM140.1 583.3c0 .7-.5 1.2-1.2 1.2s-1.2-.5-1.2-1.2.5-1.2 1.2-1.2c.8-.1 1.2.5 1.2 1.2zm-2.1 13.6v-10.7h1.9v10.7H138zM143.1 589.7c0-1.4 0-2.5-.1-3.5h1.7l.1 1.8c.8-1.3 2-2.1 3.8-2.1 2.6 0 4.5 2.2 4.5 5.4 0 3.8-2.3 5.7-4.8 5.7-1.4 0-2.6-.6-3.3-1.7v5.8h-1.9v-11.4zm1.9 2.9c0 .3 0 .6.1.8.4 1.3 1.5 2.3 2.9 2.3 2 0 3.2-1.7 3.2-4.1 0-2.1-1.1-4-3.2-4-1.3 0-2.6.9-2.9 2.4-.1.2-.1.5-.1.8v1.8zM155.4 594.9c.6.4 1.6.8 2.6.8 1.4 0 2.1-.7 2.1-1.6 0-.9-.5-1.4-2-2-1.9-.7-2.8-1.7-2.8-3 0-1.7 1.4-3.1 3.7-3.1 1.1 0 2 .3 2.6.7l-.5 1.4c-.4-.3-1.2-.6-2.2-.6-1.1 0-1.8.7-1.8 1.5 0 .9.6 1.3 2 1.8 1.8.7 2.8 1.6 2.8 3.2 0 1.9-1.5 3.2-4 3.2-1.2 0-2.2-.3-3-.7l.5-1.6zM173.3 594c0 1.1 0 2.1.1 2.9h-1.7l-.1-1.7c-.5.9-1.6 2-3.5 2-1.7 0-3.7-.9-3.7-4.7v-6.2h1.9v5.9c0 2 .6 3.4 2.4 3.4 1.3 0 2.2-.9 2.6-1.8.1-.3.2-.6.2-1v-6.5h1.9v7.7zM176.5 589.1c0-1.1 0-2-.1-2.9h1.7l.1 1.7h.1c.6-1 1.6-2 3.3-2 1.5 0 2.6.9 3 2.1.3-.6.7-1.1 1.2-1.4.6-.5 1.3-.7 2.4-.7 1.4 0 3.5.9 3.5 4.6v6.3h-1.9v-6c0-2-.7-3.3-2.3-3.3-1.1 0-2 .8-2.3 1.8-.1.3-.2.6-.2 1v6.6h-1.9v-6.4c0-1.7-.7-2.9-2.2-2.9-1.2 0-2.1 1-2.4 1.9-.1.3-.2.6-.2.9v6.4h-1.9v-7.7zM208.7 581.3v12.9c0 .9 0 2 .1 2.8H207l-.1-1.8c-.6 1.2-1.9 2.1-3.6 2.1-2.6 0-4.6-2.2-4.6-5.4 0-3.5 2.2-5.7 4.8-5.7 1.6 0 2.7.8 3.2 1.6v-6.4h2zm-2 9.3c0-.2 0-.6-.1-.8-.3-1.2-1.3-2.2-2.8-2.2-2 0-3.2 1.8-3.2 4.1 0 2.2 1.1 3.9 3.1 3.9 1.3 0 2.5-.9 2.8-2.3.1-.3.1-.5.1-.8v-1.9zM221.5 591.5c0 3.9-2.7 5.7-5.3 5.7-2.9 0-5.1-2.1-5.1-5.5 0-3.6 2.3-5.7 5.3-5.7 3.1 0 5.1 2.2 5.1 5.5zm-8.4.1c0 2.3 1.3 4.1 3.2 4.1 1.8 0 3.2-1.7 3.2-4.1 0-1.8-.9-4.1-3.2-4.1-2.2 0-3.2 2.1-3.2 4.1zM224 581.3h1.9v15.6H224v-15.6zM238.8 591.5c0 3.9-2.7 5.7-5.3 5.7-2.9 0-5.1-2.1-5.1-5.5 0-3.6 2.3-5.7 5.3-5.7s5.1 2.2 5.1 5.5zm-8.5.1c0 2.3 1.3 4.1 3.2 4.1 1.8 0 3.2-1.7 3.2-4.1 0-1.8-.9-4.1-3.2-4.1-2.2 0-3.2 2.1-3.2 4.1zM241.2 589.6c0-1.3 0-2.3-.1-3.3h1.7l.1 2.1h.1c.5-1.4 1.7-2.3 3-2.3.2 0 .4 0 .5.1v1.8c-.2 0-.4-.1-.7-.1-1.4 0-2.3 1-2.6 2.5 0 .3-.1.6-.1.9v5.7h-1.9v-7.4zM252.8 594.9c.6.4 1.6.8 2.6.8 1.4 0 2.1-.7 2.1-1.6 0-.9-.5-1.4-2-2-1.9-.7-2.8-1.7-2.8-3 0-1.7 1.4-3.1 3.7-3.1 1.1 0 2 .3 2.6.7l-.5 1.4c-.4-.3-1.2-.6-2.2-.6-1.1 0-1.8.7-1.8 1.5 0 .9.6 1.3 2 1.8 1.8.7 2.8 1.6 2.8 3.2 0 1.9-1.5 3.2-4 3.2-1.2 0-2.2-.3-3-.7l.5-1.6zM264 583.3c0 .7-.5 1.2-1.2 1.2s-1.2-.5-1.2-1.2.5-1.2 1.2-1.2c.7-.1 1.2.5 1.2 1.2zm-2.2 13.6v-10.7h1.9v10.7h-1.9zM269.3 583.2v3.1h2.8v1.5h-2.8v5.7c0 1.3.4 2.1 1.5 2.1.5 0 .9-.1 1.1-.1l.1 1.5c-.4.2-1 .3-1.7.3-.9 0-1.6-.3-2.1-.8-.6-.6-.7-1.5-.7-2.8v-5.8h-1.7v-1.5h1.7v-2.6l1.8-.6zM284.8 596.9l-.2-1.3h-.1c-.6.8-1.7 1.6-3.3 1.6-2.2 0-3.3-1.5-3.3-3.1 0-2.6 2.3-4 6.4-4v-.2c0-.9-.2-2.5-2.4-2.5-1 0-2 .3-2.8.8l-.4-1.3c.9-.6 2.2-.9 3.5-.9 3.3 0 4.1 2.2 4.1 4.4v4c0 .9 0 1.8.2 2.6h-1.7zm-.3-5.4c-2.1 0-4.5.3-4.5 2.4 0 1.3.8 1.8 1.8 1.8 1.4 0 2.3-.9 2.6-1.8.1-.2.1-.4.1-.6v-1.8zM289.5 589.1c0-1.1 0-2-.1-2.9h1.7l.1 1.7h.1c.6-1 1.6-2 3.3-2 1.5 0 2.6.9 3 2.1.3-.6.7-1.1 1.2-1.4.6-.5 1.3-.7 2.4-.7 1.4 0 3.5.9 3.5 4.6v6.3h-1.9v-6c0-2-.7-3.3-2.3-3.3-1.1 0-2 .8-2.3 1.8-.1.3-.2.6-.2 1v6.6h-1.9v-6.4c0-1.7-.7-2.9-2.2-2.9-1.2 0-2.1 1-2.4 1.9-.1.3-.2.6-.2.9v6.4h-1.9v-7.7zM308.9 591.9c0 2.6 1.7 3.7 3.7 3.7 1.4 0 2.2-.2 2.9-.6l.3 1.4c-.7.3-1.9.7-3.5.7-3.3 0-5.2-2.2-5.2-5.4s1.9-5.7 5-5.7c3.5 0 4.4 3.1 4.4 5 0 .4 0 .7-.1.9h-7.5zm5.7-1.4c0-1.2-.5-3.1-2.7-3.1-2 0-2.8 1.8-3 3.1h5.7zM321.2 583.2v3.1h2.8v1.5h-2.8v5.7c0 1.3.4 2.1 1.5 2.1.5 0 .9-.1 1.1-.1l.1 1.5c-.4.2-1 .3-1.7.3-.9 0-1.6-.3-2.1-.8-.6-.6-.7-1.5-.7-2.8v-5.8h-1.7v-1.5h1.7v-2.6l1.8-.6zM324.8 599.6c.5-1.3 1.1-3.7 1.3-5.3l2.2-.2c-.5 1.9-1.5 4.3-2.1 5.3l-1.4.2zM342.9 596.5c-.5.3-1.6.6-3.1.6-3.2 0-5.3-2.2-5.3-5.4 0-3.3 2.2-5.7 5.7-5.7 1.1 0 2.2.3 2.7.6l-.4 1.5c-.5-.3-1.2-.5-2.2-.5-2.4 0-3.8 1.8-3.8 4 0 2.5 1.6 4 3.7 4 1.1 0 1.8-.3 2.4-.5l.3 1.4zM354.7 591.5c0 3.9-2.7 5.7-5.3 5.7-2.9 0-5.1-2.1-5.1-5.5 0-3.6 2.3-5.7 5.3-5.7s5.1 2.2 5.1 5.5zm-8.5.1c0 2.3 1.3 4.1 3.2 4.1 1.8 0 3.2-1.7 3.2-4.1 0-1.8-.9-4.1-3.2-4.1-2.2 0-3.2 2.1-3.2 4.1zM357.1 589.1c0-1.1 0-2-.1-2.9h1.7l.1 1.8c.5-1 1.8-2 3.5-2 1.5 0 3.8.9 3.8 4.5v6.4h-1.9v-6.1c0-1.7-.6-3.1-2.5-3.1-1.3 0-2.3.9-2.6 2-.1.2-.1.6-.1.9v6.4h-1.9v-7.9zM369 594.9c.6.4 1.6.8 2.6.8 1.4 0 2.1-.7 2.1-1.6 0-.9-.5-1.4-2-2-1.9-.7-2.8-1.7-2.8-3 0-1.7 1.4-3.1 3.7-3.1 1.1 0 2 .3 2.6.7l-.5 1.4c-.4-.3-1.2-.6-2.2-.6-1.1 0-1.8.7-1.8 1.5 0 .9.6 1.3 2 1.8 1.8.7 2.8 1.6 2.8 3.2 0 1.9-1.5 3.2-4 3.2-1.2 0-2.2-.3-3-.7l.5-1.6zM379.1 591.9c0 2.6 1.7 3.7 3.7 3.7 1.4 0 2.2-.2 2.9-.6l.3 1.4c-.7.3-1.9.7-3.5.7-3.3 0-5.2-2.2-5.2-5.4s1.9-5.7 5-5.7c3.5 0 4.4 3.1 4.4 5 0 .4 0 .7-.1.9h-7.5zm5.7-1.4c0-1.2-.5-3.1-2.7-3.1-2 0-2.8 1.8-3 3.1h5.7zM396.6 596.5c-.5.3-1.6.6-3.1.6-3.2 0-5.3-2.2-5.3-5.4 0-3.3 2.2-5.7 5.7-5.7 1.1 0 2.2.3 2.7.6l-.4 1.5c-.5-.3-1.2-.5-2.2-.5-2.4 0-3.8 1.8-3.8 4 0 2.5 1.6 4 3.7 4 1.1 0 1.8-.3 2.4-.5l.3 1.4zM401.5 583.2v3.1h2.8v1.5h-2.8v5.7c0 1.3.4 2.1 1.5 2.1.5 0 .9-.1 1.1-.1l.1 1.5c-.4.2-1 .3-1.7.3-.9 0-1.6-.3-2.1-.8-.6-.6-.7-1.5-.7-2.8v-5.8H398v-1.5h1.7v-2.6l1.8-.6zM407.4 591.9c0 2.6 1.7 3.7 3.7 3.7 1.4 0 2.2-.2 2.9-.6l.3 1.4c-.7.3-1.9.7-3.5.7-3.3 0-5.2-2.2-5.2-5.4s1.9-5.7 5-5.7c3.5 0 4.4 3.1 4.4 5 0 .4 0 .7-.1.9h-7.5zm5.7-1.4c0-1.2-.5-3.1-2.7-3.1-2 0-2.8 1.8-3 3.1h5.7zM419.7 583.2v3.1h2.8v1.5h-2.8v5.7c0 1.3.4 2.1 1.5 2.1.5 0 .9-.1 1.1-.1l.1 1.5c-.4.2-1 .3-1.7.3-.9 0-1.6-.3-2.1-.8-.6-.6-.7-1.5-.7-2.8v-5.8h-1.7v-1.5h1.7v-2.6l1.8-.6zM433.6 594c0 1.1 0 2.1.1 2.9H432l-.1-1.7c-.5.9-1.6 2-3.5 2-1.7 0-3.7-.9-3.7-4.7v-6.2h1.9v5.9c0 2 .6 3.4 2.4 3.4 1.3 0 2.2-.9 2.6-1.8.1-.3.2-.6.2-1v-6.5h1.9v7.7zM436.8 589.6c0-1.3 0-2.3-.1-3.3h1.7l.1 2.1h.1c.5-1.4 1.7-2.3 3-2.3.2 0 .4 0 .5.1v1.8c-.2 0-.4-.1-.7-.1-1.4 0-2.3 1-2.6 2.5 0 .3-.1.6-.1.9v5.7h-1.9v-7.4zM80.7 623.3l-.2-1.3h-.1c-.6.8-1.7 1.6-3.3 1.6-2.2 0-3.3-1.5-3.3-3.1 0-2.6 2.3-4 6.4-4v-.2c0-.9-.2-2.5-2.4-2.5-1 0-2 .3-2.8.8l-.4-1.3c.9-.6 2.2-.9 3.5-.9 3.3 0 4.1 2.2 4.1 4.4v4c0 .9 0 1.8.2 2.6h-1.7zm-.3-5.4c-2.1 0-4.5.3-4.5 2.4 0 1.3.8 1.8 1.8 1.8 1.4 0 2.3-.9 2.6-1.8.1-.2.1-.4.1-.6v-1.8zM94.6 607.7v12.9c0 .9 0 2 .1 2.8H93l-.1-1.9c-.6 1.2-1.9 2.1-3.6 2.1-2.6 0-4.6-2.2-4.6-5.4 0-3.5 2.2-5.7 4.8-5.7 1.6 0 2.7.8 3.2 1.6v-6.4h1.9zm-1.9 9.3c0-.2 0-.6-.1-.8-.3-1.2-1.3-2.2-2.8-2.2-2 0-3.2 1.8-3.2 4.1 0 2.2 1.1 3.9 3.1 3.9 1.3 0 2.5-.9 2.8-2.3.1-.3.1-.5.1-.8V617zM100 609.7c0 .7-.5 1.2-1.2 1.2s-1.2-.5-1.2-1.2.5-1.2 1.2-1.2c.7-.1 1.2.5 1.2 1.2zm-2.2 13.6v-10.7h1.9v10.7h-1.9zM103 616.1c0-1.4 0-2.5-.1-3.5h1.7l.1 1.8c.8-1.3 2-2.1 3.8-2.1 2.6 0 4.5 2.2 4.5 5.4 0 3.8-2.3 5.7-4.8 5.7-1.4 0-2.6-.6-3.3-1.7v5.8H103v-11.4zm1.9 2.9c0 .3 0 .6.1.8.4 1.3 1.5 2.3 2.9 2.3 2 0 3.2-1.7 3.2-4.1 0-2.1-1.1-4-3.2-4-1.3 0-2.6.9-2.9 2.4-.1.2-.1.5-.1.8v1.8zM117.6 609.7c0 .7-.5 1.2-1.2 1.2s-1.2-.5-1.2-1.2.5-1.2 1.2-1.2c.8-.1 1.2.5 1.2 1.2zm-2.1 13.6v-10.7h1.9v10.7h-1.9zM120.4 621.3c.6.4 1.6.8 2.6.8 1.4 0 2.1-.7 2.1-1.6 0-.9-.5-1.4-2-2-1.9-.7-2.8-1.7-2.8-3 0-1.7 1.4-3.1 3.7-3.1 1.1 0 2 .3 2.6.7l-.5 1.4c-.4-.3-1.2-.6-2.2-.6-1.1 0-1.8.7-1.8 1.5 0 .9.6 1.3 2 1.8 1.8.7 2.8 1.6 2.8 3.2 0 1.9-1.5 3.2-4 3.2-1.2 0-2.2-.3-3-.7l.5-1.6zM136.9 622.9c-.5.3-1.6.6-3.1.6-3.2 0-5.3-2.2-5.3-5.4 0-3.3 2.2-5.7 5.7-5.7 1.1 0 2.2.3 2.7.6l-.4 1.5c-.5-.3-1.2-.5-2.2-.5-2.4 0-3.8 1.8-3.8 4 0 2.5 1.6 4 3.7 4 1.1 0 1.8-.3 2.4-.5l.3 1.4zM141.4 609.7c0 .7-.5 1.2-1.2 1.2s-1.2-.5-1.2-1.2.5-1.2 1.2-1.2c.7-.1 1.2.5 1.2 1.2zm-2.2 13.6v-10.7h1.9v10.7h-1.9zM144.3 615.5c0-1.1 0-2-.1-2.9h1.7l.1 1.8c.5-1 1.8-2 3.5-2 1.5 0 3.8.9 3.8 4.5v6.4h-1.9v-6.1c0-1.7-.6-3.1-2.5-3.1-1.3 0-2.3.9-2.6 2-.1.2-.1.6-.1.9v6.4h-1.9v-7.9zM165.7 612.7c0 .8-.1 1.6-.1 2.9v6.2c0 2.4-.5 3.9-1.5 4.9-1 1-2.5 1.3-3.9 1.3-1.3 0-2.7-.3-3.5-.9l.5-1.5c.7.4 1.8.8 3.1.8 2 0 3.4-1 3.4-3.7v-1.2c-.6 1-1.7 1.8-3.4 1.8-2.6 0-4.5-2.2-4.5-5.2 0-3.6 2.4-5.7 4.8-5.7 1.8 0 2.9 1 3.3 1.9l.1-1.6h1.7zm-2 4.2c0-.3 0-.6-.1-.9-.4-1.1-1.3-2-2.7-2-1.8 0-3.2 1.6-3.2 4 0 2.1 1.1 3.8 3.1 3.8 1.2 0 2.3-.7 2.7-2 .1-.3.2-.7.2-1v-1.9zM174.6 618.3c0 2.6 1.7 3.7 3.7 3.7 1.4 0 2.2-.2 2.9-.6l.3 1.4c-.7.3-1.8.7-3.5.7-3.3 0-5.2-2.2-5.2-5.4s1.9-5.7 5-5.7c3.5 0 4.4 3.1 4.4 5 0 .4 0 .7-.1.9h-7.5zm5.7-1.4c0-1.2-.5-3.1-2.7-3.1-2 0-2.8 1.8-3 3.1h5.7zM184.5 607.7h1.9v15.6h-1.9v-15.6zM191.9 609.7c0 .7-.5 1.2-1.2 1.2s-1.2-.5-1.2-1.2.5-1.2 1.2-1.2c.7-.1 1.2.5 1.2 1.2zm-2.2 13.6v-10.7h1.9v10.7h-1.9zM197.2 609.6v3.1h2.8v1.5h-2.8v5.7c0 1.3.4 2.1 1.5 2.1.5 0 .9-.1 1.1-.1l.1 1.5c-.4.2-1 .3-1.7.3-.9 0-1.6-.3-2.1-.8-.6-.6-.7-1.5-.7-2.8v-5.8h-1.7v-1.5h1.7v-2.6l1.8-.6zM200.8 626c.5-1.3 1.1-3.7 1.3-5.3l2.2-.2c-.5 1.9-1.5 4.3-2.1 5.3l-1.4.2zM211.1 621.3c.6.4 1.6.8 2.6.8 1.4 0 2.1-.7 2.1-1.6 0-.9-.5-1.4-2-2-1.9-.7-2.8-1.7-2.8-3 0-1.7 1.4-3.1 3.7-3.1 1.1 0 2 .3 2.6.7l-.5 1.4c-.4-.3-1.2-.6-2.2-.6-1.1 0-1.8.7-1.8 1.5 0 .9.6 1.3 2 1.8 1.8.7 2.8 1.6 2.8 3.2 0 1.9-1.5 3.2-4 3.2-1.2 0-2.2-.3-3-.7l.5-1.6zM221.1 618.3c0 2.6 1.7 3.7 3.7 3.7 1.4 0 2.2-.2 3-.6l.3 1.4c-.7.3-1.8.7-3.5.7-3.3 0-5.2-2.2-5.2-5.4s1.9-5.7 5-5.7c3.5 0 4.4 3.1 4.4 5 0 .4 0 .7-.1.9h-7.6zm5.7-1.4c0-1.2-.5-3.1-2.7-3.1-2 0-2.8 1.8-3 3.1h5.7zM240.3 607.7v12.9c0 .9 0 2 .1 2.8h-1.7l-.1-1.9c-.6 1.2-1.9 2.1-3.6 2.1-2.6 0-4.6-2.2-4.6-5.4 0-3.5 2.2-5.7 4.8-5.7 1.6 0 2.7.8 3.2 1.6v-6.4h1.9zm-2 9.3c0-.2 0-.6-.1-.8-.3-1.2-1.3-2.2-2.8-2.2-2 0-3.2 1.8-3.2 4.1 0 2.2 1.1 3.9 3.1 3.9 1.3 0 2.5-.9 2.8-2.3.1-.3.1-.5.1-.8V617zM257.3 607.7v12.9c0 .9 0 2 .1 2.8h-1.7l-.1-1.9c-.6 1.2-1.9 2.1-3.6 2.1-2.6 0-4.6-2.2-4.6-5.4 0-3.5 2.2-5.7 4.8-5.7 1.6 0 2.7.8 3.2 1.6v-6.4h1.9zm-1.9 9.3c0-.2 0-.6-.1-.8-.3-1.2-1.3-2.2-2.8-2.2-2 0-3.2 1.8-3.2 4.1 0 2.2 1.1 3.9 3.1 3.9 1.3 0 2.5-.9 2.8-2.3.1-.3.1-.5.1-.8V617zM270.2 617.9c0 3.9-2.7 5.7-5.3 5.7-2.9 0-5.1-2.1-5.1-5.5 0-3.6 2.3-5.7 5.3-5.7s5.1 2.2 5.1 5.5zm-8.5.1c0 2.3 1.3 4.1 3.2 4.1 1.9 0 3.2-1.7 3.2-4.1 0-1.8-.9-4.1-3.2-4.1-2.2 0-3.2 2.1-3.2 4.1zM278.3 618.3c0 2.6 1.7 3.7 3.7 3.7 1.4 0 2.2-.2 2.9-.6l.3 1.4c-.7.3-1.9.7-3.5.7-3.3 0-5.2-2.2-5.2-5.4s1.9-5.7 5-5.7c3.5 0 4.4 3.1 4.4 5 0 .4 0 .7-.1.9h-7.5zm5.7-1.4c0-1.2-.5-3.1-2.7-3.1-2 0-2.8 1.8-3 3.1h5.7zM290.4 609.7c0 .7-.5 1.2-1.2 1.2s-1.2-.5-1.2-1.2.5-1.2 1.2-1.2c.8-.1 1.2.5 1.2 1.2zm-2.1 13.6v-10.7h1.9v10.7h-1.9zM302.4 620.4c0 1.1 0 2.1.1 2.9h-1.7l-.1-1.7c-.5.9-1.6 2-3.5 2-1.7 0-3.7-.9-3.7-4.7v-6.2h1.9v5.9c0 2 .6 3.4 2.4 3.4 1.3 0 2.2-.9 2.6-1.8.1-.3.2-.6.2-1v-6.5h1.9v7.7zM305.3 621.3c.6.4 1.6.8 2.6.8 1.4 0 2.1-.7 2.1-1.6 0-.9-.6-1.4-2-2-1.9-.7-2.8-1.7-2.8-3 0-1.7 1.4-3.1 3.7-3.1 1.1 0 2 .3 2.6.7l-.5 1.4c-.4-.3-1.2-.6-2.2-.6-1.1 0-1.8.7-1.8 1.5 0 .9.6 1.3 2 1.8 1.8.7 2.8 1.6 2.8 3.2 0 1.9-1.5 3.2-4 3.2-1.2 0-2.2-.3-3-.7l.5-1.6zM314.3 615.5c0-1.1 0-2-.1-2.9h1.7l.1 1.7h.1c.6-1 1.6-2 3.3-2 1.5 0 2.6.9 3 2.1.3-.6.7-1.1 1.2-1.4.6-.5 1.3-.7 2.4-.7 1.4 0 3.5.9 3.5 4.6v6.3h-1.9v-6c0-2-.7-3.3-2.3-3.3-1.1 0-2 .8-2.3 1.8-.1.3-.2.6-.2 1v6.6h-1.9v-6.4c0-1.7-.7-2.9-2.2-2.9-1.2 0-2.1 1-2.4 1.9-.1.3-.2.6-.2.9v6.4h-1.9v-7.7zM342.3 617.9c0 3.9-2.7 5.7-5.3 5.7-2.9 0-5.1-2.1-5.1-5.5 0-3.6 2.3-5.7 5.3-5.7s5.1 2.2 5.1 5.5zm-8.5.1c0 2.3 1.3 4.1 3.2 4.1 1.8 0 3.2-1.7 3.2-4.1 0-1.8-.9-4.1-3.2-4.1-2.2 0-3.2 2.1-3.2 4.1zM353.9 607.7v12.9c0 .9 0 2 .1 2.8h-1.7l-.1-1.9c-.6 1.2-1.9 2.1-3.6 2.1-2.6 0-4.6-2.2-4.6-5.4 0-3.5 2.2-5.7 4.8-5.7 1.6 0 2.7.8 3.2 1.6v-6.4h1.9zM352 617c0-.2 0-.6-.1-.8-.3-1.2-1.3-2.2-2.8-2.2-2 0-3.2 1.8-3.2 4.1 0 2.2 1.1 3.9 3.1 3.9 1.3 0 2.5-.9 2.8-2.3.1-.3.1-.5.1-.8V617zM364.1 609.6v3.1h2.8v1.5h-2.8v5.7c0 1.3.4 2.1 1.4 2.1.5 0 .9-.1 1.1-.1l.1 1.5c-.4.2-1 .3-1.7.3-.9 0-1.6-.3-2.1-.8-.6-.6-.7-1.5-.7-2.8v-5.8h-1.7v-1.5h1.7v-2.6l1.9-.6zM370 618.3c0 2.6 1.7 3.7 3.7 3.7 1.4 0 2.2-.2 3-.6l.3 1.4c-.7.3-1.8.7-3.5.7-3.3 0-5.2-2.2-5.2-5.4s1.9-5.7 5-5.7c3.5 0 4.4 3.1 4.4 5 0 .4 0 .7-.1.9H370zm5.7-1.4c0-1.2-.5-3.1-2.7-3.1-2 0-2.8 1.8-3 3.1h5.7zM379.9 615.5c0-1.1 0-2-.1-2.9h1.7l.1 1.7h.1c.6-1 1.6-2 3.3-2 1.5 0 2.6.9 3 2.1.3-.6.7-1.1 1.2-1.4.6-.5 1.3-.7 2.4-.7 1.4 0 3.5.9 3.5 4.6v6.3h-1.9v-6c0-2-.7-3.3-2.3-3.3-1.1 0-2 .8-2.3 1.8-.1.3-.2.6-.2 1v6.6h-1.9v-6.4c0-1.7-.7-2.9-2.2-2.9-1.2 0-2.1 1-2.4 1.9-.1.3-.2.6-.2.9v6.4h-1.9v-7.7zM398.3 616.1c0-1.4 0-2.5-.1-3.5h1.7l.1 1.8c.8-1.3 2-2.1 3.8-2.1 2.6 0 4.5 2.2 4.5 5.4 0 3.8-2.3 5.7-4.8 5.7-1.4 0-2.6-.6-3.3-1.7v5.8h-1.9v-11.4zm1.9 2.9c0 .3 0 .6.1.8.4 1.3 1.5 2.3 2.9 2.3 2 0 3.2-1.7 3.2-4.1 0-2.1-1.1-4-3.2-4-1.3 0-2.6.9-2.9 2.4-.1.2-.1.5-.1.8v1.8zM420.4 617.9c0 3.9-2.7 5.7-5.3 5.7-2.9 0-5.1-2.1-5.1-5.5 0-3.6 2.3-5.7 5.3-5.7 3.1 0 5.1 2.2 5.1 5.5zm-8.4.1c0 2.3 1.3 4.1 3.2 4.1 1.8 0 3.2-1.7 3.2-4.1 0-1.8-.9-4.1-3.2-4.1-2.2 0-3.2 2.1-3.2 4.1zM422.9 616c0-1.3 0-2.3-.1-3.3h1.7l.1 2.1h.1c.5-1.4 1.7-2.3 3-2.3.2 0 .4 0 .5.1v1.8c-.2 0-.4-.1-.7-.1-1.4 0-2.3 1-2.6 2.5 0 .3-.1.6-.1.9v5.7h-1.9V616z"/></g></svg>