<svg version="1.1" id="Layer_1" xmlns="http://www.w3.org/2000/svg" x="0" y="0" width="510" height="710" xml:space="preserve"><style>.st1{fill:#fff}.st3{fill:#fdcd9d}.st4{fill:#fec65f}.st5{fill:#2f69b3}.st6{fill:#c61e50}.st7{fill:#231f20}</style><path id="XMLID_181_" fill="#11477a" d="M5 1.4h500v707.1H5z"/><path id="XMLID_180_" class="st1" d="M422.6 403.6c3.6 2.7 7.2 5.4 11.4 6.9-1.8 3.9-4 7.6-6.6 11-1-.5-2.1-.9-3.2-1.3-6.9-2.2-14-4.1-21-5.9-13.8-3.6-28-7.3-40.7-13.9-1.1-.6-2.4-.2-3 .9-.6 1.1-.2 2.4.9 3 3.1 1.6 6.2 3 9.4 4.4-1 .9-2.2 2-3.8 3.6-1 1-8.5 9.9-13.3 21.3-9.5-2.1-19.3-4.3-29.1-4.3-3.5 0-6.8.3-10 .8-1.4.2-2.7.5-4 .8 2.4-4.7 5.6-9.5 8.1-13 3.4-4.8 6.7-7.6 9.8-10.4 6-5.2 11.2-9.7 13.7-24 .7-3.9 6.3-9.4 10.3-12 3.2 2.1 7 3.2 11 3.2 3.6 0 7-.9 9.9-2.6.5 2.6 1.7 5.2 3.8 6.5 1.7 1.1 3.6 1.5 5.3 1.8.4.1.8.2 1.2.2 3.5.8 6.8 2.4 9.9 4 10.2 5.3 20 11.4 29.1 18.3l.9.7z"/><path id="XMLID_179_" d="M400.5 437.7l-.3.3c-3.9.4-8 .6-12 .6-5 0-9.9-.3-14.8-1l.3-.3c1.5-1.5 3.8-3.7 3.4-7.2-.3-3-.8-4.7-1.1-5.9-.2-.8-.4-1.3-.4-2 0-1 .6-2.2 2.1-3.7 1.9-2 4.2-3.6 6.7-4.8 5.9 1.8 11.9 3.4 17.8 4.9 2.9.8 5.9 1.5 8.9 2.4l-.9 2.1c-.6 1.5-1.3 3.1-2.1 4.6-.9 1.7-2.1 3.4-3.3 5.1-1.5 2-2.6 3.5-4.3 4.9z" fill="#ef477e"/><path id="XMLID_178_" class="st3" d="M371.1 368c-5.2 3.4-13.1 3-18-.8-.7-.6-1.3-1.1-1.6-1.7.3 0 .7.1 1 .1 1.4 0 2.6-.3 3.7-1 2.6-1.6 4.1-5 4.6-10 .1-1.8-.6-3.6-2.1-4.9-.5-.4-1-.7-1.6-1 .1-.7.1-1.4-.1-2.1-.5-1.8-2.1-3.3-4.8-4.4-2.4-1-3.9-2.1-4.7-2.9 1.3-.4 2.8-.5 4.3-.7 1-.1 2-.2 3-.4 2.7-.4 5.2-1.4 7.7-2.3l1.6-.6c5.8-2.1 9.9-2.7 13.6-2.1 3.8.6 8.1 3.1 9.3 7.3 1.1 4.2-1.3 9-3.6 12.6-1.7 2.7-3.6 5.4-5.5 8-1.9 2.6-4.1 5.2-6.8 6.9z"/><path id="XMLID_177_" class="st3" d="M355.2 352.8c.2 0 .4.1.6.3.4.3.6.8.6 1.2-.3 3.4-1.2 5.8-2.5 6.6-.7.4-1.5.4-2.2.3.9-3 2-5.8 3.5-8.4z"/><path id="XMLID_176_" class="st3" d="M400.1 378.1l.1-.2c.3.1.7.3 1 .4 1.2 1.6 1.2 3.6 0 6-1.2-.7-2.4-1.3-3.5-1.9.6-1.5 1.4-3 2.4-4.3z"/><path id="XMLID_175_" class="st4" d="M443.5 366.8c.1 0 .1 0 .2.1 4.1 1.1 7.5 3.7 9.2 7 2.8 5.6 3.2 9.8 3.6 13.9l.1 1.5c-2.7.6-6.8.8-10.5.9-1.6.1-3.1.1-4.5.2 3.1-6.8 6.4-15.4 1.8-22.7 0-.1 0-.6.1-.9z"/><path id="XMLID_174_" class="st3" d="M438.4 369.6c-.7 3.2-2.6 6.4-5.9 9.9-1.2 1.3-2.5 2.5-3.8 3.8-1.8 1.7-3.6 3.5-5.3 5.4-.6.8-1.3 1.5-1.9 2.3-1.1 1.4-2.2 2.7-3.4 3.9-4.3-2.9-8.6-5.7-13.1-8.3 3-5.8.8-9.7-.9-11.6 0 0-.7-.5-1.6-1 .7-2 .4-4.2-.8-5.6-.9-1.1-2.3-1.8-3.5-2.4-.5-.2-.9-.5-1.3-.7.2-.2.5-.6 1-.7 2.7-.7 4.4-.7 6.3-.8 1.2 0 2.5 0 4.1-.2 3-.3 6-1.3 8.6-2.9.5-.3.9-.6 1.3-.9.6-.4 1.3-.9 2-1.2 2.3-1.2 5.2-1.4 9.3-.6 2 .4 4.4.9 6.1 2.2 2.8 2.1 3.4 6.3 2.8 9.4z"/><path id="XMLID_173_" class="st3" d="M424.5 440.1c-1.5 2.4-2.9 4.9-3.9 6.5l-.5.9.3.9c.4 1.4 1.5 1.9 8.1 4.8 2.9 1.3 6.6 2.9 9.5 4.5-4.4.8-8.9 2-13 4.2l-3.5 1.9 19.7 11.1c-6.8 2-16 5-16.5 5.1l-4.1 1.3 3.4 2.5c8.1 5.9 12.8 10.7 15.2 13.8-15.7-1.2-27.2-.4-33 2.5-10.3 5.2-19.2 9.6-32.4 9.6-5.7 0-11.9-.8-19.2-2.4-1.7-.4-3.5-.8-5.2-1.3-4.6-1.1-9.4-2.3-14-2.8-1.2-.1-2.5-.2-3.8-.2-4.1 0-8.1.7-12 1.3-1.6.3-3.1.5-4.7.7-1.9.3-3.8.6-5.8.9-5.1.9-10.9 1.9-18.3 1.9-2.6 0-5.3-.1-8-.4-3.5-.3-7-1.1-10.6-1.9-3.4-.8-7-1.6-10.6-1.9-2.4-.2-4.8-.4-7.4-.4-7.7 0-15.4 1.1-23 2.1-7.3 1-14.8 2-22 2-6.5 0-12.2-.8-17.4-2.6-2-.7-4.1-1.6-6.1-2.4-3.7-1.6-7.6-3.3-11.8-3.9-1.5-.2-3.1-.4-4.8-.4-4.4 0-8.7.8-12.9 1.6-5.1 1-9.9 1.9-14.8 1.5-6.9-.6-15.3-5.5-22.7-9.8-2.3-1.3-4.4-2.6-6.4-3.6-4.4-2.3-10.3-3.5-17.6-3.5-5.1 0-9.8.6-12.9 1.1-1.7.3-3.9 1.1-6.2 2.1l-1.5.6c2.8-4.5 5.7-9.1 6.7-14.8l.6-3.5-3.4 1c-2.1.6-4.6.7-7 .7h-1.9c-1 0-2 0-3 .1 2.7-3.1 6.5-6.6 9.1-9 4-3.7 4.7-4.3 4.1-6l-.6-1.4-1.5-.1c-1.5-.1-4.2-.8-6.9-1.4-1-.3-2.1-.5-3.1-.7l10.7-9.9-2.7-1.5c-3-1.7-6-2.5-9.1-3 9.4-5.8 21.7-8.9 37.4-9.6 3.9-.2 7.7-1.1 11.3-2 4.7-1.1 9.2-2.2 13.7-1.7 6.6.7 12.6 3.4 19.1 6.1 3.5 1.5 7.2 3.1 11 4.4 9.5 3.1 19.8 4 29.6 2.5 3.8-.6 7.6-1.5 11.2-2.4 5.5-1.4 10.7-2.6 16-2.8 8.6-.3 16.9 2.1 25.7 4.7 4.3 1.3 8.8 2.6 13.4 3.5 12.5 2.6 25.8 2.3 38.1-.8 2.9-.7 5.7-1.6 8.5-2.5 4.3-1.3 8.7-2.7 13.1-3.4 3-.5 6-.7 9.3-.7 9.8 0 19.9 2.3 29.6 4.5 5.4 1.2 11 2.5 16.6 3.4 6 1 12 1.4 18.2 1.4 13.4 0 26.2-2.3 37.5-4.9-.1.6-.5 1.2-.9 1.9z"/><path id="XMLID_172_" class="st3" d="M447.1 425l-.3-.1-1.9.1-.5 1.5c-.5 1.7.3 2.3 4.3 5.4 2.6 2 8.7 6.6 9.2 8.2.1.4.1.5.1.6 0 .2-.1.3-.1.4-.2 0-.4-.1-.5-.1l-.4-.1c-.3-.1-.5-.2-.6-.4-.1-.1-6.8-8.3-10.2-7.3-1.1.3-1.7 1.3-1.7 2.4 0 2.9.2 5 .3 6.7.1 1.2.2 2.1.2 2.9-.3.3-.9.2-1.6-.2-.2-.1-.2-.2-.4-1-.1-.6-.1-2.6-.1-4.3 0-5.9-.2-7.5-1.2-8.5l-.8-.7h-.9c-2.2.1-3 2.3-4.5 6.4-.4 1.1-1 2.8-1.6 3.9v-.1c-.1-1 .2-2.4.5-3.9.3-1.7.7-3.4.6-4.9-.2-2.7-.7-5.7-3.7-8.1 2.9-3.8 5.3-7.9 7.2-12.3 2.6.3 5.1 0 7.6-.2l4.2-.5-5 2.4c-1 .5-3.1 2.3-2.9 4.7.2 2.2 2.2 3.8 5.8 4.8l3.1.8c6.8 1.8 9.2 2.5 10.5 4.7.1.1.1.2.1.3-1.9-.5-13.4-3.2-14.8-3.5z"/><path id="XMLID_171_" class="st5" d="M378.8 411.9c-1.5 1-2.9 2.2-4.2 3.5-2.3 2.4-3.4 4.6-3.4 7 0 1.1.3 2 .5 3 .3 1.1.7 2.6 1 5.2.1 1.3-.7 2.3-2.1 3.6-.7.7-1.5 1.5-2.1 2.6-3.7-.7-7.5-1.4-11.2-2.3 4.8-11 11.9-19 12-19.1 3.2-3.2 4.7-4.4 5.3-4.9 1.4.5 2.8 1 4.2 1.4z"/><path id="XMLID_170_" class="st5" d="M291.9 436c-.1-7.3-.2-14.8-.1-22.4 1.1 0 2.3.1 3.4.1 2.3 0 4.7-.1 7-.2 2.4-.1 5-.3 7.5-1.2 1.9-.7 3.4-1.8 4.4-3.1.7-1 .5-2.4-.5-3.1-1-.7-2.4-.5-3.1.5-.4.6-1.2 1.1-2.3 1.5-1.1.4-2.4.6-3.6.8-.1-1.1.6-2.7 1.4-4.1l.1-.3c.7-1.3 2.1-2.3 3.5-2.5 1.2-.2 2-1.3 1.9-2.5-.2-1.2-1.3-2-2.5-1.9-2.9.4-5.5 2.3-7 5.1-.9 1.8-2.1 4-1.9 6.3-2.7.1-5.4.1-8.2 0 .1-5.1.3-10.2.7-15.3 3.3-1.3 6.7-2.3 10.3-3.2 2-.5 4-1 6-1.7 7.8-2.4 13.1-5.5 16.7-9.9.4-.5.8-1.1 1.1-1.6.2 0 .3 0 .5-.1 4-1.3 8.4-1.3 12.4-.2-1.2 1.8-2.1 3.7-2.5 5.5-2.2 12.7-6.7 16.6-12.3 21.4-3.2 2.8-6.9 6-10.6 11.2-3.1 4.4-7.5 10.9-10 17-1.4.4-2.7.8-4.1 1.2-2.7 1.2-5.5 2-8.2 2.7z"/><path id="XMLID_169_" class="st5" d="M434.4 354.5c-1.4-.5-2.8-.8-4.1-1-3.2-.6-7.9-1-12.1 1.1-.9.4-1.7 1-2.5 1.5-.4.3-.8.5-1.2.8-2 1.3-4.4 2.1-6.7 2.3-1.4.2-2.6.2-3.7.2-2.1 0-4.2.1-7.4.9-2.1.6-3.9 2.4-4.3 4.3-.3 1.5.3 3 1.5 4 .6.5 1.4.9 2.1 1.3.8.4 1.8.9 2.1 1.3.2.3.2.9 0 1.5-.3.7-.8 1.5-1.4 2.3l-.4.6c-1 1.5-1.9 3.1-2.7 4.7-3-1.6-6.3-3.1-9.8-3.9-.4-.1-.9-.2-1.3-.3-1.4-.3-2.8-.6-3.8-1.2-1.4-.9-2.3-4.2-1.8-6.1 1.7-1.6 3.1-3.3 4.5-5.1 2-2.7 4-5.5 5.8-8.3 2.8-4.4 5.7-10.2 4.1-16.1-1.4-5.3-6.6-9.5-12.9-10.5-1.1-.2-2.2-.3-3.3-.3-4.7 0-9.1 1.4-12.4 2.6l-1.7.6c-2.3.9-4.6 1.7-6.8 2.1l-2.7.3c-2.6.3-5.6.5-8.1 2.2l-.8.5-.2.9c-.4 2.3 2 5.8 8.1 8.4 1.9.8 2.2 1.5 2.2 1.5.1.4-.6 1.4-.9 1.8-.2.3-.4.5-.5.7-2.1 3.6-3.6 7.4-4.5 11.4-.1.3-.1.7-.2 1l-.1.2.1.1c-.1.8-.2 1.6 0 2.5.2 1.1.7 2.1 1.5 3.1-1.8 1.3-3.8 3-5.7 5-4.2-1.5-8.8-1.9-13.2-1.2.8-2 1.5-4 2.1-6 1.4-4.5 2.8-9.3 3.9-13.4.8-2.8 1.5-6-.3-8.8-.5-.8-1.1-1.4-1.7-2-.3-.3-.7-.6-.9-1-.7-.9-.9-2.4-.5-4 .3-1.4 1.1-2.8 2-4.2.9.3 1.9.4 2.8.4h.4c6.1-.1 10.7-2 13.1-5.5.7-1 .5-2.4-.5-3.1-1-.7-2.4-.5-3.1.5-2.1 2.9-6.4 3.6-9.6 3.7h-.5c2.6-4 5.3-8 8.2-11.8.7-1 .6-2.4-.4-3.1-1-.7-2.4-.5-3.1.4-1.8 2.3-3.5 4.7-5.1 7.1 0-.1-.1-.1-.1-.2-.4-.9-.5-1.9-.3-2.6.5-1.2 1.1-2.4 1.8-3.5.3-.1.5-.3.7-.5.9-.9.9-2.3 0-3.1l-.9-.8-1 .1c-.8.1-1.5.5-2 1.1-1.2 1.5-2.1 3.3-2.8 5.1-.7 1.9-.5 4.2.5 6.1.4.8.9 1.5 1.6 2.1-1 1.5-2.1 3.1-3 4.7-1.2 1.9-2.3 3.9-2.9 6.1-.7 2.9-.2 5.6 1.3 7.7.4.6.9 1.1 1.4 1.5.4.4.8.8 1 1.1.8 1.2.3 3.4-.2 5.2-1.2 4.1-2.5 8.8-3.9 13.3-1.3 4-2.7 8.2-5.3 11.3-1.8 2.2-4.1 4-7.2 5.6-.7 0-3.1-.8-3.6-1.3-.9-1.1-1.8-2.1-2.4-3.2-.9-1.9-.9-4.3-.8-6.1 0-.7.2-1.4.3-2.2 1.4-.2 3-.5 4.4-1.3 3.1-1.9 5.4-5.1 6.2-8.7.3-1.2-.5-2.4-1.7-2.6-1.2-.3-2.4.5-2.6 1.7-.5 2.4-2.1 4.6-4.2 5.9-.3.2-.7.3-1.2.4.7-2.9 1.7-5.7 3-8.3.4-.3.8-.6 1-1.2.4-1.1-.2-2.4-1.3-2.8-1.1-.4-2.6-.1-3.4 1.5-2.7 5.3-4.3 11.3-4.7 17.3-.2 2.4-.2 5.5 1.2 8.4.8 1.7 2 3 3 4.2.2.3.6.6 1 .8-.5.2-.9.3-1.4.5-1.9.6-3.9 1.1-5.8 1.6-2.9.8-5.8 1.5-8.7 2.6 1.2-12.5 3.6-25 8-36.8 3.5-9.6 8.4-18.6 13-27 10.1-18 20.4-33.6 31.4-50.2 3.4-5.2 7-10.5 10.5-16l1.3-2c.6-.9 1.2-1.9 1.9-2.9.3 0 .5-.1.8-.2 2.5-1.2 5.5-1.4 8.6-1.7 1.2-.1 2.5-.2 3.7-.3 5.5-.7 10.4-2.5 14.5-4.9l.2.2c2 1.2 4.2 2.2 6.4 2.9-1.1 4.6-.1 7.1 3.6 9.9.4.3.9.5 1.3.5.7 0 1.3-.3 1.8-.9.7-1 .5-2.4-.4-3.1-2.3-1.8-2.6-2.5-2-5.3.2 0 .4.1.7.1 2.6.4 5.2.5 7.7.5h2.1c3.1 0 6.7-.1 10-1.1 2.2-.7 4.1-1.7 6-2.8.9-.5 1.9-1 2.9-1.5 8.4 21.2 12.7 43.9 12.7 67.4-.1 15.2-2 29.5-5.3 40.8z"/><path id="XMLID_168_" class="st5" d="M395.4 227.8c.2.3.3.5.5.8.6 1 1.5 2.4 2.8 3.1-1.6 1.6-3.1 3.1-4.5 4.4-2.2-1.1-3.3-3.4-4.2-6.7-.3-1.2-1.5-1.9-2.7-1.6-1.2.3-1.9 1.5-1.6 2.7.8 3.1 2.1 6.5 4.9 8.6-4.7 3.8-11.2 7.5-19 8.5-1.1.1-2.3.2-3.5.3-1.8.1-3.6.3-5.4.6 4.7-7.4 9.9-16 11.4-20.8.4-1.2 2.6-2.2 5.3-3.3 3-1.3 6.7-2.9 10.2-5.8l2.1-1.8c.3 3.9 1.5 7.8 3.7 11z"/><path id="XMLID_167_" class="st5" d="M425.1 242.5c-1.1.5-2.2 1.1-3.3 1.7-1.8 1-3.4 1.9-5.2 2.4-1.1.3-2.2.5-3.3.6-1.1-2.8.3-6.3 2.9-7.7 1.1-.5 1.5-1.9 1-3s-1.9-1.5-3-1c-4.2 2.1-6.5 7.3-5.5 11.9h-.9c-3 0-6.1 0-9-.4-2.8-.4-5.5-1.4-8-2.6 2.3-1.6 4.4-3.3 6-4.9 5-4.7 12-11.6 17-19.1 4.4 7.2 8.1 14.6 11.3 22.1z"/><path id="XMLID_166_" class="st5" d="M411.3 216.4c-2.6 4.3-6 8.5-9.5 12.2-.3-.3-.6-.6-1.1-.7-.3-.1-.8-1-1-1.4-.2-.4-.5-.8-.7-1.1-2.7-3.9-3.5-9.2-2-13.8v-.1c2.2-2.6 3.9-5.3 5.3-8.1 3.2 4.2 6.2 8.6 9 13z"/><path id="XMLID_165_" class="st5" d="M390.8 189.3c-6.3 5.1-14 8.6-21 9.3-1-5.5-3.8-11-7.9-15.7-4.2-4.7-9.7-8.7-15.9-11.5-3.7-1.7-7.4-2.6-10-3.3-1.2-.3-2.6-.7-3.3-.9-.5-1.9-.7-4-.4-6 .6-4.4 3-8.3 6.2-11.7 20.6 10.4 37.3 23.2 52.3 39.8z"/><path id="XMLID_164_" class="st5" d="M107 424.1c-.1-.3-.2-.7-.4-1C91.1 402 80.4 378.2 75 353c6.7 0 17.2 1.1 21.8 3.6 3 1.7 5.9 3.7 8.6 5.8l-.3.6c-.8 3.8-3.2 7.2-6.3 9.6-1-2.7-3.5-5.1-7.1-6.6-1.1-.5-2.4.1-2.9 1.2-.5 1.1.1 2.4 1.2 2.9 2.1.8 4.4 2.6 4.8 4.7-1.2.4-2.4.8-3.6.9-1.2.1-2.1 1.2-1.9 2.4.1 1.1 1.1 2 2.2 2h.3c4.9-.6 9.4-3.1 12.8-6.7 1.5 4.2 1.8 8.5-2.7 14.2-.7 1-.6 2.3.4 3.1.4.3.9.5 1.4.5.7 0 1.3-.3 1.7-.8 6.7-8.6 4.8-15.2 2.4-20.8-.1-.1-.2-.2-.2-.4.7-1.2 1.2-2.5 1.6-3.8.9.8 1.8 1.5 2.7 2.3 2.1 1.8 3.8 3.3 4.7 5.3.2.4.5.7.8.9-3.6 16.4-5.5 32.9-5.5 49.4-1.7.2-3.3.5-4.9.8z"/><path id="XMLID_163_" class="st5" d="M321.9 142.2c-5.2 3.3-10 7.4-14 12.2-2.8 3.3-5.1 7.5-6.5 11.9-24.9 5.4-48.7 16.6-68.7 32.4-2.6 2-5.3 4.2-8 6.6-1.7-3.9-1.7-7.3-1-12.1l2.3-17c2.4-.7 4.8-1.1 7.3-1.1s5 .4 7.7.9c3.1.5 6.5 1.1 9.9 1.1h1.7c3.3-.2 8-1.1 11.7-4.4 3.8-3.3 5.6-8.3 7-12.3.4-1.2-.2-2.4-1.4-2.8-1.2-.4-2.4.2-2.8 1.4-1 2.8-2 5.8-3.7 8.2-.1 0-.1-.1-.2-.1-1.4-.2-2.5-2.4-2.8-4.5-.2-1.5-.1-3 .4-4.4.4-1.2-.3-2.4-1.4-2.8-1.1-.4-2.4.3-2.8 1.4-.7 2.1-.8 4.3-.5 6.4.4 2.6 1.6 5.6 3.9 7.2-2.5 1.5-5.4 2.1-7.5 2.2-3.5.2-7.2-.4-10.7-1-2.7-.4-5.4-.9-8.3-.9-2.3 0-4.5.2-6.7.7l1-7.1c.4-2.8.8-5.7 2-8.2 1.8-3.5 5.1-5.7 7.5-6.9 3.4-1.6 7.2-2.5 10.8-3.2 4.3-.8 8.9-1.9 14.9-5.3 1.1-.6 1.4-1.9.8-3-.6-1.1-2-1.4-3-.8-5.1 2.9-9 3.9-12.8 4.7-.6-1.4-1.3-2.5-2.2-3.6 3.3-.6 6.3-2.9 7.6-6 .3-.8.1-1.7-.4-2.4h2.5c22.8.1 45.2 4.3 66.4 12.6z"/><path id="XMLID_162_" class="st5" d="M244.4 133.8c-.3 0-.6.1-.9.3.1-1.7.9-3.1 1.2-3.5l.6-.6c1.4-.1 2.7-.1 4.1-.2-.2.2-.3.4-.4.6-.7 1.8-2.6 3.2-4.6 3.4z"/><path id="XMLID_161_" class="st5" d="M99.5 215.4c2.4 9.7 7 17.5 13.3 22.2 9.3 6.9 20.8 8.4 28.8 8.4 10.4 0 18.9-2.4 22.7-4.8 14.1-8.7 20.6-19.2 21.7-35.1.6-9.3-2.9-17.5-7-25.8-2.6-5.3-13.5-16.6-23.7-19.3-.8-.2-1.6-.4-2.5-.6 25.7-17.6 54.9-27.7 87.2-30.2-.4.9-.6 1.9-.7 2.8-.3 2.8.5 5.3 2.5 7.2.6.6 1.1 1.4 1.6 2.3-2.7.6-5.5 1.4-8.1 2.7-3.1 1.5-7.3 4.2-9.6 8.9-1.6 3.1-2 6.5-2.4 9.6l-1.3 9.9c-.2.4-.2.8-.2 1.3l-1.5 11a83.4 83.4 0 0 0-20.9-4.2h-.4c2.8-1.7 6.5-4 8.8-6 2.7-2.4 3.3-6.1 3.7-8.3l.1-.7c.5-2.5.2-5.2 0-7.6-.1-.8-.1-1.6-.2-2.3-.1-1.2-1.1-2.1-2.3-2.1-1.2.1-2.2 1.1-2.1 2.3 0 .8.1 1.6.2 2.5.1 1 .2 2 .2 2.9-1 .2-2 .2-2.9 0-4.8-1.3-4.8-7.1-4.4-10.5.2-1.2-.7-2.3-1.9-2.5-1.2-.2-2.3.7-2.5 1.9-1.1 8.1 1.8 13.8 7.6 15.3.8.2 1.6.3 2.4.3.4 0 .8 0 1.2-.1-.3 1.8-.8 4.2-2.3 5.5-2 1.8-5.9 4.2-8.5 5.8-1.5.9-2.6 1.6-3.3 2.2-.4-.3-.8-.6-1.1-1-.7-.9-.9-2.3-1.1-3.8-.4-2.9-1.8-5-3.1-6.7-1.2-1.7-2.2-3-2.2-4.9 0-1.2-1-2.2-2.2-2.2-1.2-.1-2.2 1-2.2 2.2 0 3.4 1.6 5.6 3 7.6 1.1 1.5 2.1 2.9 2.3 4.7.2 2 .6 4.1 1.9 5.9 2.6 3.6 7.1 3.9 10.8 4.2 7 .5 13.9 2 20.6 4.3l-.3 2.3c-.8 5.9-.7 10.4 2 15.7-3.3 3-6.7 6.2-10.3 9.9-19 18.9-36.4 39.7-51.7 61.7-19.5 28-33.2 57.8-40.7 88.2-1.1-1.4-2.5-2.6-4-3.9-4.5-3.8-9.7-8.2-15.6-11.5-1.3-.7-2.9-1.3-4.7-1.8.9-3 .8-6.4.6-9.6 2.2-1.2 3.9-3.3 4.8-5.9.9-2.8.7-5.8-.6-8.2-.6-1.1-1.9-1.4-3-.9-1.1.6-1.5 1.9-.9 3 .7 1.3.9 3 .3 4.7-.3.9-.8 1.7-1.4 2.4-.8-2.4-2.2-4.5-4.2-6.1-1-.8-2.3-.6-3.1.4-.8 1-.6 2.3.4 3.1 1.8 1.4 2.9 3.6 3.2 6 .3 3.4.7 7.1-.3 10.1-6-1.1-12.6-1.4-15.8-1.4-2.1-11.3-3.2-22.8-3.2-34.5-.1-35.4 9.8-69.4 28.5-98.9z"/><path id="XMLID_160_" class="st6" d="M327.8 160.6c-.4 2.8-.1 5.7.8 8.4.6 1.9 2.7 2.5 6.3 3.4 2.6.7 5.9 1.5 9.3 3 5.7 2.6 10.7 6.2 14.5 10.4 4.1 4.6 6.7 10.2 7.1 15.6.1.7.4 1.2.9 1.6.5.4 1.2.5 1.8.3.2-.1.4-.1.6-.2.1 0 .3-.1.4-.1 11.3-.8 23.8-8 31.7-17.8.8 11.8-3.8 21.4-14.3 29.9-3.1 2.5-6.3 3.9-9.2 5.2-3.6 1.6-6.7 3-7.7 6-2 6.3-11.8 21.2-16.5 28.3l-1.3 2.1c-3.6 5.5-7.1 10.7-10.5 15.9-11 16.6-21.4 32.3-31.6 50.5-4.8 8.5-9.7 17.7-13.3 27.6-10.3 27.8-9.8 58.8-9.3 86.2-10.5 2-21.4 2-31.8-.2-4.3-.9-8.8-2.2-13-3.5-8.7-2.6-17.7-5.2-27.1-4.8-5.8.2-11.4 1.6-16.9 3-3.6.9-7.2 1.8-10.9 2.3-9.2 1.4-18.8.6-27.6-2.3-3.6-1.2-7.1-2.7-10.6-4.2-6.4-2.8-13.1-5.7-20.4-6.5-4.5-.5-8.8.4-13 1.3.1-47.7 16.2-96 46.6-139.6 15.2-21.8 32.4-42.4 51.2-61.1 8-8 14.8-14.1 21.3-19.2 19.9-15.6 43.5-26.6 68.2-31.8.8-.2 1.4-.8 1.7-1.6 1.2-4.2 3.4-8.4 6.1-11.6 8.7-10.3 21.1-17.3 34.3-19.6-8.3 6.2-16.5 13.1-17.8 23.1z"/><path class="st7" d="M296.1 213.2c-1.5-2.9-4.6-5-8.3-5.7-2.8-.5-7.9 0-11.1.9-8.4 2.4-17.7 9.1-23 16.7-1.2 1.7-2.4 3.3-3.5 4.8-4.4 5.9-8.2 11-9.7 18.8-.4 2.3-.7 7.9 1 10.8 1.5 2.6 4.5 4.2 8.1 4.2 1.5 0 3-.3 4.4-.9 3.8-1.6 6.4-4.6 9-7.8l2-2.6c5.4-6.7 10.9-13.7 18-18.5.9-.6 1.9-1.2 2.8-1.8 2.6-1.6 5.2-3.2 7.4-5.6 3.2-3.1 5.3-8.6 2.9-13.3zm-50.7 44.2c-.8-1.3-.9-5.4-.4-7.8 1.2-6.8 4.6-11.3 8.9-17 1.2-1.6 2.4-3.2 3.6-4.9 4.8-6.9 13.1-12.9 20.6-15 1.9-.5 4.8-.9 7.1-.9.8 0 1.5 0 2.1.1.4.1.7.2 1.1.3-.8.2-1.5.5-1.9.6-19.7 7.5-34.4 25.7-37.6 46.5-1.7-.2-2.9-.9-3.5-1.9zm44.6-33.6c-1.8 1.9-4.1 3.3-6.5 4.8-1 .6-2 1.2-2.9 1.9-7.6 5.1-13.4 12.4-19 19.4l-2 2.5c-1.9 2.4-3.8 4.5-6.1 5.8 3.5-18.3 17.1-34.7 34.5-41.3 1.9-.7 3.1-.8 3.7-.4.3.2.7.3 1.1.4.1 2.5-1.2 5.1-2.8 6.9zM309.7 246.6c-3 2.7-6.1 5.4-8.7 8.3-7.8 8.6-11.8 15-12.6 25.9-.1 2.3-.1 5.2 1.5 7.7 1.7 2.6 4.5 4.1 7.8 4.1 1.8 0 3.6-.5 5.2-1.3 3.7-2 5.8-5.4 7.7-8.7l.5-.9c1.9-3.1 7.1-8.6 10.1-10.7 5-3.5 7.7-6.3 11.8-10.5 2-2 4.1-4.5 5.4-7.6 1.5-3.5 1.5-7.2 0-10.2-2.1-4.2-7.5-6.6-12.8-5.9-4.2.6-8.4 2.7-12 6-1.1 1.4-2.5 2.6-3.9 3.8zm20.1 10.9c-4 4.2-6.4 6.7-11.1 9.9-3.5 2.4-9.2 8.4-11.4 12l-.5.9c-1.6 2.7-3.1 5-5.3 6.5.2-2.4 1.3-6.2 2.4-8.6 3.1-6.6 7.6-12.3 15.4-19.8 4.6-4.4 9.6-6.5 15.4-8.9l.1-.1c-.1.6-.3 1.2-.6 1.8-.8 2.5-2.6 4.5-4.4 6.3zm-3.5-16.2c.4-.1.9-.1 1.3-.1 3.1 0 5.8 1.4 6.9 3.6l-1.4.6c-6.2 2.6-11.5 4.9-16.8 9.8-8.2 7.8-13.1 14.1-16.4 21.1-.7 1.5-3 7.5-2.8 11.8-1.1-.1-2.5-.5-3.6-2.1-.9-1.4-.9-3.4-.8-5 .6-8.7 3.2-14.1 11.4-23.2 2.4-2.7 5.5-5.4 8.4-8 1.4-1.3 2.8-2.5 4.1-3.7 3-2.6 6.4-4.3 9.7-4.8zM267.1 281.6c-5.8-3-13.9-1.7-19.9 2.8-5.4 4.1-9 9.9-12.2 15.1l-6.1 9.9c-3.7 6.1-7.6 12.4-10 19.4-2.2 6.4-3 13.3-2.4 20 .2 2.3.6 5.4 2.1 8.1 2 3.5 5.8 6.2 10.4 7.4 1.9.5 3.8.7 5.7.7 2.5 0 5-.4 7.3-1.2 9-3.1 14.4-11.1 17.5-17.3 2.1-4.2 3.6-8.7 5.1-13 1-3 2.1-6.1 3.3-9 .8-1.9 1.6-3.7 2.5-5.6 2.3-5 4.7-10.1 5.6-15.7 1.2-7.5-1-17.5-8.9-21.6zm4.5 21c-.8 5-3 9.6-5.2 14.5-.9 1.9-1.8 3.8-2.6 5.7-1.3 3.1-2.4 6.2-3.4 9.3-1.4 4.2-2.9 8.5-4.9 12.5-2.7 5.4-7.4 12.5-14.9 15-3.3 1.1-7.1 1.3-10.5.4-3.5-.9-6.3-2.9-7.7-5.3-1.1-2-1.4-4.4-1.6-6.3-.5-6.1.2-12.4 2.2-18.2 2.2-6.5 5.9-12.6 9.6-18.5l6.1-9.9c3.1-5.1 6.4-10.4 11.1-13.9 3.1-2.3 6.8-3.6 10.1-3.6 1.9 0 3.6.4 5.1 1.2 6 3.1 7.6 11 6.6 17.1z"/><path id="XMLID_151_" class="st7" d="M367.9 337.6c-1.4 1.5-2.9 5-3 5-.5 1.1 0 2.4 1.1 2.9.3.1.6.2.9.2.8 0 1.6-.5 2-1.3.6-1.3 1.7-3.3 2.2-3.8.8-.9.8-2.3-.1-3.1-.9-.8-2.3-.8-3.1.1z"/><path class="st7" d="M465.5 426.1c-2.2-4-6.1-5-13.2-6.8l-3.1-.8c-1.5-.4-2.1-.8-2.4-1 .1-.1.2-.3.3-.3l7.3-3.5c3.4-1.6 3.3-3.9 3-4.8-.4-1.6-1.9-3.1-5.2-2.7l-6.7.7c-2.2.2-4.5.5-6.7.2-4.9-.6-9.3-3.9-13.6-7.1l-.7-.5c-.9-.7-1.9-1.4-2.9-2 1.2-1.2 2.2-2.5 3.2-3.7.6-.7 1.2-1.5 1.8-2.2 1.5-1.8 3.2-3.4 5-5.1 1.3-1.3 2.7-2.6 4-4 2.5-2.7 4.3-5.4 5.6-8 .5 4.6-1.7 9.9-4.4 15.8-.2.4-.5 1-.4 1.9.1.8.5 2.8 3.6 2.8h1c1.6-.1 3.4-.2 5.2-.2 4.7-.2 9.5-.3 12.7-1.4 1.5-.5 2.3-2.1 2.1-4l-.2-1.8c-.4-4.2-.9-9.1-4-15.4-2.2-4.5-6.6-7.9-12.2-9.4-.6-.2-1.5-.4-2.4-.1-.8-2.3-2.1-4.3-4-5.8 3.6-11.9 5.6-26.9 5.6-42.6 0-42.4-13.8-82.3-39.8-115.4 1.8-6 2-12.5.6-19.7-.2-.9-.9-1.6-1.8-1.8-.9-.2-1.8.3-2.3 1.1-1.7 2.9-4 5.7-6.6 8.2-15.1-16.7-31.8-29.6-52.4-40.1 2.1-1.8 4.3-3.5 6.5-5.2 2.6-1.9 5.5-4 8.6-4.4 1.1-.1 2-1.2 1.9-2.3-.1-1.2-1-2.1-2.2-2.1-10.4-.2-20.6 2.4-29.7 7.1-22.7-9.3-46.8-14.1-71.6-14.1-40.9 0-77.5 11.5-108.8 34.1l-.3.3c-.7 0-1.4-.1-2.1-.1-6.5 0-19 1.4-30.1 10.6-10.9 9.1-17.5 24.5-16 37.5.1.5.2 1 .2 1.5-20.4 30.7-31.4 67-31.4 104.5 0 40 12.4 78.2 35.8 110.5-18.8 1-33 5.6-43.4 13.9l-4.5 3.6 5.7.3c3.8.2 7.2.5 10.4 1.7l-13.1 12.1 5.2.3c1.5.1 4.2.8 6.9 1.4 1.2.3 2.3.6 3.4.8-.2.2-.4.3-.6.5-4.3 3.9-10.7 9.8-12.8 14.3l-2 4.4 4.7-1.3c2.1-.6 4.6-.7 7-.7h1.9c1.5 0 3.1 0 4.6-.2-1.3 3.8-3.5 7.2-5.7 10.8-.9 1.4-1.8 2.8-2.6 4.2l-2.1 3.5 4.1-.2c2.1-.1 5-1.2 8-2.4 2-.8 4.1-1.6 5.2-1.8 2.9-.5 7.4-1 12.2-1 6.6 0 11.8 1 15.5 3 1.9 1 4 2.3 6.3 3.5 7.8 4.5 16.6 9.7 24.5 10.4 5.4.5 10.8-.5 16-1.5 4.2-.8 8.2-1.6 12.1-1.6 1.5 0 2.8.1 4.1.3 3.7.6 7.1 2.1 10.8 3.6 2.1.9 4.2 1.8 6.4 2.5 5.6 1.9 11.7 2.8 18.8 2.8 7.5 0 15.2-1 22.6-2 7.4-1 15-2 22.4-2 2.5 0 4.7.1 6.9.3 3.4.3 6.6 1.1 10.1 1.8 3.6.8 7.4 1.6 11.2 2 2.9.3 5.7.4 8.4.4 7.8 0 13.8-1 19.1-1.9 1.9-.3 3.8-.6 5.6-.9 1.6-.2 3.2-.5 4.8-.7 3.9-.6 7.6-1.2 11.3-1.2 1.2 0 2.2.1 3.3.2 4.4.5 9 1.6 13.5 2.7 1.8.4 3.6.9 5.3 1.3 7.6 1.7 14.2 2.5 20.2 2.5 14.2 0 23.5-4.7 34.3-10.1 5.4-2.7 18.1-3.3 34.6-1.7l3.1.3-.8-3c-1.3-5.1-9-12-15.1-16.8 5.1-1.6 13.7-4.3 17.4-5.1l5.7-1.2-22.2-12.5c4.2-1.5 8.8-2.2 13.3-2.9l4.1-.6-2.8-3.1c-2.2-2.3-7.9-5-15.2-8.3-1.7-.7-3.6-1.6-4.9-2.2.8-1.4 1.8-3 2.8-4.7.4-.6.7-1.2 1.1-1.8v.7c.3 2.4 1.7 4 4 4.5.6.2 1.3.1 1.9-.2 1.3-.6 2.1-2 3-4.3 0 1.6.1 2.8.2 3.5.1.7.5 3 2.8 4.1 1.2.5 2.2.7 3 .7 1.2 0 2.1-.4 2.6-.7 1.3-.8 2.2-2.1 2.2-3.3.1-1.2 0-2.4-.2-3.9-.1-.8-.1-1.7-.2-2.8 1.5 1.3 3.2 2.9 3.8 3.8.7 1 1.9 1.8 3.3 2.2.7.2 2.4.7 4-.2 1.1-.6 1.8-1.7 2.2-3.2.2-1 .2-2-.2-3.1-.7-2-3.2-4.3-6.6-7.1 2.8.7 5 1.2 5.3 1.3 2 .6 4.1-.1 5-1.8 1.1-1 1-2.8 0-4.6zm-42.9-22.5c3.6 2.7 7.2 5.4 11.4 6.9-1.8 3.9-4 7.6-6.6 11-1-.5-2.1-.9-3.2-1.3-6.9-2.2-14-4.1-21-5.9-13.8-3.6-28-7.3-40.7-13.9-1.1-.6-2.4-.2-3 .9-.6 1.1-.2 2.4.9 3 3.1 1.6 6.2 3 9.4 4.4-1 .9-2.2 2-3.8 3.6-1 1-8.5 9.9-13.3 21.3-9.5-2.1-19.3-4.3-29.1-4.3-3.5 0-6.8.3-10 .8-1.4.2-2.7.5-4 .8 2.4-4.7 5.6-9.5 8.1-13 3.4-4.8 6.7-7.6 9.8-10.4 6-5.2 11.2-9.7 13.7-24 .7-3.9 6.3-9.4 10.3-12 3.2 2.1 7 3.2 11 3.2 3.6 0 7-.9 9.9-2.6.5 2.6 1.7 5.2 3.8 6.5 1.7 1.1 3.6 1.5 5.3 1.8.4.1.8.2 1.2.2 3.5.8 6.8 2.4 9.9 4 10.2 5.3 20 11.4 29.1 18.3l.9.7zm-22.1 34.1l-.3.3c-3.9.4-8 .6-12 .6-5 0-9.9-.3-14.8-1l.3-.3c1.5-1.5 3.8-3.7 3.4-7.2-.3-3-.8-4.7-1.1-5.9-.2-.8-.4-1.3-.4-2 0-1 .6-2.2 2.1-3.7 1.9-2 4.2-3.6 6.7-4.8 5.9 1.8 11.9 3.4 17.8 4.9 2.9.8 5.9 1.5 8.9 2.4l-.9 2.1c-.6 1.5-1.3 3.1-2.1 4.6-.9 1.7-2.1 3.4-3.3 5.1-1.5 2-2.6 3.5-4.3 4.9zm-21.7-25.8c-1.5 1-2.9 2.2-4.2 3.5-2.3 2.4-3.4 4.6-3.4 7 0 1.1.3 2 .5 3 .3 1.1.7 2.6 1 5.2.1 1.3-.7 2.3-2.1 3.6-.7.7-1.5 1.5-2.1 2.6-3.7-.7-7.5-1.4-11.2-2.3 4.8-11 11.9-19 12-19.1 3.2-3.2 4.7-4.4 5.3-4.9 1.4.5 2.8 1 4.2 1.4zM291.9 436c-.1-7.3-.2-14.8-.1-22.4 1.1 0 2.3.1 3.4.1 2.3 0 4.7-.1 7-.2 2.4-.1 5-.3 7.5-1.2 1.9-.7 3.4-1.8 4.4-3.1.7-1 .5-2.4-.5-3.1-1-.7-2.4-.5-3.1.5-.4.6-1.2 1.1-2.3 1.5-1.1.4-2.4.6-3.6.8-.1-1.1.6-2.7 1.4-4.1l.1-.3c.7-1.3 2.1-2.3 3.5-2.5 1.2-.2 2-1.3 1.9-2.5-.2-1.2-1.3-2-2.5-1.9-2.9.4-5.5 2.3-7 5.1-.9 1.8-2.1 4-1.9 6.3-2.7.1-5.4.1-8.2 0 .1-5.1.3-10.2.7-15.3 3.3-1.3 6.7-2.3 10.3-3.2 2-.5 4-1 6-1.7 7.8-2.4 13.1-5.5 16.7-9.9.4-.5.8-1.1 1.1-1.6.2 0 .3 0 .5-.1 4-1.3 8.4-1.3 12.4-.2-1.2 1.8-2.1 3.7-2.5 5.5-2.2 12.7-6.7 16.6-12.3 21.4-3.2 2.8-6.9 6-10.6 11.2-3.1 4.4-7.5 10.9-10 17-1.4.4-2.7.8-4.1 1.2-2.7 1.2-5.5 2-8.2 2.7zm79.2-68c-5.2 3.4-13.1 3-18-.8-.7-.6-1.3-1.1-1.6-1.7.3 0 .7.1 1 .1 1.4 0 2.6-.3 3.7-1 2.6-1.6 4.1-5 4.6-10 .1-1.8-.6-3.6-2.1-4.9-.5-.4-1-.7-1.6-1 .1-.7.1-1.4-.1-2.1-.5-1.8-2.1-3.3-4.8-4.4-2.4-1-3.9-2.1-4.7-2.9 1.3-.4 2.8-.5 4.3-.7 1-.1 2-.2 3-.4 2.7-.4 5.2-1.4 7.7-2.3l1.6-.6c5.8-2.1 9.9-2.7 13.6-2.1 3.8.6 8.1 3.1 9.3 7.3 1.1 4.2-1.3 9-3.6 12.6-1.7 2.7-3.6 5.4-5.5 8-1.9 2.6-4.1 5.2-6.8 6.9zm-15.9-15.2c.2 0 .4.1.6.3.4.3.6.8.6 1.2-.3 3.4-1.2 5.8-2.5 6.6-.7.4-1.5.4-2.2.3.9-3 2-5.8 3.5-8.4zm44.9 25.3l.1-.2c.3.1.7.3 1 .4 1.2 1.6 1.2 3.6 0 6-1.2-.7-2.4-1.3-3.5-1.9.6-1.5 1.4-3 2.4-4.3zm43.4-11.3c.1 0 .1 0 .2.1 4.1 1.1 7.5 3.7 9.2 7 2.8 5.6 3.2 9.8 3.6 13.9l.1 1.5c-2.7.6-6.8.8-10.5.9-1.6.1-3.1.1-4.5.2 3.1-6.8 6.4-15.4 1.8-22.7 0-.1 0-.6.1-.9zm-5.1 2.8c-.7 3.2-2.6 6.4-5.9 9.9-1.2 1.3-2.5 2.5-3.8 3.8-1.8 1.7-3.6 3.5-5.3 5.4-.6.8-1.3 1.5-1.9 2.3-1.1 1.4-2.2 2.7-3.4 3.9-4.3-2.9-8.6-5.7-13.1-8.3 3-5.8.8-9.7-.9-11.6 0 0-.7-.5-1.6-1 .7-2 .4-4.2-.8-5.6-.9-1.1-2.3-1.8-3.5-2.4-.5-.2-.9-.5-1.3-.7.2-.2.5-.6 1-.7 2.7-.7 4.4-.7 6.3-.8 1.2 0 2.5 0 4.1-.2 3-.3 6-1.3 8.6-2.9.5-.3.9-.6 1.3-.9.6-.4 1.3-.9 2-1.2 2.3-1.2 5.2-1.4 9.3-.6 2 .4 4.4.9 6.1 2.2 2.8 2.1 3.4 6.3 2.8 9.4zm-4-15.1c-1.4-.5-2.8-.8-4.1-1-3.2-.6-7.9-1-12.1 1.1-.9.4-1.7 1-2.5 1.5-.4.3-.8.5-1.2.8-2 1.3-4.4 2.1-6.7 2.3-1.4.2-2.6.2-3.7.2-2.1 0-4.2.1-7.4.9-2.1.6-3.9 2.4-4.3 4.3-.3 1.5.3 3 1.5 4 .6.5 1.4.9 2.1 1.3.8.4 1.8.9 2.1 1.3.2.3.2.9 0 1.5-.3.7-.8 1.5-1.4 2.3l-.4.6c-1 1.5-1.9 3.1-2.7 4.7-3-1.6-6.3-3.1-9.8-3.9-.4-.1-.9-.2-1.3-.3-1.4-.3-2.8-.6-3.8-1.2-1.4-.9-2.3-4.2-1.8-6.1 1.7-1.6 3.1-3.3 4.5-5.1 2-2.7 4-5.5 5.8-8.3 2.8-4.4 5.7-10.2 4.1-16.1-1.4-5.3-6.6-9.5-12.9-10.5-1.1-.2-2.2-.3-3.3-.3-4.7 0-9.1 1.4-12.4 2.6l-1.7.6c-2.3.9-4.6 1.7-6.8 2.1l-2.7.3c-2.6.3-5.6.5-8.1 2.2l-.8.5-.2.9c-.4 2.3 2 5.8 8.1 8.4 1.9.8 2.2 1.5 2.2 1.5.1.4-.6 1.4-.9 1.8-.2.3-.4.5-.5.7-2.1 3.6-3.6 7.4-4.5 11.4-.1.3-.1.7-.2 1l-.1.2.1.1c-.1.8-.2 1.6 0 2.5.2 1.1.7 2.1 1.5 3.1-1.8 1.3-3.8 3-5.7 5-4.2-1.5-8.8-1.9-13.2-1.2.8-2 1.5-4 2.1-6 1.4-4.5 2.8-9.3 3.9-13.4.8-2.8 1.5-6-.3-8.8-.5-.8-1.1-1.4-1.7-2-.3-.3-.7-.6-.9-1-.7-.9-.9-2.4-.5-4 .3-1.4 1.1-2.8 2-4.2.9.3 1.9.4 2.8.4h.4c6.1-.1 10.7-2 13.1-5.5.7-1 .5-2.4-.5-3.1-1-.7-2.4-.5-3.1.5-2.1 2.9-6.4 3.6-9.6 3.7h-.5c2.6-4 5.3-8 8.2-11.8.7-1 .6-2.4-.4-3.1-1-.7-2.4-.5-3.1.4-1.8 2.3-3.5 4.7-5.1 7.1 0-.1-.1-.1-.1-.2-.4-.9-.5-1.9-.3-2.6.5-1.2 1.1-2.4 1.8-3.5.3-.1.5-.3.7-.5.9-.9.9-2.3 0-3.1l-.9-.8-1 .1c-.8.1-1.5.5-2 1.1-1.2 1.5-2.1 3.3-2.8 5.1-.7 1.9-.5 4.2.5 6.1.4.8.9 1.5 1.6 2.1-1 1.5-2.1 3.1-3 4.7-1.2 1.9-2.3 3.9-2.9 6.1-.7 2.9-.2 5.6 1.3 7.7.4.6.9 1.1 1.4 1.5.4.4.8.8 1 1.1.8 1.2.3 3.4-.2 5.2-1.2 4.1-2.5 8.8-3.9 13.3-1.3 4-2.7 8.2-5.3 11.3-1.8 2.2-4.1 4-7.2 5.6-.7 0-3.1-.8-3.6-1.3-.9-1.1-1.8-2.1-2.4-3.2-.9-1.9-.9-4.3-.8-6.1 0-.7.2-1.4.3-2.2 1.4-.2 3-.5 4.4-1.3 3.1-1.9 5.4-5.1 6.2-8.7.3-1.2-.5-2.4-1.7-2.6-1.2-.3-2.4.5-2.6 1.7-.5 2.4-2.1 4.6-4.2 5.9-.3.2-.7.3-1.2.4.7-2.9 1.7-5.7 3-8.3.4-.3.8-.6 1-1.2.4-1.1-.2-2.4-1.3-2.8-1.1-.4-2.6-.1-3.4 1.5-2.7 5.3-4.3 11.3-4.7 17.3-.2 2.4-.2 5.5 1.2 8.4.8 1.7 2 3 3 4.2.2.3.6.6 1 .8-.5.2-.9.3-1.4.5-1.9.6-3.9 1.1-5.8 1.6-2.9.8-5.8 1.5-8.7 2.6 1.2-12.5 3.6-25 8-36.8 3.5-9.6 8.4-18.6 13-27 10.1-18 20.4-33.6 31.4-50.2 3.4-5.2 7-10.5 10.5-16l1.3-2c.6-.9 1.2-1.9 1.9-2.9.3 0 .5-.1.8-.2 2.5-1.2 5.5-1.4 8.6-1.7 1.2-.1 2.5-.2 3.7-.3 5.5-.7 10.4-2.5 14.5-4.9l.2.2c2 1.2 4.2 2.2 6.4 2.9-1.1 4.6-.1 7.1 3.6 9.9.4.3.9.5 1.3.5.7 0 1.3-.3 1.8-.9.7-1 .5-2.4-.4-3.1-2.3-1.8-2.6-2.5-2-5.3.2 0 .4.1.7.1 2.6.4 5.2.5 7.7.5h2.1c3.1 0 6.7-.1 10-1.1 2.2-.7 4.1-1.7 6-2.8.9-.5 1.9-1 2.9-1.5 8.4 21.2 12.7 43.9 12.7 67.4-.1 15.2-2 29.5-5.3 40.8zm-39-126.7c.2.3.3.5.5.8.6 1 1.5 2.4 2.8 3.1-1.6 1.6-3.1 3.1-4.5 4.4-2.2-1.1-3.3-3.4-4.2-6.7-.3-1.2-1.5-1.9-2.7-1.6-1.2.3-1.9 1.5-1.6 2.7.8 3.1 2.1 6.5 4.9 8.6-4.7 3.8-11.2 7.5-19 8.5-1.1.1-2.3.2-3.5.3-1.8.1-3.6.3-5.4.6 4.7-7.4 9.9-16 11.4-20.8.4-1.2 2.6-2.2 5.3-3.3 3-1.3 6.7-2.9 10.2-5.8l2.1-1.8c.3 3.9 1.5 7.8 3.7 11zm29.7 14.7c-1.1.5-2.2 1.1-3.3 1.7-1.8 1-3.4 1.9-5.2 2.4-1.1.3-2.2.5-3.3.6-1.1-2.8.3-6.3 2.9-7.7 1.1-.5 1.5-1.9 1-3s-1.9-1.5-3-1c-4.2 2.1-6.5 7.3-5.5 11.9h-.9c-3 0-6.1 0-9-.4-2.8-.4-5.5-1.4-8-2.6 2.3-1.6 4.4-3.3 6-4.9 5-4.7 12-11.6 17-19.1 4.4 7.2 8.1 14.6 11.3 22.1zm-13.8-26.1c-2.6 4.3-6 8.5-9.5 12.2-.3-.3-.6-.6-1.1-.7-.3-.1-.8-1-1-1.4-.2-.4-.5-.8-.7-1.1-2.7-3.9-3.5-9.2-2-13.8v-.1c2.2-2.6 3.9-5.3 5.3-8.1 3.2 4.2 6.2 8.6 9 13zm-20.5-27.1c-6.3 5.1-14 8.6-21 9.3-1-5.5-3.8-11-7.9-15.7-4.2-4.7-9.7-8.7-15.9-11.5-3.7-1.7-7.4-2.6-10-3.3-1.2-.3-2.6-.7-3.3-.9-.5-1.9-.7-4-.4-6 .6-4.4 3-8.3 6.2-11.7 20.6 10.4 37.3 23.2 52.3 39.8zm-63-28.7c-.4 2.8-.1 5.7.8 8.4.6 1.9 2.7 2.5 6.3 3.4 2.6.7 5.9 1.5 9.3 3 5.7 2.6 10.7 6.2 14.5 10.4 4.1 4.6 6.7 10.2 7.1 15.6.1.7.4 1.2.9 1.6.5.4 1.2.5 1.8.3.2-.1.4-.1.6-.2.1 0 .3-.1.4-.1 11.3-.8 23.8-8 31.7-17.8.8 11.8-3.8 21.4-14.3 29.9-3.1 2.5-6.3 3.9-9.2 5.2-3.6 1.6-6.7 3-7.7 6-2 6.3-11.8 21.2-16.5 28.3l-1.3 2.1c-3.6 5.5-7.1 10.7-10.5 15.9-11 16.6-21.4 32.3-31.6 50.5-4.8 8.5-9.7 17.7-13.3 27.6-10.3 27.8-9.8 58.8-9.3 86.2-10.5 2-21.4 2-31.8-.2-4.3-.9-8.8-2.2-13-3.5-8.7-2.6-17.7-5.2-27.1-4.8-5.8.2-11.4 1.6-16.9 3-3.6.9-7.2 1.8-10.9 2.3-9.2 1.4-18.8.6-27.6-2.3-3.6-1.2-7.1-2.7-10.6-4.2-6.4-2.8-13.1-5.7-20.4-6.5-4.5-.5-8.8.4-13 1.3.1-47.7 16.2-96 46.6-139.6 15.2-21.8 32.4-42.4 51.2-61.1 8-8 14.8-14.1 21.3-19.2 19.9-15.6 43.5-26.6 68.2-31.8.8-.2 1.4-.8 1.7-1.6 1.2-4.2 3.4-8.4 6.1-11.6 8.7-10.3 21.1-17.3 34.3-19.6-8.3 6.2-16.5 13.1-17.8 23.1zM107 424.1c-.1-.3-.2-.7-.4-1C91.1 402 80.4 378.2 75 353c6.7 0 17.2 1.1 21.8 3.6 3 1.7 5.9 3.7 8.6 5.8l-.3.6c-.8 3.8-3.2 7.2-6.3 9.6-1-2.7-3.5-5.1-7.1-6.6-1.1-.5-2.4.1-2.9 1.2-.5 1.1.1 2.4 1.2 2.9 2.1.8 4.4 2.6 4.8 4.7-1.2.4-2.4.8-3.6.9-1.2.1-2.1 1.2-1.9 2.4.1 1.1 1.1 2 2.2 2h.3c4.9-.6 9.4-3.1 12.8-6.7 1.5 4.2 1.8 8.5-2.7 14.2-.7 1-.6 2.3.4 3.1.4.3.9.5 1.4.5.7 0 1.3-.3 1.7-.8 6.7-8.6 4.8-15.2 2.4-20.8-.1-.1-.2-.2-.2-.4.7-1.2 1.2-2.5 1.6-3.8.9.8 1.8 1.5 2.7 2.3 2.1 1.8 3.8 3.3 4.7 5.3.2.4.5.7.8.9-3.6 16.4-5.5 32.9-5.5 49.4-1.7.2-3.3.5-4.9.8zm214.9-281.9c-5.2 3.3-10 7.4-14 12.2-2.8 3.3-5.1 7.5-6.5 11.9-24.9 5.4-48.7 16.6-68.7 32.4-2.6 2-5.3 4.2-8 6.6-1.7-3.9-1.7-7.3-1-12.1l2.3-17c2.4-.7 4.8-1.1 7.3-1.1s5 .4 7.7.9c3.1.5 6.5 1.1 9.9 1.1h1.7c3.3-.2 8-1.1 11.7-4.4 3.8-3.3 5.6-8.3 7-12.3.4-1.2-.2-2.4-1.4-2.8-1.2-.4-2.4.2-2.8 1.4-1 2.8-2 5.8-3.7 8.2-.1 0-.1-.1-.2-.1-1.4-.2-2.5-2.4-2.8-4.5-.2-1.5-.1-3 .4-4.4.4-1.2-.3-2.4-1.4-2.8-1.1-.4-2.4.3-2.8 1.4-.7 2.1-.8 4.3-.5 6.4.4 2.6 1.6 5.6 3.9 7.2-2.5 1.5-5.4 2.1-7.5 2.2-3.5.2-7.2-.4-10.7-1-2.7-.4-5.4-.9-8.3-.9-2.3 0-4.5.2-6.7.7l1-7.1c.4-2.8.8-5.7 2-8.2 1.8-3.5 5.1-5.7 7.5-6.9 3.4-1.6 7.2-2.5 10.8-3.2 4.3-.8 8.9-1.9 14.9-5.3 1.1-.6 1.4-1.9.8-3-.6-1.1-2-1.4-3-.8-5.1 2.9-9 3.9-12.8 4.7-.6-1.4-1.3-2.5-2.2-3.6 3.3-.6 6.3-2.9 7.6-6 .3-.8.1-1.7-.4-2.4h2.5c22.8.1 45.2 4.3 66.4 12.6zm-77.5-8.4c-.3 0-.6.1-.9.3.1-1.7.9-3.1 1.2-3.5l.6-.6c1.4-.1 2.7-.1 4.1-.2-.2.2-.3.4-.4.6-.7 1.8-2.6 3.2-4.6 3.4zm-127.5 39.8c10-8.3 21.4-9.6 27.2-9.6 3.5 0 6.9.4 9.9 1.2 9 2.4 18.9 13 20.9 17 3.9 8.1 7.1 15.4 6.6 23.6-1 14.5-6.7 23.6-19.6 31.7-3.3 2-11.3 4.1-20.4 4.1-7.3 0-17.8-1.3-26.1-7.5-7-5.2-11.6-14.7-13-26.9-1.3-11.6 4.6-25.4 14.5-33.6zm-17.4 41.8c2.4 9.7 7 17.5 13.3 22.2 9.3 6.9 20.8 8.4 28.8 8.4 10.4 0 18.9-2.4 22.7-4.8 14.1-8.7 20.6-19.2 21.7-35.1.6-9.3-2.9-17.5-7-25.8-2.6-5.3-13.5-16.6-23.7-19.3-.8-.2-1.6-.4-2.5-.6 25.7-17.6 54.9-27.7 87.2-30.2-.4.9-.6 1.9-.7 2.8-.3 2.8.5 5.3 2.5 7.2.6.6 1.1 1.4 1.6 2.3-2.7.6-5.5 1.4-8.1 2.7-3.1 1.5-7.3 4.2-9.6 8.9-1.6 3.1-2 6.5-2.4 9.6l-1.3 9.9c-.2.4-.2.8-.2 1.3l-1.5 11a83.4 83.4 0 0 0-20.9-4.2h-.4c2.8-1.7 6.5-4 8.8-6 2.7-2.4 3.3-6.1 3.7-8.3l.1-.7c.5-2.5.2-5.2 0-7.6-.1-.8-.1-1.6-.2-2.3-.1-1.2-1.1-2.1-2.3-2.1-1.2.1-2.2 1.1-2.1 2.3 0 .8.1 1.6.2 2.5.1 1 .2 2 .2 2.9-1 .2-2 .2-2.9 0-4.8-1.3-4.8-7.1-4.4-10.5.2-1.2-.7-2.3-1.9-2.5-1.2-.2-2.3.7-2.5 1.9-1.1 8.1 1.8 13.8 7.6 15.3.8.2 1.6.3 2.4.3.4 0 .8 0 1.2-.1-.3 1.8-.8 4.2-2.3 5.5-2 1.8-5.9 4.2-8.5 5.8-1.5.9-2.6 1.6-3.3 2.2-.4-.3-.8-.6-1.1-1-.7-.9-.9-2.3-1.1-3.8-.4-2.9-1.8-5-3.1-6.7-1.2-1.7-2.2-3-2.2-4.9 0-1.2-1-2.2-2.2-2.2-1.2-.1-2.2 1-2.2 2.2 0 3.4 1.6 5.6 3 7.6 1.1 1.5 2.1 2.9 2.3 4.7.2 2 .6 4.1 1.9 5.9 2.6 3.6 7.1 3.9 10.8 4.2 7 .5 13.9 2 20.6 4.3l-.3 2.3c-.8 5.9-.7 10.4 2 15.7-3.3 3-6.7 6.2-10.3 9.9-19 18.9-36.4 39.7-51.7 61.7-19.5 28-33.2 57.8-40.7 88.2-1.1-1.4-2.5-2.6-4-3.9-4.5-3.8-9.7-8.2-15.6-11.5-1.3-.7-2.9-1.3-4.7-1.8.9-3 .8-6.4.6-9.6 2.2-1.2 3.9-3.3 4.8-5.9.9-2.8.7-5.8-.6-8.2-.6-1.1-1.9-1.4-3-.9-1.1.6-1.5 1.9-.9 3 .7 1.3.9 3 .3 4.7-.3.9-.8 1.7-1.4 2.4-.8-2.4-2.2-4.5-4.2-6.1-1-.8-2.3-.6-3.1.4-.8 1-.6 2.3.4 3.1 1.8 1.4 2.9 3.6 3.2 6 .3 3.4.7 7.1-.3 10.1-6-1.1-12.6-1.4-15.8-1.4-2.1-11.3-3.2-22.8-3.2-34.5-.1-35.4 9.8-69.4 28.5-98.9zm325 224.7c-1.5 2.4-2.9 4.9-3.9 6.5l-.5.9.3.9c.4 1.4 1.5 1.9 8.1 4.8 2.9 1.3 6.6 2.9 9.5 4.5-4.4.8-8.9 2-13 4.2l-3.5 1.9 19.7 11.1c-6.8 2-16 5-16.5 5.1l-4.1 1.3 3.4 2.5c8.1 5.9 12.8 10.7 15.2 13.8-15.7-1.2-27.2-.4-33 2.5-10.3 5.2-19.2 9.6-32.4 9.6-5.7 0-11.9-.8-19.2-2.4-1.7-.4-3.5-.8-5.2-1.3-4.6-1.1-9.4-2.3-14-2.8-1.2-.1-2.5-.2-3.8-.2-4.1 0-8.1.7-12 1.3-1.6.3-3.1.5-4.7.7-1.9.3-3.8.6-5.8.9-5.1.9-10.9 1.9-18.3 1.9-2.6 0-5.3-.1-8-.4-3.5-.3-7-1.1-10.6-1.9-3.4-.8-7-1.6-10.6-1.9-2.4-.2-4.8-.4-7.4-.4-7.7 0-15.4 1.1-23 2.1-7.3 1-14.8 2-22 2-6.5 0-12.2-.8-17.4-2.6-2-.7-4.1-1.6-6.1-2.4-3.7-1.6-7.6-3.3-11.8-3.9-1.5-.2-3.1-.4-4.8-.4-4.4 0-8.7.8-12.9 1.6-5.1 1-9.9 1.9-14.8 1.5-6.9-.6-15.3-5.5-22.7-9.8-2.3-1.3-4.4-2.6-6.4-3.6-4.4-2.3-10.3-3.5-17.6-3.5-5.1 0-9.8.6-12.9 1.1-1.7.3-3.9 1.1-6.2 2.1l-1.5.6c2.8-4.5 5.7-9.1 6.7-14.8l.6-3.5-3.4 1c-2.1.6-4.6.7-7 .7h-1.9c-1 0-2 0-3 .1 2.7-3.1 6.5-6.6 9.1-9 4-3.7 4.7-4.3 4.1-6l-.6-1.4-1.5-.1c-1.5-.1-4.2-.8-6.9-1.4-1-.3-2.1-.5-3.1-.7l10.7-9.9-2.7-1.5c-3-1.7-6-2.5-9.1-3 9.4-5.8 21.7-8.9 37.4-9.6 3.9-.2 7.7-1.1 11.3-2 4.7-1.1 9.2-2.2 13.7-1.7 6.6.7 12.6 3.4 19.1 6.1 3.5 1.5 7.2 3.1 11 4.4 9.5 3.1 19.8 4 29.6 2.5 3.8-.6 7.6-1.5 11.2-2.4 5.5-1.4 10.7-2.6 16-2.8 8.6-.3 16.9 2.1 25.7 4.7 4.3 1.3 8.8 2.6 13.4 3.5 12.5 2.6 25.8 2.3 38.1-.8 2.9-.7 5.7-1.6 8.5-2.5 4.3-1.3 8.7-2.7 13.1-3.4 3-.5 6-.7 9.3-.7 9.8 0 19.9 2.3 29.6 4.5 5.4 1.2 11 2.5 16.6 3.4 6 1 12 1.4 18.2 1.4 13.4 0 26.2-2.3 37.5-4.9-.1.6-.5 1.2-.9 1.9zm-17.5-3c.4-.6.9-1.2 1.3-1.9 1.2-1.8 2.5-3.6 3.6-5.5.9-1.7 1.7-3.4 2.3-5l1.1-2.6c2.5.7 5.1 1.4 7.5 2.2 2 .6 3.8 1.5 5.3 2.6 1.6 1.1 2.1 2.3 2.3 5.2v.2l-.8.2c-6.8 1.8-14.5 3.5-22.6 4.6zm40.1-12.1l-.3-.1-1.9.1-.5 1.5c-.5 1.7.3 2.3 4.3 5.4 2.6 2 8.7 6.6 9.2 8.2.1.4.1.5.1.6 0 .2-.1.3-.1.4-.2 0-.4-.1-.5-.1l-.4-.1c-.3-.1-.5-.2-.6-.4-.1-.1-6.8-8.3-10.2-7.3-1.1.3-1.7 1.3-1.7 2.4 0 2.9.2 5 .3 6.7.1 1.2.2 2.1.2 2.9-.3.3-.9.2-1.6-.2-.2-.1-.2-.2-.4-1-.1-.6-.1-2.6-.1-4.3 0-5.9-.2-7.5-1.2-8.5l-.8-.7h-.9c-2.2.1-3 2.3-4.5 6.4-.4 1.1-1 2.8-1.6 3.9v-.1c-.1-1 .2-2.4.5-3.9.3-1.7.7-3.4.6-4.9-.2-2.7-.7-5.7-3.7-8.1 2.9-3.8 5.3-7.9 7.2-12.3 2.6.3 5.1 0 7.6-.2l4.2-.5-5 2.4c-1 .5-3.1 2.3-2.9 4.7.2 2.2 2.2 3.8 5.8 4.8l3.1.8c6.8 1.8 9.2 2.5 10.5 4.7.1.1.1.2.1.3-1.9-.5-13.4-3.2-14.8-3.5z"/><path id="XMLID_126_" class="st7" d="M419.7 363.1c-.9.7-1.3 1-1.8 1.5-.2.2-.5.5-.9.8-.9.8-1 2.2-.2 3.1.4.5 1 .8 1.7.8.5 0 1-.2 1.4-.5.4-.4.7-.7 1-.9.4-.4.7-.7 1.5-1.2 1-.7 1.2-2.1.4-3.1-.7-1-2.1-1.2-3.1-.5z"/><path class="st7" d="M425 277.2l-6.7-1.8c-3.8-1-9.9-1.2-15.5-.6.7-2.4 1.9-4.6 3.4-6.6l3.5-4.4-5.5.9c-10 1.6-16.7 10-20 14.6-2.9-5.7-10.2-12.8-16.7-14.4l-4.5-1.2 2 4.2c1 2.1 1.7 4.4 2 6.6-4.5.5-8.8 2.3-12.4 5.1l-3.6 2.8 4.5 1.1c2.6.6 5.1 1.3 7.6 2.1-3 2.3-5.5 5.2-7.4 8.5l-2.8 4.7 6.2-1.7c3.7-1 7.5-2.1 11.3-2.3 4.1-.2 5.6.9 7.8 2.5.8.6 1.8 1.3 2.9 2 .9.5 2 .8 3.1.8.8 0 1.6-.1 2.2-.4 8.6-3.6 18.6-5.1 31.1-7l7.3-1.1-5.2-3.2c-2.2-1.4-6.3-3.2-10-4.5 2.8-1.7 6.2-3.3 9.2-4.3l6.2-2.4zm-22.3 6.2l-3.4 3.3 4.7.5c1.7.2 4.3 1 6.8 2-9.9 1.6-18.7 3.2-26.3 6.4-.2.1-1.2 0-1.5-.1-.9-.5-1.6-1.1-2.4-1.6-2.1-1.6-4.6-3.4-9.4-3.4H370c-2.4.1-4.6.5-6.9 1.1 1.7-1.8 3.7-3.3 5.8-4.5l4.1-2.3-4.5-1.6c-2.3-.9-4.7-1.7-7.2-2.4 2.5-1.1 5.2-1.7 8-1.8h2.4l-.2-2.3c-.1-1.8-.4-3.6-.9-5.3 5.4 3.5 10.1 9.8 10.3 12.4.1 1.6 1.2 2.4 2.4 2.4 1.4 0 2-.9 3.6-3.1 2.3-3.2 6.5-9.2 12.7-12.2-.9 2-1.5 4.2-1.8 6.4l-.4 3 3-.6c2.7-.5 6-.8 9-.8-2.6 1.3-5.1 2.9-6.7 4.5zM84 283.4l11.4 3.7c-2.5 2.5-4.5 5.6-5.7 8.9l-2 5.4 5.1-2.7c6.1-3.2 12.9-5.1 19.5-7 2-.6 3.5-.6 3.9 0l.3.6c.2.6.6 1.4 1.3 2.1.7.7 1.7 1.1 2.7 1.1 1.9 0 3.9-1.4 4.7-3.3.6-1.4.6-2.9.6-4.1v-1.3c.2-2.5 3.1-4.7 5.7-6.5l.5-.4c2.1-1.5 7.1-3.2 10.5-4.3 1.1-.4 2.1-.7 2.9-1l4.3-1.6-3.8-2.4c-2.3-1.4-7.8-2.6-11.7-3.1 1.7-2.8 4-5.3 6.8-8l5-4.9-6.9 1.1c-10.6 1.7-20.2 9.1-24.8 18.8-6.1-5.7-14.5-9.1-22.1-8.8l-7.1.3 6 3.7c2.3 1.4 4.9 4 7 6.7-3.5 1.2-6.8 2.8-10 4.6l-4.1 2.4zm18.5-3.8l2.8-.8-1.5-2.5c-1.2-1.9-2.7-3.8-4.3-5.5 5.3 1.5 10.5 4.7 14.1 9l2.5 3 1.2-3.7c2.4-7.3 8.1-13.5 15.1-16.8-1.4 1.8-2.6 3.8-3.6 6l-1.3 2.9 3.2.2c1.5.1 4.4.5 7 1.1-3.2 1.1-6.3 2.4-8.2 3.8l-.5.4c-3.2 2.3-7.2 5.2-7.5 9.7 0 .5-.1 1.1-.1 1.7 0 1 0 1.8-.3 2.5-.1.2-.3.4-.4.5 0-.1-.1-.2-.1-.3-.2-.5-.4-.9-.6-1.3-.7-1.1-2.2-2.4-5-2.4-1.1 0-2.3.2-3.8.6-4.7 1.3-9.5 2.7-14.1 4.5 1.2-1.5 2.6-2.9 4.2-4l3.6-2.5-9.6-3.1c2.2-1.3 4.7-2.2 7.2-3z"/><path id="XMLID_121_" class="st7" d="M139.2 445.1c-1.2 0-2.2 1-2.2 2.2v11.9c-.9-.2-1.8-.4-2.8-.6-3.6-.9-7.7-1.9-11.1-1.2-.2 0-.5.2-.7.3-.1-4.4-.3-8.8-.7-12.5-.1-1.2-1.2-2.1-2.4-2-1.2.1-2.1 1.2-2 2.4.5 4.3.6 9.7.7 14.8.1 5.2.3 10.6.8 15.1.1 1.1 1.1 2 2.2 2h.2c1.2-.1 2.1-1.2 2-2.4-.4-4-.6-8.8-.7-13.6.4.2.9.3 1.4.2 2.5-.5 6.1.4 9.3 1.2 1.3.3 2.5.6 3.7.8h.2v13c0 1.2 1 2.2 2.2 2.2 1.2 0 2.2-1 2.2-2.2v-29.5c-.1-1.1-1.1-2.1-2.3-2.1z"/><path class="st7" d="M182.1 451.2c-1.2 0-2.6.2-3.9.5-2.6.6-5.8 3.4-7 6-1.7 4-2.1 9-1.2 14.8.9 5.6 4.2 10.2 8.7 12.2 1.4.6 3 .9 4.6.9 4.1 0 7.8-2.1 9.7-5.4 1.5-2.6 1.7-5.7 1.8-8 .1-4.4.2-10.5-2.5-15.2-1.3-2.1-4.2-5.8-10.2-5.8zm8.2 21c0 1.8-.2 4.1-1.2 5.9-1.1 1.9-3.3 3.1-5.8 3.1-1 0-2-.2-2.8-.6-3.1-1.3-5.5-4.8-6.1-8.8-.8-5-.5-9.1.9-12.3.6-1.3 2.6-3.2 3.9-3.5 1-.2 2-.4 2.9-.4 3.6 0 5.4 1.9 6.3 3.5 2.1 3.8 2 9.2 1.9 13.1zM348 460.4c-2.4-2.6-5.1-3.8-8.7-3.8-.9 0-1.9.1-3 .2-3.2.5-6.1 2.8-8.2 6.5-3.6 6.4-3.4 14.3.3 19.6 2.6 3.6 7 5.9 11.6 5.9 2.9 0 5.5-.9 7.5-2.6 3.5-2.8 4.7-7 5.2-10.1.4-3-.2-8.9-1.7-11.7-.8-1.6-2-2.9-3-4zm.4 15.1c-.5 3.2-1.7 5.8-3.6 7.3-1.3 1-2.9 1.6-4.7 1.6-3.1 0-6.3-1.6-8-4-2.8-3.9-2.8-9.9-.1-14.8.8-1.5 2.5-4 5-4.3.9-.1 1.7-.2 2.4-.2 2.3 0 3.9.7 5.4 2.4.8.9 1.8 2 2.4 3.1.9 1.7 1.5 6.7 1.2 8.9zM383.5 456.1c-1.7.1-3.1.4-4.7 2.1l-.4.5-.1.6c-.5 2.5-.1 4.9.3 7.1l4 22.3c.2 1.1 1.1 1.8 2.2 1.8h.4c1.2-.2 2-1.4 1.8-2.6l-2-11.2c1.1.2 2.2.2 3.3.2.1 0 .2.1.3.1 9 1.3 12.3 7.1 13.7 9.6l.2.3c.4.7 1.2 1.1 1.9 1.1.4 0 .7-.1 1.1-.3 1.1-.6 1.4-1.9.8-3l-.2-.3c-1.2-2.2-4-7.1-10.3-10 3.8-2.7 5.4-7.5 4-11.5-1.1-3-3.9-5.4-7.4-6.4-3-.8-6.1-.6-8.9-.4zm12.1 8.4c.8 2.1-.3 4.9-2.4 6.4-2 1.4-4.9 1.9-8 1.3h-.4c-.2 0-.4 0-.6.1l-1.2-6.7c-.3-1.6-.6-3.3-.4-4.8.2-.1.5-.2 1.3-.2 2.4-.2 5-.3 7.3.3 2.1.5 3.8 1.9 4.4 3.6zM238.4 472.9c2.2-1 3.8-2.2 4.8-3.8 2.8-4.3.7-10-2.9-12.6-3.2-2.3-7.5-3-12.3-2l-.3.1c-1.3.3-4.1.8-4.1 3.3-.1 5.6.3 10.4.7 15.4.3 3.8.6 7.7.7 12.2 0 1.2 1 2.2 2.2 2.2h.1c1.2 0 2.2-1 2.2-2.3-.1-3.9-.3-7.4-.6-10.8 1.2.1 2.4 0 3.5-.1.2.2.4.3.7.5 2.6 1 7.5 4.1 12.3 13 .4.7 1.2 1.2 2 1.2.4 0 .7-.1 1-.3 1.1-.6 1.5-1.9.9-3-3.7-7-7.7-10.9-10.9-13zm-9.9-2.8c-.3-3.6-.5-7.2-.5-11.1.2-.1.5-.1.6-.1l.4-.1c3.5-.8 6.6-.3 8.7 1.2 2 1.4 3.2 4.6 1.8 6.6-.6.9-1.6 1.6-3.2 2.3-2.4 1.1-5.1 1.5-7.8 1.2zM292.2 474.8c1.7-.9 3.2-2.1 4.1-3.6 2.8-4.8 0-11-4.3-13.6-3.1-1.9-7.4-2.5-11.9-1.7-2.2.4-3.8 2.3-3.6 4.5.4 9.2 1.2 18.5 2.3 27.6.1 1.1 1.1 2 2.2 2h.3c1.2-.1 2.1-1.2 1.9-2.5-.5-3.9-.9-7.8-1.2-11.7 1.5.2 3.1.4 4.7.4l1.1.8c4.8 3.3 9.3 6.5 10.9 12.1.3 1 1.2 1.6 2.1 1.6.2 0 .4 0 .6-.1 1.2-.3 1.9-1.6 1.5-2.7-1.8-6.2-6.1-9.9-10.7-13.1zm-10.7-3.5c-.3-3.7-.5-7.4-.7-11 3.5-.6 6.7-.2 8.9 1.1 2.5 1.5 4.2 5 2.7 7.6-.8 1.4-2.6 2.5-4.8 2.8-1.9.2-4-.1-6.1-.5z"/><g><path id="XMLID_110_" class="st1" d="M245.4 257.4c-.8-1.3-.9-5.4-.4-7.8 1.2-6.8 4.6-11.3 8.9-17 1.2-1.6 2.4-3.2 3.6-4.9 4.8-6.9 13.1-12.9 20.6-15 1.9-.5 4.8-.9 7.1-.9.8 0 1.5 0 2.1.1.4.1.7.2 1.1.3-.8.2-1.5.5-1.9.6-19.7 7.5-34.4 25.7-37.6 46.5-1.7-.2-2.9-.9-3.5-1.9z"/></g><g><path id="XMLID_109_" class="st7" d="M290 223.8c-1.8 1.9-4.1 3.3-6.5 4.8-1 .6-2 1.2-2.9 1.9-7.6 5.1-13.4 12.4-19 19.4l-2 2.5c-1.9 2.4-3.8 4.5-6.1 5.8 3.5-18.3 17.1-34.7 34.5-41.3 1.9-.7 3.1-.8 3.7-.4.3.2.7.3 1.1.4.1 2.5-1.2 5.1-2.8 6.9z"/></g><g><path id="XMLID_108_" class="st7" d="M329.8 257.5c-4 4.2-6.4 6.7-11.1 9.9-3.5 2.4-9.2 8.4-11.4 12l-.5.9c-1.6 2.7-3.1 5-5.3 6.5.2-2.4 1.3-6.2 2.4-8.6 3.1-6.6 7.6-12.3 15.4-19.8 4.6-4.4 9.6-6.5 15.4-8.9l.1-.1c-.1.6-.3 1.2-.6 1.8-.8 2.5-2.6 4.5-4.4 6.3z"/></g><g><path id="XMLID_107_" class="st1" d="M326.3 241.3c.4-.1.9-.1 1.3-.1 3.1 0 5.8 1.4 6.9 3.6l-1.4.6c-6.2 2.6-11.5 4.9-16.8 9.8-8.2 7.8-13.1 14.1-16.4 21.1-.7 1.5-3 7.5-2.8 11.8-1.1-.1-2.5-.5-3.6-2.1-.9-1.4-.9-3.4-.8-5 .6-8.7 3.2-14.1 11.4-23.2 2.4-2.7 5.5-5.4 8.4-8 1.4-1.3 2.8-2.5 4.1-3.7 3-2.6 6.4-4.3 9.7-4.8z"/></g><g><path id="XMLID_106_" class="st7" d="M271.6 302.6c-.8 5-3 9.6-5.2 14.5-.9 1.9-1.8 3.8-2.6 5.7-1.3 3.1-2.4 6.2-3.4 9.3-1.4 4.2-2.9 8.5-4.9 12.5-2.7 5.4-7.4 12.5-14.9 15-3.3 1.1-7.1 1.3-10.5.4-3.5-.9-6.3-2.9-7.7-5.3-1.1-2-1.4-4.4-1.6-6.3-.5-6.1.2-12.4 2.2-18.2 2.2-6.5 5.9-12.6 9.6-18.5l6.1-9.9c3.1-5.1 6.4-10.4 11.1-13.9 3.1-2.3 6.8-3.6 10.1-3.6 1.9 0 3.6.4 5.1 1.2 6 3.1 7.6 11 6.6 17.1z"/></g><g><path id="XMLID_105_" d="M402.7 283.4l-3.4 3.3 4.7.5c1.7.2 4.3 1 6.8 2-9.9 1.6-18.7 3.2-26.3 6.4-.2.1-1.2 0-1.5-.1-.9-.5-1.6-1.1-2.4-1.6-2.1-1.6-4.6-3.4-9.4-3.4H370c-2.4.1-4.6.5-6.9 1.1 1.7-1.8 3.7-3.3 5.8-4.5l4.1-2.3-4.5-1.6c-2.3-.9-4.7-1.7-7.2-2.4 2.5-1.1 5.2-1.7 8-1.8h2.4l-.2-2.3c-.1-1.8-.4-3.6-.9-5.3 5.4 3.5 10.1 9.8 10.3 12.4.1 1.6 1.2 2.4 2.4 2.4 1.4 0 2-.9 3.6-3.1 2.3-3.2 6.5-9.2 12.7-12.2-.9 2-1.5 4.2-1.8 6.4l-.4 3 3-.6c2.7-.5 6-.8 9-.8-2.6 1.3-5.1 2.9-6.7 4.5z" fill="#5475b0"/></g><g><path id="XMLID_104_" d="M102.5 279.6l2.8-.8-1.5-2.5c-1.2-1.9-2.7-3.8-4.3-5.5 5.3 1.5 10.5 4.7 14.1 9l2.5 3 1.2-3.7c2.4-7.3 8.1-13.5 15.1-16.8-1.4 1.8-2.6 3.8-3.6 6l-1.3 2.9 3.2.2c1.5.1 4.4.5 7 1.1-3.2 1.1-6.3 2.4-8.2 3.8l-.5.4c-3.2 2.3-7.2 5.2-7.5 9.7 0 .5-.1 1.1-.1 1.7 0 1 0 1.8-.3 2.5-.1.2-.3.4-.4.5 0-.1-.1-.2-.1-.3-.2-.5-.4-.9-.6-1.3-.7-1.1-2.2-2.4-5-2.4-1.1 0-2.3.2-3.8.6-4.7 1.3-9.5 2.7-14.1 4.5 1.2-1.5 2.6-2.9 4.2-4l3.6-2.5-9.6-3.1c2.2-1.3 4.7-2.2 7.2-3z" fill="#50bdec"/></g><g><path id="XMLID_103_" class="st4" d="M116.9 173.6c10-8.3 21.4-9.6 27.2-9.6 3.5 0 6.9.4 9.9 1.2 9 2.4 18.9 13 20.9 17 3.9 8.1 7.1 15.4 6.6 23.6-1 14.5-6.7 23.6-19.6 31.7-3.3 2-11.3 4.1-20.4 4.1-7.3 0-17.8-1.3-26.1-7.5-7-5.2-11.6-14.7-13-26.9-1.3-11.6 4.6-25.4 14.5-33.6z"/></g><g><path id="XMLID_102_" class="st6" d="M355.2 352.8c.2 0 .4.1.6.3.4.3.6.8.6 1.2-.3 3.4-1.2 5.8-2.5 6.6-.7.4-1.5.4-2.2.3.9-3 2-5.8 3.5-8.4z"/></g><g><path id="XMLID_101_" class="st6" d="M400.1 378.1l.1-.2c.3.1.7.3 1 .4 1.2 1.6 1.2 3.6 0 6-1.2-.7-2.4-1.3-3.5-1.9.6-1.5 1.4-3 2.4-4.3z"/></g><g><path class="st3" d="M71.8 582.1h1.9v13.2H80v1.6h-8.3v-14.8zM91.4 591.5c0 3.9-2.7 5.7-5.3 5.7-2.9 0-5.1-2.1-5.1-5.5 0-3.6 2.3-5.7 5.3-5.7 3.1 0 5.1 2.2 5.1 5.5zm-8.4.1c0 2.3 1.3 4.1 3.2 4.1 1.8 0 3.2-1.7 3.2-4.1 0-1.8-.9-4.1-3.2-4.1-2.2 0-3.2 2.1-3.2 4.1zM93.9 589.6c0-1.3 0-2.3-.1-3.3h1.7l.1 2.1h.1c.5-1.4 1.6-2.3 2.9-2.3.2 0 .4 0 .5.1v1.8c-.2 0-.4-.1-.7-.1-1.4 0-2.3 1-2.6 2.5 0 .3-.1.6-.1.9v5.7h-1.9v-7.4zM101.9 591.9c0 2.6 1.7 3.7 3.7 3.7 1.4 0 2.2-.2 2.9-.6l.3 1.4c-.7.3-1.8.7-3.5.7-3.3 0-5.2-2.2-5.2-5.4s1.9-5.7 5-5.7c3.5 0 4.4 3.1 4.4 5 0 .4 0 .7-.1.9h-7.5zm5.7-1.4c0-1.2-.5-3.1-2.7-3.1-2 0-2.8 1.8-3 3.1h5.7zM111.9 589.1c0-1.1 0-2-.1-2.9h1.7l.1 1.7h.1c.6-1 1.6-2 3.3-2 1.5 0 2.6.9 3 2.1.3-.6.7-1.1 1.2-1.4.6-.5 1.3-.7 2.4-.7 1.4 0 3.5.9 3.5 4.6v6.3h-1.9v-6c0-2-.7-3.3-2.3-3.3-1.1 0-2 .8-2.3 1.8-.1.3-.2.6-.2 1v6.6h-1.9v-6.4c0-1.7-.7-2.9-2.2-2.9-1.2 0-2.1 1-2.4 1.9-.1.3-.2.6-.2.9v6.4h-1.9v-7.7zM137 583.3c0 .7-.5 1.2-1.2 1.2s-1.2-.5-1.2-1.2.5-1.2 1.2-1.2c.8-.1 1.2.5 1.2 1.2zm-2.1 13.6v-10.7h1.9v10.7h-1.9zM140 589.7c0-1.4 0-2.5-.1-3.5h1.7l.1 1.8c.8-1.3 2.1-2.1 3.8-2.1 2.6 0 4.5 2.2 4.5 5.4 0 3.8-2.3 5.7-4.8 5.7-1.4 0-2.6-.6-3.3-1.7v5.8H140v-11.4zm1.9 2.9c0 .3 0 .6.1.8.4 1.3 1.5 2.3 2.9 2.3 2 0 3.2-1.7 3.2-4.1 0-2.1-1.1-4-3.2-4-1.3 0-2.6.9-2.9 2.4-.1.2-.1.5-.1.8v1.8zM152.3 594.9c.6.4 1.6.8 2.6.8 1.4 0 2.1-.7 2.1-1.6 0-.9-.5-1.4-2-2-1.9-.7-2.8-1.7-2.8-3 0-1.7 1.4-3.1 3.7-3.1 1.1 0 2 .3 2.6.7l-.5 1.4c-.4-.3-1.2-.6-2.2-.6-1.1 0-1.8.7-1.8 1.5 0 .9.6 1.3 2 1.8 1.9.7 2.8 1.6 2.8 3.2 0 1.9-1.5 3.2-4 3.2-1.2 0-2.2-.3-3-.7l.5-1.6zM170.2 594c0 1.1 0 2.1.1 2.9h-1.7l-.1-1.7c-.5.9-1.6 2-3.5 2-1.7 0-3.7-.9-3.7-4.7v-6.2h1.9v5.9c0 2 .6 3.4 2.4 3.4 1.3 0 2.2-.9 2.6-1.8.1-.3.2-.6.2-1v-6.5h1.9v7.7zM173.4 589.1c0-1.1 0-2-.1-2.9h1.7l.1 1.7h.1c.6-1 1.6-2 3.3-2 1.5 0 2.6.9 3 2.1.3-.6.7-1.1 1.2-1.4.6-.5 1.3-.7 2.4-.7 1.4 0 3.5.9 3.5 4.6v6.3h-1.9v-6c0-2-.7-3.3-2.3-3.3-1.1 0-2 .8-2.3 1.8-.1.3-.2.6-.2 1v6.6H180v-6.4c0-1.7-.7-2.9-2.2-2.9-1.2 0-2.1 1-2.4 1.9-.1.3-.2.6-.2.9v6.4h-1.9v-7.7zM205.6 581.3v12.9c0 .9 0 2 .1 2.8H204l-.1-1.8c-.6 1.2-1.9 2.1-3.6 2.1-2.6 0-4.6-2.2-4.6-5.4 0-3.5 2.2-5.7 4.8-5.7 1.6 0 2.7.8 3.2 1.6v-6.4h1.9zm-2 9.3c0-.2 0-.6-.1-.8-.3-1.2-1.3-2.2-2.8-2.2-2 0-3.2 1.8-3.2 4.1 0 2.2 1.1 3.9 3.1 3.9 1.3 0 2.5-.9 2.8-2.3.1-.3.1-.5.1-.8v-1.9zM218.4 591.5c0 3.9-2.7 5.7-5.3 5.7-2.9 0-5.1-2.1-5.1-5.5 0-3.6 2.3-5.7 5.3-5.7 3.1 0 5.1 2.2 5.1 5.5zm-8.4.1c0 2.3 1.3 4.1 3.2 4.1 1.8 0 3.2-1.7 3.2-4.1 0-1.8-.9-4.1-3.2-4.1-2.2 0-3.2 2.1-3.2 4.1zM220.9 581.3h1.9v15.6h-1.9v-15.6zM235.7 591.5c0 3.9-2.7 5.7-5.3 5.7-2.9 0-5.1-2.1-5.1-5.5 0-3.6 2.3-5.7 5.3-5.7s5.1 2.2 5.1 5.5zm-8.5.1c0 2.3 1.3 4.1 3.2 4.1 1.9 0 3.2-1.7 3.2-4.1 0-1.8-.9-4.1-3.2-4.1-2.2 0-3.2 2.1-3.2 4.1zM238.1 589.6c0-1.3 0-2.3-.1-3.3h1.7l.1 2.1h.1c.5-1.4 1.6-2.3 2.9-2.3.2 0 .4 0 .6.1v1.8c-.2 0-.4-.1-.7-.1-1.4 0-2.3 1-2.6 2.5 0 .3-.1.6-.1.9v5.7h-1.9v-7.4zM249.7 594.9c.6.4 1.6.8 2.6.8 1.4 0 2.1-.7 2.1-1.6 0-.9-.5-1.4-2-2-1.9-.7-2.8-1.7-2.8-3 0-1.7 1.4-3.1 3.7-3.1 1.1 0 2 .3 2.6.7l-.5 1.4c-.4-.3-1.2-.6-2.2-.6-1.1 0-1.8.7-1.8 1.5 0 .9.6 1.3 2 1.8 1.8.7 2.8 1.6 2.8 3.2 0 1.9-1.5 3.2-4 3.2-1.2 0-2.2-.3-3-.7l.5-1.6zM260.9 583.3c0 .7-.5 1.2-1.2 1.2s-1.2-.5-1.2-1.2.5-1.2 1.2-1.2c.7-.1 1.2.5 1.2 1.2zm-2.2 13.6v-10.7h1.9v10.7h-1.9zM266.2 583.2v3.1h2.8v1.5h-2.8v5.7c0 1.3.4 2.1 1.4 2.1.5 0 .9-.1 1.1-.1l.1 1.5c-.4.2-1 .3-1.7.3-.9 0-1.6-.3-2.1-.8-.5-.6-.7-1.5-.7-2.8v-5.8h-1.7v-1.5h1.7v-2.6l1.9-.6zM281.7 596.9l-.2-1.3h-.1c-.6.8-1.7 1.6-3.3 1.6-2.2 0-3.3-1.5-3.3-3.1 0-2.6 2.3-4 6.4-4v-.2c0-.9-.2-2.5-2.4-2.5-1 0-2 .3-2.8.8l-.4-1.3c.9-.6 2.2-.9 3.5-.9 3.3 0 4.1 2.2 4.1 4.4v4c0 .9 0 1.8.2 2.6h-1.7zm-.3-5.4c-2.1 0-4.5.3-4.5 2.4 0 1.3.8 1.8 1.8 1.8 1.4 0 2.3-.9 2.6-1.8.1-.2.1-.4.1-.6v-1.8zM286.4 589.1c0-1.1 0-2-.1-2.9h1.7l.1 1.7h.1c.6-1 1.6-2 3.3-2 1.5 0 2.6.9 3 2.1.3-.6.7-1.1 1.2-1.4.6-.5 1.3-.7 2.4-.7 1.4 0 3.5.9 3.5 4.6v6.3h-1.9v-6c0-2-.7-3.3-2.3-3.3-1.1 0-2 .8-2.3 1.8-.1.3-.2.6-.2 1v6.6H293v-6.4c0-1.7-.7-2.9-2.2-2.9-1.2 0-2.1 1-2.4 1.9-.1.3-.2.6-.2.9v6.4h-1.9v-7.7zM305.8 591.9c0 2.6 1.7 3.7 3.6 3.7 1.4 0 2.2-.2 3-.6l.3 1.4c-.7.3-1.8.7-3.5.7-3.3 0-5.2-2.2-5.2-5.4s1.9-5.7 5-5.7c3.5 0 4.4 3.1 4.4 5 0 .4 0 .7-.1.9h-7.5zm5.7-1.4c0-1.2-.5-3.1-2.7-3.1-2 0-2.8 1.8-3 3.1h5.7zM318.1 583.2v3.1h2.8v1.5h-2.8v5.7c0 1.3.4 2.1 1.4 2.1.5 0 .9-.1 1.1-.1l.1 1.5c-.4.2-1 .3-1.7.3-.9 0-1.6-.3-2.1-.8-.5-.6-.7-1.5-.7-2.8v-5.8h-1.7v-1.5h1.7v-2.6l1.9-.6zM321.7 599.6c.5-1.3 1.1-3.7 1.3-5.3l2.2-.2c-.5 1.9-1.5 4.3-2.1 5.3l-1.4.2zM339.8 596.5c-.5.3-1.6.6-3.1.6-3.2 0-5.3-2.2-5.3-5.4 0-3.3 2.2-5.7 5.7-5.7 1.1 0 2.2.3 2.7.6l-.4 1.5c-.5-.3-1.2-.5-2.2-.5-2.4 0-3.8 1.8-3.8 4 0 2.5 1.6 4 3.7 4 1.1 0 1.8-.3 2.4-.5l.3 1.4zM351.6 591.5c0 3.9-2.7 5.7-5.3 5.7-2.9 0-5.1-2.1-5.1-5.5 0-3.6 2.3-5.7 5.3-5.7s5.1 2.2 5.1 5.5zm-8.5.1c0 2.3 1.3 4.1 3.2 4.1 1.9 0 3.2-1.7 3.2-4.1 0-1.8-.9-4.1-3.2-4.1-2.2 0-3.2 2.1-3.2 4.1zM354 589.1c0-1.1 0-2-.1-2.9h1.7l.1 1.8c.5-1 1.8-2 3.5-2 1.5 0 3.8.9 3.8 4.5v6.4h-1.9v-6.1c0-1.7-.6-3.1-2.5-3.1-1.3 0-2.3.9-2.6 2-.1.2-.1.6-.1.9v6.4H354v-7.9zM365.9 594.9c.6.4 1.6.8 2.6.8 1.4 0 2.1-.7 2.1-1.6 0-.9-.5-1.4-2-2-1.9-.7-2.8-1.7-2.8-3 0-1.7 1.4-3.1 3.7-3.1 1.1 0 2 .3 2.6.7l-.5 1.4c-.4-.3-1.2-.6-2.2-.6-1.1 0-1.8.7-1.8 1.5 0 .9.6 1.3 2 1.8 1.9.7 2.8 1.6 2.8 3.2 0 1.9-1.5 3.2-4 3.2-1.2 0-2.2-.3-3-.7l.5-1.6zM376 591.9c0 2.6 1.7 3.7 3.7 3.7 1.4 0 2.2-.2 3-.6l.3 1.4c-.7.3-1.9.7-3.5.7-3.3 0-5.2-2.2-5.2-5.4s1.9-5.7 5-5.7c3.5 0 4.4 3.1 4.4 5 0 .4 0 .7-.1.9H376zm5.7-1.4c0-1.2-.5-3.1-2.7-3.1-2 0-2.8 1.8-3 3.1h5.7zM393.5 596.5c-.5.3-1.6.6-3.1.6-3.2 0-5.3-2.2-5.3-5.4 0-3.3 2.2-5.7 5.7-5.7 1.1 0 2.2.3 2.7.6l-.4 1.5c-.5-.3-1.2-.5-2.2-.5-2.4 0-3.8 1.8-3.8 4 0 2.5 1.6 4 3.7 4 1.1 0 1.8-.3 2.4-.5l.3 1.4zM398.4 583.2v3.1h2.8v1.5h-2.8v5.7c0 1.3.4 2.1 1.5 2.1.5 0 .9-.1 1.1-.1l.1 1.5c-.4.2-1 .3-1.7.3-.9 0-1.6-.3-2.1-.8-.6-.6-.7-1.5-.7-2.8v-5.8h-1.7v-1.5h1.7v-2.6l1.8-.6zM404.3 591.9c0 2.6 1.7 3.7 3.7 3.7 1.4 0 2.2-.2 2.9-.6l.3 1.4c-.7.3-1.8.7-3.5.7-3.3 0-5.2-2.2-5.2-5.4s1.9-5.7 5-5.7c3.5 0 4.4 3.1 4.4 5 0 .4 0 .7-.1.9h-7.5zm5.7-1.4c0-1.2-.5-3.1-2.7-3.1-2 0-2.8 1.8-3 3.1h5.7zM416.6 583.2v3.1h2.8v1.5h-2.8v5.7c0 1.3.4 2.1 1.5 2.1.5 0 .9-.1 1.1-.1l.1 1.5c-.4.2-1 .3-1.7.3-.9 0-1.6-.3-2.1-.8-.6-.6-.7-1.5-.7-2.8v-5.8H413v-1.5h1.7v-2.6l1.9-.6zM430.5 594c0 1.1 0 2.1.1 2.9h-1.7l-.1-1.7c-.5.9-1.6 2-3.5 2-1.7 0-3.7-.9-3.7-4.7v-6.2h1.9v5.9c0 2 .6 3.4 2.4 3.4 1.3 0 2.2-.9 2.6-1.8.1-.3.2-.6.2-1v-6.5h1.9v7.7zM433.7 589.6c0-1.3 0-2.3-.1-3.3h1.7l.1 2.1h.1c.5-1.4 1.7-2.3 3-2.3.2 0 .4 0 .5.1v1.8c-.2 0-.4-.1-.7-.1-1.4 0-2.3 1-2.6 2.5 0 .3-.1.6-.1.9v5.7h-1.9v-7.4zM77.6 623.3l-.2-1.3h-.1c-.6.8-1.7 1.6-3.3 1.6-2.2 0-3.3-1.5-3.3-3.1 0-2.6 2.3-4 6.4-4v-.2c0-.9-.2-2.5-2.4-2.5-1 0-2 .3-2.8.8l-.4-1.3c.9-.6 2.2-.9 3.5-.9 3.3 0 4.1 2.2 4.1 4.4v4c0 .9 0 1.8.2 2.6h-1.7zm-.3-5.4c-2.1 0-4.5.3-4.5 2.4 0 1.3.8 1.8 1.8 1.8 1.4 0 2.3-.9 2.6-1.8.1-.2.1-.4.1-.6v-1.8zM91.5 607.7v12.9c0 .9 0 2 .1 2.8h-1.7l-.1-1.9c-.6 1.2-1.9 2.1-3.6 2.1-2.6 0-4.6-2.2-4.6-5.4 0-3.5 2.2-5.7 4.8-5.7 1.6 0 2.7.8 3.2 1.6v-6.4h1.9zm-1.9 9.3c0-.2 0-.6-.1-.8-.3-1.2-1.3-2.2-2.8-2.2-2 0-3.2 1.8-3.2 4.1 0 2.2 1.1 3.9 3.1 3.9 1.3 0 2.5-.9 2.8-2.3.1-.3.1-.5.1-.8V617zM96.9 609.7c0 .7-.5 1.2-1.2 1.2s-1.2-.5-1.2-1.2.5-1.2 1.2-1.2c.7-.1 1.2.5 1.2 1.2zm-2.2 13.6v-10.7h1.9v10.7h-1.9zM99.9 616.1c0-1.4 0-2.5-.1-3.5h1.7l.1 1.8c.8-1.3 2-2.1 3.8-2.1 2.6 0 4.5 2.2 4.5 5.4 0 3.8-2.3 5.7-4.8 5.7-1.4 0-2.6-.6-3.3-1.7v5.8h-1.9v-11.4zm1.9 2.9c0 .3 0 .6.1.8.4 1.3 1.5 2.3 2.9 2.3 2 0 3.2-1.7 3.2-4.1 0-2.1-1.1-4-3.2-4-1.3 0-2.6.9-2.9 2.4-.1.2-.1.5-.1.8v1.8zM114.5 609.7c0 .7-.5 1.2-1.2 1.2s-1.2-.5-1.2-1.2.5-1.2 1.2-1.2c.8-.1 1.2.5 1.2 1.2zm-2.1 13.6v-10.7h1.9v10.7h-1.9zM117.3 621.3c.6.4 1.6.8 2.6.8 1.4 0 2.1-.7 2.1-1.6 0-.9-.5-1.4-2-2-1.9-.7-2.8-1.7-2.8-3 0-1.7 1.4-3.1 3.7-3.1 1.1 0 2 .3 2.6.7l-.5 1.4c-.4-.3-1.2-.6-2.2-.6-1.1 0-1.8.7-1.8 1.5 0 .9.6 1.3 2 1.8 1.8.7 2.8 1.6 2.8 3.2 0 1.9-1.5 3.2-4 3.2-1.2 0-2.2-.3-3-.7l.5-1.6zM133.8 622.9c-.5.3-1.6.6-3.1.6-3.2 0-5.3-2.2-5.3-5.4 0-3.3 2.2-5.7 5.7-5.7 1.1 0 2.2.3 2.7.6l-.4 1.5c-.5-.3-1.2-.5-2.2-.5-2.4 0-3.8 1.8-3.8 4 0 2.5 1.6 4 3.7 4 1.1 0 1.8-.3 2.4-.5l.3 1.4zM138.3 609.7c0 .7-.5 1.2-1.2 1.2s-1.2-.5-1.2-1.2.5-1.2 1.2-1.2c.7-.1 1.2.5 1.2 1.2zm-2.2 13.6v-10.7h1.9v10.7h-1.9zM141.3 615.5c0-1.1 0-2-.1-2.9h1.7l.1 1.8c.5-1 1.8-2 3.5-2 1.5 0 3.8.9 3.8 4.5v6.4h-1.9v-6.1c0-1.7-.6-3.1-2.5-3.1-1.3 0-2.3.9-2.6 2-.1.2-.1.6-.1.9v6.4h-1.9v-7.9zM162.6 612.7c0 .8-.1 1.6-.1 2.9v6.2c0 2.4-.5 3.9-1.5 4.9-1 1-2.5 1.3-3.9 1.3-1.3 0-2.7-.3-3.5-.9l.5-1.5c.7.4 1.8.8 3.1.8 2 0 3.4-1 3.4-3.7v-1.2c-.6 1-1.7 1.8-3.4 1.8-2.6 0-4.5-2.2-4.5-5.2 0-3.6 2.4-5.7 4.8-5.7 1.9 0 2.9 1 3.3 1.9l.1-1.6h1.7zm-2 4.2c0-.3 0-.6-.1-.9-.3-1.1-1.3-2-2.7-2-1.8 0-3.2 1.6-3.2 4 0 2.1 1.1 3.8 3.1 3.8 1.2 0 2.3-.7 2.7-2 .1-.3.2-.7.2-1v-1.9zM171.5 618.3c0 2.6 1.7 3.7 3.6 3.7 1.4 0 2.2-.2 3-.6l.3 1.4c-.7.3-1.9.7-3.5.7-3.3 0-5.2-2.2-5.2-5.4s1.9-5.7 5-5.7c3.5 0 4.4 3.1 4.4 5 0 .4 0 .7-.1.9h-7.5zm5.7-1.4c0-1.2-.5-3.1-2.7-3.1-2 0-2.8 1.8-3 3.1h5.7zM181.4 607.7h1.9v15.6h-1.9v-15.6zM188.8 609.7c0 .7-.5 1.2-1.2 1.2s-1.2-.5-1.2-1.2.5-1.2 1.2-1.2c.7-.1 1.2.5 1.2 1.2zm-2.2 13.6v-10.7h1.9v10.7h-1.9zM194.1 609.6v3.1h2.8v1.5h-2.8v5.7c0 1.3.4 2.1 1.5 2.1.5 0 .9-.1 1.1-.1l.1 1.5c-.4.2-1 .3-1.7.3-.9 0-1.6-.3-2.1-.8-.6-.6-.7-1.5-.7-2.8v-5.8h-1.7v-1.5h1.7v-2.6l1.8-.6zM197.7 626c.5-1.3 1.1-3.7 1.3-5.3l2.2-.2c-.5 1.9-1.5 4.3-2.1 5.3l-1.4.2zM208 621.3c.6.4 1.6.8 2.6.8 1.4 0 2.1-.7 2.1-1.6 0-.9-.5-1.4-2-2-1.9-.7-2.8-1.7-2.8-3 0-1.7 1.4-3.1 3.7-3.1 1.1 0 2 .3 2.6.7l-.5 1.4c-.4-.3-1.2-.6-2.2-.6-1.1 0-1.8.7-1.8 1.5 0 .9.6 1.3 2 1.8 1.8.7 2.8 1.6 2.8 3.2 0 1.9-1.5 3.2-4 3.2-1.2 0-2.2-.3-3-.7l.5-1.6zM218 618.3c0 2.6 1.7 3.7 3.7 3.7 1.4 0 2.2-.2 2.9-.6l.3 1.4c-.7.3-1.9.7-3.5.7-3.3 0-5.2-2.2-5.2-5.4s1.9-5.7 5-5.7c3.5 0 4.4 3.1 4.4 5 0 .4 0 .7-.1.9H218zm5.7-1.4c0-1.2-.5-3.1-2.7-3.1-2 0-2.8 1.8-3 3.1h5.7zM237.2 607.7v12.9c0 .9 0 2 .1 2.8h-1.7l-.1-1.9c-.6 1.2-1.9 2.1-3.6 2.1-2.6 0-4.6-2.2-4.6-5.4 0-3.5 2.2-5.7 4.8-5.7 1.6 0 2.7.8 3.2 1.6v-6.4h1.9zm-2 9.3c0-.2 0-.6-.1-.8-.3-1.2-1.3-2.2-2.8-2.2-2 0-3.2 1.8-3.2 4.1 0 2.2 1.1 3.9 3.1 3.9 1.3 0 2.5-.9 2.8-2.3.1-.3.1-.5.1-.8V617zM254.2 607.7v12.9c0 .9 0 2 .1 2.8h-1.7l-.1-1.9c-.6 1.2-1.9 2.1-3.6 2.1-2.6 0-4.6-2.2-4.6-5.4 0-3.5 2.2-5.7 4.8-5.7 1.6 0 2.7.8 3.2 1.6v-6.4h1.9zm-1.9 9.3c0-.2 0-.6-.1-.8-.3-1.2-1.3-2.2-2.8-2.2-2 0-3.2 1.8-3.2 4.1 0 2.2 1.1 3.9 3.1 3.9 1.3 0 2.5-.9 2.8-2.3.1-.3.1-.5.1-.8V617zM267.1 617.9c0 3.9-2.7 5.7-5.3 5.7-2.9 0-5.1-2.1-5.1-5.5 0-3.6 2.3-5.7 5.3-5.7s5.1 2.2 5.1 5.5zm-8.5.1c0 2.3 1.3 4.1 3.2 4.1 1.8 0 3.2-1.7 3.2-4.1 0-1.8-.9-4.1-3.2-4.1-2.2 0-3.2 2.1-3.2 4.1zM275.2 618.3c0 2.6 1.7 3.7 3.7 3.7 1.4 0 2.2-.2 3-.6l.3 1.4c-.7.3-1.9.7-3.5.7-3.3 0-5.2-2.2-5.2-5.4s1.9-5.7 5-5.7c3.5 0 4.4 3.1 4.4 5 0 .4 0 .7-.1.9h-7.6zm5.7-1.4c0-1.2-.5-3.1-2.7-3.1-2 0-2.8 1.8-3 3.1h5.7zM287.3 609.7c0 .7-.5 1.2-1.2 1.2s-1.2-.5-1.2-1.2.5-1.2 1.2-1.2c.8-.1 1.2.5 1.2 1.2zm-2.1 13.6v-10.7h1.9v10.7h-1.9zM299.3 620.4c0 1.1 0 2.1.1 2.9h-1.7l-.1-1.7c-.5.9-1.6 2-3.5 2-1.7 0-3.7-.9-3.7-4.7v-6.2h1.9v5.9c0 2 .6 3.4 2.4 3.4 1.3 0 2.2-.9 2.6-1.8.1-.3.2-.6.2-1v-6.5h1.9v7.7zM302.2 621.3c.6.4 1.6.8 2.6.8 1.4 0 2.1-.7 2.1-1.6 0-.9-.5-1.4-2-2-1.9-.7-2.8-1.7-2.8-3 0-1.7 1.4-3.1 3.7-3.1 1.1 0 2 .3 2.6.7l-.5 1.4c-.4-.3-1.2-.6-2.2-.6-1.1 0-1.8.7-1.8 1.5 0 .9.6 1.3 2 1.8 1.8.7 2.8 1.6 2.8 3.2 0 1.9-1.4 3.2-4 3.2-1.2 0-2.2-.3-3-.7l.5-1.6zM311.2 615.5c0-1.1 0-2-.1-2.9h1.7l.1 1.7h.1c.6-1 1.6-2 3.3-2 1.5 0 2.6.9 3 2.1.3-.6.7-1.1 1.2-1.4.6-.5 1.3-.7 2.4-.7 1.4 0 3.5.9 3.5 4.6v6.3h-1.9v-6c0-2-.7-3.3-2.3-3.3-1.1 0-2 .8-2.3 1.8-.1.3-.2.6-.2 1v6.6h-1.9v-6.4c0-1.7-.7-2.9-2.2-2.9-1.2 0-2.1 1-2.4 1.9-.1.3-.2.6-.2.9v6.4h-1.9v-7.7zM339.2 617.9c0 3.9-2.7 5.7-5.3 5.7-2.9 0-5.1-2.1-5.1-5.5 0-3.6 2.3-5.7 5.3-5.7s5.1 2.2 5.1 5.5zm-8.5.1c0 2.3 1.3 4.1 3.2 4.1 1.9 0 3.2-1.7 3.2-4.1 0-1.8-.9-4.1-3.2-4.1-2.2 0-3.2 2.1-3.2 4.1zM350.8 607.7v12.9c0 .9 0 2 .1 2.8h-1.7l-.1-1.9c-.6 1.2-1.9 2.1-3.6 2.1-2.6 0-4.6-2.2-4.6-5.4 0-3.5 2.2-5.7 4.8-5.7 1.6 0 2.7.8 3.2 1.6v-6.4h1.9zm-1.9 9.3c0-.2 0-.6-.1-.8-.3-1.2-1.3-2.2-2.8-2.2-2 0-3.2 1.8-3.2 4.1 0 2.2 1.1 3.9 3.1 3.9 1.3 0 2.5-.9 2.8-2.3.1-.3.1-.5.1-.8V617zM361 609.6v3.1h2.8v1.5H361v5.7c0 1.3.4 2.1 1.5 2.1.5 0 .9-.1 1.1-.1l.1 1.5c-.4.2-1 .3-1.7.3-.9 0-1.6-.3-2.1-.8-.6-.6-.7-1.5-.7-2.8v-5.8h-1.7v-1.5h1.7v-2.6l1.8-.6zM366.9 618.3c0 2.6 1.7 3.7 3.7 3.7 1.4 0 2.2-.2 2.9-.6l.3 1.4c-.7.3-1.8.7-3.5.7-3.3 0-5.2-2.2-5.2-5.4s1.9-5.7 5-5.7c3.5 0 4.4 3.1 4.4 5 0 .4 0 .7-.1.9h-7.5zm5.7-1.4c0-1.2-.5-3.1-2.7-3.1-2 0-2.8 1.8-3 3.1h5.7zM376.8 615.5c0-1.1 0-2-.1-2.9h1.7l.1 1.7h.1c.6-1 1.6-2 3.3-2 1.5 0 2.6.9 3 2.1.3-.6.7-1.1 1.2-1.4.6-.5 1.3-.7 2.4-.7 1.4 0 3.5.9 3.5 4.6v6.3h-1.9v-6c0-2-.7-3.3-2.3-3.3-1.1 0-2 .8-2.3 1.8-.1.3-.2.6-.2 1v6.6h-1.9v-6.4c0-1.7-.7-2.9-2.2-2.9-1.2 0-2.1 1-2.4 1.9-.1.3-.2.6-.2.9v6.4h-1.9v-7.7zM395.2 616.1c0-1.4 0-2.5-.1-3.5h1.7l.1 1.8c.8-1.3 2-2.1 3.8-2.1 2.6 0 4.5 2.2 4.5 5.4 0 3.8-2.3 5.7-4.8 5.7-1.4 0-2.6-.6-3.3-1.7v5.8h-1.9v-11.4zm1.9 2.9c0 .3 0 .6.1.8.3 1.3 1.5 2.3 2.9 2.3 2.1 0 3.2-1.7 3.2-4.1 0-2.1-1.1-4-3.2-4-1.3 0-2.6.9-2.9 2.4-.1.2-.1.5-.1.8v1.8zM417.3 617.9c0 3.9-2.7 5.7-5.3 5.7-2.9 0-5.1-2.1-5.1-5.5 0-3.6 2.3-5.7 5.3-5.7 3.1 0 5.1 2.2 5.1 5.5zm-8.4.1c0 2.3 1.3 4.1 3.2 4.1 1.9 0 3.2-1.7 3.2-4.1 0-1.8-.9-4.1-3.2-4.1-2.2 0-3.2 2.1-3.2 4.1zM419.8 616c0-1.3 0-2.3-.1-3.3h1.7l.1 2.1h.1c.5-1.4 1.7-2.3 3-2.3.2 0 .4 0 .5.1v1.8c-.2 0-.4-.1-.7-.1-1.4 0-2.3 1-2.6 2.5 0 .3-.1.6-.1.9v5.7h-1.9V616z"/></g></svg>