<svg version="1.1" id="Layer_1" xmlns="http://www.w3.org/2000/svg" x="0" y="0" width="510" height="710" xml:space="preserve"><style>.st1{fill:#fcb542}.st2{fill:#ef477e}.st3{fill:#fec65f}.st5{fill:#fdcd9d}.st6{fill:#c61e50}.st7{fill:#50bdec}.st8{fill:#231f20}.st9{fill:#505050}.st10{fill:#152347}</style><path id="XMLID_183_" fill="#fdd0b1" d="M5 1.4h500v707.1H5z"/><path id="XMLID_182_" class="st1" d="M402.4 437.6c-6.2.3-12.6.5-19.2.7-.6-4.9-6.7-55.2-10.4-66.4-1-3.1-3-7.4-6.3-10.2-.8-.7-1.7-1.1-2.7-1.3l-.2-.5c4.8-2.1 7-8 6.4-17.7-.3-5.8-.7-12.4-3.4-18.2-2.1-4.6-5.4-7.7-9.2-8.7-2.1-.6-4.2-.4-6.3-.3-1.7.1-3.3.2-4.7-.1-2.5-.6-4.7-2.6-6.9-4.7l-1.2-1.1c-11.8-11-29.1-16.2-45-13.6-.8.1-1.3.6-1.6 1.3-4.6-.8-9.3-1.2-14.2-1.3-.1-.5-.2-1-.2-1.3 0-.3-.1-.6-.2-.9.1-.2.1-.5.1-.7-.2-2 0-4.8.3-5.9l2.1-.3h.2l1.9 5.7c.3.9 1.2 1.5 2.1 1.5.2 0 .5 0 .7-.1 1.1-.4 1.8-1.6 1.4-2.7l-1.6-4.9c3.3-.5 6.1-.9 8.7-1.3.5 2.6 1.1 5.2 1.8 7.7.3 1 1.1 1.6 2.1 1.6.2 0 .4 0 .6-.1 1.2-.3 1.8-1.5 1.5-2.7-.7-2.4-1.3-4.9-1.8-7.4 2.1-.5 4.2-1 6.3-1.7.3-.1.7-.2 1.1-.3l3.1 8.8c.3.9 1.2 1.5 2.1 1.5.2 0 .5 0 .7-.1 1.1-.4 1.7-1.6 1.3-2.8l-3-8.6c3.3-1 7-2.1 9.3-2.8.3-.1.5-.2.8-.2 1 3 2.1 6 3.3 8.9.3.8 1.2 1.4 2 1.4.3 0 .5-.1.8-.2 1.1-.4 1.7-1.7 1.2-2.8-1.1-2.8-2.2-5.7-3.1-8.5 2.9-.9 5.6-1.8 8.1-2.7 2.1 3.3 4 6.9 5.5 10.5.4.8 1.2 1.3 2 1.3.3 0 .6-.1.9-.2 1.1-.5 1.6-1.8 1.1-2.9-1.5-3.5-3.3-6.9-5.3-10.2.7-.3 1.5-.5 2.2-.8 2.1-.8 4.1-1.5 6.1-2.2.4 2.4 1.3 4.6 2.2 6.8.7 1.7 1.3 3.3 1.7 4.9.2 1 1.1 1.6 2.1 1.6.2 0 .4 0 .5-.1 1.2-.3 1.9-1.5 1.6-2.6-.5-1.9-1.2-3.7-1.9-5.5-.9-2.2-1.7-4.4-2-6.5 2.6-.8 5.3-1.6 8.3-2.3l3 12.9c.2 1 1.1 1.7 2.1 1.7.2 0 .3 0 .5-.1 1.2-.3 1.9-1.4 1.6-2.6l-3-12.9c.6-.1 1.5-.4 2.3-.8.7.2 1.5.2 2.3.3l-.3 7.5v2.2h10.2c2.3 0 3.3-1.1 3.7-1.9.4-.8.3-1.6.3-2l-.6-6.9c0-.4-.2-.7-.3-1 .8-.7 1.4-1.3 1.9-1.9 1.1 1.7 2.9 3.6 6.6 5 6.2 2.4 9.7-2.3 11.5-4.9.5-.7 1.2-1.6 1.4-1.8 9.3-2.2 12.8 1.7 16.2 5.5 2 2.3 4.3 4.8 7.5 4.8.5 0 1.1-.1 1.7-.2 7.1 18.4 10.7 40.2 10.7 65.4-.1 37.2-11.5 73.2-33.1 103.9z"/><path id="XMLID_181_" class="st2" d="M142.7 431.9c-.5-2.4-.1-5.4.9-7.2.9-1.6 1.9-3.5 2.2-5.7.6-5 0-10.1-.7-15-.6-4.3-1.1-8.4-.8-12.4.7-9.6 2.8-18.1 6.4-25.1 13.5-5.3 28.7-3.6 43.2-1.3 2.9.4 5.4.9 7.6 2-.9 1.3-1.8 2.7-2.7 4.1-1.6 2.6-3.2 5-5.2 7.2l-16.7 21.2c-.5.8-1.1 1.5-1.7 2.3-1.5 1.9-3.1 3.9-4.1 6.3-.9 2.1-.4 3.5.1 4.3.6.8 1.4 1.2 2 1.5.7.3 1.4.5 2.2.8 2.4.8 4 1.5 4.5 2.7.4 1.1.7 4.9.4 5.8l-.3 1.1c-.8 3.2-1.4 5.6-2.9 8.2l-16.7-.4c-5.4-.1-10.9-.3-16.4-.3-.5-.1-.9-.1-1.3-.1z"/><path id="XMLID_180_" class="st3" d="M145.3 333.5c-.2-.4-.3-.7-.5-1.1l-.3-.6c-.2-.4-.1-1.1-.1-1.8.1-3.4.3-6.9 1.6-9.8.8-1.9 2.1-3.2 3.3-3.4 1.1-.2 2.4.2 3.9.8l9.1 3.5c.8.3 1.9.7 3.3.5 2-.3 3.2-1.8 4-2.7 4.7-5.6 7.2-7.9 14-10.7 4.5-1.9 9.9-3.6 14.8-4.3-11.5 5.6-21 14.3-28.5 22-10.6 10.8-17.7 21.4-21.4 31.5-2.1-.1-5.2-.2-6-1-1-1-.2-4.1.3-6.1.5-2.1.9-3.7 1.3-5.2s.7-3.1 1.3-5.2c.3-1.7.9-4.1-.1-6.4z"/><path id="XMLID_179_" class="st3" d="M184.1 288.5c-4.7-.4-11.8-1.2-17-1.9-3.8-.5-7-.9-9.9-1.2-9.8-1.2-16.2-1.9-30.7-5.3l-1.1-.3c-3.5-.8-12.2-2.8-15.5-4.6-.1-3.5.6-7.1 2-10.3 11.8 4.7 24.4 8.6 36.8 11.2 9.6 2 20.2 3.4 33.4 4.3 11.6.8 23.5 1.1 35.1 1 1.4 0 3.2 0 4.9-.8 2.6-1.2 4.6-3.7 5.7-6.6.8.4 1.7.6 2.4.8 4.2.9 8.4 1.4 12.5 1.5 0 2.7.2 5.8.4 8.9.1 1.5.2 2.9.2 4.3-10 .6-20.3 2.1-28 5.1 0-.1 0-.3.1-.4.3-2.1.5-3.8-.7-5-.6-.6-1.5-.8-2.3-.6-7.2 1.4-17.1.8-28.3-.1z"/><path id="XMLID_178_" class="st3" d="M102.3 281.2h-4.9l.4-4.7c.4 0 .8 0 1.1.1l3.2.1.2 4.5z"/><path id="XMLID_177_" class="st1" d="M98.1 238.7c.5.3 1.2.3 1.8.1 12.5-5.3 18.4-7.1 25.3-9.1 9.3-2.7 19.8-.5 26.5 2.4 3.4 1.5 6.4 3.8 9.6 6.2 1.5 1.2 3.1 2.3 4.6 3.4 5.1 3.4 9.8 5.2 14.2 5.2 1.4 0 2.7-.2 4-.5 3.5-.9 6.3-2.9 9-4.9 1.4-1 2.8-2 4.2-2.8 1-.6 2-1 3.1-1.5l.4-.2c.4 1.4.9 2.7 1.6 3.8 1.2 1.8 3.7 2.3 5.6 2.7h.3c1.8 4.7 3.6 8.1 4.7 10.1 1 1.7 2.2 3.7 3.8 5.3.9.9 2 1.6 3 2.3 1.3.9 2.7 1.9 4.3 2.6-.2 1.4-.3 2.8-.2 4.2 0 .3 0 .6.1 1 0 .2-.1.4 0 .6.4 2.5-1.5 6-3.7 7.1-.9.4-2.1.4-3.1.4-11.5.1-23.2-.2-34.8-1-13-.9-23.4-2.2-32.8-4.2-12.7-2.7-25.9-6.7-37.9-11.7l-1.6-.7c.6-2 1.4-5.6-1.2-7.9-1-.8-2.1-1.2-3.1-1.5-3.9-1.1-7.8-1.7-11.7-2.3 1.1-3 2.5-6.1 4-9.1z"/><path id="XMLID_176_" class="st3" d="M272.7 221.8c0 .7 0 2 .8 3.1.6.9 1.5 1.4 2.2 1.7l.4.2c1.4.8 2 3.1 1.2 4.8-.9 1.7-2.9 2.9-5.2 2.8l-1.9-.1-.3 1.9c-1.5 8.8-4.1 15.3-8 19.8.2-2.4 0-4.9-.1-7.2v-.8c.5-.2.9-.5 1.2-.8 1.1-1.1 1.4-2.9 1.3-4.1-.3-4.7-2.7-9.3-6.7-12.6-2.9-2.4-6.5-4-10.6-4.9.3-.4.6-.8.8-1.2.8-1.6 1.1-3.3 1.2-4.8 6.3-.1 12.2-.3 16-.6 2.7-.2 5.3-.4 7.8-.7l-.1 3.5z"/><path id="XMLID_175_" class="st1" d="M281.1 233.4c.7-1.3.9-2.8.8-4.2 1.8-1.1 3.3-2 4.7-2.9 4.5-2.8 7.8-4.9 14-7.7 2.4-1.1 8.8-1.2 11.9 1.8 1.8 1.7 3.1 3.9 4.5 6.5l.8 1.4c2.7 4.8 6.1 10.7 12.4 11.4.4 0 .8.1 1.2.1 3 0 5.8-1.3 8.3-2.4l.7-.3c10.1-4.6 19.8-5.1 26.6-1.4-.5.1-.9.2-1.4.4-1 .3-2.2.7-3.2 1.5-2.9 2.5-1.8 6.6-1.1 8.6-.7.6-1.2 1.3-1.6 2-3.4-.5-8.3.9-15 3.4-22.1 8.1-72.8 18.9-74.7 19.2-.9.2-4-.7-4.8-3.5.5-3 .6-7.1.6-9.5 3.7-4.7 6.4-11 8-19.2 3.1-.6 5.9-2.5 7.3-5.2z"/><path id="XMLID_174_" class="st3" d="M374.5 268.9H369l.2-5.1h.3c1.3 0 2.4 0 3.5-.1.4 0 .7-.1 1.1-.2l.4 5.4z"/><path id="XMLID_173_" class="st3" d="M376.8 250.6c-.2 1-.1 1.9.1 2.7.1.5.2 1 .3 1.3.1.3.2.8.2.9 0 0-.1.2-.4.6-1.6 2-3.3 3.1-4.3 3.1-2.1.1-5.2.1-7.9-.3 0-.6-.1-1.2-.2-1.6-.1-.6-.2-1.3-.2-2.1-.1-1.7-.3-3.5-1-4.9.3-.8 1-1.5 2-2 1.2-.6 2.5-1 4.2-1.3 1.7-.3 3.4-.7 5.1-1.2 3-.8 6-1.6 8.8-1.5.1.2.2.5.2.6-.8.3-1.5.6-2.1 1-.3.1-.5.3-.8.4-1.2.8-3.5 1.9-4 4.3z"/><path id="XMLID_172_" class="st3" d="M359.3 259.7c-9.2 2-15.7 4.3-23.3 7-5.6 2-11.5 4.1-19.2 6.4-3.7 1.1-11 3.3-14.7 4.5-6.7 2.1-12.5 2.9-23.1 4.3l-2.7.4c-3 .4-3.5 4.6-3.6 7.6-3.8-.4-13.9-1-25.3-.6-.1-1.4-.1-2.8-.2-4.3-.2-3-.3-6.1-.4-8.7 4-.2 8-.8 11.7-1.9 1.2-.3 3.1-.9 4.5-2.3 2.2 2.3 5.4 3.3 7.6 3 1.9-.3 53-11.2 75.5-19.4 7.2-2.6 11.6-3.7 13.3-3.1.3.6.4 2.3.5 3.3.1 1 .2 1.9.3 2.6 0 .2.2.9.2 1 0 0-.4.1-1.1.2z"/><path id="XMLID_171_" class="st3" d="M228.1 267.7c-.1-.9 0-1.8.1-2.6.2 0 .4.1.6.1h.2c.3 0 .5-.1.7-.1.7.8 1.4 1.4 2.1 1.9 3.4 2.6 6.9 3.3 10.5 3.3 1.9 0 3.9-.2 5.9-.4 2.3-.2 7.5-2.6 10.7-6.5.4 0 .8-.1 1.2-.4.4-.3.7-.6 1.1-.9-.1 1.8-.3 3.6-.5 4.8-.1.7-.3 1.5-.6 1.9-.5.6-1.6 1-2.7 1.3-8.1 2.3-17.2 2.4-26.4.4-.9-.2-2-.5-2.4-1.1-.3-.4-.4-1.1-.5-1.7z"/><path id="XMLID_170_" class="st3" d="M238.8 219.3c1.8 0 3.7 0 5.6-.1-.1 1-.3 2-.7 2.8-.5.9-1.3 1.5-1.9 1.6-.7 0-1.5-.5-2.1-1.3-.6-.9-.9-1.9-.9-3z"/><path id="XMLID_169_" class="st3" d="M229 255.6c-.7-2.8-.8-5.2-.9-8.2l.2-.2c1.9 2.3 5 4.4 7.3 4.9 1.5.3 3 .5 4.6.5 4.3 0 8.6-1.2 12.2-3.6 1.6-1 2.7-2.1 3.5-3.3.5.3.9.6 1.4.9l.1 2.2c.2 3 .4 5.9-.1 8.7-.9 4.7-7.6 8-9.5 8.2-5.5.5-9.4.9-13.2-2-2.5-2-5-5.5-5.6-8.1z"/><path id="XMLID_168_" class="st3" d="M231.6 244.5c1.3-.9 2.8-1.5 4.3-1.8 1.1-.2 2.6-.2 4.2-.1 4.2.1 8.2.3 11.6 1.3-.4.5-1 .9-1.7 1.4-3.9 2.6-8.9 3.5-13.5 2.5-1.5-.3-3.8-1.9-4.9-3.3z"/><path id="XMLID_167_" d="M264.5 214.3c-9.1.7-29.3.8-40.6.8-5.7 0-10.9 0-15-.1-.3-.2-.6-.3-1-.3-.5 0-.9.1-1.2.3-2 0-3.7 0-4.7-.1-5-.1-12.3-1.7-17.6-2.8l-1-.2c-8.2-1.8-15.8-7.7-20.2-15.9-.5-.9-.9-1.9-.9-2.7 0-.3.2-.8.4-1 1 .1 2.2 1 3.3 1.8l.4.3c7.3 5.4 17 8.2 28.7 8.2h2.6c5-.2 12.2-.9 17.1-5.6 3.9-3.8 5.4-9 6.9-14 1.5-5.1 2.8-9.8 6.5-12.6 3.6-2.6 9.6-2.3 12.8.8 2 1.9 3.2 4.6 4.3 7.3 0 .3 0 .5.1.8.6 2 3.3 2.6 4.8 1.7l.7-.4.2-.8c.7-2.3 1.6-4.4 2.8-6.5.6-.9 1.4-2.2 2.4-2.5.9-.3 2.2.3 3.1 1.2 1 1 1.6 2.5 2.3 4l.2.5c2.5 5.4 5.1 9.3 8.2 12.3 3.3 3.2 8 5.2 13.7 6 6.7.9 11.1 1.2 17.3-1.2 5.4-2.1 9.4-6.7 12-9.7.4-.4.7-.8 1.1-1.3 0 .4-.1.9-.2 1.4-1.3 6.4-4.6 12.4-9.3 16.9-5.3 5.1-13 8.8-23.7 11.3-5.1 1.1-10.5 1.6-16.5 2.1z" fill="#fff"/><path id="XMLID_166_" class="st3" d="M210.6 224.8c-.4-1.8-.6-3.6-.6-5.5 3.9 0 8.7.1 13.9.1h10.6c0 1.9.5 3.8 1.6 5.4l.2.2c-4.5.8-8.5 2.7-11.5 5.6-4.6 4.4-6.6 11.3-5 17.1.5 1.6 1.9 2.8 3.7 2.8h.4c.1 2 .3 4.1.9 6.3.3 1 .7 2 1.2 3-.1 0-.1 0-.2.1-1.2-.6-2.4-1.4-3.5-2.2-.9-.6-1.7-1.2-2.4-1.9-1.2-1.2-2.1-2.7-3.1-4.3-1.2-2-2.9-5.5-4.8-10.4-.5-1.4-1.8-1.6-3.1-1.9-.7-.1-2.4-.5-2.8-.9-.8-1.2-1.3-2.8-1.4-4.9-.1-1.3 0-2.2.3-2.9.7-1.4 2.5-2.3 4.4-3.2l1.6-.7-.4-1.8z"/><path id="XMLID_165_" class="st3" d="M105.8 262.2c.8.4 1.4 1 1.8 1.7-1.1 2.7-1.8 5.5-2 8.3-.1.1-.2.1-.3.2l-6.4-.2c-1.6-.1-3.1-.2-3.7-.9-.7-.9-.3-2.8 0-4.5.2-.8.3-1.6.1-2.6-.5-2.3-2.8-3.4-3.8-3.9-.4-.2-.8-.3-1.2-.4-.2-.1-.5-.2-.5-.1-.3-.4-.3-.7-.3-.7.1-.2.4-.4.7-.6 3 .4 4.8.9 6.7 1.4 1.5.4 3 .8 5.1 1.2 1.5.2 2.7.5 3.8 1.1z"/><path id="XMLID_164_" class="st5" d="M272.7 221.8c0 .7 0 2 .8 3.1.6.9 1.5 1.4 2.2 1.7l.4.2c1.4.8 2 3.1 1.2 4.8-.9 1.7-2.9 2.9-5.2 2.8l-1.9-.1-.3 1.9c-1.5 8.8-4.1 15.3-8 19.8.2-2.4 0-4.9-.1-7.2v-.8c.5-.2.9-.5 1.2-.8 1.1-1.1 1.4-2.9 1.3-4.1-.3-4.7-2.7-9.3-6.7-12.6-2.9-2.4-6.5-4-10.6-4.9.3-.4.6-.8.8-1.2.8-1.6 1.1-3.3 1.2-4.8 6.3-.1 12.2-.3 16-.6 2.7-.2 5.3-.4 7.8-.7l-.1 3.5z"/><path id="XMLID_163_" class="st5" d="M238.8 219.3c1.8 0 3.7 0 5.6-.1-.1 1-.3 2-.7 2.8-.5.9-1.3 1.5-1.9 1.6-.7 0-1.5-.5-2.1-1.3-.6-.9-.9-1.9-.9-3z"/><path id="XMLID_162_" class="st5" d="M231.6 244.5c1.3-.9 2.8-1.5 4.3-1.8 1.1-.2 2.6-.2 4.2-.1 4.2.1 8.2.3 11.6 1.3-.4.5-1 .9-1.7 1.4-3.9 2.6-8.9 3.5-13.5 2.5-1.5-.3-3.8-1.9-4.9-3.3z"/><path id="XMLID_161_" class="st5" d="M210.6 224.8c-.4-1.8-.6-3.6-.6-5.5 3.9 0 8.7.1 13.9.1h10.6c0 1.9.5 3.8 1.6 5.4l.2.2c-4.5.8-8.5 2.7-11.5 5.6-4.6 4.4-6.6 11.3-5 17.1.5 1.6 1.9 2.8 3.7 2.8h.4c.1 2 .3 4.1.9 6.3.3 1 .7 2 1.2 3-.1 0-.1 0-.2.1-1.2-.6-2.4-1.4-3.5-2.2-.9-.6-1.7-1.2-2.4-1.9-1.2-1.2-2.1-2.7-3.1-4.3-1.2-2-2.9-5.5-4.8-10.4-.5-1.4-1.8-1.6-3.1-1.9-.7-.1-2.4-.5-2.8-.9-.8-1.2-1.3-2.8-1.4-4.9-.1-1.3 0-2.2.3-2.9.7-1.4 2.5-2.3 4.4-3.2l1.6-.7-.4-1.8z"/><path id="XMLID_160_" class="st5" d="M376.8 250.6c-.2 1-.1 1.9.1 2.7.1.5.2 1 .3 1.3.1.3.2.8.2.9 0 0-.1.2-.4.6-1.6 2-3.3 3.1-4.3 3.1-2.1.1-5.2.1-7.9-.3 0-.6-.1-1.2-.2-1.6-.1-.6-.2-1.3-.2-2.1-.1-1.7-.3-3.5-1-4.9.3-.8 1-1.5 2-2 1.2-.6 2.5-1 4.2-1.3 1.7-.3 3.4-.7 5.1-1.2 3-.8 6-1.6 8.8-1.5.1.2.2.5.2.6-.8.3-1.5.6-2.1 1-.3.1-.5.3-.8.4-1.2.8-3.5 1.9-4 4.3z"/><path id="XMLID_159_" class="st5" d="M228.1 267.7c-.1-.9 0-1.8.1-2.6.2 0 .4.1.6.1h.2c.3 0 .5-.1.7-.1.7.8 1.4 1.4 2.1 1.9 3.4 2.6 6.9 3.3 10.5 3.3 1.9 0 3.9-.2 5.9-.4 2.3-.2 7.5-2.6 10.7-6.5.4 0 .8-.1 1.2-.4.4-.3.7-.6 1.1-.9-.1 1.8-.3 3.6-.5 4.8-.1.7-.3 1.5-.6 1.9-.5.6-1.6 1-2.7 1.3-8.1 2.3-17.2 2.4-26.4.4-.9-.2-2-.5-2.4-1.1-.3-.4-.4-1.1-.5-1.7z"/><path id="XMLID_158_" class="st5" d="M105.8 262.2c.8.4 1.4 1 1.8 1.7-1.1 2.7-1.8 5.5-2 8.3-.1.1-.2.1-.3.2l-6.4-.2c-1.6-.1-3.1-.2-3.7-.9-.7-.9-.3-2.8 0-4.5.2-.8.3-1.6.1-2.6-.5-2.3-2.8-3.4-3.8-3.9-.4-.2-.8-.3-1.2-.4-.2-.1-.5-.2-.5-.1-.3-.4-.3-.7-.3-.7.1-.2.4-.4.7-.6 3 .4 4.8.9 6.7 1.4 1.5.4 3 .8 5.1 1.2 1.5.2 2.7.5 3.8 1.1z"/><path id="XMLID_157_" class="st6" d="M212.2 303.6c1.7-.4 3-1.7 3.2-3.5.1-.3.2-.7.3-1.1 16.8-7.3 51.3-5.6 56.6-4.9l.5.5.1.1c.1 1.1.5 3.3 1.6 4.3l.6.6h.9c16.8.1 32.3 4.4 45.1 12.3 13.5 8.4 24.4 20.3 31.5 34.5 1.2 2.3 2.2 4.7 3.3 7l3.1 6.9c-26 2-38.5 3.5-44.6 4.7-8.2-13.5-22.3-24.6-37-28.9-9.8-2.9-20.3-3.6-30.3-2.1-7.2 1.1-14.8 2.6-21 5.9-11.3 6.1-21 12.1-25.4 22.2-2-.6-4.1-1-6.2-1.4-14.2-2.2-29.2-3.9-43 .7 3.1-10.4 10.2-21.4 21.3-32.7 9.9-9.8 23.1-21.6 39.4-25.1z"/><path id="XMLID_156_" class="st3" d="M361.8 355.9l-1.9-4.2-3.3-7.2c-7.5-14.9-18.9-27.4-33.1-36.2-6.4-4-13.4-7.1-21-9.2 12 .2 24.1 4.9 32.9 13.1l1.1 1c2.4 2.3 5.2 4.9 8.9 5.8 2.1.5 4.1.4 6 .2 1.8-.1 3.4-.2 4.9.1 2.5.7 4.8 3 6.4 6.3 2.4 5.1 2.7 11 3 16.9.5 9.1-1.7 12.4-3.9 13.4z"/><path id="XMLID_155_" class="st1" d="M184 416.1c-1.2-3.3-4.5-4.5-7.2-5.4l-1.8-.6s0-.1.1-.2c.8-1.9 2.1-3.5 3.5-5.3.6-.8 1.3-1.6 1.8-2.4l16.5-21c2.2-2.4 3.9-5.1 5.5-7.7.9-1.4 1.8-2.9 2.8-4.3.7-.9.9-2.1.7-3.2-.2-.8-.6-1.5-1.2-2.1 3.9-8.9 13-14.5 23.6-20.2 5.8-3.2 13.2-4.5 19.5-5.4 9.4-1.4 19.3-.8 28.4 1.9 13.1 3.9 26.1 13.9 33.7 25.9-1.1.4-1.5.8-1.8 1-1.3 1.2-2 2.6-2 4-.1 2.1 1.2 3.7 1.9 4.6 2.4 3 4.9 6 7.3 9.1 7.1 8.6 14.3 17.6 20.5 27.1 2 3 3.8 6.6 3 9.6-.3 1.3-1.1 2.5-2 3.7-.8 1.3-1.7 2.6-2.3 4.2-1.4 3.8-.6 6.9.2 9-10.2-.2-18.5-.5-23.6-1-13.9-1.3-26.4-2-38.1-2.3l-91.2-2.5c1.1-2.4 1.7-4.7 2.3-7.3l.3-1.1c.7-1.8.2-6.4-.4-8.1z"/><path id="XMLID_154_" class="st2" d="M339.6 438.6c-.1-.2-.2-.4-.3-.7-.8-1.9-1.6-4-.6-6.9.4-1.1 1.1-2.2 1.8-3.3 1-1.5 2-3.1 2.5-5 1.3-4.7-1.1-9.3-3.6-13.1-6.2-9.7-13.6-18.7-20.7-27.5-2.4-3-4.9-6-7.3-9-.3-.4-1-1.3-1-1.7 0-.2.2-.6.6-1 .9-.6 7.2-2.7 50.5-6 .3.1.7.1 1 .1.4.1.8.2 1.1.5 2.6 2.1 4.1 5.6 5 8.2 3.3 10 9.1 56.3 10.1 65.1-9.2.2-18.4.3-26.7.3-4.3.1-8.5.1-12.4 0z"/><path id="XMLID_153_" class="st7" d="M423 263.6c-1.2-.1-2.2-1-4.2-3.3-3.4-3.8-8.6-9.6-20.4-6.9-1.7.4-2.8 1.9-3.9 3.5-2.3 3.1-3.6 4.5-6.4 3.4-4.2-1.6-4.7-3.4-5.4-5.4-.2-.6-.4-1.1-.6-1.7-.2-.5-.6-.8-1-1 0-.2-.1-.5-.1-.7 0-.1.3-.5 1.6-1.1.3-.2.7-.3 1-.5.5-.2.9-.5 1.4-.7 1.2-.4 2-1.1 2.5-2.1 2.6-.2 4.6-.5 7.3-1l17-2.9c4.3 6.3 8.1 13.1 11.2 20.4z"/><path id="XMLID_152_" class="st3" d="M412.3 230.9l.5-.1c.6-.1 1.9-.4 2.7-.5.3 2.9.3 4.4.3 6.1v1.9l-21.8 3.8c-2.4.4-4.3.7-6.6.9-.6-1.3-1.5-2.5-2.8-2.6-3.8-.3-7.5.7-11 1.6-1.6.4-3.2.8-4.8 1.1-1.2.2-2.4.5-3.6.9-.4-1.5-.4-2.6.1-3.1.3-.3.9-.5 1.5-.6 3.8-1.1 7.9-1.7 11.9-2.3l1.9-.3c7.7-1.2 13.7-2.6 21.2-4.3 1.2-.3 2.6-.6 3.9-.9.5.1 1.1 0 1.5-.3 1.6-.6 3.3-.9 5.1-1.3z"/><path id="XMLID_151_" class="st3" d="M254.1 151.9c59 0 114.1 28.7 148.2 76.8l-1.5.3c-7.4 1.7-13.3 3.1-20.9 4.2l-1.9.3-5.7.9c-.1-.5-.4-.9-.8-1.2-11.6-8.4-26.9-2.9-32.9-.2l-.7.3c-2.5 1.1-4.9 2.2-7.1 2-4.1-.5-6.6-4.9-9.1-9.3l-1-1.7c-1.5-2.5-3-5.1-5.2-7.2-4.6-4.5-12.8-4.4-16.7-2.7-6.5 2.9-9.9 5-14.6 8-1.2.7-2.5 1.6-3.9 2.4-.6-.8-1.4-1.6-2.3-2.1l-.6-.3c-.2-.1-.5-.2-.4-.1V217.2c1.7-.3 3.4-.6 5-1 11.5-2.7 19.9-6.8 25.7-12.4 5.3-5.1 9-11.9 10.5-19.2.4-1.9.7-4.6-1-6.8-.6-.7-1.3-1.1-2.2-1.1-1.8 0-3.1 1.5-5.2 4-2.5 2.9-5.9 6.8-10.3 8.5-5.4 2.1-8.8 1.8-15.1.9-4.9-.7-8.7-2.3-11.3-4.8-2.7-2.6-5-6.1-7.2-10.9l-.2-.5c-.8-1.7-1.6-3.6-3.1-5.2-2-2.2-5-3.2-7.5-2.5-2.5.7-4 2.9-4.9 4.5-.7 1.1-1.3 2.3-1.8 3.5-1.1-2.3-2.4-4.6-4.3-6.5-2.6-2.4-6.2-3.8-9.9-3.8-3.1 0-6.1 1-8.5 2.7-4.9 3.6-6.5 9.3-8.1 14.9-1.4 4.7-2.6 9.1-5.7 12.1-3.8 3.6-10 4.3-14.2 4.4h-2.4c-10.8 0-19.6-2.5-26.1-7.3l-.4-.3c-1.6-1.2-3.6-2.7-6.3-2.7-2.6.1-4.3 2.9-4.3 5.4 0 1.8.7 3.3 1.5 4.7 5 9.3 13.6 16.1 23.1 18.1l1 .2c5.5 1.2 13 2.8 18.5 2.9.9 0 2.1 0 3.7.1 0 1.6.1 3.2.4 4.8-1.8.9-3.9 2.3-5 4.6-.6 1.3-.8 2.7-.8 3.9-.2 0-.4.1-.6.1l-1 .5c-1.1.5-2.3 1.1-3.4 1.7-1.6.9-3.1 2-4.6 3.1-2.5 1.8-4.9 3.5-7.5 4.2-5.2 1.4-10.9-1.5-14.7-4.1-1.5-1-3-2.1-4.5-3.3-3.2-2.5-6.6-5-10.5-6.7-7.4-3.2-18.9-5.5-29.4-2.5-6.6 1.9-12.3 3.7-23.3 8.2 27.1-49.4 86.5-81.7 153-81.7z"/><path id="XMLID_150_" class="st3" d="M58.3 252.3v-1.7c0-1.5 0-3 .3-5.6.7.1 1.9.3 2.4.4l.4.1c3.8.8 7 1.6 10 2.3 7.1 1.7 12.7 3 20 4.1l1.8.3c3.7.6 7.6 1.1 11.2 2.2.5.1 1.1.3 1.4.6.4.4.5 1.3.1 2.7-1.1-.4-2.2-.6-3.3-.8-1.9-.3-3.3-.7-4.8-1.1-2-.6-4.1-1.1-7.6-1.6-1.2-.1-3.5 1-4.6 2.7-2.5-.2-4.3-.4-6.9-.9l-20.4-3.7z"/><path id="XMLID_149_" class="st1" d="M86.9 263c.7.5 1.4.7 2 .9.2.1.4.1.6.2 1.3.6 1.5.9 1.5 1 0 .1-.1.6-.1.9-.5 2.4-1.1 5.6.9 8 .5.6 1.1 1.1 1.8 1.4l-.5 6.2c0 .4-.1 1.2.3 2 .4.9 1.4 1.9 3.6 1.9h9.8l-.3-7.2c1 .8 2.6 1.5 4.6 2.3l-1.5 9.4c-.2 1.2.6 2.3 1.8 2.5h.3c1 0 2-.8 2.1-1.8l1.4-8.7c2.8.8 5.9 1.5 9.1 2.3h.2c-.4 3.5-.6 7-.5 10.5 0 1.2 1 2.1 2.2 2.1h.1c1.2 0 2.1-1 2.1-2.2-.1-3.1.1-6.3.5-9.4 3.8.8 7 1.5 9.9 2 .1 3.6.1 7.2.1 10.7 0 1.2.9 2.2 2.1 2.2h.1c1.2 0 2.1-.9 2.2-2.1.1-3.4.1-6.7 0-10.1 2.9.5 5.7.8 8.5 1.2-.1 3.2 0 6.5.1 9.7 0 1.2 1 2.1 2.2 2.1h.1c1.2 0 2.1-1.1 2.1-2.3-.1-3-.1-6-.1-9 .2 0 .5.1.7.1 2.7.3 5.6.7 9 1.1.2 3.3.5 6.6 1 9.9.2 1.1 1.1 1.8 2.1 1.8h.3c1.2-.2 2-1.3 1.8-2.5-.4-2.9-.7-5.8-.9-8.7 3.2.4 6.6.8 9.7 1.1.2 2 .1 4.1 0 5.7 0 .8-.1 1.4-.1 1.9 0 1.2 1 2.2 2.2 2.2 1.2 0 2.2-1 2.2-2.2 0-.4 0-1 .1-1.7.1-1.5.2-3.5 0-5.6 3.1.2 6.2.5 9.1.6.1.6.2 1.2.4 1.8.1.5.3 1.2.3 1.5-.1 1.2.8 2.2 2 2.3h.1c1.1 0 2.1-.9 2.2-2 .1-1-.2-1.9-.4-2.9 0-.2-.1-.3-.1-.5 4.9.2 9.4.1 13.3-.5 0 .1 0 .3-.1.4-.2 1.6-.4 3.3-.2 4.9.1.3.2.6.4.9-.9.2-1.8.4-2.6.6-8.9-2.7-21.6 2-26.7 4.1-7.5 3.2-10.6 5.9-15.6 12-.3.4-1 1.2-1.3 1.2-.2.1-.8-.2-1.1-.3l-9.1-3.5c-1.6-.6-3.9-1.5-6.3-1-2.7.5-5.1 2.7-6.5 6-1.6 3.7-1.8 7.8-1.9 11.4 0 .9-.1 2.2.4 3.5.2.4.4.8.6 1.3l.3.6c.4.8.1 2.1-.3 3.5-.5 2.1-.9 3.7-1.3 5.3-.4 1.5-.7 3.1-1.3 5.4-.7 2.9-1.9 7.3.9 10 1.7 1.7 4.3 2.1 7.8 2.3-.2.8-.5 1.5-.6 2.3-.1.4 0 .9.1 1.2-3.7 7.4-6 16.2-6.7 26.1-.3 4.5.3 8.9.9 13.3.6 4.9 1.2 9.4.7 13.9-.2 1.4-.9 2.8-1.6 4.1-1.5 2.5-2 6.2-1.5 9.5-3.6.1-7 .2-10.1.5-3.2.2-6.3.6-9.5.9-4.9.5-9.9 1-14.9 1.2-20.3-30-31-65-31-101.4-.3-25 4.5-48.6 13.8-70.3z"/><path id="XMLID_148_" class="st6" d="M414.7 460.4l-.7.6c-1.4 1.1-3.4 2.8-3.6 5.1-.2 2.5 1.6 4.3 3.4 6.1l1 1c2.8 2.9 5.3 6.1 7.7 9.2 2.9 3.7 5.6 7.2 8.7 10.1.2.2.2.4.1.5-.1.3-.3.3-.3.3-7.3 1.4-15.6 2-24.7 2-16.2 0-31.9-2.1-42.2-3.9-13.2-2.3-163.9-4.4-217.8-4.4-10 0-16.7.1-20.1.2-6.6.2-15.6 1-23.6 1.8-7 .6-13.1 1.2-15.8 1.2.9-3.9 7.9-15.5 13.7-23 .7-.9 1.6-2.1 1.8-3.8.5-3.7-3-6.2-4.1-7l-5.7-3.9c-7.3-5-14.9-10.1-18.7-17.5 9.1 2.7 18.6 4 28.2 3.9.4.2.8.4 1.2.4.4 0 .9-.1 1.2-.4 5-.2 10.1-.7 15-1.2 3.1-.3 6.2-.7 9.4-.9 4.6-.4 9.7-.5 15.5-.5 5.4 0 11 .1 16.3.3l112.7 3c11.7.3 24.1 1.1 37.9 2.3 7.8.7 23.2 1.1 41.2 1.1 29.9 0 70.4-1.2 86.7-4.7-3.5 6.5-18.6 17.8-24.4 22.1z"/><path id="XMLID_147_" class="st8" d="M222.2 226.3s.1 0 0 0c1.2 0 2.2-.9 2.3-2.1 0-.8-.4-1.5-1-1.9-.1-.8-.6-1.4-1.4-1.7-1.1-.4-2.4.2-2.8 1.3-.4 1-.2 2.1.4 3 .6.8 1.5 1.3 2.5 1.4z"/><path id="XMLID_146_" class="st8" d="M261.2 220.2c-1.2-.2-2.3.7-2.4 1.9l-.3 2.4c-.2 1.2.7 2.3 1.9 2.4h.3c1.1 0 2-.8 2.2-1.9l.3-2.4c.1-1.1-.8-2.2-2-2.4z"/><path class="st8" d="M442.6 435.7c-.9-1.4-2.7-2.1-4.3-1.7-6.6 1.5-17.7 2.5-30.4 3.3 20.9-30.8 31.9-66.6 31.9-104.1s-7.9-68-23.3-90.7l1.1-.2c.4-.1 1.7-.3 2.3-1.5.4-.7.3-1.3.3-1.6v-2.8c0-1.8 0-3.7-.4-7.4-.1-1-.6-1.8-1.4-2.3-1.8-1.2-4.4-.6-6.5-.2l-.4.1c-1.6.4-3.1.7-4.6 1-34.7-50.2-91.7-80.1-152.7-80.1-74.8 0-140.9 40-164.6 99.6-5.9-1-11-2.1-17.1-3.6-3-.7-6.2-1.5-10-2.3l-.4-.1c-2-.5-4.5-1-6.2.2-.8.5-1.2 1.4-1.4 2.3-.4 3.5-.4 5.2-.4 7v2.6c0 .3 0 .9.3 1.6.6 1.2 1.9 1.4 2.3 1.5l21.5 3.7c1.9.3 3.4.6 5.1.7-9.7 22.4-14.7 46.7-14.7 72.4 0 36.3 10.4 71.2 30.1 101.4-8.7-.2-17.4-1.7-25.7-4.4l-.2-.4h-1.3c-1.1 0-1.6.7-2.2 1.5l-.3.4c-.2.2-.4.6-.5.9l-.4.6.3.1c0 .4.1.8.3 1.3 3.9 9.7 12.7 15.7 21.3 21.5 1.9 1.3 3.8 2.5 5.6 3.9 2.1 1.5 2.4 2.4 2.4 2.9-.1.5-.6 1.2-1 1.7-.2.2-16.5 22.1-14.4 27.9.4 1 1.2 1.7 2.3 2 .4.1.9.1 1.7.1 2.9 0 9.2-.6 16.4-1.2 7.9-.7 16.9-1.5 23.4-1.7 3.3-.1 10-.2 20-.2 58.8 0 204.9 2.2 217.1 4.3 10.5 1.8 26.5 4 43 4 9.4 0 18-.7 25.5-2.1 1.8-.3 3.2-1.6 3.7-3.3.5-1.7 0-3.6-1.3-4.9-2.9-2.7-5.5-6.1-8.3-9.7-2.5-3.1-5-6.4-7.9-9.5-.3-.4-.7-.7-1-1.1-.9-.9-2.2-2.2-2.2-2.8 0-.1.1-.7 1.8-2l.8-.6c11.1-8.3 22.9-17.7 25.6-24.3.3-1.1.2-2.5-.6-3.7zm-40.2 1.9c-6.2.3-12.6.5-19.2.7-.6-4.9-6.7-55.2-10.4-66.4-1-3.1-3-7.4-6.3-10.2-.8-.7-1.7-1.1-2.7-1.3l-.2-.5c4.8-2.1 7-8 6.4-17.7-.3-5.8-.7-12.4-3.4-18.2-2.1-4.6-5.4-7.7-9.2-8.7-2.1-.6-4.2-.4-6.3-.3-1.7.1-3.3.2-4.7-.1-2.5-.6-4.7-2.6-6.9-4.7l-1.2-1.1c-11.8-11-29.1-16.2-45-13.6-.8.1-1.3.6-1.6 1.3-4.6-.8-9.3-1.2-14.2-1.3-.1-.5-.2-1-.2-1.3 0-.3-.1-.6-.2-.9.1-.2.1-.5.1-.7-.2-2 0-4.8.3-5.9l2.1-.3h.2l1.9 5.7c.3.9 1.2 1.5 2.1 1.5.2 0 .5 0 .7-.1 1.1-.4 1.8-1.6 1.4-2.7l-1.6-4.9c3.3-.5 6.1-.9 8.7-1.3.5 2.6 1.1 5.2 1.8 7.7.3 1 1.1 1.6 2.1 1.6.2 0 .4 0 .6-.1 1.2-.3 1.8-1.5 1.5-2.7-.7-2.4-1.3-4.9-1.8-7.4 2.1-.5 4.2-1 6.3-1.7.3-.1.7-.2 1.1-.3l3.1 8.8c.3.9 1.2 1.5 2.1 1.5.2 0 .5 0 .7-.1 1.1-.4 1.7-1.6 1.3-2.8l-3-8.6c3.3-1 7-2.1 9.3-2.8.3-.1.5-.2.8-.2 1 3 2.1 6 3.3 8.9.3.8 1.2 1.4 2 1.4.3 0 .5-.1.8-.2 1.1-.4 1.7-1.7 1.2-2.8-1.1-2.8-2.2-5.7-3.1-8.5 2.9-.9 5.6-1.8 8.1-2.7 2.1 3.3 4 6.9 5.5 10.5.4.8 1.2 1.3 2 1.3.3 0 .6-.1.9-.2 1.1-.5 1.6-1.8 1.1-2.9-1.5-3.5-3.3-6.9-5.3-10.2.7-.3 1.5-.5 2.2-.8 2.1-.8 4.1-1.5 6.1-2.2.4 2.4 1.3 4.6 2.2 6.8.7 1.7 1.3 3.3 1.7 4.9.2 1 1.1 1.6 2.1 1.6.2 0 .4 0 .5-.1 1.2-.3 1.9-1.5 1.6-2.6-.5-1.9-1.2-3.7-1.9-5.5-.9-2.2-1.7-4.4-2-6.5 2.6-.8 5.3-1.6 8.3-2.3l3 12.9c.2 1 1.1 1.7 2.1 1.7.2 0 .3 0 .5-.1 1.2-.3 1.9-1.4 1.6-2.6l-3-12.9c.6-.1 1.5-.4 2.3-.8.7.2 1.5.2 2.3.3l-.3 7.5v2.2h10.2c2.3 0 3.3-1.1 3.7-1.9.4-.8.3-1.6.3-2l-.6-6.9c0-.4-.2-.7-.3-1 .8-.7 1.4-1.3 1.9-1.9 1.1 1.7 2.9 3.6 6.6 5 6.2 2.4 9.7-2.3 11.5-4.9.5-.7 1.2-1.6 1.4-1.8 9.3-2.2 12.8 1.7 16.2 5.5 2 2.3 4.3 4.8 7.5 4.8.5 0 1.1-.1 1.7-.2 7.1 18.4 10.7 40.2 10.7 65.4-.1 37.2-11.5 73.2-33.1 103.9zm-259.7-5.7c-.5-2.4-.1-5.4.9-7.2.9-1.6 1.9-3.5 2.2-5.7.6-5 0-10.1-.7-15-.6-4.3-1.1-8.4-.8-12.4.7-9.6 2.8-18.1 6.4-25.1 13.5-5.3 28.7-3.6 43.2-1.3 2.9.4 5.4.9 7.6 2-.9 1.3-1.8 2.7-2.7 4.1-1.6 2.6-3.2 5-5.2 7.2l-16.7 21.2c-.5.8-1.1 1.5-1.7 2.3-1.5 1.9-3.1 3.9-4.1 6.3-.9 2.1-.4 3.5.1 4.3.6.8 1.4 1.2 2 1.5.7.3 1.4.5 2.2.8 2.4.8 4 1.5 4.5 2.7.4 1.1.7 4.9.4 5.8l-.3 1.1c-.8 3.2-1.4 5.6-2.9 8.2l-16.7-.4c-5.4-.1-10.9-.3-16.4-.3-.5-.1-.9-.1-1.3-.1zm2.6-98.4c-.2-.4-.3-.7-.5-1.1l-.3-.6c-.2-.4-.1-1.1-.1-1.8.1-3.4.3-6.9 1.6-9.8.8-1.9 2.1-3.2 3.3-3.4 1.1-.2 2.4.2 3.9.8l9.1 3.5c.8.3 1.9.7 3.3.5 2-.3 3.2-1.8 4-2.7 4.7-5.6 7.2-7.9 14-10.7 4.5-1.9 9.9-3.6 14.8-4.3-11.5 5.6-21 14.3-28.5 22-10.6 10.8-17.7 21.4-21.4 31.5-2.1-.1-5.2-.2-6-1-1-1-.2-4.1.3-6.1.5-2.1.9-3.7 1.3-5.2s.7-3.1 1.3-5.2c.3-1.7.9-4.1-.1-6.4zm38.8-45c-4.7-.4-11.8-1.2-17-1.9-3.8-.5-7-.9-9.9-1.2-9.8-1.2-16.2-1.9-30.7-5.3l-1.1-.3c-3.5-.8-12.2-2.8-15.5-4.6-.1-3.5.6-7.1 2-10.3 11.8 4.7 24.4 8.6 36.8 11.2 9.6 2 20.2 3.4 33.4 4.3 11.6.8 23.5 1.1 35.1 1 1.4 0 3.2 0 4.9-.8 2.6-1.2 4.6-3.7 5.7-6.6.8.4 1.7.6 2.4.8 4.2.9 8.4 1.4 12.5 1.5 0 2.7.2 5.8.4 8.9.1 1.5.2 2.9.2 4.3-10 .6-20.3 2.1-28 5.1 0-.1 0-.3.1-.4.3-2.1.5-3.8-.7-5-.6-.6-1.5-.8-2.3-.6-7.2 1.4-17.1.8-28.3-.1zm-81.8-7.3h-4.9l.4-4.7c.4 0 .8 0 1.1.1l3.2.1.2 4.5zm-4.2-42.5c.5.3 1.2.3 1.8.1 12.5-5.3 18.4-7.1 25.3-9.1 9.3-2.7 19.8-.5 26.5 2.4 3.4 1.5 6.4 3.8 9.6 6.2 1.5 1.2 3.1 2.3 4.6 3.4 5.1 3.4 9.8 5.2 14.2 5.2 1.4 0 2.7-.2 4-.5 3.5-.9 6.3-2.9 9-4.9 1.4-1 2.8-2 4.2-2.8 1-.6 2-1 3.1-1.5l.4-.2c.4 1.4.9 2.7 1.6 3.8 1.2 1.8 3.7 2.3 5.6 2.7h.3c1.8 4.7 3.6 8.1 4.7 10.1 1 1.7 2.2 3.7 3.8 5.3.9.9 2 1.6 3 2.3 1.3.9 2.7 1.9 4.3 2.6-.2 1.4-.3 2.8-.2 4.2 0 .3 0 .6.1 1 0 .2-.1.4 0 .6.4 2.5-1.5 6-3.7 7.1-.9.4-2.1.4-3.1.4-11.5.1-23.2-.2-34.8-1-13-.9-23.4-2.2-32.8-4.2-12.7-2.7-25.9-6.7-37.9-11.7l-1.6-.7c.6-2 1.4-5.6-1.2-7.9-1-.8-2.1-1.2-3.1-1.5-3.9-1.1-7.8-1.7-11.7-2.3 1.1-3 2.5-6.1 4-9.1zm174.6-16.9c0 .7 0 2 .8 3.1.6.9 1.5 1.4 2.2 1.7l.4.2c1.4.8 2 3.1 1.2 4.8-.9 1.7-2.9 2.9-5.2 2.8l-1.9-.1-.3 1.9c-1.5 8.8-4.1 15.3-8 19.8.2-2.4 0-4.9-.1-7.2v-.8c.5-.2.9-.5 1.2-.8 1.1-1.1 1.4-2.9 1.3-4.1-.3-4.7-2.7-9.3-6.7-12.6-2.9-2.4-6.5-4-10.6-4.9.3-.4.6-.8.8-1.2.8-1.6 1.1-3.3 1.2-4.8 6.3-.1 12.2-.3 16-.6 2.7-.2 5.3-.4 7.8-.7l-.1 3.5zm8.4 11.6c.7-1.3.9-2.8.8-4.2 1.8-1.1 3.3-2 4.7-2.9 4.5-2.8 7.8-4.9 14-7.7 2.4-1.1 8.8-1.2 11.9 1.8 1.8 1.7 3.1 3.9 4.5 6.5l.8 1.4c2.7 4.8 6.1 10.7 12.4 11.4.4 0 .8.1 1.2.1 3 0 5.8-1.3 8.3-2.4l.7-.3c10.1-4.6 19.8-5.1 26.6-1.4-.5.1-.9.2-1.4.4-1 .3-2.2.7-3.2 1.5-2.9 2.5-1.8 6.6-1.1 8.6-.7.6-1.2 1.3-1.6 2-3.4-.5-8.3.9-15 3.4-22.1 8.1-72.8 18.9-74.7 19.2-.9.2-4-.7-4.8-3.5.5-3 .6-7.1.6-9.5 3.7-4.7 6.4-11 8-19.2 3.1-.6 5.9-2.5 7.3-5.2zm93.4 35.5H369l.2-5.1h.3c1.3 0 2.4 0 3.5-.1.4 0 .7-.1 1.1-.2l.4 5.4zm2.3-18.3c-.2 1-.1 1.9.1 2.7.1.5.2 1 .3 1.3.1.3.2.8.2.9 0 0-.1.2-.4.6-1.6 2-3.3 3.1-4.3 3.1-2.1.1-5.2.1-7.9-.3 0-.6-.1-1.2-.2-1.6-.1-.6-.2-1.3-.2-2.1-.1-1.7-.3-3.5-1-4.9.3-.8 1-1.5 2-2 1.2-.6 2.5-1 4.2-1.3 1.7-.3 3.4-.7 5.1-1.2 3-.8 6-1.6 8.8-1.5.1.2.2.5.2.6-.8.3-1.5.6-2.1 1-.3.1-.5.3-.8.4-1.2.8-3.5 1.9-4 4.3zm-17.5 9.1c-9.2 2-15.7 4.3-23.3 7-5.6 2-11.5 4.1-19.2 6.4-3.7 1.1-11 3.3-14.7 4.5-6.7 2.1-12.5 2.9-23.1 4.3l-2.7.4c-3 .4-3.5 4.6-3.6 7.6-3.8-.4-13.9-1-25.3-.6-.1-1.4-.1-2.8-.2-4.3-.2-3-.3-6.1-.4-8.7 4-.2 8-.8 11.7-1.9 1.2-.3 3.1-.9 4.5-2.3 2.2 2.3 5.4 3.3 7.6 3 1.9-.3 53-11.2 75.5-19.4 7.2-2.6 11.6-3.7 13.3-3.1.3.6.4 2.3.5 3.3.1 1 .2 1.9.3 2.6 0 .2.2.9.2 1 0 0-.4.1-1.1.2zm-131.2 8c-.1-.9 0-1.8.1-2.6.2 0 .4.1.6.1h.2c.3 0 .5-.1.7-.1.7.8 1.4 1.4 2.1 1.9 3.4 2.6 6.9 3.3 10.5 3.3 1.9 0 3.9-.2 5.9-.4 2.3-.2 7.5-2.6 10.7-6.5.4 0 .8-.1 1.2-.4.4-.3.7-.6 1.1-.9-.1 1.8-.3 3.6-.5 4.8-.1.7-.3 1.5-.6 1.9-.5.6-1.6 1-2.7 1.3-8.1 2.3-17.2 2.4-26.4.4-.9-.2-2-.5-2.4-1.1-.3-.4-.4-1.1-.5-1.7zm10.7-48.4c1.8 0 3.7 0 5.6-.1-.1 1-.3 2-.7 2.8-.5.9-1.3 1.5-1.9 1.6-.7 0-1.5-.5-2.1-1.3-.6-.9-.9-1.9-.9-3zm-7.2 25.2c1.3-.9 2.8-1.5 4.3-1.8 1.1-.2 2.6-.2 4.2-.1 4.2.1 8.2.3 11.6 1.3-.4.5-1 .9-1.7 1.4-3.9 2.6-8.9 3.5-13.5 2.5-1.5-.3-3.8-1.9-4.9-3.3zm32.9-30.2c-9.1.7-29.3.8-40.6.8-5.7 0-10.9 0-15-.1-.3-.2-.6-.3-1-.3-.5 0-.9.1-1.2.3-2 0-3.7 0-4.7-.1-5-.1-12.3-1.7-17.6-2.8l-1-.2c-8.2-1.8-15.8-7.7-20.2-15.9-.5-.9-.9-1.9-.9-2.7 0-.3.2-.8.4-1 1 .1 2.2 1 3.3 1.8l.4.3c7.3 5.4 17 8.2 28.7 8.2h2.6c5-.2 12.2-.9 17.1-5.6 3.9-3.8 5.4-9 6.9-14 1.5-5.1 2.8-9.8 6.5-12.6 3.6-2.6 9.6-2.3 12.8.8 2 1.9 3.2 4.6 4.3 7.3 0 .3 0 .5.1.8.6 2 3.3 2.6 4.8 1.7l.7-.4.2-.8c.7-2.3 1.6-4.4 2.8-6.5.6-.9 1.4-2.2 2.4-2.5.9-.3 2.2.3 3.1 1.2 1 1 1.6 2.5 2.3 4l.2.5c2.5 5.4 5.1 9.3 8.2 12.3 3.3 3.2 8 5.2 13.7 6 6.7.9 11.1 1.2 17.3-1.2 5.4-2.1 9.4-6.7 12-9.7.4-.4.7-.8 1.1-1.3 0 .4-.1.9-.2 1.4-1.3 6.4-4.6 12.4-9.3 16.9-5.3 5.1-13 8.8-23.7 11.3-5.1 1.1-10.5 1.6-16.5 2.1zm-53.9 10.5c-.4-1.8-.6-3.6-.6-5.5 3.9 0 8.7.1 13.9.1h10.6c0 1.9.5 3.8 1.6 5.4l.2.2c-4.5.8-8.5 2.7-11.5 5.6-4.6 4.4-6.6 11.3-5 17.1.5 1.6 1.9 2.8 3.7 2.8h.4c.1 2 .3 4.1.9 6.3.3 1 .7 2 1.2 3-.1 0-.1 0-.2.1-1.2-.6-2.4-1.4-3.5-2.2-.9-.6-1.7-1.2-2.4-1.9-1.2-1.2-2.1-2.7-3.1-4.3-1.2-2-2.9-5.5-4.8-10.4-.5-1.4-1.8-1.6-3.1-1.9-.7-.1-2.4-.5-2.8-.9-.8-1.2-1.3-2.8-1.4-4.9-.1-1.3 0-2.2.3-2.9.7-1.4 2.5-2.3 4.4-3.2l1.6-.7-.4-1.8zm-104.8 37.4c.8.4 1.4 1 1.8 1.7-1.1 2.7-1.8 5.5-2 8.3-.1.1-.2.1-.3.2l-6.4-.2c-1.6-.1-3.1-.2-3.7-.9-.7-.9-.3-2.8 0-4.5.2-.8.3-1.6.1-2.6-.5-2.3-2.8-3.4-3.8-3.9-.4-.2-.8-.3-1.2-.4-.2-.1-.5-.2-.5-.1-.3-.4-.3-.7-.3-.7.1-.2.4-.4.7-.6 3 .4 4.8.9 6.7 1.4 1.5.4 3 .8 5.1 1.2 1.5.2 2.7.5 3.8 1.1zm106.4 41.4c1.7-.4 3-1.7 3.2-3.5.1-.3.2-.7.3-1.1 16.8-7.3 51.3-5.6 56.6-4.9l.5.5.1.1c.1 1.1.5 3.3 1.6 4.3l.6.6h.9c16.8.1 32.3 4.4 45.1 12.3 13.5 8.4 24.4 20.3 31.5 34.5 1.2 2.3 2.2 4.7 3.3 7l3.1 6.9c-26 2-38.5 3.5-44.6 4.7-8.2-13.5-22.3-24.6-37-28.9-9.8-2.9-20.3-3.6-30.3-2.1-7.2 1.1-14.8 2.6-21 5.9-11.3 6.1-21 12.1-25.4 22.2-2-.6-4.1-1-6.2-1.4-14.2-2.2-29.2-3.9-43 .7 3.1-10.4 10.2-21.4 21.3-32.7 9.9-9.8 23.1-21.6 39.4-25.1zm149.6 52.3l-1.9-4.2-3.3-7.2c-7.5-14.9-18.9-27.4-33.1-36.2-6.4-4-13.4-7.1-21-9.2 12 .2 24.1 4.9 32.9 13.1l1.1 1c2.4 2.3 5.2 4.9 8.9 5.8 2.1.5 4.1.4 6 .2 1.8-.1 3.4-.2 4.9.1 2.5.7 4.8 3 6.4 6.3 2.4 5.1 2.7 11 3 16.9.5 9.1-1.7 12.4-3.9 13.4zM184 416.1c-1.2-3.3-4.5-4.5-7.2-5.4l-1.8-.6s0-.1.1-.2c.8-1.9 2.1-3.5 3.5-5.3.6-.8 1.3-1.6 1.8-2.4l16.5-21c2.2-2.4 3.9-5.1 5.5-7.7.9-1.4 1.8-2.9 2.8-4.3.7-.9.9-2.1.7-3.2-.2-.8-.6-1.5-1.2-2.1 3.9-8.9 13-14.5 23.6-20.2 5.8-3.2 13.2-4.5 19.5-5.4 9.4-1.4 19.3-.8 28.4 1.9 13.1 3.9 26.1 13.9 33.7 25.9-1.1.4-1.5.8-1.8 1-1.3 1.2-2 2.6-2 4-.1 2.1 1.2 3.7 1.9 4.6 2.4 3 4.9 6 7.3 9.1 7.1 8.6 14.3 17.6 20.5 27.1 2 3 3.8 6.6 3 9.6-.3 1.3-1.1 2.5-2 3.7-.8 1.3-1.7 2.6-2.3 4.2-1.4 3.8-.6 6.9.2 9-10.2-.2-18.5-.5-23.6-1-13.9-1.3-26.4-2-38.1-2.3l-91.2-2.5c1.1-2.4 1.7-4.7 2.3-7.3l.3-1.1c.7-1.8.2-6.4-.4-8.1zm155.6 22.5c-.1-.2-.2-.4-.3-.7-.8-1.9-1.6-4-.6-6.9.4-1.1 1.1-2.2 1.8-3.3 1-1.5 2-3.1 2.5-5 1.3-4.7-1.1-9.3-3.6-13.1-6.2-9.7-13.6-18.7-20.7-27.5-2.4-3-4.9-6-7.3-9-.3-.4-1-1.3-1-1.7 0-.2.2-.6.6-1 .9-.6 7.2-2.7 50.5-6 .3.1.7.1 1 .1.4.1.8.2 1.1.5 2.6 2.1 4.1 5.6 5 8.2 3.3 10 9.1 56.3 10.1 65.1-9.2.2-18.4.3-26.7.3-4.3.1-8.5.1-12.4 0zm83.4-175c-1.2-.1-2.2-1-4.2-3.3-3.4-3.8-8.6-9.6-20.4-6.9-1.7.4-2.8 1.9-3.9 3.5-2.3 3.1-3.6 4.5-6.4 3.4-4.2-1.6-4.7-3.4-5.4-5.4-.2-.6-.4-1.1-.6-1.7-.2-.5-.6-.8-1-1 0-.2-.1-.5-.1-.7 0-.1.3-.5 1.6-1.1.3-.2.7-.3 1-.5.5-.2.9-.5 1.4-.7 1.2-.4 2-1.1 2.5-2.1 2.6-.2 4.6-.5 7.3-1l17-2.9c4.3 6.3 8.1 13.1 11.2 20.4zm-10.7-32.7l.5-.1c.6-.1 1.9-.4 2.7-.5.3 2.9.3 4.4.3 6.1v1.9l-21.8 3.8c-2.4.4-4.3.7-6.6.9-.6-1.3-1.5-2.5-2.8-2.6-3.8-.3-7.5.7-11 1.6-1.6.4-3.2.8-4.8 1.1-1.2.2-2.4.5-3.6.9-.4-1.5-.4-2.6.1-3.1.3-.3.9-.5 1.5-.6 3.8-1.1 7.9-1.7 11.9-2.3l1.9-.3c7.7-1.2 13.7-2.6 21.2-4.3 1.2-.3 2.6-.6 3.9-.9.5.1 1.1 0 1.5-.3 1.6-.6 3.3-.9 5.1-1.3zm-158.2-79c59 0 114.1 28.7 148.2 76.8l-1.5.3c-7.4 1.7-13.3 3.1-20.9 4.2l-1.9.3-5.7.9c-.1-.5-.4-.9-.8-1.2-11.6-8.4-26.9-2.9-32.9-.2l-.7.3c-2.5 1.1-4.9 2.2-7.1 2-4.1-.5-6.6-4.9-9.1-9.3l-1-1.7c-1.5-2.5-3-5.1-5.2-7.2-4.6-4.5-12.8-4.4-16.7-2.7-6.5 2.9-9.9 5-14.6 8-1.2.7-2.5 1.6-3.9 2.4-.6-.8-1.4-1.6-2.3-2.1l-.6-.3c-.2-.1-.5-.2-.4-.1V217.2c1.7-.3 3.4-.6 5-1 11.5-2.7 19.9-6.8 25.7-12.4 5.3-5.1 9-11.9 10.5-19.2.4-1.9.7-4.6-1-6.8-.6-.7-1.3-1.1-2.2-1.1-1.8 0-3.1 1.5-5.2 4-2.5 2.9-5.9 6.8-10.3 8.5-5.4 2.1-8.8 1.8-15.1.9-4.9-.7-8.7-2.3-11.3-4.8-2.7-2.6-5-6.1-7.2-10.9l-.2-.5c-.8-1.7-1.6-3.6-3.1-5.2-2-2.2-5-3.2-7.5-2.5-2.5.7-4 2.9-4.9 4.5-.7 1.1-1.3 2.3-1.8 3.5-1.1-2.3-2.4-4.6-4.3-6.5-2.6-2.4-6.2-3.8-9.9-3.8-3.1 0-6.1 1-8.5 2.7-4.9 3.6-6.5 9.3-8.1 14.9-1.4 4.7-2.6 9.1-5.7 12.1-3.8 3.6-10 4.3-14.2 4.4h-2.4c-10.8 0-19.6-2.5-26.1-7.3l-.4-.3c-1.6-1.2-3.6-2.7-6.3-2.7-2.6.1-4.3 2.9-4.3 5.4 0 1.8.7 3.3 1.5 4.7 5 9.3 13.6 16.1 23.1 18.1l1 .2c5.5 1.2 13 2.8 18.5 2.9.9 0 2.1 0 3.7.1 0 1.6.1 3.2.4 4.8-1.8.9-3.9 2.3-5 4.6-.6 1.3-.8 2.7-.8 3.9-.2 0-.4.1-.6.1l-1 .5c-1.1.5-2.3 1.1-3.4 1.7-1.6.9-3.1 2-4.6 3.1-2.5 1.8-4.9 3.5-7.5 4.2-5.2 1.4-10.9-1.5-14.7-4.1-1.5-1-3-2.1-4.5-3.3-3.2-2.5-6.6-5-10.5-6.7-7.4-3.2-18.9-5.5-29.4-2.5-6.6 1.9-12.3 3.7-23.3 8.2 27.1-49.4 86.5-81.7 153-81.7zM58.3 252.3v-1.7c0-1.5 0-3 .3-5.6.7.1 1.9.3 2.4.4l.4.1c3.8.8 7 1.6 10 2.3 7.1 1.7 12.7 3 20 4.1l1.8.3c3.7.6 7.6 1.1 11.2 2.2.5.1 1.1.3 1.4.6.4.4.5 1.3.1 2.7-1.1-.4-2.2-.6-3.3-.8-1.9-.3-3.3-.7-4.8-1.1-2-.6-4.1-1.1-7.6-1.6-1.2-.1-3.5 1-4.6 2.7-2.5-.2-4.3-.4-6.9-.9l-20.4-3.7zM86.9 263c.7.5 1.4.7 2 .9.2.1.4.1.6.2 1.3.6 1.5.9 1.5 1 0 .1-.1.6-.1.9-.5 2.4-1.1 5.6.9 8 .5.6 1.1 1.1 1.8 1.4l-.5 6.2c0 .4-.1 1.2.3 2 .4.9 1.4 1.9 3.6 1.9h9.8l-.3-7.2c1 .8 2.6 1.5 4.6 2.3l-1.5 9.4c-.2 1.2.6 2.3 1.8 2.5h.3c1 0 2-.8 2.1-1.8l1.4-8.7c2.8.8 5.9 1.5 9.1 2.3h.2c-.4 3.5-.6 7-.5 10.5 0 1.2 1 2.1 2.2 2.1h.1c1.2 0 2.1-1 2.1-2.2-.1-3.1.1-6.3.5-9.4 3.8.8 7 1.5 9.9 2 .1 3.6.1 7.2.1 10.7 0 1.2.9 2.2 2.1 2.2h.1c1.2 0 2.1-.9 2.2-2.1.1-3.4.1-6.7 0-10.1 2.9.5 5.7.8 8.5 1.2-.1 3.2 0 6.5.1 9.7 0 1.2 1 2.1 2.2 2.1h.1c1.2 0 2.1-1.1 2.1-2.3-.1-3-.1-6-.1-9 .2 0 .5.1.7.1 2.7.3 5.6.7 9 1.1.2 3.3.5 6.6 1 9.9.2 1.1 1.1 1.8 2.1 1.8h.3c1.2-.2 2-1.3 1.8-2.5-.4-2.9-.7-5.8-.9-8.7 3.2.4 6.6.8 9.7 1.1.2 2 .1 4.1 0 5.7 0 .8-.1 1.4-.1 1.9 0 1.2 1 2.2 2.2 2.2 1.2 0 2.2-1 2.2-2.2 0-.4 0-1 .1-1.7.1-1.5.2-3.5 0-5.6 3.1.2 6.2.5 9.1.6.1.6.2 1.2.4 1.8.1.5.3 1.2.3 1.5-.1 1.2.8 2.2 2 2.3h.1c1.1 0 2.1-.9 2.2-2 .1-1-.2-1.9-.4-2.9 0-.2-.1-.3-.1-.5 4.9.2 9.4.1 13.3-.5 0 .1 0 .3-.1.4-.2 1.6-.4 3.3-.2 4.9.1.3.2.6.4.9-.9.2-1.8.4-2.6.6-8.9-2.7-21.6 2-26.7 4.1-7.5 3.2-10.6 5.9-15.6 12-.3.4-1 1.2-1.3 1.2-.2.1-.8-.2-1.1-.3l-9.1-3.5c-1.6-.6-3.9-1.5-6.3-1-2.7.5-5.1 2.7-6.5 6-1.6 3.7-1.8 7.8-1.9 11.4 0 .9-.1 2.2.4 3.5.2.4.4.8.6 1.3l.3.6c.4.8.1 2.1-.3 3.5-.5 2.1-.9 3.7-1.3 5.3-.4 1.5-.7 3.1-1.3 5.4-.7 2.9-1.9 7.3.9 10 1.7 1.7 4.3 2.1 7.8 2.3-.2.8-.5 1.5-.6 2.3-.1.4 0 .9.1 1.2-3.7 7.4-6 16.2-6.7 26.1-.3 4.5.3 8.9.9 13.3.6 4.9 1.2 9.4.7 13.9-.2 1.4-.9 2.8-1.6 4.1-1.5 2.5-2 6.2-1.5 9.5-3.6.1-7 .2-10.1.5-3.2.2-6.3.6-9.5.9-4.9.5-9.9 1-14.9 1.2-20.3-30-31-65-31-101.4-.3-25 4.5-48.6 13.8-70.3zm327.8 197.4l-.7.6c-1.4 1.1-3.4 2.8-3.6 5.1-.2 2.5 1.6 4.3 3.4 6.1l1 1c2.8 2.9 5.3 6.1 7.7 9.2 2.9 3.7 5.6 7.2 8.7 10.1.2.2.2.4.1.5-.1.3-.3.3-.3.3-7.3 1.4-15.6 2-24.7 2-16.2 0-31.9-2.1-42.2-3.9-13.2-2.3-163.9-4.4-217.8-4.4-10 0-16.7.1-20.1.2-6.6.2-15.6 1-23.6 1.8-7 .6-13.1 1.2-15.8 1.2.9-3.9 7.9-15.5 13.7-23 .7-.9 1.6-2.1 1.8-3.8.5-3.7-3-6.2-4.1-7l-5.7-3.9c-7.3-5-14.9-10.1-18.7-17.5 9.1 2.7 18.6 4 28.2 3.9.4.2.8.4 1.2.4.4 0 .9-.1 1.2-.4 5-.2 10.1-.7 15-1.2 3.1-.3 6.2-.7 9.4-.9 4.6-.4 9.7-.5 15.5-.5 5.4 0 11 .1 16.3.3l112.7 3c11.7.3 24.1 1.1 37.9 2.3 7.8.7 23.2 1.1 41.2 1.1 29.9 0 70.4-1.2 86.7-4.7-3.5 6.5-18.6 17.8-24.4 22.1z"/><path id="XMLID_117_" class="st3" d="M152.6 449.8c-1.2-.1-2.2.9-2.3 2.1-.4 6.8-1.3 13.5-2.8 20.1-.1.4-.2.7-.3.9 0-.1-.1-.1-.1-.2L137 457.3l-1.7 3.5c-.5 1.1-1.1 2.6-1.7 4.2-.9 2.5-3.1 8.3-4.3 8.8-1.3-.8-2.5-7.2-3.2-11-.8-4-1.6-8.2-2.8-11-.5-1.1-1.8-1.6-2.9-1.1-1.1.5-1.6 1.8-1.1 2.9 1 2.4 1.8 6.3 2.5 10.1 1.5 8 2.6 13 5.9 14.2.5.2 1.1.3 1.5.3 4 0 6.4-6.4 8.4-11.6 0-.1 0-.1.1-.1l5.7 8.7c.5.7 1.4 2.2 3.2 2.5 2.4.4 4.4-1.4 5.1-4.6 1.5-6.8 2.5-13.8 2.9-20.8.1-1.4-.8-2.4-2-2.5z"/><path id="XMLID_116_" class="st3" d="M191.9 471.5l-14.2 1.6c-.1-2.4-.3-4.8-.5-7.2 1.9-.4 4.3-.4 6.6-.3 2.1 0 4 .1 5.7-.2 1.2-.1 2-1.2 1.9-2.4-.1-1.2-1.2-2.1-2.4-1.9-1.4.2-3.2.2-5.1.1-2.4 0-4.9-.1-7.1.3-.3-2.2-.5-4.5-.9-6.7 4.7.1 9.5-.1 14.1-.5 1.2-.1 2.1-1.2 2-2.4-.1-1.2-1.2-2.1-2.4-2-5.4.5-10.8.6-16.3.4l-2.7-.1.5 2.7c1.4 7.4 2.2 15 2.4 22.6l.1 2.4 18.8-2.2c1.2-.1 2-1.2 1.9-2.4-.1-1.1-1.2-2-2.4-1.8z"/><path id="XMLID_115_" class="st3" d="M222.3 462.1c-3.2-.9-4.7-2.7-5.5-4.1-.9-1.6-.9-2.9-.8-3.2.5-1.4 1.5-2.4 2.9-2.9 2-.7 4.5-.4 6.7.9 1 .6 2.4.3 3-.8.6-1 .3-2.4-.8-3-3.3-1.9-7.1-2.4-10.4-1.2-2.6.9-4.6 2.9-5.5 5.5-.6 1.7-.2 4.3.9 6.5s3.5 5.1 8.3 6.4c5.8 1.7 5.1 4.4 4.8 5.6-.4 1.3-3.3 3.7-4.6 3.8-1.9.1-5.4-.9-6.8-3.3-.6-1-1.9-1.4-3-.8-1 .6-1.4 1.9-.8 3 2.3 4.1 7.3 5.5 10.3 5.5h.5c3.3-.2 7.8-3.8 8.6-7 .6-2.4 1.1-8.3-7.8-10.9z"/><path id="XMLID_114_" class="st3" d="M266.8 451c-7.7-.9-15.5-.9-23.2-.1-1.2.1-2.1 1.2-1.9 2.4.1 1.2 1.2 2 2.4 1.9 3.2-.3 6.4-.5 9.6-.5.1 7.6.5 15.4 1.1 23-.1.3-.1.6 0 .8l.2 1.4 4.3-.5c-.7-8.2-1.1-16.5-1.2-24.7 2.8.1 5.5.3 8.2.6h.2c1.1 0 2-.8 2.2-1.9.2-1.2-.7-2.2-1.9-2.4z"/><path id="XMLID_113_" class="st3" d="M303.2 476.3l-13 .5c-.6-3.3-.9-6.6-1.1-9.8h.3c.4-.1.7-.2 1.1-.5 1.5 0 3.4.1 5.3.2 2.5.1 5 .2 6.6.3 1.2 0 2.2-1 2.2-2.2 0-1.2-1-2.2-2.2-2.2-1.5 0-3.9-.1-6.4-.2-2.5-.1-5-.2-6.6-.2-.2 0-.3 0-.4.1 0-2.3.1-4.7.3-7 3.7.3 7.5.3 11.2.1 1.2-.1 2.1-1.1 2.1-2.3-.1-1.2-1.1-2.1-2.3-2.1-4.2.2-8.5.1-12.6-.3l-2.1-.2-.3 2.1c-1.1 8.6-.8 17.7 1 26.9l.4 1.8 16.7-.6c1.2 0 2.1-1 2.1-2.2-.1-1.3-1.1-2.2-2.3-2.2z"/><path id="XMLID_112_" class="st3" d="M364.3 481.8c1.2.1 2.2-.8 2.3-2l1.3-17.4c4.6 5.4 9.7 11.8 13.9 17l3.5 4.4 1.2-4c1.8-5.9 3-14.2 3.5-22.7.1-1.2-.9-2.2-2.1-2.3-1.2-.1-2.2.9-2.3 2.1-.4 7.8-1.4 13.7-2.2 17.5-4.8-6-10.4-13-15.2-18.4-1.2-1.4-2.5-.9-2.9-.7-.5.2-1.5 1-1 2.8 0 .1 0 .1.1.2-.4.7-.5 1.4-.5 1.9l-1.5 19.3c-.2 1.2.7 2.2 1.9 2.3z"/><path class="st3" d="M333.8 469h.7c1.3 0 2.8-.1 4.2-.8 3-1.5 4.3-5.5 3-9-.9-2.5-3-4.6-6.1-6.1-4.3-2.1-9.1-2.5-13-1l-1.5.6.1 1.6c.1 2.3.3 4.7.4 7 .2 4.6.5 9.4.9 14 .2 1.8.3 3.4.3 4.5.1 1.3.2 3.3 2.2 3.3 2.1 0 2.2-1.7 2.2-4.2v-1.2c-.3-4.3-.3-6.8-.2-8.2 5.3 3.4 10 7.9 13.5 13.2.4.6 1.1 1 1.8 1 .4 0 .8-.1 1.2-.4 1-.7 1.3-2 .6-3-2.7-4.2-6.3-8.1-10.3-11.3zm-.1-11.9c1.4.7 3.3 1.9 4 3.7.5 1.3.1 3-.9 3.5-.6.3-1.4.3-2.2.3h-.3c-2.6 0-5.3-.2-7.9-.5h-.2c-.1-1-.1-2.1-.2-3.1-.1-1.8-.2-3.5-.3-5.3 2.5-.4 5.4.1 8 1.4z"/><g><path id="XMLID_109_" class="st7" d="M254.1 151.9c59 0 114.1 28.7 148.2 76.8l-1.5.3c-7.4 1.7-13.3 3.1-20.9 4.2l-1.9.3-5.7.9c-.1-.5-.4-.9-.8-1.2-11.6-8.4-26.9-2.9-32.9-.2l-.7.3c-2.5 1.1-4.9 2.2-7.1 2-4.1-.5-6.6-4.9-9.1-9.3l-1-1.7c-1.5-2.5-3-5.1-5.2-7.2-4.6-4.5-12.8-4.4-16.7-2.7-6.5 2.9-9.9 5-14.6 8-1.2.7-2.5 1.6-3.9 2.4-.6-.8-1.4-1.6-2.3-2.1l-.6-.3c-.2-.1-.5-.2-.4-.1V217.2c1.7-.3 3.4-.6 5-1 11.5-2.7 19.9-6.8 25.7-12.4 5.3-5.1 9-11.9 10.5-19.2.4-1.9.7-4.6-1-6.8-.6-.7-1.3-1.1-2.2-1.1-1.8 0-3.1 1.5-5.2 4-2.5 2.9-5.9 6.8-10.3 8.5-5.4 2.1-8.8 1.8-15.1.9-4.9-.7-8.7-2.3-11.3-4.8-2.7-2.6-5-6.1-7.2-10.9l-.2-.5c-.8-1.7-1.6-3.6-3.1-5.2-2-2.2-5-3.2-7.5-2.5-2.5.7-4 2.9-4.9 4.5-.7 1.1-1.3 2.3-1.8 3.5-1.1-2.3-2.4-4.6-4.3-6.5-2.6-2.4-6.2-3.8-9.9-3.8-3.1 0-6.1 1-8.5 2.7-4.9 3.6-6.5 9.3-8.1 14.9-1.4 4.7-2.6 9.1-5.7 12.1-3.8 3.6-10 4.3-14.2 4.4h-2.4c-10.8 0-19.6-2.5-26.1-7.3l-.4-.3c-1.6-1.2-3.6-2.7-6.3-2.7-2.6.1-4.3 2.9-4.3 5.4 0 1.8.7 3.3 1.5 4.7 5 9.3 13.6 16.1 23.1 18.1l1 .2c5.5 1.2 13 2.8 18.5 2.9.9 0 2.1 0 3.7.1 0 1.6.1 3.2.4 4.8-1.8.9-3.9 2.3-5 4.6-.6 1.3-.8 2.7-.8 3.9-.2 0-.4.1-.6.1l-1 .5c-1.1.5-2.3 1.1-3.4 1.7-1.6.9-3.1 2-4.6 3.1-2.5 1.8-4.9 3.5-7.5 4.2-5.2 1.4-10.9-1.5-14.7-4.1-1.5-1-3-2.1-4.5-3.3-3.2-2.5-6.6-5-10.5-6.7-7.4-3.2-18.9-5.5-29.4-2.5-6.6 1.9-12.3 3.7-23.3 8.2 27.1-49.4 86.5-81.7 153-81.7z"/></g><g><path id="XMLID_108_" class="st9" d="M102.3 281.2h-4.9l.4-4.7c.4 0 .8 0 1.1.1l3.2.1.2 4.5z"/></g><g><path id="XMLID_107_" class="st9" d="M374.5 268.9H369l.2-5.1h.3c1.3 0 2.4 0 3.5-.1.4 0 .7-.1 1.1-.2l.4 5.4z"/></g><g><path id="XMLID_106_" class="st9" d="M412.3 230.9l.5-.1c.6-.1 1.9-.4 2.7-.5.3 2.9.3 4.4.3 6.1v1.9l-21.8 3.8c-2.4.4-4.3.7-6.6.9-.6-1.3-1.5-2.5-2.8-2.6-3.8-.3-7.5.7-11 1.6-1.6.4-3.2.8-4.8 1.1-1.2.2-2.4.5-3.6.9-.4-1.5-.4-2.6.1-3.1.3-.3.9-.5 1.5-.6 3.8-1.1 7.9-1.7 11.9-2.3l1.9-.3c7.7-1.2 13.7-2.6 21.2-4.3 1.2-.3 2.6-.6 3.9-.9.5.1 1.1 0 1.5-.3 1.6-.6 3.3-.9 5.1-1.3z"/></g><g><path id="XMLID_105_" class="st9" d="M58.3 252.3v-1.7c0-1.5 0-3 .3-5.6.7.1 1.9.3 2.4.4l.4.1c3.8.8 7 1.6 10 2.3 7.1 1.7 12.7 3 20 4.1l1.8.3c3.7.6 7.6 1.1 11.2 2.2.5.1 1.1.3 1.4.6.4.4.5 1.3.1 2.7-1.1-.4-2.2-.6-3.3-.8-1.9-.3-3.3-.7-4.8-1.1-2-.6-4.1-1.1-7.6-1.6-1.2-.1-3.5 1-4.6 2.7-2.5-.2-4.3-.4-6.9-.9l-20.4-3.7z"/></g><g><path id="XMLID_104_" class="st10" d="M184.1 288.5c-4.7-.4-11.8-1.2-17-1.9-3.8-.5-7-.9-9.9-1.2-9.8-1.2-16.2-1.9-30.7-5.3l-1.1-.3c-3.5-.8-12.2-2.8-15.5-4.6-.1-3.5.6-7.1 2-10.3 11.8 4.7 24.4 8.6 36.8 11.2 9.6 2 20.2 3.4 33.4 4.3 11.6.8 23.5 1.1 35.1 1 1.4 0 3.2 0 4.9-.8 2.6-1.2 4.6-3.7 5.7-6.6.8.4 1.7.6 2.4.8 4.2.9 8.4 1.4 12.5 1.5 0 2.7.2 5.8.4 8.9.1 1.5.2 2.9.2 4.3-10 .6-20.3 2.1-28 5.1 0-.1 0-.3.1-.4.3-2.1.5-3.8-.7-5-.6-.6-1.5-.8-2.3-.6-7.2 1.4-17.1.8-28.3-.1z"/></g><g><path id="XMLID_103_" class="st10" d="M359.3 259.7c-9.2 2-15.7 4.3-23.3 7-5.6 2-11.5 4.1-19.2 6.4-3.7 1.1-11 3.3-14.7 4.5-6.7 2.1-12.5 2.9-23.1 4.3l-2.7.4c-3 .4-3.5 4.6-3.6 7.6-3.8-.4-13.9-1-25.3-.6-.1-1.4-.1-2.8-.2-4.3-.2-3-.3-6.1-.4-8.7 4-.2 8-.8 11.7-1.9 1.2-.3 3.1-.9 4.5-2.3 2.2 2.3 5.4 3.3 7.6 3 1.9-.3 53-11.2 75.5-19.4 7.2-2.6 11.6-3.7 13.3-3.1.3.6.4 2.3.5 3.3.1 1 .2 1.9.3 2.6 0 .2.2.9.2 1 0 0-.4.1-1.1.2z"/></g><g><path id="XMLID_102_" class="st8" d="M145.3 333.5c-.2-.4-.3-.7-.5-1.1l-.3-.6c-.2-.4-.1-1.1-.1-1.8.1-3.4.3-6.9 1.6-9.8.8-1.9 2.1-3.2 3.3-3.4 1.1-.2 2.4.2 3.9.8l9.1 3.5c.8.3 1.9.7 3.3.5 2-.3 3.2-1.8 4-2.7 4.7-5.6 7.2-7.9 14-10.7 4.5-1.9 9.9-3.6 14.8-4.3-11.5 5.6-21 14.3-28.5 22-10.6 10.8-17.7 21.4-21.4 31.5-2.1-.1-5.2-.2-6-1-1-1-.2-4.1.3-6.1.5-2.1.9-3.7 1.3-5.2s.7-3.1 1.3-5.2c.3-1.7.9-4.1-.1-6.4z"/></g><g><path id="XMLID_101_" class="st8" d="M361.8 355.9l-1.9-4.2-3.3-7.2c-7.5-14.9-18.9-27.4-33.1-36.2-6.4-4-13.4-7.1-21-9.2 12 .2 24.1 4.9 32.9 13.1l1.1 1c2.4 2.3 5.2 4.9 8.9 5.8 2.1.5 4.1.4 6 .2 1.8-.1 3.4-.2 4.9.1 2.5.7 4.8 3 6.4 6.3 2.4 5.1 2.7 11 3 16.9.5 9.1-1.7 12.4-3.9 13.4z"/></g><g><path class="st10" d="M70.6 583.1h1.9v13.2h6.3v1.6h-8.3v-14.8zM90.2 592.5c0 3.9-2.7 5.7-5.3 5.7-2.9 0-5.1-2.1-5.1-5.5 0-3.6 2.3-5.7 5.3-5.7 3.1.1 5.1 2.3 5.1 5.5zm-8.4.1c0 2.3 1.3 4.1 3.2 4.1 1.9 0 3.2-1.7 3.2-4.1 0-1.8-.9-4.1-3.2-4.1-2.2 0-3.2 2.1-3.2 4.1zM92.7 590.6c0-1.3 0-2.3-.1-3.3h1.7l.1 2.1h.1c.5-1.4 1.6-2.3 2.9-2.3.2 0 .4 0 .5.1v1.8c-.2 0-.4-.1-.7-.1-1.4 0-2.3 1-2.6 2.5 0 .3-.1.6-.1.9v5.7h-1.9v-7.4zM100.7 593c0 2.6 1.7 3.7 3.7 3.7 1.4 0 2.2-.2 2.9-.5l.3 1.4c-.7.3-1.8.7-3.5.7-3.3 0-5.2-2.2-5.2-5.4s1.9-5.7 5-5.7c3.5 0 4.4 3.1 4.4 5 0 .4 0 .7-.1.9h-7.5zm5.7-1.4c0-1.2-.5-3.1-2.7-3.1-2 0-2.8 1.8-3 3.1h5.7zM110.7 590.2c0-1.1 0-2-.1-2.9h1.7l.1 1.7h.1c.6-1 1.6-2 3.3-2 1.5 0 2.6.9 3 2.1.3-.6.7-1.1 1.2-1.4.6-.5 1.3-.7 2.4-.7 1.4 0 3.5.9 3.5 4.6v6.3H124v-6c0-2-.7-3.3-2.3-3.3-1.1 0-2 .8-2.3 1.8-.1.3-.2.6-.2 1v6.6h-1.9v-6.4c0-1.7-.7-2.9-2.2-2.9-1.2 0-2.1 1-2.4 1.9-.1.3-.2.6-.2.9v6.4h-1.9v-7.7zM135.8 584.3c0 .7-.5 1.2-1.2 1.2s-1.2-.5-1.2-1.2.5-1.2 1.2-1.2c.8 0 1.2.5 1.2 1.2zm-2.1 13.7v-10.7h1.9V598h-1.9zM138.8 590.8c0-1.4 0-2.5-.1-3.5h1.7l.1 1.8c.8-1.3 2-2.1 3.8-2.1 2.6 0 4.5 2.2 4.5 5.4 0 3.8-2.3 5.7-4.8 5.7-1.4 0-2.6-.6-3.3-1.7v5.8h-1.9v-11.4zm1.9 2.8c0 .3 0 .6.1.8.4 1.3 1.5 2.3 2.9 2.3 2 0 3.2-1.7 3.2-4.1 0-2.1-1.1-4-3.2-4-1.3 0-2.6.9-2.9 2.4-.1.2-.1.5-.1.8v1.8zM151.1 596c.6.4 1.6.8 2.6.8 1.4 0 2.1-.7 2.1-1.6 0-.9-.6-1.4-2-2-1.9-.7-2.8-1.7-2.8-3 0-1.7 1.4-3.1 3.7-3.1 1.1 0 2 .3 2.6.7l-.5 1.4c-.4-.3-1.2-.6-2.2-.6-1.1 0-1.8.7-1.8 1.5 0 .9.6 1.3 2 1.8 1.9.7 2.8 1.6 2.8 3.2 0 1.9-1.5 3.2-4 3.2-1.2 0-2.2-.3-3-.7l.5-1.6zM169 595c0 1.1 0 2.1.1 2.9h-1.7l-.1-1.7c-.5.9-1.6 2-3.5 2-1.7 0-3.7-.9-3.7-4.7v-6.2h1.9v5.9c0 2 .6 3.4 2.4 3.4 1.3 0 2.2-.9 2.6-1.8.1-.3.2-.6.2-1v-6.5h1.9v7.7zM172.2 590.2c0-1.1 0-2-.1-2.9h1.7l.1 1.7h.1c.6-1 1.6-2 3.3-2 1.5 0 2.6.9 3 2.1.3-.6.7-1.1 1.2-1.4.6-.5 1.3-.7 2.4-.7 1.4 0 3.5.9 3.5 4.6v6.3h-1.9v-6c0-2-.7-3.3-2.3-3.3-1.1 0-2 .8-2.3 1.8-.1.3-.2.6-.2 1v6.6h-1.9v-6.4c0-1.7-.7-2.9-2.2-2.9-1.2 0-2.1 1-2.4 1.9-.1.3-.2.6-.2.9v6.4h-1.9v-7.7zM204.4 582.3v12.9c0 .9 0 2 .1 2.8h-1.7l-.1-1.8c-.6 1.2-1.9 2.1-3.6 2.1-2.6 0-4.6-2.2-4.6-5.4 0-3.5 2.2-5.7 4.8-5.7 1.6 0 2.7.8 3.2 1.6v-6.4h1.9zm-2 9.3c0-.2 0-.6-.1-.8-.3-1.2-1.3-2.2-2.8-2.2-2 0-3.2 1.8-3.2 4.1 0 2.2 1.1 3.9 3.1 3.9 1.3 0 2.5-.9 2.8-2.3.1-.3.1-.5.1-.8v-1.9zM217.2 592.5c0 3.9-2.7 5.7-5.3 5.7-2.9 0-5.1-2.1-5.1-5.5 0-3.6 2.3-5.7 5.3-5.7 3.1.1 5.1 2.3 5.1 5.5zm-8.4.1c0 2.3 1.3 4.1 3.2 4.1 1.8 0 3.2-1.7 3.2-4.1 0-1.8-.9-4.1-3.2-4.1-2.2 0-3.2 2.1-3.2 4.1zM219.7 582.3h1.9V598h-1.9v-15.7zM234.5 592.5c0 3.9-2.7 5.7-5.3 5.7-2.9 0-5.1-2.1-5.1-5.5 0-3.6 2.3-5.7 5.3-5.7 3 .1 5.1 2.3 5.1 5.5zm-8.5.1c0 2.3 1.3 4.1 3.2 4.1 1.8 0 3.2-1.7 3.2-4.1 0-1.8-.9-4.1-3.2-4.1-2.2 0-3.2 2.1-3.2 4.1zM236.9 590.6c0-1.3 0-2.3-.1-3.3h1.7l.1 2.1h.1c.5-1.4 1.6-2.3 2.9-2.3.2 0 .4 0 .6.1v1.8c-.2 0-.4-.1-.7-.1-1.4 0-2.3 1-2.6 2.5 0 .3-.1.6-.1.9v5.7h-1.9v-7.4zM248.5 596c.6.4 1.6.8 2.6.8 1.4 0 2.1-.7 2.1-1.6 0-.9-.5-1.4-2-2-1.9-.7-2.8-1.7-2.8-3 0-1.7 1.4-3.1 3.7-3.1 1.1 0 2 .3 2.6.7l-.5 1.4c-.4-.3-1.2-.6-2.2-.6-1.1 0-1.8.7-1.8 1.5 0 .9.6 1.3 2 1.8 1.8.7 2.8 1.6 2.8 3.2 0 1.9-1.5 3.2-4 3.2-1.2 0-2.2-.3-3-.7l.5-1.6zM259.7 584.3c0 .7-.5 1.2-1.2 1.2s-1.2-.5-1.2-1.2.5-1.2 1.2-1.2 1.2.5 1.2 1.2zm-2.2 13.7v-10.7h1.9V598h-1.9zM265 584.2v3.1h2.8v1.5H265v5.7c0 1.3.4 2.1 1.5 2.1.5 0 .9-.1 1.1-.1l.1 1.5c-.4.2-1 .3-1.7.3-.9 0-1.6-.3-2.1-.8-.6-.6-.7-1.5-.7-2.8v-5.8h-1.7v-1.5h1.7v-2.6l1.8-.6zM280.5 598l-.2-1.3h-.1c-.6.8-1.7 1.6-3.3 1.6-2.2 0-3.3-1.5-3.3-3.1 0-2.6 2.3-4 6.4-4v-.2c0-.9-.2-2.5-2.4-2.5-1 0-2 .3-2.8.8l-.4-1.3c.9-.6 2.2-.9 3.5-.9 3.3 0 4.1 2.2 4.1 4.4v4c0 .9 0 1.8.2 2.6h-1.7zm-.3-5.5c-2.1 0-4.5.3-4.5 2.4 0 1.2.8 1.8 1.8 1.8 1.4 0 2.3-.9 2.6-1.8.1-.2.1-.4.1-.6v-1.8zM285.2 590.2c0-1.1 0-2-.1-2.9h1.7l.1 1.7h.1c.6-1 1.6-2 3.3-2 1.5 0 2.6.9 3 2.1.3-.6.7-1.1 1.2-1.4.6-.5 1.3-.7 2.4-.7 1.4 0 3.5.9 3.5 4.6v6.3h-1.9v-6c0-2-.7-3.3-2.3-3.3-1.1 0-2 .8-2.3 1.8-.1.3-.2.6-.2 1v6.6h-1.9v-6.4c0-1.7-.7-2.9-2.2-2.9-1.2 0-2.1 1-2.4 1.9-.1.3-.2.6-.2.9v6.4h-1.9v-7.7zM304.6 593c0 2.6 1.7 3.7 3.7 3.7 1.4 0 2.2-.2 2.9-.5l.3 1.4c-.7.3-1.8.7-3.5.7-3.3 0-5.2-2.2-5.2-5.4s1.9-5.7 5-5.7c3.5 0 4.4 3.1 4.4 5 0 .4 0 .7-.1.9h-7.5zm5.7-1.4c0-1.2-.5-3.1-2.7-3.1-2 0-2.8 1.8-3 3.1h5.7zM316.9 584.2v3.1h2.8v1.5h-2.8v5.7c0 1.3.4 2.1 1.5 2.1.5 0 .9-.1 1.1-.1l.1 1.5c-.4.2-1 .3-1.7.3-.9 0-1.6-.3-2.1-.8-.6-.6-.7-1.5-.7-2.8v-5.8h-1.7v-1.5h1.7v-2.6l1.8-.6zM320.5 600.7c.5-1.3 1.1-3.7 1.3-5.3l2.2-.2c-.5 1.9-1.5 4.3-2.1 5.3l-1.4.2zM338.6 597.6c-.5.3-1.6.6-3.1.6-3.2 0-5.3-2.2-5.3-5.4 0-3.3 2.2-5.7 5.7-5.7 1.1 0 2.2.3 2.7.6l-.4 1.5c-.5-.3-1.2-.5-2.2-.5-2.4 0-3.8 1.8-3.8 4 0 2.5 1.6 4 3.7 4 1.1 0 1.8-.3 2.4-.5l.3 1.4zM350.4 592.5c0 3.9-2.7 5.7-5.3 5.7-2.9 0-5.1-2.1-5.1-5.5 0-3.6 2.3-5.7 5.3-5.7 3 .1 5.1 2.3 5.1 5.5zm-8.5.1c0 2.3 1.3 4.1 3.2 4.1 1.8 0 3.2-1.7 3.2-4.1 0-1.8-.9-4.1-3.2-4.1-2.2 0-3.2 2.1-3.2 4.1zM352.8 590.2c0-1.1 0-2-.1-2.9h1.7l.1 1.8c.5-1 1.8-2 3.5-2 1.5 0 3.8.9 3.8 4.5v6.4h-1.9v-6.1c0-1.7-.6-3.1-2.5-3.1-1.3 0-2.3.9-2.6 2-.1.2-.1.6-.1.9v6.4h-1.9v-7.9zM364.8 596c.6.4 1.6.8 2.6.8 1.4 0 2.1-.7 2.1-1.6 0-.9-.5-1.4-2-2-1.9-.7-2.8-1.7-2.8-3 0-1.7 1.4-3.1 3.7-3.1 1.1 0 2 .3 2.6.7l-.5 1.4c-.4-.3-1.2-.6-2.2-.6-1.1 0-1.8.7-1.8 1.5 0 .9.6 1.3 2 1.8 1.8.7 2.8 1.6 2.8 3.2 0 1.9-1.5 3.2-4 3.2-1.2 0-2.2-.3-3-.7l.5-1.6zM374.8 593c0 2.6 1.7 3.7 3.7 3.7 1.4 0 2.2-.2 2.9-.5l.3 1.4c-.7.3-1.8.7-3.5.7-3.3 0-5.2-2.2-5.2-5.4s1.9-5.7 5-5.7c3.5 0 4.4 3.1 4.4 5 0 .4 0 .7-.1.9h-7.5zm5.7-1.4c0-1.2-.5-3.1-2.7-3.1-2 0-2.8 1.8-3 3.1h5.7zM392.3 597.6c-.5.3-1.6.6-3.1.6-3.2 0-5.3-2.2-5.3-5.4 0-3.3 2.2-5.7 5.7-5.7 1.1 0 2.2.3 2.7.6l-.4 1.5c-.5-.3-1.2-.5-2.2-.5-2.4 0-3.8 1.8-3.8 4 0 2.5 1.6 4 3.7 4 1.1 0 1.8-.3 2.4-.5l.3 1.4zM397.2 584.2v3.1h2.8v1.5h-2.8v5.7c0 1.3.4 2.1 1.5 2.1.5 0 .9-.1 1.1-.1l.1 1.5c-.4.2-1 .3-1.7.3-.9 0-1.6-.3-2.1-.8-.6-.6-.7-1.5-.7-2.8v-5.8h-1.7v-1.5h1.7v-2.6l1.8-.6zM403.1 593c0 2.6 1.7 3.7 3.7 3.7 1.4 0 2.2-.2 2.9-.5l.3 1.4c-.7.3-1.8.7-3.5.7-3.3 0-5.2-2.2-5.2-5.4s1.9-5.7 5-5.7c3.5 0 4.4 3.1 4.4 5 0 .4 0 .7-.1.9h-7.5zm5.7-1.4c0-1.2-.5-3.1-2.7-3.1-2 0-2.8 1.8-3 3.1h5.7zM415.4 584.2v3.1h2.8v1.5h-2.8v5.7c0 1.3.4 2.1 1.5 2.1.5 0 .9-.1 1.1-.1l.1 1.5c-.4.2-1 .3-1.7.3-.9 0-1.6-.3-2.1-.8-.6-.6-.7-1.5-.7-2.8v-5.8h-1.7v-1.5h1.7v-2.6l1.8-.6zM429.3 595c0 1.1 0 2.1.1 2.9h-1.7l-.1-1.7c-.5.9-1.6 2-3.5 2-1.7 0-3.7-.9-3.7-4.7v-6.2h1.9v5.9c0 2 .6 3.4 2.4 3.4 1.3 0 2.2-.9 2.6-1.8.1-.3.2-.6.2-1v-6.5h1.9v7.7zM432.5 590.6c0-1.3 0-2.3-.1-3.3h1.7l.1 2.1h.1c.5-1.4 1.6-2.3 2.9-2.3.2 0 .4 0 .5.1v1.8c-.2 0-.4-.1-.7-.1-1.4 0-2.3 1-2.6 2.5 0 .3-.1.6-.1.9v5.7h-1.9v-7.4zM76.4 624.4l-.2-1.3h-.1c-.6.8-1.7 1.6-3.3 1.6-2.2 0-3.3-1.5-3.3-3.1 0-2.6 2.3-4 6.4-4v-.2c0-.9-.2-2.5-2.4-2.5-1 0-2 .3-2.8.8l-.4-1.3c.9-.6 2.2-.9 3.5-.9 3.3 0 4 2.2 4 4.4v4c0 .9 0 1.8.2 2.6h-1.6zm-.3-5.5c-2.1 0-4.5.3-4.5 2.4 0 1.2.8 1.8 1.8 1.8 1.4 0 2.3-.9 2.6-1.8.1-.2.1-.4.1-.6v-1.8zM90.3 608.7v12.9c0 .9 0 2 .1 2.8h-1.7l-.1-1.8c-.6 1.2-1.9 2.1-3.6 2.1-2.6 0-4.6-2.2-4.6-5.4 0-3.5 2.2-5.7 4.8-5.7 1.6 0 2.7.8 3.2 1.6v-6.4h1.9zm-1.9 9.3c0-.2 0-.6-.1-.8-.3-1.2-1.3-2.2-2.8-2.2-2 0-3.2 1.8-3.2 4.1 0 2.2 1.1 3.9 3.1 3.9 1.3 0 2.5-.9 2.8-2.3.1-.3.1-.5.1-.8V618zM95.7 610.7c0 .7-.5 1.2-1.2 1.2s-1.2-.5-1.2-1.2.5-1.2 1.2-1.2 1.2.5 1.2 1.2zm-2.2 13.7v-10.7h1.9v10.7h-1.9zM98.7 617.2c0-1.4 0-2.5-.1-3.5h1.7l.1 1.8c.8-1.3 2-2.1 3.8-2.1 2.6 0 4.5 2.2 4.5 5.4 0 3.8-2.3 5.7-4.8 5.7-1.4 0-2.6-.6-3.3-1.7v5.8h-1.9v-11.4zm1.9 2.8c0 .3 0 .6.1.8.4 1.3 1.5 2.3 2.9 2.3 2 0 3.2-1.7 3.2-4.1 0-2.1-1.1-4-3.2-4-1.3 0-2.6.9-2.9 2.4-.1.2-.1.5-.1.8v1.8zM113.3 610.7c0 .7-.5 1.2-1.2 1.2s-1.2-.5-1.2-1.2.5-1.2 1.2-1.2c.8 0 1.2.5 1.2 1.2zm-2.1 13.7v-10.7h1.9v10.7h-1.9zM116.1 622.4c.6.4 1.6.8 2.6.8 1.4 0 2.1-.7 2.1-1.6 0-.9-.6-1.4-2-2-1.9-.7-2.8-1.7-2.8-3 0-1.7 1.4-3.1 3.7-3.1 1.1 0 2 .3 2.6.7l-.5 1.4c-.4-.3-1.2-.6-2.2-.6-1.1 0-1.8.7-1.8 1.5 0 .9.6 1.3 2 1.8 1.8.7 2.8 1.6 2.8 3.2 0 1.9-1.5 3.2-4 3.2-1.2 0-2.2-.3-3-.7l.5-1.6zM132.6 624c-.5.3-1.6.6-3.1.6-3.2 0-5.3-2.2-5.3-5.4 0-3.3 2.2-5.7 5.7-5.7 1.1 0 2.2.3 2.7.6l-.4 1.5c-.5-.3-1.2-.5-2.2-.5-2.4 0-3.8 1.8-3.8 4 0 2.5 1.6 4 3.7 4 1.1 0 1.8-.3 2.4-.5l.3 1.4zM137.1 610.7c0 .7-.5 1.2-1.2 1.2s-1.2-.5-1.2-1.2.5-1.2 1.2-1.2 1.2.5 1.2 1.2zm-2.2 13.7v-10.7h1.9v10.7h-1.9zM140.1 616.6c0-1.1 0-2-.1-2.9h1.7l.1 1.8c.5-1 1.8-2 3.5-2 1.5 0 3.8.9 3.8 4.5v6.4h-1.9v-6.1c0-1.7-.6-3.1-2.5-3.1-1.3 0-2.3.9-2.6 2-.1.2-.1.6-.1.9v6.4h-1.9v-7.9zM161.4 613.7c0 .8-.1 1.6-.1 2.9v6.2c0 2.4-.5 3.9-1.5 4.9-1 1-2.5 1.3-3.9 1.3-1.3 0-2.7-.3-3.5-.9l.5-1.5c.7.4 1.8.8 3.1.8 2 0 3.4-1 3.4-3.7v-1.2c-.6 1-1.7 1.8-3.4 1.8-2.6 0-4.5-2.2-4.5-5.2 0-3.6 2.4-5.7 4.8-5.7 1.8 0 2.9 1 3.3 1.9l.1-1.6h1.7zm-2 4.2c0-.3 0-.6-.1-.9-.4-1.1-1.3-2-2.7-2-1.8 0-3.2 1.6-3.2 4 0 2.1 1.1 3.8 3.1 3.8 1.2 0 2.3-.7 2.7-2 .1-.3.2-.7.2-1v-1.9zM170.3 619.4c0 2.6 1.7 3.7 3.7 3.7 1.4 0 2.2-.2 3-.5l.3 1.4c-.7.3-1.8.7-3.5.7-3.3 0-5.2-2.2-5.2-5.4s1.9-5.7 5-5.7c3.5 0 4.4 3.1 4.4 5 0 .4 0 .7-.1.9h-7.6zm5.7-1.4c0-1.2-.5-3.1-2.7-3.1-2 0-2.8 1.8-3 3.1h5.7zM180.2 608.7h1.9v15.6h-1.9v-15.6zM187.6 610.7c0 .7-.5 1.2-1.2 1.2s-1.2-.5-1.2-1.2.5-1.2 1.2-1.2 1.2.5 1.2 1.2zm-2.2 13.7v-10.7h1.9v10.7h-1.9zM192.9 610.6v3.1h2.8v1.5h-2.8v5.7c0 1.3.4 2.1 1.5 2.1.5 0 .9-.1 1.1-.1l.1 1.5c-.4.2-1 .3-1.7.3-.9 0-1.6-.3-2.1-.8-.6-.6-.7-1.5-.7-2.8v-5.8h-1.7v-1.5h1.7v-2.6l1.8-.6zM196.6 627.1c.5-1.3 1.1-3.7 1.3-5.3l2.2-.2c-.5 1.9-1.5 4.3-2.1 5.3l-1.4.2zM206.8 622.4c.6.4 1.6.8 2.6.8 1.4 0 2.1-.7 2.1-1.6 0-.9-.5-1.4-2-2-1.9-.7-2.8-1.7-2.8-3 0-1.7 1.4-3.1 3.7-3.1 1.1 0 2 .3 2.6.7l-.5 1.4c-.4-.3-1.2-.6-2.2-.6-1.1 0-1.8.7-1.8 1.5 0 .9.6 1.3 2 1.8 1.8.7 2.8 1.6 2.8 3.2 0 1.9-1.5 3.2-4 3.2-1.2 0-2.2-.3-3-.7l.5-1.6zM216.8 619.4c0 2.6 1.7 3.7 3.7 3.7 1.4 0 2.2-.2 2.9-.5l.3 1.4c-.7.3-1.9.7-3.5.7-3.3 0-5.2-2.2-5.2-5.4s1.9-5.7 5-5.7c3.5 0 4.4 3.1 4.4 5 0 .4 0 .7-.1.9h-7.5zm5.7-1.4c0-1.2-.5-3.1-2.7-3.1-2 0-2.8 1.8-3 3.1h5.7zM236 608.7v12.9c0 .9 0 2 .1 2.8h-1.7l-.1-1.8c-.6 1.2-1.9 2.1-3.6 2.1-2.6 0-4.6-2.2-4.6-5.4 0-3.5 2.2-5.7 4.8-5.7 1.6 0 2.7.8 3.2 1.6v-6.4h1.9zm-2 9.3c0-.2 0-.6-.1-.8-.3-1.2-1.3-2.2-2.8-2.2-2 0-3.2 1.8-3.2 4.1 0 2.2 1.1 3.9 3.1 3.9 1.3 0 2.5-.9 2.8-2.3.1-.3.1-.5.1-.8V618zM253 608.7v12.9c0 .9 0 2 .1 2.8h-1.7l-.1-1.8c-.6 1.2-1.9 2.1-3.6 2.1-2.6 0-4.6-2.2-4.6-5.4 0-3.5 2.2-5.7 4.8-5.7 1.6 0 2.7.8 3.2 1.6v-6.4h1.9zm-1.9 9.3c0-.2 0-.6-.1-.8-.3-1.2-1.3-2.2-2.8-2.2-2 0-3.2 1.8-3.2 4.1 0 2.2 1.1 3.9 3.1 3.9 1.3 0 2.5-.9 2.8-2.3.1-.3.1-.5.1-.8V618zM265.9 618.9c0 3.9-2.7 5.7-5.3 5.7-2.9 0-5.1-2.1-5.1-5.5 0-3.6 2.3-5.7 5.3-5.7 3 .1 5.1 2.3 5.1 5.5zm-8.5.1c0 2.3 1.3 4.1 3.2 4.1 1.8 0 3.2-1.7 3.2-4.1 0-1.8-.9-4.1-3.2-4.1-2.2 0-3.2 2.1-3.2 4.1zM274.1 619.4c0 2.6 1.7 3.7 3.7 3.7 1.4 0 2.2-.2 2.9-.5l.3 1.4c-.7.3-1.8.7-3.5.7-3.3 0-5.2-2.2-5.2-5.4s1.9-5.7 5-5.7c3.5 0 4.4 3.1 4.4 5 0 .4 0 .7-.1.9h-7.5zm5.6-1.4c0-1.2-.5-3.1-2.7-3.1-2 0-2.8 1.8-3 3.1h5.7zM286.2 610.7c0 .7-.5 1.2-1.2 1.2s-1.2-.5-1.2-1.2.5-1.2 1.2-1.2 1.2.5 1.2 1.2zm-2.2 13.7v-10.7h1.9v10.7H284zM298.1 621.4c0 1.1 0 2.1.1 2.9h-1.7l-.1-1.7c-.5.9-1.6 2-3.5 2-1.7 0-3.7-.9-3.7-4.7v-6.2h1.9v5.9c0 2 .6 3.4 2.4 3.4 1.3 0 2.2-.9 2.6-1.8.1-.3.2-.6.2-1v-6.5h1.9v7.7zM301 622.4c.6.4 1.6.8 2.6.8 1.4 0 2.1-.7 2.1-1.6 0-.9-.5-1.4-2-2-1.9-.7-2.8-1.7-2.8-3 0-1.7 1.4-3.1 3.7-3.1 1.1 0 2 .3 2.6.7l-.5 1.4c-.4-.3-1.2-.6-2.2-.6-1.1 0-1.8.7-1.8 1.5 0 .9.6 1.3 2 1.8 1.8.7 2.8 1.6 2.8 3.2 0 1.9-1.5 3.2-4 3.2-1.2 0-2.2-.3-3-.7l.5-1.6zM310 616.6c0-1.1 0-2-.1-2.9h1.7l.1 1.7h.1c.6-1 1.6-2 3.3-2 1.5 0 2.6.9 3 2.1.3-.6.7-1.1 1.2-1.4.6-.5 1.3-.7 2.4-.7 1.4 0 3.5.9 3.5 4.6v6.3h-1.9v-6c0-2-.7-3.3-2.3-3.3-1.1 0-2 .8-2.3 1.8-.1.3-.2.6-.2 1v6.6h-1.9V618c0-1.7-.7-2.9-2.2-2.9-1.2 0-2.1 1-2.4 1.9-.1.3-.2.6-.2.9v6.4H310v-7.7zM338 618.9c0 3.9-2.7 5.7-5.3 5.7-2.9 0-5.1-2.1-5.1-5.5 0-3.6 2.3-5.7 5.3-5.7 3 .1 5.1 2.3 5.1 5.5zm-8.5.1c0 2.3 1.3 4.1 3.2 4.1 1.8 0 3.2-1.7 3.2-4.1 0-1.8-.9-4.1-3.2-4.1-2.2 0-3.2 2.1-3.2 4.1zM349.6 608.7v12.9c0 .9 0 2 .1 2.8H348l-.1-1.8c-.6 1.2-1.9 2.1-3.6 2.1-2.6 0-4.6-2.2-4.6-5.4 0-3.5 2.2-5.7 4.8-5.7 1.6 0 2.7.8 3.2 1.6v-6.4h1.9zm-1.9 9.3c0-.2 0-.6-.1-.8-.3-1.2-1.3-2.2-2.8-2.2-2 0-3.2 1.8-3.2 4.1 0 2.2 1.1 3.9 3.1 3.9 1.3 0 2.5-.9 2.8-2.3.1-.3.1-.5.1-.8V618zM359.8 610.6v3.1h2.8v1.5h-2.8v5.7c0 1.3.4 2.1 1.5 2.1.5 0 .9-.1 1.1-.1l.1 1.5c-.4.2-1 .3-1.7.3-.9 0-1.6-.3-2.1-.8-.6-.6-.7-1.5-.7-2.8v-5.8h-1.7v-1.5h1.7v-2.6l1.8-.6zM365.7 619.4c0 2.6 1.7 3.7 3.7 3.7 1.4 0 2.2-.2 2.9-.5l.3 1.4c-.7.3-1.8.7-3.5.7-3.3 0-5.2-2.2-5.2-5.4s1.9-5.7 5-5.7c3.5 0 4.4 3.1 4.4 5 0 .4 0 .7-.1.9h-7.5zm5.7-1.4c0-1.2-.5-3.1-2.7-3.1-2 0-2.8 1.8-3 3.1h5.7zM375.6 616.6c0-1.1 0-2-.1-2.9h1.7l.1 1.7h.1c.6-1 1.6-2 3.3-2 1.5 0 2.6.9 3 2.1.3-.6.7-1.1 1.2-1.4.6-.5 1.3-.7 2.4-.7 1.4 0 3.5.9 3.5 4.6v6.3H389v-6c0-2-.7-3.3-2.3-3.3-1.1 0-2 .8-2.3 1.8-.1.3-.2.6-.2 1v6.6h-1.9V618c0-1.7-.7-2.9-2.2-2.9-1.2 0-2.1 1-2.4 1.9-.1.3-.2.6-.2.9v6.4h-1.9v-7.7zM394 617.2c0-1.4 0-2.5-.1-3.5h1.7l.1 1.8c.8-1.3 2-2.1 3.8-2.1 2.6 0 4.5 2.2 4.5 5.4 0 3.8-2.3 5.7-4.8 5.7-1.4 0-2.6-.6-3.3-1.7v5.8H394v-11.4zm1.9 2.8c0 .3 0 .6.1.8.4 1.3 1.5 2.3 2.9 2.3 2 0 3.2-1.7 3.2-4.1 0-2.1-1.1-4-3.2-4-1.3 0-2.6.9-2.9 2.4-.1.2-.1.5-.1.8v1.8zM416.2 618.9c0 3.9-2.7 5.7-5.3 5.7-2.9 0-5.1-2.1-5.1-5.5 0-3.6 2.3-5.7 5.3-5.7 3 .1 5.1 2.3 5.1 5.5zm-8.5.1c0 2.3 1.3 4.1 3.2 4.1 1.8 0 3.2-1.7 3.2-4.1 0-1.8-.9-4.1-3.2-4.1-2.2 0-3.2 2.1-3.2 4.1zM418.6 617c0-1.3 0-2.3-.1-3.3h1.7l.1 2.1h.1c.5-1.4 1.6-2.3 2.9-2.3.2 0 .4 0 .5.1v1.8c-.2 0-.4-.1-.7-.1-1.4 0-2.3 1-2.6 2.5 0 .3-.1.6-.1.9v5.7h-1.9V617z"/></g></svg>