<svg version="1.1" id="Layer_1" xmlns="http://www.w3.org/2000/svg" xmlns:xlink="http://www.w3.org/1999/xlink" x="0" y="0" width="510" height="710" xml:space="preserve"><style>.st1{fill:#b71f63}.st2{fill:#9a1b46}.st3{fill:#7c123a}.st4{fill:#152347}.st5{fill:#2f69b3}.st6{fill:#fff}.st7{fill:#fcb542}.st8{fill:#ef477e}.st11{fill:#c61e50}.st12{fill:#231f20}.st13{fill:#fdcd9d}.st14{fill:#cc8f2b}</style><defs><path id="XMLID_194_" d="M5 1.4h500v707.1H5z"/></defs><use xlink:href="#XMLID_194_" overflow="visible" fill="#9a1b46"/><clipPath id="XMLID_268_"><use xlink:href="#XMLID_194_" overflow="visible"/></clipPath><g clip-path="url(#XMLID_268_)"><path id="XMLID_266_" class="st1" d="M66.9 116.8c9.6-18.5 30.3-29.8 51.1-31 20.8-1.2 41.4 6.7 58.4 18.9-3.4 12.3-12.8 22.2-23.8 28.6-11 6.4-23.6 9.6-36.1 11.8-19.3 3.4-40.4 4.3-57.1-6 1.9-7.5 3.9-15.3 7.5-22.3z"/><path id="XMLID_265_" class="st2" d="M136.4 115.6c0 10.4-8.4 18.9-18.9 18.9-10.4 0-18.9-8.4-18.9-18.9 0-10.4 8.4-18.9 18.9-18.9 10.4.1 18.9 8.5 18.9 18.9z"/><path id="XMLID_264_" class="st3" d="M207.9 140.9c2.8 8.2-1.6 17-9.7 19.8s-17-1.6-19.8-9.7c-2.8-8.2 5.7-31.5 5.7-31.5s21 13.3 23.8 21.4z"/><path id="XMLID_263_" class="st1" d="M53.3 214.3c9.6-18.5 30.3-29.8 51.1-31 20.8-1.2 41.4 6.7 58.4 18.9-3.4 12.3-12.8 22.2-23.8 28.6-11 6.4-23.6 9.6-36.1 11.8-19.3 3.4-40.4 4.3-57.1-6 1.9-7.6 3.8-15.3 7.5-22.3z"/><path id="XMLID_262_" class="st2" d="M122.8 213c0 10.4-8.4 18.9-18.9 18.9-10.4 0-18.9-8.4-18.9-18.9 0-10.4 8.4-18.9 18.9-18.9 10.4.1 18.9 8.5 18.9 18.9z"/><path id="XMLID_261_" class="st3" d="M194.3 238.4c2.8 8.2-1.6 17-9.7 19.8-8.2 2.8-17-1.6-19.8-9.7-2.8-8.2 5.7-31.5 5.7-31.5s21 13.2 23.8 21.4z"/><path id="XMLID_260_" class="st1" d="M-66.2 285.5c9.6-18.5 30.3-29.8 51.1-31 20.8-1.2 41.4 6.7 58.4 18.9-3.4 12.3-12.8 22.2-23.8 28.7-11 6.4-23.6 9.6-36.1 11.8-19.3 3.4-40.4 4.3-57.1-6 2-7.7 3.9-15.4 7.5-22.4z"/><circle id="XMLID_259_" class="st2" cx="-15.5" cy="284.3" r="18.9"/><path id="XMLID_258_" class="st3" d="M74.9 309.6c2.8 8.2-1.6 17-9.7 19.8-8.2 2.8-17-1.6-19.8-9.7-2.8-8.2 5.7-31.5 5.7-31.5s21 13.2 23.8 21.4z"/><path id="XMLID_257_" class="st1" d="M-19.7 344.8c20.1-5.7 42.5 1.6 57.6 16 15.1 14.3 23.5 34.8 26.2 55.4-11.3 5.9-25 5.9-37.2 2.3-12.2-3.6-23.1-10.6-33.3-18.2-15.7-11.7-30.8-26.5-34.8-45.7 7-3.8 13.9-7.7 21.5-9.8z"/><circle id="XMLID_256_" class="st2" cx="15.9" cy="380.8" r="18.9"/><path id="XMLID_255_" class="st3" d="M59.4 464c-4 7.6-13.5 10.5-21.1 6.5-7.6-4-10.5-13.5-6.5-21.1 4-7.6 26.8-17.4 26.8-17.4s4.9 24.4.8 32z"/><path id="XMLID_254_" class="st1" d="M335 .9c20.1-5.7 42.5 1.6 57.6 16 15.1 14.3 23.5 34.8 26.2 55.4-11.3 5.9-25 5.9-37.2 2.3-12.2-3.6-23.1-10.6-33.3-18.2-15.7-11.7-30.8-26.5-34.8-45.7 6.9-3.8 13.9-7.6 21.5-9.8z"/><path id="XMLID_253_" class="st2" d="M383.5 50.7c-7.6 7.1-19.5 6.8-26.7-.8-7.1-7.6-6.8-19.5.8-26.7 7.6-7.1 19.5-6.8 26.7.8 7.2 7.6 6.8 19.6-.8 26.7z"/><path id="XMLID_252_" class="st3" d="M414.1 120.1c-4 7.6-13.5 10.5-21.1 6.5-7.6-4-10.5-13.5-6.5-21.1 4-7.6 26.8-17.4 26.8-17.4s4.8 24.4.8 32z"/><path id="XMLID_251_" class="st1" d="M346 183.6c9.9-18.3 30.9-29.2 51.7-30 20.8-.8 41.3 7.5 58 20-3.7 12.2-13.2 22-24.3 28.2-11.1 6.2-23.7 9.2-36.3 11.1-19.3 3-40.5 3.5-57-7.1 2.1-7.6 4.2-15.2 7.9-22.2z"/><path id="XMLID_250_" class="st2" d="M415.6 183.7c-.2 10.4-8.8 18.7-19.2 18.5-10.4-.2-18.7-8.8-18.5-19.2.2-10.4 8.8-18.7 19.2-18.5 10.4.2 18.7 8.8 18.5 19.2z"/><path id="XMLID_249_" class="st3" d="M486.6 210.4c2.6 8.2-1.9 17-10.1 19.6-8.2 2.6-17-1.9-19.6-10.1-2.6-8.2 6.3-31.4 6.3-31.4s20.8 13.7 23.4 21.9z"/><path id="XMLID_248_" class="st1" d="M375.4 273.7c9.9-18.3 30.9-29.2 51.7-30 20.8-.8 41.3 7.5 58 20-3.7 12.2-13.2 22-24.3 28.2-11.1 6.2-23.7 9.1-36.3 11.1-19.3 3-40.5 3.5-57-7.1 2-7.6 4.1-15.3 7.9-22.2z"/><path id="XMLID_247_" class="st2" d="M444.9 273.8c-.2 10.4-8.8 18.7-19.2 18.5-10.4-.2-18.7-8.8-18.5-19.2.2-10.4 8.8-18.7 19.2-18.5 10.4.2 18.7 8.8 18.5 19.2z"/><path id="XMLID_246_" class="st3" d="M515.9 300.5c2.6 8.2-1.9 17-10.1 19.6-8.2 2.6-17-1.9-19.6-10.1-2.6-8.2 6.3-31.4 6.3-31.4s20.8 13.7 23.4 21.9z"/><path id="XMLID_245_" class="st1" d="M332.4 341.8c9.9-18.3 30.9-29.2 51.7-30 20.8-.8 41.3 7.5 58 20-3.7 12.2-13.2 22-24.3 28.2-11.1 6.2-23.7 9.2-36.3 11.1-19.3 3-40.5 3.5-57-7.1 2.1-7.6 4.2-15.3 7.9-22.2z"/><path id="XMLID_244_" class="st2" d="M401.9 341.9c-.2 10.4-8.8 18.7-19.2 18.5-10.4-.2-18.7-8.8-18.5-19.2.2-10.4 8.8-18.7 19.2-18.5 10.5.2 18.7 8.8 18.5 19.2z"/><path id="XMLID_243_" class="st3" d="M473 368.6c2.6 8.2-1.9 17-10.1 19.6-8.2 2.6-17-1.9-19.6-10.1-2.6-8.2 6.3-31.4 6.3-31.4s20.7 13.7 23.4 21.9z"/><g><path id="XMLID_242_" class="st1" d="M442.4 100.9c9.9-18.3 30.9-29.2 51.7-30 20.8-.8 41.3 7.5 58 20-3.7 12.2-13.2 22-24.3 28.2-11.1 6.2-23.7 9.2-36.3 11.1-19.3 3-40.5 3.5-57-7.1 2.1-7.6 4.2-15.3 7.9-22.2z"/><circle id="XMLID_241_" class="st2" cx="493.1" cy="100.6" r="18.9"/><path id="XMLID_240_" class="st3" d="M583 127.7c2.6 8.2-1.9 17-10.1 19.6-8.2 2.6-17-1.9-19.6-10.1-2.6-8.2 6.3-31.4 6.3-31.4s20.7 13.7 23.4 21.9z"/></g><g><path id="XMLID_239_" class="st1" d="M412.7-77.7c20.6-3.2 41.9 6.9 55.2 23 13.2 16.1 19 37.4 19.1 58.3-11.9 4.4-25.5 2.8-37.2-2.3-11.7-5.1-21.6-13.4-30.8-22.2-14.1-13.6-27.3-30.1-28.8-49.6 7.4-3 14.7-6 22.5-7.2z"/><circle id="XMLID_238_" class="st2" cx="443.6" cy="-37.5" r="18.9"/><path id="XMLID_237_" class="st3" d="M476.4 50.4c-4.9 7.1-14.7 8.8-21.7 3.8-7.1-4.9-8.8-14.7-3.8-21.7 4.9-7.1 28.8-13.9 28.8-13.9s1.6 24.8-3.3 31.8z"/></g><g><path id="XMLID_236_" class="st1" d="M169 42.9c9.4-18.6 30.1-30.1 50.9-31.4 20.8-1.4 41.5 6.4 58.5 18.4-3.3 12.3-12.6 22.3-23.6 28.8-10.9 6.5-23.5 9.8-36 12.1-19.2 3.5-40.4 4.6-57.1-5.5 1.8-7.6 3.7-15.4 7.3-22.4z"/><circle id="XMLID_235_" class="st2" cx="219.6" cy="41.3" r="18.9"/><path id="XMLID_234_" class="st3" d="M310.2 65.8c2.9 8.1-1.4 17-9.5 19.9-8.1 2.9-17-1.4-19.9-9.5-2.9-8.1 5.5-31.5 5.5-31.5s21.1 13 23.9 21.1z"/></g><g><path id="XMLID_233_" class="st1" d="M-9.1 32.4C.3 13.8 21 2.4 41.8 1c20.8-1.4 41.5 6.4 58.5 18.4C97 31.7 87.7 41.8 76.7 48.3c-10.9 6.5-23.5 9.8-36 12.1C21.5 63.9.4 65-16.4 54.9c1.9-7.7 3.7-15.4 7.3-22.5z"/><path id="XMLID_232_" class="st2" d="M60.4 30.6c.1 10.4-8.3 18.9-18.7 19-10.4.1-18.9-8.3-19-18.7-.1-10.4 8.3-18.9 18.7-19 10.4 0 18.9 8.3 19 18.7z"/><path id="XMLID_231_" class="st3" d="M132.1 55.4c2.9 8.1-1.4 17-9.5 19.9-8.1 2.9-17-1.4-19.9-9.5-2.9-8.1 5.5-31.5 5.5-31.5s21.1 12.9 23.9 21.1z"/></g><g><path id="XMLID_230_" class="st1" d="M-12 93c20.8 2 39 17 47.8 35.8 8.9 18.9 9.2 40.9 4.3 61.2-12.7 1.4-25.4-3.6-35.5-11.4-10.1-7.8-17.7-18.3-24.4-29.1-10.3-16.6-19-35.9-15.8-55.2 7.8-1 15.7-2.1 23.6-1.3z"/><path id="XMLID_229_" class="st2" d="M15.1 157c-9.7 3.9-20.6-.8-24.5-10.5S-8.7 125.9 1 122c9.7-3.9 20.6.8 24.5 10.5 3.9 9.6-.8 20.6-10.4 24.5z"/><path id="XMLID_228_" class="st3" d="M18.3 232.8c-6.5 5.6-16.4 4.9-22-1.6s-4.9-16.4 1.6-22c6.5-5.6 31.3-6.5 31.3-6.5s-4.4 24.5-10.9 30.1z"/></g><g><path id="XMLID_227_" class="st1" d="M446 618.2c-9.6 18.5-30.3 29.8-51.1 31-20.8 1.2-41.4-6.7-58.4-18.9 3.4-12.3 12.8-22.2 23.8-28.6 11-6.4 23.6-9.6 36.1-11.8 19.3-3.4 40.4-4.3 57.1 6-1.9 7.6-3.9 15.3-7.5 22.3z"/><circle id="XMLID_226_" class="st2" cx="395.3" cy="619.4" r="18.9"/><path id="XMLID_225_" class="st3" d="M305 594.1c-2.8-8.2 1.6-17 9.7-19.8 8.2-2.8 17 1.6 19.8 9.7 2.8 8.2-5.7 31.5-5.7 31.5s-21-13.2-23.8-21.4z"/></g><g><path id="XMLID_224_" class="st1" d="M459.6 520.8c-9.6 18.5-30.3 29.8-51.1 31-20.8 1.2-41.4-6.7-58.4-18.9 3.4-12.3 12.8-22.2 23.8-28.6 11-6.4 23.6-9.6 36.1-11.8 19.3-3.4 40.4-4.3 57.1 6-1.9 7.6-3.9 15.3-7.5 22.3z"/><circle id="XMLID_223_" class="st2" cx="409" cy="522" r="18.9"/><path id="XMLID_222_" class="st3" d="M318.6 496.7c-2.8-8.2 1.6-17 9.7-19.8 8.2-2.8 17 1.5 19.8 9.7 2.8 8.2-5.7 31.5-5.7 31.5s-21-13.3-23.8-21.4z"/></g><g><path id="XMLID_221_" class="st1" d="M516.2 430.7c-9.6 18.5-30.3 29.8-51.1 31-20.8 1.2-41.4-6.7-58.4-18.9 3.4-12.3 12.8-22.2 23.8-28.6 11-6.4 23.6-9.6 36.1-11.8 19.3-3.4 40.4-4.3 57.1 6-1.9 7.6-3.9 15.3-7.5 22.3z"/><circle id="XMLID_220_" class="st2" cx="465.5" cy="431.9" r="18.9"/><path id="XMLID_219_" class="st3" d="M375.2 406.6c-2.8-8.2 1.6-17 9.7-19.8 8.2-2.8 17 1.6 19.8 9.7 2.8 8.2-5.7 31.5-5.7 31.5s-21-13.3-23.8-21.4z"/></g><g><path id="XMLID_218_" class="st1" d="M278.5 638.8c-20 5.7-42.5-1.6-57.6-16-15.1-14.3-23.5-34.8-26.2-55.4 11.3-5.9 25-5.9 37.2-2.3 12.2 3.6 23.1 10.6 33.3 18.2C280.9 595 296 609.8 300 629c-7 3.8-14 7.6-21.5 9.8z"/><path id="XMLID_217_" class="st2" d="M229.9 589c7.6-7.1 19.5-6.8 26.7.8 7.1 7.6 6.8 19.5-.8 26.7-7.6 7.1-19.5 6.8-26.7-.8-7.1-7.6-6.7-19.6.8-26.7z"/><path id="XMLID_216_" class="st3" d="M199.4 519.6c4-7.6 13.5-10.5 21.1-6.5 7.6 4 10.5 13.5 6.5 21.1-4 7.6-26.8 17.4-26.8 17.4s-4.9-24.4-.8-32z"/></g><g><path id="XMLID_215_" class="st1" d="M177.9 734.1c-20 5.7-42.5-1.6-57.6-16-15.1-14.3-23.5-34.8-26.2-55.4 11.3-5.9 25-5.9 37.2-2.3 12.2 3.6 23.1 10.6 33.3 18.2 15.7 11.7 30.8 26.5 34.8 45.7-7 3.8-13.9 7.7-21.5 9.8z"/><path id="XMLID_214_" class="st2" d="M129.4 684.3c7.6-7.1 19.5-6.8 26.7.8 7.1 7.6 6.8 19.5-.8 26.7-7.6 7.1-19.5 6.8-26.7-.8-7.2-7.6-6.8-19.5.8-26.7z"/><path id="XMLID_213_" class="st3" d="M98.8 614.9c4-7.6 13.5-10.5 21.1-6.5 7.6 4 10.5 13.5 6.5 21.1-4 7.6-26.8 17.4-26.8 17.4s-4.8-24.4-.8-32z"/></g><g><path id="XMLID_212_" class="st1" d="M166.8 551.4c-9.9 18.3-30.9 29.2-51.7 30-20.8.8-41.3-7.5-58-20 3.7-12.2 13.2-22 24.3-28.2 11.1-6.2 23.7-9.2 36.3-11.1 19.3-3 40.5-3.5 57 7.1-2 7.6-4.1 15.3-7.9 22.2z"/><path id="XMLID_211_" class="st2" d="M97.3 551.3c.2-10.4 8.8-18.7 19.2-18.5 10.4.2 18.7 8.8 18.5 19.2-.2 10.4-8.8 18.7-19.2 18.5-10.4-.2-18.7-8.8-18.5-19.2z"/><path id="XMLID_210_" class="st3" d="M26.3 524.6c-2.6-8.2 1.9-17 10.1-19.6 8.2-2.6 17 1.9 19.6 10.1 2.6 8.2-6.3 31.4-6.3 31.4s-20.8-13.7-23.4-21.9z"/></g><g><path id="XMLID_209_" class="st1" d="M70.4 634.2c-9.9 18.3-30.9 29.2-51.7 30-20.8.8-41.3-7.5-58-20 3.7-12.2 13.2-22 24.3-28.2 11.1-6.2 23.7-9.2 36.3-11.1 19.3-3 40.5-3.5 57 7.1-2 7.6-4.1 15.2-7.9 22.2z"/><path id="XMLID_208_" class="st2" d="M.9 634.1c.2-10.4 8.8-18.7 19.2-18.5 10.4.2 18.7 8.8 18.5 19.2-.2 10.4-8.8 18.7-19.2 18.5C9 653.1.7 644.5.9 634.1z"/><path id="XMLID_207_" class="st3" d="M-70.1 607.4c-2.6-8.2 1.9-17 10.1-19.6 8.2-2.6 17 1.9 19.6 10.1 2.6 8.2-6.3 31.4-6.3 31.4s-20.8-13.7-23.4-21.9z"/></g><g><path id="XMLID_206_" class="st1" d="M100.1 812.8c-20.6 3.2-41.9-6.9-55.2-23s-19-37.4-19.1-58.3c11.9-4.4 25.5-2.8 37.2 2.3 11.7 5.1 21.6 13.4 30.8 22.2 14.1 13.6 27.3 30.1 28.8 49.6-7.3 3-14.7 5.9-22.5 7.2z"/><circle id="XMLID_205_" class="st2" cx="69.3" cy="772.5" r="18.9"/><path id="XMLID_204_" class="st3" d="M36.5 684.6c4.9-7.1 14.7-8.8 21.7-3.8 7.1 4.9 8.8 14.7 3.8 21.7-4.9 7.1-28.8 13.9-28.8 13.9s-1.7-24.7 3.3-31.8z"/></g><g><path id="XMLID_203_" class="st1" d="M343.9 692.1c-9.4 18.6-30.1 30.1-50.9 31.4-20.8 1.4-41.5-6.4-58.5-18.4 3.3-12.3 12.6-22.3 23.6-28.8 10.9-6.5 23.5-9.8 36-12.1 19.2-3.5 40.4-4.6 57.1 5.5-1.9 7.7-3.8 15.4-7.3 22.4z"/><path id="XMLID_202_" class="st2" d="M274.4 693.9c-.1-10.4 8.3-18.9 18.7-19 10.4-.1 18.9 8.3 19 18.7.1 10.4-8.3 18.9-18.7 19-10.4.1-18.9-8.3-19-18.7z"/><path id="XMLID_201_" class="st3" d="M202.6 669.2c-2.9-8.1 1.4-17 9.5-19.9 8.1-2.9 17 1.4 19.9 9.5 2.9 8.1-5.5 31.5-5.5 31.5s-21-13-23.9-21.1z"/></g><g><path id="XMLID_200_" class="st1" d="M522 702.6c-9.4 18.6-30.1 30.1-50.9 31.4-20.8 1.4-41.5-6.4-58.5-18.4 3.3-12.3 12.6-22.3 23.6-28.8 10.9-6.5 23.5-9.8 36-12.1 19.2-3.5 40.4-4.6 57.1 5.5-1.9 7.6-3.8 15.4-7.3 22.4z"/><path id="XMLID_199_" class="st2" d="M452.5 704.4c-.1-10.4 8.3-18.9 18.7-19 10.4-.1 18.9 8.3 19 18.7.1 10.4-8.3 18.9-18.7 19-10.4.1-18.9-8.3-19-18.7z"/><path id="XMLID_198_" class="st3" d="M380.7 679.7c-2.9-8.1 1.4-17 9.5-19.9 8.1-2.9 17 1.4 19.9 9.5 2.9 8.1-5.5 31.5-5.5 31.5s-21-13-23.9-21.1z"/></g><g><path id="XMLID_197_" class="st1" d="M524.9 642.1c-20.8-2-39-17-47.8-35.8-8.9-18.9-9.2-41-4.3-61.2 12.7-1.4 25.4 3.6 35.5 11.4 10.1 7.8 17.7 18.3 24.4 29.1 10.3 16.6 19 35.9 15.8 55.2-7.9.9-15.8 2-23.6 1.3z"/><path id="XMLID_196_" class="st2" d="M497.8 578c9.7-3.9 20.6.8 24.5 10.5 3.9 9.7-.8 20.6-10.5 24.5-9.7 3.9-20.6-.8-24.5-10.5-3.8-9.6.9-20.6 10.5-24.5z"/><path id="XMLID_195_" class="st3" d="M494.6 502.2c6.5-5.6 16.4-4.9 22 1.6 5.6 6.5 4.9 16.4-1.6 22-6.5 5.6-31.3 6.5-31.3 6.5s4.4-24.4 10.9-30.1z"/></g></g><g><path id="XMLID_193_" class="st4" d="M75.5 403.9c3 2.9 6.7 4.3 10.7 5.9-4.7-9.3-8.5-19-11.5-29-2.5 1.2-4.4 2.1-5.3 4.2l-.2.5c-.3 1-.5 2-.6 2.9-.1.9-.1 1.9 0 3.1 0 .3 0 .5-.1.7.2 4.6 3.1 7.9 7 11.7z"/><path id="XMLID_192_" class="st5" d="M364.9 365.2c8.2-17.7 12.6-33.4 14.4-50.9.2-1.7.5-4.5.9-7.7.6-5.4 1.4-12.2 1.6-15.2.3-5.8.9-20-.3-26.7-.6-3-1.7-5.8-2.6-7.1-.4.6-.8 1.1-1.2 1.7l-7.9 10.9c-4.6 6.4-9.8 13.5-16.6 18.6 0 .5-.1.9-.5 1.3-2.4 2.9-6.6 18.5-8.6 26.1-.7 2.5-1.2 4.5-1.5 5.4-1.8 5.8-7.7 21.7-10.6 27.2-3.2 6.2-9.1 17.6-15.2 25.1-2.3 2.8-12.9 11.4-15.7 13-11.5 6.2-21.1 9.2-30.5 9.2-1.7 0-3.4-.1-5.2-.3-.7.9-1.7 1.5-2.9 1.8-3.5.8-7 1.1-10.6 1.1-2 0-4-.1-6-.4-4.6-.5-11.6-1.4-15.4-5.4l-2.5-2.7c-.5-.6-1.2-1.3-1.7-2.2-.6-1.2-.8-2.4-1-3.5l-.1-.6c-.2-1-.7-2.6-1.6-4.3-.3-.4-.5-.9-.8-1.3-.8 1.5-1.4 3.4-1.8 5.1-1.6 8.1-1.8 19.7 6.3 29.3 7.2 8.5 20.6 9.7 32.5 10.2 12.1.5 24.2-1.6 35.5-3.8 12.5-2.4 25.6-5.3 36.6-11.8 13.4-7.7 31.8-39.7 33-42.1z"/><path id="XMLID_191_" class="st6" d="M255.1 432.7c4.5 0 8.5.2 12.1.6 4.8.5 9.6 1.5 14.2 2.4 6.2 1.2 12.6 2.5 18.9 2.7 4.4.2 9-.2 13.4-.6 2-.2 4-.3 6-.4.7-4.5.7-9 0-13.5-.3-1.8-.8-4-1.9-5.8-7.2 2.3-14.5 3.9-21.7 5.3-10.4 2-21.5 4-32.7 4-1.3 0-2.5 0-3.8-.1-3.4-.1-6.9-.3-10.3-.7.3 1.8.3 4-.2 6.3 2.1-.2 4.1-.2 6-.2z"/><path id="XMLID_190_" class="st7" d="M170.7 286.5c-2.6 4.3-4.1 8.6-4.7 12.8-1 7.8 1.6 14.8 3.9 19.4 2 4 4.3 6.7 6.9 8.2 2.6 1.5 6.4 1.9 8.8-.2 1-.9 1.7-2.1 2.5-3.4.2-.4.5-.8.8-1.2 2-3.2 4.8-6.1 7.9-8.3 1.8-1.3 3.7-2.3 5.5-3.3 1.4-.8 2.8-1.5 4.2-2.4 3.4-2.2 5.5-4.5 6.3-7.1 1.3-4.3-.8-8.8-3-13.6-2.5-5.3-5-10.8-3.2-16.6 1.6-5.1 5.9-8.2 10.1-11.2 3.8-2.7 7.4-5.3 8.5-9.1 1-3.6-.2-8.5-1.2-12.9-.4-1.6-.7-3.2-1-4.6-.5-2.5-.5-4.8-.2-6.7v-.3c0-.3.1-.6.3-.9 1-5.3 3.9-8.6 6.1-9.9 2.5-1.6 10.1-4.5 11.7-5 1.2-.4 2.4-1.2 3.4-2.1 2.4-1.9 3.9-3.7 4.8-5.5.9-1.8 1.3-3.9 1.7-6.2.4-2.2.8-4.6 1.8-6.8 3.3-7.4 8.3-9.9 15.4-7.6 2.2.7 3.1 2.4 3.9 3.9.8 1.6 1.7 3.3 4.3 4.7 2.2 1.3 8.9 2.8 11.6.3 0-.4-.1-.9-.1-1.3-.2-4.5-.2-8.8 0-13-.2-.2-.3-.3-.4-.6-3.3-7.1-9.1-10.3-17.4-13-8-2.6-16.9-2.5-25.1.5-4.7 1.7-7.8 4.1-9.1 7-1 2.2-1.2 5-.6 8.5l.2 1.2c.4 1.8.7 3.7.5 5.8-.4 3.5-2.6 6.7-6.4 9.5-4.9 3.6-10.8 5.4-16.4 7.2-1.2.4-2.4.7-3.6 1.1-6.2 2.1-16 7.2-22.9 15-8.8 9.8-11.5 16.2-12.6 29.8-.3 3.4-.1 5.9.6 8.1.4 1.2 1 2.4 1.6 3.7.9 1.9 1.9 3.9 2.2 6.2 1.1 6.3-2.5 11.9-5.7 16.8-.6 1-1.3 2-1.9 3.1z"/><path id="XMLID_189_" class="st4" d="M384 241c.7.7 1.4 1.5 1.6 2.7.3 1.4-.2 2.6-.7 3.7-1.1 2.3-2.3 4.5-3.7 6.5 2.9 2.7 4.2 9.1 4.3 9.9 1.3 6.9.8 20.3.4 27.7-.2 3.1-.9 9.6-1.6 15.4-.4 3.1-.7 6-.9 7.7-1 9.8-2.8 19-5.5 28.2.8 5.3.2 11.2-.4 16.9l-.1.9c-1.3 11.6-4.1 24.5-6.6 35.6-.3 1.3-.6 2.6-.9 4-1.1 4.5-2.2 9.2-2.5 13.8-.2 3.3.3 6.5.8 10 .4 2.7.8 5.6.9 8.4v1.9c0 1.8 0 2.7.5 4.8 7.2-1.1 14.6-2.7 20.5-4.7 8.8-11.8 16.1-24.5 21.6-37.9 0-.2 0-.3.1-.5.1-.3.3-.6.5-.8 8.6-21 13-43.5 13-66.8 0-38.7-12.2-75.3-35.3-106.1-1.2 6.6-3.2 12.8-6 18.7z"/><path id="XMLID_188_" class="st8" d="M99.4 232.8C86.9 252.1 78.1 274 74 297.5c8.4 6.9 15.9 14.5 22 20.6 3.5 3.6 6.6 6.8 8.8 8.6 1.8-2.9 4-5.3 6.5-7.2-2.1-8.1-4.2-26.6-6.6-46.2-1.7-14.8-3.6-30.2-5.3-40.5z"/><path id="XMLID_187_" class="st7" d="M360.8 465.8c-.7-2.3-1.5-4.7-2.5-6.8-1.9 4.4-3.7 8.8-5.5 13.2 1.9.1 3.7.2 5.4.3 1.6.1 3.2.2 4.9.3-.7-2.1-1.5-4.2-2.1-6.3l-.2-.7z"/><path id="XMLID_186_" class="st8" d="M71.5 338.8c.2 3.2.5 6.5.8 9.7 11-.7 21.6-1.2 31.8-1.6-.4-.7-.7-1.5-1-2.3-7.1-.6-16.1-2.3-20.9-3.3-5.6-1.2-8.8-1.9-10.7-2.5z"/><path id="XMLID_185_" d="M108.5 345.6c.3.3.5.7.6 1.1 12.8-.5 25-.7 36.9-.8l.1-.1c1.6-1.2 1.8-4 1.8-6.8 0-1.9-.1-3.6-.4-5.3-.8-4.2-3.4-8.2-7-10.5-6.7-4.3-15.4-5.2-22.7-2.3-3.8 1.5-7.1 4.6-9.5 8.7-2.8 4.8-2.1 9.7-1.6 11.7l1 1.6-.3.5c0 .8.5 1.7 1.1 2.2z" fill="#f28cac"/><path id="XMLID_184_" class="st5" d="M365.8 399.3l.9-3.9c2.5-11 5.3-23.7 6.5-35.1l.1-.9c.2-1.4.3-2.8.4-4.3-1.5 3.9-3.2 7.8-5 11.8-1.2 2.7-20.1 35.7-34.6 44.1-3.9 2.3-8 4.1-12.1 5.6 1.2 2.2 1.7 4.6 2 6.6.7 4.6.7 9.4.1 14 2.2 0 4.4 0 6.4.1 3.4.3 6.8.9 10.1 1.5 3 .6 6.1 1.1 9.1 1.4 1.2.1 2.5.2 4 .2 3.4 0 7.3-.3 11.5-.8-.5-2.2-.5-3.4-.5-5.4v-1.8c0-2.6-.4-5.2-.8-7.9-.5-3.5-1-7.2-.8-10.9.4-4.8 1.5-9.6 2.7-14.3z"/><path class="st7" d="M423 410.1c-2.9 6.2-9.6 16.3-23 24.5-9.6 5.8-32.3 10.1-46.3 10.1-1.6 0-3.1-.1-4.4-.2-3.2-.3-6.4-.9-9.5-1.5-3.2-.6-6.5-1.2-9.7-1.5-4.8-.4-10.6 0-16 .4-4.5.4-9.3.8-13.9.6-6.7-.2-13.2-1.5-19.6-2.8-4.5-.9-9.2-1.8-13.9-2.4-3.5-.4-7.3-.6-11.7-.6-4 0-8 .1-11.8.3l-63.7 2.3c-5.5.2-11.3.4-17.2.4-15.7 0-35.9-1.3-52.9-11.3-3.1-1.8-6.1-3.9-9-6-2.6-1.8-5.3-3.7-8-5.4-2.5-1.5-5.2-2.6-7.9-3.6-4.2-1.6-8.6-3.3-12.2-6.8-4.5-4.3-8.3-8.6-8.6-15.1-5.8 10-5.4 25.8-2 38.1 1.4 5.1 3.3 9.9 5.1 14.4 2.6 6.7 5.4 13.7 6.6 21.8.2 1.1.3 2.3.5 3.5.8 6 1.8 13.5 5.6 16.8 1 .9 4.1 1.4 9.1 1.4 2.4 0 5.2-.1 8.1-.2 3.4-.1 7.1-.2 10.8-.2 7.3 0 13.2.5 18.4 1.5 9.8 1.9 20.5 6.4 30.9 10.7 4.5 1.9 8.8 3.7 12.8 5.2 6.9 2.6 14.7 3.8 23.8 3.8 8.4 0 17.2-1 25.8-2.1 8.7-1 17.7-2.1 26.6-2.1h.9c6.5.1 13 .7 19.3 1.3 10.1 1 21.1 1.9 29.8.7 5.1-.7 10.3-2.1 15.3-3.4 7.1-1.9 14.4-3.8 22-4 4.8-.1 9.6.5 14.3 1.1 2.5.3 5 .6 7.5.8 2.4.2 4.8.3 7.2.3 19.1 0 38.2-5.9 56.1-12 2.2-.7 3.9-1.4 5-2.7 1.3-1.5 1.5-3.9 1.6-6.6l2-47.4c.3-4-1.3-15-3.8-22.1zm-284.7 60.5c-2.7 4.7-8.1 7.3-14.9 7.3-.6 0-1.2 0-1.8-.1l-1.8-.1-.1-1.8c-.8-10.3-.6-20.8.6-31.1l.2-2 2.1.2c7.1.7 12.8 4 15.7 9.1 3.2 5.7 3.2 13 0 18.5zm54.7 17.2c-.4.4-.9.6-1.4.6-.6 0-1.1-.2-1.6-.7-2.4-2.5-4.5-4.7-6.7-6.8-2.2-2.2-4.3-4.3-6.5-6.7-.2 3.9-.3 7.7-.3 11.6 0 1.2-.9 2.1-2.1 2.1-1.2 0-2.1-.9-2.1-2.1 0-10.5.7-21.1 2.2-31.4l.2-1.4 1.3-.4c4.8-1.3 10.3.8 14 5.5 2 2.5 2.8 4.9 2.4 7.2-.4 2.2-2.2 5-8.1 6.4-1.1.3-2.2.5-3.3.7 1.8 1.9 3.6 3.7 5.4 5.5 2.2 2.1 4.4 4.3 6.8 6.9.8.8.7 2.2-.2 3zm56.3 1.7c-1.1.2-2.3-.5-2.5-1.6-.6-2.8-1.4-5.6-2.2-8.4-4 .2-7.9.6-11.9 1.1-.5 2.9-.9 5.9-1.2 8.8-.1 1.1-1 2-2.1 2h-.2c-1.2-.1-2-1.1-2-2.3.3-3.7.8-7.3 1.5-10.9v-.2c1.3-6.8 3.4-13.4 6.2-19.8l.4-.8.8-.3c1.5-.6 3.7-.2 5.2 2.8 4.3 8.6 7.6 17.7 9.6 27.1.3 1.1-.5 2.2-1.6 2.5zm73-2.6c-1.5.4-2.3.6-8.2-9.7-2.2-3.9-4.3-7.9-5.8-11.2-3.2 5-5.8 10.4-7.6 16.1l-.4 1.4-1.4.1c-1.9.1-2.8-1-9.6-10.8-1.2-1.8-2.5-3.6-3.7-5.3-.6 2.6-1.2 5.1-1.9 7.6-1 4.2-2.1 8.5-3.1 13.2-.2 1-1.1 1.7-2.1 1.7h-.5c-1.1-.3-1.9-1.4-1.6-2.5 1-4.8 2.1-9.2 3.2-13.3.9-3.8 1.9-7.7 2.9-12l1-4.3 2.8 3.5c1.8 2.3 4.2 5.8 6.6 9.1 1.6 2.3 3.6 5.2 5 7.1 2.2-6.1 5.3-11.8 9.2-17l2.2-3 1.4 3.5c2.9 7 10.3 20.1 12.1 22.1.5.3 1 .8 1.1 1.4.2.8-.5 2-1.6 2.3zm47.9-1.4c-.3.1-.5.1-.8.1-.8 0-1.6-.5-2-1.3-1-2.4-1.9-4.9-2.8-7.3-2.4 0-4.6-.2-6.7-.3-2.1-.2-4.3-.3-6.8-.3-1 2.6-2.1 5.2-3.1 7.7-.4 1.1-1.7 1.6-2.7 1.2-1.1-.4-1.6-1.7-1.2-2.7 3.8-9.7 7.8-19.5 11.9-29.1l1.5-3.4 2.2 2.9c2.6 3.5 3.9 7.5 5.1 11.5l.2.7c1.9 5.9 4 11.9 6.3 17.6.6 1.1 0 2.3-1.1 2.7z"/><path id="XMLID_177_" d="M337.5 169.8c.1 0 .2 0 .3-.1.2-.1.7-.5 1.1-1.8.7-2.2.8-4.6.7-7l-.9 1.1c-1 1.2-2 2.4-2.5 3.8-.5 1.2-.5 2.4 0 3.1.2.5.8.9 1.3.9z" fill="#9ab7e0"/><path id="XMLID_176_" class="st7" d="M124.3 447.5c-.9 8.7-1.1 17.5-.5 26.2 2.6 0 8.3-.7 10.9-5.2 2.5-4.3 2.5-9.9 0-14.3-2-3.4-5.7-5.8-10.4-6.7z"/><path id="XMLID_175_" class="st11" d="M72.2 334.6c2.8.9 18.8 4.5 29.8 5.6-.3-2.5-.3-5.9.9-9.5-2.4-1.9-5.8-5.3-10-9.6-5.5-5.6-12.3-12.5-19.8-18.8-1.3 8.5-1.9 17.2-1.9 26.1 0 1.9 0 3.9.1 5.8.3.1.6.2.9.4z"/><path id="XMLID_174_" class="st7" d="M188.3 464.5c.2-1.2-.7-2.7-1.5-3.7-1.8-2.3-4.9-4.5-8.3-4.3-.5 4-1 8.1-1.3 12.2 2.1-.2 4.1-.6 6.1-1.1 1.7-.4 4.6-1.4 5-3.1z"/><path id="XMLID_173_" class="st4" d="M415.1 399.4c-4.7 11.1-10.6 21.7-17.5 31.7.1 0 .2-.1.2-.1 14.1-8.5 19.8-18.9 21.8-23.8v-.5c.9-4.5-1-6-4.5-7.3z"/><path id="XMLID_172_" class="st12" d="M337.9 108.6c.9 2.1 1.2 4.2 1.4 6.3l.1 1c.7 5 2.1 8.1 4.4 9.9.3.3.8.6 1.4 1 2.8 1.9 8 5.4 11.1 10.4 2.9 4.7 4.1 9.4 3.5 13.8-.7 5-2.4 9.2-4 12.6 2.9.2 5.6 1.4 7.8 3.4.6.5 1.1 1.2 1.6 1.8 3.9-6.9 8-14.5 8.6-22.1.5-5.4-.3-13.4-3.8-19.4l-.2-.4c-4.4-7.7-10.5-18.2-26.5-21.2-2.3-.4-4.7-.5-7.6-.1 1 .7 1.7 1.7 2.2 3z"/><path class="st13" d="M314.2 119.7c-1.8 1.6-3.6 3.2-5.9 4.4-1.9 1-4.3 1.2-6.3 1.4-.6.1-1.2.1-1.7.2-5.5.7-11 2-16.2 3.8-.8.3-1.3.7-1.6.9.1.1.3.2.4.2l.8.5c3.9 2.6 8.4 5.6 10.6 10.2 2 4.2 1.8 8.8 1 13.3v.8c0 .1-.1.2-.2.3-.3 1.3-.5 2.6-.8 3.9l-.4 2c-.3 1.2-.4 2.5-.7 3.7 1 .2 2 .4 2.7.7 6.4 2.2 13.6 7 16.2 13.3.3-.3.5-.5.7-.8.8-.8 2.2-.8 3 0 .8.8.8 2.2 0 3-3 2.9-3.7 4.1-3.9 4.5-.1.9-.8 1.7-1.7 1.9h-.4c-1 0-1.9-.7-2.1-1.8-.2-.9.1-1.8 1.2-3.3l-.3-.6c-1.4-5.6-8.3-10.2-14.1-12.2-.7-.2-1.4-.4-2-.5-.8 6.1-1 12.5-.6 19.5.2 3.5.5 7.6 2.1 11 2.4 4.9 7.9 8.2 13.8 8.2 2 0 3.8-.4 5.5-1.1 2.8-1.3 5.3-3.4 7.7-5.5l14-12.2c1.3-1.1 3-2.6 5.4-3 .9-.1 1.9 0 2.8.1 1.8.2 3.3.4 4.8.4 2.5 0 4.9-.4 6.9-1.1 3.7-1.3 6.6-3.8 7.8-6.9 1.3-3.2.5-7-1.9-9.1-1.7-1.5-3.7-2.3-6-2.3-.8 0-1.4.1-1.7.1-.3 0-.6.1-.7.1l-.7-.1-2.3-.7 1.8-3.8c1.6-3.5 3.6-7.8 4.4-13 .5-3.5-.5-7.1-2.9-10.9-2.6-4.2-7.2-7.3-9.9-9.1-.7-.5-1.2-.8-1.6-1.1-4.3-3.3-5.5-8.8-6-12.7l-.1-1c-.2-1.9-.5-3.6-1.1-5.1-.5-1.3-1.7-2.8-3.3-3-1.8-.3-3.8 1.4-5.5 2.9l-11 9.6zm28.7 30.4l.6 5.8c.4 4.4.9 8.9-.5 13.2-.7 2.2-1.8 3.6-3.3 4.3-.7.3-1.4.5-2.2.5-2 0-4-1.2-5-2.9-1.1-1.9-1.2-4.4-.2-6.8.8-1.9 2-3.5 3.2-4.9l7.4-9.2zm-2.3-8.8c.7.9.5 2.3-.5 3-.4.3-.8.4-1.2.4-.7 0-1.3-.3-1.7-.9-2-2.8-4-5.3-6.2-7-.7.7-1.6 1.5-2.6 2.4-1.1 1-2.1 2-2.9 2.7l-.1.1c-.1.9-.8 1.7-1.7 1.8h-.4c-1 0-1.9-.7-2.1-1.8-.3-1.7.9-2.8 1.3-3.2.8-.7 1.9-1.7 3-2.7.4-.4.9-.8 1.3-1.2-2.3-.5-4.7-.3-7.2-.2-1.1.1-2.2-.8-2.3-1.9-.1-1.2.8-2.2 1.9-2.3 3-.2 6.5-.5 9.8.6 5.5 1.7 9.1 6.6 11.6 10.2z"/><path id="XMLID_168_" class="st4" d="M92.2 412.3c.9.4 1.7.9 2.6 1.4 2.9 1.7 5.6 3.7 8.3 5.6 2.8 2 5.7 4 8.7 5.8 16.1 9.5 35.6 10.7 50.7 10.7 5.8 0 11.6-.2 17-.4l63.7-2.3c.6 0 1.1 0 1.7-.1v-.2c.9-3 .5-5.9.1-6.8v-.1c-8-1.4-15.5-4.2-20.7-10.3-9.2-10.8-9-23.8-7.2-32.8.4-1.9 1.5-6 3.8-8.5-1.2-2.6-2.2-5-2.3-5.7-.2-1.1-.6-3.8.9-5.7.4-.5 1-1 1.8-1.3-1.4-2.1-4.2-5.6-7.5-9.4-42.4-2.8-86-2.6-140.9.7 2.9 20.8 9.4 41 19.3 59.4 0-.1 0-.1 0 0z"/><path class="st13" d="M288.2 195.4c-5 2.2-11.9 0-14.2-1.3-3.7-2.1-5-4.6-6-6.5-.7-1.2-.9-1.7-1.4-1.9-4.9-1.6-7.7-.1-10.2 5.3-.8 1.8-1.1 3.7-1.5 5.8-.4 2.4-.9 4.9-2.1 7.3-1.2 2.4-3.1 4.6-5.9 6.9-1.3 1.1-3 2.3-4.9 2.9-1.4.4-8.6 3.2-10.7 4.5-1.5.9-3.8 3.6-4.3 8 .2 9.9 8.7 22 13.9 24.3.3.1.6.4.8.6 1.1-.1 2.1-.2 3-.3H251.4l-.3-.3c-3.6-5.1-1.8-8.4 0-11.7.1-.2.3-.5.4-.8-1-1.9-1.7-3.8-2-5.7-.2-1.1-.4-2.5 0-4 .3-1.1 1.5-1.8 2.6-1.5 1.1.3 1.8 1.5 1.5 2.6-.1.5-.1 1.1 0 1.7.3.2.6.5.8.8.5.6 2.6 2.4 6.2 3 .5.1 1 .2 1.5.2 1.6.2 3.2.5 4.8 1.1 2 .8 3.5 2 4.6 3.5l.6-1.3c1.3-2.6 3-3.8 5-3.6.9.1 1.7.6 3.4 1.8.4.3.9.6 1.4.9.3-1.9 0-6-.2-8.2-.1-1.4-.2-2.8-.2-3.9-.1-2.7 0-5.4 1.2-7.8.8-1.6 2-2.9 3.1-4l.6-.6c2.5-2.6 4.1-5.1 5.6-8.5-.7-1-1.4-1.9-1.9-3-.9-1.9-1.5-4.1-1.9-6.3zm-14.5 23.4c-1.3 2.2-3.5 3.6-5.7 3.6h-.3c-.8 0-1.6-.3-2.1-.5-.6-.2-1.3-.5-2-1-1.1-.9-1.7-2.1-2.2-3.3-1.8-4.6-1.8-8.4-.1-11.4.6-1 1.9-1.4 2.9-.8 1 .6 1.4 1.9.8 2.9-1 1.8-.9 4.4.4 7.7.2.4.5 1.2.8 1.5.2.1.5.3.8.4.3.1.7.2 1 .2.7 0 1.6-.6 2.1-1.5.7-1.1.9-2.6 1.1-4.1.2-1.2 1.3-1.9 2.4-1.7 1.2.2 1.9 1.3 1.7 2.4-.2 1.9-.6 3.8-1.6 5.6z"/><path id="XMLID_165_" class="st7" d="M233.5 476.1c3.2-.4 6.5-.7 9.7-.9-1.5-4.4-3.3-8.7-5.4-12.9-1.8 4.5-3.2 9.1-4.3 13.8z"/><path id="XMLID_164_" class="st8" d="M369.2 205.3c0-1.1-.1-2.4-.7-3-.4-.5-1.3-.8-2.2-1.1-.4-.2-.9-.3-1.3-.5-1.9-.8-3.6-2.1-5-3.7-1.7-2.1-2.7-4.6-2.9-7.2-.3.1-.5.2-.8.3-2.9 1-6.1 1.4-9.8 1.3-.6 4.7-.4 9.3.9 13.4 1.6 5 4.6 9.2 8.5 11.9 1 .7 2 1.2 3 1.8l6 3.4c.8-1.6 1.5-3.2 2.1-4.7 1.5-4 2.2-7.9 2.2-11.9z"/><path id="XMLID_163_" class="st8" d="M290.8 215c2.6-.1 5.1-.5 7.6-1.2.8-.2 1.6-.5 1.9-.9.3-.3.4-1 .4-1.7-2-.7-3.8-1.7-5.4-3-1.2 2.6-2.7 4.7-4.5 6.8z"/><path id="XMLID_162_" class="st11" d="M154.2 320.9c-2.2 1.5-4.4 2.9-6 4 1.7 2.4 2.8 5.1 3.4 7.9.4 2 .4 4 .4 6v1.4l.5-.1c10.9-2 38.7-7 48.2-7.7-1.5-4.7-2.2-9.7-2.1-14.8-2.4 1.8-4.5 4.1-6.1 6.6-.2.4-.5.8-.7 1.1-.9 1.5-1.9 3.1-3.4 4.4-1.9 1.7-4.4 2.5-7.1 2.5-2.2 0-4.5-.6-6.6-1.8-3.3-1.9-6.1-5.2-8.5-9.9-1-1.9-1.8-3.8-2.4-5.7-2.6 1.5-6.3 3.9-9.6 6.1z"/><path id="XMLID_161_" class="st11" d="M102.8 228c2 10 4.1 27.8 6.1 45 2.1 17.7 4.2 35.9 6.2 44.4.3-.2.7-.3 1-.5 3.6-1.4 7.5-2 11.4-1.9 3.9-9.9 41.2-128.6 47-147.3-28.9 13.3-53.7 34.2-71.7 60.2v.1z"/><path id="XMLID_160_" class="st13" d="M341 190.8c-1 .1-2 .9-3.1 1.9l-14 12.2c-2.5 2.2-5.3 4.7-8.7 6.2-2.3 1-4.7 1.5-7.3 1.5-1 0-2-.1-2.9-.2-.1 1.1-.5 2.3-1.4 3.3-.8.9-1.8 1.4-2.8 1.8-.2.8-.8 1.4-1.7 1.5-.1.1-.3.6-.3 1.1-.2 4 3.8 7.2 7.7 9 7.3 3.2 15.9 3.8 23.6 1.7 7.7-2.2 14.7-7.2 19.2-13.8l.3-.3c-2.8-2.9-4.9-6.6-6.2-10.7-1.5-4.6-1.8-9.8-1.1-15.1-.5-.1-.9-.2-1.3-.1z"/><path id="XMLID_159_" class="st8" d="M179.1 165.5c.1.4.2.8 0 1.2-.4 1.2-41 131.1-47.3 148.7 3.8.7 7.5 2 10.8 4.1 1 .6 1.9 1.4 2.8 2.2 1.7-1 4-2.6 6.5-4.3 4-2.7 8-5.4 10.6-6.8-.9-4-1.2-8-.7-11.9.6-4.8 2.4-9.7 5.2-14.4.6-1.1 1.3-2.2 2-3.3 3-4.7 5.9-9.1 5.1-13.8-.3-1.7-1.1-3.3-1.9-5.1-.6-1.4-1.3-2.8-1.8-4.3-.8-2.7-1.1-5.8-.8-9.7 1.2-14.5 4.2-21.8 13.6-32.3 7.5-8.4 17.7-13.9 24.8-16.2l3.6-1.2c5.5-1.7 10.8-3.4 15.1-6.6 1.9-1.4 4.3-3.7 4.7-6.6.2-1.4-.1-2.9-.4-4.4l-.2-1.2c-.8-4.4-.5-8.1.9-11.1 1.8-4 5.7-7.1 11.5-9.2 9.1-3.3 19-3.5 27.9-.6 7.2 2.4 13 5.3 17.1 10.6.4-2.9.8-5.7 1.4-8.5l.5-2.1c.2-.8.3-1.5.5-2.3-13.8-3.4-28.1-5.1-42.4-5.1-24.5.2-47.9 5.2-69.1 14.2z"/><path id="XMLID_158_" class="st13" d="M378 189.9c-.2-.7-.3-1.4-.5-2.1-.2-.8-.3-1.7-.6-2.5-.6-2-1.9-3.8-3.3-5.7-1.3-1.7-2.6-3.5-3.5-5.6-.3-.6-.5-1.2-.7-1.8l-.6-1.5-1.2 2.1-.3.5c0 .1-.1.1-.1.1.4 2.4.3 4.9-.7 7.2-1.1 2.6-2.9 4.9-5.3 6.7v.3c-.2 2.3.5 4.8 2 6.6.9 1.1 2 2 3.3 2.5.3.1.7.3 1 .4 1.3.5 2.8 1 4 2.3 1.6 1.7 1.8 4.1 1.8 5.9 0 4.5-.8 8.9-2.3 13.2-.8 2.1-1.8 4.2-2.7 6.2l-2.7 5.6h.1c5.4 2 10.2 5.1 14.8 8.3 2.7-5.9 4.6-12.1 5.6-18.6.3-1.9.5-3.9.6-5.8.2-2.3.3-4.1.1-5.9-.5-3.2-2.3-6.1-4.2-9.1-1.8-3-3.7-5.9-4.6-9.3z"/><path id="XMLID_157_" class="st8" d="M153.2 344.4l-1.7.3c-.1.4-.2.8-.4 1.2 20.4 0 39.6.5 58.6 1.7-.1-.1-.2-.3-.4-.4-2.9-3-5.2-6.6-7-10.5-7.4.2-37.6 5.6-49.1 7.7z"/><path id="XMLID_156_" class="st13" d="M237.9 386c8.7 1.8 16.1 2.8 23.8 1.6 1-.1 1.1-.2 1.6-.7.5-.5.7-1.2.6-1.7 0-.2-.1-.3-.3-.5-.5-.7-1.3-1.1-2.2-1.2-.3 0-.6-.1-.9-.3l-3.3.6c-1.2.2-2.3.3-3.4.3-1.4 0-2.8-.1-4.2-.2-5.4-.5-10.9-1.2-16.2-2.1-1.2-.2-1.9-1.3-1.7-2.4.2-1.2 1.3-2 2.4-1.7 5.3.9 10.6 1.6 15.9 2.1 2.2.2 4.4.4 6.4 0 5-.8 6.1-1.5 6.3-1.9.5-1.5.2-2.1-.1-2.5-1-1.3-3.9-1.8-4.9-1.8-.2 0-.4.1-.6 0-6.4 1.3-13.8 2-20.7-.5-1.1-.4-1.7-1.6-1.3-2.7.4-1.1 1.6-1.7 2.7-1.3 7.4 2.7 15.8 1.1 22.3-.5.2-.1.7-.2.9-.3 0 0 0-.3-.2-.4-.3-.4-.8-.7-1.7-1-2.3-.8-4.9-.6-7.6-.5h-.6c-4.5.2-9-.2-13.4-.6-4.9-.5-9.6-.9-14.2-.5-.1 0-.4 0-.5.2-.1.1-.3.7-.1 2.3.1.5 1.2 3.1 2.4 5.6.1.1.2.2.2.3.1.2.2.5.2.7.1.1.1.3.2.4l.3.3c2 3.5 3.2 6.3 3.5 8.4l.1.6c.1.8.2 1.6.5 2.1.2.4.6.8 1 1.2l2.5 2.7c2.7 2.9 8.8 3.6 12.8 4.1 5.1.6 10.2.4 15.1-.7.3-.1.7-.1 1-1.2v-.4h-.2c-2.5.4-5 .5-7.5.5-5.7 0-11.4-.9-17.8-2.2-1.1-.2-1.9-1.4-1.6-2.5.2-1.2 1.4-1.9 2.5-1.7z"/><path id="XMLID_155_" class="st6" d="M266.3 389.9c.2.5.4 1.1.4 1.7 9.5.9 19.2-1.6 31-7.8-1.4-4.7-3.9-9-6.6-13.5-1-1.7-2-3.5-3-5.2-5-9.1-6.4-16.8-4.4-23.5.9-3 2.5-5.3 4.1-7.6 2.4-3.4 3.5-6 3.8-9 .4-4 .3-7.3-.3-9-2.9-8.8-8.4-15.5-13.5-20.9-.2 0-.4.1-.5.1-3.9.7-8 1.4-12.1 1.4h-.2c-6.8 0-13.4-2.1-18.8-3.7-1.2-.4-2.4-.7-3.7-1-2.7-.7-5.6-1.5-8.3-2.8-6.3-3-9.3-8.6-10-12.9-1.5-9.2 2.2-15.4 4.5-18.3 2.1-2.6 4.7-4.2 7.5-5.3-2.1-1.7-4.4-4.1-6.4-7 .1 2 0 4-.5 5.8-1.5 5.3-5.9 8.4-10.1 11.4-3.8 2.7-7.3 5.2-8.5 9-1.3 4.3.8 8.8 3 13.6 2.5 5.3 5 10.8 3.2 16.6-1.1 3.5-3.8 6.7-8.1 9.4-1.4.9-2.9 1.7-4.4 2.5-.5.2-.9.5-1.3.7-1.2 10.9 2.3 22.1 9.3 29.3 2.4 2.5 11.1 12.1 13.5 16.7 4.1-.1 8.2.3 12.1.6 4.2.4 8.6.8 12.8.6h.6c3-.1 6.1-.3 9.1.7 1.8.6 3.1 1.5 3.9 2.7 1.2 1.8 1.1 4.1-.2 5.6 2.9 1.8 3.9 4.8 2.7 8.2-.2.7-.6 1.2-1.1 1.7.5.4.9.8 1.3 1.3.5.6.8 1.3 1 1.9.5 2.1-.1 4.3-1.8 6 .1 0 .1 0 0 0z"/><path id="XMLID_154_" class="st5" d="M313.5 371.2c5.8-7.1 11.6-18.3 14.7-24.3 2.7-5.3 8.6-21 10.3-26.5.3-1 .8-2.9 1.4-5.3 2.2-8.4 4.6-16.9 6.7-22.4-4.9 2.4-10.3 3.6-15.5 3.6h-.9c-3.1-.1-6.2-.6-9.2-1.1l-2-.3c-12.3-2-24.6-2.2-36.2-.5 4.8 5.3 9.8 11.9 12.5 20.4.9 2.9.8 7.5.4 10.8-.5 4.7-2.5 8.2-4.5 11-1.4 2.1-2.8 4-3.5 6.4-1.7 5.5-.3 12.2 4.1 20.2.9 1.7 1.9 3.4 2.9 5.1 2.5 4.2 5 8.6 6.6 13.3 4-3 10.7-8.5 12.2-10.4z"/><path id="XMLID_153_" class="st11" d="M267.1 246.3c.6-.1 1-.6 1.2-.9.4-.7.5-1.5.3-1.9-.4-1.1-1.6-2.2-3.1-2.8-1.2-.5-2.5-.6-3.9-.9-.6-.1-1.1-.2-1.7-.3-1.2-.2-2.3-.5-3.3-.9 2.4 3.5 5.9 6.4 9.7 8.1.2-.2.5-.3.8-.4z"/><path id="XMLID_152_" class="st5" d="M283.9 242.5c-1.6.9-3.2-.2-5.7-2-.4-.3-1-.7-1.4-1-.1.2-.4.5-.8 1.2l-2.4 4.7c.9-.1 1.8-.2 2.8-.2 3.8 0 7.6.8 11.3 1.6 1.3.3 2.7.6 4 .8 7.3 1.4 14.9 1.4 22.2.2 1.1-.2 2.2-.4 3.4-.6 3.1-.6 6.4-1.3 9.7-1.3.7 0 1.5 0 2.2.1 1.3.1 2.7.1 4-.1 1.8-.3 3.5-1 5.3-1.7 7.2-3.1 13.5-6.1 16.7-11.7 1.2-2.1 3.4-3.3 6.2-3.3l1.8-3.8-6.2-3.4c-1.2-.7-2.3-1.3-3.4-2-.3-.2-.6-.4-.8-.6-5.2 7.5-12.8 12.9-21.5 15.4-3.4 1-7 1.4-10.6 1.4-5.5 0-11-1.1-15.9-3.3-5.2-2.3-10.6-6.9-10.3-13.1 0-.3.1-.6.1-.9-2 .3-4 .5-6.1.5H287c-.2.2-.4.5-.5.7-.8 1.6-.8 3.7-.8 5.8 0 1 .1 2.3.2 3.6.6 5.8 1 11.3-2 13z"/><path id="XMLID_151_" class="st6" d="M366.2 267.7l7.9-10.9c2.5-3.5 5.1-7.1 7-11.1.3-.7.4-1 .4-1.1 0-.2-.4-.6-1.2-1.1-5.1-3.5-10.3-7.1-16-9.3-1-.4-2-.6-2.8-.6-1.9 0-2.4.9-2.5 1.2-4.2 7.3-12.6 10.8-18.7 13.4-1.9.8-4 1.7-6.3 2-1.6.2-3.2.2-4.8.1-3.6-.2-7.2.4-10.9 1.1-1.2.2-2.3.5-3.5.7-7.8 1.3-15.9 1.3-23.7-.2-1.4-.3-2.7-.6-4.1-.8-5.3-1.1-10.9-2.1-15.2-.9-1.6.5-3.2 1.2-4.8 2-1.6.7-3.2 1.5-5 2.1-3.2 1-6.5 1.1-9.3 1.1h-7.6c-4 .1-9.5 1.1-12.9 5.3-2.3 2.8-4.8 7.8-3.6 15 .5 3 2.8 7.4 7.6 9.7 2.3 1.1 4.8 1.8 7.5 2.5 1.3.3 2.6.7 3.8 1.1 5.1 1.6 11.4 3.5 17.5 3.5l.2 2.1v-2.1c3.8 0 7.5-.7 11.4-1.4l3.6-.6c12.6-2.1 26.1-2 39.6.2l2.1.3c2.9.5 5.7 1 8.6 1.1h.8c6.3 0 12.9-2.1 18.4-6 6.7-4.7 11.7-11.7 16.5-18.4z"/><path id="XMLID_150_" class="st11" d="M254.1 242.4c-1.1 2.2-1.3 3.5.4 6 1.3 1.9 3.6 2.3 4 2.3h.1c.6-.1 1.3-.3 1.9-.5.6-.2 1.2-.4 1.8-.7-3.1-1.7-5.9-4.2-8.2-7.1z"/><g><path class="st12" d="M332.3 164.2c-1 2.4-.9 4.9.2 6.8 1 1.8 3 2.9 5 2.9.8 0 1.5-.2 2.2-.5 1.5-.7 2.6-2.2 3.3-4.3 1.4-4.4 1-8.9.5-13.2l-.6-5.8-7.5 9.3c-1.1 1.3-2.4 2.9-3.1 4.8zm3.9 1.6c.5-1.3 1.5-2.6 2.5-3.8l.9-1.1c.1 2.4 0 4.8-.7 7-.4 1.3-.9 1.7-1.1 1.8-.1 0-.2.1-.3.1-.5 0-1.1-.4-1.3-.8-.5-.8-.5-2 0-3.2z"/><path id="XMLID_147_" class="st12" d="M319.7 134.7c2.4-.2 4.9-.3 7.2.2-.4.4-.8.8-1.3 1.2-1.1 1-2.2 2-3 2.7-.4.4-1.6 1.5-1.3 3.2.2 1 1.1 1.8 2.1 1.8h.4c.9-.2 1.6-.9 1.7-1.8l.1-.1c.7-.7 1.8-1.7 2.9-2.7.9-.9 1.8-1.7 2.6-2.4 2.3 1.7 4.2 4.2 6.2 7 .4.6 1.1.9 1.7.9.4 0 .9-.1 1.2-.4.9-.7 1.2-2 .5-3-2.6-3.6-6.1-8.4-11.5-10.2-3.3-1.1-6.8-.8-9.8-.6-1.2.1-2 1.1-1.9 2.3 0 1.1 1 2 2.2 1.9z"/><path id="XMLID_146_" class="st12" d="M273.6 210.9c-1.1-.2-2.2.6-2.4 1.7-.2 1.5-.5 3-1.1 4.1-.5.9-1.4 1.5-2.1 1.5-.3 0-.7-.1-1-.2-.3-.1-.6-.2-.8-.4-.4-.3-.7-1-.8-1.5-1.3-3.3-1.4-5.9-.4-7.7.6-1 .2-2.3-.8-2.9-1-.6-2.3-.2-2.9.8-1.7 2.9-1.7 6.8.1 11.4.5 1.2 1 2.4 2.2 3.3.7.5 1.4.8 2 1 .6.2 1.3.4 2.1.5h.3c2.2 0 4.4-1.4 5.7-3.6 1-1.8 1.4-3.8 1.7-5.5.2-1.2-.6-2.3-1.8-2.5z"/><path class="st12" d="M424.6 403.4l-.8-1.2c-1-3.8-4.3-5.6-7.1-6.7 8.4-21.1 12.8-43.7 12.8-67 0-41-13.4-79.8-38.7-112 0 0-.1 0-.1-.1.1-.7.2-1.3.2-2 .2-2 .4-4.5 0-7-.6-4-2.7-7.4-4.8-10.7-1.7-2.7-3.3-5.2-4-8-.2-.6-.3-1.2-.4-1.9-.2-1-.4-2-.7-3-.8-2.6-2.4-4.8-3.9-6.8-1.2-1.6-2.3-3.1-3-4.8-.2-.5-.4-1-.6-1.6-.5-1.4-1.1-3-2.2-4.3 3.3-6.1 6.2-12.7 6.8-19.5.3-2.9.7-13.2-4.3-21.9l-.2-.4c-4.6-7.9-11.5-19.9-29.4-23.2-3.9-.7-8.1-.5-13.3.6-.4.1-.6.2-.9.4-1.3.3-2.1.7-2.6 1.2-1.9.7-3.5 2.1-5 3.3l-11 9.7c-1.6 1.4-3.3 2.9-5.1 3.9-1.1.6-3 .8-4.7.9-.6.1-1.3.1-1.9.2-5.8.7-11.6 2.1-17.1 4-.8.3-3.3 1.3-4.3 3.5-.4 1-.4 2.1 0 3.1.5 1.1 1.5 1.8 2 2.2l.8.5c3.6 2.4 7.4 4.9 9.1 8.5 1.3 2.7 1.4 5.9.9 9.1-14.1-3.4-28.6-5.2-43.2-5.2-99.6 0-180.9 81.3-180.9 181.3 0 16.3 2.2 32.5 6.5 48.1-3.4 1.5-6.7 3.1-8.3 7.2-11.3 10.2-11.8 31-7.2 47.3 1.5 5.3 3.4 10.2 5.2 14.8 2.7 6.8 5.2 13.3 6.4 20.9.2 1.1.3 2.2.5 3.4.9 6.7 2.1 15 7 19.4 3.3 2.9 10.5 2.6 20.1 2.2 3.4-.1 7-.2 10.7-.2 7.1 0 12.6.4 17.6 1.4 9.3 1.8 19.9 6.2 30.1 10.5 4.6 1.9 8.9 3.7 12.9 5.2 7.4 2.8 15.7 4.1 25.3 4.1 8.7 0 17.6-1.1 26.3-2.1 8.6-1 17.5-2.1 26.1-2.1h.9c6.3.1 12.7.7 18.9 1.3 6.5.7 13.3 1.3 20 1.3 3.9 0 7.5-.2 10.9-.7 5.4-.7 10.7-2.2 15.8-3.5 7.2-1.9 13.9-3.7 21-3.9h1.1c4.1 0 8.4.5 12.5 1.1 2.6.3 5.1.6 7.7.9 2.5.2 5 .3 7.6.3 19.7 0 39.2-6 57.4-12.2 2.1-.7 5-1.7 6.9-4 2.3-2.8 2.5-6.5 2.6-9.2l2-47.4c-.1-5.9-2.8-22.8-6.9-29.2zm-5 3.2v.5c-2.1 4.9-7.8 15.3-21.8 23.8-.1 0-.2.1-.2.1 6.9-10.1 12.8-20.7 17.5-31.7 3.5 1.4 5.4 2.9 4.5 7.3zm-7.4-11.3c-.2.2-.4.5-.5.8-.1.2 0 .4-.1.5-5.6 13.3-12.8 26-21.6 37.9-5.9 2-13.3 3.7-20.5 4.7-.5-2.1-.5-3-.5-4.8v-1.9c-.1-2.9-.5-5.7-.9-8.4-.5-3.5-1-6.7-.8-10 .3-4.6 1.4-9.3 2.5-13.8.3-1.3.6-2.6.9-4 2.5-11.1 5.4-24 6.6-35.6l.1-.9c.1-1.2.2-2.3.4-3.5l.8 2.2c2.8-.6 25 1.7 35.6 2.8 3.1.3 5.7.6 7.7.8-2.1 11.5-5.4 22.5-9.7 33.2zm-48.3 29.4c.4 2.7.8 5.3.8 7.9v1.8c0 2 0 3.1.5 5.4-4.2.5-8.1.8-11.5.8-1.5 0-2.9-.1-4-.2-3-.3-6.1-.9-9.1-1.4-3.3-.6-6.7-1.2-10.1-1.5-2-.2-4.2-.2-6.4-.1.7-4.7.7-9.4-.1-14-.3-2-.8-4.3-2-6.6 4.2-1.5 8.3-3.3 12.1-5.6 14.4-8.4 33.3-41.4 34.6-44.1 1.9-4 3.5-8 5-11.8-.1 1.4-.3 2.8-.4 4.3l-.1.9c-1.2 11.4-4 24.1-6.5 35.1l-.9 3.9c-1.1 4.7-2.3 9.5-2.6 14.5-.3 3.5.2 7.1.7 10.7zm-114.5 1.8c3.5.4 6.9.6 10.3.7 1.3.1 2.5.1 3.8.1 11.2 0 22.3-1.9 32.7-4 7.2-1.4 14.6-3 21.7-5.3 1.1 1.8 1.6 4 1.9 5.8.7 4.5.7 9 0 13.5-2 .1-4.1.3-6 .4-4.4.4-9 .8-13.4.6-6.3-.2-12.7-1.5-18.9-2.7-4.6-.9-9.4-1.9-14.2-2.4-3.6-.4-7.6-.6-12.1-.6-2 0-4 0-5.9.1.4-2.2.4-4.5.1-6.2zm46-7.4c-11.3 2.2-23.4 4.3-35.5 3.8-11.9-.5-25.2-1.7-32.5-10.2-8.1-9.6-7.9-21.2-6.3-29.3.3-1.7 1-3.7 1.8-5.1.3.5.6.9.8 1.3.9 1.8 1.4 3.3 1.6 4.3l.1.6c.1 1.1.3 2.3 1 3.5.5.9 1.1 1.6 1.7 2.2l2.5 2.7c3.8 4 10.7 4.8 15.4 5.4 2 .2 4 .4 6 .4 3.6 0 7.1-.4 10.6-1.1 1.2-.3 2.2-.9 2.9-1.8 1.7.2 3.4.3 5.2.3 9.4 0 19-2.9 30.5-9.2 2.8-1.5 13.5-10.2 15.7-13 6.1-7.4 12-18.9 15.2-25.1 2.9-5.6 8.8-21.4 10.6-27.2.3-1 .8-2.9 1.5-5.4 2-7.5 6.1-23.2 8.6-26.1.3-.4.5-.9.5-1.3 6.8-5.1 12-12.3 16.6-18.6l7.9-10.9c.4-.5.8-1.1 1.2-1.7.9 1.2 2.1 4.1 2.6 7.1 1.2 6.7.6 20.9.3 26.7-.2 2.9-1 9.7-1.6 15.2-.4 3.2-.7 6-.9 7.7-1.7 17.5-6.1 33.2-14.4 50.9-1.1 2.5-19.5 34.4-32.9 42.2-11.1 6.4-24.2 9.3-36.7 11.7zm-117-152.6c-.4-2.3-1.3-4.3-2.2-6.2-.6-1.3-1.2-2.5-1.6-3.7-.7-2.2-.9-4.8-.6-8.1 1.1-13.6 3.8-20 12.6-29.8 7-7.8 16.7-13 22.9-15 1.2-.4 2.4-.8 3.6-1.1 5.6-1.8 11.4-3.6 16.4-7.2 3.7-2.8 6-6 6.4-9.5.3-2-.1-3.9-.5-5.8l-.2-1.2c-.6-3.5-.4-6.3.6-8.5 1.4-2.9 4.4-5.3 9.1-7 8.2-3 17.1-3.2 25.1-.5 8.2 2.7 14 5.9 17.4 13 .1.2.3.4.4.6-.2 4.2-.3 8.4 0 13 0 .4.1.9.1 1.3-2.7 2.5-9.4 1-11.6-.3-2.6-1.5-3.5-3.1-4.3-4.7-.8-1.5-1.7-3.2-3.9-3.9-7-2.3-12 .2-15.4 7.6-1 2.2-1.4 4.6-1.8 6.8-.4 2.2-.8 4.3-1.7 6.2-.9 1.8-2.4 3.6-4.8 5.5-1 .9-2.2 1.7-3.4 2.1-1.6.5-9.2 3.4-11.7 5-2.2 1.3-5.1 4.7-6.1 9.9l-.3.9v.3c-.2 2-.2 4.2.2 6.7.3 1.4.6 3 1 4.6 1 4.4 2.2 9.4 1.2 12.9-1.1 3.8-4.7 6.4-8.5 9.1-4.2 3-8.5 6.1-10.1 11.2-1.8 5.8.8 11.3 3.2 16.6 2.2 4.8 4.3 9.3 3 13.6-.8 2.6-2.9 4.9-6.3 7.1-1.3.9-2.8 1.6-4.2 2.4-1.8 1-3.8 2-5.5 3.3-3.1 2.2-5.9 5.1-7.9 8.3-.3.4-.5.8-.8 1.2-.8 1.3-1.5 2.5-2.5 3.4-2.4 2.1-6.3 1.7-8.8.2-2.6-1.5-4.8-4.2-6.9-8.2-2.3-4.6-4.8-11.6-3.9-19.4.5-4.2 2.1-8.5 4.7-12.8.6-1 1.3-2.1 2-3.1 3.1-4.9 6.6-10.5 5.6-16.8zm-12.3 54.1c2.4 4.8 5.2 8 8.5 9.9 2.1 1.2 4.4 1.8 6.6 1.8 2.7 0 5.2-.8 7.1-2.5 1.5-1.3 2.4-2.9 3.4-4.4.2-.4.5-.8.7-1.1 1.6-2.5 3.7-4.8 6.1-6.6-.2 5.1.5 10.1 2.1 14.8-9.6.8-37.3 5.8-48.2 7.7l-.5.1v-1.4c0-1.9-.1-4-.4-6-.5-2.8-1.7-5.6-3.4-7.9 1.7-1.1 3.8-2.5 6-4 3.3-2.2 7-4.7 9.5-6.1.8 1.8 1.6 3.8 2.5 5.7zm-14.6 24.1l1.7-.3c11.5-2.1 41.7-7.5 49.1-7.8 1.8 3.9 4.1 7.5 7 10.5.1.1.2.3.4.4-18.9-1.1-38.2-1.7-58.6-1.7.1-.4.3-.7.4-1.1zm51.5-29.9c.4-.2.9-.5 1.3-.7 1.5-.8 3-1.6 4.4-2.5 4.2-2.7 6.9-5.9 8.1-9.4 1.8-5.8-.7-11.3-3.2-16.6-2.2-4.8-4.3-9.3-3-13.6 1.2-3.8 4.7-6.3 8.5-9 4.2-3 8.6-6.2 10.1-11.4.5-1.8.6-3.8.5-5.8 2 2.9 4.3 5.4 6.4 7-2.7 1-5.4 2.7-7.5 5.3-2.3 2.9-6 9.1-4.5 18.3.7 4.2 3.7 9.8 10 12.9 2.7 1.3 5.5 2 8.3 2.8 1.2.3 2.5.6 3.7 1 5.4 1.6 12 3.7 18.8 3.7h.2c4.1 0 8.2-.7 12.1-1.4.2 0 .4-.1.5-.1 5.1 5.4 10.6 12 13.5 20.9.6 1.7.7 5 .3 9-.3 3-1.4 5.6-3.8 9-1.6 2.2-3.2 4.6-4.1 7.6-2 6.7-.5 14.4 4.4 23.5 1 1.8 2 3.5 3 5.2 2.7 4.5 5.2 8.8 6.6 13.5-11.8 6.2-21.5 8.7-31 7.8 0-.6-.2-1.1-.4-1.7l.1-.1c1.6-1.6 2.2-3.8 1.7-5.8-.2-.7-.5-1.3-1-1.9-.4-.5-.8-.9-1.3-1.3.5-.5.9-1 1.1-1.7 1.2-3.4.2-6.4-2.7-8.2 1.3-1.5 1.4-3.8.2-5.6-.8-1.2-2.1-2.1-3.9-2.7-3.1-1-6.2-.8-9.1-.7h-.6c-4.2.2-8.6-.2-12.8-.6-4-.4-8.1-.7-12.1-.6-2.3-4.6-11.1-14.2-13.5-16.7-6.9-7.3-10.4-18.5-9.3-29.4zm59.3-65.2c-.6.2-1.2.5-1.8.7-.6.2-1.3.3-1.9.5h-.1c-.4-.1-2.7-.4-4-2.3-1.8-2.5-1.5-3.8-.4-6 2.3 2.8 5.1 5.3 8.2 7.1zm-5.7-11c1 .4 2.1.7 3.3.9.6.1 1.1.2 1.7.3 1.4.2 2.8.4 3.9.9 1.6.6 2.7 1.6 3.1 2.8.2.4.1 1.2-.3 1.9-.2.4-.6.8-1.2.9-.3.1-.6.2-.9.4-3.8-1.7-7.3-4.6-9.6-8.1zm5.2 15.7c1.8-.6 3.4-1.3 5-2.1 1.7-.8 3.2-1.5 4.8-2 4.3-1.2 9.9-.2 15.2.9 1.4.3 2.7.6 4.1.8 7.8 1.5 15.9 1.5 23.7.2 1.2-.2 2.3-.4 3.5-.7 3.8-.8 7.3-1.3 10.9-1.1 1.6.1 3.2.1 4.8-.1 2.3-.3 4.4-1.2 6.3-2 6.1-2.6 14.5-6.2 18.7-13.4.2-.3.7-1.2 2.5-1.2.9 0 1.9.2 2.8.6 5.7 2.2 11 5.8 16 9.3.8.5 1.2.9 1.2 1.1 0 .1 0 .4-.4 1.1-1.8 3.9-4.4 7.5-7 11.1l-7.9 10.9c-4.9 6.7-9.9 13.7-16.7 18.5-5.5 3.8-12.1 6-18.4 6h-.8c-2.8-.1-5.6-.6-8.6-1.1l-2.1-.3c-13.5-2.2-27-2.3-39.6-.2l-3.6.6c-3.9.7-7.6 1.4-11.4 1.4v2.1l-.2-2.1c-6.1 0-12.5-2-17.5-3.5-1.3-.4-2.6-.7-3.8-1.1-2.7-.7-5.2-1.4-7.5-2.5-4.9-2.3-7.2-6.7-7.6-9.7-1.2-7.2 1.3-12.1 3.6-15 3.3-4.1 8.8-5.1 12.9-5.3h7.6c3-.1 6.3-.2 9.5-1.2zm24.2-24.8c-.1-1.3-.2-2.6-.2-3.6-.1-2.2 0-4.2.8-5.8.1-.3.3-.5.5-.7h1.5c2 0 4.1-.2 6.1-.5-.1.3-.1.6-.1.9-.4 6.2 5.1 10.8 10.3 13.1 5 2.2 10.4 3.3 15.9 3.3 3.6 0 7.2-.5 10.6-1.4 8.7-2.5 16.4-7.9 21.5-15.4.3.2.5.4.8.6 1.1.7 2.2 1.4 3.4 2l6.2 3.5-1.8 3.8c-2.8 0-5 1.2-6.2 3.3-3.2 5.6-9.4 8.6-16.7 11.7-1.7.7-3.5 1.5-5.3 1.7-1.3.2-2.7.1-4 .1-.7 0-1.5-.1-2.2-.1-3.4 0-6.6.7-9.7 1.3-1.1.2-2.2.4-3.4.6-7.3 1.3-14.9 1.2-22.2-.2-1.3-.2-2.6-.5-4-.8-3.7-.8-7.5-1.6-11.3-1.6-1 0-1.9.1-2.8.2l2.4-4.7c.4-.7.7-1.1.8-1.2.4.3 1 .7 1.4 1 2.4 1.7 4.1 2.9 5.7 2 2.9-1.8 2.5-7.3 2-13.1zm57.4-23.6c1.3 4.1 3.5 7.8 6.2 10.7l-.3.3c-4.5 6.6-11.5 11.6-19.2 13.8-7.7 2.2-16.3 1.6-23.6-1.7-3.9-1.7-8-5-7.7-9 0-.5.2-.9.3-1.1.8-.1 1.5-.8 1.7-1.5 1-.4 2-.9 2.8-1.8.9-1 1.2-2.2 1.4-3.3 1 .1 2 .2 2.9.2 2.6 0 5-.5 7.3-1.5 3.4-1.5 6.2-4 8.7-6.2l14-12.2c1.2-1 2.1-1.8 3.1-1.9.4-.1.8 0 1.3.1-.7 5.3-.3 10.5 1.1 15.1zm3.1-14.7c3.6.2 6.9-.3 9.8-1.3.3-.1.5-.2.8-.3.2 2.6 1.2 5.2 2.9 7.2 1.3 1.6 3.1 2.9 5 3.7.4.2.8.3 1.3.5.9.3 1.8.6 2.2 1.1.6.7.7 2 .7 3 0 4-.7 7.9-2.1 11.7-.6 1.6-1.3 3.1-2.1 4.7l-6-3.4c-1-.6-2.1-1.2-3-1.8-3.9-2.7-7-6.9-8.5-11.9-1.3-3.9-1.6-8.5-1-13.2zm-46.2 21.7c-.3.4-1.1.6-1.9.9-2.5.7-5 1.1-7.6 1.2 1.8-2.1 3.2-4.2 4.5-6.7 1.6 1.3 3.5 2.3 5.4 3 0 .7-.1 1.3-.4 1.6zm-5 101.8c-2.8-8.5-7.7-15-12.5-20.4 11.5-1.7 23.9-1.5 36.2.5l2 .3c3 .5 6 1 9.2 1.1h.9c5.2 0 10.6-1.3 15.5-3.6-2.1 5.5-4.5 13.9-6.7 22.4-.6 2.4-1.1 4.3-1.4 5.3-1.7 5.5-7.6 21.2-10.3 26.5-3.1 6-8.9 17.2-14.7 24.3-1.5 1.9-8.2 7.4-12.1 10.3-1.6-4.8-4.1-9.1-6.6-13.3-1-1.7-2-3.4-2.9-5.1-4.4-8.1-5.8-14.7-4.1-20.2.7-2.4 2.1-4.3 3.5-6.4 2-2.8 4.1-6.4 4.5-11 .3-3.2.5-7.8-.5-10.7zm-72.5 50.6c.1-.1.4-.1.5-.2 4.7-.4 9.3 0 14.2.5 4.4.4 8.9.8 13.4.6h.6c2.7-.1 5.3-.3 7.6.5.8.3 1.4.6 1.7 1 .1.2.1.4.2.4-.1.1-.7.2-.9.3-6.5 1.6-14.9 3.2-22.3.5-1.1-.4-2.3.2-2.7 1.3-.4 1.1.2 2.3 1.3 2.7 6.9 2.5 14.4 1.8 20.7.5h.6c1.1 0 3.9.4 4.9 1.8.3.4.6 1.1.1 2.5-.2.4-1.3 1.1-6.3 1.9-2 .3-4.2.2-6.4 0-5.3-.5-10.6-1.2-15.9-2.1-1.2-.2-2.2.6-2.4 1.7-.2 1.2.6 2.2 1.7 2.4 5.4.9 10.8 1.6 16.2 2.1 1.4.1 2.8.2 4.2.2 1.1 0 2.2-.1 3.4-.3l3.3-.6c.3.2.6.3.9.3.8 0 1.7.5 2.2 1.2.1.2.3.4.3.5.1.5-.1 1.1-.6 1.7-.5.6-.6.6-1.6.7-7.8 1.2-15.1.2-23.8-1.6-1.1-.2-2.3.5-2.5 1.6-.2 1.1.5 2.3 1.6 2.5 6.4 1.3 12.1 2.2 17.8 2.2 2.5 0 5-.2 7.5-.5h.2v.4c-.3 1-.6 1.1-1 1.2-4.9 1.1-10 1.3-15.1.7-4-.5-10-1.2-12.8-4.1l-2.5-2.7c-.4-.4-.8-.9-1-1.2-.3-.5-.4-1.3-.5-2.1l-.1-.6c-.3-2.1-1.5-4.9-3.5-8.4l-.3-.3c-.1-.1-.1-.3-.2-.4 0-.2-.1-.5-.2-.7-.1-.1-.2-.2-.2-.3-1.2-2.5-2.2-5.1-2.4-5.6-.3-1.5 0-2 .1-2.2zm202.4-36.8c0 9.9-.8 19.6-2.4 29.1-2-.2-4.7-.5-8-.8-23.8-2.5-33.4-3.3-36.7-2.8.3-3.8.4-7.5-.2-11 2.8-9.3 4.6-18.5 5.5-28.2.2-1.7.5-4.5.9-7.7.7-5.8 1.4-12.4 1.6-15.4.4-7.4.9-20.9-.4-27.7-.2-.8-1.4-7.1-4.3-9.9 1.4-2.1 2.7-4.2 3.7-6.5.5-1.1.9-2.3.7-3.7-.2-1.2-.9-2.1-1.6-2.7 2.8-5.9 4.8-12.2 5.9-18.6 23.1 30.6 35.3 67.2 35.3 105.9zm-51.5-148.9c1.4 1.9 2.7 3.7 3.3 5.7.3.8.4 1.6.6 2.5.1.7.3 1.4.5 2.1.9 3.4 2.7 6.4 4.5 9.2 1.9 3 3.7 5.9 4.2 9.1.3 1.8.1 3.7-.1 5.9-.2 1.9-.4 3.9-.6 5.8-.9 6.4-2.8 12.7-5.6 18.6-4.6-3.2-9.4-6.2-14.8-8.3h-.1l2.7-5.6c1-2 1.9-4 2.7-6.2 1.6-4.2 2.4-8.7 2.3-13.2 0-1.8-.2-4.1-1.8-5.9-1.2-1.3-2.7-1.8-4-2.3-.4-.1-.7-.3-1-.4-1.3-.5-2.4-1.4-3.3-2.5-1.5-1.8-2.2-4.3-2-6.6v-.3c2.4-1.8 4.3-4.1 5.3-6.7.9-2.3 1.1-4.8.7-7.2 0-.1.1-.1.1-.1l.3-.5 1.2-2.1c.2.5.4.9.6 1.5.2.6.4 1.2.7 1.8 1 2.2 2.3 4 3.6 5.7zm-30.3-74.1c15.9 2.9 22 13.5 26.5 21.2l.2.4c3.5 6.1 4.3 14 3.8 19.4-.7 7.5-4.7 15.2-8.6 22.1-.5-.7-1-1.3-1.6-1.8-2.2-2-4.9-3.1-7.8-3.4 1.6-3.4 3.3-7.6 4-12.6.6-4.4-.5-9.1-3.5-13.8-3.1-5-8.3-8.5-11.1-10.4-.6-.4-1.1-.7-1.4-1-2.3-1.8-3.7-4.9-4.4-9.9l-.1-1c-.3-2.1-.5-4.2-1.4-6.3-.5-1.2-1.2-2.3-2.1-3.1 2.8-.2 5.3-.2 7.5.2zm-59.8 25.7l-.8-.5c-.1-.1-.2-.2-.4-.2.3-.3.8-.7 1.6-.9 5.2-1.8 10.7-3.1 16.2-3.8.5-.1 1.1-.1 1.7-.2 2.1-.2 4.4-.4 6.3-1.4 2.3-1.2 4.1-2.8 5.9-4.4l11-9.7c1.7-1.5 3.7-3.1 5.5-2.9 1.6.2 2.8 1.8 3.3 3 .7 1.5.9 3.3 1.1 5.1l.1 1c.5 3.9 1.7 9.4 6 12.7.4.3.9.7 1.6 1.1 2.7 1.8 7.3 4.9 9.9 9.1 2.4 3.9 3.4 7.5 2.9 10.9-.7 5.2-2.8 9.5-4.4 13l-1.8 3.8 2.3.7.7.1c.1 0 .4 0 .7-.1.4 0 1-.1 1.7-.1 2.3 0 4.3.8 6 2.3 2.3 2.1 3.1 5.9 1.9 9.1-1.2 3-4.1 5.6-7.8 6.9-2 .7-4.3 1.1-6.9 1.1-1.4 0-2.9-.1-4.8-.4-.9-.1-1.9-.2-2.8-.1-2.3.3-4.1 1.8-5.4 3l-14 12.2c-2.4 2.1-4.9 4.2-7.7 5.5-1.7.8-3.6 1.1-5.5 1.1-5.9 0-11.4-3.3-13.8-8.2-1.6-3.4-2-7.5-2.1-11-.3-7-.1-13.4.6-19.5.6.1 1.3.3 2 .5 5.8 1.9 12.7 6.6 14.1 12.2.1.2.2.5.3.6-1.2 1.6-1.4 2.5-1.2 3.3.2 1 1.1 1.8 2.1 1.8h.4c1-.2 1.6-.9 1.7-1.9.2-.3 1-1.5 3.9-4.5.8-.8.8-2.2 0-3-.8-.8-2.2-.8-3 0-.3.3-.5.5-.7.8-2.6-6.3-9.7-11.1-16.2-13.3-.8-.3-1.7-.5-2.7-.7.2-1.2.4-2.5.7-3.7l.4-2c.3-1.3.6-2.6.8-3.9.1-.1.1-.2.2-.3.1-.3.1-.6 0-.8.8-4.4 1-9-1-13.3-2.2-4.5-6.6-7.4-10.6-10.1zm8.6 73.8c-1.5 3.3-3.2 5.9-5.6 8.5l-.6.6c-1.1 1.1-2.3 2.4-3.1 4-1.3 2.5-1.3 5.1-1.2 7.8 0 1.1.1 2.4.2 3.9.2 2.2.5 6.4.2 8.2-.5-.3-1-.7-1.4-.9-1.7-1.2-2.5-1.8-3.4-1.8-2-.2-3.7 1-5 3.6l-.6 1.3c-1-1.5-2.6-2.7-4.6-3.5-1.6-.6-3.3-.9-4.8-1.1-.5-.1-1-.1-1.5-.2-3.7-.6-5.8-2.4-6.2-3-.2-.3-.5-.6-.8-.8-.1-.6-.2-1.2 0-1.7.3-1.1-.3-2.3-1.5-2.6-1.1-.3-2.3.3-2.6 1.5-.4 1.4-.2 2.9 0 4 .4 1.9 1 3.9 2 5.7-.1.3-.3.5-.4.8-1.8 3.3-3.6 6.6 0 11.7l.3.3h-1.9c-1.6 0-3.2-.1-4.8 0-.9 0-2 .1-3 .3-.2-.3-.5-.5-.8-.6-5.3-2.3-13.7-14.4-13.9-24.3.6-4.4 2.8-7 4.3-8 2.1-1.3 9.3-4.1 10.7-4.5 2-.6 3.6-1.8 4.9-2.9 2.8-2.3 4.7-4.5 5.9-6.9 1.2-2.4 1.6-4.9 2.1-7.3.4-2.1.7-4.1 1.5-5.8 2.4-5.4 5.3-6.9 10.2-5.3.5.2.8.6 1.4 1.9 1 1.9 2.3 4.4 6 6.5 2.3 1.3 9.2 3.4 14.2 1.3.4 2.2 1 4.5 2 6.6.3.8 1 1.8 1.8 2.7zm-44-53.5c14.4 0 28.6 1.7 42.4 5.1-.2.8-.3 1.5-.5 2.3l-.5 2.1c-.6 2.7-1 5.6-1.4 8.5-4.1-5.3-9.9-8.2-17.1-10.6-8.9-3-18.8-2.8-27.9.6-5.8 2.1-9.7 5.2-11.5 9.2-1.4 3-1.7 6.6-.9 11.1l.2 1.2c.3 1.6.6 3.1.4 4.4-.4 2.9-2.7 5.2-4.7 6.6-4.4 3.2-9.6 4.8-15.1 6.6l-3.6 1.2c-7 2.3-17.3 7.8-24.8 16.2-9.4 10.5-12.4 17.8-13.6 32.3-.3 3.9-.1 7 .8 9.7.5 1.5 1.1 2.9 1.8 4.3.8 1.7 1.6 3.4 1.9 5.1.8 4.7-2.1 9.1-5.1 13.8-.7 1.1-1.4 2.2-2 3.3-2.9 4.8-4.6 9.6-5.2 14.4-.5 3.8-.2 7.9.7 11.9-2.6 1.4-6.7 4.1-10.6 6.8-2.5 1.7-4.8 3.3-6.5 4.3-.9-.8-1.8-1.5-2.8-2.2-3.3-2.1-7-3.4-10.8-4.1 6.3-17.6 47-147.4 47.3-148.7.1-.4.1-.8 0-1.2 21.2-9.2 44.6-14.2 69.1-14.2zM106.5 341.2c-.4-1.9-1.1-6.9 1.6-11.7 2.4-4.1 5.8-7.2 9.5-8.7 7.2-2.9 15.9-2 22.7 2.3 3.6 2.3 6.3 6.2 7 10.5.3 1.7.3 3.5.4 5.3 0 2.8-.1 5.6-1.8 6.8l-.1.1c-11.8.1-24.1.4-36.9.8-.1-.4-.3-.8-.6-1.1-.5-.5-1-1.3-1.3-2.3l.3-.5-.8-1.5zm67.9-173.6c-5.8 18.7-43.1 137.4-47 147.3-3.9-.1-7.8.5-11.4 1.9-.3.1-.7.3-1 .5-1.9-8.5-4.1-26.7-6.2-44.4-2-17.2-4.1-34.9-6.1-45 0-.1-.1-.1-.1-.2 18.1-25.8 42.9-46.7 71.8-60.1zm-75 65.2c1.7 10.2 3.6 25.7 5.3 40.6 2.3 19.6 4.5 38.1 6.6 46.2-2.5 1.9-4.7 4.3-6.5 7.2-2.2-1.9-5.3-5-8.8-8.6-6.1-6.2-13.6-13.8-22-20.6 4.1-23.6 12.9-45.5 25.4-64.8zm-28.2 95.7c0-8.9.7-17.6 1.9-26.1 7.5 6.3 14.3 13.1 19.8 18.8 4.2 4.3 7.6 7.7 10 9.6-1.2 3.6-1.3 7-.9 9.5-11-1.1-27-4.8-29.8-5.6-.3-.2-.6-.3-.9-.3-.1-2.1-.1-4-.1-5.9zm.3 10.3c1.9.6 5.1 1.3 10.7 2.5 4.8 1 13.8 2.7 20.9 3.3.2.8.6 1.6 1 2.3-10.2.4-20.8.9-31.8 1.6-.3-3.2-.6-6.5-.8-9.7zm1.4 13.9c54.9-3.3 98.4-3.5 140.9-.7 3.3 3.7 6.1 7.3 7.5 9.4-.8.4-1.4.9-1.8 1.3-1.5 1.9-1.1 4.6-.9 5.7.1.6 1.1 3.1 2.3 5.7-2.4 2.5-3.4 6.6-3.8 8.5-1.8 9-2 22 7.2 32.8 5.2 6.1 12.7 8.9 20.7 10.3v.1c.4.9.8 3.8-.1 6.8v.2c-.6 0-1.1 0-1.7.1l-63.7 2.3c-5.4.2-11.2.4-17 .4-15.2 0-34.7-1.2-50.7-10.7-3-1.7-5.9-3.8-8.7-5.8-2.7-1.9-5.4-3.8-8.3-5.6-.9-.5-1.7-1-2.6-1.4 0-.1 0-.1-.1-.2-9.8-18.2-16.4-38.4-19.2-59.2zm-4.4 35.6c.1-.9.3-1.8.6-2.9l.2-.5c1-2 2.8-3 5.3-4.2 3 10 6.8 19.7 11.5 29-3.9-1.5-7.7-3-10.7-5.9-3.9-3.8-6.8-7-7.2-11.7.1-.2.1-.5.1-.7.1-1.2.1-2.2.2-3.1zM425 479.9c-.1 2.7-.3 5.1-1.6 6.6-1.1 1.3-2.8 1.9-5 2.7-17.9 6.1-37 12-56.1 12-2.4 0-4.9-.1-7.2-.3-2.5-.2-5-.5-7.5-.8-4.6-.6-9.4-1.2-14.3-1.1-7.6.2-14.9 2.1-22 4-5 1.3-10.2 2.7-15.3 3.4-8.8 1.2-19.7.4-29.8-.7-6.3-.6-12.8-1.3-19.3-1.3h-.9c-8.8 0-17.9 1.1-26.6 2.1-8.5 1-17.3 2.1-25.8 2.1-9.1 0-16.9-1.3-23.8-3.8-4-1.5-8.3-3.3-12.8-5.2-10.4-4.3-21.1-8.8-30.9-10.7-5.2-1-11-1.5-18.4-1.5-3.8 0-7.4.1-10.8.2-2.9.1-5.6.2-8.1.2-5 0-8.1-.5-9.1-1.4-3.8-3.3-4.8-10.8-5.6-16.8-.2-1.2-.3-2.4-.5-3.5-1.3-8.1-4-15-6.6-21.8-1.8-4.6-3.6-9.3-5.1-14.4-3.4-12.3-3.9-28 2-38.1.3 6.5 4.1 10.8 8.6 15.1 3.6 3.5 8 5.2 12.2 6.8 2.6 1 5.4 2.1 7.9 3.6 2.7 1.6 5.4 3.5 8 5.4 2.9 2 5.8 4.1 9 6 17 10 37.2 11.3 52.9 11.3 5.9 0 11.7-.2 17.2-.4l63.7-2.3c3.9-.1 7.9-.3 11.8-.3 4.4 0 8.2.2 11.7.6 4.6.5 9.3 1.4 13.9 2.4 6.4 1.3 12.9 2.6 19.6 2.8 4.6.1 9.4-.2 13.9-.6 5.4-.4 11.2-.8 16-.4 3.2.3 6.5.9 9.7 1.5 3.1.6 6.3 1.2 9.5 1.5 1.3.1 2.8.2 4.4.2 14 0 36.7-4.3 46.3-10.1 13.5-8.1 20.1-18.2 23-24.5 2.4 7.1 4.1 18.1 3.9 22.3l-2.1 47.2z"/><path class="st12" d="M122.6 443l-2.1-.2-.2 2c-1.2 10.3-1.5 20.7-.6 31.1l.1 1.8 1.8.1c.6 0 1.2.1 1.8.1 6.7 0 12.2-2.7 14.9-7.3 3.2-5.5 3.2-12.8 0-18.5-2.9-5.1-8.6-8.4-15.7-9.1zm12 25.5c-2.6 4.5-8.3 5.2-10.9 5.2-.6-8.7-.4-17.5.5-26.2 4.7.9 8.4 3.3 10.3 6.7 2.6 4.4 2.6 10 .1 14.3zM241.3 459.9c-1.5-3-3.7-3.4-5.2-2.8l-.8.3-.4.8c-2.8 6.4-4.9 13-6.2 19.8v.2c-.7 3.6-1.2 7.2-1.5 10.9-.1 1.2.8 2.2 2 2.3h.2c1.1 0 2-.8 2.1-2 .2-3 .6-5.9 1.2-8.8 4-.5 7.9-.8 11.9-1.1.8 2.8 1.6 5.6 2.2 8.4.2 1.1 1.4 1.9 2.5 1.6 1.1-.2 1.9-1.4 1.6-2.5-2-9.5-5.2-18.6-9.6-27.1zm-7.8 16.2c1.1-4.7 2.5-9.3 4.3-13.8 2.1 4.2 3.9 8.5 5.4 12.9-3.2.3-6.4.6-9.7.9z"/><path id="XMLID_108_" class="st12" d="M322.8 482.9c-1.8-2-9.2-15.1-12.1-22.1l-1.4-3.5-2.2 3c-3.8 5.2-6.9 10.9-9.2 17-1.5-1.9-3.4-4.8-5-7.1-2.3-3.4-4.7-6.8-6.6-9.1l-2.8-3.5-1 4.3c-1 4.3-1.9 8.2-2.9 12-1 4.2-2.1 8.5-3.2 13.3-.2 1.1.5 2.3 1.6 2.5h.5c1 0 1.9-.7 2.1-1.7 1-4.8 2.1-9.1 3.1-13.2.6-2.5 1.2-5 1.9-7.6 1.2 1.6 2.4 3.5 3.7 5.3 6.8 9.8 7.7 10.9 9.6 10.8l1.4-.1.4-1.4c1.8-5.7 4.3-11.1 7.6-16.1 1.5 3.3 3.6 7.3 5.8 11.2 5.8 10.3 6.6 10.1 8.2 9.7 1.1-.3 1.8-1.4 1.6-2.6-.2-.3-.6-.8-1.1-1.1z"/><path class="st12" d="M365.1 465.1l-.2-.7c-1.2-3.9-2.5-8-5.1-11.5l-2.2-2.9-1.5 3.4c-4.1 9.6-8.2 19.4-11.9 29.1-.4 1.1.1 2.3 1.2 2.7 1.1.4 2.3-.1 2.7-1.2 1-2.6 2.1-5.2 3.1-7.7 2.5 0 4.7.2 6.8.3 2.1.2 4.3.3 6.7.3.9 2.5 1.8 4.9 2.8 7.3.3.8 1.1 1.3 2 1.3.3 0 .5 0 .8-.1 1.1-.4 1.6-1.7 1.2-2.8-2.4-5.6-4.5-11.5-6.4-17.5zm-6.8 7.4c-1.7-.1-3.5-.2-5.4-.3 1.8-4.4 3.6-8.8 5.5-13.2 1 2.2 1.8 4.5 2.5 6.8l.2.7 2.1 6.3c-1.7-.1-3.2-.2-4.9-.3zM186.4 477.9c-1.8-1.8-3.6-3.6-5.4-5.5 1.1-.2 2.2-.4 3.3-.7 5.9-1.4 7.7-4.2 8.1-6.4.5-2.3-.3-4.7-2.4-7.2-3.8-4.7-9.3-6.8-14-5.5l-1.3.4-.2 1.4c-1.4 10.4-2.2 21-2.2 31.4 0 1.2 1 2.1 2.1 2.1 1.2 0 2.1-.9 2.1-2.1 0-3.9.1-7.7.3-11.6 2.2 2.4 4.4 4.5 6.5 6.7 2.1 2.1 4.3 4.3 6.7 6.8.4.4 1 .7 1.6.7.5 0 1-.2 1.4-.6.9-.8.9-2.1.1-3-2.4-2.6-4.5-4.8-6.7-6.9zm-7.9-21.5c3.4-.2 6.5 2.1 8.3 4.3.8 1 1.8 2.5 1.5 3.7-.4 1.8-3.2 2.7-4.9 3.1-2 .5-4.1.8-6.1 1.1.2-4 .6-8.1 1.2-12.2z"/></g><g><path id="XMLID_103_" class="st8" d="M425.2 328.5c0 9.9-.8 19.6-2.4 29.1-2-.2-4.7-.5-8-.8-23.8-2.5-33.4-3.3-36.7-2.8.3-3.8.4-7.5-.2-11 2.8-9.3 4.6-18.5 5.5-28.2.2-1.7.5-4.5.9-7.7.7-5.8 1.4-12.4 1.6-15.4.4-7.4.9-20.9-.4-27.7-.2-.8-1.4-7.1-4.3-9.9 1.4-2.1 2.7-4.2 3.7-6.5.5-1.1.9-2.3.7-3.7-.2-1.2-.9-2.1-1.6-2.7 2.8-5.9 4.8-12.2 5.9-18.6 23.1 30.6 35.3 67.2 35.3 105.9z"/></g><g><path id="XMLID_102_" class="st14" d="M415.1 399.4c-4.7 11.1-10.6 21.7-17.5 31.7.1 0 .2-.1.2-.1 14.1-8.5 19.8-18.9 21.8-23.8v-.5c.9-4.5-1-6-4.5-7.3z"/></g><g><path id="XMLID_101_" class="st14" d="M68.5 388.3c.1-.9.3-1.8.6-2.9l.2-.5c1-2 2.8-3 5.3-4.2 3 10 6.8 19.7 11.5 29-3.9-1.5-7.7-3-10.7-5.9-3.9-3.8-6.8-7-7.2-11.7.1-.2.1-.5.1-.7.1-1.2.1-2.2.2-3.1z"/></g></g><g><path class="st6" d="M75.2 583.1h1.9v13.2h6.3v1.6h-8.3v-14.8zM94.9 592.5c0 3.9-2.7 5.7-5.3 5.7-2.9 0-5.1-2.1-5.1-5.5 0-3.6 2.3-5.7 5.3-5.7 3 .1 5.1 2.3 5.1 5.5zm-8.5.1c0 2.3 1.3 4.1 3.2 4.1 1.8 0 3.2-1.7 3.2-4.1 0-1.8-.9-4.1-3.2-4.1-2.2 0-3.2 2.1-3.2 4.1zM97.3 590.6c0-1.3 0-2.3-.1-3.3h1.7l.1 2.1c.5-1.4 1.7-2.3 3-2.3.2 0 .4 0 .5.1v1.8c-.2 0-.4-.1-.7-.1-1.4 0-2.3 1-2.6 2.5 0 .3-.1.6-.1.9v5.7h-1.9v-7.4zM105.3 593c0 2.6 1.7 3.7 3.7 3.7 1.4 0 2.2-.2 3-.5l.3 1.4c-.7.3-1.8.7-3.5.7-3.3 0-5.2-2.2-5.2-5.4s1.9-5.7 5-5.7c3.5 0 4.4 3.1 4.4 5 0 .4 0 .7-.1.9h-7.6zm5.7-1.4c0-1.2-.5-3.1-2.7-3.1-2 0-2.8 1.8-3 3.1h5.7zM115.3 590.2c0-1.1 0-2-.1-2.9h1.7l.1 1.7h.1c.6-1 1.6-2 3.3-2 1.5 0 2.6.9 3 2.1.3-.6.7-1.1 1.2-1.4.6-.5 1.3-.7 2.4-.7 1.4 0 3.5.9 3.5 4.6v6.3h-1.9v-6c0-2-.7-3.3-2.3-3.3-1.1 0-2 .8-2.3 1.8-.1.3-.2.6-.2 1v6.6H122v-6.4c0-1.7-.7-2.9-2.2-2.9-1.2 0-2.1 1-2.4 1.9-.1.3-.2.6-.2.9v6.4h-1.9v-7.7zM140.5 584.3c0 .7-.5 1.2-1.2 1.2s-1.2-.5-1.2-1.2.5-1.2 1.2-1.2 1.2.5 1.2 1.2zm-2.2 13.7v-10.7h1.9V598h-1.9zM143.4 590.8c0-1.4 0-2.5-.1-3.5h1.7l.1 1.8c.8-1.3 2-2.1 3.8-2.1 2.6 0 4.5 2.2 4.5 5.4 0 3.8-2.3 5.7-4.8 5.7-1.4 0-2.6-.6-3.3-1.7v5.8h-1.9v-11.4zm2 2.8c0 .3 0 .6.1.8.4 1.3 1.5 2.3 2.9 2.3 2 0 3.2-1.7 3.2-4.1 0-2.1-1.1-4-3.2-4-1.3 0-2.6.9-2.9 2.4-.1.2-.1.5-.1.8v1.8zM155.7 596c.6.4 1.6.8 2.6.8 1.4 0 2.1-.7 2.1-1.6 0-.9-.5-1.4-2-2-1.9-.7-2.8-1.7-2.8-3 0-1.7 1.4-3.1 3.7-3.1 1.1 0 2 .3 2.6.7l-.5 1.4c-.4-.3-1.2-.6-2.2-.6-1.1 0-1.8.7-1.8 1.5 0 .9.6 1.3 2 1.8 1.8.7 2.8 1.6 2.8 3.2 0 1.9-1.5 3.2-4 3.2-1.2 0-2.2-.3-3-.7l.5-1.6zM173.6 595c0 1.1 0 2.1.1 2.9H172l-.1-1.7c-.5.9-1.6 2-3.5 2-1.7 0-3.7-.9-3.7-4.7v-6.2h1.9v5.9c0 2 .6 3.4 2.4 3.4 1.3 0 2.2-.9 2.6-1.8.1-.3.2-.6.2-1v-6.5h1.9v7.7zM176.8 590.2c0-1.1 0-2-.1-2.9h1.7l.1 1.7h.1c.6-1 1.6-2 3.3-2 1.5 0 2.6.9 3 2.1.3-.6.7-1.1 1.2-1.4.6-.5 1.3-.7 2.4-.7 1.4 0 3.5.9 3.5 4.6v6.3h-1.9v-6c0-2-.7-3.3-2.3-3.3-1.1 0-2 .8-2.3 1.8-.1.3-.2.6-.2 1v6.6h-1.9v-6.4c0-1.7-.7-2.9-2.2-2.9-1.2 0-2.1 1-2.4 1.9-.1.3-.2.6-.2.9v6.4h-1.9v-7.7zM209 582.3v12.9c0 .9 0 2 .1 2.8h-1.7l-.1-1.8c-.6 1.2-1.9 2.1-3.6 2.1-2.6 0-4.6-2.2-4.6-5.4 0-3.5 2.2-5.7 4.8-5.7 1.6 0 2.7.8 3.2 1.6v-6.4h1.9zm-1.9 9.3c0-.2 0-.6-.1-.8-.3-1.2-1.3-2.2-2.8-2.2-2 0-3.2 1.8-3.2 4.1 0 2.2 1.1 3.9 3.1 3.9 1.3 0 2.5-.9 2.8-2.3.1-.3.1-.5.1-.8v-1.9zM221.9 592.5c0 3.9-2.7 5.7-5.3 5.7-2.9 0-5.1-2.1-5.1-5.5 0-3.6 2.3-5.7 5.3-5.7 3 .1 5.1 2.3 5.1 5.5zm-8.5.1c0 2.3 1.3 4.1 3.2 4.1 1.8 0 3.2-1.7 3.2-4.1 0-1.8-.9-4.1-3.2-4.1-2.2 0-3.2 2.1-3.2 4.1zM224.3 582.3h1.9V598h-1.9v-15.7zM239.1 592.5c0 3.9-2.7 5.7-5.3 5.7-2.9 0-5.1-2.1-5.1-5.5 0-3.6 2.3-5.7 5.3-5.7 3.1.1 5.1 2.3 5.1 5.5zm-8.4.1c0 2.3 1.3 4.1 3.2 4.1 1.8 0 3.2-1.7 3.2-4.1 0-1.8-.9-4.1-3.2-4.1-2.2 0-3.2 2.1-3.2 4.1zM241.6 590.6c0-1.3 0-2.3-.1-3.3h1.7l.1 2.1h.1c.5-1.4 1.7-2.3 3-2.3.2 0 .4 0 .5.1v1.8c-.2 0-.4-.1-.7-.1-1.4 0-2.3 1-2.6 2.5 0 .3-.1.6-.1.9v5.7h-1.9v-7.4zM253.2 596c.6.4 1.6.8 2.6.8 1.4 0 2.1-.7 2.1-1.6 0-.9-.5-1.4-2-2-1.9-.7-2.8-1.7-2.8-3 0-1.7 1.4-3.1 3.7-3.1 1.1 0 2 .3 2.6.7l-.5 1.4c-.4-.3-1.2-.6-2.2-.6-1.1 0-1.8.7-1.8 1.5 0 .9.6 1.3 2 1.8 1.8.7 2.8 1.6 2.8 3.2 0 1.9-1.5 3.2-4 3.2-1.2 0-2.2-.3-3-.7l.5-1.6zM264.3 584.3c0 .7-.5 1.2-1.2 1.2s-1.2-.5-1.2-1.2.5-1.2 1.2-1.2 1.2.5 1.2 1.2zm-2.2 13.7v-10.7h1.9V598h-1.9zM269.6 584.2v3.1h2.8v1.5h-2.8v5.7c0 1.3.4 2.1 1.5 2.1.5 0 .9-.1 1.1-.1l.1 1.5c-.4.2-1 .3-1.7.3-.9 0-1.6-.3-2.1-.8-.6-.6-.7-1.5-.7-2.8v-5.8h-1.7v-1.5h1.7v-2.6l1.8-.6zM285.1 598l-.2-1.3h-.1c-.6.8-1.7 1.6-3.3 1.6-2.2 0-3.3-1.5-3.3-3.1 0-2.6 2.3-4 6.4-4v-.2c0-.9-.2-2.5-2.4-2.5-1 0-2 .3-2.8.8l-.4-1.3c.9-.6 2.2-.9 3.5-.9 3.3 0 4.1 2.2 4.1 4.4v4c0 .9 0 1.8.2 2.6h-1.7zm-.3-5.5c-2.1 0-4.5.3-4.5 2.4 0 1.2.8 1.8 1.8 1.8 1.4 0 2.3-.9 2.6-1.8.1-.2.1-.4.1-.6v-1.8zM289.8 590.2c0-1.1 0-2-.1-2.9h1.7l.1 1.7h.1c.6-1 1.6-2 3.3-2 1.5 0 2.6.9 3 2.1.3-.6.7-1.1 1.2-1.4.6-.5 1.3-.7 2.4-.7 1.4 0 3.5.9 3.5 4.6v6.3h-1.9v-6c0-2-.7-3.3-2.3-3.3-1.1 0-2 .8-2.3 1.8-.1.3-.2.6-.2 1v6.6h-1.9v-6.4c0-1.7-.7-2.9-2.2-2.9-1.2 0-2.1 1-2.4 1.9-.1.3-.2.6-.2.9v6.4h-1.9v-7.7zM309.3 593c0 2.6 1.7 3.7 3.7 3.7 1.4 0 2.2-.2 2.9-.5l.3 1.4c-.7.3-1.9.7-3.5.7-3.3 0-5.2-2.2-5.2-5.4s1.9-5.7 5-5.7c3.5 0 4.4 3.1 4.4 5 0 .4 0 .7-.1.9h-7.5zm5.6-1.4c0-1.2-.5-3.1-2.7-3.1-2 0-2.8 1.8-3 3.1h5.7zM321.5 584.2v3.1h2.8v1.5h-2.8v5.7c0 1.3.4 2.1 1.5 2.1.5 0 .9-.1 1.1-.1l.1 1.5c-.4.2-1 .3-1.7.3-.9 0-1.6-.3-2.1-.8-.6-.6-.7-1.5-.7-2.8v-5.8H318v-1.5h1.7v-2.6l1.8-.6zM325.2 600.7c.5-1.3 1.1-3.7 1.3-5.3l2.2-.2c-.5 1.9-1.5 4.3-2.1 5.3l-1.4.2zM343.2 597.6c-.5.3-1.6.6-3.1.6-3.2 0-5.3-2.2-5.3-5.4 0-3.3 2.2-5.7 5.7-5.7 1.1 0 2.2.3 2.7.6l-.4 1.5c-.5-.3-1.2-.5-2.2-.5-2.4 0-3.8 1.8-3.8 4 0 2.5 1.6 4 3.7 4 1.1 0 1.8-.3 2.4-.5l.3 1.4zM355 592.5c0 3.9-2.7 5.7-5.3 5.7-2.9 0-5.1-2.1-5.1-5.5 0-3.6 2.3-5.7 5.3-5.7 3 .1 5.1 2.3 5.1 5.5zm-8.5.1c0 2.3 1.3 4.1 3.2 4.1 1.8 0 3.2-1.7 3.2-4.1 0-1.8-.9-4.1-3.2-4.1-2.2 0-3.2 2.1-3.2 4.1zM357.4 590.2c0-1.1 0-2-.1-2.9h1.7l.1 1.8c.5-1 1.8-2 3.5-2 1.5 0 3.8.9 3.8 4.5v6.4h-1.9v-6.1c0-1.7-.6-3.1-2.5-3.1-1.3 0-2.3.9-2.6 2-.1.2-.1.6-.1.9v6.4h-1.9v-7.9zM369.4 596c.6.4 1.6.8 2.6.8 1.4 0 2.1-.7 2.1-1.6 0-.9-.5-1.4-2-2-1.9-.7-2.8-1.7-2.8-3 0-1.7 1.4-3.1 3.7-3.1 1.1 0 2 .3 2.6.7l-.5 1.4c-.4-.3-1.2-.6-2.2-.6-1.1 0-1.8.7-1.8 1.5 0 .9.6 1.3 2 1.8 1.8.7 2.8 1.6 2.8 3.2 0 1.9-1.5 3.2-4 3.2-1.2 0-2.2-.3-3-.7l.5-1.6zM379.4 593c0 2.6 1.7 3.7 3.7 3.7 1.4 0 2.2-.2 2.9-.5l.3 1.4c-.7.3-1.9.7-3.5.7-3.3 0-5.2-2.2-5.2-5.4s1.9-5.7 5-5.7c3.5 0 4.4 3.1 4.4 5 0 .4 0 .7-.1.9h-7.5zm5.7-1.4c0-1.2-.5-3.1-2.7-3.1-2 0-2.8 1.8-3 3.1h5.7zM397 597.6c-.5.3-1.6.6-3.1.6-3.2 0-5.3-2.2-5.3-5.4 0-3.3 2.2-5.7 5.7-5.7 1.1 0 2.2.3 2.7.6l-.4 1.5c-.5-.3-1.2-.5-2.2-.5-2.4 0-3.8 1.8-3.8 4 0 2.5 1.6 4 3.7 4 1.1 0 1.8-.3 2.4-.5l.3 1.4zM401.8 584.2v3.1h2.8v1.5h-2.8v5.7c0 1.3.4 2.1 1.5 2.1.5 0 .9-.1 1.1-.1l.1 1.5c-.4.2-1 .3-1.7.3-.9 0-1.6-.3-2.1-.8-.6-.6-.7-1.5-.7-2.8v-5.8h-1.7v-1.5h1.7v-2.6l1.8-.6zM407.7 593c0 2.6 1.7 3.7 3.7 3.7 1.4 0 2.2-.2 2.9-.5l.3 1.4c-.7.3-1.9.7-3.5.7-3.3 0-5.2-2.2-5.2-5.4s1.9-5.7 5-5.7c3.5 0 4.4 3.1 4.4 5 0 .4 0 .7-.1.9h-7.5zm5.7-1.4c0-1.2-.5-3.1-2.7-3.1-2 0-2.8 1.8-3 3.1h5.7zM420 584.2v3.1h2.8v1.5H420v5.7c0 1.3.4 2.1 1.5 2.1.5 0 .9-.1 1.1-.1l.1 1.5c-.4.2-1 .3-1.7.3-.9 0-1.6-.3-2.1-.8-.6-.6-.7-1.5-.7-2.8v-5.8h-1.7v-1.5h1.7v-2.6l1.8-.6zM433.9 595c0 1.1 0 2.1.1 2.9h-1.7l-.1-1.7c-.5.9-1.6 2-3.5 2-1.7 0-3.7-.9-3.7-4.7v-6.2h1.9v5.9c0 2 .6 3.4 2.4 3.4 1.3 0 2.2-.9 2.6-1.8.1-.3.2-.6.2-1v-6.5h1.9v7.7zM437.1 590.6c0-1.3 0-2.3-.1-3.3h1.7l.1 2.1h.1c.5-1.4 1.7-2.3 3-2.3.2 0 .4 0 .5.1v1.8c-.2 0-.4-.1-.7-.1-1.4 0-2.3 1-2.6 2.5 0 .3-.1.6-.1.9v5.7h-1.9v-7.4zM81 624.4l-.2-1.3h-.1c-.6.8-1.7 1.6-3.3 1.6-2.2 0-3.3-1.5-3.3-3.1 0-2.6 2.3-4 6.4-4v-.2c0-.9-.2-2.5-2.4-2.5-1 0-2 .3-2.8.8l-.4-1.3c.9-.6 2.2-.9 3.5-.9 3.3 0 4.1 2.2 4.1 4.4v4c0 .9 0 1.8.2 2.6H81zm-.3-5.5c-2.1 0-4.5.3-4.5 2.4 0 1.2.8 1.8 1.8 1.8 1.4 0 2.3-.9 2.6-1.8.1-.2.1-.4.1-.6v-1.8zM94.9 608.7v12.9c0 .9 0 2 .1 2.8h-1.7l-.1-1.8c-.6 1.2-1.9 2.1-3.6 2.1-2.6 0-4.6-2.2-4.6-5.4 0-3.5 2.2-5.7 4.8-5.7 1.6 0 2.7.8 3.2 1.6v-6.4h1.9zM93 618c0-.2 0-.6-.1-.8-.3-1.2-1.3-2.2-2.8-2.2-2 0-3.2 1.8-3.2 4.1 0 2.2 1.1 3.9 3.1 3.9 1.3 0 2.5-.9 2.8-2.3.1-.3.1-.5.1-.8V618zM100.3 610.7c0 .7-.5 1.2-1.2 1.2s-1.2-.5-1.2-1.2.5-1.2 1.2-1.2 1.2.5 1.2 1.2zm-2.2 13.7v-10.7h1.9v10.7h-1.9zM103.3 617.2c0-1.4 0-2.5-.1-3.5h1.7l.1 1.8c.8-1.3 2-2.1 3.8-2.1 2.6 0 4.5 2.2 4.5 5.4 0 3.8-2.3 5.7-4.8 5.7-1.4 0-2.6-.6-3.3-1.7v5.8h-1.9v-11.4zm1.9 2.8c0 .3 0 .6.1.8.4 1.3 1.5 2.3 2.9 2.3 2 0 3.2-1.7 3.2-4.1 0-2.1-1.1-4-3.2-4-1.3 0-2.6.9-2.9 2.4-.1.2-.1.5-.1.8v1.8zM118 610.7c0 .7-.5 1.2-1.2 1.2s-1.2-.5-1.2-1.2.5-1.2 1.2-1.2 1.2.5 1.2 1.2zm-2.2 13.7v-10.7h1.9v10.7h-1.9zM120.7 622.4c.6.4 1.6.8 2.6.8 1.4 0 2.1-.7 2.1-1.6 0-.9-.5-1.4-2-2-1.9-.7-2.8-1.7-2.8-3 0-1.7 1.4-3.1 3.7-3.1 1.1 0 2 .3 2.6.7l-.5 1.4c-.4-.3-1.2-.6-2.2-.6-1.1 0-1.8.7-1.8 1.5 0 .9.6 1.3 2 1.8 1.8.7 2.8 1.6 2.8 3.2 0 1.9-1.5 3.2-4 3.2-1.2 0-2.2-.3-3-.7l.5-1.6zM137.3 624c-.5.3-1.6.6-3.1.6-3.2 0-5.3-2.2-5.3-5.4 0-3.3 2.2-5.7 5.7-5.7 1.1 0 2.2.3 2.7.6l-.4 1.5c-.5-.3-1.2-.5-2.2-.5-2.4 0-3.8 1.8-3.8 4 0 2.5 1.6 4 3.7 4 1.1 0 1.8-.3 2.4-.5l.3 1.4zM141.7 610.7c0 .7-.5 1.2-1.2 1.2s-1.2-.5-1.2-1.2.5-1.2 1.2-1.2 1.2.5 1.2 1.2zm-2.2 13.7v-10.7h1.9v10.7h-1.9zM144.7 616.6c0-1.1 0-2-.1-2.9h1.7l.1 1.8c.5-1 1.8-2 3.5-2 1.5 0 3.8.9 3.8 4.5v6.4h-1.9v-6.1c0-1.7-.6-3.1-2.5-3.1-1.3 0-2.3.9-2.6 2-.1.2-.1.6-.1.9v6.4h-1.9v-7.9zM166.1 613.7c0 .8-.1 1.6-.1 2.9v6.2c0 2.4-.5 3.9-1.5 4.9-1 1-2.5 1.3-3.9 1.3-1.3 0-2.7-.3-3.5-.9l.5-1.5c.7.4 1.8.8 3.1.8 2 0 3.4-1 3.4-3.7v-1.2c-.6 1-1.7 1.8-3.4 1.8-2.6 0-4.5-2.2-4.5-5.2 0-3.6 2.4-5.7 4.8-5.7 1.8 0 2.9 1 3.3 1.9l.1-1.6h1.7zm-2 4.2c0-.3 0-.6-.1-.9-.4-1.1-1.3-2-2.7-2-1.8 0-3.2 1.6-3.2 4 0 2.1 1.1 3.8 3.1 3.8 1.2 0 2.3-.7 2.7-2 .1-.3.2-.7.2-1v-1.9zM174.9 619.4c0 2.6 1.7 3.7 3.7 3.7 1.4 0 2.2-.2 2.9-.5l.3 1.4c-.7.3-1.8.7-3.5.7-3.3 0-5.2-2.2-5.2-5.4s1.9-5.7 5-5.7c3.5 0 4.4 3.1 4.4 5 0 .4 0 .7-.1.9h-7.5zm5.7-1.4c0-1.2-.5-3.1-2.7-3.1-2 0-2.8 1.8-3 3.1h5.7zM184.9 608.7h1.9v15.6h-1.9v-15.6zM192.2 610.7c0 .7-.5 1.2-1.2 1.2s-1.2-.5-1.2-1.2.5-1.2 1.2-1.2c.8 0 1.2.5 1.2 1.2zm-2.1 13.7v-10.7h1.9v10.7h-1.9zM197.5 610.6v3.1h2.8v1.5h-2.8v5.7c0 1.3.4 2.1 1.5 2.1.5 0 .9-.1 1.1-.1l.1 1.5c-.4.2-1 .3-1.7.3-.9 0-1.6-.3-2.1-.8-.6-.6-.7-1.5-.7-2.8v-5.8H194v-1.5h1.7v-2.6l1.8-.6zM201.2 627.1c.5-1.3 1.1-3.7 1.3-5.3l2.2-.2c-.5 1.9-1.5 4.3-2.1 5.3l-1.4.2zM211.4 622.4c.6.4 1.6.8 2.6.8 1.4 0 2.1-.7 2.1-1.6 0-.9-.5-1.4-2-2-1.9-.7-2.8-1.7-2.8-3 0-1.7 1.4-3.1 3.7-3.1 1.1 0 2 .3 2.6.7l-.5 1.4c-.4-.3-1.2-.6-2.2-.6-1.1 0-1.8.7-1.8 1.5 0 .9.6 1.3 2 1.8 1.8.7 2.8 1.6 2.8 3.2 0 1.9-1.5 3.2-4 3.2-1.2 0-2.2-.3-3-.7l.5-1.6zM221.4 619.4c0 2.6 1.7 3.7 3.7 3.7 1.4 0 2.2-.2 3-.5l.3 1.4c-.7.3-1.8.7-3.5.7-3.3 0-5.2-2.2-5.2-5.4s1.9-5.7 5-5.7c3.5 0 4.4 3.1 4.4 5 0 .4 0 .7-.1.9h-7.6zm5.7-1.4c0-1.2-.5-3.1-2.7-3.1-2 0-2.8 1.8-3 3.1h5.7zM240.6 608.7v12.9c0 .9 0 2 .1 2.8H239l-.1-1.8c-.6 1.2-1.9 2.1-3.6 2.1-2.6 0-4.6-2.2-4.6-5.4 0-3.5 2.2-5.7 4.8-5.7 1.6 0 2.7.8 3.2 1.6v-6.4h1.9zm-2 9.3c0-.2 0-.6-.1-.8-.3-1.2-1.3-2.2-2.8-2.2-2 0-3.2 1.8-3.2 4.1 0 2.2 1.1 3.9 3.1 3.9 1.3 0 2.5-.9 2.8-2.3.1-.3.1-.5.1-.8V618zM257.7 608.7v12.9c0 .9 0 2 .1 2.8H256l-.1-1.8c-.6 1.2-1.9 2.1-3.6 2.1-2.6 0-4.6-2.2-4.6-5.4 0-3.5 2.2-5.7 4.8-5.7 1.6 0 2.7.8 3.2 1.6v-6.4h2zm-2 9.3c0-.2 0-.6-.1-.8-.3-1.2-1.3-2.2-2.8-2.2-2 0-3.2 1.8-3.2 4.1 0 2.2 1.1 3.9 3.1 3.9 1.3 0 2.5-.9 2.8-2.3.1-.3.1-.5.1-.8V618zM270.5 618.9c0 3.9-2.7 5.7-5.3 5.7-2.9 0-5.1-2.1-5.1-5.5 0-3.6 2.3-5.7 5.3-5.7 3 .1 5.1 2.3 5.1 5.5zm-8.5.1c0 2.3 1.3 4.1 3.2 4.1 1.9 0 3.2-1.7 3.2-4.1 0-1.8-.9-4.1-3.2-4.1S262 617 262 619zM278.7 619.4c0 2.6 1.7 3.7 3.7 3.7 1.4 0 2.2-.2 2.9-.5l.3 1.4c-.7.3-1.9.7-3.5.7-3.3 0-5.2-2.2-5.2-5.4s1.9-5.7 5-5.7c3.5 0 4.4 3.1 4.4 5 0 .4 0 .7-.1.9h-7.5zm5.7-1.4c0-1.2-.5-3.1-2.7-3.1-2 0-2.8 1.8-3 3.1h5.7zM290.8 610.7c0 .7-.5 1.2-1.2 1.2s-1.2-.5-1.2-1.2.5-1.2 1.2-1.2 1.2.5 1.2 1.2zm-2.2 13.7v-10.7h1.9v10.7h-1.9zM302.7 621.4c0 1.1 0 2.1.1 2.9h-1.7l-.1-1.7c-.5.9-1.6 2-3.5 2-1.7 0-3.7-.9-3.7-4.7v-6.2h1.9v5.9c0 2 .6 3.4 2.4 3.4 1.3 0 2.2-.9 2.6-1.8.1-.3.2-.6.2-1v-6.5h1.9v7.7zM305.6 622.4c.6.4 1.6.8 2.6.8 1.4 0 2.1-.7 2.1-1.6 0-.9-.6-1.4-2-2-1.9-.7-2.8-1.7-2.8-3 0-1.7 1.4-3.1 3.7-3.1 1.1 0 2 .3 2.6.7l-.5 1.4c-.4-.3-1.2-.6-2.2-.6-1.1 0-1.8.7-1.8 1.5 0 .9.6 1.3 2 1.8 1.8.7 2.8 1.6 2.8 3.2 0 1.9-1.5 3.2-4 3.2-1.2 0-2.2-.3-3-.7l.5-1.6zM314.6 616.6c0-1.1 0-2-.1-2.9h1.7l.1 1.7h.1c.6-1 1.6-2 3.3-2 1.5 0 2.6.9 3 2.1.3-.6.7-1.1 1.2-1.4.6-.5 1.3-.7 2.4-.7 1.4 0 3.5.9 3.5 4.6v6.3h-1.9v-6c0-2-.7-3.3-2.3-3.3-1.1 0-2 .8-2.3 1.8-.1.3-.2.6-.2 1v6.6h-1.9V618c0-1.7-.7-2.9-2.2-2.9-1.2 0-2.1 1-2.4 1.9-.1.3-.2.6-.2.9v6.4h-1.9v-7.7zM342.6 618.9c0 3.9-2.7 5.7-5.3 5.7-2.9 0-5.1-2.1-5.1-5.5 0-3.6 2.3-5.7 5.3-5.7 3 .1 5.1 2.3 5.1 5.5zm-8.5.1c0 2.3 1.3 4.1 3.2 4.1 1.8 0 3.2-1.7 3.2-4.1 0-1.8-.9-4.1-3.2-4.1-2.2 0-3.2 2.1-3.2 4.1zM354.2 608.7v12.9c0 .9 0 2 .1 2.8h-1.7l-.1-1.8c-.6 1.2-1.9 2.1-3.6 2.1-2.6 0-4.6-2.2-4.6-5.4 0-3.5 2.2-5.7 4.8-5.7 1.6 0 2.7.8 3.2 1.6v-6.4h1.9zm-1.9 9.3c0-.2 0-.6-.1-.8-.3-1.2-1.3-2.2-2.8-2.2-2 0-3.2 1.8-3.2 4.1 0 2.2 1.1 3.9 3.1 3.9 1.3 0 2.5-.9 2.8-2.3.1-.3.1-.5.1-.8V618zM364.4 610.6v3.1h2.8v1.5h-2.8v5.7c0 1.3.4 2.1 1.4 2.1.5 0 .9-.1 1.1-.1l.1 1.5c-.4.2-1 .3-1.7.3-.9 0-1.6-.3-2.1-.8-.6-.6-.7-1.5-.7-2.8v-5.8h-1.7v-1.5h1.7v-2.6l1.9-.6zM370.3 619.4c0 2.6 1.7 3.7 3.7 3.7 1.4 0 2.2-.2 3-.5l.3 1.4c-.7.3-1.8.7-3.5.7-3.3 0-5.2-2.2-5.2-5.4s1.9-5.7 5-5.7c3.5 0 4.4 3.1 4.4 5 0 .4 0 .7-.1.9h-7.6zm5.7-1.4c0-1.2-.5-3.1-2.7-3.1-2 0-2.8 1.8-3 3.1h5.7zM380.3 616.6c0-1.1 0-2-.1-2.9h1.7l.1 1.7h.1c.6-1 1.6-2 3.3-2 1.5 0 2.6.9 3 2.1.3-.6.7-1.1 1.2-1.4.6-.5 1.3-.7 2.4-.7 1.4 0 3.5.9 3.5 4.6v6.3h-1.9v-6c0-2-.7-3.3-2.3-3.3-1.1 0-2 .8-2.3 1.8-.1.3-.2.6-.2 1v6.6h-1.9V618c0-1.7-.7-2.9-2.2-2.9-1.2 0-2.1 1-2.4 1.9-.1.3-.2.6-.2.9v6.4h-1.9v-7.7zM398.6 617.2c0-1.4 0-2.5-.1-3.5h1.7l.1 1.8c.8-1.3 2-2.1 3.8-2.1 2.6 0 4.5 2.2 4.5 5.4 0 3.8-2.3 5.7-4.8 5.7-1.4 0-2.6-.6-3.3-1.7v5.8h-1.9v-11.4zm1.9 2.8c0 .3 0 .6.1.8.4 1.3 1.5 2.3 2.9 2.3 2 0 3.2-1.7 3.2-4.1 0-2.1-1.1-4-3.2-4-1.3 0-2.6.9-2.9 2.4-.1.2-.1.5-.1.8v1.8zM420.8 618.9c0 3.9-2.7 5.7-5.3 5.7-2.9 0-5.1-2.1-5.1-5.5 0-3.6 2.3-5.7 5.3-5.7 3 .1 5.1 2.3 5.1 5.5zm-8.5.1c0 2.3 1.3 4.1 3.2 4.1 1.8 0 3.2-1.7 3.2-4.1 0-1.8-.9-4.1-3.2-4.1-2.2 0-3.2 2.1-3.2 4.1zM423.2 617c0-1.3 0-2.3-.1-3.3h1.7l.1 2.1h.1c.5-1.4 1.7-2.3 3-2.3.2 0 .4 0 .5.1v1.8c-.2 0-.4-.1-.7-.1-1.4 0-2.3 1-2.6 2.5 0 .3-.1.6-.1.9v5.7h-1.9V617z"/></g></svg>