<svg version="1.1" id="Layer_1" xmlns="http://www.w3.org/2000/svg" x="0" y="0" width="510" height="710" xml:space="preserve"><style>.st3{fill:#403d2a}.st4{fill:#374149}.st5,.st6,.st7{fill:#6f9ea9}.st6,.st7{opacity:.55}.st7{opacity:.75}.st8{fill:#c8ced4}.st9{fill:#747c86}.st10{fill:#413e3e}.st12{opacity:.65;fill:#cececf}.st13{fill:#cfdfd6}.st16{opacity:.55;fill:#7e8c9b}.st17{fill:#b8c0c8}.st18{fill:#7e8c9b}.st19{fill:#34383a}.st20{fill:#595d5f}.st21{fill:#999b9d}.st23{fill:#686b6d}.st24{fill:#44484a}.st25{fill:#3d4244}.st28{fill:#212c35}.st29{opacity:.75;fill:#848a8f}.st38{fill:#61696f}.st39{fill:#68665e}.st40{fill:#333024}.st41{fill:#8f8f8e}.st42{fill:#b9d7d7}.st44{fill:#787878}.st45{fill:#575858}</style><path id="XMLID_236_" fill="#e5e5e5" d="M30 17.5h450v675H30z"/><path id="XMLID_235_" d="M112.2 244.3l89.1 16.7s14.4 4.7 52-1.3c12.6-2 36.4-35.5 51.1-40l79.4 40.4-70.3 71.7-4.1 47.1L421 329.6l-3.7 90.8-282 272.1H30v-365l82.2-83.2z" opacity=".75" fill="#acacac"/><linearGradient id="XMLID_238_" gradientUnits="userSpaceOnUse" x1="290.882" y1="403.993" x2="202.393" y2="513.129"><stop offset="0" stop-color="#f8e9d2"/><stop offset=".139" stop-color="#efc584"/><stop offset=".232" stop-color="#efc182"/><stop offset=".345" stop-color="#efb77d"/><stop offset=".468" stop-color="#eea575"/><stop offset=".503" stop-color="#eea073"/><stop offset=".61" stop-color="#d58d6b"/><stop offset=".819" stop-color="#a2695b"/><stop offset="1" stop-color="#784b4b"/></linearGradient><path id="XMLID_234_" d="M317.9 483.5c1.4 0 2.7-.9 3.2-2.2l9.3-25.4c.8-2.2-.8-4.5-3.1-4.5l-170.4-2.8c-2.3 0-4 2.3-3.2 4.5l9.9 28.2c.5 1.4 1.7 2.3 3.2 2.3h8.8l6.7 14-4.2 3.2h14.2l-3.7-4.9 5.7-12.2h102.4l6 13-5.1 4.2H312l-3.7-4.2 6.5-13h3.1z" opacity=".62" fill="url(#XMLID_238_)"/><path id="XMLID_233_" class="st3" d="M298.8 217.4s-29.9 34-47.7 38.7c-17.9 4.7-56.3 8.1-80.9-8.2l-2.6 4.5s47.7 21.3 83.2 10c22.7-7.2 48.6-42.2 48.6-42.2l-.6-2.8z"/><path id="XMLID_232_" class="st4" d="M173.9 480.1l8.3 17.4-4.1 3.1h14.2l-3.7-4.8 7.3-15.7z"/><path id="XMLID_231_" class="st4" d="M295.1 480.1l7.6 16.4-5.2 4.1H312l-3.7-4.1 7.8-15.7z"/><path id="XMLID_230_" class="st4" d="M153.7 453.1l9.9 28.2c.5 1.4 1.7 2.3 3.2 2.3H318c1.4 0 2.7-.9 3.2-2.2l9.3-25.4c.8-2.2-.8-4.5-3.1-4.5L157 448.7c-2.4-.2-4.1 2.1-3.3 4.4z"/><path id="XMLID_229_" class="st4" d="M176 441.3l1.9 7.6h14.5l1.9-7.6z"/><path id="XMLID_228_" class="st4" d="M280.6 441.3l3.9 9.4h12.9l2.9-10.3z"/><path id="XMLID_227_" class="st5" d="M170.5 427.4l-9.3 16h148.3l-6.6-14.7 24.7-101.4h-98l-8.1 25-64.6 1.1z"/><path id="XMLID_226_" class="st6" d="M225.7 355.9l9.4-28.6h-5.5l-8.1 25-6 .1-1.1 3.5z"/><path id="XMLID_225_" class="st6" d="M206.2 386.4l-33-1.1-.8 2.5 6.1 31.9h25.1l1.9-1.7.7-31.6z"/><path id="XMLID_224_" class="st6" d="M318.1 366.6c-16.4 10.9-39.2 15.4-58.2 19.5-31.4 6.8-63 10.3-94.8 11.7l5.4 29.6-9.3 15.9h148.4l-6.6-14.7 15.1-62z"/><path id="XMLID_223_" class="st6" d="M273 428.9l1.9-22.8.4-23.4c-5.3 1.2-10.5 2.3-15.5 3.4-11.3 2.4-22.6 4.4-33.9 6.1l.2 13.9-6.6 22.8H273z"/><path id="XMLID_222_" class="st6" d="M276.4 403.5c9.2 6.4 18.7 12.3 28.4 17.8l13.3-54.7c-16.4 10.9-39.2 15.4-58.2 19.5-1.2.3-2.4.5-3.6.7 6.6 5.8 13.1 11.9 20.1 16.7z"/><path id="XMLID_221_" class="st5" d="M169.6 428.9l-8.4 14.5h148.3l-6.5-14.5z"/><path id="XMLID_220_" class="st7" d="M252.9 443.4h10.6c-1.9-4.8-3.7-9.6-5.3-14.4h-4.6c-.2 4.7-.5 9.5-.7 14.4z"/><path id="XMLID_219_" class="st7" d="M225.7 428.9l-5.7 14.4h12.5c.4-4.8.8-9.6 1.4-14.4h-8.2z"/><path id="XMLID_218_" class="st7" d="M215.8 428.9l-4.1 14.5h3.1l2.9-14.5z"/><path id="XMLID_217_" class="st6" d="M273.5 327.3c-6.5 11.7-8.6 22.4-1.4 25.6 5.7 2.5 11.8 1.3 14.4-3 1-1.6 11.2-22.6 11.2-22.6h-24.2z"/><path id="XMLID_216_" class="st6" d="M206.2 352.7l-23.5.2c4.2 7 8.1 13.6 9.5 16.3 3.7 6.8 9.2 8.2 15 5.7 6.7-3 5.6-9.6 4.3-12-.4-.7-2.5-4.8-5.3-10.2z"/><path id="XMLID_215_" class="st8" d="M300.6 280.2c-3 6-10.5 21-15.9 32.6-7 14.9-20.2 31.6-11.2 36.4 9 4.8 10.7 0 13.2-4.2 2.2-3.5 24.5-46.4 31.7-60.3-6.5-.3-12.8-1-17.8-4.5z"/><path id="XMLID_214_" class="st9" d="M292.9 308.4c4.9-.9 9.7-1.7 14.6-2.8 4.4-8.5 8.5-16.3 10.9-21-6.5-.2-12.8-1-17.8-4.4-2.8 5.5-9.3 18.6-14.5 29.7 2.2-.6 4.5-1.1 6.8-1.5z"/><path id="XMLID_213_" class="st8" d="M185 315.7s20.9 40.6 22.2 43c1.3 2.4 6.1 8.6 0 12.9-6.1 4.2-10.3 0-14-6.8-3.7-6.8-23.1-38.9-23.1-38.9l14.9-10.2z"/><path id="XMLID_212_" class="st9" d="M193.9 333c-4.7-9.2-8.9-17.3-8.9-17.3l-14.9 10.2s6.9 11.4 13.2 22c1.7-6.2 5-11.4 10.6-14.9z"/><path id="XMLID_211_" class="st3" d="M363.3 251.7s-30 40.8-38.1 54.3c-10.7 17.9-19.6 34.3-19.6 34.3h3.2s23-42.6 29.1-48.2c6.1-5.6 26.9-39.4 26.9-39.4l-1.5-1z"/><path id="XMLID_210_" class="st3" d="M177.6 369.7l-51.2-65.2h-3.7l51.9 66.9z"/><path id="XMLID_209_" class="st10" d="M369.3 221.8s-5.9-21.3-24.2-25c-20.5-4.1-43.1-3.4-52.6 31.6s36.8 64 64.9 37.2c21.9-21 11.9-43.8 11.9-43.8z"/><path id="XMLID_208_" class="st10" d="M171.2 248.7s-17.1-14.9-43.6 0c-26.4 14.9-14.2 58.5 6.9 65.9 21.1 7.3 43.3.5 50.7-18.1 7.3-18.7-1.5-39.5-14-47.8z"/><linearGradient id="SVGID_1_" gradientUnits="userSpaceOnUse" x1="301.2" y1="280.803" x2="360.409" y2="190.767"><stop offset=".037" stop-color="#6e93b1"/><stop offset=".358" stop-color="#85a7bf"/><stop offset="1" stop-color="#c3c8d8"/></linearGradient><path d="M383.2 208.1s-22.9-35.3-64.8-27.4c-41.9 7.8-64.2 59.4-28.5 95.5 20.8 21 51 19.9 74.9 4.9 11.8-7.4 18.8-17.3 22.9-30.5 4.4-14.4 3.6-29.7-4.5-42.5zm-101.4 16.8c3.3-13.4 12.4-7.3 15.2-5.9 2.8 1.4 12.4 6.3 12.3 12.4 0 0-1.7 5.4-11 6.1-9.3.8-19.8.8-16.5-12.6zm32.4 37.8c-2.5 7.9-6.8 17.4-17 9.3-10.2-8-1.2-14 .9-15.7 2.1-1.7 9.4-7.7 14.6-5.1 0 0 4 3.6 1.5 11.5zm13.6-47.6s-5.3.6-9.4-7.2c-4.2-7.7-8.1-16.7 4.7-18.9 12.8-2.2 11 7.9 10.8 10.8-.2 3-.7 13.1-6.1 15.3zm12.6 67.1c-12.9.5-9.8-9.2-9.2-12.1.6-2.9 2.4-12.8 7.9-14.2 0 0 5.2.1 8.4 8.3 3.1 8.1 5.8 17.5-7.1 18zm8.1-62.5s-3.3-4.1 1-11.8c4.3-7.7 10.8-16.6 19.5-7 8.7 9.6-1.8 14.3-4.4 15.7-2.6 1.5-11.4 6.4-16.1 3.1zm30.6 28.2c-4.1 12.3-13.4 5.4-15.9 3.8-2.5-1.6-11.1-6.8-10.5-12.6 0 0 2-4.9 10.8-4.9s19.8 1.4 15.6 13.7z" fill="url(#SVGID_1_)"/><path id="XMLID_200_" class="st12" d="M342.9 180.9c-2.6 8.2-17.4 44.9-23 54.6-2.9 5-5.7 10.2-8.4 15.3.4.1.8.2 1.2.4 0 0 3.9 3.5 1.5 11.5-2.3 7.4-6.2 16.1-15 10.7-1.4 2.4-2.8 4.8-4.2 7.1 3 2.3 6.1 4.3 9.3 5.9 6.6-14.9 13.5-29.6 20.5-44.3 7.1-14.9 14.9-29.6 20.4-45.2 1.7-4.7 3.3-9.4 5.2-14-2.4-.8-4.9-1.5-7.5-2z"/><path id="XMLID_199_" class="st12" d="M383.2 208.1s-1.1-1.7-3.2-4.1c-3.3 10.2-6.7 20.5-10.3 30.6 6.8.9 12.6 3.8 9.4 13.3-4.1 12.3-13.4 5.4-15.9 3.8 0 0-.1-.1-.2-.1-5.4 12.9-12 25.4-17.9 38.1 6.8-1.8 13.4-4.7 19.7-8.6 11.8-7.4 18.8-17.3 22.9-30.5 4.4-14.4 3.6-29.7-4.5-42.5z"/><path id="XMLID_198_" class="st13" d="M383.2 208.1s-22.9-35.3-64.8-27.4c-13.6 2.5-25.2 9.7-33.3 19.5 7.8-7.7 18.2-12.6 29.7-15.6 42.2-10.8 65.2 24.6 65.2 24.6 8.1 12.9 8.5 31 4.1 45.3-2.3 7.5-5.5 13.9-10 19.4 6.4-6.3 10.8-14 13.6-23.3 4.4-14.4 3.6-29.7-4.5-42.5z"/><linearGradient id="SVGID_2_" gradientUnits="userSpaceOnUse" x1="123.383" y1="323.092" x2="177.67" y2="240.438"><stop offset=".037" stop-color="#6e93b1"/><stop offset=".358" stop-color="#85a7bf"/><stop offset="1" stop-color="#c3c8d8"/></linearGradient><path d="M200.4 254.2s-21.6-34.6-61.2-26.9c-39.6 7.7-60.6 58.3-26.9 93.6 20.5 21.4 50.6 18.3 73.3 2.5 21.1-14.7 28.1-47.2 14.8-69.2zm-95.5 8.7c3.8-12.9 12.5-5.5 15.2-3.6 2.7 1.8 11.8 8 11.5 14 0 0-1.9 5-10.9 4.5-9.3-.5-19.6-2-15.8-14.9zm30.1 41.7c-2.7 7.4-7.2 16.1-16.8 7-9.6-9.2-.6-13.8 1.5-15.2 2.2-1.4 9.5-6.3 14.3-3.1.1-.1 3.7 3.9 1 11.3zm6.4-53c-3.7-8.3-7.1-17.8 5.3-18 12.4-.2 10.2 9.5 9.9 12.3-.3 2.9-1.3 12.7-6.5 14.1 0 0-5-.2-8.7-8.4zm17.8 75.1c-12.2-1-8.9-10-8.2-12.7.7-2.7 2.8-12 8.1-12.8 0 0 4.9.8 7.5 9 2.6 8.3 4.7 17.6-7.4 16.5zm11.8-70.6c4.4-6.8 10.9-14.6 18.6-3.9 7.6 10.5-2.4 13.6-4.8 14.6-2.5 1-11 4.6-15.3.7 0 0-2.9-4.5 1.5-11.4zm25.8 42.6c-4.4 11.2-12.6 3.4-14.8 1.6-2.3-1.8-10.1-8-9.3-13.5 0 0 2.1-4.4 10.3-3.3 8.2 1.2 18.2 4 13.8 15.2z" fill="url(#SVGID_2_)"/><path id="XMLID_190_" d="M120.8 328c3.1-4.7 6-9.5 9-14.2-2.7 2.4-6.4 2.7-11.5-2.2-2.3-2.2-3.5-4.1-4-5.8-2.3 3.1-4.5 6.2-6.9 9.3 1.5 2 3.1 3.9 4.9 5.8 2.7 2.8 5.5 5.1 8.5 7.1z" opacity=".55" fill="#cececf"/><path id="XMLID_189_" class="st12" d="M134.1 293.2s3.6 4 .9 11.4c-.2.5-.3.9-.5 1.4 2.6-4.3 5.1-8.6 7.7-12.9 8.5-14.2 17.3-28.1 26.4-42 3.6-5.5 6.5-11.6 9.9-17.3-3.9-2.2-8.2-4.2-13-5.6-3 4.3-5.9 8.6-8.7 12.9.1 1.9-.2 3.7-.3 4.7-.3 2.9-1.3 12.7-6.5 14.1 0 0-1.7-.1-3.9-1.8-5.5 8.9-11 17.8-17 26.5l-7.2 10.2c3.4-1.7 8.5-4 12.2-1.6z"/><path id="XMLID_188_" class="st12" d="M200.4 254.2s-.2-.3-.5-.8c-4.7 10.3-9.7 20.5-14.9 30.5 7.7 1.3 15.9 4.5 11.9 14.8-4.4 11.2-12.6 3.4-14.8 1.6-.8-.7-2.4-1.9-4-3.5-3.3 6-6.7 12-10.1 17.9 1.5 6.3 1.2 12.1-7.1 12-1.7 2.9-3.4 5.7-5.2 8.6 10.4-1.5 20.8-5.7 30-12 21-14.6 28-47.1 14.7-69.1z"/><path id="XMLID_187_" class="st13" d="M135.4 231.5c41.3-9.7 61.7 24.2 61.7 24.2 11 18.2 7.7 46.1-5.4 62.6 16.3-16.1 20.7-44.3 8.7-64.2 0 0-21.6-34.6-61.2-26.9-12.8 2.5-23.7 9.5-31.4 19 7.3-7.3 16.8-12.2 27.6-14.7z"/><path id="XMLID_186_" class="st3" d="M299.7 337.4l1.6 9h7.6l3-9z"/><path id="XMLID_185_" class="st3" d="M169 367.2l2.4 9.4h10.4l2.3-9.9z"/><ellipse id="XMLID_184_" class="st16" cx="280.3" cy="340.2" rx="4.1" ry="4.1"/><ellipse id="XMLID_183_" class="st17" cx="280.7" cy="339.5" rx="4.1" ry="4.1"/><path id="XMLID_182_" class="st18" d="M282.9 337.5c0 1.4-.9 2.8-2.7 2.8-1.1 0-1.9-.5-2.4-1.2v.4c0 1.6 1.3 2.9 3 2.9 1.6 0 3-1.3 3-2.9-.1-.8-.4-1.5-.9-2z"/><ellipse id="XMLID_181_" class="st16" cx="201" cy="361.9" rx="4.1" ry="4.1"/><ellipse id="XMLID_180_" class="st17" cx="201.4" cy="361.2" rx="4.1" ry="4.1"/><path id="XMLID_179_" class="st18" d="M203.5 359.3c0 1.4-.9 2.8-2.7 2.8-1.1 0-1.9-.5-2.4-1.2v.4c0 1.6 1.3 2.9 3 2.9 1.6 0 3-1.3 3-2.9-.1-.8-.4-1.5-.9-2z"/><path id="XMLID_178_" class="st19" d="M271.1 373.2l20-1.5v14.7l-19-1.1z"/><path id="XMLID_177_" class="st20" d="M226.1 353.9v52.2h48.8l1.3-50.5z"/><path id="XMLID_176_" class="st21" d="M226.1 353.9v.8l48 2.8.2 48.6h.6l1.3-50.5z"/><path id="XMLID_175_" fill="#87898b" d="M231.8 361.2v38.6h36.5v-36.9z"/><path id="XMLID_174_" class="st19" d="M249.1 362l-17.3-.8v38.6h20.9c-1.1-12.5-3.6-37.8-3.6-37.8z"/><ellipse id="XMLID_173_" class="st23" cx="241.3" cy="376.9" rx="6" ry="5.6"/><path id="XMLID_172_" class="st24" d="M244.4 373.6c-1 1.2-1.9 2.3-2.9 3.4s-2 2.3-3 3.4c.8.7 1.9 1.1 3.1 1.1 2.6 0 4.7-2 4.7-4.4-.1-1.5-.8-2.7-1.9-3.5z"/><ellipse id="XMLID_171_" class="st23" cx="241.8" cy="390.3" rx="6" ry="5.6"/><path id="XMLID_170_" class="st24" d="M244.9 387c-1 1.2-1.9 2.3-2.9 3.4s-2 2.3-3 3.4c.8.7 1.9 1.1 3.1 1.1 2.6 0 4.7-2 4.7-4.4 0-1.5-.8-2.7-1.9-3.5z"/><path id="XMLID_169_" class="st20" d="M173.2 385.3l6.3 32.7h26l1.7-33.3z"/><path id="XMLID_168_" class="st21" d="M173.2 385.3l.2.8 32.5-.2-1.3 32.1h.9l1.7-33.3z"/><path id="XMLID_167_" class="st25" d="M202.5 394.6l.2-5.6-25.1.5 1 5.1z"/><path id="XMLID_166_" class="st25" d="M202.1 401.5l.2-3.9h-23.1l.7 3.9z"/><path id="XMLID_165_" class="st25" d="M201.8 408.1l.2-4h-21.6l.8 4z"/><path id="XMLID_164_" class="st25" d="M181.6 410.2l.6 3.5h19.3l.2-3.5z"/><path id="XMLID_163_" class="st4" d="M212.3 415.3l1.1 6.2h43.2l1.6-6.2z"/><ellipse id="XMLID_162_" class="st4" cx="270.3" cy="418.8" rx="5.2" ry="5.1"/><ellipse id="XMLID_161_" class="st4" cx="285.9" cy="418.8" rx="5.2" ry="5.1"/><path id="XMLID_160_" class="st4" d="M227 318.1l-11.4 34.8h8.4l9.4-33.2z"/><ellipse id="XMLID_159_" cx="231.7" cy="313.5" rx="8" ry="7.9" fill="#7b8590"/><ellipse id="XMLID_158_" class="st4" cx="231.7" cy="313.5" rx="5.4" ry="5.3"/><path id="XMLID_157_" class="st4" d="M351.3 355.4h-59.1s-11.9 20.4.9 40.6h59.7l-1.5-40.6z"/><path id="XMLID_156_" fill="#141f28" d="M296.2 364l1.5 13.5 29.1.7.8-13.8z"/><path id="XMLID_155_" class="st4" d="M299.5 366l1.2 9.8 23 .5.6-10.1z"/><path id="XMLID_154_" class="st28" d="M304.5 366l-5-.1.6 5c1.5-1.6 3-3.2 4.4-4.9z"/><path id="XMLID_153_" class="st28" d="M308 370c1-1.2 2.1-2.6 3.3-3.9h-3c-2.4 3.1-5.2 5.8-7.8 8.8l.1 1 2.6.1c1.7-2.1 3.2-4.1 4.8-6z"/><path id="XMLID_152_" class="st28" d="M316 369.1c.7-.9 1.3-2 1.9-2.9h-2.2c-.1.1-7.9 8.7-8.8 9.8l4.3.1c1.7-2.4 3.2-4.7 4.8-7z"/><path id="XMLID_151_" class="st28" d="M323.5 366.2h-2c-1.8 2-3.3 4.7-4.7 6.9-.7 1-1.3 2-2 3l2.6.1c2.2-3.3 4.2-6.6 6.1-10z"/><path id="XMLID_150_" class="st28" d="M320.9 376.2l2.8.1.3-5.1c-1 1.7-2.1 3.4-3.1 5z"/><path id="XMLID_149_" class="st28" d="M333 352.9l1.3 44.7h18.5l-1.3-44.7z"/><path id="XMLID_148_" class="st29" d="M334.8 363.9l.1 2.7c3.9-.9 8.1-1.3 11.8-1.9 1.3-.2 2.5-.4 3.8-.6l-.1-3.9c-5.3 1.6-10.5 2.9-15.6 3.7z"/><path id="XMLID_147_" class="st29" d="M350.7 376.9l-.2-9.8c-.5.1-1 .2-1.4.2-4.5.7-9.5 1.1-14.1 2.3l.2 9.6c5.1-.7 10.3-1.4 15.5-2.3z"/><path id="XMLID_146_" fill="#515a61" d="M369.9 349.1l-18.3 7 1.1 38.8 20.4 4.9z"/><path id="XMLID_145_" d="M369.9 349.1l-3.3 1.2c.9 11.9 3 26.5-5.1 35.3-2.5 2.7-5.5 4.2-8.9 4.9l.1 4.4 20.3 4.9-3.1-50.7z" opacity=".5" fill="#515a61"/><path id="XMLID_144_" d="M414.5 406.1c-3.2-6.9-6.6-13.8-7-21.5-.4-8.9-.4-18.8 2.7-27.3 2.6-7.1 7.5-13.6 9.3-21 .3-.8.5-1.6.9-2.3.3-.8.7-1.4 1.1-2-.2-1.4-.4-2.2-.4-2.2L369 342.4l2.6 63.7 45.9 14.5s.3-.8.9-2.2c-.9-4.2-2-8.3-3.9-12.3z" fill="#424a53"/><path id="XMLID_143_" d="M407.5 384.6c-.1-1.9-.2-3.8-.2-5.8-3.2 1-6.9 1.6-11.1 1.4-9.4-.3-18-1.5-26-4.2l1.2 30.1 45.9 14.5s.3-.8.9-2.2c-.9-4.1-1.9-8.3-3.8-12.3-3.1-6.8-6.5-13.8-6.9-21.5z" fill="#232d37"/><path id="XMLID_142_" d="M417.4 420.6s11.7-29.8 11.1-44.6c-.8-17.9-7.3-46.3-7.3-46.3l-.4.1c-3.3 2.1-7.5 8.2-11.4 15.5-9.7 17.9-10 39.4-.9 57.6 4.7 9.4 8.9 17.7 8.9 17.7z" fill="#81878b"/><path id="XMLID_141_" d="M409.7 405.4c2-1.3 17.1-14.1 13.8-34.2-1.5-9.3-5-19.1-12.8-25-.4-.3-.8-.6-1.2-1v.1c-9.7 17.9-10 39.4-.9 57.6.3.9.7 1.7 1.1 2.5z" fill="#8db6d0"/><path id="XMLID_140_" d="M412.3 377.1c-5.4.4-9.4-4.2-9.9-9.2.1.9 0 .8-.2.4-1.1 9.9.2 20 3.9 29.4 8.3-2.4 14.3-10.6 13.8-24.2-1.9 2-4.3 3.4-7.6 3.6z" fill="#448097"/><ellipse id="XMLID_139_" cx="412.8" cy="361.9" rx="3.7" ry="5.2" fill="#84aaba"/><path id="XMLID_138_" class="st38" d="M400.1 353c3.2-6.7 6.7-11.1 6.7-11.1l-31.8 7.2.3 6.9c8.3-.4 16.6-1.6 24.8-3z"/><path id="XMLID_137_" class="st38" d="M389.9 365.3h6c.7-3.2 1.7-6.3 2.8-9.1-7.7 1.2-15.5 2.3-23.3 2.7l.2 6.1c4.8-.3 9.5.2 14.3.3z"/><path id="XMLID_136_" class="st38" d="M395 375.3c-.1-2.4 0-4.8.4-7.1H390c-4.7 0-9.5-.6-14.3-.3l.3 7.3h19z"/><path id="XMLID_135_" class="st38" d="M376.8 396.2l.2 6 26.8 8.8c-1.3-2.8-2.5-5.3-3.5-8.1-8-1.6-16-4.1-23.5-6.7z"/><path id="XMLID_134_" class="st38" d="M399.3 399.7c-1-3.2-1.8-7-2.7-12-6.7-.2-13.6-.6-20.2 0l.2 5.4c7.3 2.5 15 4.9 22.7 6.6z"/><path id="XMLID_133_" class="st38" d="M396.2 384.7c-.3-2-.6-4.1-.9-6.5h-19.1l.2 6.5c6.4-.6 13.2-.2 19.8 0z"/><ellipse id="XMLID_132_" class="st39" cx="332.1" cy="236.2" rx="16.2" ry="14.4"/><path id="XMLID_131_" class="st40" d="M319.9 241.5c-1.9-3.6-1.4-10.7.2-15.1-2.7 2.6-4.3 6-4.3 9.8 0 8 7.2 14.4 16.2 14.4 4 0 7.7-1.3 10.5-3.5-8.9 2.6-18.5 2-22.6-5.6z"/><ellipse id="XMLID_130_" class="st41" cx="331.3" cy="236.5" rx="9.1" ry="7.8"/><path id="XMLID_129_" class="st42" d="M331.3 229.7c-2.4 0-4.5.9-6 2.4 1-.6 2.2-1 3.7-1 6.2 0 8.6 6.4 6.8 10.7 1.9-1.2 3.2-3.2 3.2-5.4 0-3.6-3.5-6.7-7.7-6.7z"/><ellipse id="XMLID_128_" class="st39" cx="151.3" cy="281.3" rx="16.2" ry="14.4"/><path id="XMLID_127_" class="st40" d="M146.4 292.4c-8.3-3.7-10.4-12.6-7.6-20.2-2.3 2.5-3.6 5.7-3.6 9.1 0 8 7.2 14.4 16.2 14.4 3.2 0 6.1-.8 8.6-2.2-4.1.5-10 .5-13.6-1.1z"/><ellipse id="XMLID_126_" class="st41" cx="150.5" cy="281.6" rx="9.1" ry="7.8"/><path id="XMLID_125_" class="st42" d="M150.5 274.8c-2.4 0-4.5.9-6 2.4 1-.6 2.2-1 3.7-1 6.2 0 8.6 6.4 6.8 10.7 1.9-1.2 3.2-3.2 3.2-5.4.1-3.7-3.4-6.7-7.7-6.7z"/><linearGradient id="SVGID_3_" gradientUnits="userSpaceOnUse" x1="393.596" y1="171.891" x2="177.275" y2="438.687"><stop offset="0" stop-color="#faf2e4"/><stop offset=".139" stop-color="#f4d9af"/><stop offset=".214" stop-color="#f4d5aa"/><stop offset=".306" stop-color="#f3ca9d"/><stop offset=".405" stop-color="#f1b78a"/><stop offset=".503" stop-color="#eea073"/><stop offset=".61" stop-color="#d58d6b"/><stop offset=".819" stop-color="#a2695b"/><stop offset="1" stop-color="#784b4b"/></linearGradient><path d="M112.3 320.8c10 10.5 22.3 15.1 34.9 15.2l13.4 17.3-3.7.1 13.6 74.1-9.3 15.9h15.3l1.4 5.6h14.4l1.4-5.6H281.4l3 7.3h12.9l2.1-7.3h10.1l-6.6-14.7 1.8-7.4 6.2-25.3h23.3v1.7h18.5V395l18.5 4.5.3 6.7 45.9 14.5s.3-.8.9-2.2v-.1c2.7-7.3 10.7-30 10.2-42.3-.8-17.9-7.3-46.3-7.3-46.3L369 342.4l.3 6.9-17.6 6.7-.1-3.2H333l.1 2.5h-12.3l6.9-28.1H316c7.3-13 18.1-31.7 22-35.3.3-.2.5-.5.9-.9 9-1.5 17.9-5 26.1-10.1 3-1.8 5.6-3.9 8-6 2.1-1.9 3.9-3.9 5.6-6.1l.2-.2c1.3-1.7 2.5-3.4 3.5-5.3.1-.1.2-.3.2-.4.2-.4.4-.7.6-1.1.3-.5.5-.9.7-1.4.1-.1.1-.2.2-.4.4-.8.8-1.7 1.2-2.6 0-.1.1-.2.1-.3.1-.2.1-.3.2-.5.3-.8.7-1.6 1-2.5.1-.3.2-.5.3-.8.4-1 .7-2 1-3.1 1.6-5.4 2.6-10.9 2.6-16.3 0-1.8 0-3.6-.2-5.4-.2-1.8-.4-3.6-.8-5.4-1.1-5.3-3.1-10.5-6.1-15.3 0 0-11.4-17.6-33-25.2-8.9-3.1-19.5-4.5-31.8-2.2-1.2.2-2.3.5-3.4.8-.3.1-.5.1-.8.2-1.1.3-2.2.6-3.3 1-.1 0-.2.1-.3.1-1 .3-2 .7-2.9 1.1-.3.1-.5.2-.8.3-1 .4-2 .9-3 1.4l-.6.3c-.8.4-1.7.9-2.5 1.3-.2.1-.5.3-.7.4-.9.5-1.8 1.1-2.7 1.7-.2.2-.5.3-.7.5l-2.1 1.5c-.2.2-.5.3-.7.5-.8.6-1.6 1.3-2.4 1.9-.2.2-.5.4-.7.7-.6.5-1.2 1.1-1.8 1.7l-.6.6c-.7.7-1.4 1.4-2.1 2.2-.2.3-.5.5-.7.8l-.6.6.1-.1c-9.9 11.7-14.8 27.2-12.6 42.9-7.5 6.2-15.3 11.5-21.6 13.2-11 2.9-29.6 5.3-48.1 2.9-.1-.3-.3-.6-.4-.9-.1-.1-.1-.3-.2-.4-.6-1.2-1.2-2.4-1.9-3.5-.2-.3-10.9-17.2-31-24.6-.2-.1-.3-.1-.5-.2-8.3-3-18.3-4.3-29.7-2.1-1.1.2-2.2.5-3.2.7-.3.1-.5.1-.8.2-1 .3-2.1.6-3.1.9-.2.1-.3.1-.5.2-.8.3-1.7.6-2.5 1-.3.1-.6.3-.9.4-.9.4-1.8.8-2.6 1.2-.3.2-.7.4-1 .5-.6.3-1.1.6-1.7.9-.4.2-.8.5-1.2.7-.7.4-1.4.9-2.1 1.4-.5.3-.9.7-1.4 1-.3.2-.6.4-.9.7-1.6 1.2-3.2 2.6-4.7 4l-.3.3c-19.2 18.6-24.3 51-2.6 76.5.8 1.1 1.7 2.1 2.6 3zm17.5-7c-1.5 1.3-3.3 2-5.5 1.4-.2-.1-.4-.1-.7-.2h-.1l-.6-.3c-.1 0-.1-.1-.2-.1l-.6-.3c-.1 0-.2-.1-.2-.1-.2-.1-.4-.2-.6-.4-.1-.1-.2-.1-.3-.2-.2-.1-.4-.3-.6-.4-.1-.1-.2-.1-.3-.2-.2-.2-.4-.3-.6-.5-.1-.1-.2-.1-.3-.2-.3-.3-.6-.5-.9-.8-.6-.5-1.1-1.1-1.5-1.6-1.3-1.5-2.1-2.9-2.5-4.2-1.2-3.8 1.2-6.4 3.4-8 2.5 5.1 5.8 9.5 9.7 12.7l2.5 3.3-.1.1zm55.1-47.1c-1.4-3.6-3.2-6.9-5.3-9.8 3.6 1.2 7.9 2.5 12.7 3.8-1.1 3.9-5.8 5.4-7.4 6zm-34.7 50.8c6.3.1 12.2-1 17.5-3.3.1.2.1.4.2.6.1.2.1.4.1.7.1.2.1.5.1.7 0 .2.1.5.1.7 0 .2.1.4.1.6 0 .2.1.5.1.7v2.3c0 .2 0 .5-.1.7 0 .1 0 .3-.1.4 0 .2-.1.5-.1.7 0 .1 0 .2-.1.2-.2.8-.6 1.5-1.1 2.1l-.1.1c-.2.2-.4.4-.6.5l-.1.1c-.7.5-1.6.9-2.7 1.2h-.1c-.4.1-.7.1-1.1.2h-.3c-.4 0-.8.1-1.3.1s-1 0-1.6-.1c-8.6-.7-9.3-5.6-8.8-9.2zm37.8-13.3c-2.1-.7-4-2.2-5.2-3.2.9-1.4 1.7-2.9 2.3-4.6 1.6-4 2.4-8 2.6-12 1.3.3 2.5.7 3.7 1.2.2.1.4.1.5.2.2.1.5.2.7.3l.6.3c.2.1.4.2.6.4.2.1.4.3.6.4.2.1.3.3.5.4.2.1.4.3.5.5l.4.4c.2.2.3.4.5.5.1.2.2.3.3.5.1.2.3.4.4.6.1.2.2.3.3.5.1.2.2.5.2.7.1.2.1.4.2.6.1.3.1.5.1.8 0 .2.1.4.1.6v1.5c0 .4-.1.8-.2 1.2 0 .2-.1.4-.1.6-.2.6-.4 1.3-.6 1.9-1 2.4-2.1 4-3.3 4.9-.3.3-.7.5-1.1.6-1.6.8-3.1.7-4.6.2zm-13-53.4c4-4.3 9-6.4 14.6 1.4 1.3 1.8 2.1 3.5 2.5 4.9-6-1.5-11.8-3.5-17.1-6.3zm-18.1-9.6v1.4c-5-.9-11.2-.8-18.4 1.4-1.5-5.6-.5-10.3 8.2-10.4 8.1-.1 10 4 10.2 7.6zm-5.8 94.7c7.4-.4 14.8-2.4 21.8-5.5.5.9 1.1 1.8 1.7 2.8.1.1.2.3.2.4.5.8 1 1.7 1.6 2.6.1.1.1.2.2.3.4.7.9 1.5 1.4 2.3.1.2.3.4.4.7.2.3.4.7.6 1 .2.3.3.5.5.8.2.3.3.5.5.8.2.4.5.8.7 1.2.2.3.3.5.5.8.2.3.4.6.5.9.2.3.4.7.6 1 .3.4.5.9.8 1.3 1.1 1.9 2.2 3.7 3.3 5.5l-21.7.4-13.6-17.3zm172-146.9c8.5-1.5 10.5 2.5 10.9 6.2-6.7-.5-13.4.1-19.5 2.7-.5-4.1 1.3-7.6 8.6-8.9zm45.9 12c7 7.8 1.5 12.3-2.2 14.5-2.3-4.6-6.2-10.7-12.4-14.8 3.9-4.3 8.7-6.2 14.6.3zm-28.6 81.2c-7.5.3-9.6-2.9-9.9-6.1 6.1.2 12.3-1.1 18.1-4.2-2.4 3.3-4.9 6.8-7.3 10.2-.3.1-.6.1-.9.1zm-49.3-44.5c-2.1-.1-4-.4-5.6-1.2 2.5-2.7 4.8-5.2 6.7-7.5-.7 3-1.1 5.9-1.1 8.7zm6 19.5c3.5 5.3 8.3 9.9 13.9 13.1-2.5 4.1-6.1 6.6-11.8 3.1-.6-.4-1.3-.8-1.9-1.4-9-7-3.2-12.4-.2-14.8zm28.1 48.8c-4.6 7.8-9 15.3-12.4 21.3H296c6.2-11.8 14.1-26.9 19.2-36.8 6.3 1.5 12.8 1.9 19.3 1.2-3.9 5.8-7.3 10.9-9.3 14.3zm24.8-30.2c-.3 2.1-1.3 3.8-3.3 4.9 1-1.5 2.1-3.2 3.3-4.9zm16.6-22.1c3.8-6.9 4.9-13.4 4.9-18.8.2 0 .4.1.6.1.1 0 .2 0 .2.1.6.1 1.1.3 1.7.5.2.1.3.1.5.2l.6.3.6.3.6.3c.2.1.4.3.6.4.1.1.3.2.4.3.3.2.6.5.8.8l.3.3c.2.2.3.4.5.7.1.1.2.3.2.4.1.3.3.5.4.8 0 .1.1.2.1.4.1.4.2.9.3 1.3v2c0 .4-.1.8-.2 1.3 0 .2-.1.4-.1.6-.1.6-.3 1.3-.5 2-3 8.8-8.7 7.6-12.5 5.7zm-84.8-28.8c2.9-12 10.5-8.4 14-6.5-.5 1.2-1 2.5-1.5 3.8-2.9 3.1-7.1 7.4-11.9 11.9-1.3-1.9-1.7-4.9-.6-9.2zm-31 37.5c7.6-2.4 15.6-8 22.9-14.3 2.4 9.7 7.6 19.3 16.3 28 2.8 2.9 5.9 5.3 9 7.4-.1.2-.2.5-.4.7-.2.4-.4.7-.6 1.1-.1.1-.1.2-.2.4-.2.5-.5 1-.7 1.5 0 .1-.1.1-.1.2-.3.6-.6 1.1-.9 1.7-3.5 7-7.9 16.1-11.5 23.7-2.3 4.8-5.2 9.8-7.7 14.5H231.2l1.7-6c3.8-.6 6.6-3.9 6.6-7.8 0-4.4-3.6-7.9-8-7.9s-8 3.5-8 7.9c0 2.4 1.1 4.5 2.8 6l-10.7 32.9h-.3l-11.5.2c-2.7-5.2-6.6-12.8-10.2-19.7-.1-.3-.3-.5-.4-.8-.7-1.3-1.3-2.6-2-3.8-.2-.3-.3-.6-.5-.9-1.1-2.1-2.1-4.1-3-5.8 1.1-.8 2.1-1.7 3-2.7 0 0 .1-.1.2-.1 3.2-3.1 6-6.7 8.3-10.6 0 0 0-.1.1-.1.5-.8 1-1.7 1.4-2.5 0-.1.1-.2.2-.3.2-.3.3-.6.4-.9 0-.1.1-.1.1-.2.6-1.3 1.2-2.6 1.7-3.9v-.1c1-2.7 1.9-5.4 2.5-8.3v-.1c.3-1.3.5-2.7.7-4.1 0-.1 0-.3.1-.4.2-1.3.3-2.6.4-4v-.5c.1-1.3.1-2.6.1-4v-.4c-.1-2.7-.3-5.5-.8-8.1 0-.1 0-.3-.1-.4-.2-1.3-.5-2.5-.8-3.8-.1-.2-.1-.4-.2-.6-.2-.8-.4-1.6-.7-2.3 15 3 31.8 3.9 46.5-.8zm-145.9.5c3-10.3 9.2-7.6 12.9-5.2-3.7 5.6-5.3 12.2-5.3 19.1-5.9-1.4-10.2-4.8-7.6-13.9z" opacity=".62" fill="url(#SVGID_3_)"/><g><g id="XMLID_1482_"><g id="XMLID_1609_"><path id="XMLID_1654_" class="st44" d="M242.9 612.7h1.3v-4.6h-1.3v-1.4h5.4c3 0 5.2 1.1 5.2 3.7s-2 3.8-5 3.8H243v-1.5zm5.6 0c1.8 0 2.3-.7 2.3-2.3 0-1.5-.6-2.3-2.4-2.3h-1.7v4.6h1.8z"/><path id="XMLID_1652_" class="st44" d="M254.4 606.7h5.1v1.4h-1.3v3.4c0 .9.6 1.3 2 1.3 1.1 0 2.1 0 2.1-1.3v-3.4H261v-1.4h4.5v1.4h-1.3v3.7c0 1.1-.9 2.6-4.1 2.6-3.1 0-4.5-1.5-4.5-2.6v-3.7h-1.3v-1.4z"/><path id="XMLID_1650_" class="st44" d="M266.5 612.7h1.3v-4.6h-1.3v-1.4h5.1v1.4h-1.3v4.6h1.3v1.5h-5.1v-1.5z"/><path id="XMLID_1648_" class="st44" d="M275.2 608.7c0 .3.4.4.9.4 2 .4 5.3 0 5.3 2.9 0 1.5-1.4 2.4-4.4 2.4-1.2 0-2.2-.2-2.8-.5v.3h-1.7v-3h1.7v.4c0 1 1.8 1.2 3.1 1.2.7 0 1.7-.2 1.7-.7 0-.7-1-.6-2.9-.8-.9-.1-3.4-.6-3.4-2.4 0-2 2.3-2.6 4-2.6 1.1 0 2.4.4 3 .8v-.6h1.7v2.9h-1.7v-.4c0-.8-1.6-1.1-2.7-1.1-1.3.1-1.8.2-1.8.8z"/><path id="XMLID_1645_" class="st44" d="M285.1 612.7h1.5l3.7-6h1.8l3.4 6h1v1.5H292v-1.5h.6l-.3-.5h-3.2l-.3.5h.7v1.5H285v-1.5zm6.5-1.9l-.8-1.5-.9 1.5h1.7z"/><path id="XMLID_1643_" class="st44" d="M297.2 606.7h5.1v1.4H301v3.4c0 .9.6 1.3 2 1.3 1.1 0 2.1 0 2.1-1.3v-3.4h-1.3v-1.4h4.5v1.4H307v3.7c0 1.1-.9 2.6-4.1 2.6-3.1 0-4.5-1.5-4.5-2.6v-3.7h-1.3v-1.4z"/><path id="XMLID_1641_" class="st44" d="M309.3 606.7H320v2.9h-1.7v-1.5h-2.4v4.6h1.6v1.5h-5.6v-1.5h1.6v-4.6H311v1.5h-1.7v-2.9z"/><path id="XMLID_1639_" class="st44" d="M320.9 612.7h1.3v-4.6h-1.3v-1.4h9.4v2.9h-1.7v-1.5h-4v1.6h2.8v1.4h-2.8v1.6h4v-1.4h1.7v2.9h-9.4v-1.5z"/><path id="XMLID_1636_" class="st44" d="M343.1 608.7c0 1.4-1.1 1.9-2.3 2.1.3.2 1.4.3 1.4 1.3 0 .5 0 1.1.6 1.1.4 0 .5-.2.5-.7v-.1h.8v.8c0 .9-1.3 1.2-2 1.2-1.4 0-2.6-.2-2.6-1.9 0-1.3-.6-1.5-1.5-1.5h-.6v1.7h1.3v1.5h-5.1v-1.5h1.2v-4.6h-1.3v-1.4h5.8c2.5 0 3.8.4 3.8 2zm-4.5 1.1c1.8 0 2-.2 2-.8 0-.8-.5-.8-1.1-.8h-2v1.6h1.1z"/><path id="XMLID_1634_" class="st44" d="M344.9 612.7h1.3v-4.6h-1.3v-1.4h9.4v2.9h-1.7v-1.5h-4v1.6h2.8v1.4h-2.8v1.6h4v-1.4h1.7v2.9h-9.4v-1.5z"/><path id="XMLID_1631_" class="st44" d="M364.7 608.7c0 2-2.4 2.3-4.6 2.3H359v1.7h1.4v1.5h-5.1v-1.5h1.2v-4.6h-1.3v-1.4h5.8c2 0 3.7.3 3.7 2zm-4.6 1.1c1.8 0 2-.2 2-.8 0-.8-.5-.8-1.1-.8h-2v1.6h1.1z"/><path id="XMLID_1628_" class="st44" d="M375 608.7c0 1.4-1.1 1.9-2.3 2.1.3.2 1.4.3 1.4 1.3 0 .5 0 1.1.6 1.1.4 0 .5-.2.5-.7v-.1h.8v.8c0 .9-1.3 1.2-2 1.2-1.4 0-2.6-.2-2.6-1.9 0-1.3-.6-1.5-1.5-1.5h-.6v1.7h1.3v1.5h-5.1v-1.5h1.2v-4.6h-1.3v-1.4h5.8c2.5 0 3.8.4 3.8 2zm-4.5 1.1c1.8 0 2-.2 2-.8 0-.8-.5-.8-1.1-.8h-2v1.6h1.1z"/><path id="XMLID_1626_" class="st44" d="M376.8 612.7h1.3v-4.6h-1.3v-1.4h9.4v2.9h-1.7v-1.5h-4v1.6h2.7v1.4h-2.7v1.6h4v-1.4h1.7v2.9h-9.4v-1.5z"/><path id="XMLID_1624_" class="st44" d="M387.2 612.7h1.3v-4.6h-1.3v-1.4h5.1v1.4H391v1.6h4.2v-1.6h-1.3v-1.4h5.1v1.4h-1.3v4.6h1.3v1.5h-5.1v-1.5h1.3v-1.6H391v1.6h1.3v1.5h-5.1v-1.5z"/><path id="XMLID_1622_" class="st44" d="M399.8 612.7h1.3v-4.6h-1.3v-1.4h9.4v2.9h-1.7v-1.5h-4v1.6h2.8v1.4h-2.8v1.6h4v-1.4h1.7v2.9h-9.4v-1.5z"/><path id="XMLID_1620_" class="st44" d="M410.2 612.7h1.3v-4.6h-1.3v-1.4h3.7l4.3 3.9v-2.5h-1.3v-1.4h4.5v1.4H420v6.1h-1.6l-5.1-4.6v3.1h1.3v1.5h-4.5v-1.5z"/><path id="XMLID_1617_" class="st44" d="M422.3 612.7h1.3v-4.6h-1.3v-1.4h5.4c3 0 5.2 1.1 5.2 3.7s-2 3.8-5 3.8h-5.5v-1.5zm5.6 0c1.8 0 2.3-.7 2.3-2.3 0-1.5-.6-2.3-2.4-2.3h-1.7v4.6h1.8z"/><path id="XMLID_1615_" class="st44" d="M433.8 612.7h1.3v-4.6h-1.3v-1.4h9.4v2.9h-1.7v-1.5h-4v1.6h2.7v1.4h-2.7v1.6h4v-1.4h1.7v2.9h-9.4v-1.5z"/><path id="XMLID_1612_" class="st44" d="M453.6 608.7c0 1.4-1.1 1.9-2.3 2.1.3.2 1.4.3 1.4 1.3 0 .5 0 1.1.6 1.1.4 0 .5-.2.5-.7v-.1h.8v.8c0 .9-1.3 1.2-2 1.2-1.4 0-2.6-.2-2.6-1.9 0-1.3-.6-1.5-1.5-1.5h-.5v1.7h1.4v1.5h-5.1v-1.5h1.2v-4.6h-1.3v-1.4h5.8c2.3 0 3.6.4 3.6 2zm-4.5 1.1c1.8 0 2-.2 2-.8 0-.8-.5-.8-1.1-.8h-2v1.6h1.1z"/><path id="XMLID_1610_" class="st44" d="M455.4 612.7h1.3v-4.6h-1.3v-1.4h5.1v1.4h-1.3v4.6h1.3v1.5h-5.1v-1.5z"/></g><g id="XMLID_1563_"><path id="XMLID_1606_" class="st44" d="M241.6 627.2h1.3v-4.6h-1.3v-1.4h5.4c3 0 5.2 1.1 5.2 3.7s-2 3.8-5 3.8h-5.5v-1.5zm5.6 0c1.8 0 2.3-.7 2.3-2.3 0-1.5-.6-2.3-2.4-2.3h-1.7v4.6h1.8z"/><path id="XMLID_1603_" class="st44" d="M258.9 621c3.4 0 6 1.3 6 3.9 0 2.8-2.3 3.9-6 3.9s-6-1.1-6-3.9c0-2.6 2.6-3.9 6-3.9zm0 6.4c1.9 0 3.1-.8 3.1-2.5 0-1.6-1.3-2.4-3.1-2.4s-3.1.7-3.1 2.4 1.4 2.5 3.1 2.5z"/><path id="XMLID_1601_" class="st44" d="M265.7 627.2h1.3v-4.6h-1.3v-1.4h5.1v1.4h-1.3v4.6h4v-1.4h1.7v2.9h-9.4v-1.5z"/><path id="XMLID_1598_" class="st44" d="M281.8 621c3.4 0 6 1.3 6 3.9 0 2.8-2.3 3.9-6 3.9s-6-1.1-6-3.9c0-2.6 2.7-3.9 6-3.9zm0 6.4c1.9 0 3.1-.8 3.1-2.5 0-1.6-1.3-2.4-3.1-2.4s-3.1.7-3.1 2.4 1.5 2.5 3.1 2.5z"/><path id="XMLID_1595_" class="st44" d="M298 623.2c0 1.4-1.1 1.9-2.3 2.1.3.2 1.4.3 1.4 1.3 0 .5 0 1.1.6 1.1.4 0 .5-.2.5-.7v-.1h.8v.8c0 .9-1.3 1.2-2 1.2-1.4 0-2.6-.2-2.6-1.9 0-1.3-.6-1.5-1.5-1.5h-.6v1.7h1.4v1.5h-5.1v-1.5h1.2v-4.6h-1.3v-1.4h5.8c2.3 0 3.7.4 3.7 2zm-4.5 1c1.8 0 2-.2 2-.8 0-.8-.5-.8-1.1-.8h-2v1.6h1.1z"/><path id="XMLID_1593_" class="st44" d="M299.7 627.2h1.3v-4.6h-1.3v-1.4h9.4v2.9h-1.7v-1.5h-4v1.6h2.7v1.4h-2.7v1.6h4v-1.4h1.7v2.9h-9.4v-1.5z"/><path id="XMLID_1591_" class="st44" d="M312.5 627.2h1.3v-4.6h-1.3v-1.4h9.4v2.9h-1.7v-1.5h-4v1.6h2.8v1.4h-2.8v1.6h1.3v1.5h-5.1v-1.5z"/><path id="XMLID_1589_" class="st44" d="M322.9 621.2h5.1v1.4h-1.3v3.4c0 .9.6 1.3 2 1.3 1.1 0 2.1 0 2.1-1.3v-3.4h-1.3v-1.4h4.5v1.4h-1.3v3.7c0 1.1-.9 2.6-4.1 2.6-3.1 0-4.5-1.5-4.5-2.6v-3.7h-1.3v-1.4z"/><path id="XMLID_1587_" class="st44" d="M340.8 621c1.2 0 2.6.4 3.3.9v-.7h1.7v3.6h-1.7v-.4c0-1-1.5-1.8-3.1-1.8-1.8 0-3.2.7-3.2 2.4s1.5 2.5 3.2 2.5c1.2 0 2.1-.3 2.4-.9h-1.5v-1.4h4.1v3.6h-1.4l-.4-.6c-.8.5-1.9.8-3.1.8-3.7 0-6.1-1-6.1-3.9-.2-2.8 2.4-4.1 5.8-4.1z"/><path id="XMLID_1585_" class="st44" d="M346.5 627.2h1.3v-4.6h-1.3v-1.4h5.1v1.4h-1.3v4.6h1.3v1.5h-5.1v-1.5z"/><path id="XMLID_1582_" class="st44" d="M352.8 627.2h1.5l3.7-6h1.8l3.4 6h1v1.5h-4.5v-1.5h.6l-.3-.5h-3.2l-.3.5h.7v1.5h-4.5v-1.5zm6.5-1.9l-.8-1.5-.9 1.5h1.7z"/><path id="XMLID_1580_" class="st44" d="M364.9 621.2h10.6v2.9h-1.7v-1.5h-2.4v4.6h1.6v1.5h-5.6v-1.5h1.6v-4.6h-2.4v1.5h-1.7v-2.9z"/><path id="XMLID_1578_" class="st44" d="M378.9 627.2h1.3v-4.6h-1.3v-1.4h3.7l4.3 3.9v-2.5h-1.3v-1.4h4.5v1.4h-1.3v6.1h-1.6l-5.1-4.6v3.1h1.3v1.5h-4.5v-1.5z"/><path id="XMLID_1576_" class="st44" d="M391 621.2h5.1v1.4h-1.3v3.4c0 .9.6 1.3 2 1.3 1.1 0 2.1 0 2.1-1.3v-3.4h-1.3v-1.4h4.5v1.4h-1.3v3.7c0 1.1-.9 2.6-4.1 2.6-3.1 0-4.5-1.5-4.5-2.6v-3.7H391v-1.4z"/><path id="XMLID_1574_" class="st44" d="M403.1 627.2h1.3v-4.6h-1.3v-1.4h5.1v1.4h-1.3v4.6h4v-1.4h1.7v2.9h-9.4v-1.5z"/><path id="XMLID_1572_" class="st44" d="M413.5 627.2h1.3v-4.6h-1.3v-1.4h5.1v1.4h-1.3v4.6h4v-1.4h1.7v2.9h-9.4v-1.5z"/><path id="XMLID_1569_" class="st44" d="M424.1 627.2h1.5l3.7-6h1.8l3.4 6h1v1.5H431v-1.5h.6l-.3-.5h-3.2l-.3.5h.7v1.5H424v-1.5zm6.6-1.9l-.8-1.5-.9 1.5h1.7z"/><path id="XMLID_1567_" class="st44" d="M438.7 627.2h1.3v-4.6h-1.3v-1.4h5.1v1.4h-1.3v4.6h4v-1.4h1.7v2.9h-9.4v-1.5z"/><path id="XMLID_1564_" class="st44" d="M454.9 621c3.4 0 6 1.3 6 3.9 0 2.8-2.3 3.9-6 3.9s-6-1.1-6-3.9c0-2.6 2.6-3.9 6-3.9zm0 6.4c1.9 0 3.1-.8 3.1-2.5 0-1.6-1.3-2.4-3.1-2.4s-3.1.7-3.1 2.4 1.4 2.5 3.1 2.5z"/></g><g id="XMLID_1515_"><path id="XMLID_1560_" class="st44" d="M254 637.7c0 2-2.4 2.3-4.6 2.3h-1.1v1.7h1.4v1.5h-5.1v-1.5h1.2v-4.6h-1.3v-1.4h5.8c2 0 3.7.2 3.7 2zm-4.5 1c1.8 0 2-.2 2-.8 0-.8-.5-.8-1.1-.8h-2v1.6h1.1z"/><path id="XMLID_1557_" class="st44" d="M255.2 641.7h1.5l3.7-6h1.8l3.4 6h1v1.5h-4.5v-1.5h.6l-.3-.5h-3.2l-.3.5h.7v1.5h-4.5v-1.5zm6.6-1.9l-.8-1.5-.9 1.5h1.7z"/><path id="XMLID_1554_" class="st44" d="M276.8 637.7c0 1.4-1.1 1.9-2.3 2.1.3.2 1.4.3 1.4 1.3 0 .5 0 1.1.6 1.1.4 0 .5-.2.5-.7v-.1h.8v.8c0 .9-1.3 1.2-2 1.2-1.4 0-2.6-.2-2.6-1.9 0-1.3-.6-1.5-1.5-1.5h-.6v1.7h1.4v1.5h-5.1v-1.5h1.2v-4.6h-1.3v-1.4h5.8c2.3 0 3.7.4 3.7 2zm-4.6 1c1.8 0 2-.2 2-.8 0-.8-.5-.8-1.1-.8h-2v1.6h1.1z"/><path id="XMLID_1552_" class="st44" d="M278.5 641.7h1.3v-4.6h-1.3v-1.4h5.1v1.4h-1.3v4.6h1.3v1.5h-5.1v-1.5z"/><path id="XMLID_1549_" class="st44" d="M284.7 641.7h1.5l3.7-6h1.8l3.4 6h1v1.5h-4.5v-1.5h.6l-.3-.5h-3.2l-.3.5h.7v1.5h-4.5v-1.5zm6.6-1.9l-.8-1.5-.9 1.5h1.7z"/><path id="XMLID_1547_" class="st44" d="M296.9 635.7h10.6v2.9h-1.7v-1.5h-2.4v4.6h1.6v1.5h-5.6v-1.5h1.6v-4.6h-2.4v1.5h-1.7v-2.9z"/><path id="XMLID_1545_" class="st44" d="M308.5 635.7h5.1v1.4h-1.3v3.4c0 .9.6 1.3 2 1.3 1.1 0 2.1 0 2.1-1.3v-3.4h-1.3v-1.4h4.5v1.4h-1.3v3.7c0 1.1-.9 2.6-4.1 2.6-3.1 0-4.5-1.5-4.5-2.6v-3.7h-1.3v-1.4z"/><path id="XMLID_1542_" class="st44" d="M330 637.7c0 1.4-1.1 1.9-2.3 2.1.3.2 1.4.3 1.4 1.3 0 .5 0 1.1.6 1.1.4 0 .5-.2.5-.7v-.1h.8v.8c0 .9-1.3 1.2-2 1.2-1.4 0-2.6-.2-2.6-1.9 0-1.3-.6-1.5-1.5-1.5h-.6v1.7h1.4v1.5h-5.1v-1.5h1.2v-4.6h-1.3v-1.4h5.8c2.3 0 3.7.4 3.7 2zm-4.5 1c1.8 0 2-.2 2-.8 0-.8-.5-.8-1.1-.8h-2v1.6h1.1z"/><path id="XMLID_1540_" class="st44" d="M334.1 641.7h1.3v-4.6h-1.3v-1.4h9.4v2.9h-1.7v-1.5h-4v1.6h2.7v1.4h-2.7v1.6h4v-1.4h1.7v2.9h-9.4v-1.5z"/><path id="XMLID_1538_" class="st44" d="M344.2 641.8h1.5l2.7-2.3-3-2.4h-1v-1.4h4.3v1.4h-.3l1.7 1.4 1.7-1.4h-.6v-1.4h4.3v1.4H354l-2.6 2.2 3.4 2.5h1v1.4H351v-1.4h.3l-1.8-1.4-1.5 1.4h.7v1.4h-4.5v-1.4z"/><path id="XMLID_1536_" class="st44" d="M362.1 635.5c1.2 0 2.4.4 3.1.9v-.7h1.7v3.6h-1.7v-.4c0-1-1.5-1.8-3.1-1.8-1.8 0-3.1.7-3.1 2.4s1.4 2.5 3.1 2.5c1.5 0 2.7-.5 3.1-1.7h1.7c0 1.2-1.1 3.1-4.9 3.1-3.7 0-6-1.1-6-3.9.1-2.7 2.8-4 6.1-4z"/><path id="XMLID_1534_" class="st44" d="M367.7 641.7h1.3v-4.6h-1.3v-1.4h9.4v2.9h-1.7v-1.5h-4v1.6h2.8v1.4h-2.8v1.6h4v-1.4h1.7v2.9h-9.4v-1.5z"/><path id="XMLID_1531_" class="st44" d="M387.5 637.7c0 2-2.4 2.3-4.6 2.3h-1.1v1.7h1.4v1.5h-5.1v-1.5h1.2v-4.6H378v-1.4h5.8c2 0 3.7.2 3.7 2zm-4.5 1c1.8 0 2-.2 2-.8 0-.8-.5-.8-1.1-.8h-2v1.6h1.1z"/><path id="XMLID_1529_" class="st44" d="M388.5 635.7h10.6v2.9h-1.7v-1.5H395v4.6h1.6v1.5H391v-1.5h1.6v-4.6h-2.4v1.5h-1.7v-2.9z"/><path id="XMLID_1527_" class="st44" d="M400.1 641.7h1.3v-4.6h-1.3v-1.4h9.4v2.9h-1.7v-1.5h-4v1.6h2.8v1.4h-2.8v1.6h4v-1.4h1.7v2.9h-9.4v-1.5z"/><path id="XMLID_1525_" class="st44" d="M410.5 635.7h5.1v1.4h-1.3v3.4c0 .9.6 1.3 2 1.3 1.1 0 2.1 0 2.1-1.3v-3.4h-1.3v-1.4h4.5v1.4h-1.3v3.7c0 1.1-.9 2.6-4.1 2.6-3.1 0-4.5-1.5-4.5-2.6v-3.7h-1.3v-1.4z"/><path id="XMLID_1522_" class="st44" d="M432 637.7c0 1.4-1.1 1.9-2.3 2.1.3.2 1.4.3 1.4 1.3 0 .5 0 1.1.6 1.1.4 0 .5-.2.5-.7v-.1h.8v.8c0 .9-1.3 1.2-2 1.2-1.4 0-2.6-.2-2.6-1.9 0-1.3-.6-1.5-1.5-1.5h-.6v1.7h1.3v1.5h-5.1v-1.5h1.2v-4.6h-1.3v-1.4h5.8c2.4 0 3.8.4 3.8 2zm-4.5 1c1.8 0 2-.2 2-.8 0-.8-.5-.8-1.1-.8h-2v1.6h1.1z"/><path id="XMLID_1520_" class="st44" d="M435.6 640.9c.9 0 1.8.6 1.8 1.3 0 .4-.1.8-.4 1.2-.4.5-.8.8-1.7 1.2l-.9-.8.8-.4c-.8-.1-1.4-.6-1.4-1.2.1-.7.9-1.3 1.8-1.3z"/><path id="XMLID_1518_" class="st44" d="M443.8 637.6c0 .3.4.4.9.4 2 .4 5.3 0 5.3 2.9 0 1.5-1.4 2.4-4.4 2.4-1.2 0-2.2-.2-2.8-.5v.3h-1.7v-3h1.7v.4c0 1 1.8 1.2 3.1 1.2.7 0 1.7-.2 1.7-.7 0-.7-1-.6-2.9-.8-.9-.1-3.4-.6-3.4-2.4 0-2 2.3-2.6 4-2.6 1.1 0 2.4.4 3 .8v-.6h1.7v2.9h-1.7v-.3c0-.8-1.6-1.1-2.7-1.1-1.4 0-1.8.1-1.8.7z"/><path id="XMLID_1516_" class="st44" d="M451 641.7h1.3v-4.6H451v-1.4h9.4v2.9h-1.7v-1.5h-4v1.6h2.8v1.4h-2.8v1.6h4v-1.4h1.7v2.9H451v-1.5z"/></g><g id="XMLID_1483_"><path id="XMLID_1513_" class="st44" d="M319.2 656.1h1.3v-4.6h-1.3v-1.4h9.4v2.9H327v-1.5h-4v1.6h2.8v1.4H323v1.6h1.3v1.5h-5.1v-1.5z"/><path id="XMLID_1511_" class="st44" d="M329.6 650.2h5.1v1.4h-1.3v3.4c0 .9.6 1.3 2 1.3 1.1 0 2.1 0 2.1-1.3v-3.4h-1.3v-1.4h4.5v1.4h-1.3v3.7c0 1.1-.9 2.6-4.1 2.6-3.1 0-4.5-1.5-4.5-2.6v-3.7h-1.3v-1.4z"/><path id="XMLID_1509_" class="st44" d="M347.5 649.9c1.2 0 2.6.4 3.3.9v-.7h1.7v3.6h-1.7v-.4c0-1-1.5-1.8-3.1-1.8-1.8 0-3.2.7-3.2 2.4s1.5 2.5 3.2 2.5c1.2 0 2.1-.3 2.4-.9h-1.5V654h4.1v3.6h-1.4l-.4-.6c-.8.5-1.9.8-3.1.8-3.7 0-6.1-1-6.1-3.9-.3-2.7 2.4-4 5.8-4z"/><path id="XMLID_1507_" class="st44" d="M353.2 656.1h1.3v-4.6h-1.3v-1.4h5.1v1.4H357v4.6h1.3v1.5h-5.1v-1.5z"/><path id="XMLID_1504_" class="st44" d="M359.5 656.1h1.5l3.7-6h1.8l3.4 6h1v1.5h-4.5v-1.5h.6l-.3-.5h-3.2l-.3.5h.7v1.5h-4.5v-1.5zm6.5-1.9l-.8-1.5-.9 1.5h1.7z"/><path id="XMLID_1502_" class="st44" d="M371.6 650.2h10.6v2.9h-1.7v-1.5h-2.4v4.6h1.6v1.5h-5.6v-1.5h1.6v-4.6h-2.4v1.5h-1.7v-2.9z"/><path id="XMLID_1499_" class="st44" d="M395 652.2c0 2-2.4 2.3-4.6 2.3h-1.1v1.7h1.3v1.5h-5.1v-1.5h1.2v-4.6h-1.3v-1.4h5.8c2.1 0 3.8.2 3.8 2zm-4.5 1c1.8 0 2-.2 2-.8 0-.8-.5-.8-1.1-.8h-2v1.6h1.1z"/><path id="XMLID_1496_" class="st44" d="M396.2 656.1h1.5l3.7-6h1.8l3.4 6h1v1.5h-4.5v-1.5h.6l-.3-.5h-3.2l-.3.5h.7v1.5h-4.5v-1.5zm6.6-1.9l-.8-1.5-.9 1.5h1.7z"/><path id="XMLID_1493_" class="st44" d="M417.8 652.2c0 1.4-1.1 1.9-2.3 2.1.3.2 1.4.3 1.4 1.3 0 .5 0 1.1.6 1.1.4 0 .5-.2.5-.7v-.1h.8v.8c0 .9-1.3 1.2-2 1.2-1.4 0-2.6-.2-2.6-1.9 0-1.3-.6-1.5-1.5-1.5h-.6v1.7h1.4v1.5h-5.1v-1.5h1.2v-4.6h-1.3v-1.4h5.8c2.3 0 3.7.4 3.7 2zm-4.5 1c1.8 0 2-.2 2-.8 0-.8-.5-.8-1.1-.8h-2v1.6h1.1z"/><path id="XMLID_1491_" class="st44" d="M419.5 656.1h1.3v-4.6h-1.3v-1.4h5.1v1.4h-1.3v4.6h1.3v1.5h-5.1v-1.5z"/><path id="XMLID_1488_" class="st44" d="M425.8 656.1h1.5l3.7-6h1.8l3.4 6h1v1.5h-4.5v-1.5h.6l-.3-.5h-3.2l-.3.5h.7v1.5h-4.5v-1.5zm6.5-1.9l-.8-1.5-.9 1.5h1.7z"/><path id="XMLID_1486_" class="st44" d="M437.9 650.2h10.6v2.9h-1.7v-1.5h-2.4v4.6h1.6v1.5h-5.6v-1.5h1.6v-4.6h-2.4v1.5h-1.7v-2.9z"/><path id="XMLID_1484_" class="st44" d="M449.5 650.2h5.1v1.4h-1.3v3.4c0 .9.6 1.3 2 1.3 1.1 0 2.1 0 2.1-1.3v-3.4h-1.3v-1.4h4.5v1.4h-1.3v3.7c0 1.1-.9 2.6-4.1 2.6-3.1 0-4.5-1.5-4.5-2.6v-3.7h-1.3v-1.4z"/></g></g></g><g><path id="XMLID_7_" class="st45" d="M252.4 137.7l-6 26.5-8.7 2.9-11.1-20.9 3.5 33.2 25.9-8.5z"/><path id="XMLID_6_" class="st45" d="M133.5 174.8c.4-.6.8-1.3 1-2.2.3-.9.4-1.9.4-3s-.2-2.3-.6-3.5c-.5-1.5-1.1-2.5-1.9-3.1-.8-.6-1.5-.8-2.2-.6l-8.7 2.8 1.5 13.7 9.1-3c.5-.2.9-.6 1.4-1.1z"/><path id="XMLID_5_" class="st45" d="M81.2 192c.5-.5.8-1.2 1.1-2.1.2-.9.4-1.9.4-3.1 0-1.2-.3-2.5-.7-4-.5-1.6-1.2-2.7-2-3.1-.8-.4-1.5-.5-2.1-.3l-7 2.3 1.5 13.7 7.4-2.4c.5-.1 1-.5 1.4-1z"/><path id="XMLID_4_" class="st45" d="M129.6 192.5l-5 1.7 2.1 19.3 14.5-4.8z"/><path id="XMLID_3_" class="st45" d="M30 17.5v227.8l29.6-9.7-6.9-63.7 24.6-8.1c2.4-.8 4.7-1 6.9-.6s4.2 1.1 6.1 2.3c1.8 1.2 3.5 2.7 4.8 4.5 1.4 1.8 2.4 3.9 3.1 6 1 2.9 1.3 6 1 9.3-.3 3.3-1.2 6.4-2.6 9.4-1.4 3-3.3 5.7-5.7 8-2.4 2.4-5.2 4.1-8.5 5.2l-8.6 2.8 2.1 19.4 34.3-11.3-6.8-63.6 26.3-8.6c2.4-.8 4.7-1 7-.7 2.2.4 4.3 1.1 6.1 2.3 1.8 1.2 3.4 2.7 4.8 4.5 1.4 1.8 2.4 3.9 3.1 6 .6 2 1 4 1.1 6.1.1 2.1-.1 4.3-.6 6.4-.5 2.1-1.2 4.2-2.1 6.2-1 2-2.1 3.9-3.5 5.7l14.1 19.3 5.6-1.8-6.8-63.6 39.9-13.1 1.7 15.3-23.5 7.7 1 9 20-6.6 1.5 14.2-20 6.6 1.1 10.1 24.3-7.9 1.6 14.9 7.7-2.5-6.8-63.5 17.9-5.9 14.7 26.3 8.3-33.9 17.9-5.9 6.8 63.4 10.3-3.4-6.8-63.4 16.4-5.4 6.8 63.4 10.3-3.4-7-63 39.9-13.1 1.7 15.3-23.5 7.7 1 9 20-6.6 1.5 14.2-20 6.6 1.1 10.1 24.3-7.9 1.6 14.7 7.7-2.5-6.9-63.4 26.3-8.6c2.4-.8 4.7-1 7-.7 2.2.4 4.3 1.1 6.1 2.3 1.8 1.2 3.4 2.7 4.8 4.5 1.4 1.8 2.4 3.9 3.1 6.1.6 2 1 4 1.1 6.1.1 2.1-.1 4.3-.6 6.4-.5 2.1-1.2 4.2-2.1 6.2-1 2-2.1 3.9-3.5 5.7l13.9 19 5.8-1.9-6.9-63.1L445.9 43l1.7 15.3-23.5 7.7 1 9 20-6.6 1.5 14.2-20 6.6 1.1 10.1 24.3-7.9 1.6 14.5 26.5-8.7V17.5H30z"/><path id="XMLID_2_" class="st45" d="M377.1 111.4l-4.9 1.6 2 19 14.4-4.7z"/><path id="XMLID_1_" class="st45" d="M381 93.6c.4-.6.8-1.3 1-2.2.3-.9.4-1.9.4-3s-.2-2.3-.6-3.5c-.5-1.5-1.1-2.5-1.9-3.1-.8-.6-1.5-.8-2.2-.6L369 84l1.5 13.7 9.1-3c.5-.1 1-.5 1.4-1.1z"/></g></svg>