<svg version="1.1" id="Layer_1" xmlns="http://www.w3.org/2000/svg" x="0" y="0" width="510" height="710" xml:space="preserve"><style>.st5{fill:#974d3d}.st10{fill:#fdfcea}.st11{fill:#f2cf85}.st12{fill:#e4e9ef}.st13{fill:#eb2125}.st14{fill:#ca2027}.st20{fill:#21222c}.st21{fill:#987c8c}.st22{fill:#432c2b}.st25{fill:#736260}.st27{opacity:.55;fill:#824032}.st28{fill:#cf2032}.st29{opacity:.75;fill:#824032}.st30{fill:#d41e41}.st31{fill:#a81d30}.st32{fill:#ed1849}.st41{fill:#730f18}.st48{fill:#f1667f}.st51{opacity:.65;fill:#848c9a}.st53{opacity:.85;fill:#927f86}.st57{fill:#7b7c81}.st58{fill:#c3c2c5}.st60{fill:#d42842}.st61{fill:#918282}</style><path id="XMLID_403_" fill="#fafafa" d="M30 17.5h450v675H30z"/><path id="XMLID_402_" d="M116.8 502.4s153.4-69.7 276 2.7c0 0-54.6 36.3-150 36.3-40.4 0-81.7-14.7-126-39z" fill="#e1d7d4"/><path id="XMLID_401_" d="M123.2 499.3c.5-.2 1-.5 1.5-.7.1 0 .2-.1.3-.1.5-.2.9-.4 1.4-.6.1 0 .2-.1.3-.1 1.2-.5 2.5-1.1 3.8-1.7.2-.1.4-.1.5-.2.5-.2 1.1-.4 1.6-.7l.6-.3c.7-.3 1.4-.6 2.2-.9.1-.1.3-.1.4-.2.6-.3 1.3-.5 2-.8.3-.1.6-.2.9-.4.5-.2 1-.4 1.6-.6.2-.1.4-.2.7-.3 38.4-14.8 125-31.2 202.9-7.9 28.7 3.4-45.7 24.7-49.9 25.4-5 .9-26.1-4.5-36.9-4.6-2.2 0-4.4 0-6.6-.1-2.5 6.1-19.7 13.1-26.8 16.6-10.7 5.2-22.5 7.4-33.8 10.6-1 .3-2 .6-3.1.9-20.2-5.1-49.4-18.9-70.2-30.3.2.1 2.4-1.1 6.6-3z" opacity=".55" fill="#898989"/><path id="XMLID_400_" d="M202.8 328.3s-.1.1 0 0c9.4 27.4 36 162.7 36 162.7.5 0 1 .1 1.5.1.2 0 .3 0 .5.1.4 0 .8.1 1.2.1.2 0 .3 0 .5.1.6.1 1.2.2 1.8.2.6.1 1.2.2 1.9.3.2 0 .4.1.6.1.5.1 1 .2 1.5.2.2 0 .4.1.6.1 5.8 1 12.6 2.4 19.4 3.9 4.4 1 8.7 2 12.8 3 3.5.8 6.7 1.6 9.6 2.4 5.1 1.3 8.9 2.3 10.7 2.7h.1c.2 0 .4.1.5.1.2.1.4.1.4.1 4.8-2.6 11-5.2 17.3-7.5 4.6-1.6 13-4.5 16.9-5.7 7.5-2.3 12.9-3.8 12.9-3.8 3.6-43.3 34.3-155 34.3-155-3.8-11.6-18.4-9.9-18.4-9.9-13.2-13.7-47.3-21-73.3-21-30.5.1-69.9 16.9-69.9 16.9-11.4-1.9-19.3 9.7-19.4 9.8z" fill="#b9b0af"/><path id="XMLID_399_" d="M356 206.8c-1.7-.9-3.3-1.8-5-2.7-4.9 21.4-16.1 10.8-16.1 10.8-8.9 38-40.3 77.4-40.3 77.4 8.5 3.7 4.9 12 1.4 17.2 1.1.5 2.2 1 3.2 1.5 1.2-1.6 3.1-2.5 4.7-1.3 1.4.9 1.1 2.5.4 4.1.8.5 1.6.9 2.4 1.4 1-3.2 2.5-4.2 5.2-2.3 1.3.9.4 3.2-.7 5.1.7.4 1.5.9 2.2 1.3 1-2.8 3.3-5.4 5.6-3.6 2.3 1.7.9 4.5-.6 6.4 1.2.7 2.5 1.3 3.7 1.9.5-2.6 1.8-5.7 5.4-4 3.3 1.6 1.5 4.4-.4 6.4 1.2.6 2.4 1.1 3.5 1.7 1.2-1.8 3.4-3.1 5.2-1.7 1.4 1 1.1 2.8.4 4.3 1.3.6 2.5 1.2 3.7 1.7 7.9-18.8 13.9-4.7 13.9-4.7 14-40.4 47.6-78.7 47.6-78.7-12.4-3-6.7-12.7-2.6-17.8-1.6-.9-3.1-1.8-4.7-2.7-.8.9-2.1 1.4-4.2.6-2.7-1.1-2.5-2.7-1.5-4.2-.9-.6-1.8-1.2-2.7-1.7-.9 1.8-2.3 3-4.3 1.6-2-1.5-1.8-3.3-1-4.9-1-.6-2.1-1.2-3.1-1.8-.9 1.5-2.5 2.6-4.2 1.6-1.6-.9-1.4-2.7-.7-4.3-1.2-.6-2.4-1.3-3.6-1.9-1.1 2.2-3.2 4.2-5.1 2.9-1.8-1.1-.9-3.5.2-5.4-1.2-.6-2.4-1.3-3.6-1.9-.9 1.7-2.4 3.5-4.1 3.1-1.7-.5-1.1-3.2-.2-5.4z" fill="#faa946"/><path class="st5" d="M389.7 256.3l-1.5.7c-.9.4-4.6 4.2-19.9 31.3-6.5 11.6-12.2 22-12.2 22.1l-.4.7-.7-.2c-6.8-2.1-11 2.3-13.4 6.4-.9 1.5-1.3 2.7-1.3 2.7l-.4 1.2-1-.7c-3.8-2.8-30.8-15.3-31.1-15.4l-1-.5.6-.9c6.3-8.8-2.2-16.1-2.3-16.2l-.7-.6.7-.7c2.3-2.5 6.3-8.9 11.8-19 9.5-17.5 20.4-40.4 20.5-40.7l.4-.9.8.4c9.9 4.4 19.5-7 19.6-7.1l.6-.8.7.7c1.7 1.5 20.1 13.7 27 18.3l.8.5-.6.8c-6.9 10.3 1.2 16.7 1.5 16.9l1.5 1zm-23 31.1c13.1-23.2 17.8-29.5 19.7-31.3-2.2-2.2-7.2-8.7-1.5-17.9-4-2.6-21.6-14.2-25.8-17.3-2.3 2.6-10.9 10.8-20.3 7.3-2.1 4.3-11.7 24.3-20.2 39.9-5.1 9.4-9 15.7-11.5 18.7 2 2.1 7.6 9 2.5 17.1 4.6 2.2 23.9 11.2 29.4 14.5 1.4-3.2 6.2-12 15.8-9.5 1.4-2.5 6.3-11.6 11.9-21.5z"/><path class="st5" d="M324.2 288.8c.7-1.3.6-2.5-.4-3.6l1.7-1.5c.7.9 1.1 1.9 1.2 2.9 0 1-.2 2-.8 3.1-.9 1.6-2 2.6-3.4 3-1.4.4-2.9.2-4.5-.7-1.6-.9-2.6-1.9-3-3.3-.4-1.3-.2-2.8.7-4.4.7-1.2 1.4-2 2.3-2.5.9-.5 1.9-.7 2.9-.5l-.5 2.1c-.6-.1-1.1 0-1.7.3-.5.3-1 .8-1.3 1.4-.5 1-.6 1.8-.3 2.6s1 1.5 2.1 2.1c1.1.6 2.1.8 3 .6.8-.1 1.5-.7 2-1.6zM328.9 283.7l-9.9-5.3 1.2-2.1 9.9 5.3-1.2 2.1zM334.6 273.5l-10 .3c.8.3 1.4.6 1.8.8l5.8 3.1-1 1.9-9.9-5.3 1.3-2.4 10.1-.3c-.8-.3-1.4-.6-2-.9l-5.7-3.1 1-1.9 9.9 5.4-1.3 2.4zM337.1 269l-9.9-5.4 4.4-8.1 1.6.9-3.3 5.9 2.5 1.4 3-5.5 1.6.9-3 5.5 2.6 1.4 3.4-6.2 1.6.9-4.5 8.3zM347.3 250.6l-6-3.3c-.1-.1-.3-.2-.4-.2-.1-.1-.7-.4-1.7-1l2.2 2.2 4.5 4.9-.9 1.5-6.5-1.2-3.1-.7c1.1.5 1.9.9 2.2 1.1l6 3.3-1.1 1.9-9.9-5.5 1.6-2.9 6.6 1.2.6.1 1.5.4-1.3-1.3-4.8-5.1 1.6-2.9 9.9 5.5-1 2zM353.5 239.4l-3-.5-2.2 3.9 2 2.3-1.2 2.2-7.8-9.3 1.4-2.6 12 1.8-1.2 2.2zm-9.9-1.8l.1.1.5.5c.2.2 1.1 1.3 2.8 3.3l1.7-3-3.4-.6-1.1-.2-.6-.1z"/><g><path id="XMLID_389_" class="st5" d="M378.6 242.9c-9.6-5.1-20.8-13.7-20.9-13.8l1.2-1.6c.1.1 11.2 8.6 20.7 13.6l-1 1.8z"/></g><g><path id="XMLID_388_" class="st5" d="M338 311.4l-1.1 1.5c-7.4-5-20.7-10.7-20.9-10.8l.8-1.7c.2.1 13.6 5.8 21.2 11z"/></g><g><path id="XMLID_387_" class="st5" d="M333.5 297.8l2.6 3.7-2.1 3.7 4.7-.7 2.8 3.5.3-5.1 4.4-3.1-4.8-.6-.6-4.7-3 3.9z"/><path id="XMLID_386_" class="st5" d="M340.4 285.5l2.9 3.1-1.9 4.4 4.5-1.4 2.8 3.6.3-5.2 4.6-2.6-5-1.1-.6-4.8-3 4z"/><path id="XMLID_385_" class="st5" d="M347.6 272.4l2.9 3.2-1.9 4.5 4.5-1.4 2.8 3.6.3-5.2 4.6-2.7-5-1.2-1-4.6-2.6 3.8z"/><path id="XMLID_384_" class="st5" d="M355.3 258.6l2.5 3.8-2.5 4.6 5.1-1.4 3 3.4.1-5 4.5-3.2-4.9-.7-.5-4.8-3 4z"/><path id="XMLID_383_" class="st5" d="M362.4 245.6l2.8 3.6-2 4.6 4.6-1.4 2.8 3.7.3-5.3 4.9-3.1-5.3-.8-.8-5.1-2.2 4.4z"/></g><g><path id="XMLID_382_" class="st5" d="M363.7 237.2c-12.9 20.5-35.5 62.6-35.8 63l-1.6-.8c.2-.4 22.9-42.7 35.8-63.2l1.6 1z"/></g><path id="XMLID_381_" d="M362.4 240.4c10.4-.3 27.5-5.3 35.5-9.8-1.3-.7-2.5-1.4-3.8-2.2-.8.9-2.1 1.4-4.2.6-2.7-1.1-2.5-2.7-1.5-4.2-.9-.6-1.8-1.2-2.7-1.7-.9 1.8-2.3 3-4.3 1.6-2-1.5-1.8-3.3-1-4.9-1-.6-2.1-1.2-3.1-1.8-.9 1.5-2.5 2.6-4.2 1.6-1.6-.9-1.4-2.7-.7-4.3-1.2-.6-2.4-1.3-3.6-1.9-1.1 2.2-3.2 4.2-5.1 2.9-1.8-1.1-.9-3.5.2-5.4-1.2-.6-2.4-1.3-3.6-1.9-.9 1.7-2.4 3.5-4.1 3.1-1.7-.4-1-3.1-.1-5.3-1.7-.9-3.3-1.8-5-2.7-4.9 21.4-16.1 10.8-16.1 10.8-1.7 7.1-4.1 14.3-7 21.2 4.4.9 24 4.6 34.4 4.3z" opacity=".32" fill="#ffdaae"/><linearGradient id="XMLID_405_" gradientUnits="userSpaceOnUse" x1="338.002" y1="319.639" x2="341.94" y2="274.504"><stop offset=".075" stop-color="#a97a3c"/><stop offset="1" stop-color="#845121"/></linearGradient><path id="XMLID_380_" d="M355.5 279.2c-13.7.1-27.9-9.7-37.7-22.4-9.4 17-19.2 30.2-22.2 34.1 3.7 2.1 4.7 5.2 4.2 8.4 0 3.1-1.5 6.4-3.2 9.1.9.4 1.8.9 2.7 1.4 1.3-1.7 3.1-2.5 4.8-1.3 1.3.9 1.2 2.4.6 3.9 0 .1-.1.3-.1.4.8.5 1.6 1 2.3 1.5.2-.4.3-.7.5-1 1-2.5 2.5-3 5-1.2 1.4 1 .5 3.3-.7 5.3.6.4 1.3.8 1.9 1.2.7-1.6 1.7-3 2.9-3.5 1-.7 2.1-.8 3.3.1 2.4 1.9 1 4.8-.5 6.8 1 .6 1.9 1.1 2.9 1.6.5-2.3 1.6-4.8 4.3-4.1.6 0 1.4.1 2.2.6 3.5 1.8 1.6 4.8-.3 6.8.1.1.3.1.4.2.6.3 1.2.6 1.8.8 1.2-1.8 3.4-3.1 5.2-1.7l.3.3c.5.1 1 .3 1.5.6 1.4 1.1 1.2 2.8.6 4.4.6.3 1.2.5 1.8.8 4.6-10.9 8.5-10.7 11-8.7 1.4.2 2.6 1.1 3.5 2.1 8.2-22.8 22.4-44.6 33-59.2-9.8 6.4-19.8 12.6-32 12.7z" opacity=".35" fill="url(#XMLID_405_)"/><g><path id="XMLID_379_" d="M211.9 329.4c1.5-7.8 9.4-19.1 17.4-20.8 7.8-1.7 13.8 4.3 22 .4 8-3.8 18.1-16.4 27.3-12.1 4.2 2 8.1 4.3 13 3.5 5.4-.9 9.5-5.4 14.6-7.2 4.2-1.6 12-3 16.1-.7 4.1 2.2 4.9 7.9 8.5 10.6 3.7 2.8 8.6 1.6 12.7 2.6 5.1 1.2 9.6 4.5 12.4 9.2 2.6 4.4 3.4 7.3 8.1 9.6 4 2 5 2.9 5.9 7.7.6 3 2.3 10.6-.1 12.8-3.6 3.2-15.8-.7-20.1-.5-14.8.6-29.2 3-44.1 3.2-18.5.2-36.2-3.1-54.2-7.2-9.5-2.2-19.3-3.9-28.6-5.9-3.1-.8-11.6-1.3-10.9-5.2z" fill="#fff3b6"/><path id="XMLID_378_" d="M361.4 339.4c-3.5-2.9-6.6-6.2-9.9-9.4-.7-.7-4.3-3.3-3.4-2.7-.7-.4-1.3-.9-2-1.3-2.2-1.2-4.3-2.4-6.5-3.5-.6-.3-6.2-2.5-4.2-1.8-4.1-1.4-8.3-2.7-12.6-3.7-2.3-.5-4.7-1.1-7.1-1.4-1.1-.2-1.9-.3-2.3-.4-.5 0-1.1 0-2.1-.1-2.6-.1-5.3-.2-7.9-.1-3.3.1-6.5.3-9.7.6-6.8.6-13.4-2.3-17.8-7.9 0 0 0-.1-.1-.1-3.5-.9-7-1.5-10.8-.9-3.8.6-6.7 3.2-10.3 4.3-3.7 1.2-7.6 2-11.5 2.2-4.2.2-9.4-.7-13.4.9-3.5 1.4-6.3 4.4-9.5 6.4-2.2 1.4-4.5 2.6-6.9 3.8-.8 1.8-1.4 3.6-1.7 5.2-.6 3 4.5 3.9 8.1 4.5.4.1.8.1 1.2.2.2 0 .4.1.5.1h.2c.2 0 .4.1.6.1 9.3 2 19.2 3.7 28.6 5.9 18.1 4.1 35.7 7.4 54.2 7.2 1.7 0 3.3-.1 4.9-.1.5 0 1.1 0 1.6-.1 1.1-.1 2.2-.1 3.3-.2.6 0 1.2-.1 1.8-.1 1.4-.1 2.8-.2 4.1-.3 9.4-.8 18.7-1.9 28.2-2.3 4.1-.2 15.2 3.2 19.4.9-1.9-1.7-4.4-3.7-7-5.9z" fill="#f4ce80"/><path id="XMLID_377_" class="st10" d="M266.2 301c3.8-1.2 4.8 1.4 5.7 4.6 1.2 4.2 5.8 4.2 8.9 1.9 3.6-2.5 5-7 2.7-11.2-2.1-3.8-4.9-1.4-7.9-1.6-2.5-.2-3.9-2.8-6.4-3.2-2.2-.3-4 1-5.3 2.7-1.1 1.5-2 3.4-1 5.2.9 1.5 2.8 2.1 4.1 1l-.8.6z"/><path id="XMLID_376_" class="st11" d="M267.6 294.8c-1.3.2-2.7 2.5-1.6 3.7.9 1 3-.1 4.2.6 3 1.7 1.5 7.5 6.3 6.1 2.1-.6 4.1-3.4 3.3-5.8-.5-1.8-2.3-2.2-3.9-2.4-2-.3-1.6-.8-3.1-2.2-1-1-2.3-1.3-3.6-1-.8.3-.6.8-1.6 1z"/><path id="XMLID_375_" class="st10" d="M332.7 322.6c-3.8 1.1-4.7-1.7-5.5-4.9-1-4.2-5.6-4.4-8.8-2.4-3.7 2.4-5.3 6.8-3.2 11 2 3.9 4.8 1.6 7.8 2 2.5.3 3.8 3 6.2 3.5 2.2.4 4.1-.8 5.5-2.4 1.2-1.4 2.1-3.3 1.2-5.2-.8-1.6-2.8-2.2-4.1-1.2l.9-.4z"/><path id="XMLID_374_" class="st11" d="M331 328.7c1.3-.2 2.8-2.4 1.7-3.7-.9-1-3-.1-4.1-.8-2.9-1.8-1.2-7.6-6-6.4-2.1.5-4.2 3.2-3.6 5.6.5 1.8 2.2 2.3 3.8 2.6 2 .4 1.6.9 3 2.3 1 1 2.2 1.4 3.6 1.1.9-.1.7-.6 1.6-.7z"/><path id="XMLID_373_" class="st10" d="M325.3 308.9c1.7-.3 3.8-1.2 5.3.2 1.4 1.3 2.3 3.4 4 4.6 5.4 4 11.2-2 9.5-8.1-1.4-4.9-7.9-9.1-12.8-7.7-3.3.9-9.1 5.3-7.9 9.6.5 1.7 1.9 2.4 3.1 1l-1.2.4z"/><path id="XMLID_372_" class="st11" d="M332.4 302.2c-2.4-1.6-6.2-.5-7.1 2.3-1.2 4.1 3.2 1.6 5.3 3.5 1.3 1.2 4.1 6.2 4.8 1.6.4-2.3-.7-6.2-2.8-7.3-.4-.2-1-.3-1.5-.3l1.3.2z"/><path id="XMLID_371_" class="st10" d="M246.4 311.3c1.7-.3 3.8-1.2 5.3.2 1.4 1.3 2.3 3.4 4 4.6 5.4 4 11.2-2 9.5-8.1-1.4-4.9-7.9-9.1-12.8-7.7-3.3.9-9.1 5.3-7.9 9.6.5 1.7 1.9 2.4 3.1 1l-1.2.4z"/><path id="XMLID_370_" class="st11" d="M253.6 304.6c-2.4-1.6-6.2-.5-7.1 2.3-1.2 4.1 3.2 1.6 5.3 3.5 1.3 1.2 4.1 6.2 4.8 1.6.4-2.3-.7-6.2-2.8-7.3-.4-.2-1-.3-1.5-.3l1.3.2z"/><path id="XMLID_369_" class="st10" d="M312.8 309.2c-1.7-.2-4 .1-5-1.6-1-1.7-1.3-3.9-2.6-5.6-4.2-5.4-11.3-1.3-11.2 5.1.1 5.1 5.3 11 10.4 11 3.4 0 10.1-2.5 10.1-7 0-1.8-1.2-2.9-2.8-1.9h1.1z"/><path id="XMLID_368_" class="st11" d="M304.2 313.7c1.9 2.2 5.9 2.2 7.4-.3 2.2-3.6-2.7-2.5-4.2-4.8-.9-1.5-2.3-7.1-4.2-2.9-1 2.1-.9 6.2.9 7.9.4.3.9.6 1.4.7l-1.3-.6z"/><path id="XMLID_367_" class="st10" d="M301.4 337.4c1.7-.3 3.8-1.2 5.3.2 1.4 1.3 2.3 3.4 4 4.6 5.4 4 11.2-2 9.5-8.1-1.4-4.9-7.9-9.1-12.8-7.7-3.3.9-9.1 5.3-7.9 9.6.5 1.7 1.9 2.4 3.1 1l-1.2.4z"/><path id="XMLID_366_" class="st11" d="M308.5 330.7c-2.4-1.6-6.2-.5-7.1 2.3-1.2 4.1 3.2 1.6 5.3 3.5 1.3 1.2 4.1 6.2 4.8 1.6.4-2.3-.7-6.2-2.8-7.3-.4-.2-1-.3-1.5-.3l1.3.2z"/><path id="XMLID_365_" class="st10" d="M233.7 323.8c.6-1.7.8-4.1 2.7-4.8 1.8-.7 3.9-.4 5.7-1.4 6-3 3.9-11.3-2-12.7-4.8-1.1-11.4 2.8-12.6 8-.8 3.5-.1 11 4.1 12 1.6.4 3-.6 2.4-2.4l-.3 1.3z"/><path id="XMLID_364_" class="st11" d="M231.7 313.9c-2.5 1.4-3.4 5.5-1.5 7.6 2.8 3.1 2.9-2.2 5.4-3.1 1.6-.6 7.1-.7 3.7-3.6-1.7-1.5-5.5-2.4-7.4-1-.4.3-.8.7-1 1.3l.8-1.2z"/><g><path id="XMLID_363_" class="st10" d="M296.5 317.9c-2-.1-3.6 1-5.4-.5-1.5-1.3-2.1-2.3-4.3-1.7-5.6 1.4-8.7 10.1-4.1 14.4 2.6 2.4 5.2 2.5 7.2-.4 1.6-2.2 3.7-3.1 6.1-1.7 2 1.2 5.6 3.5 7.4.7 1.1-1.8 1-5.7-.1-7.5-1.4-2.2-5.3-3.9-7.7-3.6l.9.3z"/><path id="XMLID_362_" class="st11" d="M293.1 318.8c-1.7 0-2.3-.1-3.3 1.4-1 1.6-1.7 2.6-3.2 3.6-1.1.7-2.4 1.4-1.5 3.1 1.1 2.2 3.2.7 4.5-.3 1.2-.9 2.5-1.9 4.1-1.6 1.3.3 2.1 2.3 3.3.7 1.8-2.5-1.1-6.2-3.4-6.7-.7-.2-1.7 0-2.4 0l1.9-.2z"/></g><g><path id="XMLID_361_" class="st10" d="M346.7 320.6c-2-.1-3.6 1-5.4-.5-1.5-1.3-2.1-2.3-4.3-1.7-5.6 1.4-8.7 10.1-4.1 14.4 2.6 2.4 5.2 2.5 7.2-.4 1.6-2.2 3.7-3.1 6.1-1.7 2 1.2 5.6 3.5 7.4.7 1.1-1.8 1-5.7-.1-7.5-1.4-2.2-5.3-3.9-7.7-3.6l.9.3z"/><path id="XMLID_360_" class="st11" d="M343.3 321.5c-1.7 0-2.3-.1-3.3 1.4-1 1.6-1.7 2.6-3.2 3.6-1.1.7-2.4 1.4-1.5 3.1 1.1 2.2 3.2.7 4.5-.3 1.2-.9 2.5-1.9 4.1-1.6 1.3.3 2.1 2.3 3.3.7 1.8-2.5-1.1-6.2-3.4-6.7-.7-.2-1.7 0-2.4 0l1.9-.2z"/></g><g><path id="XMLID_359_" class="st10" d="M320 292.1c-1.1-1-1.2-2.6-2.2-3.6-1.3-1.4-3.6-1.6-5.3-1.5-4.3.3-7.7 8.6-5.3 12.4 2.9 4.5 10.9 6.7 14.5 1.8 1.6-2.2 2.1-7.7-1.2-8.5l-.5-.6z"/><path id="XMLID_358_" class="st11" d="M316.6 290.4c-2.2-3-5 1.2-5.1 3.5-.1 3.2 2.5 4.9 5.3 4.8 2.5-.1 3.9-2.4 2.3-4.5-1.4-1.9-2.5-3.8-2.5-3.8z"/></g><g><path id="XMLID_357_" class="st10" d="M252 319.9c-1.1-1-1.2-2.6-2.2-3.6-1.3-1.4-3.6-1.6-5.3-1.5-4.3.3-7.7 8.6-5.3 12.4 2.9 4.5 10.9 6.7 14.5 1.8 1.6-2.2 2.1-7.7-1.2-8.5l-.5-.6z"/><path id="XMLID_356_" class="st11" d="M248.7 318.2c-2.2-3-5 1.2-5.1 3.5-.1 3.2 2.5 4.9 5.3 4.8 2.5-.1 3.9-2.4 2.3-4.5-1.4-1.8-2.5-3.8-2.5-3.8z"/></g><g><path id="XMLID_355_" class="st10" d="M269.5 312.6c-1.9.5-3.3 1.3-5.4.8-1.6-.4-2.7-1.9-4.5-1.9-4.6 0-5 6.6-3.7 10 4.1 10.7 24.1 5 18.6-5.9-.7-1.4-3.6-5-5-3z"/><path id="XMLID_354_" class="st11" d="M264.6 314.5c-1.3-.1-2.7-1-3.8-1-1.6 0-1.9 1.5-1.9 2.9-.1 2.2 1 3.3 2.8 4.1 3.1 1.5 9.3 2 10.5-2.5.9-3.2-1.7-5.8-4.5-4 0 .1-1.6.7-3.1.5z"/></g><g><path id="XMLID_353_" class="st10" d="M301.5 284.5c-1.9.5-3.3 1.3-5.4.8-1.6-.4-2.7-1.9-4.5-1.9-4.6 0-5 6.6-3.7 10 4.1 10.7 24.1 5 18.6-5.9-.6-1.3-3.6-5-5-3z"/><path id="XMLID_352_" class="st11" d="M296.7 286.4c-1.3-.1-2.7-1-3.8-1-1.6 0-1.9 1.5-1.9 2.9-.1 2.2 1 3.3 2.8 4.1 3.1 1.5 9.3 2 10.5-2.5.9-3.2-1.7-5.8-4.5-4 0 .2-1.7.7-3.1.5z"/></g></g><g><path id="XMLID_351_" class="st12" d="M383.8 332.7s-30.7 111.7-34.3 155c0 0-31.4 8.4-47.1 17 0 0-46.3-12.3-63.5-13.6 0 0-26.7-135.3-36.1-162.7 0 0 16-10.1 27.5 4.1 0 0 8.3-14.6 21.9 1.9 0 0 8.2-12.3 17.9 2 0 0 9.4-10.4 21.5 3 0 0 8.7-13 22 .5 0 0 9.6-12.3 22 .3 0 0 15.6-18.4 29.8-4.7-.2-.1 7.3-14.4 18.4-2.8z"/><path id="XMLID_350_" class="st13" d="M335.8 339.7c-2 74.3-16.2 149.7-16.3 157.5 4.5-1.6 13.1-4.5 17-5.7 13.4-94.9 27.4-149.4 28.2-156.6-12.7-11.7-26.6 2.3-28.9 4.8z"/><path id="XMLID_349_" class="st14" d="M302 502.7c.7-16.1 10-161.5 10.6-163.8-12.8-12-21.3.1-21.4 0 0 .6 3.2 97.7-.4 162.8 5.8 1.5 10.1 2.6 11.3 2.9-.1-.6-.1-1.2-.1-1.9z"/><path id="XMLID_348_" class="st14" d="M229.4 331.5c-11.4-12.7-26.6-3.1-26.6-3.1 9.4 27.4 36.1 162.7 36.1 162.7 3.2.2 7.5.9 12.3 1.7-.7-6.1-15.1-87.5-21.8-161.3z"/><path id="XMLID_347_" class="st14" d="M269.3 335.4c-9.4-12.7-17.2-1-17.2-1l-.3-.3c.3.3 14.8 156.2 16.5 162.3 4.4 1 8.7 2 12.8 3 .1-16.4-5.6-79.5-11.8-164z"/></g><g opacity=".55"><path id="XMLID_346_" d="M335.7 343.3c3-3.5 6-6.4 10.3-8.1 6.4-2.7 13-1.6 18.1 3.1.2.1-.2-.2 0 0 0 0 11.4-13.1 18.8-2.4.5-2 .9-3.1.9-3.1-11.1-11.6-18.5 2.6-18.5 2.6-.2-.2-.3-.3-.5-.4-5.1-4.7-11.7-5.8-18.1-3.1-4.2 1.8-8.2 4.8-11.2 8.2-11.5-11.9-20.7-1.7-22-.3l-.9-.9c-.2 1.4-.3 2.7-.3 4.1 1.7-1.9 12.4-11 23.4.3z" fill="#c1ccdb"/><path id="XMLID_345_" class="st12" d="M349.1 487.8c.2-.1.3-.1.3-.1.8-9.3 2.8-21.7 5.5-35.6-2.7 13.6-4.8 26.1-5.8 35.7z"/></g><path id="XMLID_344_" d="M311.4 342.1c-4.1-3.5-9.5-5.5-14.8-3.2-1.7.8-3.2 1.9-4.5 3.2-.3.3-.6.6-.9 1-.2.2-2.1-1.8-2.5-2.1-3.7-3.2-8.6-5.1-13.4-3.6-2 .6-3.9 1.8-5.4 3.3-.2-.3-.5-.7-.7-1-1.5-2.1-3.4-4.1-5.9-5.2-4.1-2.2-8.9.8-11.3 4.2l-.3-.3c-13.4-16-21.6-1.5-21.6-1.5-.3-.4-.6-.7-.9-1-6.7-7.4-16.9-8.1-25.5-3.7 10.3 34 34.9 159 34.9 159 9.9.7 19.8 3.1 29.5 5.3 4.4 1 8.7 2 12.8 3 4.3 1 8.5 2.1 12.8 3.2.5.1 8.1 1.8 8.1 2.1.4-7.1.7-14.3 1.1-21.4.8-15.2 1.8-30.3 2.7-45.5 1.6-26 3.4-52 5.2-78l1.2-16.8c0-.5-.3-.7-.6-1z" opacity=".55" fill="#a16241"/><g><path id="XMLID_343_" class="st13" d="M349.2 384.5s-18.8-8.2-30.8 11c-12.1 19.2-6.5 51 16 49.2 22.4-1.8 38.9-48.5 14.8-60.2z"/><path id="XMLID_342_" class="st12" d="M348.1 388.4s-16.2-7.1-26.7 9.5-5.6 44.1 13.8 42.5c19.4-1.5 33.7-41.8 12.9-52z"/><path class="st13" d="M329 395.6s2.5 1.8 3 6.2c-1 4.5-3.6 8-7.5 9.5-.8 2.7-1.3 5.8-1.3 5.8s-1.9-.8-2.8-2.9l2.2-9.9c-.1-1.8 0-4.2 0-4.2s2.6-3.4 6.4-4.5zm-2.5 7.6c-.5 1.7-1 3.3-1.4 4.8h.1c2.9-.9 3.9-5.1 3.9-5.1s-.9-.2-2.6.3zM337.7 396.3l2.1-3.3s1.7.7 1.3 5.9c-.7 9.7-6.3 13.9-6.3 13.9-2.9-.5-3.5-4.1-3.5-4.1.9-11.1 4.6-13.4 4.6-13.4.4.8 1.1 1 1.8 1zm.2 2.5c-1.2 2.3-2.5 5.7-2.8 9.7 1-.3 3.3-4.4 2.8-9.7zM348.6 389.7s2.5 1.7 3.1 6.1c-.9 4.4-3.2 7.7-7 9.2-.7 2.6-1.1 5.6-1.1 5.6s-1.9-.8-2.8-2.8l1.9-9.5c-.2-1.7-.2-4.1-.2-4.1s2.4-3.4 6.1-4.5zm-2.2 7.4c-.4 1.7-.8 3.2-1.2 4.6h.1c2.7-.9 3.6-4.9 3.6-4.9s-.9-.2-2.5.3z"/><g><path class="st13" d="M329.4 424.5s-1.3-.7-2.2-2.4c-.8 2-1.7 4.8-2.2 8.1l4.5-3.7s-.5 4.9-5.4 8.1c0 0-1.8-.5-2.4-2.9.4-4.4 2.6-11.4 4.6-13.6.5-.2.9-.2 1.2-.3 2-.8 3.5-2 3.5-2s-.9 4.2-1.6 8.7zM335.3 417.3l1.8-2.9s1.4.6 1.1 5.1c-.5 8.5-5.2 12.1-5.2 12.1-2.5-.4-3-3.5-3-3.5.7-9.7 3.8-11.7 3.8-11.7.3.7.9.9 1.5.9zm.2 2.1c-1 2-2.1 5-2.3 8.4.8-.2 2.7-3.8 2.3-8.4zM339.2 415.5s1.7-2.9 4.9-3.9c0 0 2.1.2 2.9 4.8-.4 3.4-2.1 5.5-3.5 6.4 1.2 1.1 2.6 1.3 2.6 1.3s-.7 2.3-2.4 3.8c-1.3-.5-1.9-2.6-2.3-3.9l-1.3 5.2s-1.5-.9-1.9-2.8l1.5-7.3-.5-3.6zm3.5 2.4l-1 4c2.4-.9 2.9-4.3 2.9-4.3s-.7-.3-1.9.3zM351.8 418.9c.9-7.5.8-10.9.8-10.9s1.6.8 2.7.9c-.6 8.1-1.8 14.1-1.8 14.1-1.2.4-2.6 1.8-2.6 1.8l-1-8.4s-.6 3.3-1.3 9.2c0 0-1.5-.5-2.2-2 .7-6.5 1.9-11.7 1.9-11.7s1.2-1.2 2.8-2l.7 9z"/></g><path id="XMLID_329_" class="st13" d="M353.5 399.2l-.6 2.5-1.9.5 1.7 1.4-.4 2.5 2-2.3 1.4.7-.4-1.8 1-2-1.5.5z"/></g><linearGradient id="XMLID_406_" gradientUnits="userSpaceOnUse" x1="232.158" y1="477.749" x2="298.042" y2="391.484" gradientTransform="rotate(-.59 146.73 284.105)"><stop offset=".203" stop-color="#647082"/><stop offset=".781" stop-color="#e9c49f"/></linearGradient><path id="XMLID_328_" d="M367.4 374.7c-4.8 5.6-10.1 10.3-15.7 15.1-23.5 20-57.3 20.4-82.6 3.6-18.5-12.2-34.4-27.5-50.4-42.9-2-1.9-4-3.9-6.1-5.8 10.9 44.6 29.9 144.7 29.9 144.7.5 0 1 .1 1.5.1.1 0 .3 0 .5.1.4 0 .8.1 1.2.1.2 0 .3 0 .5.1.6.1 1.1.2 1.7.2l1.8.3c.2 0 .4.1.6.1.5.1.9.2 1.4.2.2 0 .4.1.6.1 5.5 1 12 2.4 18.4 3.9 4.1 1 8.3 2 12.1 2.9 3.3.8 6.4 1.6 9.1 2.3 4.8 1.3 8.5 2.3 10.1 2.7h.1c.2 0 .3.1.5.1.2.1.4.1.4.1 4.5-2.6 10.4-5.1 16.4-7.4 4.3-1.6 12.3-4.4 16-5.6 7.1-2.3 12.2-3.7 12.2-3.7 2.1-26.5 14-78.8 22.8-114.9-1.1 1.4-2 2.5-3 3.6z" opacity=".5" fill="url(#XMLID_406_)"/><path id="XMLID_327_" d="M304.9 397.5c0 .5-.9-6.5-.3-3.7-.4-2.1-.9-4.3-1.6-6.4.1.2-2.1-5.1-1.3-3.8-3.6-6.3-8-8.1-15.4-11.3-9-4-19.7-8.1-24.9-17.1-3.3-5.8-3.6-11.5-2.8-17.9.1-.5.3-3.8.3-2.5 0-1.2.1-2.4 0-3.6-1.8-1.5-3.6-3-5.4-4.4-1.5-1.2-3-2.5-4.6-3.6-1.8-1.4-2.1-1.6-.8-.6-2.3-1.5-4.6-2.9-6.9-4.1-4.6-2.5-7.8-6.8-9.2-11.5-.8.5-1.5 1.1-2.1 1.7-.2 0-.5.1-.7.1-4.6 1-9.2 5.2-12.5 10.1-8.3 1.5-13.8 9.6-13.9 9.6h-.1c.4 1.1.8 2.3 1.2 3.7 7.4 24.4 22.2 95.7 29.9 134 0 .1 0 .2.1.3.2.8.3 1.5.5 2.3v.1c.1.7.3 1.4.4 2.1 0 .1 0 .2.1.4.1.7.3 1.3.4 2v.2c.1.7.3 1.3.4 2v.2c.1.5.2 1.1.3 1.6 0 .2.1.4.1.6l.3 1.5c0 .1 0 .2.1.3.1.4.2.8.2 1.2.1.3.1.6.2.9.1.3.1.6.2.9 0 .2.1.4.1.6.2.9.3 1.7.5 2.4l.3 1.8c.1.7.3 1.4.4 1.9.1.3.1.6.2.8 0 .1 0 .2.1.3.1.5.1.7.1.7.7.1 1.4.1 2.1.2.4 0 .8.1 1.2.1.2 0 .3 0 .5.1.6.1 1.2.2 1.8.2l1.8.3h.2c.2 0 .3 0 .5.1.5.1 1 .2 1.5.2.2 0 .4.1.6.1 5.1.9 10.9 2.1 16.8 3.4h.1c.8.2 1.7.4 2.5.6 3.3.7 6.5 1.5 9.7 2.2.2 0 .3.1.5.1-7.6-15.8 1.5-35 11.9-48.3 3.3-4.3 3.8-4.1 6.2-9 .9-1.9 2.1-5.9 3.3-10.1 2.4-8.3 5.1-17.6 5.2-25.4 0-3 0-5.8-.3-8.6z" fill="#b59097"/><g><path id="XMLID_326_" class="st20" d="M98.7 253.9s81-15.4 109.9-50.8c0 0 1.2-1.4 2.7 0 1.5 1.4 8.8 10.8 13.4 7.4 4.6-3.4 10-6.4 3.8-11s-15.7-7.8-17.4-7.7c-1.7.1-43.5 23-59.6 29.1-12.1 4.6-51.4 13.1-55.6 20.3-.8 1.4-.6 8.4 2.8 12.7z"/><path id="XMLID_325_" class="st21" d="M151.4 220.9c16.2-6.1 57.9-28.9 59.6-29.1 1.7-.1 11.3 3.1 17.4 7.7 1.8 1.3 2.6 2.5 2.7 3.6 0 .2-.1.4-.2.6-.3-.9-1.1-1.9-2.6-2.9-6.2-4.6-15.7-7.8-17.4-7.7-1.7.1-43.5 23-59.6 29.1-12.1 4.6-51.4 13.1-55.6 20.3-.2.3-.3.8-.3 1.5v-.7c0-.9.2-1.7.4-2 4.3-7.3 43.5-15.8 55.6-20.4z"/><path id="XMLID_324_" class="st20" d="M247.8 208.4s-99.5 2.2-124.4.1c-.6-.1-1.2.2-1.6.7-3.6 4.1-20.1 23.6-4.8 24.4 8.9.5 9-7.7 8.5-11.7-.1-1.1.7-2.1 1.9-2.1l110.7-.3s14.7-5.5 9.7-11.1z"/><path id="XMLID_323_" class="st21" d="M248 209.4s-99.5 2.2-124.4.1c-.6-.1-1.2.2-1.6.7-2.6 2.9-11.6 13.5-11.1 19.8-1.7-6 8.3-17.8 11-20.8.4-.5 1-.7 1.6-.7 24.9 2.1 124.4-.1 124.4-.1.8.8 1.1 1.7 1 2.5-.2-.5-.5-1-.9-1.5z"/><path id="XMLID_322_" class="st22" d="M197.9 483.2s8.9-5 21.7 0c0 0-8.8 4.2-21.7 0z"/><path id="XMLID_321_" d="M198.6 462.9l4.6 20.1s2.2 1.1 6.4.8c4.1-.2 5.3-.8 5.3-.8l2.3-20.7-18.6.6z" fill="#939393"/><path id="XMLID_320_" d="M212.8 472.6c1.1-.1 2.2-.3 3.3-.5l1.1-9.9-18.6.6 2.1 9.4c4 .4 8.1.9 12.1.4z" opacity=".5" fill="#77514d"/><path id="XMLID_319_" class="st22" d="M208.1 485.6s-27 1.2-43.5 16.3c0 0 15.1 13.1 46.3 12.9 31.2-.2 41.1-12.1 41.1-12.1s-23.6-15.6-43.9-17.1z"/><path id="XMLID_318_" class="st25" d="M222.2 514.1c8.4-1 14.7-2.8 19.3-4.8-5.4-3.1-9.8-7.3-15.6-10.6-2.7-1.6-5.5-3-8.3-4.6.6 3.9 3.8 17.1 4.6 20z"/><path id="XMLID_317_" class="st25" d="M203.6 491.5c-1.1.8-2.1 1.6-3.2 2.4-2.7 5.4-5.2 10.8-7.2 16.5-.3.9-.7 1.9-1 2.8 3 .6 6.2 1 9.7 1.2.6-7.6 1.3-15.2 1.7-22.9z"/><path id="XMLID_316_" d="M292 389.4c.9-3.2 1.8-6.8 2.3-10.5-19.4 2.8-39.9-10.7-60.6-20.3 0 15.1 2.4 39 2.4 39 11.8 30.8 51 17.2 51.6 17 .4-8.6 1.9-16.9 4.3-25.2z" fill="#891723"/><path id="XMLID_315_" class="st27" d="M292.5 387.7c.7-2.7 1.4-5.7 1.8-8.8-19.4 2.8-39.9-10.7-60.6-20.3 0 3.1.1 6.6.3 10.2 10.1 4 30.2 13.7 46.7 19.4 6.3 2.1 8-.6 11.8-.5z"/><path id="XMLID_314_" class="st28" d="M296.4 399.5c-.2-6.2-1.1-23.6-1.9-30.4-5.4-.1-11.3-1.6-15.4-2.8-.5-.2-.9-.2-1.1-.3.1 2.5-.1 5 .2 7.4.6 5.2 6 33 7 41.9-.3 3.5-.4 13.7-.3 13.7 4.4-9.2 11.7-20.2 11.5-29.5z"/><path id="XMLID_313_" class="st29" d="M278 366c.2.1.6.1 1.1.3 4.1 1.2 10 2.7 15.4 2.8.5 3.9 1 11.2 1.3 18-3.6.8-10.9 2.3-15.2 1.1-.1-.8-.3-1.5-.4-2.2 0-.1 0-.2-.1-.4-.1-.7-.3-1.5-.4-2.2v-.2c-.1-.7-.2-1.3-.3-1.9v-.2l-.3-1.8c0-.1 0-.2-.1-.3-.1-.6-.2-1.1-.3-1.6v-.1c-.1-.5-.1-.9-.2-1.3v-.2c-.1-.4-.1-.8-.2-1.1v-.2c0-.3-.1-.6-.1-.9-.3-2.6-.1-5.1-.2-7.6z"/><path id="XMLID_312_" class="st30" d="M301.4 367.4c-.6-4.4-10.6-7.9-21.6-12-17.3-6.5-42.1-11.6-42.4-10.5-.8 2.5-3 9.4-3 18.9 15.5 5.9 34.9 12.7 44.6 16.3 7 2.6 14.7-.3 21.5-2.6.8-3.7 1.2-7.1.9-10.1z"/><path id="XMLID_311_" class="st31" d="M300.4 365.2c-6.1 5.4-21.6 2.7-28.1 1.1-12.9-3.2-27.5-6.6-39.7-11.8-.4 3.3 1.7 4.6 1.7 9.2 15.5 5.9 34.9 12.7 44.6 16.3 7 2.6 14.7-.3 21.5-2.6 1-3.7 1.4-7 1-10.1-.1-.6-.5-1.4-1-2.1z"/><path id="XMLID_310_" class="st32" d="M300.5 365.4c-6.3 3-10.9 3-21.8 2.2.2 4.6.7 8.1.4 12.5 6.9 2.4 14.5-.4 21.2-2.7 1-3.7 1.4-7 1-10.1 0-.6-.3-1.3-.8-1.9z"/><path id="XMLID_309_" d="M195.5 492.7s6.2 4.8 15.1 4.3c8.9-.5 13-4.8 13-4.8l-4.4-9.3s-7.4 2.2-10.4 2.1c-3-.2-10.9-1.9-10.9-1.9l-2.4 9.6z" fill="#5c4847"/><path id="XMLID_308_" d="M212.1 484.7c-1.3.2-2.5.4-3.4.3-.5 0-1.1-.1-1.7-.2-.2 2.2-.4 4.4-1.1 6.5l-1.5 5.1c1.8.4 3.9.6 6.1.5 1.3-.1 2.5-.2 3.6-.4-.7-3.8-1.4-7.8-2-11.8z" opacity=".55" fill="#655756"/><path id="XMLID_307_" class="st22" d="M205.7 432.7c-6.4 0-14.7 1.4-21.5-.2l7.9 32.9s4.1 3.8 18.3 2.8c14.2-1 14-3.7 14-3.7l7.8-32.1c-8.8.7-17.6.3-26.5.3z"/><path id="XMLID_306_" d="M216.9 464c.7-4.1 1.4-8.1 2.4-12.1 1.5-6.4 3.6-12.7 5.1-19.1-6.2.1-12.4-.1-18.7-.1h-1.3c1.5 11 4.5 21.7 6.2 32.7 2.3-.2 4.3-.7 6.3-1.4z" fill="#6e5d5c"/><path id="XMLID_305_" d="M204.7 449.8c8 0 15.8-.1 23.6-1.4l3.9-16c-2.6.2-5.2.3-7.8.4-6.2.1-12.4-.1-18.7-.1h-1.3c-6.2.1-13.9 1.2-20.2-.2l3.9 16.3c5.6.2 11.2 1 16.6 1z" opacity=".55" fill="#6e5d5c"/><linearGradient id="XMLID_407_" gradientUnits="userSpaceOnUse" x1="225.472" y1="445.812" x2="221.76" y2="424.112"><stop offset="0" stop-color="#912028"/><stop offset=".444" stop-color="#912028"/></linearGradient><path id="XMLID_304_" d="M288.2 401c-4.3 0-61 3.3-63.8 4 0 0-66.8 14.2-73.9 21.5 3.3 1.1 6.6 2.1 10 2.7 8.4 1.5 16.7 2.8 25.2 3.8 17.7 2 35.2 4.3 52.9 5.4 21.2-1.5 43.4-4.6 46.3-9.4 4.2-6.9 7.5-28 3.3-28z" fill="url(#XMLID_407_)"/><path id="XMLID_303_" d="M160.5 429.2c8.4 1.5 16.7 2.8 25.2 3.8 17.7 2 35.2 4.3 52.9 5.4h.7c-3.1-3.4-5.4-7.5-6.6-12.1-1.8-6.8-4.9-14.4-5.3-21.6-1.5.1-2.5.2-2.9.3 0 0-66.8 14.2-73.9 21.5 3.2 1.1 6.5 2.1 9.9 2.7z" fill="#55101c"/><path id="XMLID_302_" d="M175.7 399.3s29.7 24 55.7 24.4c26 .4 57.3-7.2 58.6-13 1.3-5.8 3-10.4-6.8-14.2-9.8-3.8-45.5-19.3-45.5-19.3s-74.9 9-62 22.1z" fill="#ab1e30"/><path id="XMLID_301_" d="M232.3 407.7c-.3-1.7.3-3.4 2.2-4.6 1.5-.9 3-1.7 4.5-2.5 1-1.3 2.6-2 4.1-2 6.4-3 13.1-5 20.2-5.3.5-1 .9-1.9 1.5-2.8.3-.5.6-.8 1-1.2-13.2-5.6-28.2-12.1-28.2-12.1s-74.8 9-62 22.1c0 0 29.7 24 55.7 24.4-2.1-4.5-.9-11.5 1-16z" fill="#91192f"/><path id="XMLID_300_" class="st41" d="M153.9 384.2s-7.2-41.9-15.6-65c-11.4-31.3-46-67.3-32.5-82.1 13.5-14.8 79.3-27.3 97.1-26.6s28.2 7.1 28.2 7.1-101.6 16.5-105.9 28.4c-4.3 11.9 27.4 26.6 34.6 72.2 7.3 45.6 18.1 52.9 12.4 69.3-5.8 16.5-18.3-3.3-18.3-3.3z"/><linearGradient id="XMLID_408_" gradientUnits="userSpaceOnUse" x1="275.372" y1="390.086" x2="197.527" y2="402.62"><stop offset=".134" stop-color="#ab1e30"/><stop offset="1" stop-color="#c4293c"/></linearGradient><path id="XMLID_299_" d="M175.7 399.3s29.1 14.5 55.1 15.3c29.5.8 61.3-11.9 57.8-15.1-1.2-1.1-2.9-2.1-5.4-3-9.8-3.8-45.5-19.3-45.5-19.3s-74.9 9-62 22.1z" fill="url(#XMLID_408_)"/><path id="XMLID_298_" d="M288.5 399.5c-1.2-1.1-2.9-2.1-5.4-3-3.6-1.4-10.8-4.4-18.4-7.6 7.3 10.2-13.7 17.1-25.6 18-9.8.8-25.5 1.7-35.2-1-10-2.8-17.9-8.6-26.5-14.1-3.4 2.3-4.4 4.8-1.8 7.5 0 0 29.1 14.5 55.1 15.3 29.6.8 61.4-12 57.8-15.1z" fill="#e51b49"/><linearGradient id="XMLID_409_" gradientUnits="userSpaceOnUse" x1="173.494" y1="236.711" x2="241.773" y2="381.185"><stop offset="0" stop-color="#c4293c"/><stop offset=".114" stop-color="#d12441"/><stop offset=".296" stop-color="#e21d48"/><stop offset=".428" stop-color="#ea194b"/><stop offset=".602" stop-color="#e81a4a"/><stop offset=".683" stop-color="#e11b48"/><stop offset=".709" stop-color="#dd1c46"/><stop offset=".861" stop-color="#c42032"/></linearGradient><path id="XMLID_297_" d="M172.2 387.6s32.2 2.8 68.8-6.3c0 0-3.5-42.3-3.5-54.7s4.5-41.1 7.7-56.2c3.2-15.1 7.2-53.2-27.5-56.7-34.6-3.5-92.5 10.6-95.5 27.5-3 16.8 19 39.7 27.6 65.1 8.7 25.5 16.3 49 22.4 81.3z" fill="url(#XMLID_409_)"/><path id="XMLID_296_" d="M235.1 314.6c-2.3 5.5-4.5 11-6.7 16.5-5.3 13.3-4.3 32.9-19.5 37.5-15.9 4.9-31.3-21.8-40.7-32-2.7-2.9-5.5-5.7-8.4-8.4 4.4 15.7 11.3 39.6 14.8 59.4 0 0 28.8 2.7 63-5.5 0 0-3.2-43.1-3.2-55.5 0-3.1.3-7.3.7-12z" opacity=".55" fill="#bf8d81"/><path d="M229.6 383.7c-4.2-12.9-14.1-76.2-18.1-96.3-4.2-21.5-2.5-31.2-21.8-28.4-19.3 2.7-16.7 6.8-15.6 29.5 1 19.5 18.2 81.8 23.1 99.1.9 0 1.8-.1 2.7-.2-2-7.5-9.2-34.7-13.6-51 6.7 3 8.9 4.7 15.5 4 5.7-.6 10.6-3.7 14.6-8.7 3.6 18.5 9.6 46.8 10.8 52.4.9-.1 1.7-.2 2.4-.4zm-51.9-117.1c4.2-4.2 20.7-5.8 24.3-3.5 4.8 3 7.8 26.4 9.9 41-4.3 4.3-11.4 6.9-16.1 7.4-8 .9-12.3-1.5-15.9-3.4-3.4-18.4-5.5-38.2-2.2-41.5zm7.7 65.7c-1.2-4.7-3.8-14.8-5-21.2 5.9 2.8 10.1 4.6 16.4 3.5 5.5-1 10.5-2.4 15.8-6.4 0 .2.1.5.1.7.8 4.7.8 6.7 3.1 18.8-4.4 4.6-9.5 8.6-13.8 9-7.8.8-9.3-2-16.6-4.4z" fill="#871d1a"/><linearGradient id="XMLID_410_" gradientUnits="userSpaceOnUse" x1="145.438" y1="249.971" x2="213.716" y2="394.445"><stop offset="0" stop-color="#c4293c"/><stop offset=".114" stop-color="#d12441"/><stop offset=".296" stop-color="#e21d48"/><stop offset=".428" stop-color="#ea194b"/><stop offset=".861" stop-color="#c4293c"/></linearGradient><path id="XMLID_292_" d="M200.5 378.7c-9 1.3-19.3 3.1-29.3 3.2.4 1.8.7 3.7 1.1 5.6 0 0 32.2 2.8 68.8-6.3 0 0-.4-5-.9-12-12.9 4.6-26 7.5-39.7 9.5z" opacity=".75" fill="url(#XMLID_410_)"/><path id="XMLID_291_" class="st48" d="M278.7 367.6s7.2 2.8 14.7 1.1c7.5-1.6 7.6-2.3 7.6-2.5 0-.2-.6-1.1-.7-1.3 0 0-3.3 2.1-8.7 2.8-3.7.5-8.6.2-12.9-.1z"/><path id="XMLID_290_" class="st48" d="M288.5 399.5s-1.5 1.7-5.9 3.9c-4.7 2.3-12.4 5-18.6 6.6-14 3.6-26.3 4.4-33.5 4.7 0 0 3.5 1.1 11 .3 9.3-.9 25.2-2.8 37.8-8.8 6.1-2.9 10.3-5.6 10.1-6-.1 0-.4-.3-.9-.7z"/><path id="XMLID_289_" class="st28" d="M150 428.1s2.4 12.5 54.5 10.6c0 0 13.3-28 14.6-32.2 1.2-4.2-7.9-27.2-7.9-27.2h-21.3l-60-13.3s15.1 21.3 18.3 33.4c3.2 12.3 1.8 28.7 1.8 28.7z"/><path id="XMLID_288_" class="st29" d="M191.1 397.4c1.9.1 3.7.2 5.6.1 7.2-.5 13.1-2.2 19.1-5.5-2.2-6.5-4.6-12.7-4.6-12.7h-21.3l-8.9-2v17c3.3 1.3 6.6 2.6 10.1 3.1z"/><path id="XMLID_287_" d="M201.7 406.8c-1.5-10.4-8.5-18.3-12.3-27.6L129.9 366s15.1 21.3 18.3 33.4c3.2 12.2 1.7 28.6 1.7 28.6s2.1 10.9 45.1 10.7c3.7-9.8 8.1-22.5 6.7-31.9z" fill="#a01c2c"/><path id="XMLID_286_" class="st41" d="M201.7 406.8c-1-6.6-4.1-12.1-7.3-17.7-3.6 9.1-12.5 14.7-24.2 13.9-7.8-.6-14.2-4.3-19.5-10-4.6-4.9-8.2-9.8-12.5-14.1 4.1 6.7 8.4 14.7 9.9 20.6 3.2 12.2 1.7 28.6 1.7 28.6s2.1 10.9 45.1 10.7c3.8-9.9 8.2-22.6 6.8-32z"/><path id="XMLID_285_" class="st27" d="M139.8 381.1c8.4 1.3 46.8 10.5 57.6 13.3-2.6-5.1-5.8-9.9-7.9-15.2L129.9 366s4.8 6.8 9.6 15c.1 0 .2 0 .3.1z"/><path id="XMLID_284_" class="st31" d="M125.5 369.2s51.5 11 65.1 16.4l22.9-4.6-2-11.8-87.6-14.7s-1.9 6.2 1.6 14.7z"/><path id="XMLID_283_" class="st32" d="M187.8 370.1s-1.2 11.8 1.9 15.6c3.1 3.8 19 3 28-2.3 0 0 .8-11.6-1.5-13.3.1 0-10.8 3.1-28.4 0z"/><path id="XMLID_282_" class="st30" d="M123.9 354.5s13.7-3.6 17.6-3c4 .5 70.9 12.7 74.7 18.6 0 0-17.2 5.5-28.7 3.1s-62.4-11.9-63.6-18.7z"/><path id="XMLID_281_" class="st48" d="M187.5 373.2s3.2 3.3 15.2 1.5c6.1-.9 14.1-3.8 14.1-3.8s0-.7-.6-1.1c-.6-.3-11.3 3-14.8 3.5-3.6.4-11.6.4-13.9-.1z"/><linearGradient id="XMLID_411_" gradientUnits="userSpaceOnUse" x1="180.655" y1="237.854" x2="244.468" y2="372.881"><stop offset="0" stop-color="#c4293c"/><stop offset=".17" stop-color="#d8262f"/><stop offset=".32" stop-color="#e62327"/><stop offset=".428" stop-color="#ed2224"/><stop offset=".861" stop-color="#a21c3d"/></linearGradient><path id="XMLID_280_" d="M147 287.3c15.6 5.1 31.2 9.5 47.2 2.9 14.6-6.1 27.3-16 39.9-25.4 3.5-2.6 6.8-5.2 10.1-8 .5-15.9-3.9-35.5-27.5-37.9-32.4-3.2-86.5 9.9-89.2 25.7-2 11.4 8.1 25.7 17 41.7.7.4 1.6.7 2.5 1z" opacity=".75" fill="url(#XMLID_411_)"/><path id="XMLID_279_" class="st51" d="M231.1 217.6s-4.4-2.7-12.4-4.7c-5.4 6.8-10.9 13.5-19.1 17.2-11.2 5.1-24.2 6.1-36.4 7.1-14.7 1.1-29.5 1.6-44.2.2-3.9-.4-7.8-1.1-11.7-1.8-.6.5-1.1 1-1.6 1.5-9.4 10.3 4.5 30.9 17.7 53 3.7.1 7.5-.5 11-.7 4.6-.3 9.8.4 14.2-1 8.5-2.6 20-7.6 24.1-16.2 5.3-11 8.7-29.2 22.7-32.3 17.9-3.9 20.7 31 37.7 23.2 5.6-2.6 10.1-7.2 14-12.2 0-12.6-3.5-26.6-16-33.3z"/><path id="XMLID_278_" class="st51" d="M224.6 299.8c1.8.4 3.7.1 5.4-.8 2.9-1.5 5.8-3.1 8.3-5.1 1.1-.8 2.1-1.7 3-2.5 1.2-7.8 2.6-15.4 3.8-21 .3-1.2.5-2.5.8-4-6.5 5.8-14.5 8.9-23.1 6.6-9-2.3-12.9-10.7-17.9-17.5-2.3-3.1-6.6-8.6-10.6-4.1-1.7 1.8-3.2 3.8-4.3 6-2 3.7-3.7 7.6-5.2 11.5-3.2 8.3-7.2 15.5-15 20.4-9.5 5.9-18.9 9.4-30.1 9.7-3.5.1-7.1.4-10.6.6 2.9 5.2 5.6 10.4 7.7 15.6 6.8 1.2 13.6 2.8 20.4 4.2 1.6.3 3.4.2 4.9-.4 11-4.2 17.1-9.7 24.9-17.9 4.9-5.2 10.9-8.9 18.3-7.4 5.7 1.1 10.7 4 16.3 5.4 1 .3 2 .5 3 .7z"/><g><path id="XMLID_277_" d="M103.8 246.3s13.9 49.2 21.8 49.2 45.9 1.1 47.9-1.9c1.9-3 18.1-41.6 14.1-42.6-4-1.1-84.5-13-83.8-4.7z" fill="#3ea8df"/><path id="XMLID_276_" class="st53" d="M140.5 262.2c15.5-1.4 30.6-.6 42.2 9.2 3.8-10.1 6.8-19.9 4.8-20.4-4-1-84.4-12.9-83.8-4.7 0 0 3 10.7 7 22.1 9.3-4.1 20.1-5.4 29.8-6.2z"/><path id="XMLID_275_" d="M187.5 250.9c-2.1-.5-25.1-4-46.5-6.1 12 13.3 18.4 32.7 17.3 50.7 7.9-.2 14.3-.8 15.1-2 1.9-3 18.1-41.6 14.1-42.6z" opacity=".55" fill="#e1dbdd"/><path id="XMLID_274_" d="M247.2 211.7s-52.4 35.6-48.9 39.9 24.2 29 25.9 28.7c1.6-.3 29.4-22.4 29.7-27.7.3-5.3-3.9-42.8-6.7-40.9z" fill="#ed1f31"/><path id="XMLID_273_" class="st53" d="M204.2 258.7c4.8-6.8 11.4-12.5 18.6-15.7 8.5-3.9 19.1-6.6 29.6-7.8-1.4-11.7-3.6-24.6-5.2-23.5 0 0-52.4 35.6-48.9 39.9.9 1.2 3.1 3.8 5.9 7.1z"/><path id="XMLID_272_" d="M247.2 211.7s-10.6 7.2-21.9 15.5c4.8 3.1 9 8.3 10.8 12.8 3.5 8.6 5.1 17.6 5.1 26.8 6.5-5.8 12.5-11.8 12.6-14.2.4-5.3-3.8-42.8-6.6-40.9z" opacity=".55" fill="#e0dbad"/><path class="st20" d="M246.5 204.5c-5.7.4-40.6 23.9-52.6 41.1 0 0-1.7 2-4.6.3-2.9-1.7-86-15.1-94-4 0 0-3.7 21.2 24.4 59.4 0 0 53.3 6.4 57.5-3.2s12.7-39.5 19.6-37.4c6.9 2.1 19.9 27.3 26.8 26.5 6.9-.8 29.4-18.3 33.1-32.3 3.8-14.1-4.6-50.8-10.2-50.4zm-76.2 84.6c-1.1 2.1-40.7 1.4-43.5.9-2.8-.5-17.3-33.1-15.9-38.7 1.4-5.7 69.5 4.6 69.5 4.6 3.4.5-9 31.1-10.1 33.2zm79.4-36.6c-.5 3.5-20.7 22.8-23.2 23.2-2.5.4-17-22.8-18.6-24.7-1.6-1.9 0-2.8 0-2.8 3.2-5.3 31.6-26.3 35.3-28.1 3.8-1.9 7 28.9 6.5 32.4z"/><path class="st20" d="M246.5 204.5c-5.7.4-40.6 23.9-52.6 41.1 0 0-1.7 2-4.6.3-2.9-1.7-86-15.1-94-4 0 0-3.7 21.2 24.4 59.4 0 0 53.3 6.4 57.5-3.2s12.7-39.5 19.6-37.4c6.9 2.1 19.9 27.3 26.8 26.5 6.9-.8 29.4-18.3 33.1-32.3 3.8-14.1-4.6-50.8-10.2-50.4zm-76.2 84.6c-1.1 2.1-40.7 1.4-43.5.9-2.8-.5-17.3-33.1-15.9-38.7 1.4-5.7 69.5 4.6 69.5 4.6 3.4.5-9 31.1-10.1 33.2zm79.4-36.6c-.5 3.5-20.7 22.8-23.2 23.2-2.5.4-17-22.8-18.6-24.7-1.6-1.9 0-2.8 0-2.8 3.2-5.3 31.6-26.3 35.3-28.1 3.8-1.9 7 28.9 6.5 32.4z"/><path id="XMLID_265_" class="st21" d="M252.4 214.1c-1.9-5.8-4.1-9.7-5.9-9.6-5.7.4-40.6 23.9-52.6 41.1 0 0-1.7 2-4.6.3-2.9-1.7-86-15.1-94-4 0 0-.2 1.3-.1 3.8 0-1.1.1-1.7.1-1.7 8-11.1 91.1 2.3 94 4 2.9 1.7 4.6-.3 4.6-.3 11.9-17.2 46.9-40.7 52.6-41.1 1.7-.1 5.9 7.5 5.9 7.5z"/><path id="XMLID_264_" class="st21" d="M249.7 254.6c-.5 3.5-20.7 22.8-23.2 23.2-2.5.4-17-22.8-18.6-24.7-1.1-1.3-.7-2.2-.3-2.6.1.2.2.3.3.5 1.6 1.9 16.1 25.1 18.6 24.7 2.5-.4 22.6-19.6 23.2-23.2v-.3c.1 1.1.1 1.9 0 2.4z"/><path id="XMLID_263_" class="st21" d="M170.3 291.2c-1.1 2.1-40.7 1.4-43.5.9-2.8-.5-17.2-32.8-15.9-38.6 1.1 9.1 13.3 36.1 15.9 36.6 2.8.5 42.4 1.2 43.5-.9.9-1.8 9.6-23 10.6-30.6 1.2 4.1-9.6 30.6-10.6 32.6z"/><path id="XMLID_262_" class="st57" d="M162 243.2c-2.4-.3-4.6-.6-7.2-.9-1.4 3.9-1.8 6-3.2 9.7 2.1.2 4.1.5 6 .7 1.8-3.8 2.5-5.7 4.4-9.5z"/><path id="XMLID_261_" class="st57" d="M256.2 230.2c-1.2 7.6-3.1 15.2-4.8 22.8-1.2 5.5-2.4 11-3.7 16.6 4.2-4.8 7.7-9.9 8.9-14.7 1.7-5.8 1.2-15.4-.4-24.7z"/><path id="XMLID_260_" class="st57" d="M236.6 211.3c-2.8 1.7-6.6 4.2-10 6.6-.3 1.2-.8 9.5-1.2 14.8 3.5-2.7 7.1-5.4 10.1-7.5.6-5.3.9-8.5 1.1-13.9z"/><path id="XMLID_259_" class="st57" d="M224.4 287c.6-3.8.8-5.7 1.5-9.6-2.3-1.9-4-4.4-7.1-8.6-1.2 4.7-2.1 7.9-3.4 12.6 3.1 3.5 6 6 8.2 5.7.2.1.5 0 .8-.1z"/><path id="XMLID_258_" class="st57" d="M140.5 292.6c-1.7 3.4-3.4 6.7-5 10.1-4.4-.3-8.4-.7-11.2-.9 1.8-3.2 3.4-6.3 5.3-9.5 5.1.2 7.6.1 10.9.3z"/><path id="XMLID_257_" class="st57" d="M113.9 239.9c0 .1.1-.2.1-.2 2.5-.1 5.1 0 7.8 0-1.4 3.4-2.8 6.8-4.2 9.9-3.9.1-6.4.6-6.7 1.7-.3 1.4.3 4.4 1.5 8.2-2.8 5.3-5.7 10.6-8.6 15.9-1.5-3.1-2.7-6-3.8-8.7 5.1-8.6 14-27.1 13.9-26.8z"/><ellipse id="XMLID_256_" transform="rotate(-21.1 245.241 211.529)" class="st58" cx="245.2" cy="211.6" rx="2.6" ry="2.3"/><ellipse id="XMLID_255_" transform="rotate(-21.1 103.8 247.202)" class="st58" cx="103.8" cy="247.2" rx="2.6" ry="2.3"/></g></g><linearGradient id="SVGID_1_" gradientUnits="userSpaceOnUse" x1="303.651" y1="273.107" x2="129.676" y2="566.038"><stop offset="0" stop-color="#e6d4a7"/><stop offset=".115" stop-color="#e3d0a8"/><stop offset=".254" stop-color="#dac4aa"/><stop offset=".406" stop-color="#cdafab"/><stop offset=".568" stop-color="#bb94aa"/><stop offset=".735" stop-color="#a675a7"/><stop offset=".749" stop-color="#a572a7"/><stop offset="1" stop-color="#622e62"/></linearGradient><path d="M349.7 485.3c0-.3.1-.6.1-.9 0-.2 0-.4.1-.5.1-1.1.3-2.2.4-3.4 0-.2.1-.4.1-.6.2-1.2.3-2.4.5-3.7v-.3c.2-1.3.4-2.7.6-4.1v-.2c.2-1.4.5-2.8.7-4.3 0-.2.1-.3.1-.5.2-1.5.5-3 .8-4.5 0-.1 0-.2.1-.3.6-3.2 1.2-6.5 1.8-9.9.1-.3.1-.5.2-.8.4-2 .8-4.1 1.2-6.1.8-4.1 1.7-8.4 2.7-12.6.2-1.1.5-2.1.7-3.2 2.4-10.7 4.9-21.7 7.5-32.2.8-3.2 1.5-6.3 2.3-9.3 6-24.1 11.4-44.5 13.5-52 .1-.5.2-.9.3-1.3.1-.4.2-.7.3-1 .1-.5.2-.7.2-.8-3.8-11.6-18.4-9.9-18.4-9.9-2-2.1-4.5-4-7.4-5.7 7.7-18.1 18.6-35.2 27.5-47.7v-.1c.7-1 1.4-1.9 2-2.8 7.9-10.9 13.9-17.7 13.9-17.7-12.4-3-6.7-12.7-2.6-17.8-1.6-.9-3.1-1.8-4.7-2.7-.3.3-.6.5-1 .7-.8.4-1.8.4-3.3-.1-.3-.1-.6-.3-.9-.4-.7-.4-1-.8-1.2-1.3 0-.1-.1-.2-.1-.3-.1-.7.1-1.5.6-2.2-.9-.6-1.8-1.2-2.7-1.7-.1.2-.2.4-.4.6-.6 1-1.5 1.7-2.6 1.5-.4-.1-.9-.2-1.4-.6-2-1.5-1.8-3.3-1-4.9-1-.6-2.1-1.2-3.1-1.8-.1.2-.2.4-.4.5l-.9.9c-.3.2-.7.4-1.1.5-.6.1-1.2.1-1.9-.3-.6-.3-1-.8-1.1-1.3-.1-.4-.1-.7-.1-1.1.1-.6.2-1.2.5-1.8-1.2-.6-2.4-1.3-3.6-1.9-.3.5-.6 1.1-1 1.5-.4.5-.8.9-1.2 1.2-.4.3-.9.5-1.4.6-.5 0-1-.1-1.4-.4-1.3-.9-1.2-2.4-.6-3.9.2-.5.5-1 .8-1.5-1.2-.6-2.4-1.3-3.6-1.9-.5.9-1.1 1.7-1.8 2.4-.4.3-.7.5-1.1.7-.4.1-.8.2-1.2.1-1.7-.4-1-3.1-.1-5.3-1.7-.9-3.3-1.8-5-2.7-1.4 6-3.3 9.5-5.2 11.4-.4.4-.9.8-1.3 1-1.3.8-2.7 1-3.9.9-.4 0-.8-.1-1.2-.2-2.5-.6-4.4-2.4-4.4-2.4l-1.2 4.8-.3 1.2c-.5 1.6-.9 3.1-1.5 4.7-.5 1.6-1.1 3.2-1.7 4.8-.1.4-.3.7-.4 1.1-.6 1.6-1.2 3.1-1.8 4.7-3 7.3-6.5 14.3-10.1 20.8-1.8 3.2-3.5 6.2-5.3 9.1-.6.9-1.1 1.9-1.7 2.8-.6.9-1.1 1.8-1.6 2.6l-.1.1c-.5.8-1 1.6-1.6 2.4 0 .1-.1.1-.1.2-.5.8-1 1.5-1.5 2.2-.1.1-.1.2-.2.3-.5.7-.9 1.4-1.3 2-.1.1-.1.2-.2.3l-1.2 1.8c-.1.1-.2.3-.3.4-.4.5-.7 1.1-1.1 1.6-.1.1-.2.3-.3.4-.3.5-.7 1-1 1.4-.1.1-.2.3-.3.4l-.1.1c-1.2.4-2.4.7-3.9.3-1.6-.4-2.7-1.9-4.5-1.9-4.6 0-5 6.6-3.7 10 1.3 3.5 4.4 5.2 7.6 5.6-1.3.6-2.6 1.1-4.1 1.4-2.6.4-4.8 0-7-.8-.1-1.1-.5-2.2-1-3.2-2.1-3.8-4.9-1.4-7.9-1.6-2.5-.2-3.9-2.8-6.4-3.2-2.2-.3-4 1-5.3 2.7-1.1 1.5-2 3.4-1 5.2.2.4.5.7.9 1-.9.6-1.8 1.3-2.7 1.9-2.6-1.9-5.9-2.9-8.6-2.1-2.7.8-7.3 4-8 7.5-1-1.4-2.4-2.5-4.3-2.9-.2-.1-.4 0-.7-.1.6-4.4 1.2-9 2-13.4.7-4.7 1.5-9.2 2.3-13.3 0-.2.1-.5.1-.7l.3-1.5c.1-.6.2-1.1.3-1.6.1-.4.1-.7.2-1.1v-.1c2.6-2.6 5-5.4 7.1-8.2.2-.3.5-.7.7-1 .3-.4.5-.8.8-1.2.4-.7.8-1.4 1.2-2l.3-.6c.3-.7.7-1.3.9-2 .1-.2.2-.4.3-.7.3-.8.6-1.6.8-2.4.2-.7.3-1.4.4-2.1 0-.1 0-.3.1-.4.1-.7.2-1.5.3-2.3v-.4c.1-.8.1-1.7.1-2.6v-3-.3c-.3-9.7-2.5-21.5-5.2-29.7v-.1c-.7-2.1-1.4-3.9-2.1-5.4 0-.1-.1-.2-.1-.2-.2-.4-.4-.8-.6-1.1 0-.1-.1-.1-.1-.2-.2-.4-.5-.8-.7-1.1-.2-.3-.4-.5-.7-.7l-.2-.2c-.2-.1-.3-.2-.5-.3-.1 0-.1-.1-.2-.1-.2-.1-.4-.1-.6-.1-.2 0-.4 0-.6.1-1.2.3-3 1.1-5.3 2.3-.9.5-1.9 1-2.9 1.6-3 .1-6.6.1-10.7.2 2.8-2 5-4.1 4-6.5-.1-.2-.3-.5-.4-.8l-.1-.1c-.2-.2-.4-.5-.6-.7l-.2-.2c-.3-.3-.7-.6-1.1-.9-.8-.6-1.6-1.1-2.5-1.6-5.1-3.2-11.4-5.4-14-5.9-.4-.1-.8-.1-1-.1-.4 0-2.7 1.1-6.2 2.9-1 .5-2.1 1.1-3.3 1.7l-1.8.9c-1.3.7-2.6 1.3-4 2.1-2.1 1.1-4.4 2.2-6.7 3.4-3.1 1.6-6.4 3.3-9.6 4.9l-3 1.5H151.2c-6.3-.1-12-.1-16.9-.3-1.8-.1-3.5-.1-5.1-.2-1 0-2-.1-3-.2-.9-.1-1.8-.1-2.5-.2-.6-.1-1.2.2-1.6.7-.1.2-.3.4-.5.6 0 .1-.1.1-.1.2-.2.2-.4.5-.6.8-.2.3-.5.6-.7.9-.1.1-.1.2-.2.2-.3.3-.5.7-.8 1-.3.4-.6.7-.9 1.1-.1.1-.2.2-.2.3l-.9 1.2c-.3.4-.6.8-.9 1.3-.1.1-.1.2-.2.3-.3.4-.6.9-.9 1.4-.3.4-.6.9-.8 1.4-.1.1-.1.2-.2.3-.5.9-1 1.9-1.5 2.8-.1.1-.1.2-.2.3-.4.9-.7 1.8-1 2.7 0 .1-.1.2-.1.3-.2.8-.3 1.7-.3 2.4v.3c0 .4.1.7.2 1.1.2.9.7 1.6 1.5 2.2l-2.4 1.5c-1 .4-1.9.7-2.9 1.1-.8.3-1.7.7-2.4 1-4.5 1.9-7.7 3.8-8.7 5.6v.1c-.2.2-.4.3-.5.5 0 0-3.7 21.2 24.4 59.4 0 0 2.7.3 6.9.7h.2c.7.1 1.5.1 2.3.2h.4c.3 0 .6.1.9.1 2.3 4.3 4.5 8.7 6.3 12.9.6 1.3 1.1 2.6 1.6 4 3.4 9.3 6.6 21.8 9.2 33.3-3.2-.6-5.4-1-6-1-4-.5-17.6 3-17.6 3s-1.9 6.2 1.6 14.7c0 0 3 .6 7.8 1.7l.6.9c.2.3.4.6.6 1 .2.3.4.6.6 1l.9 1.5c.2.3.4.7.6 1 .2.4.5.8.7 1.2.3.5.6.9.9 1.4.1.2.3.5.4.7.3.5.6 1.1 1 1.6.2.4.4.7.6 1.1.3.5.6 1.1.9 1.6.2.4.4.8.7 1.2.3.5.6 1 .8 1.5.2.4.5.9.7 1.3.2.5.5.9.7 1.4.2.5.5.9.7 1.4.2.4.4.9.6 1.3.2.5.4 1 .7 1.5.2.4.3.8.5 1.1.2.6.4 1.1.6 1.6l.3.9c.3.8.5 1.6.7 2.3 3.2 12.2 1.7 28.6 1.7 28.6v.4s0 .1.1.1c0 0 0 .1.1.1 0 0 0 .1.1.1 0 0 .1.1.1.2s.1.1.1.2.1.1.1.2.1.1.1.2l.2.2c0 .1.1.1.2.2l.2.2.2.2.2.2c.1.1.2.1.2.2l.3.3c.1.1.2.1.3.2.1.1.2.2.4.3.1.1.2.1.3.2.1.1.3.2.4.3.1.1.2.1.3.2.2.1.3.2.5.3.1.1.2.1.3.2.7.4 1.6.8 2.5 1.2.1 0 .2.1.3.1.3.1.5.2.8.3.2.1.3.1.5.2l.9.3c.2.1.4.1.6.2.3.1.6.2 1 .3.2.1.5.1.7.2.3.1.7.2 1 .3.3.1.5.1.8.2.4.1.7.2 1.1.3.3.1.6.1.9.2.4.1.8.2 1.2.2.3.1.6.1 1 .2s.9.2 1.3.2c.4.1.7.1 1.1.2.5.1.9.1 1.4.2.4.1.8.1 1.2.2.5.1 1 .1 1.5.2.4 0 .8.1 1.3.1.5.1 1.1.1 1.6.2.4 0 .9.1 1.4.1.6 0 1.1.1 1.7.1.5 0 1 .1 1.4.1.6 0 1.2.1 1.9.1.5 0 1 0 1.5.1h.4l6.5 26.7s1.9 1.8 7.6 2.6l1 4.3 1 4.3c-24.9 3.8-46.1 9.6-60.5 15.1-.2.1-.5.2-.7.3-.5.2-1.1.4-1.6.6-.3.1-.6.2-.9.4-.7.3-1.3.5-2 .8-.1.1-.3.1-.4.2-.8.3-1.5.6-2.2.9l-.6.3c-.5.2-1.1.5-1.6.7-.2.1-.4.1-.5.2-1.4.6-2.7 1.1-3.8 1.7-.1.1-.2.1-.3.1-.5.2-1 .4-1.4.6-.1 0-.2.1-.3.1-.5.2-1.1.5-1.5.7-4.2 1.9-6.4 3.1-6.4 3.1 2 1.1 4.2 2.3 6.3 3.4 8.1 4.3 16.2 8.3 24.1 11.9.1 0 .2.1.3.1 1 .5 2 .9 3 1.3 12.2 5.5 24.3 10.2 34.5 13 19.6 6 38.8 9.2 57.7 9.2 95.4 0 150-36.3 150-36.3-13.9-8.2-28.2-14.6-42.6-19.5-.8-.4-.9-.5-1.1-.6zM217.3 208.9c-2.3 0-4.6.1-7 .1h-2.5c-1.6 0-3.2 0-4.8.1 2-1.9 3.9-3.9 5.6-6 0 0 1.2-1.4 2.7 0 .8.7 3.2 3.7 6 5.8zm-91.7 13c-.1-1.1.7-2.1 1.9-2.1l18.3-.1c-7.2 1.9-14.1 4-20.2 6.3.2-1.5.1-3 0-4.1zm90.9 245.6c8-1.2 7.9-3.1 7.9-3.1l3.9-16.1 1-4.3.3 1.5c0 .2.1.4.1.5.3 1.4.6 2.7.8 4.1 0 .1 0 .2.1.3.2 1.1.5 2.2.7 3.3.1.3.1.6.2.9.2 1.2.5 2.4.7 3.6 0 .1 0 .2.1.3.2 1.2.5 2.4.7 3.5v.2c.2 1.2.5 2.4.7 3.6 0 .1 0 .2.1.3 0 .2.1.3.1.5.1.6.3 1.3.4 1.9.1.7.3 1.4.4 2.1v.2c.1.4.2.9.3 1.3 0 .2.1.5.1.7-6.7.4-13.2 1-19.5 1.8l.9-7.1z" opacity=".32" fill="url(#SVGID_1_)"/><g><path class="st60" d="M121.7 97.4h-18.9c0-7.1-3.8-11.6-10.8-11.6-8.4 0-11.6 5.8-11.6 14.2v5.7c0 8.4 3.4 14.2 11.5 14.2 7.8 0 11.6-4.2 11.6-11.3h18.3c0 16.9-10.8 26.1-29.6 26.1-21 0-32-10.8-32-31.9S71 70.9 92 70.9c17.9 0 29.7 9.3 29.7 26.5zM153 133.6h-19.8V72H153v61.6zM228.5 133.6h-17.3l-25.9-29.9v29.9h-18.2V72h17.3l25.9 30.4V72h18.2v61.6zM241.7 133.6V72H295v14.8h-33.5v8.5h28.7v14.1h-28.7v9.4h34.1v14.8h-53.9zM378.9 133.6h-19.6v-22.2c0-9.3 1.4-19.5 1.4-19.5h-.4L349 133.6h-15.5L322.1 92h-.4s1.6 10.1 1.6 19.4v22.2h-18.2V72H333l9.3 35.5h.4L352 72h27v61.6zM453.2 133.6h-21l-2.6-8.7H408l-2.6 8.7h-20.2L407.7 72h23l22.5 61.6zm-34.5-44.4l-6.5 21.9h13.3L419 89.2h-.3z"/></g><g><g id="XMLID_3282_"><g id="XMLID_3285_"><path id="XMLID_3689_" class="st61" d="M66.8 591.9H68v-6.6h-1.2v-2.5h6c2 0 3.5.5 4.5 1.5s1.5 2.4 1.5 4.3c0 .8-.1 1.5-.4 2.2-.3.7-.6 1.3-1.1 1.9-.5.5-1.1 1-1.9 1.3-.8.3-1.7.5-2.6.5H67v-2.6zm5.3 0c.4 0 .7-.1.9-.2.3-.1.5-.3.6-.5.2-.2.3-.5.4-.8.1-.3.2-.6.2-.9 0-.3.1-.6.1-.9v-.9c0-.3-.1-.6-.2-.9-.1-.3-.2-.6-.4-.8-.1-.2-.4-.4-.6-.5-.3-.1-.6-.2-.9-.2h-.3v6.6h.2z"/><path id="XMLID_3687_" class="st61" d="M85 593.4c-.3.4-.6.7-1.1.9-.4.2-1 .3-1.5.3-1.6 0-2.4-1-2.4-2.9V589h-.6v-2.2h4.1v4.6c0 .3.1.5.2.6.1.2.3.2.5.2s.4-.1.5-.2c.1-.2.2-.4.2-.6V589h-.6v-2.2h4.1v5.5h.5v2.2H85v-1.1z"/><path id="XMLID_3684_" class="st61" d="M94.3 592.3h.6v2.2h-4.7v-2.2h.6V589h-.6v-2.2h4.1v5.5zm-.5-6.5c.4-.3.6-.8.6-1.3s-.2-1-.6-1.3c-.4-.3-.9-.5-1.5-.5s-1.1.2-1.4.5c-.4.3-.6.7-.6 1.3 0 .6.2 1 .6 1.3.4.3.9.5 1.4.5.6 0 1.1-.1 1.5-.5z"/><path id="XMLID_3682_" class="st61" d="M101 589l-.1-.2c0-.1-.1-.2-.1-.3-.1-.1-.1-.2-.1-.2-.1-.1-.2-.2-.4-.3-.2-.1-.3-.1-.5-.1s-.3 0-.5.1c-.1.1-.2.2-.2.4 0 .1.1.3.2.4.1.1.3.2.5.2.2.1.4.1.6.2.2.1.4.1.4.1 1.2.5 1.7 1.3 1.7 2.3 0 1-.3 1.7-.8 2.2-.5.5-1.2.8-2.2.8-1 0-1.7-.2-2.2-.7l-.3.5h-1.3l.1-2.7h1.6c.1.3.2.6.4.9.2.3.5.4.8.4.2 0 .4 0 .5-.1.2-.1.2-.2.2-.4s-.1-.3-.2-.4c-.1-.1-.3-.2-.5-.3-.2-.1-.4-.2-.7-.2-.3-.1-.5-.2-.8-.3-.3-.1-.5-.3-.7-.4-.2-.2-.4-.4-.5-.7-.1-.3-.2-.6-.2-1 0-.6.1-1 .4-1.4.3-.4.6-.7 1.1-.8.4-.2.9-.3 1.5-.3.4 0 .8 0 1.2.1.4.1.6.1.7.2.1 0 .2.1.2.1l.2-.3h1.2v2.3H101z"/><path id="XMLID_3679_" class="st61" d="M107 591.3c.2-.3.4-.6.7-.7.3-.2.6-.3 1-.4.4-.1.8-.1 1.1-.1.7 0 1.3.1 1.8.3v-.3c0-.8-.5-1.2-1.5-1.2-.7 0-1.2.2-1.6.7h-1.3v-2.3l.5-.1c.3-.1.8-.2 1.4-.2.6-.1 1.1-.1 1.6-.1h.5c.2 0 .4 0 .7.1.3 0 .6.1.8.1.2.1.5.1.8.3.3.1.5.3.7.4.2.2.3.4.5.7.1.3.2.6.2.9v3.2h.5v2.2H112l-.4-.9c-.2.3-.6.6-1 .7-.4.2-.8.3-1.2.3-.8 0-1.4-.2-2-.6-.5-.4-.8-1-.8-1.7.1-.7.2-1 .4-1.3zm3.5 1.4c.1.1.3.2.5.2s.3 0 .4-.1c.1-.1.2-.1.3-.1l.1-.1v-1.1h-.1c-.1 0-.2-.1-.3-.1h-.3c-.2 0-.4.1-.5.2-.1.2-.2.4-.2.6-.1.2-.1.4.1.5z"/><path id="XMLID_3677_" class="st61" d="M121.7 593.4c-.3.4-.6.7-1.1.9-.4.2-1 .3-1.5.3-1.6 0-2.4-1-2.4-2.9V589h-.6v-2.2h4.1v4.6c0 .3.1.5.2.6.1.2.3.2.5.2s.4-.1.5-.2c.1-.2.2-.4.2-.6V589h-.6v-2.2h4.1v5.5h.5v2.2h-4.1v-1.1z"/><path id="XMLID_3675_" class="st61" d="M132.3 594.2l-.3.1c-.2.1-.5.2-.8.2-.4.1-.7.1-1.1.1-1.8 0-2.8-1-2.7-2.9V589h-.8v-2.2h.7v-1.7l3.5-.8v2.4h1.1v2.2h-1.1v2.3c0 .2.1.4.2.5.1.2.3.2.6.2.2 0 .5 0 .8-.1v2.4z"/><path id="XMLID_3672_" class="st61" d="M134.8 594.1c-.6-.4-1.1-.8-1.5-1.4-.4-.6-.5-1.2-.5-1.9 0-.8.2-1.5.5-2.1.3-.6.8-1.1 1.5-1.5.6-.4 1.4-.5 2.3-.5.8 0 1.5.2 2.2.5.6.4 1.1.8 1.4 1.4.3.6.5 1.2.5 1.9v.5c0 .1-.1.2-.1.2h-4.5c0 .5.1.9.3 1.2.2.3.5.5.9.5.3 0 .6-.1.8-.3.2-.2.2-.4.3-.7h2.2v1.6c-.6.4-1.3.7-1.9.8-.6.2-1.3.2-2.1.2-1 .1-1.7 0-2.3-.4zm1.6-4.1h1.6v-.4c0-.1 0-.3-.1-.4 0-.2-.1-.3-.2-.4-.1-.1-.3-.1-.4-.1-.3 0-.5.1-.6.4-.1.2-.2.5-.2.8v.1z"/><path id="XMLID_3669_" class="st61" d="M149.6 592.3h.6v2.2h-4.7v-2.2h.6V589h-.6v-2.2h4.1v5.5zm-.6-6.5c.4-.3.6-.8.6-1.3s-.2-1-.6-1.3c-.4-.3-.9-.5-1.5-.5s-1.1.2-1.4.5c-.4.3-.6.7-.6 1.3 0 .6.2 1 .6 1.3.4.3.9.5 1.4.5.6 0 1.1-.1 1.5-.5z"/><path id="XMLID_3667_" class="st61" d="M151.4 586.8h3.9v1.2c.2-.4.6-.7 1-.9.4-.2.9-.3 1.4-.3v3h-.8c-.5 0-.9.2-1.2.5-.3.3-.5.8-.5 1.3v.9h1v2.2h-4.9v-2.2h.6V589h-.6v-2.2z"/><path id="XMLID_3665_" class="st61" d="M163.8 593.4c-.3.4-.6.7-1.1.9-.4.2-1 .3-1.5.3-1.6 0-2.4-1-2.4-2.9V589h-.6v-2.2h4.1v4.6c0 .3.1.5.2.6.1.2.3.2.5.2s.4-.1.5-.2c.1-.2.2-.4.2-.6V589h-.6v-2.2h4.1v5.5h.5v2.2h-4.1v-1.1z"/><path id="XMLID_3663_" class="st61" d="M169.1 586.8h3.9v1.2c.2-.4.6-.7 1-.9.4-.2.9-.3 1.4-.3v3h-.8c-.5 0-.9.2-1.2.5-.3.3-.5.8-.5 1.3v.9h1v2.2H169v-2.2h.6V589h-.6v-2.2z"/><path id="XMLID_3660_" class="st61" d="M178 594.1c-.6-.4-1.1-.8-1.5-1.4-.4-.6-.5-1.2-.5-1.9 0-.8.2-1.5.5-2.1.3-.6.8-1.1 1.5-1.5.6-.4 1.4-.5 2.3-.5.8 0 1.5.2 2.2.5.6.4 1.1.8 1.4 1.4.3.6.5 1.2.5 1.9v.5c0 .1-.1.2-.1.2h-4.5c0 .5.1.9.3 1.2.2.3.5.5.9.5.3 0 .6-.1.8-.3.2-.2.2-.4.3-.7h2.2v1.6c-.6.4-1.3.7-1.9.8-.6.2-1.3.2-2.1.2-1 .1-1.7 0-2.3-.4zm1.6-4.1h1.6v-.4c0-.1 0-.3-.1-.4 0-.2-.1-.3-.2-.4-.1-.1-.3-.1-.4-.1-.3 0-.5.1-.6.4-.1.2-.2.5-.2.8v.1z"/><path id="XMLID_3657_" class="st61" d="M197.9 594.5h-4.1v-.9c-.2.3-.6.6-.9.8s-.8.3-1.2.3c-.5 0-1-.1-1.5-.4-.4-.2-.8-.6-1.1-1-.3-.4-.5-.8-.6-1.3-.1-.5-.2-1-.2-1.5s.1-1 .2-1.4c.2-.5.4-.9.6-1.2.3-.4.6-.7 1-.9.4-.2.9-.3 1.4-.3.4 0 .8.1 1.2.2.3.1.7.4 1 .7v-2.7h-.7v-2.2h4.2v9.6h.6v2.2zm-4.1-4.9l-.1-.1c-.1-.1-.2-.2-.4-.2-.2-.1-.3-.1-.5-.1-.3 0-.6.1-.8.4-.2.2-.3.6-.3 1v.4c0 .1 0 .3.1.5 0 .2.1.3.2.4l.3.3c.1.1.3.1.5.1.1 0 .2 0 .3-.1.1 0 .2-.1.3-.2l.2-.2c.1-.1.1-.1.1-.2v-2z"/><path id="XMLID_3654_" class="st61" d="M198.7 590.6c0-1.3.4-2.2 1.2-2.9.8-.7 1.8-1 3.2-1 1.4 0 2.4.3 3.2 1 .8.7 1.2 1.6 1.2 2.9 0 .8-.2 1.6-.6 2.2-.4.6-.9 1.1-1.5 1.4-.7.3-1.4.5-2.3.5-.9 0-1.6-.2-2.3-.5-.7-.3-1.2-.8-1.5-1.4-.4-.7-.6-1.4-.6-2.2zm3.4 0c0 1.2.3 1.8 1 1.8s1-.6 1-1.8v-.6c0-.2-.1-.3-.1-.5-.1-.2-.2-.3-.3-.4-.1-.1-.3-.1-.5-.1s-.4 0-.5.1c-.1.1-.2.2-.3.4-.1.2-.1.4-.1.5-.2.1-.2.3-.2.6z"/><path id="XMLID_3652_" class="st61" d="M212.3 592.3h.6v2.2h-4.7v-2.2h.5V585h-.6v-2.3h4.2v9.6z"/><path id="XMLID_3649_" class="st61" d="M213.7 590.6c0-1.3.4-2.2 1.2-2.9.8-.7 1.8-1 3.2-1 1.4 0 2.4.3 3.2 1 .8.7 1.2 1.6 1.2 2.9 0 .8-.2 1.6-.6 2.2-.4.6-.9 1.1-1.5 1.4-.7.3-1.4.5-2.3.5-.9 0-1.6-.2-2.3-.5-.7-.3-1.2-.8-1.5-1.4-.4-.7-.6-1.4-.6-2.2zm3.4 0c0 1.2.3 1.8 1 1.8s1-.6 1-1.8v-.6c0-.2-.1-.3-.1-.5-.1-.2-.2-.3-.3-.4-.1-.1-.3-.1-.5-.1s-.4 0-.5.1c-.1.1-.2.2-.3.4-.1.2-.1.4-.1.5-.2.1-.2.3-.2.6z"/><path id="XMLID_3647_" class="st61" d="M223.4 586.8h3.9v1.2c.2-.4.6-.7 1-.9.4-.2.9-.3 1.4-.3v3h-.8c-.5 0-.9.2-1.2.5-.3.3-.5.8-.5 1.3v.9h1v2.2h-4.9v-2.2h.6V589h-.6v-2.2z"/><path id="XMLID_3644_" class="st61" d="M238.2 592.3h.6v2.2h-4.7v-2.2h.6V589h-.6v-2.2h4.1v5.5zm-.6-6.5c.4-.3.6-.8.6-1.3s-.2-1-.6-1.3c-.4-.3-.9-.5-1.5-.5s-1.1.2-1.4.5c-.4.3-.6.7-.6 1.3 0 .6.2 1 .6 1.3.4.3.9.5 1.4.5.6 0 1.1-.1 1.5-.5z"/><path id="XMLID_3642_" class="st61" d="M244.1 587.9c.3-.4.6-.7 1.1-.9.4-.2 1-.3 1.5-.3 1.6 0 2.4 1 2.4 3v2.7h.6v2.2h-4.1V590c0-.2-.1-.4-.2-.6-.1-.1-.3-.2-.5-.2s-.4.1-.5.2c-.1.2-.2.4-.2.6v2.3h.6v2.2h-4.7v-2.2h.6V589h-.7v-2.2h4.1v1.1z"/><path id="XMLID_3640_" class="st61" d="M254.1 586.8h3.9v1.2c.2-.4.6-.7 1-.9.4-.2.9-.3 1.4-.3v3h-.8c-.5 0-.9.2-1.2.5-.3.3-.5.8-.5 1.3v.9h1v2.2H254v-2.2h.6V589h-.6v-2.2z"/><path id="XMLID_3637_" class="st61" d="M263 594.1c-.6-.4-1.1-.8-1.5-1.4-.4-.6-.5-1.2-.5-1.9 0-.8.2-1.5.5-2.1.3-.6.8-1.1 1.5-1.5.6-.4 1.4-.5 2.3-.5.8 0 1.5.2 2.2.5.6.4 1.1.8 1.4 1.4.3.6.5 1.2.5 1.9v.5c0 .1-.1.2-.1.2h-4.5c0 .5.1.9.3 1.2.2.3.5.5.9.5.3 0 .6-.1.8-.3.2-.2.2-.4.3-.7h2.2v1.6c-.6.4-1.3.7-1.9.8-.6.2-1.3.2-2.1.2-1 .1-1.7 0-2.3-.4zm1.5-4.1h1.6v-.4c0-.1 0-.3-.1-.4 0-.2-.1-.3-.2-.4-.1-.1-.3-.1-.4-.1-.3 0-.5.1-.6.4-.1.2-.2.5-.2.8v.1z"/><path id="XMLID_3634_" class="st61" d="M270 597.4v-2.2h.6V589h-.6v-2.2h4.1v.8h.1c.3-.3.6-.6.9-.8.3-.2.7-.2 1.2-.2s1 .1 1.4.3c.4.2.8.5 1 .9.3.4.5.8.6 1.3.1.5.2 1 .2 1.5s-.1 1-.2 1.5-.3.9-.6 1.3-.6.7-1 .9c-.4.2-.9.3-1.4.3-.2 0-.5 0-.7-.1-.2-.1-.4-.1-.6-.3-.2-.1-.4-.2-.5-.3-.1-.1-.2-.2-.4-.3v1.5h.8v2.2H270zm4-5.8c0 .1 0 .1.1.2 0 .1.1.2.2.2s.2.1.3.2c.1.1.3.1.4.1.2 0 .4-.1.6-.2.2-.1.3-.2.4-.4.1-.2.1-.4.2-.5 0-.2.1-.4.1-.6 0-.9-.4-1.4-1.2-1.4-.1 0-.3 0-.4.1-.1 0-.2.1-.3.2l-.2.2c0 .1-.1.1-.1.2v.1l-.1 1.6z"/><path id="XMLID_3632_" class="st61" d="M280.5 586.8h3.9v1.2c.2-.4.6-.7 1-.9.4-.2.9-.3 1.4-.3v3h-.8c-.5 0-.9.2-1.2.5-.3.3-.5.8-.5 1.3v.9h1v2.2h-4.9v-2.2h.6V589h-.6v-2.2z"/><path id="XMLID_3629_" class="st61" d="M289.4 594.1c-.6-.4-1.1-.8-1.5-1.4-.4-.6-.5-1.2-.5-1.9 0-.8.2-1.5.5-2.1.3-.6.8-1.1 1.5-1.5.6-.4 1.4-.5 2.3-.5.8 0 1.5.2 2.2.5.6.4 1.1.8 1.4 1.4.3.6.5 1.2.5 1.9v.5c0 .1-.1.2-.1.2h-4.5c0 .5.1.9.3 1.2.2.3.5.5.9.5.3 0 .6-.1.8-.3.2-.2.2-.4.3-.7h2.2v1.6c-.6.4-1.3.7-1.9.8-.6.2-1.3.2-2.1.2-1 .1-1.7 0-2.3-.4zm1.6-4.1h1.6v-.4c0-.1 0-.3-.1-.4 0-.2-.1-.3-.2-.4-.1-.1-.3-.1-.4-.1-.3 0-.5.1-.6.4-.1.2-.2.5-.2.8v.1z"/><path id="XMLID_3627_" class="st61" d="M296.4 592.3h.6v-7.4h-.6v-2.2h4.1v5.2c.1-.1.2-.2.2-.3l.2-.2c.1-.1.2-.2.3-.2.1 0 .2-.1.3-.2.1-.1.3-.1.4-.2.1 0 .2-.1.4-.1h.5c.8 0 1.5.2 1.9.7.5.5.7 1.2.7 2.1v2.9h.6v2.2h-4.2V590c0-.6-.2-.9-.6-.9-.5 0-.7.3-.7.8v2.3h.6v2.2h-4.7v-2.1z"/><path id="XMLID_3624_" class="st61" d="M308.7 594.1c-.6-.4-1.1-.8-1.5-1.4-.4-.6-.5-1.2-.5-1.9 0-.8.2-1.5.5-2.1.3-.6.8-1.1 1.5-1.5.6-.4 1.4-.5 2.3-.5.8 0 1.5.2 2.2.5.6.4 1.1.8 1.4 1.4.3.6.5 1.2.5 1.9v.5c0 .1-.1.2-.1.2h-4.5c0 .5.1.9.3 1.2.2.3.5.5.9.5.3 0 .6-.1.8-.3.2-.2.2-.4.3-.7h2.2v1.6c-.6.4-1.3.7-1.9.8-.6.2-1.3.2-2.1.2-1 .1-1.7 0-2.3-.4zm1.6-4.1h1.6v-.4c0-.1 0-.3-.1-.4 0-.2-.1-.3-.2-.4-.1-.1-.3-.1-.4-.1-.3 0-.5.1-.6.4-.1.2-.2.5-.2.8v.1z"/><path id="XMLID_3622_" class="st61" d="M320 587.9c.3-.4.6-.7 1.1-.9.4-.2 1-.3 1.5-.3 1.6 0 2.4 1 2.4 3v2.7h.6v2.2h-4.1V590c0-.2-.1-.4-.2-.6-.1-.1-.3-.2-.5-.2s-.4.1-.5.2c-.1.2-.2.4-.2.6v2.3h.6v2.2H316v-2.2h.6V589h-.6v-2.2h4.1v1.1z"/><path id="XMLID_3619_" class="st61" d="M335.8 594.5h-4.1v-.9c-.2.3-.6.6-.9.8-.4.2-.8.3-1.2.3-.5 0-1-.1-1.5-.4-.4-.2-.8-.6-1.1-1-.3-.4-.5-.8-.6-1.3-.1-.5-.2-1-.2-1.5s.1-1 .2-1.4c.2-.5.4-.9.6-1.2.3-.4.6-.7 1-.9.4-.2.9-.3 1.4-.3.4 0 .8.1 1.2.2.3.1.7.4 1 .7v-2.7h-.6v-2.2h4.2v9.6h.6v2.2zm-4.1-4.9l-.1-.1c-.1-.1-.2-.2-.4-.2-.2-.1-.3-.1-.5-.1-.3 0-.6.1-.8.4-.2.2-.3.6-.3 1v.4c0 .1 0 .3.1.5 0 .2.1.3.2.4l.3.3c.1.1.3.1.5.1.1 0 .2 0 .4-.1.1 0 .2-.1.3-.2l.2-.2c.1-.1.1-.1.1-.2v-2z"/><path id="XMLID_3616_" class="st61" d="M338.6 594.1c-.6-.4-1.1-.8-1.5-1.4-.4-.6-.5-1.2-.5-1.9 0-.8.2-1.5.5-2.1.3-.6.8-1.1 1.5-1.5.6-.4 1.4-.5 2.3-.5.8 0 1.5.2 2.2.5.6.4 1.1.8 1.4 1.4.3.6.5 1.2.5 1.9v.5c0 .1-.1.2-.1.2h-4.5c0 .5.1.9.3 1.2.2.3.5.5.9.5.3 0 .6-.1.8-.3.2-.2.2-.4.3-.7h2.2v1.6c-.6.4-1.3.7-1.9.8-.6.2-1.3.2-2.1.2-.9.1-1.7 0-2.3-.4zm1.6-4.1h1.6v-.4c0-.1 0-.3-.1-.4 0-.2-.1-.3-.2-.4-.1-.1-.3-.1-.4-.1-.3 0-.5.1-.6.4-.1.2-.2.5-.2.8v.1z"/><path id="XMLID_3614_" class="st61" d="M345.8 586.8h3.9v1.2c.2-.4.6-.7 1-.9.4-.2.9-.3 1.4-.3v3h-.8c-.5 0-.9.2-1.2.5-.3.3-.5.8-.5 1.3v.9h1v2.2h-4.9v-2.2h.6V589h-.6v-2.2z"/><path id="XMLID_3611_" class="st61" d="M357.1 592.3h.6v2.2H353v-2.2h.6V589h-.6v-2.2h4.1v5.5zm-.5-6.5c.4-.3.6-.8.6-1.3s-.2-1-.6-1.3c-.4-.3-.9-.5-1.5-.5s-1.1.2-1.4.5c-.4.3-.6.7-.6 1.3 0 .6.2 1 .6 1.3.4.3.9.5 1.4.5.6 0 1.1-.1 1.5-.5z"/><path id="XMLID_3609_" class="st61" d="M364.2 594.2l-.3.1c-.2.1-.5.2-.8.2-.4.1-.8.1-1.1.1-1.8 0-2.8-1-2.7-2.9V589h-.8v-2.2h.7v-1.7l3.5-.8v2.4h1.1v2.2h-1.1v2.3c0 .2 0 .4.2.5.1.2.3.2.6.2.2 0 .5 0 .8-.1v2.4z"/><path id="XMLID_3607_" class="st61" d="M377.3 586.8v2.2c-.3 0-.5 0-.7.1-.1.1-.3.2-.3.4l-2.1 4.9h-3.4l-2.3-5.5h-.5v-2.2h4.6v2.2h-.7l1.2 3.1.9-2.5c.1-.2 0-.4-.1-.4-.1-.1-.3-.1-.6-.1v-2.2h4z"/><path id="XMLID_3604_" class="st61" d="M377.7 590.6c0-1.3.4-2.2 1.2-2.9.8-.7 1.8-1 3.2-1 1.4 0 2.4.3 3.2 1 .8.7 1.2 1.6 1.2 2.9 0 .8-.2 1.6-.6 2.2-.4.6-.9 1.1-1.5 1.4-.7.3-1.4.5-2.3.5-.9 0-1.6-.2-2.3-.5-.7-.3-1.2-.8-1.5-1.4-.4-.7-.6-1.4-.6-2.2zm3.3 0c0 1.2.3 1.8 1 1.8s1-.6 1-1.8v-.6c0-.2-.1-.3-.1-.5-.1-.2-.2-.3-.3-.4-.1-.1-.3-.1-.5-.1s-.4 0-.5.1c-.1.1-.2.2-.3.4-.1.2-.1.4-.1.5-.1.1-.2.3-.2.6z"/><path id="XMLID_3602_" class="st61" d="M391.3 592.3h.6v2.2h-4.7v-2.2h.5V585h-.6v-2.3h4.2v9.6z"/><path id="XMLID_3600_" class="st61" d="M398.3 593.4c-.3.4-.6.7-1.1.9-.4.2-1 .3-1.5.3-1.6 0-2.4-1-2.4-2.9V589h-.6v-2.2h4.1v4.6c0 .3.1.5.2.6.1.2.3.2.5.2s.4-.1.5-.2c.1-.2.2-.4.2-.6V589h-.6v-2.2h4.1v5.5h.5v2.2h-4.1v-1.1z"/><path id="XMLID_3597_" class="st61" d="M403.4 597.4v-2.2h.6V589h-.5v-2.2h4.1v.8h.1c.3-.3.6-.6.9-.8.3-.2.7-.2 1.2-.2s1 .1 1.4.3c.4.2.8.5 1 .9.3.4.5.8.6 1.3.1.5.2 1 .2 1.5s-.1 1-.2 1.5-.3.9-.6 1.3-.6.7-1 .9c-.4.2-.9.3-1.4.3-.2 0-.5 0-.7-.1-.2-.1-.4-.1-.6-.3-.2-.1-.4-.2-.5-.3-.1-.1-.2-.2-.4-.3v1.5h.8v2.2h-5zm4.1-5.8c0 .1 0 .1.1.2 0 .1.1.2.2.2s.2.1.3.2c.1.1.3.1.4.1.2 0 .4-.1.6-.2.2-.1.3-.2.4-.4.1-.2.1-.4.2-.5 0-.2.1-.4.1-.6 0-.9-.4-1.4-1.2-1.4-.1 0-.3 0-.4.1-.1 0-.2.1-.3.2l-.2.2c0 .1-.1.1-.1.2v.1l-.1 1.6z"/><path id="XMLID_3595_" class="st61" d="M419.3 594.2l-.3.1c-.2.1-.5.2-.8.2-.4.1-.8.1-1.1.1-1.8 0-2.8-1-2.7-2.9V589h-.8v-2.2h.7v-1.7l3.5-.8v2.4h1.1v2.2h-1.1v2.3c0 .2 0 .4.2.5.1.2.3.2.6.2.2 0 .5 0 .8-.1v2.4z"/><path id="XMLID_3592_" class="st61" d="M420.1 591.3c.2-.3.4-.6.7-.7.3-.2.6-.3 1-.4.4-.1.8-.1 1.2-.1.7 0 1.3.1 1.8.3v-.3c0-.8-.5-1.2-1.5-1.2-.7 0-1.2.2-1.5.7h-1.3v-2.3l.5-.1c.3-.1.8-.2 1.4-.2.6-.1 1.1-.1 1.6-.1h.5c.2 0 .4 0 .7.1.3 0 .6.1.8.1.2.1.5.1.8.3.3.1.5.3.7.4.2.2.3.4.5.7.1.3.2.6.2.9v3.2h.5v2.2h-3.4l-.4-.9c-.2.3-.6.6-1 .7-.4.2-.8.3-1.2.3-.8 0-1.4-.2-2-.6-.5-.4-.8-1-.8-1.7-.1-.7 0-1 .2-1.3zm3.4 1.4c.1.1.3.2.5.2s.3 0 .4-.1c.1-.1.2-.1.3-.1l.1-.1v-1.1h-.1c-.1 0-.2-.1-.3-.1h-.3c-.2 0-.4.1-.5.2-.1.2-.2.4-.2.6-.1.2 0 .4.1.5z"/><path id="XMLID_3590_" class="st61" d="M434.9 594.2l-.3.1c-.2.1-.5.2-.8.2-.4.1-.8.1-1.1.1-1.8 0-2.8-1-2.7-2.9V589h-.8v-2.2h.7v-1.7l3.5-.8v2.4h1.1v2.2h-1.1v2.3c0 .2 0 .4.2.5.1.2.3.2.6.2.2 0 .5 0 .8-.1v2.4z"/><path id="XMLID_3587_" class="st61" d="M437.4 594.1c-.6-.4-1.1-.8-1.5-1.4-.4-.6-.5-1.2-.5-1.9 0-.8.2-1.5.5-2.1.3-.6.8-1.1 1.5-1.5.6-.4 1.4-.5 2.3-.5.8 0 1.5.2 2.2.5.6.4 1.1.8 1.4 1.4.3.6.5 1.2.5 1.9v.5c0 .1-.1.2-.1.2H439c0 .5.1.9.3 1.2.2.3.5.5.9.5.3 0 .6-.1.8-.3.2-.2.2-.4.3-.7h2.2v1.6c-.6.4-1.3.7-1.9.8-.6.2-1.3.2-2.1.2-.8.1-1.5 0-2.1-.4zm1.6-4.1h1.6v-.4c0-.1 0-.3-.1-.4 0-.2-.1-.3-.2-.4-.1-.1-.3-.1-.4-.1-.3 0-.5.1-.6.4-.1.2-.2.5-.2.8v.1z"/><path id="XMLID_3585_" class="st61" d="M74.8 604.5v2.2c-.3 0-.5 0-.7.1-.1.1-.3.2-.3.4l-2.1 4.9h-3.4l-2.3-5.5h-.5v-2.2h4.6v2.2h-.7l1.2 3.1.9-2.5c.1-.2 0-.4-.1-.4-.1-.1-.3-.1-.6-.1v-2.2h4z"/><path id="XMLID_3582_" class="st61" d="M77.2 611.9c-.6-.4-1.1-.8-1.5-1.4-.4-.6-.5-1.2-.5-1.9 0-.8.2-1.5.5-2.1.3-.6.8-1.1 1.5-1.5.6-.4 1.4-.5 2.3-.5.8 0 1.5.2 2.2.5.6.4 1.1.8 1.4 1.4.3.6.5 1.2.5 1.9v.5c0 .1-.1.2-.1.2H79c0 .5.1.9.3 1.2.2.3.5.5.9.5.3 0 .6-.1.8-.3.2-.2.2-.4.3-.7h2.2v1.6c-.6.4-1.3.7-1.9.8-.6.2-1.3.2-2.1.2-1 .1-1.7-.1-2.3-.4zm1.5-4.2h1.6v-.4c0-.1 0-.3-.1-.4 0-.2-.1-.3-.2-.4-.1-.1-.3-.1-.4-.1-.3 0-.5.1-.6.4-.1.2-.2.5-.2.8v.1z"/><path id="XMLID_3580_" class="st61" d="M88.3 610h.6v2.2h-4.7V610h.5v-7.3h-.6v-2.3h4.2v9.6z"/><path id="XMLID_3577_" class="st61" d="M94.2 610h.6v2.2h-4.7V610h.6v-3.3h-.6v-2.2h4.1v5.5zm-.6-6.4c.4-.3.6-.8.6-1.3s-.2-1-.6-1.3c-.4-.3-.9-.5-1.5-.5s-1.1.2-1.4.5c-.4.3-.6.7-.6 1.3 0 .6.2 1 .6 1.3.4.3.9.5 1.4.5.7 0 1.1-.2 1.5-.5z"/><path id="XMLID_3575_" class="st61" d="M101.2 611.9l-.2.1c-.2.1-.5.2-.8.2-.4.1-.7.1-1.1.1-1.8 0-2.8-1-2.7-2.9v-2.7h-.8v-2.2h.7v-1.7l3.5-.8v2.4h1.1v2.2h-1.1v2.3c0 .2.1.4.2.5.1.2.3.2.6.2.2 0 .5 0 .8-.1v2.4z"/><path id="XMLID_3572_" class="st61" d="M107.2 611.9c-.6-.4-1.1-.8-1.5-1.4-.4-.6-.5-1.2-.5-1.9 0-.8.2-1.5.5-2.1.3-.6.8-1.1 1.5-1.5.6-.4 1.4-.5 2.3-.5.8 0 1.5.2 2.2.5.6.4 1.1.8 1.4 1.4.3.6.5 1.2.5 1.9v.5c0 .1-.1.2-.1.2H109c0 .5.1.9.3 1.2.2.3.5.5.9.5.3 0 .6-.1.8-.3.2-.2.2-.4.3-.7h2.2v1.6c-.6.4-1.3.7-1.9.8-.6.2-1.3.2-2.1.2-.9.1-1.6-.1-2.3-.4zm1.6-4.2h1.6v-.4c0-.1 0-.3-.1-.4 0-.2-.1-.3-.2-.4-.1-.1-.3-.1-.4-.1-.3 0-.5.1-.6.4-.1.2-.2.5-.2.8v.1z"/><path id="XMLID_3570_" class="st61" d="M119.4 606.8l-.1-.2c0-.1-.1-.2-.1-.3-.1-.1-.1-.2-.1-.2-.1-.1-.2-.2-.4-.3-.2-.1-.3-.1-.5-.1s-.3 0-.5.1c-.1.1-.2.2-.2.4 0 .1.1.3.2.4.1.1.3.2.5.2.2.1.4.1.6.2.2.1.4.1.4.1 1.2.5 1.7 1.3 1.7 2.3 0 1-.3 1.7-.8 2.2-.5.5-1.2.8-2.2.8-1 0-1.7-.2-2.2-.7l-.3.5h-1.3l.1-2.7h1.6c.1.3.2.6.4.9.2.3.5.4.8.4.2 0 .4 0 .5-.1.2-.1.2-.2.2-.4s-.1-.3-.2-.4c-.1-.1-.3-.2-.5-.3-.2-.1-.4-.2-.7-.2-.3-.1-.5-.2-.8-.3-.3-.1-.5-.3-.7-.4-.2-.2-.4-.4-.5-.7-.1-.3-.2-.6-.2-1 0-.6.1-1 .4-1.4.3-.4.6-.7 1.1-.8.4-.2.9-.3 1.5-.3.4 0 .8 0 1.2.1.4.1.6.1.7.2.1 0 .2.1.2.1l.2-.3h1.2v2.3h-1.2z"/><path id="XMLID_3568_" class="st61" d="M127 606.8l-.1-.2c0-.1-.1-.2-.1-.3-.1-.1-.1-.2-.1-.2-.1-.1-.2-.2-.4-.3-.2-.1-.3-.1-.5-.1s-.3 0-.5.1c-.1.1-.2.2-.2.4 0 .1.1.3.2.4.1.1.3.2.5.2.2.1.4.1.6.2.2.1.4.1.4.1 1.2.5 1.7 1.3 1.7 2.3 0 1-.3 1.7-.8 2.2-.5.5-1.2.8-2.2.8-1 0-1.7-.2-2.2-.7l-.3.5h-1.3l.1-2.7h1.6c.1.3.2.6.4.9.2.3.5.4.8.4.2 0 .4 0 .5-.1.2-.1.2-.2.2-.4s-.1-.3-.2-.4c-.1-.1-.3-.2-.5-.3-.2-.1-.4-.2-.7-.2-.3-.1-.5-.2-.8-.3-.3-.1-.5-.3-.7-.4-.2-.2-.4-.4-.5-.7-.1-.3-.2-.6-.2-1 0-.6.1-1 .4-1.4.3-.4.6-.7 1.1-.8.4-.2.9-.3 1.5-.3.4 0 .8 0 1.2.1.4.1.6.1.7.2.1 0 .2.1.2.1l.2-.3h1.2v2.3H127z"/><path id="XMLID_3565_" class="st61" d="M131.3 611.9c-.6-.4-1.1-.8-1.5-1.4-.4-.6-.5-1.2-.5-1.9 0-.8.2-1.5.5-2.1.3-.6.8-1.1 1.5-1.5.6-.4 1.4-.5 2.3-.5.8 0 1.5.2 2.2.5.6.4 1.1.8 1.4 1.4.3.6.5 1.2.5 1.9v.5c0 .1-.1.2-.1.2h-4.5c0 .5.1.9.3 1.2.2.3.5.5.9.5.3 0 .6-.1.8-.3.2-.2.2-.4.3-.7h2.2v1.6c-.6.4-1.3.7-1.9.8-.6.2-1.3.2-2.1.2-1 .1-1.7-.1-2.3-.4zm1.6-4.2h1.6v-.4c0-.1 0-.3-.1-.4 0-.2-.1-.3-.2-.4-.1-.1-.3-.1-.4-.1-.3 0-.5.1-.6.4-.1.2-.2.5-.2.8v.1z"/><path id="XMLID_3563_" class="st61" d="M141.9 606.8c.2-.5.4-.9.7-1.3.3-.4.7-.6 1.2-.9.5-.2 1-.3 1.6-.3.7 0 1.3.2 1.9.7l.3-.6h1.3v3.2H147c0-.3-.1-.6-.3-.8-.2-.2-.4-.3-.6-.3-.3 0-.6.2-.8.5-.2.3-.3.8-.3 1.4 0 .2 0 .4.1.5 0 .2.1.3.2.5s.2.3.4.4c.2.1.3.1.5.1s.3 0 .4-.1c.1-.1.2-.1.3-.2.1-.1.1-.2.2-.3 0-.1.1-.2.1-.2v-.1h1.7v2.2c-.3.3-.8.6-1.4.8-.6.2-1.2.3-1.8.3-.8 0-1.4-.2-2-.5-.6-.3-1.1-.8-1.4-1.4-.4-.6-.5-1.4-.5-2.2-.2-.4-.1-.9.1-1.4z"/><path id="XMLID_3560_" class="st61" d="M154.1 610h.6v2.2H150V610h.6v-3.3h-.6v-2.2h4.1v5.5zm-.6-6.4c.4-.3.6-.8.6-1.3s-.2-1-.6-1.3c-.4-.3-.9-.5-1.5-.5s-1.1.2-1.4.5c-.4.3-.6.7-.6 1.3 0 .6.2 1 .6 1.3.4.3.9.5 1.4.5.6 0 1.1-.2 1.5-.5z"/><path id="XMLID_3558_" class="st61" d="M159.8 610h.6v2.2h-4.7V610h.5v-7.3h-.6v-2.3h4.2v9.6z"/><path id="XMLID_3556_" class="st61" d="M165.6 610h.6v2.2h-4.7V610h.5v-7.3h-.6v-2.3h4.2v9.6z"/><path id="XMLID_3554_" class="st61" d="M172.6 611.1c-.3.4-.6.7-1.1.9-.4.2-1 .3-1.5.3-1.6 0-2.4-1-2.4-2.9v-2.7h-.6v-2.2h4.1v4.6c0 .3.1.5.2.6.1.2.3.2.5.2s.4-.1.5-.2c.1-.2.2-.4.2-.6v-2.3h-.5v-2.2h4.1v5.5h.5v2.2h-4.1v-1.2z"/><path id="XMLID_3552_" class="st61" d="M183.2 612.2v-4.6c0-.5-.3-.7-.8-.7-.2 0-.3 0-.4.1-.1.1-.2.2-.2.4-.1.1-.1.3-.1.5v2.1h.6v2.2H178V610h.5v-3.3h-.5v-2.2h3.7v1.2l.6-.6c.2-.2.4-.3.7-.4.2-.1.5-.2.7-.3.2-.1.5-.1.7-.1.4 0 .8.1 1.1.4.3.2.6.6.8 1.1.6-1 1.5-1.4 2.5-1.4.3 0 .7 0 1 .1.3.1.6.2.8.5.2.2.4.5.6.8.1.3.2.7.2 1.2v3.1h.5v2.2h-3.8v-4.6c0-.2-.1-.4-.2-.6-.1-.1-.3-.2-.5-.2s-.3 0-.4.1c-.1.1-.2.1-.3.3-.1.1-.1.2-.2.4 0 .1-.1.3-.1.5v2h.6v2.2h-3.8z"/><path id="XMLID_3549_" class="st61" d="M205.5 612.2h-4.1v-.9c-.2.3-.6.6-.9.8s-.8.3-1.2.3c-.5 0-1-.1-1.5-.4-.4-.2-.8-.6-1.1-1-.3-.4-.5-.8-.6-1.3-.1-.5-.2-1-.2-1.5s.1-1 .2-1.4c.2-.5.4-.9.6-1.2.3-.4.6-.7 1-.9.4-.2.9-.3 1.4-.3.4 0 .8.1 1.2.2.3.1.7.4 1 .7v-2.7h-.7v-2.2h4.2v9.6h.6v2.2zm-4.1-4.9l-.1-.1c-.1-.1-.2-.2-.4-.2-.2-.1-.3-.1-.5-.1-.3 0-.6.1-.8.4-.2.2-.3.6-.3 1v.4c0 .1 0 .3.1.5 0 .2.1.3.2.4l.3.3c.1.1.3.1.5.1.1 0 .2 0 .3-.1.1 0 .2-.1.3-.2l.2-.2c.1-.1.1-.1.1-.2v-2z"/><path id="XMLID_3546_" class="st61" d="M206.3 608.3c0-1.3.4-2.2 1.2-2.9.8-.7 1.8-1 3.2-1 1.4 0 2.4.3 3.2 1 .8.7 1.2 1.6 1.2 2.9 0 .8-.2 1.6-.6 2.2-.4.6-.9 1.1-1.5 1.4-.7.3-1.4.5-2.3.5-.9 0-1.6-.2-2.3-.5-.7-.3-1.2-.8-1.5-1.4-.4-.6-.6-1.4-.6-2.2zm3.4 0c0 1.2.3 1.8 1 1.8s1-.6 1-1.8v-.6c0-.2-.1-.3-.1-.5-.1-.2-.2-.3-.3-.4-.1-.1-.3-.1-.5-.1s-.4 0-.5.1c-.1.1-.2.2-.3.4-.1.2-.1.4-.1.5-.2.2-.2.4-.2.6z"/><path id="XMLID_3544_" class="st61" d="M220 610h.6v2.2h-4.7V610h.5v-7.3h-.6v-2.3h4.2v9.6z"/><path id="XMLID_3541_" class="st61" d="M221.4 608.3c0-1.3.4-2.2 1.2-2.9s1.8-1 3.2-1c1.4 0 2.4.3 3.2 1 .8.7 1.2 1.6 1.2 2.9 0 .8-.2 1.6-.6 2.2-.4.6-.9 1.1-1.5 1.4-.7.3-1.4.5-2.3.5-.9 0-1.6-.2-2.3-.5-.7-.3-1.2-.8-1.5-1.4-.4-.6-.6-1.4-.6-2.2zm3.3 0c0 1.2.3 1.8 1 1.8s1-.6 1-1.8v-.6c0-.2-.1-.3-.1-.5-.1-.2-.2-.3-.3-.4-.1-.1-.3-.1-.5-.1s-.4 0-.5.1c-.1.1-.2.2-.3.4-.1.2-.1.4-.1.5-.2.2-.2.4-.2.6z"/><path id="XMLID_3539_" class="st61" d="M231.1 604.5h3.9v1.2c.2-.4.6-.7 1-.9.4-.2.9-.3 1.4-.3v3h-.8c-.5 0-.9.2-1.2.5-.3.3-.5.8-.5 1.3v.9h1v2.2H231V610h.6v-3.3h-.6v-2.2z"/><path id="XMLID_3536_" class="st61" d="M239.9 611.9c-.6-.4-1.1-.8-1.5-1.4-.4-.6-.5-1.2-.5-1.9 0-.8.2-1.5.5-2.1.3-.6.8-1.1 1.5-1.5.6-.4 1.4-.5 2.3-.5.8 0 1.5.2 2.2.5.6.4 1.1.8 1.4 1.4.3.6.5 1.2.5 1.9v.5c0 .1-.1.2-.1.2h-4.5c0 .5.1.9.3 1.2.2.3.5.5.9.5.3 0 .6-.1.8-.3.2-.2.2-.4.3-.7h2.2v1.6c-.6.4-1.3.7-1.9.8-.6.2-1.3.2-2.1.2-1 .1-1.7-.1-2.3-.4zm1.6-4.2h1.6v-.4c0-.1 0-.3-.1-.4 0-.2-.1-.3-.2-.4-.1-.1-.3-.1-.4-.1-.3 0-.5.1-.6.4-.1.2-.2.5-.2.8v.1z"/><path id="XMLID_3533_" class="st61" d="M252.2 611.9c-.6-.4-1.1-.8-1.5-1.4-.4-.6-.5-1.2-.5-1.9 0-.8.2-1.5.5-2.1.3-.6.8-1.1 1.5-1.5.6-.4 1.4-.5 2.3-.5.8 0 1.5.2 2.2.5.6.4 1.1.8 1.4 1.4.3.6.5 1.2.5 1.9v.5c0 .1-.1.2-.1.2H254c0 .5.1.9.3 1.2.2.3.5.5.9.5.3 0 .6-.1.8-.3.2-.2.2-.4.3-.7h2.2v1.6c-.6.4-1.3.7-1.9.8-.6.2-1.3.2-2.1.2-1 .1-1.7-.1-2.3-.4zm1.6-4.2h1.6v-.4c0-.1 0-.3-.1-.4 0-.2-.1-.3-.2-.4-.1-.1-.3-.1-.4-.1-.3 0-.5.1-.6.4-.1.2-.2.5-.2.8v.1z"/><path id="XMLID_3531_" class="st61" d="M264.6 611.1c-.3.4-.6.7-1.1.9-.4.2-1 .3-1.5.3-1.6 0-2.4-1-2.4-2.9v-2.7h-.6v-2.2h4.1v4.6c0 .3.1.5.2.6.1.2.3.2.5.2s.4-.1.5-.2c.1-.2.2-.4.2-.6v-2.3h-.6v-2.2h4.1v5.5h.5v2.2h-4.1v-1.2z"/><path id="XMLID_3529_" class="st61" d="M276.8 600.6c.4 0 .8 0 1.2.1.4.1.6.1.8.2.1 0 .2.1.3.1v2.2c-.3-.1-.5-.1-.7-.1-.3 0-.5.1-.6.3-.1.2-.2.6-.1 1.1h1.3v2.2h-1.2v3.3h.8v2.2h-4.9V610h.6v-3.3h-.6v-2.2h.6v-1c-.3-1.9.6-2.9 2.5-2.9z"/><path id="XMLID_3527_" class="st61" d="M285 611.1c-.3.4-.6.7-1.1.9-.4.2-1 .3-1.5.3-1.6 0-2.4-1-2.4-2.9v-2.7h-.6v-2.2h4.1v4.6c0 .3.1.5.2.6.1.2.3.2.5.2s.4-.1.5-.2c.1-.2.2-.4.2-.6v-2.3h-.6v-2.2h4.1v5.5h.5v2.2H285v-1.2z"/><path id="XMLID_3524_" class="st61" d="M292 614.9c-.5-.1-.8-.1-.9-.2-.1 0-.2-.1-.3-.1v-2.2c.9.3 1.8.5 2.6.5.3 0 .6 0 .8-.1.2 0 .4-.1.6-.2.2-.1.3-.3.4-.5.1-.2.1-.4.1-.8-.3.2-.6.4-1 .5-.4.1-.7.2-1.1.2-.5 0-1-.1-1.5-.3-.4-.2-.8-.5-1.1-.8-.3-.3-.5-.7-.7-1.2-.1-.4-.2-.9-.2-1.4 0-.7.1-1.3.4-1.9.3-.6.7-1.1 1.3-1.5.5-.4 1.2-.6 1.8-.6.7 0 1.5.2 2.3.7l.2-.5h3.3v2.2h-.6v4.5c0 2.5-1.7 3.8-5 3.8-.4.1-.9 0-1.4-.1zm1.4-5.7l.3.6c.2.2.4.3.6.3.2 0 .3-.1.4-.2.1-.1.2-.2.3-.4.1-.2.1-.3.2-.5 0-.2.1-.4.1-.5 0-.3 0-.5-.1-.8-.1-.2-.2-.5-.3-.7s-.4-.3-.6-.3c-.2 0-.4.1-.6.3-.2.2-.3.4-.3.6-.1.2-.1.5-.1.8.1.3.1.6.1.8z"/><path id="XMLID_3521_" class="st61" d="M304.5 610h.6v2.2h-4.7V610h.6v-3.3h-.6v-2.2h4.1v5.5zm-.5-6.4c.4-.3.6-.8.6-1.3s-.2-1-.6-1.3c-.4-.3-.9-.5-1.5-.5s-1.1.2-1.4.5c-.4.3-.6.7-.6 1.3 0 .6.2 1 .6 1.3.4.3.9.5 1.4.5.6 0 1.1-.2 1.5-.5z"/><path id="XMLID_3518_" class="st61" d="M306.1 609c.2-.3.4-.6.7-.7s.6-.3 1-.4c.4-.1.8-.1 1.2-.1.7 0 1.3.1 1.8.3v-.3c0-.8-.5-1.2-1.5-1.2-.7 0-1.2.2-1.5.7h-1.3V605l.5-.1c.3-.1.8-.2 1.4-.2.6-.1 1.1-.1 1.6-.1h.5c.2 0 .4 0 .7.1.3 0 .6.1.8.1.2.1.5.1.8.3.3.1.5.3.7.4.2.2.3.4.5.7.1.3.2.6.2.9v3.2h.5v2.2h-3.4l-.4-.9c-.2.3-.6.6-1 .7-.4.2-.8.3-1.2.3-.8 0-1.4-.2-2-.6-.5-.4-.8-1-.8-1.7-.1-.6 0-1 .2-1.3zm3.5 1.4c.1.1.3.2.5.2s.3 0 .4-.1c.1-.1.2-.1.3-.1l.1-.1v-1.1h-.1c-.1 0-.2-.1-.3-.1h-.3c-.2 0-.4.1-.5.2-.1.2-.2.4-.2.6-.1.2-.1.4.1.5z"/><path id="XMLID_3516_" class="st61" d="M320.9 611.9l-.3.1c-.2.1-.5.2-.8.2-.4.1-.8.1-1.1.1-1.8 0-2.8-1-2.7-2.9v-2.7h-.8v-2.2h.7v-1.7l3.5-.8v2.4h1.1v2.2h-1.1v2.3c0 .2 0 .4.2.5.1.2.3.2.6.2.2 0 .5 0 .8-.1v2.4z"/><path id="XMLID_3514_" class="st61" d="M329.4 605.6c.3-.4.6-.7 1.1-.9.4-.2 1-.3 1.5-.3 1.6 0 2.4 1 2.4 3v2.7h.6v2.2h-4.1v-4.5c0-.2-.1-.4-.2-.6-.1-.1-.3-.2-.5-.2s-.4.1-.5.2c-.1.2-.2.4-.2.6v2.3h.6v2.2h-4.7V610h.6v-3.3h-.6v-2.2h4.1v1.1z"/><path id="XMLID_3512_" class="st61" d="M341.2 611.1c-.3.4-.6.7-1.1.9-.4.2-1 .3-1.5.3-1.6 0-2.4-1-2.4-2.9v-2.7h-.6v-2.2h4.1v4.6c0 .3.1.5.2.6.1.2.3.2.5.2s.4-.1.5-.2c.1-.2.2-.4.2-.6v-2.3h-.6v-2.2h4.1v5.5h.5v2.2H341v-1.2z"/><path id="XMLID_3510_" class="st61" d="M350.5 610h.6v2.2h-4.7V610h.5v-7.3h-.6v-2.3h4.2v9.6z"/><path id="XMLID_3508_" class="st61" d="M356.3 610h.6v2.2h-4.7V610h.5v-7.3h-.6v-2.3h4.2v9.6z"/><path id="XMLID_3505_" class="st61" d="M357.8 609c.2-.3.4-.6.7-.7s.6-.3 1-.4c.4-.1.8-.1 1.2-.1.7 0 1.3.1 1.8.3v-.3c0-.8-.5-1.2-1.5-1.2-.7 0-1.2.2-1.5.7h-1.3V605l.5-.1c.3-.1.8-.2 1.4-.2.6-.1 1.1-.1 1.6-.1h.5c.2 0 .4 0 .7.1.3 0 .6.1.8.1.2.1.5.1.8.3.3.1.5.3.7.4.2.2.3.4.5.7.1.3.2.6.2.9v3.2h.5v2.2H363l-.4-.9c-.2.3-.6.6-1 .7-.4.2-.8.3-1.2.3-.8 0-1.4-.2-2-.6-.5-.4-.8-1-.8-1.7 0-.6.1-1 .2-1.3zm3.5 1.4c.1.1.3.2.5.2s.3 0 .4-.1c.1-.1.2-.1.3-.1l.1-.1v-1.1h-.1c-.1 0-.2-.1-.3-.1h-.3c-.2 0-.4.1-.5.2-.1.2-.2.4-.2.6-.1.2 0 .4.1.5z"/><path id="XMLID_3502_" class="st61" d="M370.6 615.1v-2.2h.6v-6.2h-.5v-2.2h4.1v.8h.1c.3-.3.6-.6.9-.8.3-.2.7-.2 1.2-.2s1 .1 1.4.3c.4.2.8.5 1 .9.3.4.5.8.6 1.3.1.5.2 1 .2 1.5s-.1 1-.2 1.5-.3.9-.6 1.3-.6.7-1 .9c-.4.2-.9.3-1.4.3-.2 0-.5 0-.7-.1-.2-.1-.4-.1-.6-.3-.2-.1-.4-.2-.5-.3-.1-.1-.2-.2-.4-.3v1.5h.8v2.2h-5zm4.1-5.8c0 .1 0 .1.1.2 0 .1.1.2.2.2.1.1.2.1.3.2.1.1.3.1.4.1.2 0 .4-.1.6-.2.2-.1.3-.2.4-.4.1-.2.1-.4.2-.5 0-.2.1-.4.1-.6 0-.9-.4-1.4-1.2-1.4-.1 0-.3 0-.4.1-.1 0-.2.1-.3.2l-.2.2c0 .1-.1.1-.1.2v.1l-.1 1.6z"/><path id="XMLID_3499_" class="st61" d="M381 609c.2-.3.4-.6.7-.7s.6-.3 1-.4c.4-.1.8-.1 1.2-.1.7 0 1.3.1 1.8.3v-.3c0-.8-.5-1.2-1.5-1.2-.7 0-1.2.2-1.5.7h-1.3V605l.5-.1c.3-.1.8-.2 1.4-.2.6-.1 1.1-.1 1.6-.1h.5c.2 0 .4 0 .7.1.3 0 .6.1.8.1.2.1.5.1.8.3.3.1.5.3.7.4.2.2.3.4.5.7.1.3.2.6.2.9v3.2h.5v2.2h-3.4l-.4-.9c-.2.3-.6.6-1 .7-.4.2-.8.3-1.2.3-.8 0-1.4-.2-2-.6-.5-.4-.8-1-.8-1.7-.1-.6 0-1 .2-1.3zm3.5 1.4c.1.1.3.2.5.2s.3 0 .4-.1c.1-.1.2-.1.3-.1l.1-.1v-1.1h-.1c-.1 0-.2-.1-.3-.1h-.3c-.2 0-.4.1-.5.2-.1.2-.2.4-.2.6-.1.2-.1.4.1.5z"/><path id="XMLID_3497_" class="st61" d="M390.5 604.5h3.9v1.2c.2-.4.6-.7 1-.9.4-.2.9-.3 1.4-.3v3h-.8c-.5 0-.9.2-1.2.5-.3.3-.5.8-.5 1.3v.9h1v2.2h-4.9V610h.6v-3.3h-.6v-2.2z"/><path id="XMLID_3494_" class="st61" d="M401.8 610h.6v2.2h-4.7V610h.6v-3.3h-.6v-2.2h4.1v5.5zm-.5-6.4c.4-.3.6-.8.6-1.3s-.2-1-.6-1.3c-.4-.3-.9-.5-1.5-.5s-1.1.2-1.4.5c-.4.3-.6.7-.6 1.3 0 .6.2 1 .6 1.3.4.3.9.5 1.4.5.6 0 1.1-.2 1.5-.5z"/><path id="XMLID_3491_" class="st61" d="M403.4 609c.2-.3.4-.6.7-.7.3-.2.6-.3 1-.4.4-.1.8-.1 1.2-.1.7 0 1.3.1 1.8.3v-.3c0-.8-.5-1.2-1.5-1.2-.7 0-1.2.2-1.5.7h-1.3V605l.5-.1c.3-.1.8-.2 1.4-.2.6-.1 1.1-.1 1.6-.1h.5c.2 0 .4 0 .7.1.3 0 .6.1.8.1.2.1.5.1.8.3.3.1.5.3.7.4.2.2.3.4.5.7.1.3.2.6.2.9v3.2h.5v2.2h-3.4l-.4-.9c-.2.3-.6.6-1 .7-.4.2-.8.3-1.2.3-.8 0-1.4-.2-2-.6-.5-.4-.8-1-.8-1.7 0-.6.1-1 .2-1.3zm3.5 1.4c.1.1.3.2.5.2s.3 0 .4-.1c.1-.1.2-.1.3-.1l.1-.1v-1.1h-.1c-.1 0-.2-.1-.3-.1h-.3c-.2 0-.4.1-.5.2-.1.2-.2.4-.2.6-.1.2 0 .4.1.5z"/><path id="XMLID_3489_" class="st61" d="M418.2 611.9l-.2.1c-.2.1-.5.2-.8.2-.4.1-.8.1-1.1.1-1.8 0-2.8-1-2.7-2.9v-2.7h-.8v-2.2h.7v-1.7l3.5-.8v2.4h1.1v2.2h-1.1v2.3c0 .2 0 .4.2.5.1.2.3.2.6.2.2 0 .5 0 .8-.1v2.4z"/><path id="XMLID_3487_" class="st61" d="M424.4 611.1c-.3.4-.6.7-1.1.9-.4.2-1 .3-1.5.3-1.6 0-2.4-1-2.4-2.9v-2.7h-.6v-2.2h4.1v4.6c0 .3.1.5.2.6.1.2.3.2.5.2s.4-.1.5-.2c.1-.2.2-.4.2-.6v-2.3h-.6v-2.2h4.1v5.5h.5v2.2h-4.1v-1.2z"/><path id="XMLID_3485_" class="st61" d="M429.7 604.5h3.9v1.2c.2-.4.6-.7 1-.9.4-.2.9-.3 1.4-.3v3h-.8c-.5 0-.9.2-1.2.5-.3.3-.5.8-.5 1.3v.9h1v2.2h-4.9V610h.6v-3.3h-.6v-2.2z"/><path id="XMLID_3483_" class="st61" d="M436.7 613.9h.6c.2 0 .3-.1.4-.2.1-.1.2-.1.2-.2.1-.1.1-.2.1-.3v-.4-.5h-1.4v-2.6h3.7c.1.7.2 1.4.2 2 0 1.3-.3 2.3-.9 2.9-.6.6-1.6.9-2.9.9v-1.6z"/><path id="XMLID_3480_" class="st61" d="M68.9 629.6c-.6-.4-1.1-.8-1.5-1.4-.4-.6-.5-1.2-.5-1.9 0-.8.2-1.5.5-2.1.3-.6.8-1.1 1.5-1.5.6-.4 1.4-.5 2.3-.5.8 0 1.5.2 2.2.5.6.4 1.1.8 1.4 1.4.3.6.5 1.2.5 1.9v.5c0 .1-.1.2-.1.2h-4.5c0 .5.1.9.3 1.2.2.3.5.5.9.5.3 0 .6-.1.8-.3.2-.2.2-.4.3-.7h2v1.6c-.6.4-1.3.7-1.9.8-.6.2-1.3.2-2.1.2-.8.1-1.5-.1-2.1-.4zm1.6-4.1H72v-.4c0-.1 0-.3-.1-.4 0-.2-.1-.3-.2-.4-.1-.1-.3-.1-.4-.1-.3 0-.5.1-.6.4-.1.2-.2.5-.2.8v.1z"/><path id="XMLID_3478_" class="st61" d="M83.8 630h-3.3l-1.4-2-1.5 2h-2v-2.2h.9l1.3-1.5-1.3-1.8h-.8v-2.2h3.4l1.2 1.8 1.3-1.8h1.8v2.2h-.8l-1.2 1.3 1.4 2h.8v2.2z"/><path id="XMLID_3476_" class="st61" d="M84.7 624.5c.2-.5.4-.9.7-1.3.3-.4.7-.6 1.2-.9.5-.2 1-.3 1.6-.3.7 0 1.3.2 1.9.7l.3-.6h1.3v3.2H90c0-.3-.1-.6-.3-.8-.2-.2-.4-.3-.6-.3-.3 0-.6.2-.8.5s-.3.8-.3 1.4c0 .2 0 .4.1.5 0 .2.1.3.2.5s.2.3.4.4c.2.1.3.1.5.1s.3 0 .4-.1c.1-.1.2-.1.3-.2s.1-.2.2-.3c0-.1.1-.2.1-.2v-.1h1.7v2.2c-.3.3-.8.6-1.4.8-.6.2-1.2.3-1.8.3-.8 0-1.4-.2-2-.5-.6-.3-1.1-.8-1.4-1.4-.4-.6-.5-1.4-.5-2.2-.4-.4-.3-.9-.1-1.4z"/><path id="XMLID_3473_" class="st61" d="M94.4 629.6c-.6-.4-1.1-.8-1.5-1.4-.4-.6-.5-1.2-.5-1.9 0-.8.2-1.5.5-2.1.3-.6.8-1.1 1.5-1.5.6-.4 1.4-.5 2.3-.5.8 0 1.5.2 2.2.5.6.4 1.1.8 1.4 1.4.3.6.5 1.2.5 1.9v.5c0 .1-.1.2-.1.2h-4.5c0 .5.1.9.3 1.2.2.3.5.5.9.5.3 0 .6-.1.8-.3.2-.2.2-.4.3-.7h2.2v1.6c-.6.4-1.3.7-1.9.8-.6.2-1.3.2-2.1.2-1 .1-1.7-.1-2.3-.4zm1.6-4.1h1.6v-.4c0-.1 0-.3-.1-.4 0-.2-.1-.3-.2-.4-.1-.1-.3-.1-.4-.1-.3 0-.5.1-.6.4-.1.2-.2.5-.2.8v.1z"/><path id="XMLID_3470_" class="st61" d="M101.4 632.8v-2.2h.6v-6.2h-.5v-2.2h4.1v.8h.1c.3-.3.6-.6.9-.8.3-.2.7-.2 1.2-.2s1 .1 1.4.3c.4.2.8.5 1 .9.3.4.5.8.6 1.3.1.5.2 1 .2 1.5s-.1 1-.2 1.5-.3.9-.6 1.3-.6.7-1 .9c-.4.2-.9.3-1.4.3-.3 0-.5 0-.7-.1-.2-.1-.4-.1-.6-.3-.2-.1-.4-.2-.5-.3-.1-.1-.2-.2-.4-.3v1.5h.8v2.2h-5zm4.1-5.8c0 .1 0 .1.1.2 0 .1.1.2.2.2.1.1.2.1.3.2.1.1.3.1.4.1.2 0 .4-.1.6-.2.2-.1.3-.2.4-.4.1-.2.1-.4.2-.5 0-.2.1-.4.1-.6 0-.9-.4-1.4-1.2-1.4-.1 0-.3 0-.4.1-.1 0-.2.1-.3.2l-.2.2c0 .1-.1.1-.1.2v.1l-.1 1.6z"/><path id="XMLID_3468_" class="st61" d="M117.3 629.6l-.3.1c-.2.1-.5.2-.8.2-.4.1-.7.1-1.1.1-1.8 0-2.8-1-2.7-2.9v-2.7h-.8v-2.2h.7v-1.7l3.5-.8v2.4h1.1v2.2h-1.1v2.3c0 .2.1.4.2.5.1.2.3.2.6.2.2 0 .5 0 .8-.1v2.4z"/><path id="XMLID_3465_" class="st61" d="M119.9 629.6c-.6-.4-1.1-.8-1.5-1.4-.4-.6-.5-1.2-.5-1.9 0-.8.2-1.5.5-2.1.3-.6.8-1.1 1.5-1.5.6-.4 1.4-.5 2.3-.5.8 0 1.5.2 2.2.5.6.4 1.1.8 1.4 1.4.3.6.5 1.2.5 1.9v.5c0 .1-.1.2-.1.2h-4.5c0 .5.1.9.3 1.2.2.3.5.5.9.5.3 0 .6-.1.8-.3.2-.2.2-.4.3-.7h2.2v1.6c-.6.4-1.3.7-1.9.8-.6.2-1.3.2-2.1.2-1 .1-1.7-.1-2.3-.4zm1.6-4.1h1.6v-.4c0-.1 0-.3-.1-.4 0-.2-.1-.3-.2-.4-.1-.1-.3-.1-.4-.1-.3 0-.5.1-.6.4-.1.2-.2.5-.2.8v.1z"/><path id="XMLID_3463_" class="st61" d="M132.4 628.9c-.3.4-.6.7-1.1.9-.4.2-1 .3-1.5.3-1.6 0-2.4-1-2.4-2.9v-2.7h-.6v-2.2h4.1v4.6c0 .3.1.5.2.6.1.2.3.2.5.2s.4-.1.5-.2c.1-.2.2-.4.2-.6v-2.3h-.6v-2.2h4.1v5.5h.5v2.2h-4.1v-1.2z"/><path id="XMLID_3461_" class="st61" d="M137.7 622.2h3.9v1.2c.2-.4.6-.7 1-.9.4-.2.9-.3 1.4-.3v3h-.8c-.5 0-.9.2-1.2.5-.3.3-.5.8-.5 1.3v.9h1v2.2h-4.9v-2.2h.6v-3.3h-.6v-2.4z"/><path id="XMLID_3459_" class="st61" d="M153.3 624.5l-.1-.2c0-.1-.1-.2-.1-.3-.1-.1-.1-.2-.1-.2-.1-.1-.2-.2-.4-.3-.2-.1-.3-.1-.5-.1s-.3 0-.5.1c-.1.1-.2.2-.2.4 0 .1.1.3.2.4.1.1.3.2.5.2.2.1.4.1.6.2.2.1.4.1.4.1 1.2.5 1.7 1.3 1.7 2.3 0 1-.3 1.7-.8 2.2-.5.5-1.2.8-2.2.8-1 0-1.7-.2-2.2-.7l-.3.5H148l.1-2.7h1.6c.1.3.2.6.4.9.2.3.5.4.8.4.2 0 .4 0 .5-.1s.2-.2.2-.4-.1-.3-.2-.4c-.1-.1-.3-.2-.5-.3-.2-.1-.4-.2-.7-.2-.3-.1-.5-.2-.8-.3-.3-.1-.5-.3-.7-.4-.2-.2-.4-.4-.5-.7-.1-.3-.2-.6-.2-1 0-.6.1-1 .4-1.4.3-.4.6-.7 1-.8.4-.2.9-.3 1.5-.3.4 0 .8 0 1.2.1.4.1.6.1.7.2.1 0 .2.1.2.1l.2-.3h1.2v2.3h-1.1z"/><path id="XMLID_3456_" class="st61" d="M160.1 627.8h.6v2.2H156v-2.2h.6v-3.3h-.6v-2.2h4.1v5.5zm-.6-6.5c.4-.3.6-.8.6-1.3s-.2-1-.6-1.3c-.4-.3-.9-.5-1.5-.5s-1.1.2-1.4.5c-.4.3-.6.7-.6 1.3 0 .6.2 1 .6 1.3.4.3.9.5 1.4.5.6 0 1.1-.2 1.5-.5z"/><path id="XMLID_3454_" class="st61" d="M165.9 623.4c.3-.4.6-.7 1.1-.9.4-.2 1-.3 1.5-.3 1.6 0 2.4 1 2.4 3v2.7h.6v2.2h-4.1v-4.5c0-.2-.1-.4-.2-.6-.1-.1-.3-.2-.5-.2s-.4.1-.5.2c-.1.2-.2.4-.2.6v2.3h.6v2.2h-4.7v-2.2h.6v-3.3h-.5v-2.2h4.1v1z"/><path id="XMLID_3452_" class="st61" d="M177.9 629.6l-.3.1c-.2.1-.5.2-.8.2-.4.1-.7.1-1.1.1-1.8 0-2.8-1-2.7-2.9v-2.7h-.8v-2.2h.7v-1.7l3.5-.8v2.4h1.1v2.2h-1.1v2.3c0 .2.1.4.2.5.1.2.3.2.6.2.2 0 .5 0 .8-.1v2.4z"/><path id="XMLID_3449_" class="st61" d="M181.9 626c0-1.3.4-2.2 1.2-2.9.8-.7 1.8-1 3.2-1 1.4 0 2.4.3 3.2 1 .8.7 1.2 1.6 1.2 2.9 0 .8-.2 1.6-.6 2.2-.4.6-.9 1.1-1.5 1.4-.7.3-1.4.5-2.3.5-.9 0-1.6-.2-2.3-.5-.7-.3-1.2-.8-1.5-1.4-.4-.6-.6-1.3-.6-2.2zm3.4 0c0 1.2.3 1.8 1 1.8s1-.6 1-1.8v-.6c0-.2-.1-.3-.1-.5-.1-.2-.2-.3-.3-.4-.1-.1-.3-.1-.5-.1s-.4 0-.5.1c-.1.1-.2.2-.3.4-.1.2-.1.4-.1.5-.2.2-.2.4-.2.6z"/><path id="XMLID_3447_" class="st61" d="M191.5 624.5c.2-.5.4-.9.7-1.3.3-.4.7-.6 1.2-.9.5-.2 1-.3 1.6-.3.7 0 1.3.2 1.9.7l.3-.6h1.3v3.2h-1.7c0-.3-.1-.6-.3-.8-.2-.2-.4-.3-.6-.3-.3 0-.6.2-.8.5-.2.3-.3.8-.3 1.4 0 .2 0 .4.1.5 0 .2.1.3.2.5s.2.3.4.4c.2.1.3.1.5.1s.3 0 .4-.1c.1-.1.2-.1.3-.2.1-.1.1-.2.2-.3 0-.1.1-.2.1-.2v-.1h1.7v2.2c-.3.3-.8.6-1.4.8-.6.2-1.2.3-1.8.3-.8 0-1.4-.2-2-.5-.6-.3-1.1-.8-1.4-1.4-.4-.6-.5-1.4-.5-2.2-.4-.4-.3-.9-.1-1.4z"/><path id="XMLID_3445_" class="st61" d="M199.5 624.5c.2-.5.4-.9.7-1.3.3-.4.7-.6 1.2-.9.5-.2 1-.3 1.6-.3.7 0 1.3.2 1.9.7l.3-.6h1.3v3.2h-1.7c0-.3-.1-.6-.3-.8-.2-.2-.4-.3-.6-.3-.3 0-.6.2-.8.5s-.3.8-.3 1.4c0 .2 0 .4.1.5 0 .2.1.3.2.5s.2.3.4.4c.2.1.3.1.5.1s.3 0 .4-.1c.1-.1.2-.1.3-.2s.1-.2.2-.3c0-.1.1-.2.1-.2v-.1h1.7v2.2c-.3.3-.8.6-1.4.8-.6.2-1.2.3-1.8.3-.8 0-1.4-.2-2-.5-.6-.3-1.1-.8-1.4-1.4-.4-.6-.5-1.4-.5-2.2-.3-.4-.3-.9-.1-1.4z"/><path id="XMLID_3442_" class="st61" d="M207.4 626.7c.2-.3.4-.6.7-.7.3-.2.6-.3 1-.4.4-.1.8-.1 1.1-.1.7 0 1.3.1 1.8.3v-.3c0-.8-.5-1.2-1.5-1.2-.7 0-1.2.2-1.6.7h-1.3v-2.3l.5-.1c.3-.1.8-.2 1.4-.2.6-.1 1.1-.1 1.6-.1h.5c.2 0 .4 0 .7.1.3 0 .6.1.8.1.2.1.5.1.8.3.3.1.5.3.7.4.2.2.3.4.5.7.1.3.2.6.2.9v3.2h.5v2.2h-3.4l-.4-.9c-.2.3-.6.6-1 .7-.4.2-.8.3-1.2.3-.8 0-1.4-.2-2-.6-.5-.4-.8-1-.8-1.7.2-.6.3-1 .4-1.3zm3.5 1.5c.1.1.3.2.5.2s.3 0 .4-.1c.1-.1.2-.1.3-.1l.1-.1V627h-.1c-.1 0-.2-.1-.3-.1h-.3c-.2 0-.4.1-.5.2-.1.2-.2.4-.2.6-.1.1 0 .3.1.5z"/><path id="XMLID_3439_" class="st61" d="M218.6 629.6c-.6-.4-1.1-.8-1.5-1.4-.4-.6-.5-1.2-.5-1.9 0-.8.2-1.5.5-2.1.3-.6.8-1.1 1.5-1.5.6-.4 1.4-.5 2.3-.5.8 0 1.5.2 2.2.5.6.4 1.1.8 1.4 1.4.3.6.5 1.2.5 1.9v.5c0 .1-.1.2-.1.2h-4.5c0 .5.1.9.3 1.2.2.3.5.5.9.5.3 0 .6-.1.8-.3.2-.2.2-.4.3-.7h2.2v1.6c-.6.4-1.3.7-1.9.8-.6.2-1.3.2-2.1.2-1 .1-1.7-.1-2.3-.4zm1.6-4.1h1.6v-.4c0-.1 0-.3-.1-.4 0-.2-.1-.3-.2-.4-.1-.1-.3-.1-.4-.1-.3 0-.5.1-.6.4-.1.2-.2.5-.2.8v.1z"/><path id="XMLID_3437_" class="st61" d="M225.7 624.5c.2-.5.4-.9.7-1.3.3-.4.7-.6 1.2-.9.5-.2 1-.3 1.6-.3.7 0 1.3.2 1.9.7l.3-.6h1.3v3.2H231c0-.3-.1-.6-.3-.8-.2-.2-.4-.3-.6-.3-.3 0-.6.2-.8.5-.2.3-.3.8-.3 1.4 0 .2 0 .4.1.5 0 .2.1.3.2.5s.2.3.4.4c.2.1.3.1.5.1s.3 0 .4-.1c.1-.1.2-.1.3-.2.1-.1.1-.2.2-.3 0-.1.1-.2.1-.2v-.1h1.7v2.2c-.3.3-.8.6-1.4.8-.6.2-1.2.3-1.8.3-.8 0-1.4-.2-2-.5-.6-.3-1.1-.8-1.4-1.4-.4-.6-.5-1.4-.5-2.2-.4-.4-.3-.9-.1-1.4z"/><path id="XMLID_3434_" class="st61" d="M233.6 626.7c.2-.3.4-.6.7-.7.3-.2.6-.3 1-.4.4-.1.8-.1 1.1-.1.7 0 1.3.1 1.8.3v-.3c0-.8-.5-1.2-1.5-1.2-.7 0-1.2.2-1.6.7H234v-2.3l.5-.1c.3-.1.8-.2 1.4-.2.6-.1 1.1-.1 1.6-.1h.5c.2 0 .4 0 .7.1.3 0 .6.1.8.1.2.1.5.1.8.3.3.1.5.3.7.4.2.2.3.4.5.7.1.3.2.6.2.9v3.2h.5v2.2h-3.4l-.4-.9c-.2.3-.6.6-1 .7-.4.2-.8.3-1.2.3-.8 0-1.4-.2-2-.6-.5-.4-.8-1-.8-1.7 0-.6 0-1 .2-1.3zm3.5 1.5c.1.1.3.2.5.2s.3 0 .4-.1c.1-.1.2-.1.3-.1l.1-.1V627h-.1c-.1 0-.2-.1-.3-.1h-.3c-.2 0-.4.1-.5.2-.1.2-.2.4-.2.6-.1.1 0 .3.1.5z"/><path id="XMLID_3432_" class="st61" d="M248.4 629.6l-.3.1c-.2.1-.5.2-.8.2-.4.1-.7.1-1.1.1-1.8 0-2.8-1-2.7-2.9v-2.7h-.8v-2.2h.7v-1.7l3.5-.8v2.4h1.1v2.2h-1.1v2.3c0 .2.1.4.2.5.1.2.3.2.6.2.2 0 .5 0 .8-.1v2.4z"/><path id="XMLID_3430_" class="st61" d="M252.7 624.5c.2-.5.4-.9.7-1.3.3-.4.7-.6 1.2-.9.5-.2 1-.3 1.6-.3.7 0 1.3.2 1.9.7l.3-.6h1.3v3.2H258c0-.3-.1-.6-.3-.8-.2-.2-.4-.3-.6-.3-.3 0-.6.2-.8.5-.2.3-.3.8-.3 1.4 0 .2 0 .4.1.5 0 .2.1.3.2.5s.2.3.4.4c.2.1.3.1.5.1s.3 0 .4-.1c.1-.1.2-.1.3-.2s.1-.2.2-.3c0-.1.1-.2.1-.2v-.1h1.7v2.2c-.3.3-.8.6-1.4.8-.6.2-1.2.3-1.8.3-.8 0-1.4-.2-2-.5-.6-.3-1.1-.8-1.4-1.4-.4-.6-.5-1.4-.5-2.2-.4-.4-.3-.9-.1-1.4z"/><path id="XMLID_3428_" class="st61" d="M266.1 628.9c-.3.4-.6.7-1.1.9-.4.2-1 .3-1.5.3-1.6 0-2.4-1-2.4-2.9v-2.7h-.6v-2.2h4.1v4.6c0 .3.1.5.2.6.1.2.3.2.5.2s.4-.1.5-.2c.1-.2.2-.4.2-.6v-2.3h-.6v-2.2h4.1v5.5h.5v2.2h-4.1v-1.2z"/><path id="XMLID_3425_" class="st61" d="M271.1 632.8v-2.2h.6v-6.2h-.5v-2.2h4.1v.8h.1c.3-.3.6-.6.9-.8.3-.2.7-.2 1.2-.2s1 .1 1.4.3c.4.2.8.5 1 .9.3.4.5.8.6 1.3.1.5.2 1 .2 1.5s-.1 1-.2 1.5-.3.9-.6 1.3-.6.7-1 .9c-.4.2-.9.3-1.4.3-.2 0-.5 0-.7-.1-.2-.1-.4-.1-.6-.3-.2-.1-.4-.2-.5-.3-.1-.1-.2-.2-.4-.3v1.5h.8v2.2h-5zm4.1-5.8c0 .1 0 .1.1.2 0 .1.1.2.2.2.1.1.2.1.3.2.1.1.3.1.4.1.2 0 .4-.1.6-.2.2-.1.3-.2.4-.4.1-.2.1-.4.2-.5 0-.2.1-.4.1-.6 0-.9-.4-1.4-1.2-1.4-.1 0-.3 0-.4.1-.1 0-.2.1-.3.2l-.2.2c0 .1-.1.1-.1.2v.1l-.1 1.6z"/><path id="XMLID_3422_" class="st61" d="M285.8 627.8h.6v2.2h-4.7v-2.2h.6v-3.3h-.6v-2.2h4.1v5.5zm-.6-6.5c.4-.3.6-.8.6-1.3s-.2-1-.6-1.3c-.4-.3-.9-.5-1.5-.5s-1.1.2-1.4.5c-.4.3-.6.7-.6 1.3 0 .6.2 1 .6 1.3.4.3.9.5 1.4.5.6 0 1.1-.2 1.5-.5z"/><path id="XMLID_3419_" class="st61" d="M296.7 630h-4.1v-.9c-.2.3-.6.6-.9.8-.4.2-.8.3-1.2.3-.5 0-1-.1-1.5-.4-.4-.2-.8-.6-1.1-1-.3-.4-.5-.8-.6-1.3-.1-.5-.2-1-.2-1.5s.1-1 .2-1.4c.2-.5.4-.9.6-1.2.3-.4.6-.7 1-.9.4-.2.9-.3 1.4-.3.4 0 .8.1 1.2.2.3.1.7.4 1 .7v-2.7h-.7v-2.2h4.2v9.6h.6v2.2zm-4.1-4.9l-.1-.1c-.1-.1-.2-.2-.4-.2-.2-.1-.3-.1-.5-.1-.3 0-.6.1-.8.4-.2.2-.3.6-.3 1v.4c0 .1 0 .3.1.5 0 .2.1.3.2.4l.3.3c.1.1.3.1.5.1.1 0 .2 0 .4-.1.1 0 .2-.1.3-.2l.2-.2c.1-.1.1-.1.1-.2v-2z"/><path id="XMLID_3416_" class="st61" d="M297.7 626.7c.2-.3.4-.6.7-.7s.6-.3 1-.4c.4-.1.8-.1 1.2-.1.7 0 1.3.1 1.8.3v-.3c0-.8-.5-1.2-1.5-1.2-.7 0-1.2.2-1.5.7h-1.3v-2.3l.5-.1c.3-.1.8-.2 1.4-.2.6-.1 1.1-.1 1.6-.1h.5c.2 0 .4 0 .7.1.3 0 .6.1.8.1.2.1.5.1.8.3.3.1.5.3.7.4.2.2.3.4.5.7.1.3.2.6.2.9v3.2h.5v2.2h-3.4l-.4-.9c-.2.3-.6.6-1 .7-.4.2-.8.3-1.2.3-.8 0-1.4-.2-2-.6-.5-.4-.8-1-.8-1.7-.1-.6 0-1 .2-1.3zm3.5 1.5c.1.1.3.2.5.2s.3 0 .4-.1c.1-.1.2-.1.3-.1l.1-.1V627h-.1c-.1 0-.2-.1-.3-.1h-.3c-.2 0-.4.1-.5.2-.1.2-.2.4-.2.6-.1.1-.1.3.1.5z"/><path id="XMLID_3414_" class="st61" d="M312.5 629.6l-.3.1c-.2.1-.5.2-.8.2-.4.1-.8.1-1.1.1-1.8 0-2.8-1-2.7-2.9v-2.7h-.8v-2.2h.7v-1.7l3.5-.8v2.4h1.1v2.2H311v2.3c0 .2 0 .4.2.5.1.2.3.2.6.2.2 0 .5 0 .8-.1v2.4z"/><path id="XMLID_3411_" class="st61" d="M313.2 626.7c.2-.3.4-.6.7-.7s.6-.3 1-.4c.4-.1.8-.1 1.2-.1.7 0 1.3.1 1.8.3v-.3c0-.8-.5-1.2-1.5-1.2-.7 0-1.2.2-1.5.7h-1.3v-2.3l.5-.1c.3-.1.8-.2 1.4-.2.6-.1 1.1-.1 1.6-.1h.5c.2 0 .4 0 .7.1.3 0 .6.1.8.1.2.1.5.1.8.3.3.1.5.3.7.4.2.2.3.4.5.7.1.3.2.6.2.9v3.2h.5v2.2h-3.4l-.4-.9c-.2.3-.6.6-1 .7-.4.2-.8.3-1.2.3-.8 0-1.4-.2-2-.6-.5-.4-.8-1-.8-1.7 0-.6.1-1 .2-1.3zm3.5 1.5c.1.1.3.2.5.2s.3 0 .4-.1c.1-.1.2-.1.3-.1l.1-.1V627h-.1c-.1 0-.2-.1-.3-.1h-.3c-.2 0-.4.1-.5.2-.1.2-.2.4-.2.6-.1.1 0 .3.1.5z"/><path id="XMLID_3409_" class="st61" d="M328 629.6l-.3.1c-.2.1-.5.2-.8.2-.4.1-.8.1-1.1.1-1.8 0-2.8-1-2.7-2.9v-2.7h-.8v-2.2h.7v-1.7l3.5-.8v2.4h1.1v2.2h-1.1v2.3c0 .2 0 .4.2.5.1.2.3.2.6.2.2 0 .5 0 .8-.1v2.4z"/><path id="XMLID_3407_" class="st61" d="M336.5 623.4c.3-.4.6-.7 1.1-.9.4-.2 1-.3 1.5-.3 1.6 0 2.4 1 2.4 3v2.7h.6v2.2H338v-4.5c0-.2-.1-.4-.2-.6-.1-.1-.3-.2-.5-.2s-.4.1-.5.2c-.1.2-.2.4-.2.6v2.3h.6v2.2h-4.7v-2.2h.6v-3.3h-.6v-2.2h4.1v1z"/><path id="XMLID_3404_" class="st61" d="M342.8 626c0-1.3.4-2.2 1.2-2.9.8-.7 1.8-1 3.2-1 1.4 0 2.4.3 3.2 1 .8.7 1.2 1.6 1.2 2.9 0 .8-.2 1.6-.6 2.2-.4.6-.9 1.1-1.5 1.4-.7.3-1.4.5-2.3.5-.9 0-1.6-.2-2.3-.5-.7-.3-1.2-.8-1.5-1.4-.5-.6-.6-1.3-.6-2.2zm3.3 0c0 1.2.3 1.8 1 1.8s1-.6 1-1.8v-.6c0-.2-.1-.3-.1-.5-.1-.2-.2-.3-.3-.4-.1-.1-.3-.1-.5-.1s-.4 0-.5.1c-.1.1-.2.2-.3.4-.1.2-.1.4-.1.5-.2.2-.2.4-.2.6z"/><path id="XMLID_3402_" class="st61" d="M356.5 623.4c.3-.4.6-.7 1.1-.9.4-.2 1-.3 1.5-.3 1.6 0 2.4 1 2.4 3v2.7h.6v2.2H358v-4.5c0-.2-.1-.4-.2-.6-.1-.1-.3-.2-.5-.2s-.4.1-.5.2c-.1.2-.2.4-.2.6v2.3h.6v2.2h-4.7v-2.2h.6v-3.3h-.6v-2.2h4.1v1z"/><path id="XMLID_3399_" class="st61" d="M366.4 632.8v-2.2h.6v-6.2h-.5v-2.2h4.1v.8h.1c.3-.3.6-.6.9-.8.3-.2.7-.2 1.2-.2s1 .1 1.4.3c.4.2.8.5 1 .9.3.4.5.8.6 1.3.1.5.2 1 .2 1.5s-.1 1-.2 1.5-.3.9-.6 1.3-.6.7-1 .9c-.4.2-.9.3-1.4.3-.2 0-.5 0-.7-.1-.2-.1-.4-.1-.6-.3-.2-.1-.4-.2-.5-.3-.1-.1-.2-.2-.4-.3v1.5h.8v2.2h-5zm4.1-5.8c0 .1 0 .1.1.2 0 .1.1.2.2.2.1.1.2.1.3.2.1.1.3.1.4.1.2 0 .4-.1.6-.2.2-.1.3-.2.4-.4.1-.2.1-.4.2-.5 0-.2.1-.4.1-.6 0-.9-.4-1.4-1.2-1.4-.1 0-.3 0-.4.1-.1 0-.2.1-.3.2l-.2.2c0 .1-.1.1-.1.2v.1l-.1 1.6z"/><path id="XMLID_3397_" class="st61" d="M377 622.2h3.9v1.2c.2-.4.6-.7 1-.9.4-.2.9-.3 1.4-.3v3h-.8c-.5 0-.9.2-1.2.5-.3.3-.5.8-.5 1.3v.9h1v2.2H377v-2.2h.6v-3.3h-.6v-2.4z"/><path id="XMLID_3394_" class="st61" d="M383.8 626c0-1.3.4-2.2 1.2-2.9.8-.7 1.8-1 3.2-1 1.4 0 2.4.3 3.2 1 .8.7 1.2 1.6 1.2 2.9 0 .8-.2 1.6-.6 2.2-.4.6-.9 1.1-1.5 1.4-.7.3-1.4.5-2.3.5-.9 0-1.6-.2-2.3-.5-.7-.3-1.2-.8-1.5-1.4-.4-.6-.6-1.3-.6-2.2zm3.4 0c0 1.2.3 1.8 1 1.8s1-.6 1-1.8v-.6c0-.2-.1-.3-.1-.5-.1-.2-.2-.3-.3-.4-.1-.1-.3-.1-.5-.1s-.4 0-.5.1c-.1.1-.2.2-.3.4-.1.2-.1.4-.1.5-.2.2-.2.4-.2.6z"/><path id="XMLID_3391_" class="st61" d="M397.5 627.8h.6v2.2h-4.7v-2.2h.6v-3.3h-.6v-2.2h4.1v5.5zm-.6-6.5c.4-.3.6-.8.6-1.3s-.2-1-.6-1.3c-.4-.3-.9-.5-1.5-.5s-1.1.2-1.4.5c-.4.3-.6.7-.6 1.3 0 .6.2 1 .6 1.3.4.3.9.5 1.4.5.7 0 1.2-.2 1.5-.5z"/><path id="XMLID_3388_" class="st61" d="M408.4 630h-4.1v-.9c-.2.3-.6.6-.9.8-.4.2-.8.3-1.2.3-.5 0-1-.1-1.5-.4-.4-.2-.8-.6-1.1-1-.3-.4-.5-.8-.6-1.3-.1-.5-.2-1-.2-1.5s.1-1 .2-1.4c.2-.5.4-.9.6-1.2.3-.4.6-.7 1-.9.4-.2.9-.3 1.4-.3.4 0 .8.1 1.2.2.3.1.7.4 1 .7v-2.7h-.7v-2.2h4.2v9.6h.6v2.2zm-4.1-4.9l-.1-.1c-.1-.1-.2-.2-.4-.2-.2-.1-.3-.1-.5-.1-.3 0-.6.1-.8.4-.2.2-.3.6-.3 1v.4c0 .1 0 .3.1.5 0 .2.1.3.2.4l.3.3c.1.1.3.1.5.1.1 0 .2 0 .4-.1.1 0 .2-.1.3-.2l.2-.2c.1-.1.1-.1.1-.2v-2z"/><path id="XMLID_3385_" class="st61" d="M411.2 629.6c-.6-.4-1.1-.8-1.5-1.4-.4-.6-.5-1.2-.5-1.9 0-.8.2-1.5.5-2.1.3-.6.8-1.1 1.5-1.5.6-.4 1.4-.5 2.3-.5.8 0 1.5.2 2.2.5.6.4 1.1.8 1.4 1.4.3.6.5 1.2.5 1.9v.5c0 .1-.1.2-.1.2H413c0 .5.1.9.3 1.2.2.3.5.5.9.5.3 0 .6-.1.8-.3.2-.2.2-.4.3-.7h2.2v1.6c-.6.4-1.3.7-1.9.8-.6.2-1.3.2-2.1.2-.9.1-1.6-.1-2.3-.4zm1.6-4.1h1.6v-.4c0-.1 0-.3-.1-.4 0-.2-.1-.3-.2-.4-.1-.1-.3-.1-.4-.1-.3 0-.5.1-.6.4-.1.2-.2.5-.2.8v.1z"/><path id="XMLID_3383_" class="st61" d="M422.5 623.4c.3-.4.6-.7 1.1-.9.4-.2 1-.3 1.5-.3 1.6 0 2.4 1 2.4 3v2.7h.6v2.2H424v-4.5c0-.2-.1-.4-.2-.6-.1-.1-.3-.2-.5-.2s-.4.1-.5.2c-.1.2-.2.4-.2.6v2.3h.6v2.2h-4.7v-2.2h.6v-3.3h-.6v-2.2h4.1v1z"/><path id="XMLID_3381_" class="st61" d="M434.5 629.6l-.3.1c-.2.1-.5.2-.8.2-.4.1-.8.1-1.1.1-1.8 0-2.8-1-2.7-2.9v-2.7h-.8v-2.2h.7v-1.7l3.5-.8v2.4h1.1v2.2H433v2.3c0 .2 0 .4.2.5.1.2.3.2.6.2.2 0 .5 0 .8-.1v2.4z"/><path id="XMLID_3379_" class="st61" d="M435.5 631.6h.6c.2 0 .3-.1.4-.2.1-.1.2-.1.2-.2.1-.1.1-.2.1-.3v-.4-.5h-1.4v-2.6h3.7c.1.7.2 1.4.2 2 0 1.3-.3 2.3-.9 2.9-.6.6-1.6.9-2.9.9v-1.6z"/><path id="XMLID_3377_" class="st61" d="M84.1 642.2l-.1-.2c0-.1-.1-.2-.1-.3-.1-.1-.1-.2-.1-.2-.1-.1-.2-.2-.4-.3-.2-.1-.3-.1-.5-.1s-.3 0-.5.1c-.1.1-.2.2-.2.4 0 .1.1.3.2.4.1.1.3.2.5.2.2.1.4.1.6.2.2.1.4.1.4.1 1.2.5 1.7 1.3 1.7 2.3 0 1-.3 1.7-.8 2.2-.5.5-1.2.8-2.2.8-1 0-1.7-.2-2.2-.7l-.3.5H79l.1-2.7h1.6c.1.3.2.6.4.9.2.3.5.4.8.4.2 0 .4 0 .5-.1.2-.1.2-.2.2-.4s-.1-.3-.2-.4c-.1-.1-.3-.2-.5-.3-.2-.1-.4-.2-.7-.2-.3-.1-.5-.2-.8-.3-.3-.1-.5-.3-.7-.4-.2-.2-.4-.4-.5-.7-.1-.3-.2-.6-.2-1 0-.6.1-1 .4-1.4.3-.4.6-.7 1.1-.8.4-.2.9-.3 1.5-.3.4 0 .8 0 1.2.1.4.1.6.1.7.2.1 0 .2.1.2.1l.2-.3h1.2v2.3h-1.4z"/><path id="XMLID_3375_" class="st61" d="M92.1 646.6c-.3.4-.6.7-1.1.9-.4.2-1 .3-1.5.3-1.6 0-2.4-1-2.4-2.9v-2.7h-.6V640h4.1v4.6c0 .3.1.5.2.6.1.2.3.2.5.2s.4-.1.5-.2c.1-.2.2-.4.2-.6v-2.3h-.6V640h4.1v5.5h.5v2.2h-4.1v-1.1z"/><path id="XMLID_3373_" class="st61" d="M101.5 641.1c.3-.4.6-.7 1.1-.9.4-.2 1-.3 1.5-.3 1.6 0 2.4 1 2.4 3v2.7h.6v2.2H103v-4.5c0-.2-.1-.4-.2-.6-.1-.1-.3-.2-.5-.2s-.4.1-.5.2c-.1.2-.2.4-.2.6v2.3h.6v2.2h-4.7v-2.2h.5v-3.3h-.5V640h4.1v1.1z"/><path id="XMLID_3371_" class="st61" d="M113.5 647.4l-.3.1c-.2.1-.5.2-.8.2-.4.1-.7.1-1.1.1-1.8 0-2.8-1-2.7-2.9v-2.7h-.8V640h.7v-1.7l3.5-.8v2.4h1.1v2.2H112v2.3c0 .2.1.4.2.5.1.2.3.2.6.2.2 0 .5 0 .8-.1v2.4z"/><path id="XMLID_3368_" class="st61" d="M122 645.5h.6v2.2h-4.7v-2.2h.6v-3.3h-.6V640h4.1v5.5zm-.6-6.5c.4-.3.6-.8.6-1.3s-.2-1-.6-1.3c-.4-.3-.9-.5-1.5-.5s-1.1.2-1.4.5c-.4.3-.6.7-.6 1.3 0 .6.2 1 .6 1.3.4.3.9.5 1.4.5.6 0 1.1-.1 1.5-.5z"/><path id="XMLID_3366_" class="st61" d="M127.8 641.1c.3-.4.6-.7 1.1-.9.4-.2 1-.3 1.5-.3 1.6 0 2.4 1 2.4 3v2.7h.6v2.2h-4.1v-4.5c0-.2-.1-.4-.2-.6-.1-.1-.3-.2-.5-.2s-.4.1-.5.2c-.1.2-.2.4-.2.6v2.3h.6v2.2h-4.7v-2.2h.6v-3.3h-.5V640h4.1v1.1z"/><path id="XMLID_3364_" class="st61" d="M137.8 642.3c.2-.5.4-.9.7-1.3.3-.4.7-.6 1.2-.9.5-.2 1-.3 1.6-.3.7 0 1.3.2 1.9.7l.3-.6h1.3v3.2H143c0-.3-.1-.6-.3-.8-.2-.2-.4-.3-.6-.3-.3 0-.6.2-.8.5-.2.3-.3.8-.3 1.4 0 .2 0 .4.1.5 0 .2.1.3.2.5s.2.3.4.4c.2.1.3.1.5.1s.3 0 .4-.1c.1-.1.2-.1.3-.2.1-.1.1-.2.2-.3 0-.1.1-.2.1-.2v-.1h1.7v2.2c-.3.3-.8.6-1.4.8-.6.2-1.2.3-1.8.3-.8 0-1.4-.2-2-.5-.6-.3-1.1-.8-1.4-1.4-.4-.6-.5-1.4-.5-2.2-.3-.5-.2-1 0-1.4z"/><path id="XMLID_3362_" class="st61" d="M151.2 646.6c-.3.4-.6.7-1.1.9-.4.2-1 .3-1.5.3-1.6 0-2.4-1-2.4-2.9v-2.7h-.6V640h4.1v4.6c0 .3.1.5.2.6.1.2.3.2.5.2s.4-.1.5-.2c.1-.2.2-.4.2-.6v-2.3h-.6V640h4.1v5.5h.5v2.2H151v-1.1z"/><path id="XMLID_3360_" class="st61" d="M160.5 645.5h.6v2.2h-4.7v-2.2h.5v-7.3h-.6V636h4.2v9.5z"/><path id="XMLID_3357_" class="st61" d="M162 650.6v-2.2h.6v-6.2h-.5V640h4.1v.8h.1c.3-.3.6-.6.9-.8.3-.2.7-.2 1.2-.2s1 .1 1.4.3c.4.2.8.5 1 .9.3.4.5.8.6 1.3.1.5.2 1 .2 1.5s-.1 1-.2 1.5-.3.9-.6 1.3-.6.7-1 .9c-.4.2-.9.3-1.4.3-.3 0-.5 0-.7-.1-.2-.1-.4-.1-.6-.3-.2-.1-.4-.2-.5-.3-.1-.1-.2-.2-.4-.3v1.5h.8v2.2h-5zm4.1-5.8c0 .1 0 .1.1.2 0 .1.1.2.2.2.1.1.2.1.3.2.1.1.3.1.4.1.2 0 .4-.1.6-.2.2-.1.3-.2.4-.4.1-.2.1-.4.2-.5 0-.2.1-.4.1-.6 0-.9-.4-1.4-1.2-1.4-.1 0-.3 0-.4.1-.1 0-.2.1-.3.2l-.2.2c0 .1-.1.1-.1.2v.1l-.1 1.6z"/><path id="XMLID_3354_" class="st61" d="M172.4 644.5c.2-.3.4-.6.7-.7.3-.2.6-.3 1-.4.4-.1.8-.1 1.1-.1.7 0 1.3.1 1.8.3v-.3c0-.8-.5-1.2-1.5-1.2-.7 0-1.2.2-1.6.7h-1.3v-2.3l.5-.1c.3-.1.8-.2 1.4-.2.6-.1 1.1-.1 1.6-.1h.5c.2 0 .4 0 .7.1.3 0 .6.1.8.1.2.1.5.1.8.3.3.1.5.3.7.4.2.2.3.4.5.7.1.3.2.6.2.9v3.2h.5v2.2h-3.4l-.4-.9c-.2.3-.6.6-1 .7-.4.2-.8.3-1.2.3-.8 0-1.4-.2-2-.6-.5-.4-.8-1-.8-1.7.1-.7.2-1 .4-1.3zm3.5 1.4c.1.1.3.2.5.2s.3 0 .4-.1c.1-.1.2-.1.3-.1l.1-.1v-1.1h-.1c-.1 0-.2-.1-.3-.1h-.3c-.2 0-.4.1-.5.2-.1.2-.2.4-.2.6-.1.2-.1.4.1.5z"/><path id="XMLID_3351_" class="st61" d="M185 643.8c0-1.3.4-2.2 1.2-2.9.8-.7 1.8-1 3.2-1 1.4 0 2.4.3 3.2 1 .8.7 1.2 1.6 1.2 2.9 0 .8-.2 1.6-.6 2.2-.4.6-.9 1.1-1.5 1.4-.7.3-1.4.5-2.3.5-.9 0-1.6-.2-2.3-.5-.7-.3-1.2-.8-1.5-1.4-.4-.7-.6-1.4-.6-2.2zm3.4 0c0 1.2.3 1.8 1 1.8s1-.6 1-1.8v-.6c0-.2-.1-.3-.1-.5-.1-.2-.2-.3-.3-.4-.1-.1-.3-.1-.5-.1s-.4 0-.5.1c-.1.1-.2.2-.3.4-.1.2-.1.4-.1.5-.2.1-.2.3-.2.6z"/><path id="XMLID_3349_" class="st61" d="M198 636.1c.4 0 .8 0 1.2.1.4.1.6.1.8.2.1 0 .2.1.3.1v2.2c-.3-.1-.5-.1-.7-.1-.3 0-.5.1-.6.3-.1.2-.2.6-.1 1.1h1.3v2.2H199v3.3h.8v2.2h-4.9v-2.2h.6v-3.3h-.6V640h.6v-1c-.3-1.9.6-2.9 2.5-2.9z"/><path id="XMLID_3347_" class="st61" d="M204.3 636.1c.4 0 .8 0 1.2.1.4.1.6.1.8.2.1 0 .2.1.3.1v2.2c-.3-.1-.5-.1-.7-.1-.3 0-.5.1-.6.3-.1.2-.2.6-.1 1.1h1.3v2.2h-1.2v3.3h.8v2.2h-4.9v-2.2h.6v-3.3h-.6V640h.6v-1c-.3-1.9.6-2.9 2.5-2.9z"/><path id="XMLID_3344_" class="st61" d="M211.3 645.5h.6v2.2h-4.7v-2.2h.6v-3.3h-.6V640h4.1v5.5zm-.5-6.5c.4-.3.6-.8.6-1.3s-.2-1-.6-1.3c-.4-.3-.9-.5-1.5-.5s-1.1.2-1.4.5c-.4.3-.6.7-.6 1.3 0 .6.2 1 .6 1.3.4.3.9.5 1.4.5.6 0 1.1-.1 1.5-.5z"/><path id="XMLID_3342_" class="st61" d="M212.9 642.3c.2-.5.4-.9.7-1.3.3-.4.7-.6 1.2-.9.5-.2 1-.3 1.6-.3.7 0 1.3.2 1.9.7l.3-.6h1.3v3.2h-1.7c0-.3-.1-.6-.3-.8-.2-.2-.4-.3-.6-.3-.3 0-.6.2-.8.5-.2.3-.3.8-.3 1.4 0 .2 0 .4.1.5 0 .2.1.3.2.5s.2.3.4.4c.2.1.3.1.5.1s.3 0 .4-.1c.1-.1.2-.1.3-.2.1-.1.1-.2.2-.3 0-.1.1-.2.1-.2v-.1h1.7v2.2c-.3.3-.8.6-1.4.8-.6.2-1.2.3-1.8.3-.8 0-1.4-.2-2-.5-.6-.3-1.1-.8-1.4-1.4-.4-.6-.5-1.4-.5-2.2-.3-.5-.2-1-.1-1.4z"/><path id="XMLID_3339_" class="st61" d="M225.1 645.5h.6v2.2H221v-2.2h.6v-3.3h-.6V640h4.1v5.5zm-.5-6.5c.4-.3.6-.8.6-1.3s-.2-1-.6-1.3c-.4-.3-.9-.5-1.5-.5s-1.1.2-1.4.5c-.4.3-.6.7-.6 1.3 0 .6.2 1 .6 1.3.4.3.9.5 1.4.5.6 0 1.1-.1 1.5-.5z"/><path id="XMLID_3336_" class="st61" d="M226.7 644.5c.2-.3.4-.6.7-.7.3-.2.6-.3 1-.4.4-.1.8-.1 1.1-.1.7 0 1.3.1 1.8.3v-.3c0-.8-.5-1.2-1.5-1.2-.7 0-1.2.2-1.6.7h-1.3v-2.3l.5-.1c.3-.1.8-.2 1.4-.2.6-.1 1.1-.1 1.6-.1h.5c.2 0 .4 0 .7.1.3 0 .6.1.8.1.2.1.5.1.8.3.3.1.5.3.7.4.2.2.3.4.5.7.1.3.2.6.2.9v3.2h.5v2.2h-3.4l-.4-.9c-.2.3-.6.6-1 .7-.4.2-.8.3-1.2.3-.8 0-1.4-.2-2-.6-.5-.4-.8-1-.8-1.7.2-.7.3-1 .4-1.3zm3.5 1.4c.1.1.3.2.5.2s.3 0 .4-.1c.1-.1.2-.1.3-.1l.1-.1v-1.1h-.1c-.1 0-.2-.1-.3-.1h-.3c-.2 0-.4.1-.5.2-.1.2-.2.4-.2.6-.1.2 0 .4.1.5z"/><path id="XMLID_3333_" class="st61" d="M248.9 647.7h-4.1v-.9c-.2.3-.6.6-.9.8-.4.2-.8.3-1.2.3-.5 0-1-.1-1.5-.4-.4-.2-.8-.6-1.1-1-.3-.4-.5-.8-.6-1.3-.1-.5-.2-1-.2-1.5s.1-1 .2-1.4c.2-.5.4-.9.6-1.2.3-.4.6-.7 1-.9.4-.2.9-.3 1.4-.3.4 0 .8.1 1.2.2.3.1.7.4 1 .7v-2.7h-.7v-2.2h4.2v9.6h.6v2.2zm-4.1-4.9l-.1-.1c-.1-.1-.2-.2-.4-.2-.2-.1-.3-.1-.5-.1-.3 0-.6.1-.8.4-.2.2-.3.6-.3 1v.4c0 .1 0 .3.1.5 0 .2.1.3.2.4l.3.3c.1.1.3.1.5.1.1 0 .2 0 .3-.1.1 0 .2-.1.3-.2l.2-.2c.1-.1.1-.1.1-.2v-2z"/><path id="XMLID_3330_" class="st61" d="M251.7 647.3c-.6-.4-1.1-.8-1.5-1.4-.4-.6-.5-1.2-.5-1.9 0-.8.2-1.5.5-2.1.3-.6.8-1.1 1.5-1.5.6-.4 1.4-.5 2.3-.5.8 0 1.5.2 2.2.5.6.4 1.1.8 1.4 1.4.3.6.5 1.2.5 1.9v.5c0 .1-.1.2-.1.2h-4.5c0 .5.1.9.3 1.2.2.3.5.5.9.5.3 0 .6-.1.8-.3.2-.2.2-.4.3-.7h2.2v1.6c-.6.4-1.3.7-1.9.8-.6.2-1.3.2-2.1.2-.9.1-1.6 0-2.3-.4zm1.6-4.1h1.6v-.4c0-.1 0-.3-.1-.4 0-.2-.1-.3-.2-.4-.1-.1-.3-.1-.4-.1-.3 0-.5.1-.6.4-.1.2-.2.5-.2.8v.1z"/><path id="XMLID_3328_" class="st61" d="M263.9 642.2l-.1-.2c0-.1-.1-.2-.1-.3-.1-.1-.1-.2-.1-.2-.1-.1-.2-.2-.4-.3-.2-.1-.3-.1-.5-.1s-.3 0-.5.1c-.1.1-.2.2-.2.4 0 .1.1.3.2.4.1.1.3.2.5.2.2.1.4.1.6.2.2.1.4.1.4.1 1.2.5 1.7 1.3 1.7 2.3 0 1-.2 1.7-.8 2.2-.5.5-1.2.8-2.2.8-1 0-1.7-.2-2.2-.7l-.3.5h-1.3v-2.7h1.6c.1.3.2.6.4.9.2.3.5.4.8.4.2 0 .4 0 .5-.1.2-.1.2-.2.2-.4s-.1-.3-.2-.4c-.1-.1-.3-.2-.5-.3-.2-.1-.4-.2-.7-.2-.3-.1-.5-.2-.8-.3-.3-.1-.5-.3-.7-.4-.2-.2-.4-.4-.5-.7-.1-.3-.2-.6-.2-1 0-.6.1-1 .4-1.4.3-.4.6-.7 1.1-.8.4-.2.9-.3 1.5-.3.4 0 .8 0 1.2.1.4.1.6.1.7.2.1 0 .2.1.2.1l.2-.3h1.2v2.3h-1.1z"/><path id="XMLID_3325_" class="st61" d="M268.2 647.3c-.6-.4-1.1-.8-1.5-1.4-.4-.6-.5-1.2-.5-1.9 0-.8.2-1.5.5-2.1.3-.6.8-1.1 1.5-1.5.6-.4 1.4-.5 2.3-.5.8 0 1.5.2 2.2.5.6.4 1.1.8 1.4 1.4.3.6.5 1.2.5 1.9v.5c0 .1-.1.2-.1.2H270c0 .5.1.9.3 1.2.2.3.5.5.9.5.3 0 .6-.1.8-.3.2-.2.2-.4.3-.7h2.2v1.6c-.6.4-1.3.7-1.9.8-.6.2-1.3.2-2.1.2-1 .1-1.7 0-2.3-.4zm1.6-4.1h1.6v-.4c0-.1 0-.3-.1-.4 0-.2-.1-.3-.2-.4-.1-.1-.3-.1-.4-.1-.3 0-.5.1-.6.4-.1.2-.2.5-.2.8v.1z"/><path id="XMLID_3323_" class="st61" d="M275.4 640h3.9v1.2c.2-.4.6-.7 1-.9.4-.2.9-.3 1.4-.3v3h-.8c-.5 0-.9.2-1.2.5-.3.3-.5.8-.5 1.3v.9h1v2.2h-4.9v-2.2h.6v-3.3h-.6V640z"/><path id="XMLID_3321_" class="st61" d="M287.9 646.6c-.3.4-.6.7-1.1.9-.4.2-1 .3-1.5.3-1.6 0-2.4-1-2.4-2.9v-2.7h-.6V640h4.1v4.6c0 .3.1.5.2.6.1.2.3.2.5.2s.4-.1.5-.2c.1-.2.2-.4.2-.6v-2.3h-.6V640h4.1v5.5h.5v2.2h-4.1v-1.1z"/><path id="XMLID_3319_" class="st61" d="M297.3 641.1c.3-.4.6-.7 1.1-.9.4-.2 1-.3 1.5-.3 1.6 0 2.4 1 2.4 3v2.7h.6v2.2h-4.1v-4.5c0-.2-.1-.4-.2-.6-.1-.1-.3-.2-.5-.2s-.4.1-.5.2c-.1.2-.2.4-.2.6v2.3h.6v2.2h-4.7v-2.2h.6v-3.3h-.6V640h4.1v1.1z"/><path id="XMLID_3317_" class="st61" d="M309.3 647.4l-.3.1c-.2.1-.5.2-.8.2-.4.1-.8.1-1.1.1-1.8 0-2.8-1-2.7-2.9v-2.7h-.8V640h.7v-1.7l3.5-.8v2.4h1.1v2.2h-1.1v2.3c0 .2 0 .4.2.5.1.2.3.2.6.2.2 0 .5 0 .8-.1v2.4z"/><path id="XMLID_3315_" class="st61" d="M319 647.7v-4.6c0-.5-.3-.7-.8-.7-.2 0-.3 0-.4.1-.1.1-.2.2-.2.4-.1.1-.1.3-.1.5v2.1h.6v2.2h-4.3v-2.2h.5v-3.3h-.5V640h3.7v1.2l.6-.6c.2-.2.4-.3.7-.4.2-.1.5-.2.7-.3.2-.1.5-.1.7-.1.4 0 .8.1 1.1.4.3.2.6.6.8 1.1.7-1 1.5-1.5 2.5-1.5.3 0 .7 0 1 .1.3.1.6.2.8.5.2.2.4.5.6.8.1.3.2.7.2 1.2v3.1h.5v2.2h-3.8v-4.6c0-.2-.1-.4-.2-.6-.1-.1-.3-.2-.5-.2s-.3 0-.4.1c-.1.1-.2.1-.3.3-.1.1-.1.2-.2.4 0 .1-.1.3-.1.5v2h.6v2.2H319z"/><path id="XMLID_3312_" class="st61" d="M328.3 643.8c0-1.3.4-2.2 1.2-2.9.8-.7 1.8-1 3.2-1 1.4 0 2.4.3 3.2 1 .8.7 1.2 1.6 1.2 2.9 0 .8-.2 1.6-.6 2.2-.4.6-.9 1.1-1.5 1.4-.7.3-1.4.5-2.3.5-.9 0-1.6-.2-2.3-.5-.7-.3-1.2-.8-1.5-1.4-.5-.7-.6-1.4-.6-2.2zm3.3 0c0 1.2.3 1.8 1 1.8s1-.6 1-1.8v-.6c0-.2-.1-.3-.1-.5-.1-.2-.2-.3-.3-.4-.1-.1-.3-.1-.5-.1s-.4 0-.5.1c-.1.1-.2.2-.3.4-.1.2-.1.4-.1.5-.2.1-.2.3-.2.6z"/><path id="XMLID_3310_" class="st61" d="M341.9 645.5h.6v2.2h-4.7v-2.2h.5v-7.3h-.6V636h4.2v9.5z"/><path id="XMLID_3308_" class="st61" d="M347.6 645.5h.6v2.2h-4.7v-2.2h.5v-7.3h-.6V636h4.2v9.5z"/><path id="XMLID_3305_" class="st61" d="M353.5 645.5h.6v2.2h-4.7v-2.2h.6v-3.3h-.6V640h4.1v5.5zm-.6-6.5c.4-.3.6-.8.6-1.3s-.2-1-.6-1.3c-.4-.3-.9-.5-1.5-.5s-1.1.2-1.4.5c-.4.3-.6.7-.6 1.3 0 .6.2 1 .6 1.3.4.3.9.5 1.4.5.6 0 1.1-.1 1.5-.5z"/><path id="XMLID_3303_" class="st61" d="M360.5 647.4l-.3.1c-.2.1-.5.2-.8.2-.4.1-.8.1-1.1.1-1.8 0-2.8-1-2.7-2.9v-2.7h-.8V640h.7v-1.7l3.5-.8v2.4h1.1v2.2H359v2.3c0 .2 0 .4.2.5.1.2.3.2.6.2.2 0 .5 0 .8-.1v2.4z"/><path id="XMLID_3301_" class="st61" d="M368.9 645.5h.6v2.2h-4.7v-2.2h.5v-7.3h-.6V636h4.2v9.5z"/><path id="XMLID_3298_" class="st61" d="M370.4 644.5c.2-.3.4-.6.7-.7s.6-.3 1-.4c.4-.1.8-.1 1.2-.1.7 0 1.3.1 1.8.3v-.3c0-.8-.5-1.2-1.5-1.2-.7 0-1.2.2-1.5.7h-1.3v-2.3l.5-.1c.3-.1.8-.2 1.4-.2.6-.1 1.1-.1 1.6-.1h.5c.2 0 .4 0 .7.1.3 0 .6.1.8.1.2.1.5.1.8.3.3.1.5.3.7.4.2.2.3.4.5.7.1.3.2.6.2.9v3.2h.5v2.2h-3.4l-.4-.9c-.2.3-.6.6-1 .7-.4.2-.8.3-1.2.3-.8 0-1.4-.2-2-.6-.5-.4-.8-1-.8-1.7s.1-1 .2-1.3zm3.5 1.4c.1.1.3.2.5.2s.3 0 .4-.1c.1-.1.2-.1.3-.1l.1-.1v-1.1h-.1c-.1 0-.2-.1-.3-.1h-.3c-.2 0-.4.1-.5.2-.1.2-.2.4-.2.6-.1.2 0 .4.1.5z"/><path id="XMLID_3295_" class="st61" d="M383.6 640.7c.8-.6 1.5-.9 2.2-.9.4 0 .8.1 1.2.2.4.2.7.4.9.6.3.3.5.6.6.9.2.3.3.7.4 1.1.1.4.1.8.1 1.2 0 .4 0 .8-.1 1.2-.1.4-.2.7-.4 1.1-.2.3-.4.6-.7.9-.3.3-.6.5-1 .6-.4.1-.8.2-1.2.2-.4 0-.7-.1-1-.2-.2-.1-.5-.3-1-.6l-.3.7h-3.2v-9.6h-.6v-2.2h4.1v4.8zm0 4.2l.1.1c.1.1.2.2.4.2.2.1.3.1.5.1.3 0 .6-.1.8-.4.2-.2.3-.6.3-1v-.4c0-.1 0-.3-.1-.5 0-.2-.1-.3-.2-.4l-.3-.3c-.1-.1-.3-.1-.5-.1-.1 0-.2 0-.4.1-.1 0-.2.1-.3.2l-.2.2c-.1.1-.1.1-.1.2v2z"/><path id="XMLID_3292_" class="st61" d="M389.7 643.8c0-1.3.4-2.2 1.2-2.9.8-.7 1.8-1 3.2-1 1.4 0 2.4.3 3.2 1 .8.7 1.2 1.6 1.2 2.9 0 .8-.2 1.6-.6 2.2-.4.6-.9 1.1-1.5 1.4-.7.3-1.4.5-2.3.5-.9 0-1.6-.2-2.3-.5-.7-.3-1.2-.8-1.5-1.4-.4-.7-.6-1.4-.6-2.2zm3.4 0c0 1.2.3 1.8 1 1.8s1-.6 1-1.8v-.6c0-.2-.1-.3-.1-.5-.1-.2-.2-.3-.3-.4-.1-.1-.3-.1-.5-.1s-.4 0-.5.1c-.1.1-.2.2-.3.4-.1.2-.1.4-.1.5-.2.1-.2.3-.2.6z"/><path id="XMLID_3290_" class="st61" d="M399.4 640h3.9v1.2c.2-.4.6-.7 1-.9.4-.2.9-.3 1.4-.3v3h-.8c-.5 0-.9.2-1.2.5-.3.3-.5.8-.5 1.3v.9h1v2.2h-4.9v-2.2h.6v-3.3h-.6V640z"/><path id="XMLID_3288_" class="st61" d="M411.8 646.6c-.3.4-.6.7-1.1.9-.4.2-1 .3-1.5.3-1.6 0-2.4-1-2.4-2.9v-2.7h-.6V640h4.1v4.6c0 .3.1.5.2.6.1.2.3.2.5.2s.4-.1.5-.2c.1-.2.2-.4.2-.6v-2.3h-.6V640h4.1v5.5h.5v2.2h-4.1v-1.1z"/><path id="XMLID_3286_" class="st61" d="M422.5 647.7v-4.6c0-.5-.3-.7-.8-.7-.2 0-.3 0-.4.1-.1.1-.2.2-.2.4-.1.1-.1.3-.1.5v2.1h.6v2.2h-4.3v-2.2h.5v-3.3h-.5V640h3.7v1.2l.6-.6c.2-.2.4-.3.7-.4.2-.1.5-.2.7-.3.2-.1.5-.1.7-.1.4 0 .8.1 1.1.4.3.2.6.6.8 1.1.7-1 1.5-1.5 2.5-1.5.3 0 .7 0 1 .1.3.1.6.2.8.5.2.2.4.5.6.8.1.3.2.7.2 1.2v3.1h.5v2.2h-3.8v-4.6c0-.2-.1-.4-.2-.6-.1-.1-.3-.2-.5-.2s-.3 0-.4.1c-.1.1-.2.1-.3.3-.1.1-.1.2-.2.4 0 .1-.1.3-.1.5v2h.6v2.2h-3.8z"/></g><path id="XMLID_3284_" class="st61" d="M53 561.6h404v3.8H53z"/><path id="XMLID_3283_" class="st61" d="M53 665.6h404v3.8H53z"/></g></g><path id="XMLID_1_" class="st60" d="M85.1 156h339.8v5.8H85.1z"/></svg>