<svg version="1.1" id="Layer_1" xmlns="http://www.w3.org/2000/svg" x="0" y="0" width="510" height="710" xml:space="preserve"><style>.st0{fill:#eceae9}.st3{fill:#616161}.st8{fill:#fdfcea}.st9{fill:#f2cf85}.st10{fill:#e4e9ef}.st11{fill:#eb2125}.st12{fill:#ca2027}.st18{fill:#baced6}.st20{fill:#cb2127}.st24{fill:#dae5e9}.st25{fill:#f7fafc}.st26{fill:#7c8b9c}.st29{fill:#ffcb67}</style><path id="XMLID_423_" class="st0" d="M30 17.5h450v675H30z"/><path d="M480 623.5h-22v-26.4h22V392.8h-22v-26.4h22v-34.5H30v328.6h450v-37zm-406.9 0H46.8v-26.4h26.4v26.4zm0-230.7H46.8v-26.4h26.4v26.4zm58.7 230.7h-26.4v-26.4h26.4v26.4zm0-230.7h-26.4v-26.4h26.4v26.4zm58.8 230.7h-26.4v-26.4h26.4v26.4zm0-230.7h-26.4v-26.4h26.4v26.4zm58.7 230.7H223v-26.4h26.4v26.4zm0-230.7H223v-26.4h26.4v26.4zm58.8 230.7h-26.4v-26.4h26.4v26.4zm0-230.7h-26.4v-26.4h26.4v26.4zm58.7 230.7h-26.4v-26.4h26.4v26.4zm0-230.7h-26.4v-26.4h26.4v26.4zm58.8 230.7h-26.4v-26.4h26.4v26.4zm0-230.7h-26.4v-26.4h26.4v26.4z" fill="#494949"/><linearGradient id="SVGID_1_" gradientUnits="userSpaceOnUse" x1="516.517" y1="257.847" x2="64.516" y2="669.848"><stop offset="0" stop-color="#f8e9d2"/><stop offset="1" stop-color="#784b4b"/></linearGradient><path d="M480 623.5h-22v-26.4h22V392.8h-22v-26.4h22v-34.5H30v328.6h450v-37zm-406.9 0H46.8v-26.4h26.4v26.4zm0-230.7H46.8v-26.4h26.4v26.4zm58.7 230.7h-26.4v-26.4h26.4v26.4zm0-230.7h-26.4v-26.4h26.4v26.4zm58.8 230.7h-26.4v-26.4h26.4v26.4zm0-230.7h-26.4v-26.4h26.4v26.4zm58.7 230.7H223v-26.4h26.4v26.4zm0-230.7H223v-26.4h26.4v26.4zm58.8 230.7h-26.4v-26.4h26.4v26.4zm0-230.7h-26.4v-26.4h26.4v26.4zm58.7 230.7h-26.4v-26.4h26.4v26.4zm0-230.7h-26.4v-26.4h26.4v26.4zm58.8 230.7h-26.4v-26.4h26.4v26.4zm0-230.7h-26.4v-26.4h26.4v26.4z" opacity=".62" fill="url(#SVGID_1_)"/><g id="XMLID_2710_"><path id="XMLID_3033_" class="st0" d="M98 501.1h-3.4v10.3h3.8c1 0 1.9-.2 2.6-.6.8-.4 1.3-1 1.8-1.8.4-.8.6-1.7.6-2.8 0-1.6-.5-2.8-1.4-3.7-.9-1-2.2-1.4-4-1.4zm3.6 7.2c-.3.6-.7 1.1-1.3 1.4-.6.3-1.2.5-2 .5H96v-8h2c1.3 0 2.3.3 3 1 .7.7 1 1.6 1 2.9.1.9-.1 1.6-.4 2.2z"/><path id="XMLID_3032_" class="st0" d="M111.4 503.5h-1.3v4.6c0 .8-.2 1.4-.5 1.8-.4.4-.9.6-1.5.6-.4 0-.8-.1-1-.2-.2-.1-.4-.3-.5-.6-.1-.3-.2-.7-.2-1.2v-5h-1.3v5.3c0 1 .2 1.7.6 2.1.4.4 1 .6 1.9.6.6 0 1.1-.1 1.5-.3.4-.2.7-.6 1-1.2V511.4h1.2v-7.9z"/><path id="XMLID_3031_" class="st0" d="M113.5 503.5h1.3v7.9h-1.3z"/><path id="XMLID_3030_" class="st0" d="M113.5 500.6h1.3v1.3h-1.3z"/><path id="XMLID_3029_" class="st0" d="M122.2 507.8c-.2-.2-.4-.3-.7-.5-.3-.1-.8-.3-1.5-.5s-1.2-.3-1.4-.4c-.2-.1-.4-.2-.5-.4-.1-.1-.2-.3-.2-.6 0-.4.1-.6.4-.8.3-.2.7-.3 1.3-.3.5 0 1 .1 1.3.3.3.2.5.5.6.8l1.2-.1c-.1-.7-.5-1.2-1-1.5-.5-.3-1.2-.5-2.1-.5-1 0-1.7.2-2.2.6-.5.4-.8.9-.8 1.6 0 .4.1.7.3 1 .2.3.4.5.7.7.3.2.9.4 1.6.6l.9.2c.5.1.8.3 1 .5.2.2.3.4.3.8s-.2.7-.5.9c-.3.2-.8.3-1.5.3-.6 0-1.1-.1-1.5-.3-.3-.2-.6-.5-.7-.9l-1.2.2c.2.7.5 1.2 1 1.5.5.3 1.3.5 2.3.5 1 0 1.8-.2 2.4-.6.6-.4.8-1 .8-1.7 0-.3 0-.6-.1-.8.1-.3-.1-.5-.2-.6z"/><path id="XMLID_3026_" class="st0" d="M134.7 510.3c-.1-.2-.2-.5-.2-.9V506c0-.9-.2-1.5-.8-2-.5-.5-1.2-.7-2.2-.7-1.9 0-2.9.7-3.2 2.1l1.4.1c.1-.4.2-.8.5-1 .3-.2.7-.3 1.3-.3.6 0 1 .1 1.3.4.3.3.4.7.4 1.4v.4h-1.8c-1.2 0-2.1.3-2.6.7-.5.4-.8 1.1-.8 1.9 0 .7.2 1.3.6 1.7.4.4 1 .6 1.8.6.6 0 1.2-.1 1.6-.4.4-.2.8-.7 1.2-1.3 0 .5.2.9.4 1.2.2.3.6.4 1.1.4.3 0 .7 0 1-.1v-.8c-.2 0-.3.1-.4.1-.3.2-.5.1-.6-.1zm-1.5-2.2c0 .4-.1.8-.3 1.2-.2.4-.5.7-.9.9-.4.2-.8.3-1.3.3-.4 0-.8-.1-1-.3-.2-.2-.3-.6-.3-1s.1-.7.3-1c.2-.2.4-.4.7-.5.3-.1.8-.2 1.4-.2h1.4v.6z"/><path id="XMLID_3025_" class="st0" d="M143 503.5h-1.3v4.6c0 .8-.2 1.4-.5 1.8-.4.4-.9.6-1.5.6-.4 0-.8-.1-1-.2-.2-.1-.4-.3-.5-.6-.1-.3-.2-.7-.2-1.2v-5h-1.3v5.3c0 1 .2 1.7.6 2.1.4.4 1 .6 1.9.6.6 0 1.1-.1 1.5-.3.4-.2.7-.6 1-1.2V511.4h1.2v-7.9z"/><path id="XMLID_3024_" class="st0" d="M146.6 510.2c-.1-.2-.2-.4-.2-.8v-5h1.5v-1h-1.5v-1.8h-.9l-.4 1.8h-1v1h.9v5.3c0 1.2.5 1.8 1.6 1.8.4 0 .9-.1 1.3-.2v-1c-.3.1-.6.1-.8.1-.1 0-.4 0-.5-.2z"/><path id="XMLID_3021_" class="st0" d="M152.3 503.3c-1.1 0-2 .3-2.6 1-.6.7-.9 1.7-.9 3 0 1.4.3 2.4.9 3.1.6.7 1.5 1 2.7 1 1.7 0 2.7-.6 3.2-1.9l-1.1-.3c-.1.4-.4.6-.7.9-.3.2-.8.3-1.4.3-.7 0-1.3-.2-1.6-.7-.4-.5-.6-1.2-.6-2.1h5.6v-.2c0-2.7-1.2-4.1-3.5-4.1zm-2.1 3.4c0-.7.2-1.3.6-1.8.4-.4.9-.6 1.5-.6.7 0 1.2.2 1.5.6.4.4.6 1 .6 1.8h-4.2z"/><path id="XMLID_3020_" class="st0" d="M161.6 503.5h1.3v7.9h-1.3z"/><path id="XMLID_3019_" class="st0" d="M161.6 500.6h1.3v1.3h-1.3z"/><path id="XMLID_3018_" class="st0" d="M166.9 503.7c-.3.2-.5.7-.7 1.4 0-.2 0-.7-.1-1.6h-1.2v7.8h1.3v-4.1c0-.9.1-1.5.4-2 .3-.5.7-.7 1.2-.7.3 0 .5 0 .7.1v-1.2c-.2 0-.4-.1-.5-.1-.4 0-.8.2-1.1.4z"/><path id="XMLID_3017_" class="st0" d="M176.1 503.5h-1.3v4.6c0 .8-.2 1.4-.5 1.8-.4.4-.9.6-1.5.6-.4 0-.8-.1-1-.2-.2-.1-.4-.3-.5-.6-.1-.3-.2-.7-.2-1.2v-5h-1.3v5.3c0 1 .2 1.7.6 2.1.4.4 1 .6 1.9.6.6 0 1.1-.1 1.5-.3.4-.2.7-.6 1-1.2V511.4h1.2v-7.9z"/><path id="XMLID_3016_" class="st0" d="M180.2 503.7c-.3.2-.5.7-.7 1.4 0-.2 0-.7-.1-1.6h-1.2v7.8h1.3v-4.1c0-.9.1-1.5.4-2 .3-.5.7-.7 1.2-.7.3 0 .5 0 .7.1v-1.2c-.2 0-.4-.1-.5-.1-.5 0-.8.2-1.1.4z"/><path id="XMLID_3013_" class="st0" d="M186.3 503.3c-1.1 0-2 .3-2.6 1-.6.7-.9 1.7-.9 3 0 1.4.3 2.4.9 3.1.6.7 1.5 1 2.7 1 1.7 0 2.7-.6 3.2-1.9l-1.2-.3c-.1.4-.4.6-.7.9-.3.2-.8.3-1.4.3-.7 0-1.3-.2-1.6-.7-.4-.5-.6-1.2-.6-2.1h5.6v-.2c0-2.7-1.1-4.1-3.4-4.1zm-2.2 3.4c0-.7.2-1.3.6-1.8.4-.4.9-.6 1.5-.6.7 0 1.2.2 1.5.6.4.4.6 1 .6 1.8h-4.2z"/><path id="XMLID_3010_" class="st0" d="M201.8 500.6h-1.3v4.2c-.2-.5-.6-.8-1-1-.4-.2-.9-.3-1.5-.3-1.9 0-2.9 1.4-2.9 4.1 0 1.4.2 2.4.7 3 .5.7 1.2 1 2.2 1 .6 0 1.1-.1 1.5-.3.4-.2.7-.6 1-1.1v1.2h1.3V500.6zm-1.8 9.1c-.3.5-.9.8-1.6.8-.7 0-1.1-.2-1.4-.7-.3-.5-.4-1.3-.4-2.4 0-1.1.1-1.9.4-2.4.3-.5.8-.7 1.4-.7.7 0 1.3.2 1.6.7.3.5.5 1.2.5 2.3 0 1.1-.1 1.9-.5 2.4z"/><path id="XMLID_3007_" class="st0" d="M207 503.3c-2.4 0-3.5 1.4-3.5 4.1 0 1.3.3 2.3.9 3 .6.7 1.5 1.1 2.6 1.1 1.2 0 2-.3 2.6-1 .6-.7.9-1.7.9-3.1 0-1.4-.3-2.4-.8-3.1-.6-.6-1.5-1-2.7-1zm1.6 6.5c-.3.5-.9.8-1.7.8-.7 0-1.3-.3-1.6-.8-.3-.5-.5-1.3-.5-2.3 0-1.1.2-1.9.5-2.4s.9-.8 1.7-.8c.8 0 1.3.2 1.6.7.3.5.5 1.3.5 2.4 0 1.1-.1 1.9-.5 2.4z"/><path id="XMLID_3006_" class="st0" d="M212.2 500.6h1.3v10.8h-1.3z"/><path id="XMLID_3003_" class="st0" d="M218.6 503.3c-2.4 0-3.5 1.4-3.5 4.1 0 1.3.3 2.3.9 3 .6.7 1.5 1.1 2.6 1.1 1.2 0 2-.3 2.6-1 .6-.7.9-1.7.9-3.1 0-1.4-.3-2.4-.8-3.1-.6-.6-1.5-1-2.7-1zm1.6 6.5c-.3.5-.9.8-1.7.8-.7 0-1.3-.3-1.6-.8-.3-.5-.5-1.3-.5-2.3 0-1.1.2-1.9.5-2.4s.9-.8 1.7-.8c.8 0 1.3.2 1.6.7.3.5.5 1.3.5 2.4.1 1.1-.1 1.9-.5 2.4z"/><path id="XMLID_3002_" class="st0" d="M225.8 503.7c-.3.2-.5.7-.7 1.4 0-.2 0-.7-.1-1.6h-1.2v7.8h1.3v-4.1c0-.9.1-1.5.4-2 .3-.5.7-.7 1.2-.7.3 0 .5 0 .7.1v-1.2c-.2 0-.4-.1-.5-.1-.5 0-.8.2-1.1.4z"/><path id="XMLID_3001_" class="st0" d="M232.9 503.5h1.3v7.9h-1.3z"/><path id="XMLID_3000_" class="st0" d="M232.9 500.6h1.3v1.3h-1.3z"/><path id="XMLID_2999_" class="st0" d="M240 503.3c-.6 0-1.1.1-1.5.3-.4.2-.7.6-1 1.2v-.8-.4-.2h-1.2v7.9h1.3v-4.6c0-.8.2-1.4.5-1.8.4-.4.9-.6 1.5-.6.4 0 .8.1 1 .2.2.1.4.3.5.6.1.3.2.7.2 1.2v5h1.3V506c0-1-.2-1.7-.6-2.1-.5-.3-1.1-.6-2-.6z"/><path id="XMLID_2998_" class="st0" d="M250.7 503.7c-.3.2-.5.7-.7 1.4 0-.2 0-.7-.1-1.6h-1.2v7.8h1.3v-4.1c0-.9.1-1.5.4-2 .3-.5.7-.7 1.2-.7.3 0 .5 0 .7.1v-1.2c-.2 0-.4-.1-.5-.1-.5 0-.9.2-1.1.4z"/><path id="XMLID_2995_" class="st0" d="M256.7 503.3c-1.1 0-2 .3-2.6 1-.6.7-.9 1.7-.9 3 0 1.4.3 2.4.9 3.1.6.7 1.5 1 2.7 1 1.7 0 2.7-.6 3.2-1.9l-1.1-.3c-.1.4-.4.6-.7.9-.3.2-.8.3-1.4.3-.7 0-1.3-.2-1.6-.7-.4-.5-.6-1.2-.6-2.1h5.6v-.2c0-2.7-1.1-4.1-3.5-4.1zm-2.1 3.4c0-.7.2-1.3.6-1.8.4-.4.9-.6 1.5-.6.7 0 1.2.2 1.5.6.4.4.6 1 .6 1.8h-4.2z"/><path id="XMLID_2992_" class="st0" d="M265.7 503.3c-.6 0-1.1.1-1.5.3-.4.2-.7.6-.9 1.1v-.5-.5-.2H262v11h1.3v-3.1-1.2c.4.9 1.2 1.4 2.4 1.4 1.9 0 2.9-1.4 2.9-4.1 0-1.4-.2-2.4-.7-3.1-.6-.7-1.3-1.1-2.2-1.1zm1 6.5c-.3.5-.8.7-1.4.7-.7 0-1.3-.2-1.6-.7-.3-.5-.5-1.3-.5-2.3 0-.7.1-1.3.2-1.8.2-.5.4-.8.7-1 .3-.2.7-.3 1.2-.3.6 0 1.1.2 1.4.7.3.5.4 1.3.4 2.4.1 1-.1 1.8-.4 2.3z"/><path id="XMLID_2991_" class="st0" d="M272.2 503.7c-.3.2-.5.7-.7 1.4 0-.2 0-.7-.1-1.6h-1.2v7.8h1.3v-4.1c0-.9.1-1.5.4-2 .3-.5.7-.7 1.2-.7.3 0 .5 0 .7.1v-1.2c-.2 0-.4-.1-.5-.1-.4 0-.8.2-1.1.4z"/><path id="XMLID_2988_" class="st0" d="M278.3 503.3c-1.1 0-2 .3-2.6 1-.6.7-.9 1.7-.9 3 0 1.4.3 2.4.9 3.1.6.7 1.5 1 2.7 1 1.7 0 2.7-.6 3.2-1.9l-1.2-.3c-.1.4-.4.6-.7.9-.3.2-.8.3-1.4.3-.7 0-1.3-.2-1.6-.7-.4-.5-.6-1.2-.6-2.1h5.6v-.2c.1-2.7-1.1-4.1-3.4-4.1zm-2.1 3.4c0-.7.2-1.3.6-1.8.4-.4.9-.6 1.5-.6.7 0 1.2.2 1.5.6.3.4.6 1 .6 1.8h-4.2z"/><path id="XMLID_2987_" class="st0" d="M287.3 503.3c-.6 0-1.1.1-1.5.4-.4.2-.7.6-1 1.1v-.5V500.6h-1.3v10.8h1.3v-4.6c0-.7.2-1.3.6-1.7.4-.4.9-.6 1.5-.6.4 0 .7.1 1 .2.2.1.4.3.5.6.1.3.2.7.2 1.2v5h1.3v-5.3c0-1-.2-1.7-.6-2.1-.5-.6-1.2-.8-2-.8z"/><path id="XMLID_2984_" class="st0" d="M294.9 503.3c-1.1 0-2 .3-2.6 1-.6.7-.9 1.7-.9 3 0 1.4.3 2.4.9 3.1.6.7 1.5 1 2.7 1 1.7 0 2.7-.6 3.2-1.9l-1.2-.3c-.1.4-.4.6-.7.9-.3.2-.8.3-1.4.3-.7 0-1.3-.2-1.6-.7-.4-.5-.6-1.2-.6-2.1h5.6v-.2c.1-2.7-1.1-4.1-3.4-4.1zm-2.1 3.4c0-.7.2-1.3.6-1.8.4-.4.9-.6 1.5-.6.7 0 1.2.2 1.5.6.3.4.6 1 .6 1.8h-4.2z"/><path id="XMLID_2983_" class="st0" d="M303.9 503.3c-.6 0-1.1.1-1.5.3-.4.2-.7.6-1 1.2v-.8-.4-.2H300v7.9h1.3v-4.6c0-.8.2-1.4.5-1.8.4-.4.9-.6 1.5-.6.4 0 .8.1 1 .2.2.1.4.3.5.6.1.3.2.7.2 1.2v5h1.3V506c0-1-.2-1.7-.6-2.1-.3-.3-1-.6-1.8-.6z"/><path id="XMLID_2980_" class="st0" d="M314.6 500.6h-1.3v4.2c-.2-.5-.6-.8-1-1-.4-.2-.9-.3-1.5-.3-1.9 0-2.9 1.4-2.9 4.1 0 1.4.2 2.4.7 3 .5.7 1.2 1 2.2 1 .6 0 1.1-.1 1.5-.3.4-.2.7-.6 1-1.1v1.2h1.3V500.6zm-1.8 9.1c-.3.5-.9.8-1.6.8-.7 0-1.1-.2-1.4-.7-.3-.5-.4-1.3-.4-2.4 0-1.1.1-1.9.4-2.4.3-.5.8-.7 1.4-.7.7 0 1.3.2 1.6.7.3.5.5 1.2.5 2.3 0 1.1-.2 1.9-.5 2.4z"/><path id="XMLID_2977_" class="st0" d="M319.8 503.3c-1.1 0-2 .3-2.6 1-.6.7-.9 1.7-.9 3 0 1.4.3 2.4.9 3.1.6.7 1.5 1 2.7 1 1.7 0 2.7-.6 3.2-1.9l-1.2-.3c-.1.4-.4.6-.7.9-.3.2-.8.3-1.4.3-.7 0-1.3-.2-1.6-.7-.4-.5-.6-1.2-.6-2.1h5.6v-.2c.1-2.7-1.1-4.1-3.4-4.1zm-2.1 3.4c0-.7.2-1.3.6-1.8.4-.4.9-.6 1.5-.6.7 0 1.2.2 1.5.6.4.4.6 1 .6 1.8h-4.2z"/><path id="XMLID_2976_" class="st0" d="M327 503.7c-.3.2-.5.7-.7 1.4 0-.2 0-.7-.1-1.6H325v7.8h1.3v-4.1c0-.9.1-1.5.4-2 .3-.5.7-.7 1.2-.7.3 0 .5 0 .7.1v-1.2c-.2 0-.4-.1-.5-.1-.5 0-.9.2-1.1.4z"/><path id="XMLID_2975_" class="st0" d="M329.9 503.5h1.3v7.9h-1.3z"/><path id="XMLID_2974_" class="st0" d="M329.9 500.6h1.3v1.3h-1.3z"/><path id="XMLID_2973_" class="st0" d="M334.8 510.2c-.1-.2-.2-.4-.2-.8v-5h1.5v-1h-1.5v-1.8h-.9l-.4 1.8h-1v1h.9v5.3c0 1.2.5 1.8 1.6 1.8.5 0 .9-.1 1.3-.2v-1c-.3.1-.6.1-.8.1-.1 0-.3 0-.5-.2z"/><path id="XMLID_2972_" class="st0" d="M341.5 503.5h1.3v7.9h-1.3z"/><path id="XMLID_2971_" class="st0" d="M341.5 500.6h1.3v1.3h-1.3z"/><path id="XMLID_2970_" class="st0" d="M348.6 503.3c-.6 0-1.1.1-1.5.3-.4.2-.7.6-1 1.2v-.8-.4-.2h-1.2v7.9h1.3v-4.6c0-.8.2-1.4.5-1.8.4-.4.9-.6 1.5-.6.4 0 .8.1 1 .2.2.1.4.3.5.6.1.3.2.7.2 1.2v5h1.3V506c0-1-.2-1.7-.6-2.1-.5-.3-1.1-.6-2-.6z"/><path id="XMLID_2969_" class="st0" d="M360.5 508.6l-.3.9-.3.9c-.3-1-.4-1.5-.5-1.7l-1.7-5.1h-1.4l2.9 7.9h1.6l2.9-7.9h-1.4l-1.8 5z"/><path id="XMLID_2966_" class="st0" d="M367.9 503.3c-2.4 0-3.5 1.4-3.5 4.1 0 1.3.3 2.3.9 3 .6.7 1.5 1.1 2.6 1.1 1.2 0 2-.3 2.6-1 .6-.7.9-1.7.9-3.1 0-1.4-.3-2.4-.9-3.1-.5-.6-1.4-1-2.6-1zm1.6 6.5c-.3.5-.9.8-1.7.8-.7 0-1.3-.3-1.6-.8-.3-.5-.5-1.3-.5-2.3 0-1.1.2-1.9.5-2.4s.9-.8 1.7-.8c.8 0 1.3.2 1.6.7.3.5.5 1.3.5 2.4 0 1.1-.2 1.9-.5 2.4z"/><path id="XMLID_2965_" class="st0" d="M373 500.6h1.3v10.8H373z"/><path id="XMLID_2964_" class="st0" d="M382.6 503.5h-1.3v4.6c0 .8-.2 1.4-.5 1.8-.4.4-.9.6-1.5.6-.4 0-.8-.1-1-.2-.2-.1-.4-.3-.5-.6-.1-.3-.2-.7-.2-1.2v-5h-1.3v5.3c0 1 .2 1.7.6 2.1.4.4 1 .6 1.9.6.6 0 1.1-.1 1.5-.3.4-.2.7-.6 1-1.2V511.4h1.2v-7.9z"/><path id="XMLID_2961_" class="st0" d="M388.4 503.3c-.6 0-1.1.1-1.5.3-.4.2-.7.6-.9 1.1v-.5-.5-.2h-1.3v11h1.3v-3.1-1.2c.4.9 1.2 1.4 2.4 1.4 1.9 0 2.9-1.4 2.9-4.1 0-1.4-.2-2.4-.7-3.1-.5-.7-1.3-1.1-2.2-1.1zm1.1 6.5c-.3.5-.8.7-1.4.7-.7 0-1.3-.2-1.6-.7-.3-.5-.5-1.3-.5-2.3 0-.7.1-1.3.2-1.8.2-.5.4-.8.7-1 .3-.2.7-.3 1.2-.3.6 0 1.1.2 1.4.7.3.5.4 1.3.4 2.4 0 1-.1 1.8-.4 2.3z"/><path id="XMLID_2960_" class="st0" d="M394.5 510.2c-.1-.2-.2-.4-.2-.8v-5h1.5v-1h-1.5v-1.8h-.9l-.4 1.8h-1v1h.9v5.3c0 1.2.5 1.8 1.6 1.8.5 0 .9-.1 1.3-.2v-1c-.3.1-.6.1-.8.1-.1 0-.3 0-.5-.2z"/><path id="XMLID_2957_" class="st0" d="M403.3 510.3c-.1-.2-.2-.5-.2-.9V506c0-.9-.2-1.5-.7-2-.5-.5-1.2-.7-2.2-.7-1.9 0-2.9.7-3.2 2.1l1.4.1c.1-.4.2-.8.5-1 .3-.2.7-.3 1.3-.3.6 0 1 .1 1.3.4.3.3.4.7.4 1.4v.4h-1.8c-1.2 0-2.1.3-2.6.7-.5.4-.8 1.1-.8 1.9 0 .7.2 1.3.6 1.7.4.4 1 .6 1.8.6.6 0 1.2-.1 1.6-.4.4-.2.8-.7 1.2-1.3 0 .5.2.9.4 1.2.2.3.6.4 1.1.4.3 0 .7 0 1-.1v-.8c-.2 0-.3.1-.4.1-.4.2-.6.1-.7-.1zm-1.4-2.2c0 .4-.1.8-.3 1.2-.2.4-.5.7-.9.9-.4.2-.8.3-1.3.3-.4 0-.8-.1-1-.3-.2-.2-.3-.6-.3-1s.1-.7.3-1c.2-.2.4-.4.7-.5.3-.1.8-.2 1.4-.2h1.4v.6z"/><path id="XMLID_2956_" class="st0" d="M407 510.2c-.1-.2-.2-.4-.2-.8v-5h1.5v-1h-1.5v-1.8h-.9l-.4 1.8h-1v1h.9v5.3c0 1.2.5 1.8 1.6 1.8.5 0 .9-.1 1.3-.2v-1c-.3.1-.6.1-.8.1-.2 0-.4 0-.5-.2z"/><path id="XMLID_2953_" class="st0" d="M412.6 503.3c-1.1 0-2 .3-2.6 1-.6.7-.9 1.7-.9 3 0 1.4.3 2.4.9 3.1.6.7 1.5 1 2.7 1 1.7 0 2.7-.6 3.2-1.9l-1.2-.3c-.1.4-.4.6-.7.9-.3.2-.8.3-1.4.3-.7 0-1.3-.2-1.6-.7-.4-.5-.6-1.2-.6-2.1h5.6v-.2c.1-2.7-1-4.1-3.4-4.1zm-2.1 3.4c0-.7.2-1.3.6-1.8.4-.4.9-.6 1.5-.6.7 0 1.2.2 1.5.6.3.4.6 1 .6 1.8h-4.2z"/><path id="XMLID_2952_" class="st0" d="M71.9 526.5l-.3.9-.3.9c-.3-1-.4-1.5-.5-1.7l-1.7-5.1h-1.4l2.9 7.9h1.6l2.9-7.9h-1.4l-1.8 5z"/><path id="XMLID_2949_" class="st0" d="M79.3 521.2c-1.1 0-2 .3-2.6 1-.6.7-.9 1.7-.9 3 0 1.4.3 2.4.9 3.1.6.7 1.5 1 2.7 1 1.7 0 2.7-.6 3.2-1.9l-1.2-.3c-.1.4-.4.6-.7.9-.3.2-.8.3-1.4.3-.7 0-1.3-.2-1.6-.7-.4-.5-.6-1.2-.6-2.1h5.6v-.2c.1-2.7-1.1-4.1-3.4-4.1zm-2.1 3.4c0-.7.2-1.3.6-1.8.4-.4.9-.6 1.5-.6.7 0 1.2.2 1.5.6.4.4.6 1 .6 1.8h-4.2z"/><path id="XMLID_2948_" class="st0" d="M84.5 518.5h1.3v10.8h-1.3z"/><path id="XMLID_2947_" class="st0" d="M87.8 521.4h1.3v7.9h-1.3z"/><path id="XMLID_2946_" class="st0" d="M87.8 518.5h1.3v1.3h-1.3z"/><path id="XMLID_2945_" class="st0" d="M92.7 528.1c-.1-.2-.2-.4-.2-.8v-5H94v-1h-1.5v-1.8h-.9l-.4 1.8h-1v1h.9v5.3c0 1.2.5 1.8 1.6 1.8.4 0 .9-.1 1.3-.2v-1c-.3.1-.6.1-.8.1-.1 0-.4 0-.5-.2z"/><path id="XMLID_2942_" class="st0" d="M102.5 521.2c-1.1 0-2 .3-2.6 1-.6.7-.9 1.7-.9 3 0 1.4.3 2.4.9 3.1.6.7 1.5 1 2.7 1 1.7 0 2.7-.6 3.2-1.9l-1.2-.3c-.1.4-.4.6-.7.9-.3.2-.8.3-1.4.3-.7 0-1.3-.2-1.6-.7-.4-.5-.6-1.2-.6-2.1h5.6v-.2c.1-2.7-1-4.1-3.4-4.1zm-2.1 3.4c0-.7.2-1.3.6-1.8.4-.4.9-.6 1.5-.6.7 0 1.2.2 1.5.6.4.4.6 1 .6 1.8h-4.2z"/><path id="XMLID_2941_" class="st0" d="M113 525.7c-.2-.2-.4-.3-.7-.5-.3-.1-.8-.3-1.5-.5s-1.2-.3-1.4-.4c-.2-.1-.4-.2-.5-.4-.1-.1-.2-.3-.2-.6 0-.4.1-.6.4-.8.3-.2.7-.3 1.3-.3.5 0 1 .1 1.3.3.3.2.5.5.6.8l1.2-.1c-.1-.7-.5-1.2-1-1.5-.5-.3-1.2-.5-2.1-.5-1 0-1.7.2-2.2.6-.5.4-.8.9-.8 1.6 0 .4.1.7.3 1 .2.3.4.5.7.7.3.2.9.4 1.6.6l.9.2c.5.1.8.3 1 .5.2.2.3.4.3.8s-.2.7-.5.9c-.3.2-.8.3-1.5.3-.6 0-1.1-.1-1.5-.3-.3-.2-.6-.5-.7-.9l-1.2.2c.2.7.5 1.2 1 1.5.5.3 1.3.5 2.3.5 1 0 1.8-.2 2.4-.6.6-.4.8-1 .8-1.7 0-.3-.1-.6-.1-.8.2-.3 0-.5-.2-.6z"/><path id="XMLID_2940_" class="st0" d="M120.5 525.7c-.2-.2-.4-.3-.7-.5-.3-.1-.8-.3-1.5-.5s-1.2-.3-1.4-.4c-.2-.1-.4-.2-.5-.4-.1-.1-.2-.3-.2-.6 0-.4.1-.6.4-.8.3-.2.7-.3 1.3-.3.5 0 1 .1 1.3.3.3.2.5.5.6.8l1.2-.1c-.1-.7-.5-1.2-1-1.5-.5-.3-1.2-.5-2.1-.5-1 0-1.7.2-2.2.6-.5.4-.8.9-.8 1.6 0 .4.1.7.3 1 .2.3.4.5.7.7.3.2.9.4 1.6.6l.9.2c.5.1.8.3 1 .5.2.2.3.4.3.8s-.2.7-.5.9c-.3.2-.8.3-1.5.3-.6 0-1.1-.1-1.5-.3-.4-.2-.6-.5-.7-.9l-1.2.2c.2.7.5 1.2 1 1.5.5.3 1.3.5 2.3.5 1 0 1.8-.2 2.4-.6.6-.4.8-1 .8-1.7 0-.3 0-.6-.1-.8.1-.3 0-.5-.2-.6z"/><path id="XMLID_2937_" class="st0" d="M125.8 521.2c-1.1 0-2 .3-2.6 1-.6.7-.9 1.7-.9 3 0 1.4.3 2.4.9 3.1.6.7 1.5 1 2.7 1 1.7 0 2.7-.6 3.2-1.9l-1.2-.3c-.1.4-.4.6-.7.9-.3.2-.8.3-1.4.3-.7 0-1.3-.2-1.6-.7-.4-.5-.6-1.2-.6-2.1h5.6v-.2c0-2.7-1.1-4.1-3.4-4.1zm-2.2 3.4c0-.7.2-1.3.6-1.8.4-.4.9-.6 1.5-.6.7 0 1.2.2 1.5.6.3.4.6 1 .6 1.8h-4.2z"/><path id="XMLID_2936_" class="st0" d="M139.2 528c-.3.3-.7.4-1.2.4-.7 0-1.2-.3-1.5-.8-.3-.5-.5-1.3-.5-2.3 0-1.1.2-1.9.5-2.3.3-.5.8-.7 1.5-.7.5 0 .9.1 1.2.4.3.3.4.6.5 1l1.3-.1c-.1-.7-.5-1.3-1-1.7-.5-.4-1.2-.6-2-.6-1.1 0-1.9.3-2.5 1-.6.7-.9 1.7-.9 3s.3 2.4.9 3c.6.7 1.4 1 2.5 1 .8 0 1.5-.2 2.1-.7.5-.5.9-1.1 1-1.8l-1.3-.1c-.1.7-.3 1-.6 1.3z"/><path id="XMLID_2935_" class="st0" d="M142.5 521.4h1.3v7.9h-1.3z"/><path id="XMLID_2934_" class="st0" d="M142.5 518.5h1.3v1.3h-1.3z"/><path id="XMLID_2933_" class="st0" d="M145.8 518.5h1.3v10.8h-1.3z"/><path id="XMLID_2932_" class="st0" d="M149.1 518.5h1.3v10.8h-1.3z"/><path id="XMLID_2931_" class="st0" d="M158.7 521.4h-1.3v4.6c0 .8-.2 1.4-.5 1.8-.4.4-.9.6-1.5.6-.4 0-.8-.1-1-.2-.2-.1-.4-.3-.5-.6-.1-.3-.2-.7-.2-1.2v-5h-1.3v5.3c0 1 .2 1.7.6 2.1.4.4 1 .6 1.9.6.6 0 1.1-.1 1.5-.3.4-.2.7-.6 1-1.2V529.3h1.2v-7.9z"/><path id="XMLID_2930_" class="st0" d="M168.9 521.2c-.5 0-1 .1-1.4.4-.4.2-.7.6-1 1.1-.1-.5-.4-.9-.7-1.1-.3-.2-.8-.4-1.4-.4-.5 0-1 .1-1.3.3-.4.2-.7.6-1 1.2v-.8-.4-.2h-1.2v7.9h1.3v-4.6c0-.8.2-1.4.5-1.8.3-.4.8-.6 1.3-.6s.9.1 1.1.4c.2.3.3.8.3 1.6v5h1.3v-4.6c0-.8.2-1.4.5-1.8.3-.4.8-.6 1.3-.6s.9.1 1.1.4c.2.3.3.8.3 1.6v5h1.3V524c0-1-.2-1.7-.5-2.1-.4-.4-1-.7-1.8-.7z"/><path id="XMLID_2927_" class="st0" d="M183.6 518.5h-1.3v4.2c-.2-.5-.6-.8-1-1-.4-.2-.9-.3-1.5-.3-1.9 0-2.9 1.4-2.9 4.1 0 1.4.2 2.4.7 3 .5.7 1.2 1 2.2 1 .6 0 1.1-.1 1.5-.3.4-.2.7-.6 1-1.1v1.2h1.3V518.5zm-1.8 9.1c-.3.5-.9.8-1.6.8-.7 0-1.1-.2-1.4-.7-.3-.5-.4-1.3-.4-2.4 0-1.1.1-1.9.4-2.4.3-.5.8-.7 1.4-.7.7 0 1.3.2 1.6.7.3.5.5 1.2.5 2.3 0 1.1-.2 1.9-.5 2.4z"/><path id="XMLID_2924_" class="st0" d="M188.8 521.2c-2.4 0-3.5 1.4-3.5 4.1 0 1.3.3 2.3.9 3 .6.7 1.5 1.1 2.6 1.1 1.2 0 2-.3 2.6-1 .6-.7.9-1.7.9-3.1 0-1.4-.3-2.4-.8-3.1-.7-.6-1.5-1-2.7-1zm1.6 6.5c-.3.5-.9.8-1.7.8-.7 0-1.3-.3-1.6-.8-.3-.5-.5-1.3-.5-2.3 0-1.1.2-1.9.5-2.4s.9-.8 1.7-.8c.8 0 1.3.2 1.6.7.3.5.5 1.3.5 2.4 0 1.1-.2 1.9-.5 2.4z"/><path id="XMLID_2923_" class="st0" d="M193.9 518.5h1.3v10.8h-1.3z"/><path id="XMLID_2920_" class="st0" d="M200.4 521.2c-2.4 0-3.5 1.4-3.5 4.1 0 1.3.3 2.3.9 3 .6.7 1.5 1.1 2.6 1.1 1.2 0 2-.3 2.6-1 .6-.7.9-1.7.9-3.1 0-1.4-.3-2.4-.8-3.1-.6-.6-1.5-1-2.7-1zm1.6 6.5c-.3.5-.9.8-1.7.8-.7 0-1.3-.3-1.6-.8-.3-.5-.5-1.3-.5-2.3 0-1.1.2-1.9.5-2.4s.9-.8 1.7-.8c.8 0 1.3.2 1.6.7.3.5.5 1.3.5 2.4 0 1.1-.2 1.9-.5 2.4z"/><path id="XMLID_2919_" class="st0" d="M207.5 521.6c-.3.2-.5.7-.7 1.4 0-.2 0-.7-.1-1.6h-1.2v7.8h1.3v-4.1c0-.9.1-1.5.4-2 .3-.5.7-.7 1.2-.7.3 0 .5 0 .7.1v-1.2c-.2 0-.4-.1-.5-.1-.4 0-.8.2-1.1.4z"/><path id="XMLID_2916_" class="st0" d="M213.6 521.2c-1.1 0-2 .3-2.6 1-.6.7-.9 1.7-.9 3 0 1.4.3 2.4.9 3.1.6.7 1.5 1 2.7 1 1.7 0 2.7-.6 3.2-1.9l-1.2-.3c-.1.4-.4.6-.7.9-.3.2-.8.3-1.4.3-.7 0-1.3-.2-1.6-.7-.4-.5-.6-1.2-.6-2.1h5.6v-.2c.1-2.7-1.1-4.1-3.4-4.1zm-2.1 3.4c0-.7.2-1.3.6-1.8.4-.4.9-.6 1.5-.6.7 0 1.2.2 1.5.6.4.4.6 1 .6 1.8h-4.2z"/><path id="XMLID_2913_" class="st0" d="M226.1 521.2c-1.1 0-2 .3-2.6 1-.6.7-.9 1.7-.9 3 0 1.4.3 2.4.9 3.1.6.7 1.5 1 2.7 1 1.7 0 2.7-.6 3.2-1.9l-1.1-.3c-.1.4-.4.6-.7.9-.3.2-.8.3-1.4.3-.7 0-1.3-.2-1.6-.7-.4-.5-.6-1.2-.6-2.1h5.6v-.2c-.1-2.7-1.2-4.1-3.5-4.1zm-2.2 3.4c0-.7.2-1.3.6-1.8.4-.4.9-.6 1.5-.6.7 0 1.2.2 1.5.6.4.4.6 1 .6 1.8h-4.2z"/><path id="XMLID_2912_" class="st0" d="M237.5 521.4h-1.3v4.6c0 .8-.2 1.4-.5 1.8-.4.4-.9.6-1.5.6-.4 0-.8-.1-1-.2-.2-.1-.4-.3-.5-.6-.1-.3-.2-.7-.2-1.2v-5h-1.3v5.3c0 1 .2 1.7.6 2.1.4.4 1 .6 1.9.6.6 0 1.1-.1 1.5-.3.4-.2.7-.6 1-1.2V529.3h1.2v-7.9z"/><path id="XMLID_2911_" class="st0" d="M244.4 518.9c-.3.3-.5.8-.5 1.6v.9h-1.1v1h1.1v6.9h1.3v-6.9h1.5v-1h-1.5v-.7c0-.4.1-.8.2-.9.2-.2.4-.3.7-.3.2 0 .4 0 .6.1v-1c-.3-.1-.6-.1-.9-.1-.6 0-1.1.1-1.4.4z"/><path id="XMLID_2910_" class="st0" d="M254 521.4h-1.3v4.6c0 .8-.2 1.4-.5 1.8-.4.4-.9.6-1.5.6-.4 0-.8-.1-1-.2-.2-.1-.4-.3-.5-.6-.1-.3-.2-.7-.2-1.2v-5h-1.3v5.3c0 1 .2 1.7.6 2.1.4.4 1 .6 1.9.6.6 0 1.1-.1 1.5-.3.4-.2.7-.6 1-1.2V529.3h1.2v-7.9z"/><path id="XMLID_2907_" class="st0" d="M261.1 522v.8c-.2-.5-.5-.8-.9-1.1-.4-.3-.9-.4-1.5-.4-1 0-1.7.3-2.2 1-.5.7-.7 1.7-.7 3.1 0 1.4.2 2.4.7 3 .5.6 1.2 1 2.1 1 .6 0 1.1-.1 1.5-.4.4-.3.8-.6 1-1.1v1.3c0 1.5-.7 2.3-2 2.3-.5 0-.9-.1-1.2-.3-.3-.2-.5-.5-.6-.8l-1.3.2c.1.6.5 1.1 1 1.4.5.3 1.2.5 2.1.5 2.2 0 3.3-1.1 3.3-3.3v-6-1.6h-1.2c0-.2-.1 0-.1.4zm-.3 4.9c-.2.5-.4.8-.7 1-.3.2-.7.4-1.1.4-.7 0-1.2-.2-1.5-.7-.3-.5-.4-1.2-.4-2.3 0-1.1.2-1.9.5-2.4s.8-.7 1.5-.7c.4 0 .8.1 1.1.4.3.2.6.6.7 1.1.2.5.3 1 .3 1.7-.1.5-.2 1.1-.4 1.5z"/><path id="XMLID_2906_" class="st0" d="M264.4 518.5h1.3v1.3h-1.3z"/><path id="XMLID_2905_" class="st0" d="M264.4 521.4h1.3v7.9h-1.3z"/><path id="XMLID_2902_" class="st0" d="M274 528.2c-.1-.2-.2-.5-.2-.9v-3.4c0-.9-.3-1.5-.7-2-.5-.5-1.2-.7-2.2-.7-1.9 0-2.9.7-3.2 2.1l1.4.1c.1-.4.2-.8.5-1 .3-.2.7-.3 1.3-.3.6 0 1 .1 1.3.4.3.3.4.7.4 1.4v.4h-1.8c-1.2 0-2.1.3-2.6.7-.5.4-.8 1.1-.8 1.9 0 .7.2 1.3.6 1.7.4.4 1 .6 1.8.6.6 0 1.2-.1 1.6-.4.4-.2.8-.7 1.2-1.3 0 .5.2.9.4 1.2.2.3.6.4 1.1.4.3 0 .7 0 1-.1v-.8c-.2 0-.3.1-.4.1-.4.2-.6.1-.7-.1zm-1.5-2.2c0 .4-.1.8-.3 1.2-.2.4-.5.7-.9.9-.4.2-.8.3-1.3.3-.4 0-.8-.1-1-.3-.2-.2-.3-.6-.3-1s.1-.7.3-1c.2-.2.4-.4.7-.5.3-.1.8-.2 1.4-.2h1.4v.6z"/><path id="XMLID_2901_" class="st0" d="M277.6 528.1c-.1-.2-.2-.4-.2-.8v-5h1.5v-1h-1.5v-1.8h-.9l-.4 1.8h-1v1h.9v5.3c0 1.2.5 1.8 1.6 1.8.5 0 .9-.1 1.3-.2v-1c-.3.1-.6.1-.8.1-.1 0-.4 0-.5-.2z"/><path id="XMLID_2900_" class="st0" d="M288.1 521.2c-.6 0-1.1.1-1.5.3-.4.2-.7.6-1 1.2v-.8-.4-.2h-1.2v7.9h1.3v-4.6c0-.8.2-1.4.5-1.8.4-.4.9-.6 1.5-.6.4 0 .8.1 1 .2.2.1.4.3.5.6.1.3.2.7.2 1.2v5h1.3V524c0-1-.2-1.7-.6-2.1-.5-.4-1.1-.7-2-.7z"/><path id="XMLID_2899_" class="st0" d="M298.8 521.4h-1.3v4.6c0 .8-.2 1.4-.5 1.8-.4.4-.9.6-1.5.6-.4 0-.8-.1-1-.2-.2-.1-.4-.3-.5-.6-.1-.3-.2-.7-.2-1.2v-5h-1.3v5.3c0 1 .2 1.7.6 2.1.4.4 1 .6 1.9.6.6 0 1.1-.1 1.5-.3.4-.2.7-.6 1-1.2V529.3h1.2v-7.9z"/><path id="XMLID_2898_" class="st0" d="M300.9 518.5h1.3v10.8h-1.3z"/><path id="XMLID_2897_" class="st0" d="M304.2 518.5h1.3v10.8h-1.3z"/><path id="XMLID_2894_" class="st0" d="M313.8 528.2c-.1-.2-.2-.5-.2-.9v-3.4c0-.9-.2-1.5-.7-2-.5-.5-1.2-.7-2.2-.7-1.9 0-2.9.7-3.2 2.1l1.4.1c.1-.4.2-.8.5-1 .3-.2.7-.3 1.3-.3.6 0 1 .1 1.3.4.3.3.4.7.4 1.4v.4h-1.8c-1.2 0-2.1.3-2.6.7-.5.4-.8 1.1-.8 1.9 0 .7.2 1.3.6 1.7.4.4 1 .6 1.8.6.6 0 1.2-.1 1.6-.4.4-.2.8-.7 1.2-1.3 0 .5.2.9.4 1.2.2.3.6.4 1.1.4.3 0 .7 0 1-.1v-.8c-.2 0-.3.1-.4.1-.4.2-.6.1-.7-.1zm-1.5-2.2c0 .4-.1.8-.3 1.2-.2.4-.5.7-.9.9-.4.2-.8.3-1.3.3-.4 0-.8-.1-1-.3-.2-.2-.3-.6-.3-1s.1-.7.3-1c.2-.2.4-.4.7-.5.3-.1.8-.2 1.4-.2h1.4v.6z"/><path id="XMLID_2891_" class="st0" d="M323.7 521.2c-.6 0-1.1.1-1.5.3-.4.2-.7.6-.9 1.1v-.5-.5-.2H320v11h1.3v-3.1-1.2c.4.9 1.2 1.4 2.4 1.4 1.9 0 2.9-1.4 2.9-4.1 0-1.4-.2-2.4-.7-3.1-.5-.7-1.2-1.1-2.2-1.1zm1.1 6.5c-.3.5-.8.7-1.4.7-.7 0-1.3-.2-1.6-.7-.3-.5-.5-1.3-.5-2.3 0-.7.1-1.3.2-1.8.2-.5.4-.8.7-1 .3-.2.7-.3 1.2-.3.6 0 1.1.2 1.4.7.3.5.4 1.3.4 2.4 0 1-.1 1.8-.4 2.3z"/><path id="XMLID_2888_" class="st0" d="M334.5 528.2c-.1-.2-.2-.5-.2-.9v-3.4c0-.9-.2-1.5-.8-2-.5-.5-1.2-.7-2.2-.7-1.9 0-2.9.7-3.2 2.1l1.4.1c.1-.4.2-.8.5-1 .3-.2.7-.3 1.3-.3.6 0 1 .1 1.3.4.3.3.4.7.4 1.4v.4h-1.8c-1.2 0-2.1.3-2.6.7-.5.4-.8 1.1-.8 1.9 0 .7.2 1.3.6 1.7.4.4 1 .6 1.8.6.6 0 1.2-.1 1.6-.4.4-.2.8-.7 1.2-1.3 0 .5.2.9.4 1.2.2.3.6.4 1.1.4.3 0 .7 0 1-.1v-.8c-.2 0-.3.1-.4.1-.3.2-.5.1-.6-.1zM333 526c0 .4-.1.8-.3 1.2-.2.4-.5.7-.9.9-.4.2-.8.3-1.3.3-.4 0-.8-.1-1-.3-.2-.2-.3-.6-.3-1s.1-.7.3-1c.2-.2.4-.4.7-.5.3-.1.8-.2 1.4-.2h1.4v.6z"/><path id="XMLID_2887_" class="st0" d="M338.6 521.6c-.3.2-.5.7-.7 1.4 0-.2 0-.7-.1-1.6h-1.2v7.8h1.3v-4.1c0-.9.1-1.5.4-2 .3-.5.7-.7 1.2-.7.3 0 .5 0 .7.1v-1.2c-.2 0-.4-.1-.5-.1-.5 0-.9.2-1.1.4z"/><path id="XMLID_2886_" class="st0" d="M341.5 521.4h1.3v7.9h-1.3z"/><path id="XMLID_2885_" class="st0" d="M341.5 518.5h1.3v1.3h-1.3z"/><path id="XMLID_2882_" class="st0" d="M351.1 528.2c-.1-.2-.2-.5-.2-.9v-3.4c0-.9-.2-1.5-.7-2-.5-.5-1.2-.7-2.2-.7-1.9 0-2.9.7-3.2 2.1l1.4.1c.1-.4.2-.8.5-1 .3-.2.7-.3 1.3-.3.6 0 1 .1 1.3.4.3.3.4.7.4 1.4v.4h-1.8c-1.2 0-2.1.3-2.6.7-.5.4-.8 1.1-.8 1.9 0 .7.2 1.3.6 1.7.4.4 1 .6 1.8.6.6 0 1.2-.1 1.6-.4.4-.2.8-.7 1.2-1.3 0 .5.2.9.4 1.2.2.3.6.4 1.1.4.3 0 .7 0 1-.1v-.8c-.2 0-.3.1-.4.1-.4.2-.6.1-.7-.1zm-1.5-2.2c0 .4-.1.8-.3 1.2-.2.4-.5.7-.9.9-.4.2-.8.3-1.3.3-.4 0-.8-.1-1-.3-.2-.2-.3-.6-.3-1s.1-.7.3-1c.2-.2.4-.4.7-.5.3-.1.8-.2 1.4-.2h1.4v.6z"/><path id="XMLID_2881_" class="st0" d="M354.7 528.1c-.1-.2-.2-.4-.2-.8v-5h1.5v-1h-1.5v-1.8h-.9l-.4 1.8h-1v1h.9v5.3c0 1.2.5 1.8 1.6 1.8.5 0 .9-.1 1.3-.2v-1c-.3.1-.6.1-.8.1-.1 0-.3 0-.5-.2z"/><path id="XMLID_2880_" class="st0" d="M363.5 521.4h-1.3v4.6c0 .8-.2 1.4-.5 1.8-.4.4-.9.6-1.5.6-.4 0-.8-.1-1-.2-.2-.1-.4-.3-.5-.6-.1-.3-.2-.7-.2-1.2v-5h-1.3v5.3c0 1 .2 1.7.6 2.1.4.4 1 .6 1.9.6.6 0 1.1-.1 1.5-.3.4-.2.7-.6 1-1.2V529.3h1.2v-7.9z"/><path id="XMLID_2879_" class="st0" d="M367.6 521.6c-.3.2-.5.7-.7 1.4 0-.2 0-.7-.1-1.6h-1.2v7.8h1.3v-4.1c0-.9.1-1.5.4-2 .3-.5.7-.7 1.2-.7.3 0 .5 0 .7.1v-1.2c-.2 0-.4-.1-.5-.1-.5 0-.8.2-1.1.4z"/><path id="XMLID_2878_" class="st0" d="M370.1 529.3h.6c0 .6-.2 1.2-.7 1.9h.9c.2-.3.3-.6.4-1 .1-.3.1-.8.1-1.3v-1.2H370v1.6z"/><path id="XMLID_2875_" class="st0" d="M381.1 521.2c-1.1 0-2 .3-2.6 1-.6.7-.9 1.7-.9 3 0 1.4.3 2.4.9 3.1.6.7 1.5 1 2.7 1 1.7 0 2.7-.6 3.2-1.9l-1.1-.3c-.1.4-.4.6-.7.9-.3.2-.8.3-1.4.3-.7 0-1.3-.2-1.6-.7-.4-.5-.6-1.2-.6-2.1h5.6v-.2c0-2.7-1.2-4.1-3.5-4.1zm-2.1 3.4c0-.7.2-1.3.6-1.8.4-.4.9-.6 1.5-.6.7 0 1.2.2 1.5.6.4.4.6 1 .6 1.8H379z"/><path id="XMLID_2874_" class="st0" d="M392.4 521.4h-1.5l-1.9 3-2-3h-1.4l2.6 3.8-2.8 4.1h1.4l2.2-3.3 2.1 3.3h1.5l-2.9-4.1z"/><path id="XMLID_2873_" class="st0" d="M397.9 528c-.3.3-.7.4-1.2.4-.7 0-1.2-.3-1.5-.8-.3-.5-.5-1.3-.5-2.3 0-1.1.2-1.9.5-2.3.3-.5.8-.7 1.5-.7.5 0 .9.1 1.2.4.3.3.5.6.5 1l1.3-.1c-.1-.7-.5-1.3-1-1.7-.5-.4-1.2-.6-2-.6-1.1 0-1.9.3-2.5 1-.6.7-.9 1.7-.9 3s.3 2.4.9 3c.6.7 1.4 1 2.5 1 .8 0 1.5-.2 2.1-.7.5-.5.9-1.1 1-1.8l-1.3-.1c-.1.7-.3 1-.6 1.3z"/><path id="XMLID_2870_" class="st0" d="M404.3 521.2c-1.1 0-2 .3-2.6 1-.6.7-.9 1.7-.9 3 0 1.4.3 2.4.9 3.1.6.7 1.5 1 2.7 1 1.7 0 2.7-.6 3.2-1.9l-1.1-.3c-.1.4-.4.6-.7.9-.3.2-.8.3-1.4.3-.7 0-1.3-.2-1.6-.7-.4-.5-.6-1.2-.6-2.1h5.6v-.2c0-2.7-1.1-4.1-3.5-4.1zm-2.1 3.4c0-.7.2-1.3.6-1.8.4-.4.9-.6 1.5-.6.7 0 1.2.2 1.5.6.3.4.6 1 .6 1.8h-4.2z"/><path id="XMLID_2867_" class="st0" d="M413.3 521.2c-.6 0-1.1.1-1.5.3-.4.2-.7.6-.9 1.1v-.5-.5-.2h-1.3v11h1.3v-3.1-1.2c.4.9 1.2 1.4 2.4 1.4 1.9 0 2.9-1.4 2.9-4.1 0-1.4-.2-2.4-.7-3.1-.5-.7-1.3-1.1-2.2-1.1zm1 6.5c-.3.5-.8.7-1.4.7-.7 0-1.3-.2-1.6-.7-.3-.5-.5-1.3-.5-2.3 0-.7.1-1.3.2-1.8.2-.5.4-.8.7-1 .3-.2.7-.3 1.2-.3.6 0 1.1.2 1.4.7.3.5.4 1.3.4 2.4.1 1-.1 1.8-.4 2.3z"/><path id="XMLID_2866_" class="st0" d="M419.4 528.1c-.1-.2-.2-.4-.2-.8v-5h1.5v-1h-1.5v-1.8h-.9l-.4 1.8h-1v1h.9v5.3c0 1.2.5 1.8 1.6 1.8.5 0 .9-.1 1.3-.2v-1c-.3.1-.6.1-.8.1-.1 0-.4 0-.5-.2z"/><path id="XMLID_2863_" class="st0" d="M425.1 521.2c-1.1 0-2 .3-2.6 1-.6.7-.9 1.7-.9 3 0 1.4.3 2.4.9 3.1.6.7 1.5 1 2.7 1 1.7 0 2.7-.6 3.2-1.9l-1.2-.3c-.1.4-.4.6-.7.9-.3.2-.8.3-1.4.3-.7 0-1.3-.2-1.6-.7-.4-.5-.6-1.2-.6-2.1h5.6v-.2c.1-2.7-1.1-4.1-3.4-4.1zm-2.2 3.4c0-.7.2-1.3.6-1.8.4-.4.9-.6 1.5-.6.7 0 1.2.2 1.5.6.3.4.6 1 .6 1.8h-4.2z"/><path id="XMLID_2862_" class="st0" d="M436.5 521.4h-1.3v4.6c0 .8-.2 1.4-.5 1.8-.4.4-.9.6-1.5.6-.4 0-.8-.1-1-.2-.2-.1-.4-.3-.5-.6-.1-.3-.2-.7-.2-1.2v-5h-1.3v5.3c0 1 .2 1.7.6 2.1.4.4 1 .6 1.9.6.6 0 1.1-.1 1.5-.3.4-.2.7-.6 1-1.2V529.3h1.2v-7.9z"/><path id="XMLID_2861_" class="st0" d="M440.6 521.6c-.3.2-.5.7-.7 1.4 0-.2 0-.7-.1-1.6h-1.2v7.8h1.3v-4.1c0-.9.1-1.5.4-2 .3-.5.7-.7 1.2-.7.3 0 .5 0 .7.1v-1.2c-.2 0-.4-.1-.5-.1-.5 0-.9.2-1.1.4z"/><path id="XMLID_2860_" class="st0" d="M84 543.6c-.2-.2-.4-.3-.7-.5-.3-.1-.8-.3-1.5-.5s-1.2-.3-1.4-.4c-.2-.1-.4-.2-.5-.4-.1-.1-.2-.3-.2-.6 0-.4.1-.6.4-.8.3-.2.7-.3 1.3-.3.5 0 1 .1 1.3.3.3.2.5.5.6.8l1.2-.1c-.1-.7-.5-1.2-1-1.5-.5-.3-1.2-.5-2.1-.5-1 0-1.7.2-2.2.6-.5.4-.8.9-.8 1.6 0 .4.1.7.3 1 .2.3.4.5.7.7.3.2.9.4 1.6.6l.9.2c.5.1.8.3 1 .5.2.2.3.4.3.8s-.2.7-.5.9c-.3.2-.8.3-1.5.3-.6 0-1.1-.1-1.5-.3-.3-.2-.6-.5-.7-.9l-1.2.2c.2.7.5 1.2 1 1.5.5.3 1.3.5 2.3.5 1 0 1.8-.2 2.4-.6.6-.4.8-1 .8-1.7 0-.3-.1-.6-.1-.8.1-.3 0-.5-.2-.6z"/><path id="XMLID_2859_" class="st0" d="M86.1 536.3h1.3v1.3h-1.3z"/><path id="XMLID_2858_" class="st0" d="M86.1 539.3h1.3v7.9h-1.3z"/><path id="XMLID_2857_" class="st0" d="M93.2 539.1c-.6 0-1.1.1-1.5.3-.4.2-.7.6-1 1.2v-.8-.4-.2h-1.2v7.9h1.3v-4.6c0-.8.2-1.4.5-1.8.4-.4.9-.6 1.5-.6.4 0 .8.1 1 .2.2.1.4.3.5.6.1.3.2.7.2 1.2v5h1.3v-5.3c0-1-.2-1.7-.6-2.1-.5-.4-1.1-.6-2-.6z"/><path id="XMLID_2856_" class="st0" d="M99.3 546c-.1-.2-.2-.4-.2-.8v-5h1.5v-1h-1.5v-1.8h-.9l-.4 1.8h-1v1h.9v5.3c0 1.2.5 1.8 1.6 1.8.4 0 .9-.1 1.3-.2v-1c-.3.1-.6.1-.8.1-.1 0-.3 0-.5-.2z"/><path id="XMLID_2853_" class="st0" d="M109.2 539.1c-2.4 0-3.5 1.4-3.5 4.1 0 1.3.3 2.3.9 3 .6.7 1.5 1.1 2.6 1.1 1.2 0 2-.3 2.6-1 .6-.7.9-1.7.9-3.1 0-1.4-.3-2.4-.9-3.1-.6-.6-1.4-1-2.6-1zm1.6 6.5c-.3.5-.9.8-1.7.8-.7 0-1.3-.3-1.6-.8-.3-.5-.5-1.3-.5-2.3 0-1.1.2-1.9.5-2.4s.9-.8 1.7-.8c.8 0 1.3.2 1.6.7.3.5.5 1.3.5 2.4 0 1.1-.2 1.9-.5 2.4z"/><path id="XMLID_2852_" class="st0" d="M118.5 545.9c-.3.3-.7.4-1.2.4-.7 0-1.2-.3-1.5-.8-.3-.5-.5-1.3-.5-2.3 0-1.1.2-1.9.5-2.3.3-.5.8-.7 1.5-.7.5 0 .9.1 1.2.4.3.3.5.6.5 1l1.3-.1c-.1-.7-.5-1.3-1-1.7-.5-.4-1.2-.6-2-.6-1.1 0-1.9.3-2.5 1-.6.7-.9 1.7-.9 3s.3 2.4.9 3c.6.7 1.4 1 2.5 1 .8 0 1.5-.2 2.1-.7.5-.4.9-1.1 1-1.8l-1.3-.1c-.1.7-.3 1-.6 1.3z"/><path id="XMLID_2851_" class="st0" d="M125.9 545.9c-.3.3-.7.4-1.2.4-.7 0-1.2-.3-1.5-.8-.3-.5-.5-1.3-.5-2.3 0-1.1.2-1.9.5-2.3.3-.5.8-.7 1.5-.7.5 0 .9.1 1.2.4.3.3.4.6.5 1l1.3-.1c-.1-.7-.5-1.3-1-1.7-.5-.4-1.2-.6-2-.6-1.1 0-1.9.3-2.5 1s-.9 1.7-.9 3 .3 2.4.9 3c.6.7 1.4 1 2.5 1 .8 0 1.5-.2 2.1-.7.5-.4.9-1.1 1-1.8l-1.3-.1c-.1.7-.3 1-.6 1.3z"/><path id="XMLID_2848_" class="st0" d="M135.5 546.1c-.1-.2-.2-.5-.2-.9v-3.4c0-.9-.2-1.5-.8-2-.5-.5-1.2-.7-2.2-.7-1.9 0-2.9.7-3.2 2.1l1.4.1c.1-.4.2-.8.5-1 .3-.2.7-.3 1.3-.3.6 0 1 .1 1.3.4.3.3.4.7.4 1.4v.4h-1.8c-1.2 0-2.1.3-2.6.7-.5.4-.8 1.1-.8 1.9 0 .7.2 1.3.6 1.7.4.4 1 .6 1.8.6.6 0 1.2-.1 1.6-.4.4-.2.8-.7 1.2-1.3 0 .5.2.9.4 1.2.2.3.6.4 1.1.4.3 0 .7 0 1-.1v-.8c-.2 0-.3.1-.4.1-.3.2-.5.1-.6-.1zm-1.5-2.2c0 .4-.1.8-.3 1.2-.2.4-.5.7-.9.9-.4.2-.8.3-1.3.3-.4 0-.8-.1-1-.4-.2-.2-.3-.6-.3-1s.1-.7.3-1c.2-.2.4-.4.7-.5.3-.1.8-.2 1.4-.2h1.4v.7z"/><path id="XMLID_2845_" class="st0" d="M140.7 539.1c-1.1 0-2 .3-2.6 1-.6.7-.9 1.7-.9 3 0 1.4.3 2.4.9 3.1.6.7 1.5 1 2.7 1 1.7 0 2.7-.6 3.2-1.9l-1.2-.3c-.1.4-.4.6-.7.9-.3.2-.8.3-1.4.3-.7 0-1.3-.2-1.6-.7-.4-.5-.6-1.2-.6-2.1h5.6v-.2c0-2.7-1.1-4.1-3.4-4.1zm-2.2 3.4c0-.7.2-1.3.6-1.8.4-.4.9-.6 1.5-.6.7 0 1.2.2 1.5.6.3.4.6 1 .6 1.8h-4.2z"/><path id="XMLID_2844_" class="st0" d="M150 545.9c-.3.3-.7.4-1.2.4-.7 0-1.2-.3-1.5-.8-.3-.5-.5-1.3-.5-2.3 0-1.1.2-1.9.5-2.3.3-.5.8-.7 1.5-.7.5 0 .9.1 1.2.4.3.3.4.6.5 1l1.3-.1c-.1-.7-.5-1.3-1-1.7-.5-.4-1.2-.6-2-.6-1.1 0-1.9.3-2.5 1-.6.7-.9 1.7-.9 3s.3 2.4.9 3c.6.7 1.4 1 2.5 1 .8 0 1.5-.2 2.1-.7.5-.4.9-1.1 1-1.8l-1.3-.1c-.1.7-.3 1-.6 1.3z"/><path id="XMLID_2841_" class="st0" d="M159.5 546.1c-.1-.2-.2-.5-.2-.9v-3.4c0-.9-.2-1.5-.8-2-.5-.5-1.2-.7-2.2-.7-1.9 0-2.9.7-3.2 2.1l1.4.1c.1-.4.2-.8.5-1 .3-.2.7-.3 1.3-.3.6 0 1 .1 1.3.4.3.3.4.7.4 1.4v.4h-1.8c-1.2 0-2.1.3-2.6.7-.5.4-.8 1.1-.8 1.9 0 .7.2 1.3.6 1.7.4.4 1 .6 1.8.6.6 0 1.2-.1 1.6-.4.4-.2.8-.7 1.2-1.3 0 .5.2.9.4 1.2.2.3.6.4 1.1.4.3 0 .7 0 1-.1v-.8c-.2 0-.3.1-.4.1-.3.2-.5.1-.6-.1zm-1.4-2.2c0 .4-.1.8-.3 1.2-.2.4-.5.7-.9.9-.4.2-.8.3-1.3.3-.4 0-.8-.1-1-.4-.2-.2-.3-.6-.3-1s.1-.7.3-1c.2-.2.4-.4.7-.5.3-.1.8-.2 1.4-.2h1.4v.7z"/><path id="XMLID_2840_" class="st0" d="M163.2 546c-.1-.2-.2-.4-.2-.8v-5h1.5v-1H163v-1.8h-.9l-.4 1.8h-1v1h.9v5.3c0 1.2.5 1.8 1.6 1.8.4 0 .9-.1 1.3-.2v-1c-.3.1-.6.1-.8.1-.2 0-.4 0-.5-.2z"/><path id="XMLID_2839_" class="st0" d="M174 545.9c-.3.3-.7.4-1.2.4-.7 0-1.2-.3-1.5-.8-.3-.5-.5-1.3-.5-2.3 0-1.1.2-1.9.5-2.3.3-.5.8-.7 1.5-.7.5 0 .9.1 1.2.4.3.3.4.6.5 1l1.3-.1c-.1-.7-.5-1.3-1-1.7-.5-.4-1.2-.6-2-.6-1.1 0-1.9.3-2.5 1-.6.7-.9 1.7-.9 3s.3 2.4.9 3c.6.7 1.4 1 2.5 1 .8 0 1.5-.2 2.1-.7.5-.4.9-1.1 1-1.8l-1.3-.1c-.1.7-.3 1-.6 1.3z"/><path id="XMLID_2838_" class="st0" d="M183.6 539.3h-1.3v4.6c0 .8-.2 1.4-.5 1.8-.4.4-.9.6-1.5.6-.4 0-.8-.1-1-.2-.2-.1-.4-.3-.5-.6-.1-.3-.2-.7-.2-1.2v-5h-1.3v5.3c0 1 .2 1.7.6 2.1.4.4 1 .6 1.9.6.6 0 1.1-.1 1.5-.3.4-.2.7-.6 1-1.2V547.2h1.2v-7.9z"/><path id="XMLID_2835_" class="st0" d="M189.4 539.1c-.6 0-1.1.1-1.5.3-.4.2-.7.6-.9 1.1v-.5-.5-.2h-1.3v11h1.3v-3.1-1.2c.4.9 1.2 1.4 2.4 1.4 1.9 0 2.9-1.4 2.9-4.1 0-1.4-.2-2.4-.7-3.1-.5-.7-1.3-1.1-2.2-1.1zm1 6.5c-.3.5-.8.7-1.4.7-.7 0-1.3-.2-1.6-.7-.3-.5-.5-1.3-.5-2.3 0-.7.1-1.3.2-1.8.2-.5.4-.8.7-1 .3-.2.7-.3 1.2-.3.6 0 1.1.2 1.4.7.3.5.4 1.3.4 2.4.1 1-.1 1.8-.4 2.3z"/><path id="XMLID_2834_" class="st0" d="M193.9 539.3h1.3v7.9h-1.3z"/><path id="XMLID_2833_" class="st0" d="M193.9 536.3h1.3v1.3h-1.3z"/><path id="XMLID_2830_" class="st0" d="M203.5 536.3h-1.3v4.2c-.2-.5-.6-.8-1-1-.4-.2-.9-.3-1.5-.3-1.9 0-2.9 1.4-2.9 4.1 0 1.4.2 2.4.7 3 .5.7 1.2 1 2.2 1 .6 0 1.1-.1 1.5-.3.4-.2.7-.6 1-1.1v1.2h1.3V536.3zm-1.8 9.2c-.3.5-.9.8-1.6.8-.7 0-1.1-.2-1.4-.7-.3-.5-.4-1.3-.4-2.4 0-1.1.1-1.9.4-2.4.3-.5.8-.7 1.4-.7.7 0 1.3.2 1.6.7.3.5.5 1.2.5 2.3 0 1.1-.2 1.9-.5 2.4z"/><path id="XMLID_2827_" class="st0" d="M211.8 546.1c-.1-.2-.2-.5-.2-.9v-3.4c0-.9-.3-1.5-.8-2s-1.2-.7-2.2-.7c-1.9 0-2.9.7-3.2 2.1l1.4.1c.1-.4.2-.8.5-1 .3-.2.7-.3 1.3-.3.6 0 1 .1 1.3.4.3.3.4.7.4 1.4v.4h-1.8c-1.2 0-2.1.3-2.6.7-.5.4-.8 1.1-.8 1.9 0 .7.2 1.3.6 1.7.4.4 1 .6 1.8.6.6 0 1.2-.1 1.6-.4.4-.2.8-.7 1.2-1.3 0 .5.2.9.4 1.2.2.3.6.4 1.1.4.3 0 .7 0 1-.1v-.8c-.2 0-.3.1-.4.1-.3.2-.5.1-.6-.1zm-1.5-2.2c0 .4-.1.8-.3 1.2-.2.4-.5.7-.9.9-.4.2-.8.3-1.3.3-.4 0-.8-.1-1-.4-.2-.2-.3-.6-.3-1s.1-.7.3-1c.2-.2.4-.4.7-.5.3-.1.8-.2 1.4-.2h1.4v.7z"/><path id="XMLID_2826_" class="st0" d="M215.4 546c-.1-.2-.2-.4-.2-.8v-5h1.5v-1h-1.5v-1.8h-.9l-.4 1.8h-1v1h.9v5.3c0 1.2.5 1.8 1.6 1.8.4 0 .9-.1 1.3-.2v-1c-.3.1-.6.1-.8.1-.1 0-.3 0-.5-.2z"/><path id="XMLID_2823_" class="st0" d="M224.2 546.1c-.1-.2-.2-.5-.2-.9v-3.4c0-.9-.3-1.5-.7-2-.5-.5-1.2-.7-2.2-.7-1.9 0-2.9.7-3.2 2.1l1.4.1c.1-.4.2-.8.5-1 .3-.2.7-.3 1.3-.3.6 0 1 .1 1.3.4.3.3.4.7.4 1.4v.4H221c-1.2 0-2.1.3-2.6.7-.5.4-.8 1.1-.8 1.9 0 .7.2 1.3.6 1.7.4.4 1 .6 1.8.6.6 0 1.2-.1 1.6-.4.4-.2.8-.7 1.2-1.3 0 .5.2.9.4 1.2.2.3.6.4 1.1.4.3 0 .7 0 1-.1v-.8c-.2 0-.3.1-.4.1-.4.2-.6.1-.7-.1zm-1.4-2.2c0 .4-.1.8-.3 1.2-.2.4-.5.7-.9.9-.4.2-.8.3-1.3.3-.4 0-.8-.1-1-.4-.2-.2-.3-.6-.3-1s.1-.7.3-1c.2-.2.4-.4.7-.5.3-.1.8-.2 1.4-.2h1.4v.7z"/><path id="XMLID_2822_" class="st0" d="M227.9 546c-.1-.2-.2-.4-.2-.8v-5h1.5v-1h-1.5v-1.8h-.9l-.4 1.8h-1v1h.9v5.3c0 1.2.5 1.8 1.6 1.8.5 0 .9-.1 1.3-.2v-1c-.3.1-.6.1-.8.1-.2 0-.4 0-.5-.2z"/><path id="XMLID_2821_" class="st0" d="M238.4 539.1c-.6 0-1.1.1-1.5.3-.4.2-.7.6-1 1.2v-.8-.4-.2h-1.2v7.9h1.3v-4.6c0-.8.2-1.4.5-1.8.4-.4.9-.6 1.5-.6.4 0 .8.1 1 .2.2.1.4.3.5.6.1.3.2.7.2 1.2v5h1.3v-5.3c0-1-.2-1.7-.6-2.1-.5-.4-1.2-.6-2-.6z"/><path id="XMLID_2818_" class="st0" d="M246 539.1c-2.4 0-3.5 1.4-3.5 4.1 0 1.3.3 2.3.9 3 .6.7 1.5 1.1 2.6 1.1 1.2 0 2-.3 2.6-1 .6-.7.9-1.7.9-3.1 0-1.4-.3-2.4-.8-3.1-.6-.6-1.5-1-2.7-1zm1.6 6.5c-.3.5-.9.8-1.7.8-.7 0-1.3-.3-1.6-.8-.3-.5-.5-1.3-.5-2.3 0-1.1.2-1.9.5-2.4s.9-.8 1.7-.8c.8 0 1.3.2 1.6.7.3.5.5 1.3.5 2.4 0 1.1-.1 1.9-.5 2.4z"/><path id="XMLID_2817_" class="st0" d="M255 539.1c-.6 0-1.1.1-1.5.3-.4.2-.7.6-1 1.2v-.8-.4-.2h-1.2v7.9h1.3v-4.6c0-.8.2-1.4.5-1.8.4-.4.9-.6 1.5-.6.4 0 .8.1 1 .2.2.1.4.3.5.6.1.3.2.7.2 1.2v5h1.3v-5.3c0-1-.2-1.7-.6-2.1-.6-.4-1.2-.6-2-.6z"/><path id="XMLID_2814_" class="st0" d="M267.3 539.1c-.6 0-1.1.1-1.5.3-.4.2-.7.6-.9 1.1v-.5-.5-.2h-1.3v11h1.3v-3.1-1.2c.4.9 1.2 1.4 2.4 1.4 1.9 0 2.9-1.4 2.9-4.1 0-1.4-.2-2.4-.7-3.1-.5-.7-1.2-1.1-2.2-1.1zm1.1 6.5c-.3.5-.8.7-1.4.7-.7 0-1.3-.2-1.6-.7-.3-.5-.5-1.3-.5-2.3 0-.7.1-1.3.2-1.8.2-.5.4-.8.7-1 .3-.2.7-.3 1.2-.3.6 0 1.1.2 1.4.7.3.5.4 1.3.4 2.4.1 1-.1 1.8-.4 2.3z"/><path id="XMLID_2813_" class="st0" d="M273.9 539.5c-.3.2-.5.7-.7 1.4 0-.2 0-.7-.1-1.6h-1.2v7.8h1.3V543c0-.9.1-1.5.4-2 .3-.5.7-.7 1.2-.7.3 0 .5 0 .7.1v-1.2c-.2-.1-.4-.1-.5-.1-.5 0-.8.2-1.1.4z"/><path id="XMLID_2810_" class="st0" d="M280 539.1c-2.4 0-3.5 1.4-3.5 4.1 0 1.3.3 2.3.9 3 .6.7 1.5 1.1 2.6 1.1 1.2 0 2-.3 2.6-1 .6-.7.9-1.7.9-3.1 0-1.4-.3-2.4-.8-3.1-.6-.6-1.5-1-2.7-1zm1.6 6.5c-.3.5-.9.8-1.7.8-.7 0-1.3-.3-1.6-.8-.3-.5-.5-1.3-.5-2.3 0-1.1.2-1.9.5-2.4s.9-.8 1.7-.8c.8 0 1.3.2 1.6.7.3.5.5 1.3.5 2.4 0 1.1-.2 1.9-.5 2.4z"/><path id="XMLID_2809_" class="st0" d="M285.1 536.3h1.3v1.3h-1.3z"/><path id="XMLID_2808_" class="st0" d="M285.1 539.3h1.3v7.9h-1.3z"/><path id="XMLID_2805_" class="st0" d="M294.7 536.3h-1.3v4.2c-.2-.5-.6-.8-1-1-.4-.2-.9-.3-1.5-.3-1.9 0-2.9 1.4-2.9 4.1 0 1.4.2 2.4.7 3 .5.7 1.2 1 2.2 1 .6 0 1.1-.1 1.5-.3.4-.2.7-.6 1-1.1v1.2h1.3V536.3zm-1.8 9.2c-.3.5-.9.8-1.6.8-.7 0-1.1-.2-1.4-.7-.3-.5-.4-1.3-.4-2.4 0-1.1.1-1.9.4-2.4s.8-.7 1.4-.7c.7 0 1.3.2 1.6.7.3.5.5 1.2.5 2.3 0 1.1-.2 1.9-.5 2.4z"/><path id="XMLID_2802_" class="st0" d="M299.9 539.1c-1.1 0-2 .3-2.6 1-.6.7-.9 1.7-.9 3 0 1.4.3 2.4.9 3.1.6.7 1.5 1 2.7 1 1.7 0 2.7-.6 3.2-1.9l-1.1-.3c-.1.4-.4.6-.7.9-.3.2-.8.3-1.4.3-.7 0-1.3-.2-1.6-.7-.4-.5-.6-1.2-.6-2.1h5.6v-.2c0-2.7-1.2-4.1-3.5-4.1zm-2.1 3.4c0-.7.2-1.3.6-1.8.4-.4.9-.6 1.5-.6.7 0 1.2.2 1.5.6.4.4.6 1 .6 1.8h-4.2z"/><path id="XMLID_2801_" class="st0" d="M308.9 539.1c-.6 0-1.1.1-1.5.3-.4.2-.7.6-1 1.2v-.8-.4-.2H305v7.9h1.3v-4.6c0-.8.2-1.4.5-1.8.4-.4.9-.6 1.5-.6.4 0 .8.1 1 .2.2.1.4.3.5.6.1.3.2.7.2 1.2v5h1.3v-5.3c0-1-.2-1.7-.6-2.1-.3-.4-1-.6-1.8-.6z"/><path id="XMLID_2800_" class="st0" d="M315 546c-.1-.2-.2-.4-.2-.8v-5h1.5v-1h-1.5v-1.8h-.9l-.4 1.8h-1v1h.9v5.3c0 1.2.5 1.8 1.6 1.8.5 0 .9-.1 1.3-.2v-1c-.3.1-.6.1-.8.1-.2 0-.4 0-.5-.2z"/><path id="XMLID_2799_" class="st0" d="M317.9 547.2h.6c0 .6-.2 1.2-.7 1.9h.9c.2-.3.3-.6.4-1 .1-.3.1-.8.1-1.3v-1.2h-1.4v1.6z"/><path id="XMLID_2798_" class="st0" d="M331.1 543.6c-.2-.2-.4-.3-.7-.5-.3-.1-.8-.3-1.5-.5s-1.2-.3-1.4-.4c-.2-.1-.4-.2-.5-.4-.1-.1-.2-.3-.2-.6 0-.4.1-.6.4-.8.3-.2.7-.3 1.3-.3.5 0 1 .1 1.3.3.3.2.5.5.6.8l1.2-.1c-.1-.7-.5-1.2-1-1.5-.5-.3-1.2-.5-2.1-.5-1 0-1.7.2-2.2.6-.5.4-.8.9-.8 1.6 0 .4.1.7.3 1 .2.3.4.5.7.7.3.2.9.4 1.6.6l.9.2c.5.1.8.3 1 .5.2.2.3.4.3.8s-.2.7-.5.9c-.3.2-.8.3-1.5.3-.6 0-1.1-.1-1.5-.3-.3-.2-.6-.5-.7-.9l-1.2.2c.2.7.5 1.2 1 1.5.5.3 1.3.5 2.3.5 1 0 1.8-.2 2.4-.6.6-.4.8-1 .8-1.7 0-.3-.1-.6-.1-.8.1-.3 0-.5-.2-.6z"/><path id="XMLID_2797_" class="st0" d="M339.5 539.3h-1.3v4.6c0 .8-.2 1.4-.5 1.8-.4.4-.9.6-1.5.6-.4 0-.8-.1-1-.2-.2-.1-.4-.3-.5-.6-.1-.3-.2-.7-.2-1.2v-5h-1.3v5.3c0 1 .2 1.7.6 2.1.4.4 1 .6 1.9.6.6 0 1.1-.1 1.5-.3.4-.2.7-.6 1-1.2V547.2h1.2v-7.9z"/><path id="XMLID_2796_" class="st0" d="M345.3 539.1c-.6 0-1.1.1-1.5.3-.4.2-.7.6-1 1.2v-.8-.4-.2h-1.2v7.9h1.3v-4.6c0-.8.2-1.4.5-1.8.4-.4.9-.6 1.5-.6.4 0 .8.1 1 .2.2.1.4.3.5.6.1.3.2.7.2 1.2v5h1.3v-5.3c0-1-.2-1.7-.6-2.1-.5-.4-1.1-.6-2-.6z"/><path id="XMLID_2795_" class="st0" d="M351.4 546c-.1-.2-.2-.4-.2-.8v-5h1.5v-1h-1.5v-1.8h-.9l-.4 1.8h-1v1h.9v5.3c0 1.2.5 1.8 1.6 1.8.4 0 .9-.1 1.3-.2v-1c-.3.1-.6.1-.8.1-.1 0-.3 0-.5-.2z"/><path id="XMLID_2794_" class="st0" d="M358.1 536.3h1.3v1.3h-1.3z"/><path id="XMLID_2793_" class="st0" d="M358.1 539.3h1.3v7.9h-1.3z"/><path id="XMLID_2792_" class="st0" d="M365.2 539.1c-.6 0-1.1.1-1.5.3-.4.2-.7.6-1 1.2v-.8-.4-.2h-1.2v7.9h1.3v-4.6c0-.8.2-1.4.5-1.8.4-.4.9-.6 1.5-.6.4 0 .8.1 1 .2.2.1.4.3.5.6.1.3.2.7.2 1.2v5h1.3v-5.3c0-1-.2-1.7-.6-2.1-.5-.4-1.1-.6-2-.6z"/><path id="XMLID_2791_" class="st0" d="M378 545.9c-.3.3-.7.4-1.2.4-.7 0-1.2-.3-1.5-.8-.3-.5-.5-1.3-.5-2.3 0-1.1.2-1.9.5-2.3.3-.5.8-.7 1.5-.7.5 0 .9.1 1.2.4.3.3.5.6.5 1l1.3-.1c-.1-.7-.5-1.3-1-1.7-.5-.4-1.2-.6-2-.6-1.1 0-1.9.3-2.5 1-.6.7-.9 1.7-.9 3s.3 2.4.9 3c.6.7 1.4 1 2.5 1 .8 0 1.5-.2 2.1-.7.5-.4.9-1.1 1-1.8l-1.3-.1c-.1.7-.3 1-.6 1.3z"/><path id="XMLID_2790_" class="st0" d="M387.6 539.3h-1.3v4.6c0 .8-.2 1.4-.5 1.8-.4.4-.9.6-1.5.6-.4 0-.8-.1-1-.2-.2-.1-.4-.3-.5-.6-.1-.3-.2-.7-.2-1.2v-5h-1.3v5.3c0 1 .2 1.7.6 2.1.4.4 1 .6 1.9.6.6 0 1.1-.1 1.5-.3.4-.2.7-.6 1-1.2V547.2h1.2v-7.9z"/><path id="XMLID_2789_" class="st0" d="M389.6 536.3h1.3v10.8h-1.3z"/><path id="XMLID_2786_" class="st0" d="M396.7 539.1c-.6 0-1.1.1-1.5.3-.4.2-.7.6-.9 1.1v-.5-.5-.2H393v11h1.3v-3.1-1.2c.4.9 1.2 1.4 2.4 1.4 1.9 0 2.9-1.4 2.9-4.1 0-1.4-.2-2.4-.7-3.1-.5-.7-1.2-1.1-2.2-1.1zm1.1 6.5c-.3.5-.8.7-1.4.7-.7 0-1.3-.2-1.6-.7-.3-.5-.5-1.3-.5-2.3 0-.7.1-1.3.2-1.8.2-.5.4-.8.7-1 .3-.2.7-.3 1.2-.3.6 0 1.1.2 1.4.7.3.5.4 1.3.4 2.4 0 1-.1 1.8-.4 2.3z"/><path id="XMLID_2783_" class="st0" d="M407.5 546.1c-.1-.2-.2-.5-.2-.9v-3.4c0-.9-.2-1.5-.7-2-.5-.5-1.2-.7-2.2-.7-1.9 0-2.9.7-3.2 2.1l1.4.1c.1-.4.2-.8.5-1 .3-.2.7-.3 1.3-.3.6 0 1 .1 1.3.4.3.3.4.7.4 1.4v.4h-1.8c-1.2 0-2.1.3-2.6.7-.5.4-.8 1.1-.8 1.9 0 .7.2 1.3.6 1.7.4.4 1 .6 1.8.6.6 0 1.2-.1 1.6-.4.4-.2.8-.7 1.2-1.3 0 .5.2.9.4 1.2.2.3.6.4 1.1.4.3 0 .7 0 1-.1v-.8c-.2 0-.3.1-.4.1-.4.2-.6.1-.7-.1zm-1.5-2.2c0 .4-.1.8-.3 1.2-.2.4-.5.7-.9.9-.4.2-.8.3-1.3.3-.4 0-.8-.1-1-.4-.2-.2-.3-.6-.3-1s.1-.7.3-1c.2-.2.4-.4.7-.5.3-.1.8-.2 1.4-.2h1.4v.7z"/><path id="XMLID_2780_" class="st0" d="M418.7 539.7v.8c-.3-.5-.6-.8-1-1.1-.4-.2-.9-.3-1.5-.3-1.9 0-2.9 1.4-2.9 4.1 0 1.3.2 2.4.7 3 .5.7 1.2 1 2.2 1 .6 0 1.1-.1 1.5-.3.4-.2.7-.6 1-1.1v4.4h1.3v-8.9c0-1.1 0-1.9.1-2.1h-1.3c-.1 0-.1.2-.1.5zm-.6 5.8c-.3.5-.9.8-1.6.8-.6 0-1.1-.2-1.4-.7-.3-.5-.4-1.3-.4-2.4 0-1.1.1-1.9.4-2.4.3-.5.8-.7 1.4-.7.7 0 1.3.2 1.6.7.3.5.5 1.3.5 2.3 0 1.1-.1 1.9-.5 2.4z"/><path id="XMLID_2779_" class="st0" d="M428.2 539.3h-1.3v4.6c0 .8-.2 1.4-.5 1.8-.4.4-.9.6-1.5.6-.4 0-.8-.1-1-.2-.2-.1-.4-.3-.5-.6-.1-.3-.2-.7-.2-1.2v-5h-1.3v5.3c0 1 .2 1.7.6 2.1.4.4 1 .6 1.9.6.6 0 1.1-.1 1.5-.3.4-.2.7-.6 1-1.2V547.2h1.2v-7.9z"/><path id="XMLID_2778_" class="st0" d="M430.2 539.3h1.3v7.9h-1.3z"/><path id="XMLID_2777_" class="st0" d="M430.2 536.3h1.3v1.3h-1.3z"/><path id="XMLID_2774_" class="st0" d="M124.3 557c-2.4 0-3.5 1.4-3.5 4.1 0 1.3.3 2.3.9 3 .6.7 1.5 1.1 2.6 1.1 1.2 0 2-.3 2.6-1 .6-.7.9-1.7.9-3.1 0-1.4-.3-2.4-.9-3.1-.6-.6-1.4-1-2.6-1zm1.6 6.5c-.3.5-.9.8-1.7.8-.7 0-1.3-.3-1.6-.8-.3-.5-.5-1.3-.5-2.3 0-1.1.2-1.9.5-2.4s.9-.8 1.7-.8c.8 0 1.3.2 1.6.7.3.5.5 1.3.5 2.4 0 1.1-.2 1.9-.5 2.4z"/><path id="XMLID_2773_" class="st0" d="M130.2 554.7c-.3.3-.5.8-.5 1.6v.9h-1.1v1h1.1v6.9h1.3v-6.9h1.5v-1H131v-.7c0-.4.1-.8.2-.9.2-.2.4-.3.7-.3.2 0 .4 0 .6.1v-1c-.3-.1-.6-.1-.9-.1-.6 0-1.1.1-1.4.4z"/><path id="XMLID_2772_" class="st0" d="M134.1 554.7c-.3.3-.5.8-.5 1.6v.9h-1.1v1h1.1v6.9h1.3v-6.9h1.5v-1h-1.5v-.7c0-.4.1-.8.2-.9.2-.2.4-.3.7-.3.2 0 .4 0 .6.1v-1c-.3-.1-.6-.1-.9-.1-.6 0-1.1.1-1.4.4z"/><path id="XMLID_2771_" class="st0" d="M137.4 557.2h1.3v7.9h-1.3z"/><path id="XMLID_2770_" class="st0" d="M137.4 554.3h1.3v1.3h-1.3z"/><path id="XMLID_2769_" class="st0" d="M144.9 563.8c-.3.3-.7.4-1.2.4-.7 0-1.2-.3-1.5-.8-.3-.5-.5-1.3-.5-2.3 0-1.1.2-1.9.5-2.3.3-.5.8-.7 1.5-.7.5 0 .9.1 1.2.4.3.3.4.6.5 1l1.3-.1c-.1-.7-.5-1.3-1-1.7-.5-.4-1.2-.6-2-.6-1.1 0-1.9.3-2.5 1-.6.7-.9 1.7-.9 3s.3 2.4.9 3c.6.7 1.4 1 2.5 1 .8 0 1.5-.2 2.1-.7.5-.5.9-1.1 1-1.8l-1.3-.1c-.1.7-.3 1-.6 1.3z"/><path id="XMLID_2768_" class="st0" d="M148.2 557.2h1.3v7.9h-1.3z"/><path id="XMLID_2767_" class="st0" d="M148.2 554.3h1.3v1.3h-1.3z"/><path id="XMLID_2764_" class="st0" d="M157.8 564c-.1-.2-.2-.5-.2-.9v-3.4c0-.9-.2-1.5-.7-2-.5-.5-1.2-.7-2.2-.7-1.9 0-2.9.7-3.2 2.1l1.4.1c.1-.4.2-.8.5-1 .3-.2.7-.3 1.3-.3.6 0 1 .1 1.3.4.3.3.4.7.4 1.4v.4h-1.8c-1.2 0-2.1.3-2.6.7-.5.4-.8 1.1-.8 1.9 0 .7.2 1.3.6 1.7.4.4 1 .6 1.8.6.6 0 1.2-.1 1.6-.4.4-.2.8-.7 1.2-1.3 0 .5.2.9.4 1.2.2.3.6.4 1.1.4.3 0 .7 0 1-.1v-.8c-.2 0-.3.1-.4.1-.4.2-.6.1-.7-.1zm-1.5-2.2c0 .4-.1.8-.3 1.2-.2.4-.5.7-.9.9-.4.2-.8.3-1.3.3-.4 0-.8-.1-1-.4-.2-.2-.3-.6-.3-1s.1-.7.3-1c.2-.2.4-.4.7-.5.3-.1.8-.2 1.4-.2h1.4v.7z"/><path id="XMLID_2761_" class="st0" d="M170.2 554.3h-1.3v4.2c-.2-.5-.6-.8-1-1-.4-.2-.9-.3-1.5-.3-1.9 0-2.9 1.4-2.9 4.1 0 1.4.2 2.4.7 3 .5.7 1.2 1 2.2 1 .6 0 1.1-.1 1.5-.3.4-.2.7-.6 1-1.1v1.2h1.3V554.3zm-1.8 9.1c-.3.5-.9.8-1.6.8-.7 0-1.1-.2-1.4-.7-.3-.5-.4-1.3-.4-2.4 0-1.1.1-1.9.4-2.4.3-.5.8-.7 1.4-.7.7 0 1.3.2 1.6.7.3.5.5 1.2.5 2.3 0 1.1-.2 1.9-.5 2.4z"/><path id="XMLID_2758_" class="st0" d="M175.4 557c-1.1 0-2 .3-2.6 1-.6.7-.9 1.7-.9 3 0 1.4.3 2.4.9 3.1.6.7 1.5 1 2.7 1 1.7 0 2.7-.6 3.2-1.9l-1.2-.3c-.1.4-.4.6-.7.9-.3.2-.8.3-1.4.3-.7 0-1.3-.2-1.6-.7-.4-.5-.6-1.2-.6-2.1h5.6v-.2c.1-2.7-1.1-4.1-3.4-4.1zm-2.1 3.4c0-.7.2-1.3.6-1.8.4-.4.9-.6 1.5-.6.7 0 1.2.2 1.5.6.3.4.6 1 .6 1.8h-4.2z"/><path id="XMLID_2757_" class="st0" d="M185.9 561.5c-.2-.2-.4-.3-.7-.5-.3-.1-.8-.3-1.5-.5s-1.2-.3-1.4-.4c-.2-.1-.4-.2-.5-.4-.1-.1-.2-.3-.2-.6 0-.4.1-.6.4-.8.3-.2.7-.3 1.3-.3.5 0 1 .1 1.3.3.3.2.5.5.6.8l1.2-.1c-.1-.7-.5-1.2-1-1.5-.5-.3-1.2-.5-2.1-.5-1 0-1.7.2-2.2.6-.5.4-.8.9-.8 1.6 0 .4.1.7.3 1 .2.3.4.5.7.7.3.2.9.4 1.6.6l.9.2c.5.1.8.3 1 .5.2.2.3.4.3.8s-.2.7-.5.9c-.3.2-.8.3-1.5.3-.6 0-1.1-.1-1.5-.3-.4-.2-.6-.5-.7-.9l-1.2.2c.2.7.5 1.2 1 1.5.5.3 1.3.5 2.3.5 1 0 1.8-.2 2.4-.6.6-.4.8-1 .8-1.7 0-.3 0-.6-.1-.8.1-.3 0-.5-.2-.6z"/><path id="XMLID_2754_" class="st0" d="M191.1 557c-1.1 0-2 .3-2.6 1-.6.7-.9 1.7-.9 3 0 1.4.3 2.4.9 3.1.6.7 1.5 1 2.7 1 1.7 0 2.7-.6 3.2-1.9l-1.2-.3c-.1.4-.4.6-.7.9-.3.2-.8.3-1.4.3-.7 0-1.3-.2-1.6-.7-.4-.5-.6-1.2-.6-2.1h5.6v-.2c.1-2.7-1-4.1-3.4-4.1zm-2.1 3.4c0-.7.2-1.3.6-1.8.4-.4.9-.6 1.5-.6.7 0 1.2.2 1.5.6.3.4.6 1 .6 1.8H189z"/><path id="XMLID_2753_" class="st0" d="M198.3 557.4c-.3.2-.5.7-.7 1.4 0-.2 0-.7-.1-1.6h-1.2v7.8h1.3v-4c0-.9.1-1.5.4-2 .3-.5.7-.7 1.2-.7.3 0 .5 0 .7.1v-1.2c-.2 0-.4-.1-.5-.1-.4-.1-.8.1-1.1.3z"/><path id="XMLID_2752_" class="st0" d="M207.5 557.2h-1.3v4.6c0 .8-.2 1.4-.5 1.8-.4.4-.9.6-1.5.6-.4 0-.8-.1-1-.2s-.4-.3-.5-.6c-.1-.3-.2-.7-.2-1.2v-5h-1.3v5.3c0 1 .2 1.7.6 2.1.4.4 1 .6 1.9.6.6 0 1.1-.1 1.5-.3.4-.2.7-.6 1-1.2V565.1h1.2v-7.9z"/><path id="XMLID_2751_" class="st0" d="M213.4 557c-.6 0-1.1.1-1.5.3-.4.2-.7.6-1 1.2v-.8-.4-.2h-1.2v7.9h1.3v-4.6c0-.8.2-1.4.5-1.8.4-.4.9-.7 1.5-.7.4 0 .8.1 1 .2.2.1.4.3.5.6.1.3.2.7.2 1.2v5h1.3v-5.3c0-1-.2-1.7-.6-2.1-.5-.3-1.2-.5-2-.5z"/><path id="XMLID_2750_" class="st0" d="M219.5 563.9c-.1-.2-.2-.4-.2-.8v-5h1.5v-1h-1.5v-1.8h-.9l-.4 1.8h-1v1h.9v5.3c0 1.2.5 1.8 1.6 1.8.5 0 .9-.1 1.3-.2v-1c-.3.1-.6.1-.8.1-.2 0-.4 0-.5-.2z"/><path id="XMLID_2749_" class="st0" d="M234.3 557c-.5 0-1 .1-1.4.3-.4.2-.7.6-1 1.1-.1-.5-.4-.9-.7-1.1-.3-.2-.8-.4-1.4-.4-.5 0-1 .1-1.3.3-.4.2-.7.6-1 1.2v-.8-.4-.2h-1.2v7.9h1.3v-4.6c0-.8.2-1.4.5-1.8.3-.4.8-.6 1.3-.6s.9.1 1.1.4c.2.3.3.8.3 1.6v5h1.3v-4.6c0-.8.2-1.4.5-1.8.3-.4.8-.6 1.3-.6s.9.1 1.1.4c.2.3.3.8.3 1.6v5h1.3v-5.3c0-1-.2-1.7-.5-2.1-.4-.3-1-.5-1.8-.5z"/><path id="XMLID_2746_" class="st0" d="M241.7 557c-2.4 0-3.5 1.4-3.5 4.1 0 1.3.3 2.3.9 3 .6.7 1.5 1.1 2.6 1.1 1.2 0 2-.3 2.6-1 .6-.7.9-1.7.9-3.1 0-1.4-.3-2.4-.9-3.1-.5-.6-1.4-1-2.6-1zm1.6 6.5c-.3.5-.9.8-1.7.8-.7 0-1.3-.3-1.6-.8-.3-.5-.5-1.3-.5-2.3 0-1.1.2-1.9.5-2.4s.9-.8 1.7-.8c.8 0 1.3.2 1.6.7.3.5.5 1.3.5 2.4 0 1.1-.1 1.9-.5 2.4z"/><path id="XMLID_2745_" class="st0" d="M246.9 554.3h1.3v10.8h-1.3z"/><path id="XMLID_2744_" class="st0" d="M250.2 554.3h1.3v10.8h-1.3z"/><path id="XMLID_2743_" class="st0" d="M253.5 557.2h1.3v7.9h-1.3z"/><path id="XMLID_2742_" class="st0" d="M253.5 554.3h1.3v1.3h-1.3z"/><path id="XMLID_2741_" class="st0" d="M258.4 563.9c-.1-.2-.2-.4-.2-.8v-5h1.5v-1h-1.5v-1.8h-.9l-.4 1.8h-1v1h.9v5.3c0 1.2.5 1.8 1.6 1.8.4 0 .9-.1 1.3-.2v-1c-.3.1-.6.1-.8.1-.1 0-.4 0-.5-.2z"/><path id="XMLID_2738_" class="st0" d="M271.4 564c-.1-.2-.2-.5-.2-.9v-3.4c0-.9-.2-1.5-.8-2-.5-.5-1.2-.7-2.2-.7-1.9 0-2.9.7-3.2 2.1l1.4.1c.1-.4.2-.8.5-1 .3-.2.7-.3 1.3-.3.6 0 1 .1 1.3.4.3.3.4.7.4 1.4v.4h-1.8c-1.2 0-2.1.3-2.6.7-.5.4-.8 1.1-.8 1.9 0 .7.2 1.3.6 1.7.4.4 1 .6 1.8.6.6 0 1.2-.1 1.6-.4.4-.2.8-.7 1.2-1.3 0 .5.2.9.4 1.2.2.3.6.4 1.1.4.3 0 .7 0 1-.1v-.8c-.2 0-.3.1-.4.1-.3.2-.5.1-.6-.1zm-1.5-2.2c0 .4-.1.8-.3 1.2-.2.4-.5.7-.9.9-.4.2-.8.3-1.3.3-.4 0-.8-.1-1-.4-.2-.2-.3-.6-.3-1s.1-.7.3-1c.2-.2.4-.4.7-.5.3-.1.8-.2 1.4-.2h1.4v.7z"/><path id="XMLID_2737_" class="st0" d="M277.2 557c-.6 0-1.1.1-1.5.3-.4.2-.7.6-1 1.2v-.8-.4-.2h-1.2v7.9h1.3v-4.6c0-.8.2-1.4.5-1.8.4-.4.9-.7 1.5-.7.4 0 .8.1 1 .2.2.1.4.3.5.6.1.3.2.7.2 1.2v5h1.3v-5.3c0-1-.2-1.7-.6-2.1-.5-.3-1.1-.5-2-.5z"/><path id="XMLID_2736_" class="st0" d="M281.7 557.2h1.3v7.9h-1.3z"/><path id="XMLID_2735_" class="st0" d="M281.7 554.3h1.3v1.3h-1.3z"/><path id="XMLID_2734_" class="st0" d="M293.1 557c-.5 0-1 .1-1.4.3-.4.2-.7.6-1 1.1-.1-.5-.4-.9-.7-1.1-.3-.2-.8-.4-1.4-.4-.5 0-1 .1-1.3.3-.4.2-.7.6-1 1.2v-.8-.4-.2H285v7.9h1.3v-4.6c0-.8.2-1.4.5-1.8.3-.4.8-.6 1.3-.6s.9.1 1.1.4c.2.3.3.8.3 1.6v5h1.3v-4.6c0-.8.2-1.4.5-1.8.3-.4.8-.6 1.3-.6s.9.1 1.1.4c.2.3.3.8.3 1.6v5h1.3v-5.3c0-1-.2-1.7-.5-2.1-.3-.3-.9-.5-1.7-.5z"/><path id="XMLID_2733_" class="st0" d="M301.6 557.2h1.3v7.9h-1.3z"/><path id="XMLID_2732_" class="st0" d="M301.6 554.3h1.3v1.3h-1.3z"/><path id="XMLID_2729_" class="st0" d="M311.2 554.3h-1.3v4.2c-.2-.5-.6-.8-1-1-.4-.2-.9-.3-1.5-.3-1.9 0-2.9 1.4-2.9 4.1 0 1.4.2 2.4.7 3 .5.7 1.2 1 2.2 1 .6 0 1.1-.1 1.5-.3.4-.2.7-.6 1-1.1v1.2h1.3V554.3zm-1.9 9.1c-.3.5-.9.8-1.6.8-.7 0-1.1-.2-1.4-.7-.3-.5-.4-1.3-.4-2.4 0-1.1.1-1.9.4-2.4.3-.5.8-.7 1.4-.7.7 0 1.3.2 1.6.7.3.5.5 1.2.5 2.3 0 1.1-.1 1.9-.5 2.4z"/><path id="XMLID_2726_" class="st0" d="M320.5 557c-1.1 0-2 .3-2.6 1-.6.7-.9 1.7-.9 3 0 1.4.3 2.4.9 3.1.6.7 1.5 1 2.7 1 1.7 0 2.7-.6 3.2-1.9l-1.1-.3c-.1.4-.4.6-.7.9-.3.2-.8.3-1.4.3-.7 0-1.3-.2-1.6-.7-.4-.5-.6-1.2-.6-2.1h5.6v-.2c-.1-2.7-1.2-4.1-3.5-4.1zm-2.2 3.4c0-.7.2-1.3.6-1.8.4-.4.9-.6 1.5-.6.7 0 1.2.2 1.5.6.3.4.6 1 .6 1.8h-4.2z"/><path id="XMLID_2725_" class="st0" d="M331 561.5c-.2-.2-.4-.3-.7-.5-.3-.1-.8-.3-1.5-.5s-1.2-.3-1.4-.4c-.2-.1-.4-.2-.5-.4-.1-.1-.2-.3-.2-.6 0-.4.1-.6.4-.8.3-.2.7-.3 1.3-.3.5 0 1 .1 1.3.3.3.2.5.5.6.8l1.2-.1c-.1-.7-.5-1.2-1-1.5-.5-.3-1.2-.5-2.1-.5-1 0-1.7.2-2.2.6-.5.4-.8.9-.8 1.6 0 .4.1.7.3 1 .2.3.4.5.7.7.3.2.9.4 1.6.6l.9.2c.5.1.8.3 1 .5.2.2.3.4.3.8s-.2.7-.5.9c-.3.2-.8.3-1.5.3-.6 0-1.1-.1-1.5-.3-.3-.2-.6-.5-.7-.9l-1.2.2c.2.7.5 1.2 1 1.5.5.3 1.3.5 2.3.5 1 0 1.8-.2 2.4-.6.6-.4.8-1 .8-1.7 0-.3 0-.6-.1-.8.1-.3-.1-.5-.2-.6z"/><path id="XMLID_2724_" class="st0" d="M334.7 563.9c-.1-.2-.2-.4-.2-.8v-5h1.5v-1h-1.5v-1.8h-.9l-.4 1.8h-1v1h.9v5.3c0 1.2.5 1.8 1.6 1.8.5 0 .9-.1 1.3-.2v-1c-.3.1-.6.1-.8.1-.2 0-.4 0-.5-.2z"/><path id="XMLID_2723_" class="st0" d="M341.4 554.3h1.3v10.8h-1.3z"/><path id="XMLID_2720_" class="st0" d="M350.9 564c-.1-.2-.2-.5-.2-.9v-3.4c0-.9-.2-1.5-.7-2-.5-.5-1.2-.7-2.2-.7-1.9 0-2.9.7-3.2 2.1l1.4.1c.1-.4.2-.8.5-1 .3-.2.7-.3 1.3-.3.6 0 1 .1 1.3.4.3.3.4.7.4 1.4v.4h-1.8c-1.2 0-2.1.3-2.6.7-.5.4-.8 1.1-.8 1.9 0 .7.2 1.3.6 1.7.4.4 1 .6 1.8.6.6 0 1.2-.1 1.6-.4.4-.2.8-.7 1.2-1.3 0 .5.2.9.4 1.2.2.3.6.4 1.1.4.3 0 .7 0 1-.1v-.8c-.2 0-.3.1-.4.1-.4.2-.6.1-.7-.1zm-1.4-2.2c0 .4-.1.8-.3 1.2-.2.4-.5.7-.9.9-.4.2-.8.3-1.3.3-.4 0-.8-.1-1-.4-.2-.2-.3-.6-.3-1s.1-.7.3-1c.2-.2.4-.4.7-.5.3-.1.8-.2 1.4-.2h1.4v.7z"/><path id="XMLID_2717_" class="st0" d="M356.7 557c-.6 0-1.1.1-1.5.3-.4.2-.7.6-1 1.1v-4.2H353V565h1.3v-.5-.7c.2.5.6.8 1 1 .4.2.9.3 1.5.3 1.9 0 2.9-1.4 2.9-4.1 0-1.4-.2-2.4-.7-3-.5-.6-1.3-1-2.3-1zm1.1 6.5c-.3.5-.8.7-1.4.7-.7 0-1.3-.2-1.6-.7-.3-.5-.5-1.3-.5-2.3 0-1.1.2-1.9.5-2.4s.9-.8 1.6-.8c.7 0 1.1.2 1.4.7.3.5.4 1.3.4 2.4.1 1.1-.1 1.9-.4 2.4z"/><path id="XMLID_2714_" class="st0" d="M364.4 557c-2.4 0-3.5 1.4-3.5 4.1 0 1.3.3 2.3.9 3 .6.7 1.5 1.1 2.6 1.1 1.2 0 2-.3 2.6-1 .6-.7.9-1.7.9-3.1 0-1.4-.3-2.4-.8-3.1-.6-.6-1.5-1-2.7-1zm1.6 6.5c-.3.5-.9.8-1.7.8-.7 0-1.3-.3-1.6-.8-.3-.5-.5-1.3-.5-2.3 0-1.1.2-1.9.5-2.4s.9-.8 1.7-.8c.8 0 1.3.2 1.6.7.3.5.5 1.3.5 2.4 0 1.1-.1 1.9-.5 2.4z"/><path id="XMLID_2713_" class="st0" d="M371.6 557.4c-.3.2-.5.7-.7 1.4 0-.2 0-.7-.1-1.6h-1.2v7.8h1.3v-4c0-.9.1-1.5.4-2 .3-.5.7-.7 1.2-.7.3 0 .5 0 .7.1v-1.2c-.2 0-.4-.1-.5-.1-.5-.1-.8.1-1.1.3z"/><path id="XMLID_2712_" class="st0" d="M380.8 557.2h-1.3v4.6c0 .8-.2 1.4-.5 1.8-.4.4-.9.6-1.5.6-.4 0-.8-.1-1-.2-.2-.1-.4-.3-.5-.6-.1-.3-.2-.7-.2-1.2v-5h-1.3v5.3c0 1 .2 1.7.6 2.1.4.4 1 .6 1.9.6.6 0 1.1-.1 1.5-.3.4-.2.7-.6 1-1.2V565.1h1.2v-7.9z"/><path id="XMLID_2711_" class="st0" d="M391 557c-.5 0-1 .1-1.4.3-.4.2-.7.6-1 1.1-.1-.5-.4-.9-.7-1.1-.3-.2-.8-.4-1.4-.4-.5 0-1 .1-1.3.3-.4.2-.7.6-1 1.2v-.8-.4-.2H383v7.9h1.3v-4.6c0-.8.2-1.4.5-1.8.3-.4.8-.6 1.3-.6s.9.1 1.1.4c.2.3.3.8.3 1.6v5h1.3v-4.6c0-.8.2-1.4.5-1.8.3-.4.8-.6 1.3-.6s.9.1 1.1.4c.2.3.3.8.3 1.6v5h1.3v-5.3c0-1-.2-1.7-.5-2.1-.4-.3-1-.5-1.8-.5z"/></g><path class="st3" d="M116.5 179.8l3 19.9-12.3 1.4-9-60.1 14.8-2.7c10.5-1.9 16.7 2.9 19 18.1 2.3 15.4-2.1 21.5-12 22.9l-3.5.5zm-2.3-27.4l-1.8.3 2.3 15.5 2.1-.3c2.8-.4 3.1-2.7 2.3-8.2-.8-5.5-1.8-7.8-4.9-7.3zM175 159.3c3.5 23.4-.7 35.1-15.2 36.8-13.9 1.6-20.8-8.6-24.1-30.1-3.3-22.4.6-32.9 14.5-35.4 14.4-2.7 21.4 6.4 24.8 28.7zm-25.7 4.2l.4 2.4c2 13.1 3.4 15.9 8.4 15.3 4.7-.6 5.1-3.8 3.3-16.1l-.5-3.3c-1.8-12.1-3.3-16-8.5-15.1-4.8.8-4.8 5.1-3.1 16.8zM196.9 168.7l3.2 21.6-14.5 1.7-9.7-65.1 17.3-3.2c12.3-2.2 19.6 2.9 22.1 19.4 2.5 16.7-2.8 23.4-14.5 25l-3.9.6zm-2.3-29.7l-2.1.3 2.5 16.8 2.4-.4c3.3-.5 3.7-3 2.8-9-.8-5.9-2-8.3-5.6-7.7zM256.3 165.4l4.9 15.5c-4.5 2.6-9.1 4.4-14.9 5-15.4 1.8-23.2-9.9-26.5-31.8-3.3-22.1.6-36.6 17.2-39.6 5-.9 10.3-.3 14.4 1.1v17.9c-4.6-1-8.1-1.6-10.9-1.2-5.7.9-6.5 6.9-4.6 19.6 1.9 12.5 4.4 17.8 10.4 17 2.5-.3 6.1-1.7 10-3.5zM308.3 139.2c3.9 26.4-1.6 39.8-20.1 41.9-17.7 2.1-26.2-9.3-29.8-33.6-3.8-25.2 1.5-37.1 19.1-40.3 18.2-3.4 27 6.8 30.8 32zm-32.7 5.3l.4 2.7c2.2 14.8 4 17.9 10.3 17.1 6-.8 6.6-4.4 4.5-18.2l-.6-3.7c-2-13.7-3.9-18-10.4-16.9-6 1-6.2 5.8-4.2 19zM356.3 139l14.6 31.3-21.5 2.5-11.1-26.2-2.6.4 4 27-18.6 2.2-11-73.7 25.5-4.7c15-2.7 23.2 3.1 25.8 20.3 1.6 9.5-.3 15.3-5.1 20.9zm-21.9-22.1l-3 .5 2.5 16.9 2.9-.4c3.8-.6 5.1-2.6 4.1-9.6-.9-6.1-2.9-8-6.5-7.4zM413.1 165.3l-21.6-34.6-1 .1 5.5 36.5-18.4 2.2L366 92.2l20.3-3.7 20.9 35.4 1-.2-5.7-38.2 19.5-3.6 12.1 80.8-21 2.6z"/><path id="XMLID_101_" class="st3" d="M336.9 71.9l-14.1-.8-8.6 11.1-3.6-13.6-13.3-4.8 11.9-7.7.4-14.1 10.9 8.9 13.6-3.9-5.1 13.2z"/><path id="XMLID_99_" class="st3" d="M69.2 199.8l-7.3-6.8-9.8 2.1 4.2-9-5-8.7 9.9 1.2 6.7-7.5 1.9 9.9 9.2 4-8.8 4.8z"/><path id="XMLID_98_" class="st3" d="M435.8 212.8l-7.9-7.2-10.3 2.4 4.3-9.7-5.5-9.1 10.6 1.2 7-8 2.1 10.4 9.8 4.1-9.2 5.3z"/><g><path id="XMLID_97_" d="M218.9 450.4s.2.2.5.4c-34.7-4.7-65.3-2.2-100.2 13.1 0 0 14.6 12.5 66.1 17.3 30.6 2.8 61.5-.9 90.7-11.2 3.2.5 6.6.9 10.1 1.3 33.9 3.7 68.1-2 100.2-17.1 1.3-.6 2.4-1.1 3.2-1.6-68.6-22.1-114.2-31.6-170.6-2.2z" opacity=".5" fill="#6a6a6a"/><path id="XMLID_96_" d="M192.6 255.5c-.1.1-.1.1 0 0 11.1 32.5 42.8 193.1 42.8 193.1.6 0 1.2.1 1.8.2.2 0 .4 0 .6.1.5.1 1 .1 1.5.2.2 0 .4 0 .6.1l2.1.3c.7.1 1.5.2 2.2.3.2 0 .5.1.7.1l1.8.3c.2 0 .5.1.7.1 6.9 1.2 15 2.9 23 4.7 5.2 1.2 10.3 2.4 15.1 3.5 4.1 1 8 2 11.4 2.8 6 1.5 10.6 2.7 12.6 3.2h.1c.2.1.4.1.6.2.3.1.5.1.5.1 5.6-3.1 13-6.2 20.5-8.9 5.4-1.9 15.4-5.3 20-6.7 8.9-2.7 15.3-4.5 15.3-4.5 4.3-51.4 40.7-183.9 40.7-183.9-4.5-13.7-21.9-11.7-21.9-11.7-15.7-16.2-56.2-25-87-24.9-36.2.1-83 20-83 20-13.2-2.6-22.6 11.3-22.7 11.3z" fill="#b9b0af"/><path id="XMLID_95_" d="M203.4 256.9c1.8-9.3 11.2-22.6 20.6-24.7 9.3-2 16.4 5.1 26.1.4 9.5-4.5 21.4-19.5 32.4-14.3 5 2.3 9.6 5.1 15.4 4.1 6.4-1.1 11.3-6.4 17.3-8.6 5-1.8 14.2-3.6 19.1-.9 4.8 2.6 5.9 9.3 10.1 12.6 4.4 3.3 10.2 1.9 15.1 3.1 6.1 1.4 11.4 5.4 14.7 10.9 3.1 5.2 4.1 8.6 9.6 11.4 4.7 2.4 5.9 3.5 7 9.1.7 3.6 2.7 12.6-.2 15.2-4.2 3.7-18.8-.8-23.9-.6-17.5.7-34.7 3.6-52.3 3.8-22 .2-42.9-3.6-64.4-8.5-11.2-2.6-22.9-4.6-33.9-7-3.5-.9-13.6-1.5-12.7-6z" fill="#fff3b6"/><path id="XMLID_94_" d="M380.7 268.7c-4.2-3.4-7.8-7.4-11.8-11.1-.9-.8-5.2-3.9-4-3.2l-2.4-1.5c-2.6-1.4-5.1-2.9-7.8-4.1-.7-.3-7.3-3-4.9-2.2-4.9-1.7-9.9-3.2-14.9-4.4-2.8-.6-5.6-1.3-8.4-1.7-1.4-.2-2.2-.4-2.7-.5-.6 0-1.3-.1-2.5-.1-3.1-.2-6.2-.2-9.4-.1-3.9.1-7.7.4-11.5.7-8.1.7-15.9-2.8-21.1-9.3l-.1-.1c-4.2-1.1-8.3-1.8-12.8-1.1s-7.9 3.7-12.2 5.1c-4.4 1.4-9 2.4-13.6 2.6-5 .2-11.2-.8-15.9 1.1-4.2 1.7-7.4 5.2-11.3 7.6-2.7 1.6-5.4 3.1-8.1 4.5-.9 2.1-1.6 4.2-2 6.1-.7 3.6 5.3 4.7 9.6 5.3.5.1 1 .2 1.4.2.2 0 .4.1.7.1h.2c.3 0 .5.1.7.1 11 2.3 22.7 4.4 33.9 7 21.4 4.9 42.4 8.7 64.4 8.5 2 0 3.9-.1 5.9-.2.7 0 1.3-.1 2-.1 1.3-.1 2.6-.1 3.9-.2.7 0 1.5-.1 2.2-.1 1.6-.1 3.3-.2 4.9-.4 11.1-.9 22.2-2.3 33.4-2.8 4.8-.2 18 3.8 23.1 1.1-2.8-1.9-5.7-4.2-8.9-6.8z" fill="#f4ce80"/><path id="XMLID_93_" class="st8" d="M267.8 223.1c4.5-1.5 5.7 1.7 6.7 5.4 1.4 5 6.8 4.9 10.5 2.3 4.2-3 5.9-8.4 3.2-13.3-2.5-4.6-5.8-1.7-9.3-1.9-3-.2-4.6-3.3-7.6-3.8-2.6-.4-4.8 1.2-6.3 3.2-1.4 1.8-2.4 4-1.2 6.2 1 1.8 3.4 2.5 4.9 1.2l-.9.7z"/><path id="XMLID_92_" class="st9" d="M269.5 215.7c-1.5.3-3.2 3-1.9 4.4 1.1 1.2 3.5-.1 5 .7 3.6 2 1.8 9 7.4 7.3 2.5-.8 4.8-4.1 4-6.9-.6-2.1-2.8-2.6-4.6-2.9-2.4-.4-2-.9-3.6-2.6-1.2-1.2-2.7-1.5-4.3-1.1-1.1.3-.9 1-2 1.1z"/><path id="XMLID_91_" class="st8" d="M346.7 248.7c-4.6 1.3-5.6-2-6.5-5.8-1.2-5-6.6-5.3-10.4-2.8-4.3 2.8-6.2 8.1-3.8 13.1 2.3 4.7 5.7 1.9 9.3 2.4 3 .4 4.5 3.5 7.4 4.1 2.6.5 4.8-.9 6.5-2.9 1.4-1.7 2.5-3.9 1.4-6.1-.9-1.9-3.3-2.6-4.8-1.4l.9-.6z"/><path id="XMLID_90_" class="st9" d="M344.7 256c1.6-.2 3.3-2.8 2-4.3-1-1.2-3.5-.1-4.9-1-3.5-2.2-1.4-9-7.1-7.6-2.5.6-5 3.8-4.3 6.7.6 2.1 2.7 2.7 4.5 3.1 2.4.5 1.9 1 3.5 2.7 1.2 1.2 2.6 1.6 4.2 1.3 1.2-.1 1-.8 2.1-.9z"/><path id="XMLID_89_" class="st8" d="M337.9 232.4c2-.4 4.5-1.5 6.3.2 1.7 1.6 2.7 4 4.7 5.5 6.4 4.8 13.3-2.3 11.3-9.6-1.7-5.9-9.4-10.8-15.2-9.1-3.9 1.1-10.8 6.3-9.4 11.4.5 2 2.3 2.9 3.7 1.2l-1.4.4z"/><path id="XMLID_88_" class="st9" d="M346.4 224.5c-2.8-1.8-7.4-.6-8.4 2.8-1.4 4.9 3.8 1.9 6.2 4.1 1.5 1.4 4.8 7.4 5.7 2 .5-2.8-.8-7.4-3.4-8.7-.5-.3-1.2-.4-1.8-.3l1.7.1z"/><path id="XMLID_87_" class="st8" d="M244.3 235.3c2-.4 4.5-1.5 6.3.2 1.7 1.6 2.7 4 4.7 5.5 6.4 4.8 13.3-2.3 11.3-9.6-1.7-5.9-9.4-10.8-15.2-9.1-3.9 1.1-10.8 6.3-9.4 11.4.5 2 2.3 2.9 3.7 1.2l-1.4.4z"/><path id="XMLID_86_" class="st9" d="M252.8 227.4c-2.8-1.8-7.4-.6-8.4 2.8-1.4 4.9 3.8 1.9 6.2 4.1 1.5 1.4 4.8 7.4 5.7 2 .5-2.8-.8-7.4-3.4-8.7-.5-.3-1.2-.4-1.8-.3l1.7.1z"/><path id="XMLID_85_" class="st8" d="M323.1 232.9c-2-.2-4.7.2-6-1.9-1.2-2-1.6-4.6-3.1-6.6-5-6.4-13.5-1.5-13.3 6.1.1 6.1 6.3 13 12.4 13.1 4 0 12-3 11.9-8.4 0-2.1-1.5-3.4-3.3-2.2l1.4-.1z"/><path id="XMLID_84_" class="st9" d="M312.9 238.1c2.3 2.6 7 2.6 8.8-.3 2.6-4.3-3.2-2.9-5-5.7-1.1-1.8-2.8-8.5-5-3.5-1.1 2.5-1.1 7.3 1.1 9.3.4.4 1 .7 1.7.8l-1.6-.6z"/><path id="XMLID_83_" class="st8" d="M309.5 266.4c2-.4 4.5-1.5 6.3.2 1.7 1.6 2.7 4 4.7 5.5 6.4 4.8 13.3-2.3 11.3-9.6-1.7-5.9-9.4-10.8-15.2-9.1-3.9 1.1-10.8 6.3-9.4 11.4.5 2 2.3 2.9 3.7 1.2l-1.4.4z"/><path id="XMLID_82_" class="st9" d="M318 258.4c-2.8-1.8-7.4-.6-8.4 2.8-1.4 4.9 3.8 1.9 6.2 4.1 1.5 1.4 4.8 7.4 5.7 2 .5-2.8-.8-7.4-3.4-8.7-.5-.3-1.2-.4-1.8-.3l1.7.1z"/><path id="XMLID_81_" class="st8" d="M229.2 250.2c.7-2 1-4.9 3.2-5.7 2.2-.8 4.6-.5 6.8-1.6 7.1-3.6 4.6-13.4-2.4-15.1-5.6-1.3-13.5 3.3-14.9 9.5-1 4.1-.1 13 4.8 14.3 1.9.5 3.5-.7 2.8-2.8l-.3 1.4z"/><path id="XMLID_80_" class="st9" d="M226.8 238.4c-2.9 1.7-4.1 6.6-1.8 9.1 3.3 3.7 3.5-2.6 6.4-3.7 1.9-.7 8.5-.8 4.4-4.3-2-1.8-6.5-2.9-8.8-1.2-.5.4-.9.9-1.2 1.5l1-1.4z"/><g><path id="XMLID_79_" class="st8" d="M303.8 243.1c-2.4-.1-4.3 1.2-6.5-.6-1.8-1.5-2.5-2.7-5.1-2-6.6 1.6-10.4 12-4.9 17 3.1 2.9 6.1 3 8.6-.5 1.9-2.7 4.3-3.6 7.3-2 2.4 1.4 6.6 4.2 8.8.8 1.3-2.1 1.2-6.8-.1-8.9-1.6-2.6-6.3-4.6-9.2-4.2l1.1.4z"/><path id="XMLID_78_" class="st9" d="M299.7 244.2c-2.1 0-2.8-.1-3.9 1.7-1.2 1.9-2 3.1-3.8 4.3-1.3.9-2.8 1.6-1.8 3.6 1.3 2.6 3.8.8 5.3-.4 1.4-1 3-2.2 4.9-1.9 1.6.3 2.5 2.7 3.9.8 2.2-3-1.3-7.4-4-8-.9-.2-2 0-2.9 0l2.3-.1z"/></g><g><path id="XMLID_77_" class="st8" d="M363.3 246.4c-2.4-.1-4.3 1.2-6.5-.6-1.8-1.5-2.5-2.7-5.1-2-6.6 1.6-10.4 12-4.9 17 3.1 2.9 6.1 3 8.6-.5 1.9-2.7 4.3-3.6 7.3-2 2.4 1.4 6.6 4.2 8.8.8 1.3-2.1 1.2-6.8-.1-8.9-1.6-2.6-6.3-4.6-9.2-4.2l1.1.4z"/><path id="XMLID_76_" class="st9" d="M359.2 247.5c-2.1 0-2.8-.1-3.9 1.7-1.2 1.9-2 3.1-3.8 4.3-1.3.9-2.8 1.6-1.8 3.6 1.3 2.6 3.8.8 5.3-.4 1.4-1 3-2.2 4.9-1.9 1.6.3 2.5 2.7 3.9.8 2.2-3-1.3-7.4-4-8-.9-.2-2 0-2.9 0l2.3-.1z"/></g><g><path id="XMLID_75_" class="st8" d="M331.6 212.5c-1.3-1.2-1.4-3-2.6-4.3-1.5-1.7-4.3-1.9-6.3-1.8-5.1.3-9.2 10.2-6.3 14.7 3.4 5.3 13 7.9 17.2 2.2 1.9-2.6 2.4-9.2-1.5-10.1l-.5-.7z"/><path id="XMLID_74_" class="st9" d="M327.7 210.5c-2.6-3.6-5.9 1.4-6 4.2-.1 3.9 3 5.8 6.3 5.7 2.9-.1 4.7-2.8 2.7-5.4-1.8-2.2-3-4.5-3-4.5z"/></g><g><path id="XMLID_73_" class="st8" d="M251 245.6c-1.3-1.2-1.4-3-2.6-4.3-1.5-1.7-4.3-1.9-6.3-1.8-5.1.3-9.2 10.2-6.3 14.7 3.4 5.3 13 7.9 17.2 2.2 1.9-2.6 2.4-9.2-1.5-10.1l-.5-.7z"/><path id="XMLID_72_" class="st9" d="M247.1 243.6c-2.6-3.6-5.9 1.4-6 4.2-.1 3.9 3 5.8 6.3 5.7 2.9-.1 4.7-2.8 2.7-5.4-1.8-2.3-3-4.5-3-4.5z"/></g><g><path id="XMLID_71_" class="st8" d="M271.7 236.8c-2.2.6-4 1.5-6.4.9-2-.5-3.2-2.3-5.3-2.3-5.5 0-6 7.8-4.4 11.9 4.9 12.7 28.6 5.9 22.1-6.9-.9-1.6-4.4-5.9-6-3.6z"/><path id="XMLID_70_" class="st9" d="M265.9 239.2c-1.5-.1-3.2-1.2-4.6-1.2-1.9 0-2.3 1.7-2.3 3.5-.1 2.7 1.1 3.9 3.3 4.9 3.6 1.7 11 2.4 12.5-3 1-3.8-2-6.9-5.3-4.7.1 0-1.9.6-3.6.5z"/></g><g><path id="XMLID_69_" class="st8" d="M309.7 203.5c-2.2.6-4 1.5-6.4.9-2-.5-3.2-2.3-5.3-2.3-5.5 0-6 7.8-4.4 11.9 4.9 12.7 28.6 5.9 22.1-6.9-.8-1.6-4.3-6-6-3.6z"/><path id="XMLID_68_" class="st9" d="M304 205.8c-1.5-.1-3.2-1.2-4.6-1.2-1.9 0-2.3 1.7-2.3 3.5-.1 2.7 1.1 3.9 3.3 4.9 3.6 1.7 11 2.4 12.5-3 1-3.8-2-6.9-5.3-4.7 0 .1-1.9.7-3.6.5z"/></g><g><path id="XMLID_67_" class="st10" d="M407.3 260.8s-36.5 132.6-40.7 183.9c0 0-37.3 9.9-55.9 20.1 0 0-54.9-14.7-75.4-16.2 0 0-31.7-160.6-42.9-193.1 0 0 19-11.9 32.7 4.9 0 0 9.8-17.3 26 2.2 0 0 9.7-14.6 21.2 2.4 0 0 11.2-12.3 25.5 3.5 0 0 10.3-15.5 26.1.6 0 0 11.4-14.6 26.1.3 0 0 18.5-21.9 35.3-5.6 0 .1 8.8-16.8 22-3z"/><path id="XMLID_66_" class="st11" d="M350.4 269c-2.4 88.2-19.2 177.6-19.3 186.9 5.4-1.9 15.5-5.3 20.1-6.8 16-112.6 32.5-177.3 33.5-185.8-15.1-13.8-31.5 2.7-34.3 5.7z"/><path id="XMLID_65_" class="st12" d="M310.3 462.5c.8-19.1 11.9-191.6 12.5-194.4-15.2-14.3-25.3.2-25.4 0 0 .7 3.8 115.9-.5 193.2 6.9 1.7 12 3.1 13.4 3.4 0-.7-.1-1.5 0-2.2z"/><path id="XMLID_64_" class="st12" d="M224.1 259.3c-13.6-15-31.6-3.7-31.6-3.7 11.2 32.5 42.9 193.1 42.9 193.1 3.8.3 8.9 1 14.5 2.1-.8-7.4-17.8-103.9-25.8-191.5z"/><path id="XMLID_63_" class="st12" d="M271.5 263.9c-11.1-15.1-20.4-1.2-20.4-1.2-.1-.1-.2-.2-.3-.4.3.4 17.6 185.4 19.6 192.6 5.2 1.2 10.3 2.4 15.1 3.5.1-19.3-6.7-94.3-14-194.5z"/></g><g opacity=".55"><path id="XMLID_62_" d="M350.3 273.3c3.6-4.1 7.2-7.5 12.2-9.7 7.5-3.2 15.4-1.9 21.5 3.7.2.2-.2-.2 0 0 0 0 13.5-15.5 22.3-2.8.6-2.4 1-3.7 1-3.7-13.2-13.8-22 3.1-22 3.1-.2-.2-.4-.3-.6-.5-6.1-5.6-13.9-6.9-21.5-3.7-5 2.1-9.7 5.7-13.3 9.8-13.6-14.1-24.6-2-26.1-.3l-1.1-1.1c-.2 1.6-.4 3.3-.4 4.9 2.2-2.3 14.9-13 28 .3z" fill="#c1ccdb"/><path id="XMLID_61_" class="st10" d="M366.2 444.8c.3-.1.4-.1.4-.1.9-11 3.3-25.8 6.5-42.2-3.2 16.1-5.7 30.8-6.9 42.3z"/></g><path id="XMLID_60_" d="M321.5 271.9c-4.9-4.1-11.3-6.6-17.5-3.8-2 .9-3.8 2.2-5.3 3.7-.4.4-.7.8-1.1 1.2-.3.3-2.5-2.1-2.9-2.5-4.4-3.8-10.2-6.1-16-4.3-2.4.7-4.7 2.1-6.4 3.9-.3-.4-.6-.8-.8-1.2-1.8-2.5-4.1-4.9-6.9-6.2-4.9-2.7-10.6.9-13.4 5-.1-.1-.2-.2-.3-.4-16-18.9-25.7-1.8-25.7-1.8-.3-.4-.7-.8-1-1.2-7.9-8.8-20-9.7-30.3-4.4 12.2 40.3 41.5 188.7 41.5 188.7 11.8.9 23.5 3.7 35.1 6.3 5.2 1.2 10.3 2.4 15.1 3.5 5.1 1.2 10.1 2.5 15.2 3.8.6.2 9.6 2.2 9.6 2.5.4-8.5.9-17 1.4-25.4 1-18 2.1-36 3.2-54 2-30.9 4-61.7 6.2-92.5.5-6.6.9-13.3 1.4-19.9-.5-.4-.8-.7-1.1-1z" opacity=".55" fill="#a16241"/><g><path id="XMLID_59_" class="st11" d="M366.3 322.2s-22.3-9.8-36.6 13.1c-14.3 22.8-7.7 60.5 19 58.3 26.6-2.1 46.2-57.5 17.6-71.4z"/><path id="XMLID_58_" class="st10" d="M364.9 326.9s-19.3-8.4-31.6 11.3c-12.4 19.7-6.6 52.3 16.4 50.5 23-1.9 39.9-49.8 15.2-61.8z"/><path class="st11" d="M342.3 335.3s3 2.1 3.5 7.4c-1.2 5.4-4.2 9.5-8.9 11.2-.9 3.2-1.5 6.9-1.5 6.9s-2.2-.9-3.4-3.4l2.7-11.7c-.2-2.1 0-5 0-5s3.1-4 7.6-5.4zm-3 9.1c-.6 2-1.2 3.9-1.6 5.7h.1c3.4-1.1 4.6-6 4.6-6s-1.1-.3-3.1.3zM352.6 336.2l2.5-3.9s2 .9 1.6 7c-.8 11.5-7.5 16.4-7.5 16.4-3.5-.6-4.2-4.8-4.2-4.8 1.1-13.2 5.5-15.9 5.5-15.9.5.9 1.3 1.2 2.1 1.2zm.3 3c-1.4 2.7-3 6.8-3.3 11.5 1.1-.4 3.9-5.3 3.3-11.5zM365.5 328.3s3 2 3.7 7.2c-1 5.2-3.8 9.2-8.3 10.9-.8 3.1-1.3 6.7-1.3 6.7s-2.2-.9-3.4-3.3l2.2-11.3c-.2-2-.2-4.9-.2-4.9s3-3.9 7.3-5.3zm-2.6 8.9c-.5 2-1 3.8-1.4 5.5h.1c3.2-1 4.3-5.8 4.3-5.8s-1-.4-3 .3z"/><g><path class="st11" d="M342.8 369.7s-1.6-.8-2.6-2.8c-1 2.4-2 5.7-2.6 9.6l5.4-4.3s-.6 5.8-6.4 9.7c0 0-2.1-.6-2.8-3.4.5-5.2 3.1-13.5 5.4-16.2.6-.2 1-.3 1.4-.3 2.4-1 4.2-2.4 4.2-2.4s-1.1 4.7-2 10.1zM349.8 361.1l2.1-3.4s1.6.7 1.3 6.1c-.6 10-6.2 14.4-6.2 14.4-2.9-.5-3.5-4.2-3.5-4.2.9-11.5 4.6-13.9 4.6-13.9.3.8 1 1 1.7 1zm.2 2.6c-1.1 2.4-2.5 5.9-2.7 10 .9-.4 3.2-4.6 2.7-10zM354.4 359s2-3.4 5.8-4.6c0 0 2.5.3 3.4 5.7-.5 4.1-2.5 6.5-4.2 7.6 1.4 1.3 3 1.5 3 1.5s-.9 2.7-2.9 4.5c-1.6-.7-2.2-3.1-2.7-4.6l-1.6 6.2s-1.8-1.1-2.2-3.3l1.8-8.6-.4-4.4zm4.1 2.8l-1.2 4.8c2.9-1 3.4-5.1 3.4-5.1s-.7-.4-2.2.3zM369.4 363c1.1-8.9 1-12.9 1-12.9s1.9.9 3.2 1.1c-.7 9.6-2.1 16.8-2.1 16.8-1.4.5-3.1 2.2-3.1 2.2l-1.2-10s-.7 3.9-1.6 11c0 0-1.7-.6-2.6-2.4.8-7.7 2.3-13.9 2.3-13.9s1.4-1.4 3.3-2.4l.8 10.5z"/></g><path id="XMLID_45_" class="st11" d="M371.4 339.6l-.7 3.1-2.2.5 1.9 1.6-.5 3 2.5-2.7 1.6.9-.5-2.2 1.2-2.4-1.7.7z"/></g><linearGradient id="XMLID_118_" gradientUnits="userSpaceOnUse" x1="228.236" y1="432.635" x2="306.412" y2="330.274" gradientTransform="rotate(-.59 146.73 284.105)"><stop offset=".203" stop-color="#647082"/><stop offset=".781" stop-color="#e9c49f"/></linearGradient><path id="XMLID_44_" d="M387.9 310.6c-5.7 6.6-12 12.3-18.6 17.9-27.9 23.8-68 24.2-98 4.3-21.9-14.5-40.8-32.7-59.8-50.9l-7.2-6.9c13 52.9 35.5 171.7 35.5 171.7.5 0 1.1.1 1.7.2.2 0 .4 0 .5.1.5.1.9.1 1.4.2.2 0 .4 0 .6.1.7.1 1.3.2 2 .3l2.1.3c.2 0 .5.1.7.1.5.1 1.1.2 1.7.3.2 0 .5.1.7.1 6.6 1.2 14.2 2.8 21.8 4.6 4.9 1.2 9.8 2.4 14.3 3.5 3.9 1 7.6 1.9 10.8 2.8 5.7 1.5 10.1 2.7 12 3.2h.1c.2.1.4.1.5.1.3.1.4.1.4.1 5.3-3.1 12.3-6.1 19.5-8.8 5.1-1.9 14.6-5.2 19-6.7 8.4-2.7 14.5-4.4 14.5-4.4 2.5-31.4 16.6-93.5 27-136.4-1 1.5-2.1 2.9-3.2 4.2z" opacity=".75" fill="url(#XMLID_118_)"/><linearGradient id="XMLID_119_" gradientUnits="userSpaceOnUse" x1="189.762" y1="404.696" x2="283.14" y2="282.432"><stop offset=".203" stop-color="#647082"/><stop offset=".781" stop-color="#e9c49f"/></linearGradient><path id="XMLID_43_" d="M308.3 298.2c-24.1-8.7-53.6-27.3-74.7-34.7-11.2-3.9-23.4-8.1-32.2-16.3-5.4 3.4-8.7 8.2-8.8 8.3.4 1.3.9 2.7 1.4 4.3.2.6.4 1.3.6 2 9.3 32 27.4 119.9 36.1 162.7 0 .1.1.3.1.4.2.8.3 1.6.5 2.4v.1c.3 1.6.6 3.2.9 4.6 0 .2.1.5.1.7.1.5.2 1 .3 1.4.1.4.1.7.2 1.1.1.3.1.5.2.8.1.4.2.8.2 1.2.4 1.8.7 3.3.9 4.7 0 .1 0 .2.1.3.1.4.2.8.2 1.2 0 .2.1.4.1.6.1.6.2 1.2.3 1.7.2.9.3 1.5.4 2 .1.3.1.4.1.6v.2c.9.1 1.8.2 2.8.3.2 0 .5.1.7.1 2 .2 4.2.6 6.5.9.3 0 .6.1.9.1.7.1 1.3.2 2 .3 4.8.8 10.1 1.9 15.5 3 8.4-70.5 44.6-155 44.6-155z" opacity=".85" fill="url(#XMLID_119_)"/><g><path id="XMLID_42_" class="st18" d="M221.5 445.9c-10.7 1.2-21.3 1.3-32.1 1.2-9.7-.1-20.2 1.3-29.5-.9l2.5 21.2s23.8 7.6 39.8 5.8 30-6.3 30-6.3l3.5-23.9c-4.5 1.3-9.2 2.4-14.2 2.9z"/><path id="XMLID_41_" d="M185.9 447.2c-7.9.2-16.1.8-23.7-.5.5 2.7 1 5.4 1.5 8.2.8 4.6 1.6 9.2 2.8 13.7 4.8 1.3 13 3.3 21.5 4.3-2-8.4-2.6-17.1-2.1-25.7z" fill="#8eb0bc"/><path id="XMLID_40_" class="st18" d="M171.4 462c10 1.8 20.1 2.3 30.3 1.9 10.7-.4 21.6-4.5 31.9-6.7l2.1-14.1c-4.6 1.4-9.2 2.4-14.3 3-10.7 1.2-21.3 1.3-32.1 1.2-9.7-.1-20.2 1.3-29.5-.9l1.6 13.4c3.4.7 6.7 1.6 10 2.2z"/><path id="XMLID_39_" class="st20" d="M122 299.4s31.9 108.7 29.9 143.6c0 0 10.4 11.4 46 12.2 35.6.8 43.7-9.9 43.7-9.9s.9-79.3 25.8-144c-.2 0-57.6 15.8-145.4-1.9z"/><path id="XMLID_38_" d="M231.1 331.9s5.6 24.8-36.5 24.6c-42.1-.3-50.3 40.6-34.7 64.4 15.6 23.7 53.7 32.2 71.5 6.5 0 0-16.5 16.4-36.7 3-20.3-13.4-9.1-34.4 10.8-46.7 19.9-12.3 40.1-19.4 25.6-51.8z" fill="#e8f5f3"/><path id="XMLID_37_" d="M159.2 305.2c-11.7-1.3-24.1-3.2-37.2-5.8 0 0 31.9 108.7 29.9 143.6 0 0 7.6 8.4 32.2 11.3-6.8-49.9-23.3-98.6-24.9-149.1z" opacity=".35" fill="#a01d20"/><ellipse id="XMLID_36_" class="st20" cx="211.7" cy="365.1" rx="5.6" ry="5.5"/><path id="XMLID_35_" class="st20" d="M210.1 318.3c-1.2 23.5-6.6 132.5-7.1 136.9 7-.1 12.7-.6 17.5-1.4.1-1.3 19.1-136.5 20.8-143.6-9.3 4.3-20.4 7.4-31.2 8.1z"/><path id="XMLID_34_" class="st20" d="M122 299.4s3.9 13.3 8.9 32.2c7.7 6.7 31.9 13.5 58.8 12.5 22.1-.8 54-8.6 70.5-21.9 2.1-6.8 4.5-13.7 7.1-20.8-.1-.1-57.5 15.7-145.3-2z"/><ellipse id="XMLID_33_" class="st20" cx="186.6" cy="374.6" rx="9.5" ry="8.7"/><ellipse id="XMLID_32_" class="st20" cx="169.9" cy="403.2" rx="7.2" ry="6.7"/><ellipse id="XMLID_31_" class="st20" cx="177.5" cy="424.7" rx="4" ry="3.6"/><ellipse id="XMLID_30_" class="st20" cx="189.4" cy="435.5" rx="2.4" ry="2.3"/><ellipse id="XMLID_29_" class="st20" cx="227.8" cy="356.4" rx="2.3" ry="2.4"/><path id="XMLID_28_" d="M237.9 429.5c-22.6-5-42.5-17.7-52.7-40.6-11.5-25.7-11.2-54.5-10.9-82.3-13.6-1-28.6-2.8-44.7-5.7.6 1.1 1.1 2.2 1.6 3.4 3.2 7 11.8 53 16.1 68.1 4.1 14.6 9.8 69.2 10 70.3 6.3 3.2 18.1 7.1 38.2 7.6 34.5.8 42.3-9.6 42.3-9.6s0-4 .1-11.2z" opacity=".35" fill="#b94442"/><path id="XMLID_27_" class="st18" d="M110 301.9s34.9 28.8 89.1 23.9c53.7-4.9 75-19.8 82-26.4 0 0-13.9-8.6-22-20.5l-128.4 5.3c.1 0-12.5 14.2-20.7 17.7z"/><path id="XMLID_26_" class="st18" d="M252.3 296.7c-2.8-3.7-5.6-7.4-8.5-11-.7.4-1.5.8-2.3 1.1 3 6.5 6.5 12.9 9.6 19.3 1.3 2.7 2.5 5.4 3.8 8.2 3.7-1.4 6.9-2.8 9.8-4.2-4.4-4.1-8.6-8.4-12.4-13.4z"/><path id="XMLID_25_" class="st18" d="M229 290.5c-9.2 2-18.2 4-27.3 5.7.7 9.7 1.7 19.4 2.8 29.1 15.2-1.6 27.7-4.1 37.9-6.9-1.9-4.1-3.9-8.3-5.9-12.3-2.7-5.2-5.3-10.4-7.5-15.6z"/><path id="XMLID_24_" class="st18" d="M142.7 283.7c-2.4 3-4.9 5.9-7.7 8.4-5.6 5-12.2 9.4-16.9 15.2 11.1 6.8 33.3 17.6 63.1 18.9-2-5.4-3.4-11-3.8-16.7-.6-9-.5-18.1-.3-27.2l-34.4 1.4z"/><path id="XMLID_23_" class="st24" d="M259.2 278.9s-19.2-9.1-63.6-6.3c-44.4 2.9-56 4.8-64.8 11.6 0 0 14 18.1 68.8 15.2 46-2.5 58.4-16.2 59.6-20.5z"/><path id="XMLID_22_" class="st25" d="M190.4 299.7c1.1-1.8 2.1-3.7 3.1-5.5 3.9-6.9 7.9-13.8 11.9-20.6.3-.4.5-.9.7-1.3-.7 0-1.3 0-2 .1-6.6 5.7-12.8 12.2-19.5 17.5-4 3.2-8.1 6.2-12.2 9.3 5.5.3 11.4.6 18 .5z"/><path id="XMLID_21_" class="st25" d="M239.1 273.9c-2.5 7.3-5.8 14.4-9.2 21.4 21.5-5.1 28.4-13.3 29.3-16.4 0 0-6.4-3-20.1-5z"/><path id="XMLID_20_" class="st25" d="M225.7 272.5c-1.6-.1-3.2-.2-4.9-.3-3.3 4.6-5.7 10.8-8.3 15.2-2.2 3.8-4.4 7.6-6.6 11.5 2.9-.2 5.6-.5 8.2-.8 3.8-8.4 8.3-16.8 11.6-25.6z"/><path id="XMLID_19_" class="st25" d="M150.6 285.9c1.6-3.2 3.6-6.5 5.4-9.8-13.7 1.8-20 4.1-25.3 8.2 0 0 4 5.1 16 9.5 1.3-2.7 2.6-5.3 3.9-7.9z"/><path id="XMLID_18_" class="st26" d="M246.6 277.9s-52.3-18.4-103.1 4.3c0 0 15.6 10.6 55.8 9.7 33-.8 47.3-14 47.3-14z"/><path id="XMLID_17_" class="st18" d="M149.1 267.7s4.5 3.9 4.9 14.5c0 0 27.1 6 46.9 4.5 18.3-1.4 35.8-7.8 35.8-7.8s-.9-5.5 4.2-17.6l-91.8 6.4z"/><path id="XMLID_16_" class="st18" d="M188.7 265l-28.6 2c-.3 3.3-.4 6.6-1 9.8-.4 2.1-.8 4.2-1.3 6.3 6 1.2 18.3 3.3 30.6 3.8-.3-7.3-.6-14.8.3-21.9z"/><path id="XMLID_15_" class="st18" d="M216.7 263l-9.5.7c-1.2 7.5-2 15.1-2.6 22.7 7.3-.8 14.2-2.3 19.8-3.7-2.8-6.5-5.5-13-7.7-19.7z"/><path id="XMLID_14_" class="st24" d="M241 261.4s-26.7-7.4-48.6-6c-21.8 1.4-34.1 5.9-43.3 12.3 0 0 11.9 9.5 45.5 9.5s46.1-15.2 46.1-15.2l.3-.6z"/><path id="XMLID_13_" class="st25" d="M168.4 258.9c-8.1 2.2-14.2 5.2-19.3 8.8 0 0 3.5 2.7 11.9 5.3 2.2-4.9 4.6-9.6 7.4-14.1z"/><path id="XMLID_12_" class="st25" d="M187.4 262.5c1-2.3 1.8-4.7 2.8-7-1.4.1-2.8.2-4.1.4-.4.7-.8 1.4-1.1 1.8-1.9 2.7-3.8 5.4-5.5 8.2-1.9 3.2-3.8 6.5-5.4 9.9 2.3.3 4.9.6 7.6.9 1.9-4.7 3.8-9.5 5.7-14.2z"/><path id="XMLID_11_" class="st25" d="M225.1 257.9c-.8 1.9-1.6 3.7-2.3 5.6-1.4 3.5-2.8 7-4.1 10.5 15.7-4.4 22.1-12 22.1-12l.3-.6c-.1 0-6.7-1.9-16-3.5z"/><path id="XMLID_10_" class="st26" d="M169.6 266.9s16.2-5 30.1-4.6c13.9.4 20.8 2.3 20.8 2.3s-9.3 6.4-28 6.7c-18.8.3-22.9-4.4-22.9-4.4z"/><path id="XMLID_9_" d="M108.7 222.5s-.2 11.2 8.9 11.5c0 0 2.3-6.1-1.9-9.3-4.2-3.3-4.6-2.9-7-2.2z" fill="#7da4b1"/><path id="XMLID_8_" class="st18" d="M200.3 265.6s3.5 2.9 11.7 0L185.8 173s5.2-1.3 1-5.9c0 0 1.5-5.6-3.9-2.8 0 0-.9-5.7-5.1-2.4 0 0 .1-3.9-5.6 1.7-5.7 5.6-63.5 58.8-63.5 58.8s9.8 2.5 8.9 11.5c0 0 57.6-57.8 58.4-56.7.8 1.1 20 70.4 24.3 88.4z"/><path id="XMLID_7_" class="st18" d="M181.5 167.8c-.6-1.6-2.3-5.1-5.3-3.2-10.6 7-47.7 43.1-64.7 58.5.6.3 1.3.6 1.8 1 .8-1.5 53-50.5 63.4-57.3 1.2-.8 2.3-.2 2.7.7 5.2 10.7 21.9 73.5 27.6 94.3h1.5c-4.6-17.3-23.8-85.7-27-94z"/></g><linearGradient id="XMLID_120_" gradientUnits="userSpaceOnUse" x1="356.358" y1="219.506" x2="113.401" y2="486.663"><stop offset="0" stop-color="#e6d4a7"/><stop offset=".115" stop-color="#e3d0a8"/><stop offset=".254" stop-color="#dac4aa"/><stop offset=".406" stop-color="#cdafab"/><stop offset=".568" stop-color="#bb94aa"/><stop offset=".735" stop-color="#a675a7"/><stop offset=".749" stop-color="#a572a7"/><stop offset="1" stop-color="#932f62"/></linearGradient><path id="XMLID_6_" d="M406.3 264.5c.6-2.4 1-3.7 1-3.7-4.5-13.7-21.9-11.7-21.9-11.7-2.7-2.8-6.2-5.4-10.2-7.7-.3-.6-.7-1.3-1.1-1.9-3.2-5.3-8.2-9.1-14-10.7v-.2c-1.7-5.9-9.4-10.8-15.2-9.1-1.2.3-2.6 1-4 2-1.9-3.1-3.5-6.7-6.7-8.5-.9-.5-2-.8-3.2-1-.8-1.1-1.1-2.6-2-3.6-1.5-1.7-4.3-1.9-6.3-1.8-2.4.2-4.6 2.4-5.9 5.3.1-1.4-.3-3-1.1-4.6-.8-1.6-4.3-6-6-3.6-2.2.6-4 1.5-6.4.9-2-.5-3.2-2.3-5.3-2.3-5.5 0-6 7.8-4.4 11.9 1.6 4.1 5.2 6.2 9.1 6.7-1.5.8-3.1 1.4-4.8 1.7-3 .5-5.7 0-8.3-.9-.1-1.3-.5-2.6-1.2-3.9-2.5-4.6-5.8-1.7-9.3-1.9-3-.2-4.6-3.3-7.6-3.8-2.6-.4-4.8 1.2-6.3 3.2-1.3 1.8-2.4 4-1.2 6.2.3.5.6.9 1 1.2-1.1.8-2.2 1.5-3.3 2.3-3.1-2.2-6.9-3.4-10.2-2.5-3.3.9-8.6 4.7-9.5 9-1.2-1.7-2.9-3-5.1-3.5-3.9-.9-8.7 1-11.9 4.3-.3 0-.6.1-1 .2-5.5 1.2-10.9 6.2-14.9 11.9-1 .2-2 .4-3 .8L185.8 173s5.2-1.3 1-5.9c0 0 1.5-5.6-3.9-2.8 0 0-.9-5.7-5.1-2.4 0 0 .1-3.9-5.6 1.7-5.7 5.6-63.5 58.8-63.5 58.8s-.2 11.2 8.9 11.5c0 0 57.6-57.8 58.4-56.7.7.9 13.5 47 20.6 73.8-2.1 2-3.5 3.8-3.9 4.4h-.3c-2.2.1-4.3.3-6.3.5-6.9.7-12.7 1.7-17.7 3.1-1 .3-1.9.5-2.8.8-.2.1-.3.1-.5.2-.7.2-1.5.5-2.2.7-.2.1-.4.2-.6.2-.6.2-1.3.5-1.9.7-.2.1-.5.2-.7.3-.6.2-1.1.5-1.7.7-.2.1-.5.2-.7.3-.5.2-1 .5-1.5.8-.2.1-.5.2-.7.4-.5.3-1 .5-1.4.8-.2.1-.4.2-.7.4-.5.3-1 .6-1.4.9l-.6.3c-.6.4-1.3.8-1.9 1.3 0 0 2.8 2.5 4.2 8.7-1.5.2-2.9.4-4.1.7h-.2c-.6.1-1.2.2-1.8.4h-.2c-1.9.4-3.6.8-5.2 1.3h-.1c-.5.1-.9.3-1.3.4-.1 0-.2.1-.3.1-.4.1-.8.3-1.1.4-.1 0-.2.1-.3.1-.4.1-.8.3-1.1.4 0 0-.1 0-.1.1-.8.4-1.6.7-2.4 1.1-.1 0-.2.1-.2.1-.3.1-.5.3-.8.5-.1.1-.2.1-.3.2-.2.1-.5.3-.7.4-.1.1-.2.1-.3.2-.2.1-.5.3-.7.5-.1.1-.2.1-.3.2-.3.2-.6.5-.9.7 0 0-12.5 14.2-20.8 17.6 0 0 5.5 4.5 15.5 9.7.3 1.2.7 2.6 1.1 4 0 .1.1.2.1.3.2.8.4 1.6.7 2.4.1.4.2.7.3 1.1.4 1.6.9 3.2 1.3 5 0 .2.1.4.1.5.2.8.4 1.7.7 2.5.1.5.3 1 .4 1.5.2.9.5 1.7.7 2.6 9.3 34.9 22.3 88.9 21 111.5l.1.1.1.1.2.2c.1.1.2.1.2.2l.3.3c.1.1.3.2.4.3.1.1.3.2.4.3.2.1.4.3.6.4.2.1.3.2.5.3.2.2.5.3.8.5.1.1.3.2.5.3.7.4 1.4.8 2.3 1.3.2.1.3.2.5.2.4.2.9.4 1.3.6l.1 1c-13.4 2.1-26.9 9.9-41.1 15.4 0 0 14.5 10.5 65.8 16.2 32 3.5 61.7-1.7 91-10.8 3.2.4 6.6.8 10.1 1.2 33.9 3.3 66.9-1.3 100.2-17.2 1.3-.6 2.4-1 3.2-1.4-7.9-2.3-17.2-5.3-24.6-7.3.1-1.1 1.9-3.3 2-4.4 0-.2 0-.4.1-.6 0-.2.1-.5.1-.7.1-1.1.2-2.2.4-3.3 0-.2.1-.5.1-.7l.3-2.1c.1-.8.2-1.5.3-2.4 0-.1 0-.3.1-.4.2-1.6.5-3.2.7-4.8v-.2c.1-.3.1-.7.2-1 .2-1.4.4-2.7.7-4.1 0-.2.1-.3.1-.5.3-1.8.6-3.5.9-5.4v-.1-.1c.7-3.8 1.4-7.8 2.2-11.8 0-.2.1-.3.1-.5 10.3-52.5 28.6-121.1 33.1-137.6z" opacity=".32" fill="url(#XMLID_120_)"/></g><g><path class="st29" d="M92.2 73l1.7 12.2 22.3-2.8 2.3 16.5-22.2 3.5 4.5 31.9-31.6 7.1L57 54.8l61.6-3.6 1.1 19.1L92.2 73zM178.9 87.1l13.8 26.6-22.3 5.1-11.7-23.9-3.1.5 3.7 25.9-23.8 5.4-10.7-75.8 33-1.9c16.8-1 25 4.8 27.1 19.7 1 8.2-1 13.3-6 18.4zm-23.7-20.4l-3.7.4 2.3 16.2 3.5-.5c4.5-.6 6.1-2.6 5.2-9-.8-5.7-3-7.5-7.3-7.1zM198.9 112.3l-9.2-65.1 35.7-2.1 1.1 14.7-16.2 1.6 1.3 9.3 14.1-1.7 1.8 12.7-14 2.2 1.5 10.3 16.9-3.2 1 13.6-34 7.7zM239.1 103.2l-8.2-58.4 29-1.7 1.1 13.3-13.2 1.3 1.2 8.4 11.5-1.4 1.6 11.5-11.5 1.8 1.3 9.3 13.8-2.6 1 12.3-27.6 6.2z"/></g></svg>