<svg version="1.1" id="Layer_1" xmlns="http://www.w3.org/2000/svg" x="0" y="0" width="510" height="710" xml:space="preserve"><style>.st0{fill:#f7f8f7}.st1{fill:#d42842}.st2{opacity:.35;fill:#898989}.st6{fill:#fdfcea}.st7{fill:#f2cf85}.st8{fill:#e4e9ef}.st9{fill:#eb2125}.st10{fill:#ca2027}.st16{fill:#baced6}.st18{fill:#cb2127}.st22{fill:#dae5e9}.st23{fill:#f7fafc}.st24{fill:#7c8b9c}.st26{fill:#1a1b25}.st27{fill:#7b7c81}.st29{opacity:.85;fill:#927f86}.st33{fill:#21222c}.st34{fill:#987c8c}.st35{fill:#c3c2c5}</style><path id="XMLID_404_" class="st0" d="M30 17.5h450v675H30z"/><path id="XMLID_403_" class="st1" d="M141.8 512.5v-495H30v675h450v-180z"/><path id="XMLID_402_" class="st2" d="M443.7 431.3s-53.6 2.1-101.5 4.2c-66 2.8-99.5-.7-161.1.9 0 0 82 18.8 159.1 15.8 39.6-1.6 73.5-6.6 103.5-20.9z"/><path id="XMLID_401_" class="st2" d="M331.7 412.3c-58.7-14.2-97.6-20.2-145.8-1.5 0 0 12.7 9.7 57.4 13.4 29 2.4 58.2-1.3 85.7-10.9 1.1-.4 2.1-.7 2.7-1z"/><path id="XMLID_400_" class="st2" d="M423.9 400.9c-58.7-14.2-97.6-20.2-145.8-1.5 0 0 12.7 9.7 57.4 13.4 29 2.4 58.2-1.3 85.7-10.9 1.1-.4 2-.8 2.7-1z"/><path id="XMLID_399_" d="M251.5 230.9c0 .1 0 .1 0 0 9.7 28.3 37.2 167.8 37.2 167.8.5 0 1 .1 1.6.1.2 0 .3 0 .5.1.4 0 .8.1 1.3.1.2 0 .3 0 .5.1.6.1 1.2.2 1.8.2.6.1 1.3.2 1.9.3.2 0 .4.1.6.1l1.5.3c.2 0 .4.1.6.1 6 1 13 2.5 20 4.1 4.5 1 9 2.1 13.2 3.1 3.6.9 6.9 1.7 9.9 2.4 5.2 1.3 9.2 2.4 11 2.8h.1c.2.1.4.1.5.1.2.1.4.1.4.1 4.9-2.7 11.3-5.4 17.8-7.8 4.7-1.7 13.4-4.6 17.4-5.9 7.7-2.4 13.3-3.9 13.3-3.9 3.7-44.6 35.4-159.8 35.4-159.8-3.9-11.9-19-10.2-19-10.2-13.6-14.1-48.8-21.7-75.6-21.6-31.4.1-72.1 17.4-72.1 17.4-11.5-2.1-19.6 10-19.8 10z" fill="#b9b0af"/><path id="XMLID_398_" d="M260.9 232.1c1.5-8.1 9.7-19.7 17.9-21.5 8.1-1.7 14.2 4.4 22.7.4 8.2-3.9 18.6-16.9 28.1-12.5 4.3 2 8.3 4.4 13.4 3.6 5.5-1 9.8-5.5 15-7.5 4.3-1.6 12.4-3.1 16.6-.8 4.2 2.3 5.1 8.1 8.8 10.9 3.8 2.9 8.8 1.6 13.1 2.7 5.3 1.2 9.9 4.7 12.8 9.5 2.7 4.5 3.6 7.5 8.3 9.9 4.1 2.1 5.1 3 6 7.9.6 3.1 2.3 11-.1 13.2-3.7 3.3-16.3-.7-20.8-.5-15.2.6-30.1 3.1-45.4 3.3-19.1.2-37.3-3.2-55.9-7.4-9.8-2.2-19.9-4-29.5-6.1-3-.6-11.7-1.1-11-5.1z" fill="#fff3b6"/><path id="XMLID_397_" d="M415.1 242.4c-3.6-3-6.8-6.4-10.2-9.7-.8-.7-4.5-3.4-3.5-2.8-.7-.4-1.4-.9-2.1-1.3-2.2-1.3-4.4-2.5-6.7-3.6-.6-.3-6.4-2.6-4.3-1.9-4.3-1.5-8.6-2.8-13-3.8-2.4-.5-4.8-1.1-7.3-1.5-1.2-.2-1.9-.3-2.4-.4-.5 0-1.1 0-2.2-.1-2.7-.1-5.4-.2-8.1-.1-3.4.1-6.7.3-10 .6-7 .6-13.8-2.4-18.3-8.1 0 0 0-.1-.1-.1-3.6-.9-7.3-1.5-11.1-1-3.9.6-6.9 3.3-10.6 4.4-3.8 1.2-7.8 2.1-11.8 2.2-4.4.2-9.7-.7-13.9.9-3.7 1.5-6.5 4.6-9.8 6.6-2.3 1.4-4.7 2.7-7.1 3.9-.8 1.8-1.4 3.7-1.7 5.3-.6 3.1 4.6 4.1 8.4 4.6.4.1.9.1 1.2.2.2 0 .4.1.6.1h.2c.2 0 .4.1.6.1 9.6 2 19.8 3.8 29.5 6.1 18.6 4.3 36.8 7.6 55.9 7.4 1.7 0 3.4-.1 5.1-.1.6 0 1.1-.1 1.7-.1 1.1-.1 2.3-.1 3.4-.2.6 0 1.3-.1 1.9-.1 1.4-.1 2.8-.2 4.3-.3 9.7-.8 19.3-2 29.1-2.4 4.2-.2 15.7 3.3 20.1 1-2.5-1.5-5.1-3.5-7.8-5.8z" fill="#f4ce80"/><path id="XMLID_396_" class="st6" d="M317 202.8c3.9-1.3 4.9 1.5 5.8 4.7 1.2 4.3 5.9 4.3 9.1 2 3.7-2.6 5.1-7.3 2.8-11.5-2.2-4-5.1-1.4-8.1-1.7-2.6-.2-4-2.9-6.6-3.3-2.2-.3-4.2 1-5.5 2.8-1.2 1.5-2.1 3.5-1 5.4.9 1.6 2.9 2.1 4.3 1.1l-.8.5z"/><path id="XMLID_395_" class="st7" d="M318.4 196.4c-1.3.2-2.8 2.6-1.6 3.9.9 1 3-.1 4.3.6 3.1 1.7 1.5 7.8 6.5 6.3 2.2-.7 4.2-3.5 3.5-6-.6-1.8-2.4-2.3-4-2.5-2.1-.4-1.7-.8-3.2-2.2-1.1-1-2.3-1.3-3.7-1-1 .1-.8.7-1.8.9z"/><path id="XMLID_394_" class="st6" d="M385.5 225c-4 1.1-4.9-1.7-5.6-5-1-4.4-5.7-4.6-9-2.4-3.8 2.5-5.4 7-3.3 11.4 2 4.1 5 1.7 8 2.1 2.6.3 3.9 3.1 6.4 3.6 2.2.5 4.2-.8 5.6-2.5 1.2-1.5 2.2-3.4 1.2-5.3-.8-1.6-2.8-2.3-4.2-1.3l.9-.6z"/><path id="XMLID_393_" class="st7" d="M383.8 231.3c1.4-.2 2.9-2.4 1.8-3.8-.9-1.1-3-.1-4.3-.8-3-1.9-1.2-7.8-6.2-6.6-2.2.5-4.4 3.3-3.7 5.8.5 1.9 2.3 2.4 3.9 2.7 2.1.5 1.7.9 3.1 2.4 1 1.1 2.3 1.4 3.7 1.2.9-.2.7-.8 1.7-.9z"/><path id="XMLID_392_" class="st6" d="M377.8 210.9c1.7-.3 3.9-1.3 5.4.2 1.5 1.4 2.3 3.5 4.1 4.8 5.6 4.2 11.6-2 9.8-8.4-1.4-5.1-8.1-9.4-13.2-7.9-3.4 1-9.4 5.5-8.2 9.9.5 1.7 2 2.5 3.2 1l-1.1.4z"/><path id="XMLID_391_" class="st7" d="M385.2 204c-2.5-1.6-6.4-.5-7.3 2.4-1.2 4.2 3.3 1.7 5.4 3.6 1.3 1.2 4.2 6.4 5 1.7.4-2.4-.7-6.4-2.9-7.6-.5-.2-1-.4-1.6-.3l1.4.2z"/><path id="XMLID_390_" class="st6" d="M296.5 213.4c1.7-.3 3.9-1.3 5.4.2 1.5 1.4 2.3 3.5 4.1 4.8 5.6 4.2 11.6-2 9.8-8.4-1.4-5.1-8.1-9.4-13.2-7.9-3.4 1-9.4 5.5-8.2 9.9.5 1.7 2 2.5 3.2 1l-1.1.4z"/><path id="XMLID_389_" class="st7" d="M303.9 206.5c-2.5-1.6-6.4-.5-7.3 2.4-1.2 4.2 3.3 1.7 5.4 3.6 1.3 1.2 4.2 6.4 5 1.7.4-2.4-.7-6.4-2.9-7.6-.5-.2-1-.4-1.6-.3l1.4.2z"/><path id="XMLID_388_" class="st6" d="M365 211.3c-1.7-.2-4.1.1-5.2-1.7-1.1-1.8-1.4-4-2.7-5.7-4.3-5.6-11.7-1.3-11.6 5.3.1 5.3 5.5 11.3 10.7 11.3 3.5 0 10.4-2.6 10.4-7.3 0-1.8-1.3-3-2.9-1.9h1.3z"/><path id="XMLID_387_" class="st7" d="M356.1 215.8c2 2.2 6.1 2.3 7.6-.3 2.2-3.7-2.8-2.6-4.3-5-1-1.5-2.4-7.4-4.4-3-1 2.2-1 6.4.9 8.1.4.4.9.6 1.4.7l-1.2-.5z"/><path id="XMLID_386_" class="st6" d="M353.2 240.3c1.7-.3 3.9-1.3 5.4.2 1.5 1.4 2.3 3.5 4.1 4.8 5.6 4.2 11.6-2 9.8-8.4-1.4-5.1-8.1-9.4-13.2-7.9-3.4 1-9.4 5.5-8.2 9.9.5 1.7 2 2.5 3.2 1l-1.1.4z"/><path id="XMLID_385_" class="st7" d="M360.6 233.4c-2.5-1.6-6.4-.5-7.3 2.4-1.2 4.2 3.3 1.7 5.4 3.6 1.3 1.2 4.2 6.4 5 1.7.4-2.4-.7-6.4-2.9-7.6-.5-.2-1-.4-1.6-.3l1.4.2z"/><path id="XMLID_384_" class="st6" d="M283.4 226.3c.6-1.7.8-4.2 2.8-4.9 1.9-.7 4-.4 5.9-1.4 6.2-3.1 4-11.7-2.1-13.1-4.9-1.2-11.7 2.9-13 8.3-.8 3.6-.1 11.3 4.2 12.4 1.7.4 3-.6 2.4-2.5l-.2 1.2z"/><path id="XMLID_383_" class="st7" d="M281.3 216.1c-2.5 1.5-3.5 5.7-1.6 7.9 2.9 3.2 3-2.3 5.6-3.2 1.6-.6 7.3-.7 3.8-3.8-1.8-1.5-5.6-2.5-7.7-1-.4.3-.8.8-1 1.3l.9-1.2z"/><g><path id="XMLID_382_" class="st6" d="M348.2 220.2c-2.1-.1-3.7 1-5.6-.5-1.6-1.3-2.1-2.3-4.5-1.8-5.8 1.4-9 10.4-4.2 14.8 2.7 2.5 5.3 2.6 7.5-.4 1.7-2.3 3.8-3.2 6.3-1.7 2.1 1.2 5.7 3.6 7.6.7 1.2-1.8 1-5.9-.1-7.8-1.4-2.3-5.4-4-8-3.7l1 .4z"/><path id="XMLID_381_" class="st7" d="M344.7 221.1c-1.8 0-2.4-.1-3.4 1.5s-1.7 2.7-3.3 3.8c-1.1.8-2.4 1.4-1.5 3.1 1.2 2.3 3.3.7 4.6-.3 1.2-.9 2.6-1.9 4.2-1.6 1.4.3 2.1 2.3 3.4.7 1.9-2.6-1.2-6.4-3.5-6.9-.8-.2-1.7 0-2.5 0l2-.3z"/></g><g><path id="XMLID_380_" class="st6" d="M400 223c-2.1-.1-3.7 1-5.6-.5-1.6-1.3-2.1-2.3-4.5-1.8-5.8 1.4-9 10.4-4.2 14.8 2.7 2.5 5.3 2.6 7.5-.4 1.7-2.3 3.8-3.2 6.3-1.7 2.1 1.2 5.7 3.6 7.6.7 1.2-1.8 1-5.9-.1-7.8-1.4-2.3-5.4-4-8-3.7l1 .4z"/><path id="XMLID_379_" class="st7" d="M396.4 224c-1.8 0-2.4-.1-3.4 1.5s-1.7 2.7-3.3 3.8c-1.1.8-2.4 1.4-1.5 3.1 1.2 2.3 3.3.7 4.6-.3 1.2-.9 2.6-1.9 4.2-1.6 1.4.3 2.1 2.3 3.4.7 1.9-2.6-1.2-6.4-3.5-6.9-.8-.2-1.7 0-2.5 0l2-.3z"/></g><g><path id="XMLID_378_" class="st6" d="M372.4 193.6c-1.2-1-1.2-2.6-2.2-3.8-1.3-1.4-3.7-1.7-5.5-1.6-4.4.3-8 8.8-5.4 12.7 3 4.6 11.3 6.9 15 1.9 1.7-2.2 2.1-8-1.3-8.8l-.6-.4z"/><path id="XMLID_377_" class="st7" d="M369 191.8c-2.3-3.1-5.1 1.2-5.2 3.6-.1 3.3 2.6 5 5.5 5 2.6-.1 4.1-2.5 2.3-4.7-1.6-1.9-2.6-3.9-2.6-3.9z"/></g><g><path id="XMLID_376_" class="st6" d="M302.3 222.3c-1.2-1-1.2-2.6-2.2-3.8-1.3-1.4-3.7-1.7-5.5-1.6-4.4.3-8 8.8-5.4 12.7 3 4.6 11.3 6.9 15 1.9 1.7-2.2 2.1-8-1.3-8.8l-.6-.4z"/><path id="XMLID_375_" class="st7" d="M298.9 220.5c-2.3-3.1-5.1 1.2-5.2 3.6-.1 3.3 2.6 5 5.5 5 2.6-.1 4.1-2.5 2.3-4.7-1.5-1.9-2.6-3.9-2.6-3.9z"/></g><g><path id="XMLID_374_" class="st6" d="M320.3 214.7c-1.9.5-3.4 1.3-5.6.8-1.7-.4-2.8-2-4.6-2-4.8 0-5.2 6.8-3.8 10.3 4.3 11.1 24.8 5.2 19.2-6-.7-1.4-3.8-5.2-5.2-3.1z"/><path id="XMLID_373_" class="st7" d="M315.3 216.7c-1.3-.1-2.8-1-4-1-1.7 0-2 1.5-2 3-.1 2.3 1 3.4 2.9 4.3 3.2 1.5 9.6 2.1 10.9-2.6.9-3.3-1.7-6-4.6-4.1 0 0-1.7.6-3.2.4z"/></g><g><path id="XMLID_372_" class="st6" d="M353.4 185.7c-1.9.5-3.4 1.3-5.6.8-1.7-.4-2.8-2-4.6-2-4.8 0-5.2 6.8-3.8 10.3 4.3 11.1 24.8 5.2 19.2-6-.7-1.3-3.8-5.1-5.2-3.1z"/><path id="XMLID_371_" class="st7" d="M348.4 187.7c-1.3-.1-2.8-1-4-1-1.7 0-2 1.5-2 3-.1 2.3 1 3.4 2.9 4.3 3.2 1.5 9.6 2.1 10.9-2.6.9-3.3-1.7-6-4.6-4.1-.1.1-1.7.6-3.2.4z"/></g><g><path id="XMLID_370_" class="st8" d="M438.2 235.5s-31.7 115.2-35.4 159.8c0 0-32.4 8.6-48.6 17.5 0 0-47.7-12.7-65.5-14.1 0 0-27.5-139.5-37.2-167.8 0 0 16.5-10.4 28.4 4.2 0 0 8.5-15.1 22.6 1.9 0 0 8.4-12.7 18.4 2.1 0 0 9.7-10.7 22.2 3 0 0 8.9-13.4 22.7.5 0 0 9.9-12.7 22.7.3 0 0 16.1-19 30.7-4.9-.1.2 7.5-14.5 19-2.5z"/><path id="XMLID_369_" class="st9" d="M388.7 242.7c-2.1 76.7-16.7 154.4-16.8 162.4 4.7-1.6 13.5-4.6 17.5-5.9 13.9-97.9 28.3-154.1 29.1-161.4-13.1-12.1-27.4 2.3-29.8 4.9z"/><path id="XMLID_368_" class="st10" d="M353.9 410.8c.7-16.6 10.3-166.5 10.9-168.9-13.2-12.4-22 .1-22.1 0 0 .6 3.3 100.8-.4 167.9 6 1.5 10.4 2.7 11.6 3-.1-.7-.1-1.3 0-2z"/><path id="XMLID_367_" class="st10" d="M278.9 234.2c-11.8-13-27.5-3.2-27.5-3.2 9.7 28.2 37.2 167.8 37.2 167.8 3.3.2 7.7.9 12.6 1.8-.5-6.4-15.3-90.2-22.3-166.4z"/><path id="XMLID_366_" class="st10" d="M320.1 238.2c-9.7-13.1-17.7-1.1-17.7-1.1l-.3-.3c.3.3 15.3 161.1 17 167.4 4.5 1 9 2.1 13.2 3.1.1-16.9-5.8-82-12.2-169.1z"/></g><g opacity=".55"><path id="XMLID_365_" d="M388.6 246.4c3.1-3.6 6.2-6.6 10.6-8.4 6.6-2.8 13.4-1.6 18.7 3.2.2.2-.2-.2 0 0 0 0 11.7-13.5 19.4-2.5.6-2.1.9-3.2.9-3.2-11.5-12-19.1 2.7-19.1 2.7-.2-.2-.3-.3-.5-.4-5.3-4.8-12.1-6-18.7-3.2-4.4 1.8-8.4 4.9-11.5 8.5-11.8-12.3-21.4-1.8-22.7-.3-.3-.3-.6-.6-1-.9-.2 1.4-.3 2.8-.3 4.2 1.8-2 12.8-11.3 24.2.3z" fill="#c1ccdb"/><path id="XMLID_364_" class="st8" d="M402.4 395.4c.2-.1.4-.1.4-.1.8-9.6 2.9-22.4 5.7-36.7-2.8 14.1-5 26.9-6.1 36.8z"/></g><path id="XMLID_363_" d="M363.6 245.2c-4.3-3.6-9.8-5.7-15.2-3.3-1.7.8-3.3 1.9-4.6 3.3-.3.3-.6.7-.9 1-.2.3-2.2-1.9-2.6-2.2-3.9-3.3-8.9-5.3-13.9-3.7-2 .6-4 1.8-5.5 3.4-.2-.4-.5-.7-.7-1-1.6-2.2-3.5-4.3-6-5.4-4.3-2.3-9.2.8-11.7 4.3l-.3-.3c-13.9-16.5-22.3-1.6-22.3-1.6-.3-.4-.6-.7-.9-1-6.9-7.6-17.4-8.4-26.3-3.8 10.6 35 36 164 36 164 10.3.8 20.5 3.2 30.5 5.5 4.5 1 9 2.1 13.2 3.1l13.2 3.3c.5.1 8.3 1.9 8.3 2.2.4-7.4.8-14.7 1.2-22.1.9-15.6 1.8-31.3 2.8-46.9 1.7-26.8 3.5-53.6 5.4-80.4.4-5.8.8-11.5 1.2-17.3-.3-.6-.6-.9-.9-1.1z" opacity=".55" fill="#a16241"/><g><path id="XMLID_362_" class="st9" d="M402.5 288.9s-19.3-8.5-31.8 11.4c-12.4 19.8-6.7 52.5 16.5 50.7 23.2-1.9 40.2-50 15.3-62.1z"/><path id="XMLID_361_" class="st8" d="M401.4 293s-16.7-7.3-27.5 9.8c-10.8 17.2-5.8 45.5 14.3 43.9 19.9-1.7 34.6-43.3 13.2-53.7z"/><path class="st9" d="M381.7 300.3s2.6 1.8 3.1 6.4c-1.1 4.7-3.7 8.2-7.7 9.8-.8 2.8-1.3 6-1.3 6s-1.9-.8-2.9-3l2.3-10.2c-.1-1.8 0-4.4 0-4.4s2.5-3.4 6.5-4.6zm-2.6 7.9c-.5 1.8-1 3.4-1.4 4.9h.1c2.9-.9 4-5.2 4-5.2s-1-.3-2.7.3zM390.7 301.1l2.2-3.4s1.7.8 1.3 6.1c-.7 10-6.5 14.3-6.5 14.3-3-.6-3.6-4.2-3.6-4.2 1-11.5 4.8-13.8 4.8-13.8.4.7 1.1 1 1.8 1zm.2 2.5c-1.2 2.4-2.6 5.9-2.9 10 1-.3 3.4-4.5 2.9-10zM401.9 294.2s2.6 1.8 3.2 6.3c-.9 4.5-3.3 8-7.2 9.4-.7 2.7-1.1 5.8-1.1 5.8s-1.9-.8-2.9-2.9l1.9-9.8c-.2-1.8-.2-4.2-.2-4.2s2.5-3.4 6.3-4.6zm-2.3 7.7c-.5 1.7-.9 3.3-1.2 4.8h.1c2.8-.9 3.7-5.1 3.7-5.1s-.9-.3-2.6.3z"/><g><path class="st9" d="M382.1 330.2s-1.4-.7-2.3-2.5c-.8 2.1-1.7 4.9-2.2 8.3l4.7-3.8s-.5 5.1-5.6 8.4c0 0-1.9-.5-2.5-3 .4-4.6 2.7-11.7 4.7-14.1.5-.2.9-.2 1.3-.3 2.1-.9 3.7-2.1 3.7-2.1s-1 4.3-1.8 9.1zM388.2 322.7l1.8-2.9s1.4.6 1.1 5.3c-.5 8.7-5.4 12.5-5.4 12.5-2.5-.5-3.1-3.6-3.1-3.6.8-10 4-12.1 4-12.1.4.6 1 .8 1.6.8zm.2 2.2c-1 2.1-2.1 5.1-2.4 8.7.8-.3 2.8-4 2.4-8.7zM392.2 320.9s1.7-2.9 5-4c0 0 2.2.3 3 4.9-.5 3.5-2.2 5.6-3.6 6.6 1.3 1.1 2.6 1.3 2.6 1.3s-.8 2.4-2.5 3.9c-1.4-.6-1.9-2.7-2.3-4L393 335s-1.5-.9-2-2.9l1.5-7.5-.3-3.7zm3.6 2.4l-1 4.2c2.5-.9 3-4.4 3-4.4s-.7-.4-2 .2zM405.3 324.3c1-7.7.9-11.2.9-11.2s1.6.8 2.8.9c-.6 8.3-1.8 14.6-1.8 14.6-1.2.4-2.7 1.9-2.7 1.9l-1-8.7s-.6 3.4-1.3 9.5c0 0-1.5-.5-2.2-2 .7-6.7 2-12.1 2-12.1s1.2-1.2 2.8-2.1l.5 9.2z"/></g><path id="XMLID_348_" class="st9" d="M407 304l-.7 2.7-1.9.5 1.7 1.4-.4 2.5 2.1-2.3 1.5.7-.5-1.8 1.1-2.1-1.6.5z"/></g><linearGradient id="XMLID_17_" gradientUnits="userSpaceOnUse" x1="282.84" y1="385.531" x2="350.783" y2="296.569" gradientTransform="rotate(-.59 146.73 284.105)"><stop offset=".203" stop-color="#647082"/><stop offset=".781" stop-color="#e9c49f"/></linearGradient><path id="XMLID_347_" d="M421.3 278.8c-5 5.8-10.4 10.7-16.2 15.6-24.2 20.7-59.1 21.1-85.2 3.7-19-12.6-35.4-28.4-52-44.3l-6.3-6c11.3 46 30.8 149.2 30.8 149.2.5 0 1 .1 1.5.1.2 0 .3 0 .5.1.4 0 .8.1 1.2.1.2 0 .3 0 .5.1.6.1 1.1.2 1.8.2l1.8.3c.2 0 .4.1.6.1.5.1 1 .2 1.4.2.2 0 .4.1.6.1 5.7 1 12.4 2.5 19 4 4.3 1 8.5 2 12.5 3 3.4.9 6.6 1.7 9.4 2.4 5 1.3 8.8 2.3 10.4 2.8h.1c.2.1.3.1.5.1.2.1.4.1.4.1 4.6-2.7 10.7-5.3 16.9-7.7 4.5-1.6 12.7-4.6 16.5-5.8 7.3-2.4 12.6-3.8 12.6-3.8 2.2-27.3 14.4-81.3 23.5-118.5-.9 1.6-1.8 2.8-2.8 3.9z" opacity=".75" fill="url(#XMLID_17_)"/><linearGradient id="XMLID_20_" gradientUnits="userSpaceOnUse" x1="275.517" y1="380.746" x2="356.672" y2="274.486"><stop offset=".203" stop-color="#647082"/><stop offset=".781" stop-color="#e9c49f"/></linearGradient><path id="XMLID_346_" d="M408.6 358.2c-10.6 2.5-20.9 6-31 10.2-11.1 4.6-22.8 9.3-34.8 10.4-32.7 3-20.2-32.4-15.3-51.8 9.6-38.5 24.7-59 24.7-59-20.9-7.6-46.6-23.7-64.9-30.1-9.7-3.4-20.3-7-28-14.1-4.7 3-7.6 7.1-7.6 7.2.4 1.1.8 2.4 1.2 3.8.2.5.3 1.1.5 1.7 8.1 27.8 23.8 104.2 31.4 141.4 0 .1 0 .2.1.4.1.7.3 1.4.4 2.1v.1c.3 1.4.6 2.7.8 4 0 .2.1.4.1.6l.3 1.2c.1.3.1.6.2 1 0 .2.1.5.1.7.1.3.1.7.2 1 .3 1.5.6 2.9.8 4.1 0 .1 0 .2.1.3.1.4.1.7.2 1 0 .2.1.3.1.5.1.6.2 1.1.3 1.5.2.8.3 1.3.3 1.7 0 .2.1.4.1.5v.2c.7.1 1.6.1 2.4.2.2 0 .4 0 .6.1 1.7.2 3.6.5 5.7.8.3 0 .5.1.8.1.6.1 1.2.2 1.7.3 5.9 1 12.6 2.4 19.3 3.9 4.5 1 9 2.1 13.2 3.1 4.4 1.1 8.8 2.1 13.1 3.3.2.1.5.1.7.2.3.1.5.1.7.2.4.1.7.2 1.1.3.2.1.4.1.6.2.3.1.6.2.9.2.2.1.4.1.6.2.3.1.6.2.9.2.1 0 .2 0 .3.1.3.1.6.2.9.2.1 0 .2 0 .2.1h.1c.3.1.5.1.7.2.2.1.4.1.5.1.3.1.5.1.5.1l1.8-.9.6-.3c.4-.2.9-.4 1.3-.7.2-.1.4-.2.7-.3.5-.2.9-.4 1.4-.6l.6-.3c.6-.3 1.2-.5 1.8-.8.1 0 .2-.1.2-.1 1.5-.6 3-1.3 4.6-1.9.1 0 .1-.1.2-.1.7-.3 1.4-.6 2.1-.8.1 0 .2-.1.2-.1.8-.3 1.5-.6 2.3-.9.1 0 .3-.1.4-.1.5-.2 1-.3 1.5-.5.2-.1.4-.1.6-.2.5-.2 1.1-.4 1.7-.6.2-.1.4-.1.6-.2l1.8-.6c.2-.1.4-.1.7-.2l1.8-.6c.4-.1.8-.3 1.2-.4.4-.1.8-.3 1.1-.4l1.8-.6c.2-.1.3-.1.5-.2.4-.1.8-.3 1.3-.4.3-.1.6-.2.8-.3.6-.2 1.2-.4 1.7-.5 5.8-1.8 10.4-3.1 12.3-3.6.3-.1.5-.1.7-.2H403c.1-1.1.2-2.2.3-3.4 0-.2 0-.4.1-.6.1-1.1.3-2.3.4-3.5 0-.2.1-.4.1-.6.2-1.2.3-2.5.5-3.8v-.3l.6-4.2v-.2c.2-1.5.5-2.9.7-4.5 0-.1 0-.3.1-.4.3-1.5.5-3.1.8-4.7v-.2c.6-3.3 1.2-6.7 1.9-10.3 0-.3 0-.4.1-.6z" opacity=".85" fill="url(#XMLID_20_)"/><g><path id="XMLID_345_" class="st16" d="M276.7 396.4c-9.3 1-18.5 1.1-27.9 1.1-8.4-.1-17.5 1.1-25.7-.8l2.2 18.4s20.7 6.6 34.6 5c13.9-1.6 26.1-5.5 26.1-5.5l3.1-20.8c-4 1.2-8.1 2.1-12.4 2.6z"/><path id="XMLID_344_" d="M245.7 397.5c-6.8.1-14 .7-20.6-.4.5 2.4.9 4.7 1.3 7.1.7 4 1.4 8 2.4 11.9 4.1 1.1 11.3 2.9 18.7 3.8-1.7-7.3-2.2-14.9-1.8-22.4z" fill="#8eb0bc"/><path id="XMLID_343_" class="st16" d="M233.2 410.3c8.7 1.5 17.5 2 26.3 1.6 9.3-.4 18.8-3.9 27.8-5.9l1.8-12.3c-4 1.2-8 2.1-12.4 2.6-9.3 1-18.5 1.1-27.9 1.1-8.4-.1-17.5 1.1-25.7-.8l1.4 11.6c2.9.9 5.8 1.6 8.7 2.1z"/><path id="XMLID_342_" class="st18" d="M190.2 269.1s27.7 94.5 26 124.8c0 0 9 9.9 39.9 10.6s37.9-8.6 37.9-8.6.7-68.9 22.4-125.1c.1-.1-49.9 13.7-126.2-1.7z"/><path id="XMLID_341_" d="M285 297.3s4.9 21.6-31.7 21.3c-36.6-.2-43.7 35.3-30.2 56 13.5 20.6 46.7 28 62.1 5.7 0 0-14.3 14.2-31.9 2.6s-7.9-29.9 9.4-40.5c17.4-10.7 34.9-16.9 22.3-45.1z" fill="#e8f5f3"/><path id="XMLID_340_" d="M222.5 274.1c-10.1-1.1-20.9-2.8-32.4-5.1 0 0 27.7 94.5 26 124.8 0 0 6.6 7.3 28 9.8-5.8-43.3-20.2-85.6-21.6-129.5z" opacity=".35" fill="#a01d20"/><ellipse id="XMLID_339_" class="st18" cx="268.2" cy="326.1" rx="4.9" ry="4.8"/><path id="XMLID_338_" class="st18" d="M266.8 285.5c-1.1 20.4-5.7 115.1-6.2 119 6.1-.1 11.1-.5 15.2-1.2.1-1.1 16.6-118.6 18.1-124.8-8.1 3.7-17.7 6.4-27.1 7z"/><path id="XMLID_337_" class="st18" d="M190.2 269.1s3.4 11.6 7.7 27.9c6.7 5.8 27.7 11.7 51.1 10.8 19.2-.7 46.9-7.5 61.2-19.1 1.8-5.9 3.9-11.9 6.2-18 .1 0-49.9 13.8-126.2-1.6z"/><ellipse id="XMLID_336_" class="st18" cx="246.3" cy="334.4" rx="8.2" ry="7.5"/><ellipse id="XMLID_335_" class="st18" cx="231.9" cy="359.3" rx="6.2" ry="5.8"/><ellipse id="XMLID_334_" class="st18" cx="238.5" cy="378" rx="3.5" ry="3.1"/><ellipse id="XMLID_333_" class="st18" cx="248.8" cy="387.3" rx="2" ry="2"/><ellipse id="XMLID_332_" class="st18" cx="282.1" cy="318.6" rx="2" ry="2.1"/><path id="XMLID_331_" d="M291 382.1c-19.6-4.3-36.9-15.4-45.8-35.3-10-22.3-9.7-47.4-9.4-71.5-11.9-.8-24.9-2.4-38.8-5 .5 1 1 1.9 1.4 2.9 2.8 6.1 10.3 46.1 14 59.2 3.6 12.7 8.6 60.1 8.7 61.1 5.5 2.8 15.7 6.2 33.2 6.6 30 .7 36.7-8.3 36.7-8.3s-.2-3.4 0-9.7z" opacity=".35" fill="#b94442"/><path id="XMLID_330_" class="st16" d="M179.8 271.2s30.3 25.1 77.5 20.8c46.7-4.2 65.1-17.2 71.3-22.9 0 0-12.1-7.5-19.1-17.8l-111.6 4.6c-.1 0-11 12.3-18.1 15.3z"/><path id="XMLID_329_" class="st16" d="M303.5 266.7c-2.5-3.2-4.9-6.4-7.4-9.6-.6.4-1.3.7-2 1 2.6 5.7 5.6 11.2 8.3 16.8 1.1 2.4 2.2 4.7 3.3 7.1 3.2-1.2 6-2.4 8.5-3.6-3.8-3.6-7.4-7.3-10.7-11.7z"/><path id="XMLID_328_" class="st16" d="M283.2 261.3c-8 1.7-15.8 3.5-23.8 4.9.6 8.5 1.5 16.9 2.5 25.3 13.2-1.4 24.1-3.6 32.9-6-1.7-3.6-3.4-7.2-5.2-10.7-2.3-4.5-4.5-8.9-6.4-13.5z"/><path id="XMLID_327_" class="st16" d="M208.2 255.4c-2.1 2.6-4.3 5.1-6.7 7.3-4.9 4.3-10.6 8.1-14.7 13.2 9.7 5.9 29 15.3 54.9 16.4-1.7-4.7-3-9.5-3.3-14.6-.5-7.9-.4-15.7-.3-23.6l-29.9 1.3z"/><path id="XMLID_326_" class="st22" d="M309.5 251.3s-16.7-7.9-55.3-5.5c-38.6 2.5-48.7 4.1-56.3 10 0 0 12.2 15.7 59.8 13.2 39.9-2.1 50.7-14 51.8-17.7z"/><path id="XMLID_325_" class="st23" d="M249.7 269.3l2.7-4.8c3.4-6 6.9-12 10.4-17.9.2-.4.4-.8.7-1.2h-1.8c-5.7 5-11.1 10.6-16.9 15.2-3.5 2.8-7 5.4-10.6 8.1 4.6.5 9.7.7 15.5.6z"/><path id="XMLID_324_" class="st23" d="M292 246.9c-2.2 6.3-5.1 12.5-8 18.6 18.7-4.5 24.7-11.6 25.5-14.2 0 0-5.6-2.6-17.5-4.4z"/><path id="XMLID_323_" class="st23" d="M280.3 245.7c-1.4-.1-2.8-.2-4.2-.2-2.9 4-5 9.4-7.2 13.2-1.9 3.3-3.8 6.6-5.7 10 2.5-.2 4.9-.5 7.1-.7 3.3-7.4 7.1-14.7 10-22.3z"/><path id="XMLID_322_" class="st23" d="M215.1 257.3c1.4-2.8 3.2-5.6 4.7-8.6-11.9 1.6-17.4 3.6-22 7.1 0 0 3.5 4.4 13.9 8.2 1.1-2.2 2.2-4.4 3.4-6.7z"/><path id="XMLID_321_" class="st24" d="M298.5 250.4s-45.5-16-89.6 3.7c0 0 13.5 9.2 48.5 8.4 28.7-.6 41.1-12.1 41.1-12.1z"/><path id="XMLID_320_" class="st16" d="M213.8 241.5s3.9 3.4 4.3 12.6c0 0 23.6 5.2 40.8 3.9 15.9-1.2 31.1-6.8 31.1-6.8s-.8-4.8 3.7-15.3l-79.9 5.6z"/><path id="XMLID_319_" class="st16" d="M248.2 239.1l-24.9 1.7c-.2 2.9-.4 5.7-.9 8.5-.3 1.8-.7 3.6-1.1 5.4 5.2 1 15.9 2.8 26.6 3.3-.2-6.1-.5-12.7.3-18.9z"/><path id="XMLID_318_" class="st16" d="M272.5 237.5l-8.3.6c-1 6.6-1.8 13.1-2.2 19.7 6.3-.7 12.4-2 17.2-3.2-2.4-5.7-4.8-11.3-6.7-17.1z"/><path id="XMLID_317_" class="st22" d="M293.6 236s-23.2-6.4-42.2-5.2c-19 1.2-29.6 5.1-37.6 10.7 0 0 10.4 8.2 39.5 8.2 29.2 0 40.1-13.2 40.1-13.2l.2-.5z"/><path id="XMLID_316_" class="st23" d="M230.6 233.9c-7.1 1.9-12.3 4.5-16.8 7.6 0 0 3 2.4 10.3 4.6 1.9-4.2 4-8.3 6.5-12.2z"/><path id="XMLID_315_" class="st23" d="M247.1 237c.8-2 1.5-4.1 2.4-6.1l-3.6.3c-.4.6-.7 1.2-1 1.6-1.7 2.3-3.3 4.7-4.8 7.1-1.7 2.8-3.3 5.7-4.7 8.6 2 .3 4.2.5 6.6.7 1.8-4 3.4-8.1 5.1-12.2z"/><path id="XMLID_314_" class="st23" d="M279.8 233c-.7 1.6-1.4 3.2-2 4.9-1.2 3-2.4 6.1-3.6 9.2 13.6-3.8 19.2-10.5 19.2-10.5l.2-.6s-5.7-1.6-13.8-3z"/><path id="XMLID_313_" class="st24" d="M231.6 240.8s14-4.4 26.1-4c12.1.4 18 2 18 2s-8.1 5.6-24.4 5.8c-16.2.3-19.7-3.8-19.7-3.8z"/><path id="XMLID_312_" d="M178.6 202.2s-.2 9.7 7.8 10c0 0 2-5.3-1.7-8.1-3.6-2.8-4-2.5-6.1-1.9z" fill="#7da4b1"/><path id="XMLID_311_" class="st16" d="M258.3 239.7s3 2.5 10.1 0l-22.8-80.6s4.5-1.2.9-5.2c0 0 1.3-4.9-3.4-2.4 0 0-.8-5-4.4-2 0 0 .1-3.4-4.9 1.5s-55.2 51.1-55.2 51.1 8.5 2.1 7.8 10c0 0 50-50.3 50.7-49.3.8 1 17.5 61.3 21.2 76.9z"/><path id="XMLID_310_" class="st16" d="M241.9 154.7c-.5-1.4-2-4.5-4.6-2.8-9.2 6.1-41.4 37.4-56.2 50.8.5.3 1.1.5 1.5.9.7-1.3 46-43.8 55.1-49.8 1.1-.7 2-.1 2.4.6 4.5 9.3 19 63.9 24 82h1.3c-4-15-20.7-74.5-23.5-81.7z"/></g><g><path id="XMLID_309_" class="st26" d="M293.2 379l-101.6 21.1s-35.5 41.3-5 38.8c17.3-1.4 10.1-29.8 10.1-29.8l98.8-9.6-2.3-20.5z"/><path id="XMLID_308_" class="st27" d="M205 397.3c4.1 3.2 8.1 6.5 12 9.8l12.6-1.2c-4.6-3.4-9.3-6.8-13.6-10.8l-11 2.2z"/><path id="XMLID_307_" class="st27" d="M237.3 390.6c5.7 4.4 11 8.8 16.4 12.9l6.9-.7c-5.1-4.7-9.4-9.7-14.7-14l-8.6 1.8z"/><path id="XMLID_306_" class="st26" d="M440.4 385.6c0-3.5 0-7.1-.1-10.6 0-1.3-.1-2.6-.1-3.8l-176.1 35.4s-23.1 39.4-.6 35.5c22.5-3.9 7.9-27.7 7.9-27.7l169-28.8z"/><g><path id="XMLID_305_" d="M295.8 380.2s5.4 50.5 13.2 51.8c7.8 1.3 44.8 8.7 47.2 6 2.4-2.6 24.6-37.8 20.9-39.4-3.7-1.6-80.6-26.7-81.3-18.4z" fill="#3ea8df"/><path id="XMLID_304_" class="st29" d="M329.2 401.8c15.4 1.2 30.1 4.4 39.8 16 5.4-9.3 9.9-18.4 8.1-19.2-3.7-1.6-80.6-26.7-81.3-18.4 0 0 1.2 11 3.2 22.8 9.7-2.5 20.6-2 30.2-1.2z"/><path id="XMLID_303_" d="M377.1 398.6c-1.9-.9-24-8.1-44.6-13.7 9.6 15.1 12.7 35.1 8.5 52.5 7.8 1.1 14.2 1.6 15.1.6 2.5-2.6 24.7-37.8 21-39.4z" opacity=".55" fill="#e1dbdd"/><path id="XMLID_302_" d="M442.1 370s-57.2 26.2-54.6 31c2.7 4.8 18.9 32.5 20.6 32.4 1.7-.1 32.5-17.1 33.7-22.2 1.2-5.1 3.4-42.6.3-41.2z" fill="#ed1f31"/><path id="XMLID_301_" class="st29" d="M392.2 409c5.8-5.9 13.2-10.3 20.9-12.3 9-2.4 19.8-3.3 30.3-2.7.6-11.7.6-24.7-1.2-23.9 0 0-57.2 26.2-54.6 31 .7 1.2 2.4 4.2 4.6 7.9z"/><path id="XMLID_300_" d="M442.1 370s-11.6 5.3-24.1 11.6c4.2 3.8 7.4 9.6 8.5 14.4 2 9 2.1 18.1.6 27.1 7.4-4.6 14.2-9.5 14.7-11.8 1.2-5.2 3.4-42.7.3-41.3z" opacity=".55" fill="#e0dbad"/><path class="st33" d="M442.6 362.9c-5.6-.6-43.8 16.7-58.3 31.6 0 0-2 1.7-4.6-.5-2.6-2.2-81.8-29.1-91.5-19.5 0 0-7.2 20.2 14.1 62.2 0 0 51.2 15.1 56.9 6.4 5.7-8.7 19-36.6 25.4-33.4 6.4 3.2 15 30.1 21.8 30.4 6.9.4 31.9-13.1 37.8-26.2 6.1-13.1 4-50.5-1.6-51zm-88.7 70.2c-1.4 1.9-40.1-5.4-42.8-6.3-2.7-1-11.5-35.3-9.2-40.6 2.3-5.3 67.3 16 67.3 16 3.4 1.1-13.9 29-15.3 30.9zm83.9-22.7c-1.1 3.4-24 18.9-26.5 18.9-2.5-.1-12.8-25.2-14.1-27.3-1.2-2.2.5-2.8.5-2.8 4-4.7 35.4-20.6 39.3-21.7 3.9-1.1 1.9 29.5.8 32.9z"/><path class="st33" d="M442.6 362.9c-5.6-.6-43.8 16.7-58.3 31.6 0 0-2 1.7-4.6-.5-2.6-2.2-81.8-29.1-91.5-19.5 0 0-7.2 20.2 14.1 62.2 0 0 51.2 15.1 56.9 6.4 5.7-8.7 19-36.6 25.4-33.4 6.4 3.2 15 30.1 21.8 30.4 6.9.4 31.9-13.1 37.8-26.2 6.1-13.1 4-50.5-1.6-51zm-88.7 70.2c-1.4 1.9-40.1-5.4-42.8-6.3-2.7-1-11.5-35.3-9.2-40.6 2.3-5.3 67.3 16 67.3 16 3.4 1.1-13.9 29-15.3 30.9zm83.9-22.7c-1.1 3.4-24 18.9-26.5 18.9-2.5-.1-12.8-25.2-14.1-27.3-1.2-2.2.5-2.8.5-2.8 4-4.7 35.4-20.6 39.3-21.7 3.9-1.1 1.9 29.5.8 32.9z"/><path id="XMLID_293_" class="st34" d="M446.8 373.2c-.9-6-2.4-10.2-4.2-10.3-5.6-.6-43.8 16.7-58.3 31.6 0 0-2 1.7-4.6-.5-2.6-2.2-81.8-29.1-91.5-19.5 0 0-.4 1.2-.8 3.7.2-1.1.4-1.7.4-1.7 9.6-9.6 88.9 17.3 91.5 19.5 2.6 2.2 4.6.5 4.6.5 14.5-14.9 52.7-32.1 58.3-31.6 1.7.2 4.6 8.3 4.6 8.3z"/><path id="XMLID_292_" class="st34" d="M437.4 412.5c-1.1 3.4-24 18.9-26.5 18.9-2.5-.1-12.8-25.2-14.1-27.3-.9-1.5-.3-2.2.1-2.6.1.2.1.3.2.5 1.2 2.2 11.6 27.3 14.1 27.3 2.5.1 25.4-15.5 26.5-18.9 0-.1.1-.2.1-.3-.1 1.1-.2 1.9-.4 2.4z"/><path id="XMLID_291_" class="st34" d="M353.6 435.2c-1.4 1.9-40.1-5.4-42.8-6.3-2.7-1-11.4-35-9.2-40.5-.4 9.1 7.1 37.6 9.5 38.5 2.7 1 41.4 8.2 42.8 6.3 1.2-1.6 13.2-21 15.4-28.2.6 4.2-14.4 28.4-15.7 30.2z"/><path id="XMLID_290_" class="st27" d="M353.4 386.8c-2.3-.7-4.4-1.3-6.9-2.1-2 3.6-2.7 5.6-4.7 9 2 .6 3.9 1.1 5.8 1.7 2.3-3.5 3.3-5.2 5.8-8.6z"/><path id="XMLID_289_" class="st27" d="M447.9 389.7c-2.5 7.3-5.5 14.3-8.4 21.5l-6.3 15.6c4.9-4 9.2-8.4 11.2-12.9 2.4-5.4 3.5-14.9 3.5-24.2z"/><path id="XMLID_288_" class="st27" d="M431.8 367.9c-3.1 1.2-7.2 3-10.9 4.8-.5 1.1-2.3 9.2-3.6 14.4 3.9-2.1 7.8-4.1 11.2-5.7 1.3-5.2 2.2-8.3 3.3-13.5z"/><path id="XMLID_287_" class="st27" d="M407.3 440.1c1.2-3.7 1.8-5.5 3.1-9.1-2-2.3-3.2-5-5.5-9.6-2 4.4-3.4 7.4-5.4 11.8 2.4 4 4.8 6.8 7.1 7 .1 0 .4-.1.7-.1z"/><path id="XMLID_286_" class="st27" d="M324.1 431.6c-2.2 3-4.4 6-6.6 9.1-4.3-1-8.1-2-10.8-2.8 2.3-2.9 4.4-5.6 6.8-8.4 4.9 1.1 7.4 1.4 10.6 2.1z"/><path id="XMLID_285_" class="st27" d="M306.8 375.5c-.1.1.1-.1.1-.2 2.4.4 5 .8 7.6 1.3-2 3.1-3.8 6.3-5.8 9-3.8-.5-6.4-.4-6.8.5-.6 1.3-.5 4.4.1 8.3l-11.1 14.1c-1-3.3-1.7-6.4-2.3-9.2 6.6-7.4 18.4-24 18.2-23.8z"/><ellipse id="XMLID_284_" transform="rotate(-11.507 440.148 369.6)" class="st35" cx="440.2" cy="369.6" rx="2.6" ry="2.3"/><ellipse id="XMLID_283_" transform="rotate(-11.507 295.614 381.083)" class="st35" cx="295.6" cy="381.1" rx="2.6" ry="2.3"/></g></g><linearGradient id="SVGID_1_" gradientUnits="userSpaceOnUse" x1="389.845" y1="212.806" x2="224.845" y2="430.806"><stop offset="0" stop-color="#e6d4a7"/><stop offset=".115" stop-color="#e3d0a8"/><stop offset=".254" stop-color="#dac4aa"/><stop offset=".406" stop-color="#cdafab"/><stop offset=".568" stop-color="#bb94aa"/><stop offset=".735" stop-color="#a675a7"/><stop offset=".749" stop-color="#a572a7"/><stop offset="1" stop-color="#932f62"/></linearGradient><path d="M437.8 422.7l.8-.8c.3-.3.6-.7 1-1 .5-.6 1.1-1.2 1.5-1.8.1-.2.3-.4.4-.5.5-.6.9-1.2 1.3-1.8.1-.2.3-.4.4-.6.4-.7.8-1.5 1.2-2.2.3-.6.5-1.3.8-2 0-.1.1-.3.1-.4.2-.7.4-1.4.6-2.2 0-.1.1-.3.1-.4.2-.8.4-1.7.6-2.6.2-.9.3-1.9.5-2.9v-.3c1.3-9.5 1.1-21.5-.2-29.9v-.1c-.3-2.2-.7-4.1-1.2-5.6 0-.1-.1-.2-.1-.3-.1-.4-.3-.8-.4-1.2 0-.1-.1-.2-.1-.2-.2-.4-.3-.8-.5-1.2-.2-.3-.3-.6-.5-.8l-.2-.2c-.1-.2-.3-.3-.4-.4-.1 0-.1-.1-.2-.1-.2-.1-.4-.2-.6-.2-.9-.1-2.5.3-4.8 1-4.1 1.3-10 3.7-16.6 6.8-1.5.7-2.9 1.4-4.5 2.2-2.3 1.1-4.6 2.4-6.9 3.6-.8.4-1.5.8-2.3 1.3l-2.6.5c.1-.4.1-.8.2-1.3 0-.2.1-.3.1-.5l.3-1.8c.2-1 .3-2 .5-3.1.1-.8.3-1.5.4-2.3.1-.3.1-.7.2-1 .5-3 1.1-6.2 1.8-9.4 0-.2.1-.4.1-.6v-.2c8.9-45.6 24.9-105.3 28.8-119.5.1-.5.2-.9.3-1.3v-.1c.2-.8.4-1.3.4-1.6 0-.1.1-.3.1-.3-3.9-11.9-19-10.2-19-10.2-2.3-2.4-5.4-4.7-8.8-6.7-.3-.5-.6-1.1-1-1.7-2.8-4.6-7.2-7.9-12.2-9.3v-.2c-1.4-5.1-8.1-9.4-13.2-7.9-1 .3-2.2.9-3.5 1.7-1.7-2.7-3-5.8-5.8-7.4-.8-.4-1.7-.7-2.8-.9-.7-1-.9-2.2-1.8-3.2-1.3-1.4-3.7-1.7-5.5-1.6-2.1.1-4 2.1-5.1 4.6 0-1.2-.2-2.6-1-4-.7-1.4-3.8-5.2-5.2-3.1-1.9.5-3.4 1.3-5.6.8-1.7-.4-2.8-2-4.6-2-4.8 0-5.2 6.8-3.8 10.3 1.4 3.6 4.5 5.4 7.9 5.8-1.3.7-2.7 1.2-4.2 1.5-2.6.5-5 0-7.2-.8-.1-1.1-.5-2.2-1.1-3.4-2.2-4-5.1-1.4-8.1-1.7-2.6-.2-4-2.9-6.6-3.3-2.2-.3-4.2 1-5.5 2.8-1.2 1.5-2.1 3.5-1 5.4.2.4.5.7.9 1-1 .7-1.9 1.3-2.9 2-2.7-1.9-6-3-8.9-2.2-2.8.8-7.5 4.1-8.2 7.8-1-1.5-2.5-2.6-4.4-3.1-3.4-.8-7.6.9-10.3 3.7-.3 0-.6.1-.8.1-4.7 1-9.5 5.4-12.9 10.4-.9.2-1.8.4-2.6.7l-17.7-62.5s4.5-1.2.9-5.2c0 0 1.3-4.9-3.4-2.4 0 0-.8-5-4.4-2 0 0 .1-3.4-4.9 1.5s-55.2 51.1-55.2 51.1-.2 9.7 7.8 10c0 0 50-50.3 50.7-49.3.6.8 11.8 40.8 17.9 64.2-1.8 1.7-3 3.3-3.4 3.8h-.2c-1.9.1-3.7.3-5.5.4-6 .6-11 1.5-15.4 2.7-1.7.5-3.3 1-4.9 1.5-.1 0-.2.1-.3.1-1.4.5-2.8 1.1-4.1 1.7-.1 0-.2.1-.3.1-1.3.6-2.5 1.2-3.6 1.9-.1 0-.2.1-.2.1-1.2.7-2.3 1.4-3.4 2.2 0 0 2.4 2.1 3.6 7.6-.4.1-.7.1-1.1.2-.4.1-.7.1-1.1.2-.9.2-1.8.3-2.7.5-.2 0-.5.1-.7.1-2.1.4-4 .9-5.6 1.5-.2.1-.4.1-.6.2-.6.2-1.1.4-1.7.6-.2.1-.5.2-.7.3-.5.2-.9.4-1.3.6-.2.1-.4.2-.7.3-.4.2-.9.5-1.3.7-.2.1-.4.2-.5.3-.6.4-1.1.8-1.6 1.2 0 0-10.9 12.3-18.1 15.3 0 0 4.8 3.9 13.4 8.4.3 1 .6 2.1.9 3.3 0 .2.1.3.1.5l.6 2.1c.1.2.1.5.2.7.6 2.3 1.3 4.7 2 7.3.1.4.2.7.3 1.1l.6 2.4c8.1 30.4 19.4 77.2 18.2 96.9l.1.1.1.1.2.2.2.2c.1.1.2.1.3.2l.2.2-25.6 5.3s-35.5 41.3-5 38.8c1.2-.1 2.2-.3 3.1-.6 23 4.6 88.3 16.4 150.4 13.9 39.7-1.6 73.5-6.5 103.5-20.8 0 0-6.9.3-17.8.7 4.4-2.5 8.6-5.7 12.1-9.1zm-58.4-10.9c2.2-.3 4.4-.7 6.6-1 4 3.8 8.8 14.9 13.4 22.4-10.8.4-22.9.9-35.1 1.4 4.5-8.1 10.3-18.3 15.1-22.8zm-186.1 24.3c5.1-4.5 5.2-13.6 4.6-20 8.8 2.9 23.1 6.2 45.5 8.1 4.1.3 8.2.5 12.3.6-1.4 4.1-2.3 8.2-1.9 11.4-18.9-.2-37.9-.5-60.5-.1zm80.7.4c2.5-3.5 2.4-8.1 1.5-12.1 6.8-.5 13.5-1.3 20.2-2.5 1.8 4.5 4 9.4 6.6 14.6-10 .1-19.3.1-28.3 0z" opacity=".32" fill="url(#SVGID_1_)"/><g><g id="XMLID_3292_"><g id="XMLID_3296_"><path id="XMLID_3700_" class="st0" d="M69.9 582.3h1.2v-6.6h-1.2v-2.5h6c2 0 3.5.5 4.5 1.5s1.5 2.4 1.5 4.3c0 .8-.1 1.5-.4 2.2-.3.7-.6 1.3-1.1 1.9-.5.5-1.1 1-1.9 1.3-.8.3-1.7.5-2.6.5h-5.8v-2.6zm5.4 0c.4 0 .7-.1.9-.2.3-.1.5-.3.6-.5.2-.2.3-.5.4-.8.1-.3.2-.6.2-.9 0-.3.1-.6.1-.9v-.9c0-.3-.1-.6-.2-.9-.1-.3-.2-.6-.4-.8-.1-.2-.4-.4-.6-.5-.3-.1-.6-.2-.9-.2H75v6.6h.3z"/><path id="XMLID_3698_" class="st0" d="M88.1 583.8c-.3.4-.6.7-1.1.9-.4.2-1 .3-1.5.3-1.6 0-2.4-1-2.4-2.9v-2.7h-.6v-2.2h4.1v4.6c0 .3.1.5.2.6.1.2.3.2.5.2s.4-.1.5-.2c.1-.2.2-.4.2-.6v-2.3h-.6v-2.2h4.1v5.5h.5v2.2h-4.1v-1.2z"/><path id="XMLID_3695_" class="st0" d="M97.5 582.7h.6v2.2h-4.7v-2.2h.6v-3.3h-.6v-2.2h4.1v5.5zm-.6-6.5c.4-.3.6-.8.6-1.3s-.2-1-.6-1.3c-.4-.3-.9-.5-1.5-.5s-1.1.2-1.4.5c-.4.3-.6.7-.6 1.3 0 .6.2 1 .6 1.3.4.3.9.5 1.4.5.6 0 1.1-.1 1.5-.5z"/><path id="XMLID_3693_" class="st0" d="M104.2 579.4l-.1-.2c0-.1-.1-.2-.1-.3-.1-.1-.1-.2-.1-.2-.1-.1-.2-.2-.4-.3-.2-.1-.3-.1-.5-.1s-.3 0-.5.1c-.1.1-.2.2-.2.4 0 .1.1.3.2.4.1.1.3.2.5.2.2.1.4.1.6.2.2.1.4.1.4.1 1.2.5 1.7 1.3 1.7 2.3 0 1-.3 1.7-.8 2.2-.5.5-1.2.8-2.2.8-1 0-1.7-.2-2.2-.7l-.3.5h-1.3l.1-2.7h1.6c.1.3.2.6.4.9.2.3.5.4.8.4.2 0 .4 0 .5-.1.2-.1.2-.2.2-.4s-.1-.3-.2-.4c-.1-.1-.3-.2-.5-.3-.2-.1-.4-.2-.7-.2-.3-.1-.5-.2-.8-.3-.3-.1-.5-.3-.7-.4-.2-.2-.4-.4-.5-.7-.1-.3-.2-.6-.2-1 0-.6.1-1 .4-1.4.3-.4.6-.7 1.1-.8.4-.2.9-.3 1.5-.3.4 0 .8 0 1.2.1.4.1.6.1.7.2.1 0 .2.1.2.1l.2-.3h1.2v2.3h-1.2z"/><path id="XMLID_3690_" class="st0" d="M110.2 581.7c.2-.3.4-.6.7-.7.3-.2.6-.3 1-.4.4-.1.8-.1 1.1-.1.7 0 1.3.1 1.8.3v-.3c0-.8-.5-1.2-1.5-1.2-.7 0-1.2.2-1.6.7h-1.3v-2.3l.5-.1c.3-.1.8-.2 1.4-.2.6-.1 1.1-.1 1.6-.1h.5c.2 0 .4 0 .7.1.3 0 .6.1.8.1.2.1.5.1.8.3.3.1.5.3.7.4.2.2.3.4.5.7.1.3.2.6.2.9v3.2h.5v2.2h-3.4l-.4-.9c-.2.3-.6.6-1 .7-.4.2-.8.3-1.2.3-.8 0-1.4-.2-2-.6-.5-.4-.8-1-.8-1.7.1-.7.2-1 .4-1.3zm3.4 1.4c.1.1.3.2.5.2s.3 0 .4-.1c.1-.1.2-.1.3-.1l.1-.1v-1.1h-.1c-.1 0-.2-.1-.3-.1h-.3c-.2 0-.4.1-.5.2-.1.2-.2.4-.2.6-.1.2 0 .3.1.5z"/><path id="XMLID_3688_" class="st0" d="M124.8 583.8c-.3.4-.6.7-1.1.9-.4.2-1 .3-1.5.3-1.6 0-2.4-1-2.4-2.9v-2.7h-.6v-2.2h4.1v4.6c0 .3.1.5.2.6.1.2.3.2.5.2s.4-.1.5-.2c.1-.2.2-.4.2-.6v-2.3h-.6v-2.2h4.1v5.5h.5v2.2h-4.1v-1.2z"/><path id="XMLID_3686_" class="st0" d="M135.4 584.6l-.3.1c-.2.1-.5.2-.8.2-.4.1-.7.1-1.1.1-1.8 0-2.8-1-2.7-2.9v-2.7h-.8v-2.2h.7v-1.7l3.5-.8v2.4h1.1v2.2h-1.1v2.3c0 .2.1.4.2.5.1.2.3.2.6.2.2 0 .5 0 .8-.1v2.4z"/><path id="XMLID_3683_" class="st0" d="M138 584.5c-.6-.4-1.1-.8-1.5-1.4-.4-.6-.5-1.2-.5-1.9 0-.8.2-1.5.5-2.1.3-.6.8-1.1 1.5-1.5.6-.4 1.4-.5 2.3-.5.8 0 1.5.2 2.2.5.6.4 1.1.8 1.4 1.4.3.6.5 1.2.5 1.9v.5c0 .1-.1.2-.1.2h-4.5c0 .5.1.9.3 1.2.2.3.5.5.9.5.3 0 .6-.1.8-.3.2-.2.2-.4.3-.7h2.2v1.6c-.6.4-1.3.7-1.9.8-.6.2-1.3.2-2.1.2-1 .1-1.7 0-2.3-.4zm1.5-4.1h1.6v-.4c0-.1 0-.3-.1-.4 0-.2-.1-.3-.2-.4-.1-.1-.3-.1-.4-.1-.3 0-.5.1-.6.4-.1.2-.2.5-.2.8v.1z"/><path id="XMLID_3680_" class="st0" d="M152.7 582.7h.6v2.2h-4.7v-2.2h.6v-3.3h-.6v-2.2h4.1v5.5zm-.5-6.5c.4-.3.6-.8.6-1.3s-.2-1-.6-1.3c-.4-.3-.9-.5-1.5-.5s-1.1.2-1.4.5c-.4.3-.6.7-.6 1.3 0 .6.2 1 .6 1.3.4.3.9.5 1.4.5.6 0 1.1-.1 1.5-.5z"/><path id="XMLID_3678_" class="st0" d="M154.5 577.2h3.9v1.2c.2-.4.6-.7 1-.9.4-.2.9-.3 1.4-.3v3h-.8c-.5 0-.9.2-1.2.5-.3.3-.5.8-.5 1.3v.9h1v2.2h-4.9v-2.2h.6v-3.3h-.6v-2.4z"/><path id="XMLID_3676_" class="st0" d="M167 583.8c-.3.4-.6.7-1.1.9-.4.2-1 .3-1.5.3-1.6 0-2.4-1-2.4-2.9v-2.7h-.6v-2.2h4.1v4.6c0 .3.1.5.2.6.1.2.3.2.5.2s.4-.1.5-.2c.1-.2.2-.4.2-.6v-2.3h-.6v-2.2h4.1v5.5h.5v2.2H167v-1.2z"/><path id="XMLID_3674_" class="st0" d="M172.3 577.2h3.9v1.2c.2-.4.6-.7 1-.9.4-.2.9-.3 1.4-.3v3h-.8c-.5 0-.9.2-1.2.5-.3.3-.5.8-.5 1.3v.9h1v2.2h-4.9v-2.2h.6v-3.3h-.6v-2.4z"/><path id="XMLID_3671_" class="st0" d="M181.1 584.5c-.6-.4-1.1-.8-1.5-1.4-.4-.6-.5-1.2-.5-1.9 0-.8.2-1.5.5-2.1.3-.6.8-1.1 1.5-1.5.6-.4 1.4-.5 2.3-.5.8 0 1.5.2 2.2.5.6.4 1.1.8 1.4 1.4.3.6.5 1.2.5 1.9v.5c0 .1-.1.2-.1.2h-4.5c0 .5.1.9.3 1.2.2.3.5.5.9.5.3 0 .6-.1.8-.3.2-.2.2-.4.3-.7h2.2v1.6c-.6.4-1.3.7-1.9.8-.6.2-1.3.2-2.1.2-.9.1-1.6 0-2.3-.4zm1.6-4.1h1.6v-.4c0-.1 0-.3-.1-.4 0-.2-.1-.3-.2-.4-.1-.1-.3-.1-.4-.1-.3 0-.5.1-.6.4-.1.2-.2.5-.2.8v.1z"/><path id="XMLID_3668_" class="st0" d="M201 584.9h-4.1v-.9c-.2.3-.6.6-.9.8s-.8.3-1.2.3c-.5 0-1-.1-1.5-.4-.4-.2-.8-.6-1.1-1-.3-.4-.5-.8-.6-1.3-.1-.5-.2-1-.2-1.5s.1-1 .2-1.4c.2-.5.4-.9.6-1.2.3-.4.6-.7 1-.9.4-.2.9-.3 1.4-.3.4 0 .8.1 1.2.2.3.1.7.4 1 .7v-2.7h-.7v-2.2h4.2v9.6h.6v2.2zm-4.1-4.9l-.1-.1c-.1-.1-.2-.2-.4-.2-.2-.1-.3-.1-.5-.1-.3 0-.6.1-.8.4-.2.2-.3.6-.3 1v.4c0 .1 0 .3.1.5 0 .2.1.3.2.4l.3.3c.1.1.3.1.5.1.1 0 .2 0 .3-.1.1 0 .2-.1.3-.2l.2-.2c.1-.1.1-.1.1-.2v-2z"/><path id="XMLID_3665_" class="st0" d="M201.9 581c0-1.3.4-2.2 1.2-2.9.8-.7 1.8-1 3.2-1 1.4 0 2.4.3 3.2 1 .8.7 1.2 1.6 1.2 2.9 0 .8-.2 1.6-.6 2.2-.4.6-.9 1.1-1.5 1.4-.7.3-1.4.5-2.3.5-.9 0-1.6-.2-2.3-.5-.7-.3-1.2-.8-1.5-1.4-.5-.7-.6-1.4-.6-2.2zm3.3 0c0 1.2.3 1.8 1 1.8s1-.6 1-1.8v-.6c0-.2-.1-.3-.1-.5-.1-.2-.2-.3-.3-.4-.1-.1-.3-.1-.5-.1s-.4 0-.5.1c-.1.1-.2.2-.3.4-.1.2-.1.4-.1.5-.2.1-.2.3-.2.6z"/><path id="XMLID_3663_" class="st0" d="M215.5 582.7h.6v2.2h-4.7v-2.2h.5v-7.3h-.6v-2.3h4.2v9.6z"/><path id="XMLID_3660_" class="st0" d="M216.9 581c0-1.3.4-2.2 1.2-2.9.8-.7 1.8-1 3.2-1 1.4 0 2.4.3 3.2 1 .8.7 1.2 1.6 1.2 2.9 0 .8-.2 1.6-.6 2.2-.4.6-.9 1.1-1.5 1.4-.7.3-1.4.5-2.3.5-.9 0-1.6-.2-2.3-.5-.7-.3-1.2-.8-1.5-1.4-.4-.7-.6-1.4-.6-2.2zm3.3 0c0 1.2.3 1.8 1 1.8s1-.6 1-1.8v-.6c0-.2-.1-.3-.1-.5-.1-.2-.2-.3-.3-.4-.1-.1-.3-.1-.5-.1s-.4 0-.5.1c-.1.1-.2.2-.3.4-.1.2-.1.4-.1.5-.1.1-.2.3-.2.6z"/><path id="XMLID_3658_" class="st0" d="M226.6 577.2h3.9v1.2c.2-.4.6-.7 1-.9.4-.2.9-.3 1.4-.3v3h-.8c-.5 0-.9.2-1.2.5-.3.3-.5.8-.5 1.3v.9h1v2.2h-4.9v-2.2h.6v-3.3h-.6v-2.4z"/><path id="XMLID_3655_" class="st0" d="M241.3 582.7h.6v2.2h-4.7v-2.2h.6v-3.3h-.6v-2.2h4.1v5.5zm-.5-6.5c.4-.3.6-.8.6-1.3s-.2-1-.6-1.3c-.4-.3-.9-.5-1.5-.5s-1.1.2-1.4.5c-.4.3-.6.7-.6 1.3 0 .6.2 1 .6 1.3.4.3.9.5 1.4.5.6 0 1.1-.1 1.5-.5z"/><path id="XMLID_3653_" class="st0" d="M247.2 578.3c.3-.4.6-.7 1.1-.9.4-.2 1-.3 1.5-.3 1.6 0 2.4 1 2.4 3v2.7h.6v2.2h-4.1v-4.5c0-.2-.1-.4-.2-.6-.1-.1-.3-.2-.5-.2s-.4.1-.5.2c-.1.2-.2.4-.2.6v2.3h.6v2.2h-4.7v-2.2h.6v-3.3h-.5v-2.2h4.1v1z"/><path id="XMLID_3651_" class="st0" d="M257.3 577.2h3.9v1.2c.2-.4.6-.7 1-.9.4-.2.9-.3 1.4-.3v3h-.8c-.5 0-.9.2-1.2.5-.3.3-.5.8-.5 1.3v.9h1v2.2h-4.9v-2.2h.6v-3.3h-.6v-2.4z"/><path id="XMLID_3648_" class="st0" d="M266.1 584.5c-.6-.4-1.1-.8-1.5-1.4-.4-.6-.5-1.2-.5-1.9 0-.8.2-1.5.5-2.1.3-.6.8-1.1 1.5-1.5.6-.4 1.4-.5 2.3-.5.8 0 1.5.2 2.2.5.6.4 1.1.8 1.4 1.4.3.6.5 1.2.5 1.9v.5c0 .1-.1.2-.1.2h-4.5c0 .5.1.9.3 1.2.2.3.5.5.9.5.3 0 .6-.1.8-.3.2-.2.2-.4.3-.7h2.2v1.6c-.6.4-1.3.7-1.9.8-.6.2-1.3.2-2.1.2-1 .1-1.7 0-2.3-.4zm1.6-4.1h1.6v-.4c0-.1 0-.3-.1-.4 0-.2-.1-.3-.2-.4-.1-.1-.3-.1-.4-.1-.3 0-.5.1-.6.4-.1.2-.2.5-.2.8v.1z"/><path id="XMLID_3645_" class="st0" d="M273.1 587.8v-2.2h.6v-6.2h-.5v-2.2h4.1v.8h.1c.3-.3.6-.6.9-.8.3-.2.7-.2 1.2-.2s1 .1 1.4.3c.4.2.8.5 1 .9.3.4.5.8.6 1.3.1.5.2 1 .2 1.5s-.1 1-.2 1.5-.3.9-.6 1.3-.6.7-1 .9c-.4.2-.9.3-1.4.3-.2 0-.5 0-.7-.1-.2-.1-.4-.1-.6-.3-.2-.1-.4-.2-.5-.3-.1-.1-.2-.2-.4-.3v1.5h.8v2.2h-5zm4.1-5.8c0 .1 0 .1.1.2 0 .1.1.2.2.2.1.1.2.1.3.2.1.1.3.1.4.1.2 0 .4-.1.6-.2.2-.1.3-.2.4-.4.1-.2.1-.4.2-.5 0-.2.1-.4.1-.6 0-.9-.4-1.4-1.2-1.4-.1 0-.3 0-.4.1-.1 0-.2.1-.3.2l-.2.2c0 .1-.1.1-.1.2v.1l-.1 1.6z"/><path id="XMLID_3643_" class="st0" d="M283.7 577.2h3.9v1.2c.2-.4.6-.7 1-.9.4-.2.9-.3 1.4-.3v3h-.8c-.5 0-.9.2-1.2.5-.3.3-.5.8-.5 1.3v.9h1v2.2h-4.9v-2.2h.6v-3.3h-.6v-2.4z"/><path id="XMLID_3640_" class="st0" d="M292.5 584.5c-.6-.4-1.1-.8-1.5-1.4-.4-.6-.5-1.2-.5-1.9 0-.8.2-1.5.5-2.1.3-.6.8-1.1 1.5-1.5.6-.4 1.4-.5 2.3-.5.8 0 1.5.2 2.2.5.6.4 1.1.8 1.4 1.4.3.6.5 1.2.5 1.9v.5c0 .1-.1.2-.1.2h-4.5c0 .5.1.9.3 1.2.2.3.5.5.9.5.3 0 .6-.1.8-.3.2-.2.2-.4.3-.7h2.2v1.6c-.6.4-1.3.7-1.9.8-.6.2-1.3.2-2.1.2-.9.1-1.6 0-2.3-.4zm1.6-4.1h1.6v-.4c0-.1 0-.3-.1-.4 0-.2-.1-.3-.2-.4-.1-.1-.3-.1-.4-.1-.3 0-.5.1-.6.4-.1.2-.2.5-.2.8v.1z"/><path id="XMLID_3638_" class="st0" d="M299.6 582.7h.6v-7.4h-.6v-2.2h4.1v5.2c.1-.1.2-.2.2-.3l.2-.2c.1-.1.2-.2.3-.2.1 0 .2-.1.3-.2.1-.1.3-.1.4-.2.1 0 .2-.1.4-.1h.5c.8 0 1.5.2 1.9.7.5.5.7 1.2.7 2.1v2.9h.6v2.2H305v-4.5c0-.6-.2-.9-.6-.9-.5 0-.7.3-.7.8v2.3h.6v2.2h-4.7v-2.2z"/><path id="XMLID_3635_" class="st0" d="M311.8 584.5c-.6-.4-1.1-.8-1.5-1.4-.4-.6-.5-1.2-.5-1.9 0-.8.2-1.5.5-2.1.3-.6.8-1.1 1.5-1.5.6-.4 1.4-.5 2.3-.5.8 0 1.5.2 2.2.5.6.4 1.1.8 1.4 1.4.3.6.5 1.2.5 1.9v.5c0 .1-.1.2-.1.2h-4.5c0 .5.1.9.3 1.2.2.3.5.5.9.5.3 0 .6-.1.8-.3.2-.2.2-.4.3-.7h2.2v1.6c-.6.4-1.3.7-1.9.8-.6.2-1.3.2-2.1.2-.9.1-1.6 0-2.3-.4zm1.6-4.1h1.6v-.4c0-.1 0-.3-.1-.4 0-.2-.1-.3-.2-.4-.1-.1-.3-.1-.4-.1-.3 0-.5.1-.6.4-.1.2-.2.5-.2.8v.1z"/><path id="XMLID_3633_" class="st0" d="M323.1 578.3c.3-.4.6-.7 1.1-.9.4-.2 1-.3 1.5-.3 1.6 0 2.4 1 2.4 3v2.7h.6v2.2h-4.1v-4.5c0-.2-.1-.4-.2-.6-.1-.1-.3-.2-.5-.2s-.4.1-.5.2c-.1.2-.2.4-.2.6v2.3h.6v2.2H319v-2.2h.6v-3.3h-.6v-2.2h4.1v1z"/><path id="XMLID_3630_" class="st0" d="M339 584.9h-4.1v-.9c-.2.3-.6.6-.9.8-.4.2-.8.3-1.2.3-.5 0-1-.1-1.5-.4-.4-.2-.8-.6-1.1-1-.3-.4-.5-.8-.6-1.3-.1-.5-.2-1-.2-1.5s.1-1 .2-1.4c.2-.5.4-.9.6-1.2.3-.4.6-.7 1-.9.4-.2.9-.3 1.4-.3.4 0 .8.1 1.2.2.3.1.7.4 1 .7v-2.7h-.7v-2.2h4.2v9.6h.6v2.2zm-4.1-4.9l-.1-.1c-.1-.1-.2-.2-.4-.2-.2-.1-.3-.1-.5-.1-.3 0-.6.1-.8.4-.2.2-.3.6-.3 1v.4c0 .1 0 .3.1.5 0 .2.1.3.2.4l.3.3c.1.1.3.1.5.1.1 0 .2 0 .4-.1.1 0 .2-.1.3-.2l.2-.2c.1-.1.1-.1.1-.2v-2z"/><path id="XMLID_3627_" class="st0" d="M341.8 584.5c-.6-.4-1.1-.8-1.5-1.4-.4-.6-.5-1.2-.5-1.9 0-.8.2-1.5.5-2.1.3-.6.8-1.1 1.5-1.5.6-.4 1.4-.5 2.3-.5.8 0 1.5.2 2.2.5.6.4 1.1.8 1.4 1.4.3.6.5 1.2.5 1.9v.5c0 .1-.1.2-.1.2h-4.5c0 .5.1.9.3 1.2.2.3.5.5.9.5.3 0 .6-.1.8-.3.2-.2.2-.4.3-.7h2.2v1.6c-.6.4-1.3.7-1.9.8-.6.2-1.3.2-2.1.2-1 .1-1.7 0-2.3-.4zm1.5-4.1h1.6v-.4c0-.1 0-.3-.1-.4 0-.2-.1-.3-.2-.4-.1-.1-.3-.1-.4-.1-.3 0-.5.1-.6.4-.1.2-.2.5-.2.8v.1z"/><path id="XMLID_3625_" class="st0" d="M349 577.2h3.9v1.2c.2-.4.6-.7 1-.9.4-.2.9-.3 1.4-.3v3h-.8c-.5 0-.9.2-1.2.5-.3.3-.5.8-.5 1.3v.9h1v2.2H349v-2.2h.6v-3.3h-.6v-2.4z"/><path id="XMLID_3622_" class="st0" d="M360.3 582.7h.6v2.2h-4.7v-2.2h.6v-3.3h-.6v-2.2h4.1v5.5zm-.6-6.5c.4-.3.6-.8.6-1.3s-.2-1-.6-1.3c-.4-.3-.9-.5-1.5-.5s-1.1.2-1.4.5c-.4.3-.6.7-.6 1.3 0 .6.2 1 .6 1.3.4.3.9.5 1.4.5.7 0 1.1-.1 1.5-.5z"/><path id="XMLID_3620_" class="st0" d="M367.3 584.6l-.3.1c-.2.1-.5.2-.8.2-.4.1-.8.1-1.1.1-1.8 0-2.8-1-2.7-2.9v-2.7h-.8v-2.2h.7v-1.7l3.5-.8v2.4h1.1v2.2h-1.1v2.3c0 .2 0 .4.2.5.1.2.3.2.6.2.2 0 .5 0 .8-.1v2.4z"/><path id="XMLID_3618_" class="st0" d="M380.5 577.2v2.2c-.3 0-.5 0-.7.1-.1.1-.3.2-.3.4l-2.1 4.9H374l-2.3-5.5h-.5v-2.2h4.6v2.2h-.7l1.2 3.1.9-2.5c.1-.2 0-.4-.1-.4-.1-.1-.3-.1-.6-.1v-2.2h4z"/><path id="XMLID_3615_" class="st0" d="M380.8 581c0-1.3.4-2.2 1.2-2.9.8-.7 1.8-1 3.2-1 1.4 0 2.4.3 3.2 1 .8.7 1.2 1.6 1.2 2.9 0 .8-.2 1.6-.6 2.2-.4.6-.9 1.1-1.5 1.4-.7.3-1.4.5-2.3.5-.9 0-1.6-.2-2.3-.5-.7-.3-1.2-.8-1.5-1.4-.4-.7-.6-1.4-.6-2.2zm3.4 0c0 1.2.3 1.8 1 1.8s1-.6 1-1.8v-.6c0-.2-.1-.3-.1-.5-.1-.2-.2-.3-.3-.4-.1-.1-.3-.1-.5-.1s-.4 0-.5.1c-.1.1-.2.2-.3.4-.1.2-.1.4-.1.5-.2.1-.2.3-.2.6z"/><path id="XMLID_3613_" class="st0" d="M394.5 582.7h.6v2.2h-4.7v-2.2h.5v-7.3h-.6v-2.3h4.2v9.6z"/><path id="XMLID_3611_" class="st0" d="M401.5 583.8c-.3.4-.6.7-1.1.9-.4.2-1 .3-1.5.3-1.6 0-2.4-1-2.4-2.9v-2.7h-.5v-2.2h4.1v4.6c0 .3.1.5.2.6.1.2.3.2.5.2s.4-.1.5-.2c.1-.2.2-.4.2-.6v-2.3h-.6v-2.2h4.1v5.5h.5v2.2h-4.1v-1.2z"/><path id="XMLID_3608_" class="st0" d="M406.5 587.8v-2.2h.6v-6.2h-.5v-2.2h4.1v.8h.1c.3-.3.6-.6.9-.8.3-.2.7-.2 1.2-.2s1 .1 1.4.3c.4.2.8.5 1 .9.3.4.5.8.6 1.3.1.5.2 1 .2 1.5s-.1 1-.2 1.5-.3.9-.6 1.3-.6.7-1 .9c-.4.2-.9.3-1.4.3-.2 0-.5 0-.7-.1-.2-.1-.4-.1-.6-.3-.2-.1-.4-.2-.5-.3-.1-.1-.2-.2-.4-.3v1.5h.8v2.2h-5zm4.1-5.8c0 .1 0 .1.1.2 0 .1.1.2.2.2.1.1.2.1.3.2.1.1.3.1.4.1.2 0 .4-.1.6-.2.2-.1.3-.2.4-.4.1-.2.1-.4.2-.5 0-.2.1-.4.1-.6 0-.9-.4-1.4-1.2-1.4-.1 0-.3 0-.4.1-.1 0-.2.1-.3.2l-.2.2c0 .1-.1.1-.1.2v.1l-.1 1.6z"/><path id="XMLID_3606_" class="st0" d="M422.5 584.6l-.3.1c-.2.1-.5.2-.8.2-.4.1-.8.1-1.1.1-1.8 0-2.8-1-2.7-2.9v-2.7h-.8v-2.2h.7v-1.7l3.5-.8v2.4h1.1v2.2H421v2.3c0 .2 0 .4.2.5.1.2.3.2.6.2.2 0 .5 0 .8-.1v2.4z"/><path id="XMLID_3603_" class="st0" d="M423.2 581.7c.2-.3.4-.6.7-.7.3-.2.6-.3 1-.4.4-.1.8-.1 1.2-.1.7 0 1.3.1 1.8.3v-.3c0-.8-.5-1.2-1.5-1.2-.7 0-1.2.2-1.5.7h-1.3v-2.3l.5-.1c.3-.1.8-.2 1.4-.2.6-.1 1.1-.1 1.6-.1h.5c.2 0 .4 0 .7.1.3 0 .6.1.8.1.2.1.5.1.8.3.3.1.5.3.7.4.2.2.3.4.5.7.1.3.2.6.2.9v3.2h.5v2.2h-3.4l-.4-1.2c-.2.3-.6.6-1 .7-.4.2-.8.3-1.2.3-.8 0-1.4-.2-2-.6-.5-.4-.8-1-.8-1.7-.1-.4 0-.7.2-1zm3.5 1.4c.1.1.3.2.5.2s.3 0 .4-.1c.1-.1.2-.1.3-.1l.1-.1v-1.1h-.1c-.1 0-.2-.1-.3-.1h-.3c-.2 0-.4.1-.5.2-.1.2-.2.4-.2.6-.1.2-.1.3.1.5z"/><path id="XMLID_3601_" class="st0" d="M438 584.6l-.3.1c-.2.1-.5.2-.8.2-.4.1-.8.1-1.1.1-1.8 0-2.8-1-2.7-2.9v-2.7h-.8v-2.2h.7v-1.7l3.5-.8v2.4h1.1v2.2h-1.1v2.3c0 .2 0 .4.2.5.1.2.3.2.6.2.2 0 .5 0 .8-.1v2.4z"/><path id="XMLID_3598_" class="st0" d="M440.6 584.5c-.6-.4-1.1-.8-1.5-1.4-.4-.6-.5-1.2-.5-1.9 0-.8.2-1.5.5-2.1.3-.6.8-1.1 1.5-1.5.6-.4 1.4-.5 2.3-.5.8 0 1.5.2 2.2.5.6.4 1.1.8 1.4 1.4.3.6.5 1.2.5 1.9v.5c0 .1-.1.2-.1.2h-4.5c0 .5.1.9.3 1.2.2.3.5.5.9.5.3 0 .6-.1.8-.3.2-.2.2-.4.3-.7h2.2v1.6c-.6.4-1.3.7-1.9.8-.6.2-1.3.2-2.1.2-1 .1-1.7 0-2.3-.4zm1.5-4.1h1.6v-.4c0-.1 0-.3-.1-.4 0-.2-.1-.3-.2-.4-.1-.1-.3-.1-.4-.1-.3 0-.5.1-.6.4-.1.2-.2.5-.2.8v.1z"/><path id="XMLID_3596_" class="st0" d="M78 594.9v2.2c-.3 0-.5 0-.7.1-.1.1-.3.2-.3.4l-2.1 4.9h-3.4l-2.3-5.5h-.5v-2.2h4.6v2.2h-.7l1.2 3.1.9-2.5c.1-.2 0-.4-.1-.4-.1-.1-.3-.1-.6-.1v-2.2h4z"/><path id="XMLID_3593_" class="st0" d="M80.3 602.2c-.6-.4-1.1-.8-1.5-1.4-.4-.6-.5-1.2-.5-1.9 0-.8.2-1.5.5-2.1.3-.6.8-1.1 1.5-1.5.6-.4 1.4-.5 2.3-.5.8 0 1.5.2 2.2.5.6.4 1.1.8 1.4 1.4.3.6.5 1.2.5 1.9v.5c0 .1-.1.2-.1.2h-4.5c0 .5.1.9.3 1.2.2.3.5.5.9.5.3 0 .6-.1.8-.3.2-.2.2-.4.3-.7h2.2v1.6c-.6.4-1.3.7-1.9.8-.6.2-1.3.2-2.1.2-.9.2-1.7 0-2.3-.4zm1.6-4.1h1.6v-.4c0-.1 0-.3-.1-.4 0-.2-.1-.3-.2-.4-.1-.1-.3-.1-.4-.1-.3 0-.5.1-.6.4-.1.2-.2.5-.2.8v.1z"/><path id="XMLID_3591_" class="st0" d="M91.5 600.4h.6v2.2h-4.7v-2.2h.5v-7.3h-.6v-2.3h4.2v9.6z"/><path id="XMLID_3588_" class="st0" d="M97.4 600.4h.6v2.2h-4.7v-2.2h.6v-3.3h-.6v-2.2h4.1v5.5zm-.6-6.4c.4-.3.6-.8.6-1.3s-.2-1-.6-1.3c-.4-.3-.9-.5-1.5-.5s-1.1.2-1.4.5c-.4.3-.6.7-.6 1.3 0 .6.2 1 .6 1.3.4.3.9.5 1.4.5.6 0 1.1-.2 1.5-.5z"/><path id="XMLID_3586_" class="st0" d="M104.4 602.3l-.3.1c-.2.1-.5.2-.8.2-.4.1-.7.1-1.1.1-1.8 0-2.8-1-2.7-2.9v-2.7h-.8v-2.2h.7v-1.7l3.5-.8v2.4h1.1v2.2h-1.1v2.3c0 .2.1.4.2.5.1.2.3.2.6.2.2 0 .5 0 .8-.1v2.4z"/><path id="XMLID_3583_" class="st0" d="M110.4 602.2c-.6-.4-1.1-.8-1.5-1.4-.4-.6-.5-1.2-.5-1.9 0-.8.2-1.5.5-2.1.3-.6.8-1.1 1.5-1.5.6-.4 1.4-.5 2.3-.5.8 0 1.5.2 2.2.5.6.4 1.1.8 1.4 1.4.3.6.5 1.2.5 1.9v.5c0 .1-.1.2-.1.2H112c0 .5.1.9.3 1.2.2.3.5.5.9.5.3 0 .6-.1.8-.3.2-.2.2-.4.3-.7h2.2v1.6c-.6.4-1.3.7-1.9.8-.6.2-1.3.2-2.1.2-.8.2-1.5 0-2.1-.4zm1.6-4.1h1.6v-.4c0-.1 0-.3-.1-.4 0-.2-.1-.3-.2-.4-.1-.1-.3-.1-.4-.1-.3 0-.5.1-.6.4-.1.2-.2.5-.2.8v.1z"/><path id="XMLID_3581_" class="st0" d="M122.5 597.2l-.1-.2c0-.1-.1-.2-.1-.3-.1-.1-.1-.2-.1-.2-.1-.1-.2-.2-.4-.3-.2-.1-.3-.1-.5-.1s-.3 0-.5.1c-.1.1-.2.2-.2.4 0 .1.1.3.2.4.1.1.3.2.5.2.2.1.4.1.6.2.2.1.4.1.4.1 1.2.5 1.7 1.3 1.7 2.3 0 1-.3 1.7-.8 2.2-.5.5-1.2.8-2.2.8-1 0-1.7-.2-2.2-.7l-.3.5h-1.3l.1-2.7h1.6c.1.3.2.6.4.9.2.3.5.4.8.4.2 0 .4 0 .5-.1.2-.1.2-.2.2-.4s-.1-.3-.2-.4c-.1-.1-.3-.2-.5-.3-.2-.1-.4-.2-.7-.2-.3-.1-.5-.2-.8-.3-.3-.1-.5-.3-.7-.4-.2-.2-.4-.4-.5-.7-.1-.3-.2-.6-.2-1 0-.6.1-1 .4-1.4.3-.4.6-.7 1.1-.8.4-.2.9-.3 1.5-.3.4 0 .8 0 1.2.1.4.1.6.1.7.2.1 0 .2.1.2.1l.2-.3h1.2v2.3h-1.2z"/><path id="XMLID_3579_" class="st0" d="M130.1 597.2l-.1-.2c0-.1-.1-.2-.1-.3-.1-.1-.1-.2-.1-.2-.1-.1-.2-.2-.4-.3-.2-.1-.3-.1-.5-.1s-.3 0-.5.1c-.1.1-.2.2-.2.4 0 .1.1.3.2.4.1.1.3.2.5.2.2.1.4.1.6.2.2.1.4.1.4.1 1.2.5 1.7 1.3 1.7 2.3 0 1-.3 1.7-.8 2.2-.5.5-1.2.8-2.2.8-1 0-1.7-.2-2.2-.7l-.3.5H125l.1-2.7h1.6c.1.3.2.6.4.9.2.3.5.4.8.4.2 0 .4 0 .5-.1.2-.1.2-.2.2-.4s-.1-.3-.2-.4c-.1-.1-.3-.2-.5-.3-.2-.1-.4-.2-.7-.2-.3-.1-.5-.2-.8-.3-.3-.1-.5-.3-.7-.4-.2-.2-.4-.4-.5-.7-.1-.3-.2-.6-.2-1 0-.6.1-1 .4-1.4.3-.4.6-.7 1.1-.8.4-.2.9-.3 1.5-.3.4 0 .8 0 1.2.1.4.1.6.1.7.2.1 0 .2.1.2.1l.2-.3h1.2v2.3h-1.4z"/><path id="XMLID_3576_" class="st0" d="M134.4 602.2c-.6-.4-1.1-.8-1.5-1.4-.4-.6-.5-1.2-.5-1.9 0-.8.2-1.5.5-2.1.3-.6.8-1.1 1.5-1.5.6-.4 1.4-.5 2.3-.5.8 0 1.5.2 2.2.5.6.4 1.1.8 1.4 1.4.3.6.5 1.2.5 1.9v.5c0 .1-.1.2-.1.2H136c0 .5.1.9.3 1.2.2.3.5.5.9.5.3 0 .6-.1.8-.3.2-.2.2-.4.3-.7h2.2v1.6c-.6.4-1.3.7-1.9.8-.6.2-1.3.2-2.1.2-.7.2-1.4 0-2.1-.4zm1.6-4.1h1.6v-.4c0-.1 0-.3-.1-.4 0-.2-.1-.3-.2-.4-.1-.1-.3-.1-.4-.1-.3 0-.5.1-.6.4-.1.2-.2.5-.2.8v.1z"/><path id="XMLID_3574_" class="st0" d="M145 597.2c.2-.5.4-.9.7-1.3.3-.4.7-.6 1.2-.9.5-.2 1-.3 1.6-.3.7 0 1.3.2 1.9.7l.3-.6h1.3v3.2h-1.7c0-.3-.1-.6-.3-.8-.2-.2-.4-.3-.6-.3-.3 0-.6.2-.8.5-.2.3-.3.8-.3 1.4 0 .2 0 .4.1.5 0 .2.1.3.2.5s.2.3.4.4c.2.1.3.1.5.1s.3 0 .4-.1c.1-.1.2-.1.3-.2.1-.1.1-.2.2-.3 0-.1.1-.2.1-.2v-.1h1.7v2.2c-.3.3-.8.6-1.4.8-.6.2-1.2.3-1.8.3-.8 0-1.4-.2-2-.5-.6-.3-1.1-.8-1.4-1.4-.4-.6-.5-1.4-.5-2.2-.3-.4-.2-.9-.1-1.4z"/><path id="XMLID_3571_" class="st0" d="M157.2 600.4h.6v2.2h-4.7v-2.2h.6v-3.3h-.6v-2.2h4.1v5.5zm-.5-6.4c.4-.3.6-.8.6-1.3s-.2-1-.6-1.3c-.4-.3-.9-.5-1.5-.5s-1.1.2-1.4.5c-.4.3-.6.7-.6 1.3 0 .6.2 1 .6 1.3.4.3.9.5 1.4.5.6 0 1.1-.2 1.5-.5z"/><path id="XMLID_3569_" class="st0" d="M163 600.4h.6v2.2h-4.7v-2.2h.5v-7.3h-.6v-2.3h4.2v9.6z"/><path id="XMLID_3567_" class="st0" d="M168.7 600.4h.6v2.2h-4.7v-2.2h.5v-7.3h-.6v-2.3h4.2v9.6z"/><path id="XMLID_3565_" class="st0" d="M175.7 601.5c-.3.4-.6.7-1.1.9-.4.2-1 .3-1.5.3-1.6 0-2.4-1-2.4-2.9v-2.7h-.6v-2.2h4.1v4.6c0 .3.1.5.2.6.1.2.3.2.5.2s.4-.1.5-.2c.1-.2.2-.4.2-.6v-2.3h-.6V595h4.1v5.5h.5v2.2h-4.1v-1.2z"/><path id="XMLID_3563_" class="st0" d="M186.4 602.6V598c0-.5-.3-.7-.8-.7-.2 0-.3 0-.4.1s-.2.2-.2.4c-.1.1-.1.3-.1.5v2.1h.6v2.2h-4.3v-2.2h.5v-3.3h-.7v-2.2h3.7v1.2l.6-.6c.2-.2.4-.3.7-.4.2-.1.5-.2.7-.3.2-.1.5-.1.7-.1.4 0 .8.1 1.1.4.3.2.6.6.8 1.1.6-1 1.5-1.5 2.5-1.5.3 0 .7 0 1 .1.3.1.6.2.8.5.2.2.4.5.6.8.1.3.2.7.2 1.2v3.1h.5v2.2h-3.8V598c0-.2-.1-.4-.2-.6-.1-.1-.3-.2-.5-.2s-.3 0-.4.1c-.1.1-.2.1-.3.3-.1.1-.1.2-.2.4 0 .1-.1.3-.1.5v2h.6v2.2h-3.6z"/><path id="XMLID_3560_" class="st0" d="M208.7 602.6h-4.1v-.9c-.2.3-.6.6-.9.8s-.8.3-1.2.3c-.5 0-1-.1-1.5-.4-.4-.2-.8-.6-1.1-1-.3-.4-.5-.8-.6-1.3-.1-.5-.2-1-.2-1.5s.1-1 .2-1.4c.2-.5.4-.9.6-1.2.3-.4.6-.7 1-.9.4-.2.9-.3 1.4-.3.4 0 .8.1 1.2.2.3.1.7.4 1 .7V593h-.7v-2.2h4.2v9.6h.6v2.2zm-4.1-4.9l-.1-.1c-.1-.1-.2-.2-.4-.2-.2-.1-.3-.1-.5-.1-.3 0-.6.1-.8.4-.2.2-.3.6-.3 1v.4c0 .1 0 .3.1.5 0 .2.1.3.2.4l.3.3c.1.1.3.1.5.1.1 0 .2 0 .3-.1.1 0 .2-.1.3-.2l.2-.2c.1-.1.1-.1.1-.2v-2z"/><path id="XMLID_3557_" class="st0" d="M209.5 598.7c0-1.3.4-2.2 1.2-2.9.8-.7 1.8-1 3.2-1 1.4 0 2.4.3 3.2 1 .8.7 1.2 1.6 1.2 2.9 0 .8-.2 1.6-.6 2.2-.4.6-.9 1.1-1.5 1.4-.7.3-1.4.5-2.3.5-.9 0-1.6-.2-2.3-.5-.7-.3-1.2-.8-1.5-1.4-.4-.6-.6-1.4-.6-2.2zm3.4 0c0 1.2.3 1.8 1 1.8s1-.6 1-1.8v-.6c0-.2-.1-.3-.1-.5-.1-.2-.2-.3-.3-.4-.1-.1-.3-.1-.5-.1s-.4 0-.5.1c-.1.1-.2.2-.3.4-.1.2-.1.4-.1.5-.2.2-.2.4-.2.6z"/><path id="XMLID_3555_" class="st0" d="M223.1 600.4h.6v2.2H219v-2.2h.5v-7.3h-.5v-2.3h4.2v9.6z"/><path id="XMLID_3552_" class="st0" d="M224.5 598.7c0-1.3.4-2.2 1.2-2.9.8-.7 1.8-1 3.2-1 1.4 0 2.4.3 3.2 1 .8.7 1.2 1.6 1.2 2.9 0 .8-.2 1.6-.6 2.2-.4.6-.9 1.1-1.5 1.4-.7.3-1.4.5-2.3.5-.9 0-1.6-.2-2.3-.5-.7-.3-1.2-.8-1.5-1.4-.4-.6-.6-1.4-.6-2.2zm3.4 0c0 1.2.3 1.8 1 1.8s1-.6 1-1.8v-.6c0-.2-.1-.3-.1-.5-.1-.2-.2-.3-.3-.4-.1-.1-.3-.1-.5-.1s-.4 0-.5.1c-.1.1-.2.2-.3.4-.1.2-.1.4-.1.5-.2.2-.2.4-.2.6z"/><path id="XMLID_3550_" class="st0" d="M234.2 594.9h3.9v1.2c.2-.4.6-.7 1-.9.4-.2.9-.3 1.4-.3v3h-.8c-.5 0-.9.2-1.2.5-.3.3-.5.8-.5 1.3v.9h1v2.2h-4.9v-2.2h.6v-3.3h-.6v-2.4z"/><path id="XMLID_3547_" class="st0" d="M243 602.2c-.6-.4-1.1-.8-1.5-1.4-.4-.6-.5-1.2-.5-1.9 0-.8.2-1.5.5-2.1.3-.6.8-1.1 1.5-1.5.6-.4 1.4-.5 2.3-.5.8 0 1.5.2 2.2.5.6.4 1.1.8 1.4 1.4.3.6.5 1.2.5 1.9v.5c0 .1-.1.2-.1.2h-4.5c0 .5.1.9.3 1.2.2.3.5.5.9.5.3 0 .6-.1.8-.3.2-.2.2-.4.3-.7h2.2v1.6c-.6.4-1.3.7-1.9.8-.6.2-1.3.2-2.1.2-.9.2-1.6 0-2.3-.4zm1.6-4.1h1.6v-.4c0-.1 0-.3-.1-.4 0-.2-.1-.3-.2-.4-.1-.1-.3-.1-.4-.1-.3 0-.5.1-.6.4-.1.2-.2.5-.2.8v.1z"/><path id="XMLID_3544_" class="st0" d="M255.3 602.2c-.6-.4-1.1-.8-1.5-1.4-.4-.6-.5-1.2-.5-1.9 0-.8.2-1.5.5-2.1.3-.6.8-1.1 1.5-1.5.6-.4 1.4-.5 2.3-.5.8 0 1.5.2 2.2.5.6.4 1.1.8 1.4 1.4.3.6.5 1.2.5 1.9v.5c0 .1-.1.2-.1.2h-4.5c0 .5.1.9.3 1.2.2.3.5.5.9.5.3 0 .6-.1.8-.3.2-.2.2-.4.3-.7h2.2v1.6c-.6.4-1.3.7-1.9.8-.6.2-1.3.2-2.1.2-.9.2-1.6 0-2.3-.4zm1.6-4.1h1.6v-.4c0-.1 0-.3-.1-.4 0-.2-.1-.3-.2-.4-.1-.1-.3-.1-.4-.1-.3 0-.5.1-.6.4-.1.2-.2.5-.2.8v.1z"/><path id="XMLID_3542_" class="st0" d="M267.8 601.5c-.3.4-.6.7-1.1.9-.4.2-1 .3-1.5.3-1.6 0-2.4-1-2.4-2.9v-2.7h-.6v-2.2h4.1v4.6c0 .3.1.5.2.6.1.2.3.2.5.2s.4-.1.5-.2c.1-.2.2-.4.2-.6v-2.3h-.6V595h4.1v5.5h.5v2.2h-4.1v-1.2z"/><path id="XMLID_3540_" class="st0" d="M279.9 591c.4 0 .8 0 1.2.1.4.1.6.1.8.2.1 0 .2.1.3.1v2.2c-.3-.1-.5-.1-.7-.1-.3 0-.5.1-.6.3-.1.2-.2.6-.1 1.1h1.3v2.2h-1.2v3.3h.8v2.2h-4.9v-2.2h.6v-3.3h-.6v-2.2h.6v-1c-.2-1.9.7-2.9 2.5-2.9z"/><path id="XMLID_3538_" class="st0" d="M288.1 601.5c-.3.4-.6.7-1.1.9-.4.2-1 .3-1.5.3-1.6 0-2.4-1-2.4-2.9v-2.7h-.6v-2.2h4.1v4.6c0 .3.1.5.2.6.1.2.3.2.5.2s.4-.1.5-.2c.1-.2.2-.4.2-.6v-2.3h-.6V595h4.1v5.5h.5v2.2h-4.1v-1.2z"/><path id="XMLID_3535_" class="st0" d="M295.2 605.3c-.5-.1-.8-.1-.9-.2-.1 0-.2-.1-.3-.1v-2.2c.9.3 1.8.5 2.6.5.3 0 .6 0 .8-.1.2 0 .4-.1.6-.2.2-.1.3-.3.4-.5.1-.2.1-.4.1-.8-.3.2-.6.4-1 .5-.4.1-.7.2-1.1.2-.5 0-1-.1-1.5-.3-.4-.2-.8-.5-1.1-.8-.3-.3-.5-.7-.7-1.2-.1-.4-.2-.9-.2-1.4 0-.7.1-1.3.4-1.9.3-.6.7-1.1 1.3-1.5.5-.4 1.2-.6 1.8-.6.7 0 1.5.2 2.3.7l.2-.5h3.3v2.2h-.6v4.5c0 2.5-1.7 3.8-5 3.8-.4 0-.9 0-1.4-.1zm1.4-5.7l.3.6c.2.2.4.3.6.3.2 0 .3-.1.4-.2.1-.1.2-.2.3-.4.1-.2.1-.3.2-.5 0-.2.1-.4.1-.5 0-.3 0-.5-.1-.8-.1-.2-.2-.5-.3-.7-.2-.2-.4-.3-.6-.3-.2 0-.4.1-.6.3-.2.2-.3.4-.3.6-.1.2-.1.5-.1.8 0 .3 0 .6.1.8z"/><path id="XMLID_3532_" class="st0" d="M307.7 600.4h.6v2.2h-4.7v-2.2h.6v-3.3h-.6v-2.2h4.1v5.5zm-.6-6.4c.4-.3.6-.8.6-1.3s-.2-1-.6-1.3c-.4-.3-.9-.5-1.5-.5s-1.1.2-1.4.5c-.4.3-.6.7-.6 1.3 0 .6.2 1 .6 1.3.4.3.9.5 1.4.5.6 0 1.1-.2 1.5-.5z"/><path id="XMLID_3529_" class="st0" d="M309.3 599.4c.2-.3.4-.6.7-.7s.6-.3 1-.4c.4-.1.8-.1 1.2-.1.7 0 1.3.1 1.8.3v-.5c0-.8-.5-1.2-1.5-1.2-.7 0-1.2.2-1.5.7h-1.3v-2.3l.5-.1c.3-.1.8-.2 1.4-.2.6-.1 1.1-.1 1.6-.1h.5c.2 0 .4 0 .7.1.3 0 .6.1.8.1.2.1.5.1.8.3.3.1.5.3.7.4.2.2.3.4.5.7.1.3.2.6.2.9v3.2h.5v2.2h-3.4l-.4-.9c-.2.3-.6.6-1 .7-.4.2-.8.3-1.2.3-.8 0-1.4-.2-2-.6-.5-.4-.8-1-.8-1.7-.1-.5 0-.8.2-1.1zm3.4 1.4c.1.1.3.2.5.2s.3 0 .4-.1c.1-.1.2-.1.3-.1l.1-.1v-1.1h-.1c-.1 0-.2-.1-.3-.1h-.3c-.2 0-.4.1-.5.2-.1.2-.2.4-.2.6-.1.2 0 .4.1.5z"/><path id="XMLID_3527_" class="st0" d="M324 602.3l-.3.1c-.2.1-.5.2-.8.2-.4.1-.8.1-1.1.1-1.8 0-2.8-1-2.7-2.9v-2.7h-.8v-2.2h.7v-1.7l3.5-.8v2.4h1.1v2.2h-1.1v2.3c0 .2 0 .4.2.5.1.2.3.2.6.2.2 0 .5 0 .8-.1v2.4z"/><path id="XMLID_3525_" class="st0" d="M332.5 596c.3-.4.6-.7 1.1-.9.4-.2 1-.3 1.5-.3 1.6 0 2.4 1 2.4 3v2.7h.6v2.2H334v-4.5c0-.2-.1-.4-.2-.6-.1-.1-.3-.2-.5-.2s-.4.1-.5.2c-.1.2-.2.4-.2.6v2.3h.6v2.2h-4.7v-2.2h.6v-3.3h-.6V595h4.1v1z"/><path id="XMLID_3523_" class="st0" d="M344.4 601.5c-.3.4-.6.7-1.1.9-.4.2-1 .3-1.5.3-1.6 0-2.4-1-2.4-2.9v-2.7h-.6v-2.2h4.1v4.6c0 .3.1.5.2.6.1.2.3.2.5.2s.4-.1.5-.2c.1-.2.2-.4.2-.6v-2.3h-.6V595h4.1v5.5h.5v2.2h-4.1v-1.2z"/><path id="XMLID_3521_" class="st0" d="M353.7 600.4h.6v2.2h-4.7v-2.2h.5v-7.3h-.6v-2.3h4.2v9.6z"/><path id="XMLID_3519_" class="st0" d="M359.4 600.4h.6v2.2h-4.7v-2.2h.5v-7.3h-.6v-2.3h4.2v9.6z"/><path id="XMLID_3516_" class="st0" d="M361 599.4c.2-.3.4-.6.7-.7s.6-.3 1-.4c.4-.1.8-.1 1.2-.1.7 0 1.3.1 1.8.3v-.5c0-.8-.5-1.2-1.5-1.2-.7 0-1.2.2-1.5.7h-1.3v-2.3l.5-.1c.3-.1.8-.2 1.4-.2.6-.1 1.1-.1 1.6-.1h.5c.2 0 .4 0 .7.1.3 0 .6.1.8.1.2.1.5.1.8.3.3.1.5.3.7.4.2.2.3.4.5.7.1.3.2.6.2.9v3.2h.5v2.2h-3.4l-.4-.9c-.2.3-.6.6-1 .7-.4.2-.8.3-1.2.3-.8 0-1.4-.2-2-.6-.5-.4-.8-1-.8-1.7-.1-.5 0-.8.2-1.1zm3.4 1.4c.1.1.3.2.5.2s.3 0 .4-.1c.1-.1.2-.1.3-.1l.1-.1v-1.1h-.1c-.1 0-.2-.1-.3-.1h-.3c-.2 0-.4.1-.5.2-.1.2-.2.4-.2.6 0 .2 0 .4.1.5z"/><path id="XMLID_3513_" class="st0" d="M373.8 605.5v-2.2h.6v-6.2h-.5v-2.2h4.1v.8h.1c.3-.3.6-.6.9-.8.3-.2.7-.2 1.2-.2s1 .1 1.4.3c.4.2.8.5 1 .9.3.4.5.8.6 1.3.1.5.2 1 .2 1.5s-.1 1-.2 1.5-.3.9-.6 1.3-.6.7-1 .9c-.4.2-.9.3-1.4.3-.2 0-.5 0-.7-.1-.2-.1-.4-.1-.6-.3-.2-.1-.4-.2-.5-.3-.1-.1-.2-.2-.4-.3v1.5h.8v2.2h-5zm4.1-5.8c0 .1 0 .1.1.2 0 .1.1.2.2.2.1.1.2.1.3.2.1.1.3.1.4.1.2 0 .4-.1.6-.2.2-.1.3-.2.4-.4.1-.2.1-.4.2-.5 0-.2.1-.4.1-.6 0-.9-.4-1.4-1.2-1.4-.1 0-.3 0-.4.1-.1 0-.2.1-.3.2l-.2.2c0 .1-.1.1-.1.2v.1l-.1 1.6z"/><path id="XMLID_3510_" class="st0" d="M384.2 599.4c.2-.3.4-.6.7-.7s.6-.3 1-.4c.4-.1.8-.1 1.2-.1.7 0 1.3.1 1.8.3v-.5c0-.8-.5-1.2-1.5-1.2-.7 0-1.2.2-1.5.7h-1.3v-2.3l.5-.1c.3-.1.8-.2 1.4-.2.6-.1 1.1-.1 1.6-.1h.5c.2 0 .4 0 .7.1.3 0 .6.1.8.1.2.1.5.1.8.3.3.1.5.3.7.4.2.2.3.4.5.7.1.3.2.6.2.9v3.2h.5v2.2h-3.4l-.4-.9c-.2.3-.6.6-1 .7-.4.2-.8.3-1.2.3-.8 0-1.4-.2-2-.6-.5-.4-.8-1-.8-1.7-.1-.5 0-.8.2-1.1zm3.4 1.4c.1.1.3.2.5.2s.3 0 .4-.1c.1-.1.2-.1.3-.1l.1-.1v-1.1h-.1c-.1 0-.2-.1-.3-.1h-.3c-.2 0-.4.1-.5.2-.1.2-.2.4-.2.6-.1.2 0 .4.1.5z"/><path id="XMLID_3508_" class="st0" d="M393.7 594.9h3.9v1.2c.2-.4.6-.7 1-.9.4-.2.9-.3 1.4-.3v3h-.8c-.5 0-.9.2-1.2.5-.3.3-.5.8-.5 1.3v.9h1v2.2h-4.9v-2.2h.6v-3.3h-.6v-2.4z"/><path id="XMLID_3505_" class="st0" d="M405 600.4h.6v2.2h-4.7v-2.2h.6v-3.3h-.6v-2.2h4.1v5.5zm-.5-6.4c.4-.3.6-.8.6-1.3s-.2-1-.6-1.3c-.4-.3-.9-.5-1.5-.5s-1.1.2-1.4.5c-.4.3-.6.7-.6 1.3 0 .6.2 1 .6 1.3.4.3.9.5 1.4.5.6 0 1.1-.2 1.5-.5z"/><path id="XMLID_3502_" class="st0" d="M406.6 599.4c.2-.3.4-.6.7-.7.3-.2.6-.3 1-.4.4-.1.8-.1 1.2-.1.7 0 1.3.1 1.8.3v-.5c0-.8-.5-1.2-1.5-1.2-.7 0-1.2.2-1.5.7H407v-2.3l.5-.1c.3-.1.8-.2 1.4-.2.6-.1 1.1-.1 1.6-.1h.5c.2 0 .4 0 .7.1.3 0 .6.1.8.1.2.1.5.1.8.3.3.1.5.3.7.4.2.2.3.4.5.7.1.3.2.6.2.9v3.2h.5v2.2h-3.4l-.4-.9c-.2.3-.6.6-1 .7-.4.2-.8.3-1.2.3-.8 0-1.4-.2-2-.6-.5-.4-.8-1-.8-1.7-.1-.5 0-.8.2-1.1zm3.4 1.4c.1.1.3.2.5.2s.3 0 .4-.1c.1-.1.2-.1.3-.1l.1-.1v-1.1h-.1c-.1 0-.2-.1-.3-.1h-.3c-.2 0-.4.1-.5.2-.1.2-.2.4-.2.6 0 .2 0 .4.1.5z"/><path id="XMLID_3500_" class="st0" d="M421.4 602.3l-.3.1c-.2.1-.5.2-.8.2-.4.1-.8.1-1.1.1-1.8 0-2.8-1-2.7-2.9v-2.7h-.8v-2.2h.7v-1.7l3.5-.8v2.4h1.1v2.2h-1.1v2.3c0 .2 0 .4.2.5.1.2.3.2.6.2.2 0 .5 0 .8-.1v2.4z"/><path id="XMLID_3498_" class="st0" d="M427.6 601.5c-.3.4-.6.7-1.1.9-.4.2-1 .3-1.5.3-1.6 0-2.4-1-2.4-2.9v-2.7h-.6v-2.2h4.1v4.6c0 .3.1.5.2.6.1.2.3.2.5.2s.4-.1.5-.2c.1-.2.2-.4.2-.6v-2.3h-.5V595h4.1v5.5h.5v2.2h-4.1v-1.2z"/><path id="XMLID_3496_" class="st0" d="M432.9 594.9h3.9v1.2c.2-.4.6-.7 1-.9.4-.2.9-.3 1.4-.3v3h-.8c-.5 0-.9.2-1.2.5-.3.3-.5.8-.5 1.3v.9h1v2.2h-4.9v-2.2h.6v-3.3h-.6v-2.4z"/><path id="XMLID_3494_" class="st0" d="M439.8 604.3h.6c.2 0 .3-.1.4-.2.1-.1.2-.1.2-.2.1-.1.1-.2.1-.3v-.4-.5h-1.4V600h3.7c.1.7.2 1.4.2 2 0 1.3-.3 2.3-.9 2.9-.6.6-1.6.9-2.9.9v-1.5z"/><path id="XMLID_3491_" class="st0" d="M72 620c-.6-.4-1.1-.8-1.5-1.4-.4-.6-.5-1.2-.5-1.9 0-.8.2-1.5.5-2.1.3-.6.8-1.1 1.5-1.5.6-.4 1.4-.5 2.3-.5.8 0 1.5.2 2.2.5.6.4 1.1.8 1.4 1.4.3.6.5 1.2.5 1.9v.5c0 .1-.1.2-.1.2h-4.5c0 .5.1.9.3 1.2.2.3.5.5.9.5.3 0 .6-.1.8-.3.2-.2.2-.4.3-.7h2.2v1.6c-.6.4-1.3.7-1.9.8-.6.2-1.3.2-2.1.2-.9.1-1.6-.1-2.3-.4zm1.6-4.2h1.6v-.4c0-.1 0-.3-.1-.4 0-.2-.1-.3-.2-.4-.1-.1-.3-.1-.4-.1-.3 0-.5.1-.6.4-.1.2-.2.5-.2.8v.1z"/><path id="XMLID_3489_" class="st0" d="M87 620.4h-3.3l-1.4-2-1.5 2h-2v-2.2h.9l1.3-1.5-1.3-1.8H79v-2.2h3.4l1.2 1.8 1.3-1.8h1.8v2.2H86l-1.2 1.3 1.4 2h.8v2.2z"/><path id="XMLID_3487_" class="st0" d="M87.8 614.9c.2-.5.4-.9.7-1.3.3-.4.7-.6 1.2-.9.5-.2 1-.3 1.6-.3.7 0 1.3.2 1.9.7l.3-.6h1.3v3.2H93c0-.3-.1-.6-.3-.8-.2-.2-.4-.3-.6-.3-.3 0-.6.2-.8.5-.2.3-.3.8-.3 1.4 0 .2 0 .4.1.5 0 .2.1.3.2.5s.2.3.4.4c.2.1.3.1.5.1s.3 0 .4-.1c.1-.1.2-.1.3-.2.1-.1.1-.2.2-.3 0-.1.1-.2.1-.2v-.1h1.7v2.2c-.3.3-.8.6-1.4.8-.6.2-1.2.3-1.8.3-.8 0-1.4-.2-2-.5-.6-.3-1.1-.8-1.4-1.4-.4-.6-.5-1.4-.5-2.2-.3-.4-.2-.9 0-1.4z"/><path id="XMLID_3484_" class="st0" d="M97.5 620c-.6-.4-1.1-.8-1.5-1.4-.4-.6-.5-1.2-.5-1.9 0-.8.2-1.5.5-2.1.3-.6.8-1.1 1.5-1.5.6-.4 1.4-.5 2.3-.5.8 0 1.5.2 2.2.5.6.4 1.1.8 1.4 1.4.3.6.5 1.2.5 1.9v.5c0 .1-.1.2-.1.2h-4.5c0 .5.1.9.3 1.2.2.3.5.5.9.5.3 0 .6-.1.8-.3.2-.2.2-.4.3-.7h2.2v1.6c-.6.4-1.3.7-1.9.8-.6.2-1.3.2-2.1.2-.9.1-1.6-.1-2.3-.4zm1.6-4.2h1.6v-.4c0-.1 0-.3-.1-.4 0-.2-.1-.3-.2-.4-.1-.1-.3-.1-.4-.1-.3 0-.5.1-.6.4-.1.2-.2.5-.2.8v.1z"/><path id="XMLID_3481_" class="st0" d="M104.6 623.2V621h.6v-6.2h-.5v-2.2h4.1v.8h.1c.3-.3.6-.6.9-.8.3-.2.7-.2 1.2-.2s1 .1 1.4.3c.4.2.8.5 1 .9.3.4.5.8.6 1.3.1.5.2 1 .2 1.5s-.1 1-.2 1.5-.3.9-.6 1.3-.6.7-1 .9c-.4.2-.9.3-1.4.3-.3 0-.5 0-.7-.1-.2-.1-.4-.1-.6-.3-.2-.1-.4-.2-.5-.3-.1-.1-.2-.2-.4-.3v1.5h.8v2.2h-5zm4-5.8c0 .1 0 .1.1.2 0 .1.1.2.2.2.1.1.2.1.3.2.1.1.3.1.4.1.2 0 .4-.1.6-.2.2-.1.3-.2.4-.4.1-.2.1-.4.2-.5 0-.2.1-.4.1-.6 0-.9-.4-1.4-1.2-1.4-.1 0-.3 0-.4.1-.1 0-.2.1-.3.2l-.2.2c0 .1-.1.1-.1.2v.1l-.1 1.6z"/><path id="XMLID_3479_" class="st0" d="M120.5 620l-.3.1c-.2.1-.5.2-.8.2-.4.1-.7.1-1.1.1-1.8 0-2.8-1-2.7-2.9v-2.7h-.8v-2.2h.7V611l3.5-.8v2.4h1.1v2.2H119v2.3c0 .2.1.4.2.5.1.2.3.2.6.2.2 0 .5 0 .8-.1v2.3z"/><path id="XMLID_3476_" class="st0" d="M123 620c-.6-.4-1.1-.8-1.5-1.4-.4-.6-.5-1.2-.5-1.9 0-.8.2-1.5.5-2.1.3-.6.8-1.1 1.5-1.5.6-.4 1.4-.5 2.3-.5.8 0 1.5.2 2.2.5.6.4 1.1.8 1.4 1.4.3.6.5 1.2.5 1.9v.5c0 .1-.1.2-.1.2h-4.5c0 .5.1.9.3 1.2.2.3.5.5.9.5.3 0 .6-.1.8-.3.2-.2.2-.4.3-.7h2.2v1.6c-.6.4-1.3.7-1.9.8-.6.2-1.3.2-2.1.2-.9.1-1.6-.1-2.3-.4zm1.6-4.2h1.6v-.4c0-.1 0-.3-.1-.4 0-.2-.1-.3-.2-.4-.1-.1-.3-.1-.4-.1-.3 0-.5.1-.6.4-.1.2-.2.5-.2.8v.1z"/><path id="XMLID_3474_" class="st0" d="M135.5 619.2c-.3.4-.6.7-1.1.9-.4.2-1 .3-1.5.3-1.6 0-2.4-1-2.4-2.9v-2.7h-.5v-2.2h4.1v4.6c0 .3.1.5.2.6.1.2.3.2.5.2s.4-.1.5-.2c.1-.2.2-.4.2-.6v-2.3h-.6v-2.2h4.1v5.5h.5v2.2h-4.1v-1.2z"/><path id="XMLID_3472_" class="st0" d="M140.8 612.6h3.9v1.2c.2-.4.6-.7 1-.9.4-.2.9-.3 1.4-.3v3h-.8c-.5 0-.9.2-1.2.5-.3.3-.5.8-.5 1.3v.9h1v2.2h-4.9v-2.2h.6V615h-.6v-2.4z"/><path id="XMLID_3470_" class="st0" d="M156.4 614.9l-.1-.2c0-.1-.1-.2-.1-.3-.1-.1-.1-.2-.1-.2-.1-.1-.2-.2-.4-.3-.2-.1-.3-.1-.5-.1s-.3 0-.5.1c-.1.1-.2.2-.2.4 0 .1.1.3.2.4.1.1.3.2.5.2.2.1.4.1.6.2.2.1.4.1.4.1 1.2.5 1.7 1.3 1.7 2.3 0 1-.3 1.7-.8 2.2-.5.5-1.2.8-2.2.8-1 0-1.7-.2-2.2-.7l-.3.5h-1.3l.1-2.7h1.6c.1.3.2.6.4.9.2.3.5.4.8.4.2 0 .4 0 .5-.1s.2-.2.2-.4-.1-.3-.2-.4c-.1-.1-.3-.2-.5-.3-.2-.1-.4-.2-.7-.2-.3-.1-.5-.2-.8-.3-.3-.1-.5-.3-.7-.4-.2-.2-.4-.4-.5-.7-.1-.3-.2-.6-.2-1 0-.6.1-1 .4-1.4.3-.4.6-.7 1.1-.8.4-.2.9-.3 1.5-.3.4 0 .8 0 1.2.1.4.1.6.1.7.2.1 0 .2.1.2.1l.2-.3h1.2v2.3h-1.2z"/><path id="XMLID_3467_" class="st0" d="M163.2 618.2h.6v2.2h-4.7v-2.2h.6v-3.3h-.6v-2.2h4.1v5.5zm-.5-6.5c.4-.3.6-.8.6-1.3s-.2-1-.6-1.3c-.4-.3-.9-.5-1.5-.5s-1.1.2-1.4.5c-.4.3-.6.7-.6 1.3 0 .6.2 1 .6 1.3.4.3.9.5 1.4.5.6 0 1.1-.2 1.5-.5z"/><path id="XMLID_3465_" class="st0" d="M169.1 613.8c.3-.4.6-.7 1.1-.9.4-.2 1-.3 1.5-.3 1.6 0 2.4 1 2.4 3v2.7h.6v2.2h-4.1V616c0-.2-.1-.4-.2-.6-.1-.1-.3-.2-.5-.2s-.4.1-.5.2c-.1.2-.2.4-.2.6v2.3h.6v2.2H165v-2.2h.6V615h-.6v-2.2h4.1v1z"/><path id="XMLID_3463_" class="st0" d="M181.1 620l-.3.1c-.2.1-.5.2-.8.2-.4.1-.7.1-1.1.1-1.8 0-2.8-1-2.7-2.9v-2.7h-.8v-2.2h.7V611l3.5-.8v2.4h1.1v2.2h-1.1v2.3c0 .2.1.4.2.5.1.2.3.2.6.2.2 0 .5 0 .8-.1v2.3z"/><path id="XMLID_3460_" class="st0" d="M185.1 616.4c0-1.3.4-2.2 1.2-2.9.8-.7 1.8-1 3.2-1 1.4 0 2.4.3 3.2 1 .8.7 1.2 1.6 1.2 2.9 0 .8-.2 1.6-.6 2.2-.4.6-.9 1.1-1.5 1.4-.7.3-1.4.5-2.3.5-.9 0-1.6-.2-2.3-.5-.7-.3-1.2-.8-1.5-1.4-.4-.6-.6-1.3-.6-2.2zm3.3 0c0 1.2.3 1.8 1 1.8s1-.6 1-1.8v-.6c0-.2-.1-.3-.1-.5-.1-.2-.2-.3-.3-.4-.1-.1-.3-.1-.5-.1s-.4 0-.5.1c-.1.1-.2.2-.3.4-.1.2-.1.4-.1.5-.1.2-.2.4-.2.6z"/><path id="XMLID_3458_" class="st0" d="M194.7 614.9c.2-.5.4-.9.7-1.3.3-.4.7-.6 1.2-.9.5-.2 1-.3 1.6-.3.7 0 1.3.2 1.9.7l.3-.6h1.3v3.2H200c0-.3-.1-.6-.3-.8-.2-.2-.4-.3-.6-.3-.3 0-.6.2-.8.5-.2.3-.3.8-.3 1.4 0 .2 0 .4.1.5 0 .2.1.3.2.5s.2.3.4.4c.2.1.3.1.5.1s.3 0 .4-.1c.1-.1.2-.1.3-.2.1-.1.1-.2.2-.3 0-.1.1-.2.1-.2v-.1h1.7v2.2c-.3.3-.8.6-1.4.8-.6.2-1.2.3-1.8.3-.8 0-1.4-.2-2-.5-.6-.3-1.1-.8-1.4-1.4-.4-.6-.5-1.4-.5-2.2-.4-.4-.3-.9-.1-1.4z"/><path id="XMLID_3456_" class="st0" d="M202.7 614.9c.2-.5.4-.9.7-1.3.3-.4.7-.6 1.2-.9.5-.2 1-.3 1.6-.3.7 0 1.3.2 1.9.7l.3-.6h1.3v3.2H208c0-.3-.1-.6-.3-.8-.2-.2-.4-.3-.6-.3-.3 0-.6.2-.8.5-.2.3-.3.8-.3 1.4 0 .2 0 .4.1.5 0 .2.1.3.2.5s.2.3.4.4c.2.1.3.1.5.1s.3 0 .4-.1c.1-.1.2-.1.3-.2.1-.1.1-.2.2-.3 0-.1.1-.2.1-.2v-.1h1.7v2.2c-.3.3-.8.6-1.4.8-.6.2-1.2.3-1.8.3-.8 0-1.4-.2-2-.5-.6-.3-1.1-.8-1.4-1.4-.4-.6-.5-1.4-.5-2.2-.4-.4-.3-.9-.1-1.4z"/><path id="XMLID_3453_" class="st0" d="M210.6 617.1c.2-.3.4-.6.7-.7.3-.2.6-.3 1-.4s.8-.1 1.1-.1c.7 0 1.3.1 1.8.3v-.3c0-.8-.5-1.2-1.5-1.2-.7 0-1.2.2-1.6.7H211V613l.5-.1c.3-.1.8-.2 1.4-.2.6-.1 1.1-.1 1.6-.1h.5c.2 0 .4 0 .7.1.3 0 .6.1.8.1.2.1.5.1.8.3.3.1.5.3.7.4.2.2.3.4.5.7.1.3.2.6.2.9v3.2h.5v2.2h-3.4l-.4-.9c-.2.3-.6.6-1 .7-.4.2-.8.3-1.2.3-.8 0-1.4-.2-2-.6-.5-.4-.8-1-.8-1.7-.1-.5 0-.9.2-1.2zm3.5 1.4c.1.1.3.2.5.2s.3 0 .4-.1c.1-.1.2-.1.3-.1l.1-.1v-1.1h-.1c-.1 0-.2-.1-.3-.1h-.3c-.2 0-.4.1-.5.2-.1.2-.2.4-.2.6-.1.2-.1.4.1.5z"/><path id="XMLID_3450_" class="st0" d="M221.7 620c-.6-.4-1.1-.8-1.5-1.4-.4-.6-.5-1.2-.5-1.9 0-.8.2-1.5.5-2.1.3-.6.8-1.1 1.5-1.5.6-.4 1.4-.5 2.3-.5.8 0 1.5.2 2.2.5.6.4 1.1.8 1.4 1.4.3.6.5 1.2.5 1.9v.5c0 .1-.1.2-.1.2h-4.5c0 .5.1.9.3 1.2.2.3.5.5.9.5.3 0 .6-.1.8-.3.2-.2.2-.4.3-.7h2.2v1.6c-.6.4-1.3.7-1.9.8-.6.2-1.3.2-2.1.2-.9.1-1.6-.1-2.3-.4zm1.6-4.2h1.6v-.4c0-.1 0-.3-.1-.4 0-.2-.1-.3-.2-.4-.1-.1-.3-.1-.4-.1-.3 0-.5.1-.6.4-.1.2-.2.5-.2.8v.1z"/><path id="XMLID_3448_" class="st0" d="M228.9 614.9c.2-.5.4-.9.7-1.3.3-.4.7-.6 1.2-.9.5-.2 1-.3 1.6-.3.7 0 1.3.2 1.9.7l.3-.6h1.3v3.2H234c0-.3-.1-.6-.3-.8-.2-.2-.4-.3-.6-.3-.3 0-.6.2-.8.5-.2.3-.3.8-.3 1.4 0 .2 0 .4.1.5 0 .2.1.3.2.5s.2.3.4.4c.2.1.3.1.5.1s.3 0 .4-.1c.1-.1.2-.1.3-.2.1-.1.1-.2.2-.3 0-.1.1-.2.1-.2v-.1h1.7v2.2c-.3.3-.8.6-1.4.8-.6.2-1.2.3-1.8.3-.8 0-1.4-.2-2-.5-.6-.3-1.1-.8-1.4-1.4-.4-.6-.5-1.4-.5-2.2-.2-.4-.1-.9.1-1.4z"/><path id="XMLID_3445_" class="st0" d="M236.8 617.1c.2-.3.4-.6.7-.7.3-.2.6-.3 1-.4.4-.1.8-.1 1.1-.1.7 0 1.3.1 1.8.3v-.3c0-.8-.5-1.2-1.5-1.2-.7 0-1.2.2-1.6.7H237V613l.5-.1c.3-.1.8-.2 1.4-.2.6-.1 1.1-.1 1.6-.1h.5c.2 0 .4 0 .7.1.3 0 .6.1.8.1.2.1.5.1.8.3.3.1.5.3.7.4.2.2.3.4.5.7.1.3.2.6.2.9v3.2h.5v2.2h-3.4l-.4-.9c-.2.3-.6.6-1 .7-.4.2-.8.3-1.2.3-.8 0-1.4-.2-2-.6-.5-.4-.8-1-.8-1.7.1-.5.2-.9.4-1.2zm3.4 1.4c.1.1.3.2.5.2s.3 0 .4-.1c.1-.1.2-.1.3-.1l.1-.1v-1.1h-.1c-.1 0-.2-.1-.3-.1h-.3c-.2 0-.4.1-.5.2-.1.2-.2.4-.2.6-.1.2 0 .4.1.5z"/><path id="XMLID_3443_" class="st0" d="M251.6 620l-.3.1c-.2.1-.5.2-.8.2-.4.1-.7.1-1.1.1-1.8 0-2.8-1-2.7-2.9v-2.7h-.8v-2.2h.7V611l3.5-.8v2.4h1.1v2.2h-1.1v2.3c0 .2.1.4.2.5.1.2.3.2.6.2.2 0 .5 0 .8-.1v2.3z"/><path id="XMLID_3441_" class="st0" d="M255.9 614.9c.2-.5.4-.9.7-1.3.3-.4.7-.6 1.2-.9.5-.2 1-.3 1.6-.3.7 0 1.3.2 1.9.7l.3-.6h1.3v3.2H261c0-.3-.1-.6-.3-.8-.2-.2-.4-.3-.6-.3-.3 0-.6.2-.8.5-.2.3-.3.8-.3 1.4 0 .2 0 .4.1.5 0 .2.1.3.2.5s.2.3.4.4c.2.1.3.1.5.1s.3 0 .4-.1c.1-.1.2-.1.3-.2.1-.1.1-.2.2-.3 0-.1.1-.2.1-.2v-.1h1.7v2.2c-.3.3-.8.6-1.4.8-.6.2-1.2.3-1.8.3-.8 0-1.4-.2-2-.5-.6-.3-1.1-.8-1.4-1.4-.4-.6-.5-1.4-.5-2.2-.2-.4-.1-.9.1-1.4z"/><path id="XMLID_3439_" class="st0" d="M269.2 619.2c-.3.4-.6.7-1.1.9-.4.2-1 .3-1.5.3-1.6 0-2.4-1-2.4-2.9v-2.7h-.6v-2.2h4.1v4.6c0 .3.1.5.2.6.1.2.3.2.5.2s.4-.1.5-.2c.1-.2.2-.4.2-.6v-2.3h-.6v-2.2h4.1v5.5h.5v2.2H269v-1.2z"/><path id="XMLID_3436_" class="st0" d="M274.3 623.2V621h.6v-6.2h-.5v-2.2h4.1v.8h.1c.3-.3.6-.6.9-.8.3-.2.7-.2 1.2-.2s1 .1 1.4.3c.4.2.8.5 1 .9.3.4.5.8.6 1.3.1.5.2 1 .2 1.5s-.1 1-.2 1.5-.3.9-.6 1.3-.6.7-1 .9c-.4.2-.9.3-1.4.3-.2 0-.5 0-.7-.1-.2-.1-.4-.1-.6-.3-.2-.1-.4-.2-.5-.3-.1-.1-.2-.2-.4-.3v1.5h.8v2.2h-5zm4-5.8c0 .1 0 .1.1.2 0 .1.1.2.2.2.1.1.2.1.3.2.1.1.3.1.4.1.2 0 .4-.1.6-.2.2-.1.3-.2.4-.4.1-.2.1-.4.2-.5 0-.2.1-.4.1-.6 0-.9-.4-1.4-1.2-1.4-.1 0-.3 0-.4.1-.1 0-.2.1-.3.2l-.2.2c0 .1-.1.1-.1.2v.1l-.1 1.6z"/><path id="XMLID_3433_" class="st0" d="M288.9 618.2h.6v2.2h-4.7v-2.2h.6v-3.3h-.6v-2.2h4.1v5.5zm-.5-6.5c.4-.3.6-.8.6-1.3s-.2-1-.6-1.3c-.4-.3-.9-.5-1.5-.5s-1.1.2-1.4.5c-.4.3-.6.7-.6 1.3 0 .6.2 1 .6 1.3.4.3.9.5 1.4.5.6 0 1.1-.2 1.5-.5z"/><path id="XMLID_3430_" class="st0" d="M299.9 620.4h-4.1v-.9c-.2.3-.6.6-.9.8-.4.2-.8.3-1.2.3-.5 0-1-.1-1.5-.4-.4-.2-.8-.6-1.1-1-.3-.4-.5-.8-.6-1.3-.1-.5-.2-1-.2-1.5s.1-1 .2-1.4c.2-.5.4-.9.6-1.2.3-.4.6-.7 1-.9.4-.2.9-.3 1.4-.3.4 0 .8.1 1.2.2.3.1.7.4 1 .7v-2.7h-.7v-2.2h4.2v9.6h.6v2.2zm-4.2-4.9l-.1-.1c-.1-.1-.2-.2-.4-.2-.2-.1-.3-.1-.5-.1-.3 0-.6.1-.8.4-.2.2-.3.6-.3 1v.4c0 .1 0 .3.1.5 0 .2.1.3.2.4l.3.3c.1.1.3.1.5.1.1 0 .2 0 .4-.1.1 0 .2-.1.3-.2l.2-.2c.1-.1.1-.1.1-.2v-2z"/><path id="XMLID_3427_" class="st0" d="M300.9 617.1c.2-.3.4-.6.7-.7.3-.2.6-.3 1-.4.4-.1.8-.1 1.2-.1.7 0 1.3.1 1.8.3v-.3c0-.8-.5-1.2-1.5-1.2-.7 0-1.2.2-1.5.7h-1.3V613l.5-.1c.3-.1.8-.2 1.4-.2.6-.1 1.1-.1 1.6-.1h.5c.2 0 .4 0 .7.1.3 0 .6.1.8.1.2.1.5.1.8.3.3.1.5.3.7.4.2.2.3.4.5.7.1.3.2.6.2.9v3.2h.5v2.2H306l-.4-.9c-.2.3-.6.6-1 .7-.4.2-.8.3-1.2.3-.8 0-1.4-.2-2-.6-.5-.4-.8-1-.8-1.7 0-.5.1-.9.3-1.2zm3.4 1.4c.1.1.3.2.5.2s.3 0 .4-.1c.1-.1.2-.1.3-.1l.1-.1v-1.1h-.1c-.1 0-.2-.1-.3-.1h-.3c-.2 0-.4.1-.5.2-.1.2-.2.4-.2.6-.1.2 0 .4.1.5z"/><path id="XMLID_3425_" class="st0" d="M315.6 620l-.3.1c-.2.1-.5.2-.8.2-.4.1-.8.1-1.1.1-1.8 0-2.8-1-2.7-2.9v-2.7h-.8v-2.2h.7V611l3.5-.8v2.4h1.1v2.2h-1.1v2.3c0 .2 0 .4.2.5.1.2.3.2.6.2.2 0 .5 0 .8-.1v2.3z"/><path id="XMLID_3422_" class="st0" d="M316.4 617.1c.2-.3.4-.6.7-.7s.6-.3 1-.4c.4-.1.8-.1 1.2-.1.7 0 1.3.1 1.8.3v-.3c0-.8-.5-1.2-1.5-1.2-.7 0-1.2.2-1.5.7h-1.3V613l.5-.1c.3-.1.8-.2 1.4-.2.6-.1 1.1-.1 1.6-.1h.5c.2 0 .4 0 .7.1.3 0 .6.1.8.1.2.1.5.1.8.3.3.1.5.3.7.4.2.2.3.4.5.7.1.3.2.6.2.9v3.2h.5v2.2h-3.4l-.4-.9c-.2.3-.6.6-1 .7-.4.2-.8.3-1.2.3-.8 0-1.4-.2-2-.6-.5-.4-.8-1-.8-1.7-.1-.5 0-.9.2-1.2zm3.4 1.4c.1.1.3.2.5.2s.3 0 .4-.1c.1-.1.2-.1.3-.1l.1-.1v-1.1h-.1c-.1 0-.2-.1-.3-.1h-.3c-.2 0-.4.1-.5.2-.1.2-.2.4-.2.6 0 .2 0 .4.1.5z"/><path id="XMLID_3420_" class="st0" d="M331.2 620l-.3.1c-.2.1-.5.2-.8.2-.4.1-.8.1-1.1.1-1.8 0-2.8-1-2.7-2.9v-2.7h-.8v-2.2h.7V611l3.5-.8v2.4h1.1v2.2h-1.1v2.3c0 .2 0 .4.2.5.1.2.3.2.6.2.2 0 .5 0 .8-.1v2.3z"/><path id="XMLID_3418_" class="st0" d="M339.7 613.8c.3-.4.6-.7 1.1-.9.4-.2 1-.3 1.5-.3 1.6 0 2.4 1 2.4 3v2.7h.6v2.2h-4.1V616c0-.2-.1-.4-.2-.6-.1-.1-.3-.2-.5-.2s-.4.1-.5.2c-.1.2-.2.4-.2.6v2.3h.6v2.2h-4.7v-2.2h.6V615h-.6v-2.2h4.1v1z"/><path id="XMLID_3415_" class="st0" d="M345.9 616.4c0-1.3.4-2.2 1.2-2.9.8-.7 1.8-1 3.2-1 1.4 0 2.4.3 3.2 1 .8.7 1.2 1.6 1.2 2.9 0 .8-.2 1.6-.6 2.2-.4.6-.9 1.1-1.5 1.4-.7.3-1.4.5-2.3.5-.9 0-1.6-.2-2.3-.5-.7-.3-1.2-.8-1.5-1.4-.4-.6-.6-1.3-.6-2.2zm3.4 0c0 1.2.3 1.8 1 1.8s1-.6 1-1.8v-.6c0-.2-.1-.3-.1-.5-.1-.2-.2-.3-.3-.4-.1-.1-.3-.1-.5-.1s-.4 0-.5.1c-.1.1-.2.2-.3.4-.1.2-.1.4-.1.5-.2.2-.2.4-.2.6z"/><path id="XMLID_3413_" class="st0" d="M359.7 613.8c.3-.4.6-.7 1.1-.9.4-.2 1-.3 1.5-.3 1.6 0 2.4 1 2.4 3v2.7h.6v2.2h-4.1V616c0-.2-.1-.4-.2-.6-.1-.1-.3-.2-.5-.2s-.4.1-.5.2-.2.4-.2.6v2.3h.6v2.2h-4.7v-2.2h.6V615h-.6v-2.2h4.1v1z"/><path id="XMLID_3410_" class="st0" d="M369.5 623.2V621h.6v-6.2h-.5v-2.2h4.1v.8h.1c.3-.3.6-.6.9-.8.3-.2.7-.2 1.2-.2s1 .1 1.4.3c.4.2.8.5 1 .9.3.4.5.8.6 1.3.1.5.2 1 .2 1.5s-.1 1-.2 1.5-.3.9-.6 1.3-.6.7-1 .9c-.4.2-.9.3-1.4.3-.2 0-.5 0-.7-.1-.2-.1-.4-.1-.6-.3-.2-.1-.4-.2-.5-.3-.1-.1-.2-.2-.4-.3v1.5h.8v2.2h-5zm4.1-5.8c0 .1 0 .1.1.2 0 .1.1.2.2.2.1.1.2.1.3.2.1.1.3.1.4.1.2 0 .4-.1.6-.2.2-.1.3-.2.4-.4.1-.2.1-.4.2-.5 0-.2.1-.4.1-.6 0-.9-.4-1.4-1.2-1.4-.1 0-.3 0-.4.1-.1 0-.2.1-.3.2l-.2.2c0 .1-.1.1-.1.2v.1l-.1 1.6z"/><path id="XMLID_3408_" class="st0" d="M380.1 612.6h3.9v1.2c.2-.4.6-.7 1-.9.4-.2.9-.3 1.4-.3v3h-.8c-.5 0-.9.2-1.2.5-.3.3-.5.8-.5 1.3v.9h1v2.2H380v-2.2h.6V615h-.6v-2.4z"/><path id="XMLID_3405_" class="st0" d="M387 616.4c0-1.3.4-2.2 1.2-2.9.8-.7 1.8-1 3.2-1 1.4 0 2.4.3 3.2 1 .8.7 1.2 1.6 1.2 2.9 0 .8-.2 1.6-.6 2.2-.4.6-.9 1.1-1.5 1.4-.7.3-1.4.5-2.3.5-.9 0-1.6-.2-2.3-.5-.7-.3-1.2-.8-1.5-1.4-.4-.6-.6-1.3-.6-2.2zm3.3 0c0 1.2.3 1.8 1 1.8s1-.6 1-1.8v-.6c0-.2-.1-.3-.1-.5-.1-.2-.2-.3-.3-.4-.1-.1-.3-.1-.5-.1s-.4 0-.5.1c-.1.1-.2.2-.3.4-.1.2-.1.4-.1.5-.2.2-.2.4-.2.6z"/><path id="XMLID_3402_" class="st0" d="M400.7 618.2h.6v2.2h-4.7v-2.2h.6v-3.3h-.6v-2.2h4.1v5.5zm-.6-6.5c.4-.3.6-.8.6-1.3s-.2-1-.6-1.3c-.4-.3-.9-.5-1.5-.5s-1.1.2-1.4.5c-.4.3-.6.7-.6 1.3 0 .6.2 1 .6 1.3.4.3.9.5 1.4.5.6 0 1.1-.2 1.5-.5z"/><path id="XMLID_3399_" class="st0" d="M411.6 620.4h-4.1v-.9c-.2.3-.6.6-.9.8-.4.2-.8.3-1.2.3-.5 0-1-.1-1.5-.4-.4-.2-.8-.6-1.1-1-.3-.4-.5-.8-.6-1.3-.1-.5-.2-1-.2-1.5s.1-1 .2-1.4c.2-.5.4-.9.6-1.2.3-.4.6-.7 1-.9.4-.2.9-.3 1.4-.3.4 0 .8.1 1.2.2.3.1.7.4 1 .7v-2.7h-.7v-2.2h4.2v9.6h.6v2.2zm-4.1-4.9l-.1-.1c-.1-.1-.2-.2-.4-.2-.2-.1-.3-.1-.5-.1-.3 0-.6.1-.8.4-.2.2-.3.6-.3 1v.4c0 .1 0 .3.1.5 0 .2.1.3.2.4l.3.3c.1.1.3.1.5.1.1 0 .2 0 .4-.1.1 0 .2-.1.3-.2l.2-.2c.1-.1.1-.1.1-.2v-2z"/><path id="XMLID_3396_" class="st0" d="M414.4 620c-.6-.4-1.1-.8-1.5-1.4-.4-.6-.5-1.2-.5-1.9 0-.8.2-1.5.5-2.1.3-.6.8-1.1 1.5-1.5.6-.4 1.4-.5 2.3-.5.8 0 1.5.2 2.2.5.6.4 1.1.8 1.4 1.4.3.6.5 1.2.5 1.9v.5c0 .1-.1.2-.1.2h-4.5c0 .5.1.9.3 1.2.2.3.5.5.9.5.3 0 .6-.1.8-.3.2-.2.2-.4.3-.7h2.2v1.6c-.6.4-1.3.7-1.9.8-.6.2-1.3.2-2.1.2-1 .1-1.7-.1-2.3-.4zm1.6-4.2h1.6v-.4c0-.1 0-.3-.1-.4 0-.2-.1-.3-.2-.4-.1-.1-.3-.1-.4-.1-.3 0-.5.1-.6.4-.1.2-.2.5-.2.8v.1z"/><path id="XMLID_3394_" class="st0" d="M425.7 613.8c.3-.4.6-.7 1.1-.9.4-.2 1-.3 1.5-.3 1.6 0 2.4 1 2.4 3v2.7h.6v2.2h-4.1V616c0-.2-.1-.4-.2-.6-.1-.1-.3-.2-.5-.2s-.4.1-.5.2-.2.4-.2.6v2.3h.6v2.2h-4.7v-2.2h.6V615h-.6v-2.2h4.1v1z"/><path id="XMLID_3392_" class="st0" d="M437.7 620l-.3.1c-.2.1-.5.2-.8.2-.4.1-.8.1-1.1.1-1.8 0-2.8-1-2.7-2.9v-2.7h-.8v-2.2h.7V611l3.5-.8v2.4h1.1v2.2h-1.1v2.3c0 .2 0 .4.2.5.1.2.3.2.6.2.2 0 .5 0 .8-.1v2.3z"/><path id="XMLID_3390_" class="st0" d="M438.6 622h.6c.2 0 .3-.1.4-.2.1-.1.2-.1.2-.2.1-.1.1-.2.1-.3v-.4-.5h-1.4v-2.6h3.7c.1.7.2 1.4.2 2 0 1.3-.3 2.3-.9 2.9-.6.6-1.6.9-2.9.9V622z"/><path id="XMLID_3388_" class="st0" d="M87.3 632.6l-.1-.2c0-.1-.1-.2-.1-.3-.1-.1-.1-.1-.1-.2-.1-.1-.2-.2-.4-.3-.2-.1-.3-.1-.5-.1s-.3 0-.5.1c-.1.1-.2.2-.2.4 0 .1.1.3.2.4.1.1.3.2.5.2.2.1.4.1.6.2.2.1.4.1.4.1 1.2.5 1.7 1.3 1.7 2.3 0 1-.3 1.7-.8 2.2-.5.5-1.2.8-2.2.8-1 0-1.7-.2-2.2-.7l-.3.5H82l.1-2.7h1.6c.1.3.2.6.4.9.2.3.5.4.8.4.2 0 .4 0 .5-.1.2-.1.2-.2.2-.4s-.1-.3-.2-.4c-.1-.1-.3-.2-.5-.3-.2-.1-.4-.2-.7-.2-.3-.1-.5-.2-.8-.3-.3-.1-.5-.3-.7-.4-.2-.2-.4-.4-.5-.7-.1-.3-.2-.6-.2-1 0-.6.1-1 .4-1.4.3-.4.6-.7 1.1-.8.4-.2.9-.3 1.5-.3.4 0 .8 0 1.2.1.4.1.6.1.7.2.1 0 .2.1.2.1l.2-.3h1.2v2.3h-1.2z"/><path id="XMLID_3386_" class="st0" d="M95.2 637c-.3.4-.6.7-1.1.9-.4.2-1 .3-1.5.3-1.6 0-2.4-1-2.4-2.9v-2.7h-.6v-2.2h4.1v4.6c0 .3.1.5.2.6.1.2.3.2.5.2s.4-.1.5-.2c.1-.2.2-.4.2-.6v-2.3h-.6v-2.2h4.1v5.5h.5v2.2H95V637z"/><path id="XMLID_3384_" class="st0" d="M104.7 631.5c.3-.4.6-.7 1.1-.9.4-.2 1-.3 1.5-.3 1.6 0 2.4 1 2.4 3v2.7h.6v2.2h-4.1v-4.5c0-.2-.1-.4-.2-.6-.1-.1-.3-.2-.5-.2s-.4.1-.5.2c-.1.2-.2.4-.2.6v2.3h.6v2.2h-4.7V636h.6v-3.3h-.5v-2.2h4.1v1z"/><path id="XMLID_3382_" class="st0" d="M116.6 637.8l-.3.1c-.2.1-.5.2-.8.2-.4.1-.7.1-1.1.1-1.8 0-2.8-1-2.7-2.9v-2.7h-.8v-2.2h.7v-1.7l3.5-.8v2.4h1.1v2.2h-1.1v2.3c0 .2.1.4.2.5.1.2.3.2.6.2.2 0 .5 0 .8-.1v2.4z"/><path id="XMLID_3379_" class="st0" d="M125.1 635.9h.6v2.2H121v-2.2h.6v-3.3h-.6v-2.2h4.1v5.5zm-.5-6.5c.4-.3.6-.8.6-1.3s-.2-1-.6-1.3c-.4-.3-.9-.5-1.5-.5s-1.1.2-1.4.5c-.4.3-.6.7-.6 1.3 0 .6.2 1 .6 1.3.4.3.9.5 1.4.5.6 0 1.1-.1 1.5-.5z"/><path id="XMLID_3377_" class="st0" d="M131 631.5c.3-.4.6-.7 1.1-.9.4-.2 1-.3 1.5-.3 1.6 0 2.4 1 2.4 3v2.7h.6v2.2h-4.1v-4.5c0-.2-.1-.4-.2-.6-.1-.1-.3-.2-.5-.2s-.4.1-.5.2c-.1.2-.2.4-.2.6v2.3h.6v2.2H127V636h.6v-3.3h-.5v-2.2h4.1v1z"/><path id="XMLID_3375_" class="st0" d="M141 632.7c.2-.5.4-.9.7-1.3.3-.4.7-.6 1.2-.9.5-.2 1-.3 1.6-.3.7 0 1.3.2 1.9.7l.3-.6h1.3v3.2h-1.7c0-.3-.1-.6-.3-.8-.2-.2-.4-.3-.6-.3-.3 0-.6.2-.8.5-.2.3-.3.8-.3 1.4 0 .2 0 .4.1.5 0 .2.1.3.2.5s.2.3.4.4c.2.1.3.1.5.1s.3 0 .4-.1c.1-.1.2-.1.3-.2.1-.1.1-.2.2-.3 0-.1.1-.2.1-.2v-.1h1.7v2.2c-.3.3-.8.6-1.4.8-.6.2-1.2.3-1.8.3-.8 0-1.4-.2-2-.5-.6-.3-1.1-.8-1.4-1.4-.4-.6-.5-1.4-.5-2.2-.4-.5-.3-1-.1-1.4z"/><path id="XMLID_3373_" class="st0" d="M154.3 637c-.3.4-.6.7-1.1.9-.4.2-1 .3-1.5.3-1.6 0-2.4-1-2.4-2.9v-2.7h-.6v-2.2h4.1v4.6c0 .3.1.5.2.6.1.2.3.2.5.2s.4-.1.5-.2c.1-.2.2-.4.2-.6v-2.3h-.6v-2.2h4.1v5.5h.5v2.2h-4.1V637z"/><path id="XMLID_3371_" class="st0" d="M163.6 635.9h.6v2.2h-4.7v-2.2h.5v-7.3h-.6v-2.3h4.2v9.6z"/><path id="XMLID_3368_" class="st0" d="M165.2 641v-2.2h.6v-6.2h-.5v-2.2h4.1v.8h.1c.3-.3.6-.6.9-.8.3-.2.7-.2 1.2-.2s1 .1 1.4.3c.4.2.8.5 1 .9.3.4.5.8.6 1.3.1.5.2 1 .2 1.5s-.1 1-.2 1.5-.3.9-.6 1.3-.6.7-1 .9c-.4.2-.9.3-1.4.3-.3 0-.5 0-.7-.1-.2-.1-.4-.1-.6-.3-.2-.1-.4-.2-.5-.3-.1-.1-.2-.2-.4-.3v1.5h.8v2.2h-5zm4.1-5.8c0 .1 0 .1.1.2 0 .1.1.2.2.2.1.1.2.1.3.2.1.1.3.1.4.1.2 0 .4-.1.6-.2.2-.1.3-.2.4-.4.1-.2.1-.4.2-.5 0-.2.1-.4.1-.6 0-.9-.4-1.4-1.2-1.4-.1 0-.3 0-.4.1-.1 0-.2.1-.3.2l-.2.2c0 .1-.1.1-.1.2v.1l-.1 1.6z"/><path id="XMLID_3365_" class="st0" d="M175.6 634.9c.2-.3.4-.6.7-.7.3-.2.6-.3 1-.4.4-.1.8-.1 1.1-.1.7 0 1.3.1 1.8.3v-.3c0-.8-.5-1.2-1.5-1.2-.7 0-1.2.2-1.6.7h-1.3v-2.3l.5-.1c.3-.1.8-.2 1.4-.2.6-.1 1.1-.1 1.6-.1h.5c.2 0 .4 0 .7.1.3 0 .6.1.8.1.2.1.5.1.8.3.3.1.5.3.7.4.2.2.3.4.5.7.1.3.2.6.2.9v3.2h.5v2.2h-3.4l-.4-.9c-.2.3-.6.6-1 .7-.4.2-.8.3-1.2.3-.8 0-1.4-.2-2-.6-.5-.4-.8-1-.8-1.7.1-.7.2-1 .4-1.3zm3.4 1.4c.1.1.3.2.5.2s.3 0 .4-.1c.1-.1.2-.1.3-.1l.1-.1v-1.1h-.1c-.1 0-.2-.1-.3-.1h-.3c-.2 0-.4.1-.5.2-.1.2-.2.4-.2.6-.1.2 0 .3.1.5z"/><path id="XMLID_3362_" class="st0" d="M188.2 634.2c0-1.3.4-2.2 1.2-2.9.8-.7 1.8-1 3.2-1 1.4 0 2.4.3 3.2 1 .8.7 1.2 1.6 1.2 2.9 0 .8-.2 1.6-.6 2.2-.4.6-.9 1.1-1.5 1.4-.7.3-1.4.5-2.3.5-.9 0-1.6-.2-2.3-.5-.7-.3-1.2-.8-1.5-1.4-.4-.7-.6-1.4-.6-2.2zm3.3 0c0 1.2.3 1.8 1 1.8s1-.6 1-1.8v-.6c0-.2-.1-.3-.1-.5-.1-.2-.2-.3-.3-.4-.1-.1-.3-.1-.5-.1s-.4 0-.5.1c-.1.1-.2.2-.3.4-.1.2-.1.4-.1.5-.2.1-.2.3-.2.6z"/><path id="XMLID_3360_" class="st0" d="M201.1 626.5c.4 0 .8 0 1.2.1.4.1.6.1.8.2.1 0 .2.1.3.1v2.2c-.3-.1-.5-.1-.7-.1-.3 0-.5.1-.6.3-.1.2-.2.6-.1 1.1h1.3v2.2h-1.2v3.3h.8v2.2H198v-2.2h.6v-3.3h-.6v-2.2h.6v-1c-.2-1.9.7-2.9 2.5-2.9z"/><path id="XMLID_3358_" class="st0" d="M207.4 626.5c.4 0 .8 0 1.2.1.4.1.6.1.8.2.1 0 .2.1.3.1v2.2c-.3-.1-.5-.1-.7-.1-.3 0-.5.1-.6.3-.1.2-.2.6-.1 1.1h1.3v2.2h-1.2v3.3h.8v2.2h-4.9v-2.2h.6v-3.3h-.6v-2.2h.6v-1c-.2-1.9.7-2.9 2.5-2.9z"/><path id="XMLID_3355_" class="st0" d="M214.5 635.9h.6v2.2h-4.7v-2.2h.6v-3.3h-.6v-2.2h4.1v5.5zm-.6-6.5c.4-.3.6-.8.6-1.3s-.2-1-.6-1.3c-.4-.3-.9-.5-1.5-.5s-1.1.2-1.4.5c-.4.3-.6.7-.6 1.3 0 .6.2 1 .6 1.3.4.3.9.5 1.4.5.7 0 1.1-.1 1.5-.5z"/><path id="XMLID_3353_" class="st0" d="M216.1 632.7c.2-.5.4-.9.7-1.3.3-.4.7-.6 1.2-.9s1-.3 1.6-.3c.7 0 1.3.2 1.9.7l.3-.6h1.3v3.2h-1.7c0-.3-.1-.6-.3-.8-.2-.2-.4-.3-.6-.3-.3 0-.6.2-.8.5-.2.3-.3.8-.3 1.4 0 .2 0 .4.1.5 0 .2.1.3.2.5s.2.3.4.4c.2.1.3.1.5.1s.3 0 .4-.1c.1-.1.2-.1.3-.2.1-.1.1-.2.2-.3 0-.1.1-.2.1-.2v-.1h1.7v2.2c-.3.3-.8.6-1.4.8-.6.2-1.2.3-1.8.3-.8 0-1.4-.2-2-.5-.6-.3-1.1-.8-1.4-1.4-.4-.6-.5-1.4-.5-2.2-.4-.5-.3-1-.1-1.4z"/><path id="XMLID_3350_" class="st0" d="M228.3 635.9h.6v2.2h-4.7v-2.2h.6v-3.3h-.6v-2.2h4.1v5.5zm-.5-6.5c.4-.3.6-.8.6-1.3s-.2-1-.6-1.3c-.4-.3-.9-.5-1.5-.5s-1.1.2-1.4.5c-.4.3-.6.7-.6 1.3 0 .6.2 1 .6 1.3.4.3.9.5 1.4.5.6 0 1.1-.1 1.5-.5z"/><path id="XMLID_3347_" class="st0" d="M229.9 634.9c.2-.3.4-.6.7-.7.3-.2.6-.3 1-.4.4-.1.8-.1 1.1-.1.7 0 1.3.1 1.8.3v-.3c0-.8-.5-1.2-1.5-1.2-.7 0-1.2.2-1.6.7h-1.3v-2.3l.5-.1c.3-.1.8-.2 1.4-.2.6-.1 1.1-.1 1.6-.1h.5c.2 0 .4 0 .7.1.3 0 .6.1.8.1.2.1.5.1.8.3.3.1.5.3.7.4.2.2.3.4.5.7.1.3.2.6.2.9v3.2h.5v2.2H235l-.4-.9c-.2.3-.6.6-1 .7-.4.2-.8.3-1.2.3-.8 0-1.4-.2-2-.6-.5-.4-.8-1-.8-1.7s.1-1 .3-1.3zm3.4 1.4c.1.1.3.2.5.2s.3 0 .4-.1c.1-.1.2-.1.3-.1l.1-.1v-1.1h-.1c-.1 0-.2-.1-.3-.1h-.3c-.2 0-.4.1-.5.2-.1.2-.2.4-.2.6 0 .2 0 .3.1.5z"/><path id="XMLID_3344_" class="st0" d="M252.1 638.1H248v-.9c-.2.3-.6.6-.9.8-.4.2-.8.3-1.2.3-.5 0-1-.1-1.5-.4-.4-.2-.8-.6-1.1-1-.3-.4-.5-.8-.6-1.3-.1-.5-.2-1-.2-1.5s.1-1 .2-1.4c.2-.5.4-.9.6-1.2.3-.4.6-.7 1-.9.4-.2.9-.3 1.4-.3.4 0 .8.1 1.2.2.3.1.7.4 1 .7v-2.7h-.7v-2.2h4.2v9.6h.6v2.2zm-4.1-4.9l-.1-.1c-.1-.1-.2-.2-.4-.2-.2-.1-.3-.1-.5-.1-.3 0-.6.1-.8.4-.2.2-.3.6-.3 1v.4c0 .1 0 .3.1.5 0 .2.1.3.2.4l.3.3c.1.1.3.1.5.1.1 0 .2 0 .3-.1.1 0 .2-.1.3-.2l.2-.2c.1-.1.1-.1.1-.2v-2z"/><path id="XMLID_3341_" class="st0" d="M254.9 637.7c-.6-.4-1.1-.8-1.5-1.4-.4-.6-.5-1.2-.5-1.9 0-.8.2-1.5.5-2.1.3-.6.8-1.1 1.5-1.5.6-.4 1.4-.5 2.3-.5.8 0 1.5.2 2.2.5.6.4 1.1.8 1.4 1.4.3.6.5 1.2.5 1.9v.5c0 .1-.1.2-.1.2h-4.5c0 .5.1.9.3 1.2.2.3.5.5.9.5.3 0 .6-.1.8-.3.2-.2.2-.4.3-.7h2.2v1.6c-.6.4-1.3.7-1.9.8-.6.2-1.3.2-2.1.2-1 .1-1.7 0-2.3-.4zm1.6-4.1h1.6v-.4c0-.1 0-.3-.1-.4 0-.2-.1-.3-.2-.4-.1-.1-.3-.1-.4-.1-.3 0-.5.1-.6.4-.1.2-.2.5-.2.8v.1z"/><path id="XMLID_3339_" class="st0" d="M267 632.6l-.1-.2c0-.1-.1-.2-.1-.3-.1-.1-.1-.2-.1-.2-.1-.1-.2-.2-.4-.3-.2-.1-.3-.1-.5-.1s-.3 0-.5.1c-.1.1-.2.2-.2.4 0 .1.1.3.2.4.1.1.3.2.5.2.2.1.4.1.6.2.2.1.4.1.4.1 1.2.5 1.7 1.3 1.7 2.3 0 1-.2 1.7-.8 2.2-.5.5-1.2.8-2.2.8-1 0-1.7-.2-2.2-.7l-.3.5h-1.3v-2.7h1.6c.1.3.2.6.4.9.2.3.5.4.8.4.2 0 .4 0 .5-.1.2-.1.2-.2.2-.4s-.1-.3-.2-.4c-.1-.1-.3-.2-.5-.3-.2-.1-.4-.2-.7-.2-.3-.1-.5-.2-.8-.3-.3-.1-.5-.3-.7-.4-.2-.2-.4-.4-.5-.7-.1-.3-.2-.6-.2-1 0-.6.1-1 .4-1.4.3-.4.6-.7 1.1-.8.4-.2.9-.3 1.5-.3.4 0 .8 0 1.2.1.4.1.6.1.7.2.1 0 .2.1.2.1l.2-.3h1.2v2.3H267z"/><path id="XMLID_3336_" class="st0" d="M271.3 637.7c-.6-.4-1.1-.8-1.5-1.4-.4-.6-.5-1.2-.5-1.9 0-.8.2-1.5.5-2.1.3-.6.8-1.1 1.5-1.5.6-.4 1.4-.5 2.3-.5.8 0 1.5.2 2.2.5.6.4 1.1.8 1.4 1.4.3.6.5 1.2.5 1.9v.5c0 .1-.1.2-.1.2h-4.5c0 .5.1.9.3 1.2.2.3.5.5.9.5.3 0 .6-.1.8-.3.2-.2.2-.4.3-.7h2.2v1.6c-.6.4-1.3.7-1.9.8-.6.2-1.3.2-2.1.2-.9.1-1.6 0-2.3-.4zm1.6-4.1h1.6v-.4c0-.1 0-.3-.1-.4 0-.2-.1-.3-.2-.4-.1-.1-.3-.1-.4-.1-.3 0-.5.1-.6.4-.1.2-.2.5-.2.8v.1z"/><path id="XMLID_3334_" class="st0" d="M278.6 630.4h3.9v1.2c.2-.4.6-.7 1-.9.4-.2.9-.3 1.4-.3v3h-.8c-.5 0-.9.2-1.2.5-.3.3-.5.8-.5 1.3v.9h1v2.2h-4.9v-2.2h.6v-3.3h-.6v-2.4z"/><path id="XMLID_3332_" class="st0" d="M291 637c-.3.4-.6.7-1.1.9-.4.2-1 .3-1.5.3-1.6 0-2.4-1-2.4-2.9v-2.7h-.6v-2.2h4.1v4.6c0 .3.1.5.2.6.1.2.3.2.5.2s.4-.1.5-.2c.1-.2.2-.4.2-.6v-2.3h-.6v-2.2h4.1v5.5h.5v2.2H291V637z"/><path id="XMLID_3330_" class="st0" d="M300.4 631.5c.3-.4.6-.7 1.1-.9.4-.2 1-.3 1.5-.3 1.6 0 2.4 1 2.4 3v2.7h.6v2.2h-4.1v-4.5c0-.2-.1-.4-.2-.6-.1-.1-.3-.2-.5-.2s-.4.1-.5.2c-.1.2-.2.4-.2.6v2.3h.6v2.2h-4.7V636h.6v-3.3h-.6v-2.2h4.1v1z"/><path id="XMLID_3328_" class="st0" d="M312.4 637.8l-.3.1c-.2.1-.5.2-.8.2-.4.1-.8.1-1.1.1-1.8 0-2.8-1-2.7-2.9v-2.7h-.8v-2.2h.7v-1.7l3.5-.8v2.4h1.1v2.2h-1.1v2.3c0 .2 0 .4.2.5.1.2.3.2.6.2.2 0 .5 0 .8-.1v2.4z"/><path id="XMLID_3326_" class="st0" d="M322.1 638.1v-4.6c0-.5-.3-.7-.8-.7-.2 0-.3 0-.4.1-.1.1-.2.2-.2.4-.1.1-.1.3-.1.5v2.1h.6v2.2h-4.3v-2.2h.5v-3.3h-.5v-2.2h3.7v1.2l.6-.6c.2-.2.4-.3.7-.4.2-.1.5-.2.7-.3.2-.1.5-.1.7-.1.4 0 .8.1 1.1.4.3.2.6.6.8 1.1.7-1 1.5-1.5 2.5-1.5.3 0 .7 0 1 .1.3.1.6.2.8.5.2.2.4.5.6.8.1.3.2.7.2 1.2v3.1h.5v2.2H327v-4.6c0-.2-.1-.4-.2-.6-.1-.1-.3-.2-.5-.2s-.3 0-.4.1c-.1.1-.2.1-.3.3-.1.1-.1.2-.2.4 0 .1-.1.3-.1.5v2h.6v2.2h-3.8z"/><path id="XMLID_3323_" class="st0" d="M331.4 634.2c0-1.3.4-2.2 1.2-2.9.8-.7 1.8-1 3.2-1 1.4 0 2.4.3 3.2 1 .8.7 1.2 1.6 1.2 2.9 0 .8-.2 1.6-.6 2.2-.4.6-.9 1.1-1.5 1.4-.7.3-1.4.5-2.3.5-.9 0-1.6-.2-2.3-.5-.7-.3-1.2-.8-1.5-1.4-.4-.7-.6-1.4-.6-2.2zm3.4 0c0 1.2.3 1.8 1 1.8s1-.6 1-1.8v-.6c0-.2-.1-.3-.1-.5-.1-.2-.2-.3-.3-.4-.1-.1-.3-.1-.5-.1s-.4 0-.5.1c-.1.1-.2.2-.3.4-.1.2-.1.4-.1.5-.2.1-.2.3-.2.6z"/><path id="XMLID_3321_" class="st0" d="M345 635.9h.6v2.2h-4.7v-2.2h.5v-7.3h-.6v-2.3h4.2v9.6z"/><path id="XMLID_3319_" class="st0" d="M350.8 635.9h.6v2.2h-4.7v-2.2h.5v-7.3h-.6v-2.3h4.2v9.6z"/><path id="XMLID_3316_" class="st0" d="M356.6 635.9h.6v2.2h-4.7v-2.2h.6v-3.3h-.6v-2.2h4.1v5.5zm-.5-6.5c.4-.3.6-.8.6-1.3s-.2-1-.6-1.3c-.4-.3-.9-.5-1.5-.5s-1.1.2-1.4.5c-.4.3-.6.7-.6 1.3 0 .6.2 1 .6 1.3.4.3.9.5 1.4.5.6 0 1.1-.1 1.5-.5z"/><path id="XMLID_3314_" class="st0" d="M363.7 637.8l-.3.1c-.2.1-.5.2-.8.2-.4.1-.8.1-1.1.1-1.8 0-2.8-1-2.7-2.9v-2.7h-.8v-2.2h.7v-1.7l3.5-.8v2.4h1.1v2.2h-1.1v2.3c0 .2 0 .4.2.5.1.2.3.2.6.2.2 0 .5 0 .8-.1v2.4z"/><path id="XMLID_3312_" class="st0" d="M372 635.9h.6v2.2h-4.7v-2.2h.5v-7.3h-.6v-2.3h4.2v9.6z"/><path id="XMLID_3309_" class="st0" d="M373.6 634.9c.2-.3.4-.6.7-.7s.6-.3 1-.4c.4-.1.8-.1 1.2-.1.7 0 1.3.1 1.8.3v-.3c0-.8-.5-1.2-1.5-1.2-.7 0-1.2.2-1.5.7H374v-2.3l.5-.1c.3-.1.8-.2 1.4-.2.6-.1 1.1-.1 1.6-.1h.5c.2 0 .4 0 .7.1.3 0 .6.1.8.1.2.1.5.1.8.3.3.1.5.3.7.4.2.2.3.4.5.7.1.3.2.6.2.9v3.2h.5v2.2h-3.4l-.4-.9c-.2.3-.6.6-1 .7s-.8.3-1.2.3c-.8 0-1.4-.2-2-.6-.5-.4-.8-1-.8-1.7-.1-.7 0-1 .2-1.3zm3.5 1.4c.1.1.3.2.5.2s.3 0 .4-.1c.1-.1.2-.1.3-.1l.1-.1v-1.1h-.1c-.1 0-.2-.1-.3-.1h-.3c-.2 0-.4.1-.5.2-.1.2-.2.4-.2.6-.1.2-.1.3.1.5z"/><path id="XMLID_3306_" class="st0" d="M386.8 631.1c.8-.6 1.5-.9 2.2-.9.4 0 .8.1 1.2.2.4.2.7.4.9.6.3.3.5.6.6.9.2.3.3.7.4 1.1.1.4.1.8.1 1.2 0 .4 0 .8-.1 1.2-.1.4-.2.7-.4 1.1-.2.3-.4.6-.7.9s-.6.5-1 .6c-.4.1-.8.2-1.2.2-.4 0-.7-.1-1-.2-.2-.1-.5-.3-1-.6l-.3.7h-3.2v-9.6h-.6v-2.2h4.1v4.8zm0 4.1l.1.1c.1.1.2.2.4.2.2.1.3.1.5.1.3 0 .6-.1.8-.4.2-.2.3-.6.3-1v-.4c0-.1 0-.3-.1-.5 0-.2-.1-.3-.2-.4l-.3-.3c-.1-.1-.3-.1-.5-.1-.1 0-.2 0-.4.1-.1 0-.2.1-.3.2l-.2.2c-.1.1-.1.1-.1.2v2z"/><path id="XMLID_3303_" class="st0" d="M392.9 634.2c0-1.3.4-2.2 1.2-2.9.8-.7 1.8-1 3.2-1 1.4 0 2.4.3 3.2 1 .8.7 1.2 1.6 1.2 2.9 0 .8-.2 1.6-.6 2.2-.4.6-.9 1.1-1.5 1.4-.7.3-1.4.5-2.3.5-.9 0-1.6-.2-2.3-.5-.7-.3-1.2-.8-1.5-1.4-.4-.7-.6-1.4-.6-2.2zm3.3 0c0 1.2.3 1.8 1 1.8s1-.6 1-1.8v-.6c0-.2-.1-.3-.1-.5-.1-.2-.2-.3-.3-.4-.1-.1-.3-.1-.5-.1s-.4 0-.5.1c-.1.1-.2.2-.3.4-.1.2-.1.4-.1.5-.2.1-.2.3-.2.6z"/><path id="XMLID_3301_" class="st0" d="M402.5 630.4h3.9v1.2c.2-.4.6-.7 1-.9.4-.2.9-.3 1.4-.3v3h-.8c-.5 0-.9.2-1.2.5-.3.3-.5.8-.5 1.3v.9h1v2.2h-4.9v-2.2h.6v-3.3h-.6v-2.4z"/><path id="XMLID_3299_" class="st0" d="M415 637c-.3.4-.6.7-1.1.9-.4.2-1 .3-1.5.3-1.6 0-2.4-1-2.4-2.9v-2.7h-.6v-2.2h4.1v4.6c0 .3.1.5.2.6.1.2.3.2.5.2s.4-.1.5-.2c.1-.2.2-.4.2-.6v-2.3h-.6v-2.2h4.1v5.5h.5v2.2H415V637z"/><path id="XMLID_3297_" class="st0" d="M425.6 638.1v-4.6c0-.5-.3-.7-.8-.7-.2 0-.3 0-.4.1-.1.1-.2.2-.2.4-.1.1-.1.3-.1.5v2.1h.6v2.2h-4.3v-2.2h.5v-3.3h-.5v-2.2h3.7v1.2l.6-.6c.2-.2.4-.3.7-.4.2-.1.5-.2.7-.3.2-.1.5-.1.7-.1.4 0 .8.1 1.1.4.3.2.6.6.8 1.1.7-1 1.5-1.5 2.5-1.5.3 0 .7 0 1 .1.3.1.6.2.8.5.2.2.4.5.6.8.1.3.2.7.2 1.2v3.1h.5v2.2h-3.8v-4.6c0-.2-.1-.4-.2-.6-.1-.1-.3-.2-.5-.2s-.3 0-.4.1c-.1.1-.2.1-.3.3-.1.1-.1.2-.2.4 0 .1-.1.3-.1.5v2h.6v2.2h-3.8z"/></g><path id="XMLID_3295_" class="st0" d="M56.2 552h404v3.8h-404z"/><path id="XMLID_3294_" class="st0" d="M56.2 539.6h404v3.8h-404z"/><path id="XMLID_3293_" class="st0" d="M56.2 656h404v3.8h-404z"/></g></g><g><path class="st0" d="M43.8 102.3c2.5 0 4.4-.1 5.7-.4 1.3-.3 1.9-1 1.9-2.1V47.4h-7.6V44h34.9l8 25.8L95.3 44h36.4v3.4h-7.6v54.9h7.6v3.4H87.6v-3.4h7.6V56.5l-16.1 49.2h-8l-16-48.6v42.5c0 1.2.6 2 1.9 2.3 1.3.3 3.2.4 5.7.4v3.4h-19v-3.4z"/><path class="st1" d="M156.2 74.8c0-2.9.3-5.7.9-8.4.6-2.7 1.5-5.3 2.8-7.7 1.3-2.4 2.9-4.6 4.9-6.6 2-2 4.3-3.7 7.1-5.2s5.9-2.6 9.5-3.4c3.6-.8 7.7-1.2 12.2-1.2 4.5 0 8.6.4 12.2 1.2 3.6.8 6.8 1.9 9.6 3.4s5.1 3.2 7.1 5.2 3.6 4.2 4.8 6.6c1.2 2.4 2.2 5 2.8 7.7.6 2.7.9 5.5.9 8.4 0 2.9-.3 5.7-.9 8.4-.6 2.7-1.5 5.3-2.8 7.7-1.2 2.4-2.9 4.6-4.8 6.6-2 2-4.3 3.7-7.1 5.2s-6 2.6-9.6 3.4c-3.6.8-7.7 1.2-12.2 1.2-4.5 0-8.6-.4-12.2-1.2-3.6-.8-6.8-1.9-9.5-3.4-2.8-1.5-5.1-3.2-7.1-5.2s-3.6-4.2-4.9-6.6c-1.3-2.4-2.2-5-2.8-7.7-.6-2.6-.9-5.5-.9-8.4zm37.3 29.6c1.5 0 2.8-.5 3.8-1.4 1-.9 1.8-2.5 2.4-4.7.6-2.3 1-5.3 1.3-9.1.2-3.8.4-8.6.4-14.4 0-5.8-.1-10.6-.4-14.4-.2-3.8-.7-6.8-1.3-9.1-.6-2.3-1.4-3.8-2.4-4.7-1-.9-2.3-1.4-3.8-1.4s-2.8.5-3.8 1.4c-1 .9-1.8 2.5-2.4 4.7-.6 2.3-1 5.3-1.3 9.1-.2 3.8-.4 8.6-.4 14.4 0 5.8.1 10.6.4 14.4.2 3.8.7 6.8 1.3 9.1.6 2.3 1.4 3.8 2.4 4.7 1.1.9 2.3 1.4 3.8 1.4zM242.2 47.4h-6.4V44h46.5v3.4h-7.7l14.7 38.1 13.2-35.4c.1-.3.1-.5.1-.7 0-.4-.2-.7-.6-.9-.4-.2-.9-.4-1.7-.6-.7-.2-1.6-.3-2.5-.3-1-.1-2-.1-3.2-.1V44h20.3v3.4c-2.6 0-4.4.2-5.6.6-1.2.4-2 1.1-2.4 2.1l-20.6 55.6h-18.7l-25.4-58.3zM318.7 102.3h7.6V47.4h-7.6V44H364v3.4h-7.6v54.9h7.6v3.4h-45.3v-3.4zM372.6 102.3h7.6V47.4h-7.6V44h67.5v21.2h-3L425 47.4h-14.7v25.9h6.6l5.8-14.4h2.8v32.2h-2.8l-5.8-14.5h-6.6v25.6h16.3l12.6-19.8h3v23.3h-69.6v-3.4z"/></g><g><g id="XMLID_498_"><path id="XMLID_509_" class="st0" d="M47.9 187.1c2.1 0 3.8-.1 4.9-.4 1.1-.3 1.9-.8 2.2-1.6l20.4-50.9h17.4l23.8 52.9h6.9v3.1H78.6v-3.1h7.6l-5.5-13.6H63.4L58.8 185v.3c0 .4.2.7.5.9.4.2.9.4 1.5.6.6.1 1.4.2 2.3.3.9.1 1.9.1 2.9.1v3.1H47.9v-3.2zm31.7-16.8L72 151.6l-7.3 18.7h14.9z"/><path id="XMLID_507_" class="st0" d="M52.6 244.5c0-4.4.7-8.4 2-12.2 1.4-3.8 3.4-7 6.1-9.8 2.7-2.8 6.1-4.9 10.2-6.5 4.1-1.6 8.9-2.4 14.4-2.4 3.9 0 7.7.6 11.4 1.8 3.7 1.2 7.1 3.2 10.3 6.1l4.9-7.3h2.7v25.7h-3.1c-.9-4.2-2.2-7.7-3.9-10.4-1.6-2.8-3.4-5-5.3-6.6-1.9-1.6-4-2.8-6-3.5-2.1-.7-4.1-1-6-1-.9 0-1.8.1-2.7.2-.9.1-1.7.5-2.6 1-.8.5-1.6 1.3-2.3 2.2-.7 1-1.3 2.3-1.8 4-.5 1.7-.9 3.7-1.2 6.2-.3 2.5-.5 5.4-.5 8.9 0 5.2.1 9.6.3 13.2.2 3.6.6 6.5 1.1 8.8.5 2.2 1.3 3.8 2.1 4.8.9 1 2 1.5 3.3 1.5 1.1 0 1.9-.2 2.5-.6.6-.4 1.1-1.1 1.3-2 .3-.9.5-2.1.5-3.6.1-1.5.1-3.3.1-5.5v-11.2H83V243h37.6v3.1h-6.4v26.5h-2.5c-1.3-1.3-2.6-2.2-3.9-2.7-1.3-.5-2.7-.8-4.2-.8-1.4 0-2.9.2-4.3.5-1.5.3-3 .7-4.7 1.1-1.9.4-3.9.9-6 1.3s-4.5.6-7 .6c-4.5 0-8.6-.7-12.2-2.2-3.6-1.5-6.8-3.5-9.3-6.1-2.6-2.6-4.6-5.5-6-9-.8-3.2-1.5-6.9-1.5-10.8z"/><path id="XMLID_505_" class="st0" d="M65.3 349.1h6.9v-49.8h-6.9v-3.1h41.1v3.1h-6.9v49.8h6.9v3.1H65.3v-3.1z"/><path id="XMLID_503_" class="st0" d="M54 406.5c0-4.4.7-8.4 2.1-12.2 1.4-3.8 3.5-7 6.3-9.8 2.8-2.8 6.3-4.9 10.5-6.5 4.2-1.6 9.1-2.4 14.7-2.4 4.1 0 7.8.6 11.3 1.9 3.5 1.2 6.7 3.2 9.6 6l4.9-7.3h2.7v25.7H113c-.9-4.2-2.2-7.7-3.9-10.4-1.6-2.8-3.4-5-5.3-6.6-1.9-1.6-4-2.8-6-3.5-2.1-.7-4.1-1-6-1-.9 0-1.8.1-2.7.2-.9.1-1.7.5-2.6 1-.8.5-1.6 1.3-2.3 2.2-.7 1-1.3 2.3-1.8 4-.5 1.7-.9 3.7-1.2 6.2-.3 2.5-.5 5.4-.5 8.9 0 3.6.1 6.8.3 9.5.2 2.7.6 5.1 1 7.1.5 2 1 3.7 1.7 5 .7 1.3 1.5 2.4 2.4 3.2.9.8 1.9 1.4 3.1 1.7 1.1.3 2.4.5 3.7.5 2.6 0 5.1-.4 7.4-1.2 2.3-.8 4.3-2.1 6.1-3.8 1.8-1.7 3.2-4 4.4-6.7 1.1-2.7 1.9-6 2.2-9.9h3.5c-.2 3.7-.9 7.2-2 10.4s-2.8 6-5.1 8.4c-2.3 2.4-5.2 4.3-8.9 5.7-3.6 1.4-8 2.1-13.2 2.1-5.1 0-9.6-.7-13.8-2.1-4.1-1.4-7.6-3.3-10.5-5.8-2.9-2.5-5.2-5.5-6.7-8.9-1.5-3.6-2.3-7.4-2.3-11.6z"/><g id="XMLID_499_"><g id="XMLID_500_"><path id="XMLID_501_" class="st0" d="M85.9 516.5c-1.9 0-3.5-.6-4.7-1.8-1.2-1.2-1.8-2.6-1.8-4.2s.3-3.4.9-5.3c.6-1.9 1.3-3.9 2.1-5.9.4-1 .8-1.9 1.1-2.9.3-1 .6-2 .8-3.1-.7.8-1.4 1.5-2.1 2.3-.7.7-1.4 1.6-2 2.5-.6.8-1.3 1.8-2.1 2.8-.8 1-1.7 2-2.7 2.9-1 .9-2 1.7-3.1 2.3-1.1.6-2.1.9-3.2.9-.9 0-1.8-.2-2.5-.6-.8-.4-1.4-.9-2-1.6-.6-.6-1-1.4-1.4-2.2-.3-.8-.5-1.6-.5-2.5 0-1.6.5-2.9 1.6-3.9 1-1 2.3-1.8 3.8-2.3 1.5-.6 3.1-1 4.7-1.2 1.6-.2 3-.4 4.1-.5 1-.1 2-.3 3-.5s2-.5 3-.8c-1.9-.6-3.9-1-6-1.3-1.3-.2-2.8-.4-4.5-.7-1.7-.3-3.2-.7-4.6-1.3-1.4-.6-2.6-1.3-3.6-2.3-1-1-1.5-2.2-1.5-3.8 0-.9.2-1.7.5-2.5s.8-1.5 1.4-2.1c.6-.6 1.3-1.1 2.1-1.5.8-.4 1.6-.6 2.4-.6 1 0 2 .3 3.1 1s2.1 1.5 3.1 2.4c1 .9 1.9 1.9 2.8 3 .9 1 1.6 1.9 2.1 2.6.7.8 1.4 1.7 2 2.4.7.8 1.4 1.5 2.1 2.3l-.9-3c-.3-1-.7-2-1.1-3-.8-2.1-1.5-4-2.1-5.9-.6-1.9-.9-3.6-.9-5.3 0-1.6.6-3 1.8-4.2 1.2-1.2 2.7-1.8 4.7-1.8 1.9 0 3.5.6 4.7 1.8 1.2 1.2 1.8 2.6 1.8 4.2 0 1.7-.3 3.4-1 5.3-.6 1.9-1.4 3.9-2.2 5.9-.8 1.9-1.4 3.9-1.9 6 .8-.7 1.5-1.5 2.2-2.2.7-.8 1.4-1.6 2-2.4l2.4-3.3c.8-1.1 1.7-2.1 2.6-2.9.9-.9 1.9-1.6 2.9-2.1s2.1-.8 3.1-.8c.9 0 1.7.2 2.5.6.8.4 1.5.9 2.1 1.6.6.6 1 1.4 1.4 2.2.3.8.5 1.6.5 2.5 0 1.5-.5 2.8-1.6 3.7-1.1 1-2.3 1.7-3.8 2.3-1.5.6-3 1-4.7 1.3-1.6.3-3 .5-4.1.7-1 .2-2.1.3-3.1.5s-2 .5-3.1.8c1 .3 2.1.5 3.1.7 1 .2 2 .4 3.1.5 1.2.2 2.7.5 4.3.8 1.6.3 3.2.7 4.6 1.3 1.5.6 2.7 1.4 3.7 2.3 1 1 1.5 2.2 1.5 3.7 0 .9-.2 1.7-.5 2.5s-.8 1.5-1.4 2.2c-.6.6-1.3 1.1-2.1 1.5-.8.4-1.6.6-2.4.6-1.1 0-2.2-.3-3.4-1-1.1-.7-2.1-1.5-3.1-2.5s-1.8-2-2.6-3-1.4-1.9-2-2.7c-.6-.8-1.3-1.7-2-2.4-.7-.8-1.5-1.5-2.2-2.2.4 2.1 1 4.1 1.8 5.9.8 2.1 1.5 4 2.2 5.9.6 1.9 1 3.7 1 5.3 0 1.6-.6 3-1.8 4.2-.9 1.3-2.5 1.9-4.4 1.9z"/></g></g></g></g></svg>