<svg version="1.1" id="Layer_1" xmlns="http://www.w3.org/2000/svg" xmlns:xlink="http://www.w3.org/1999/xlink" x="0" y="0" width="510" height="710" xml:space="preserve"><style>.st1,.st2{clip-path:url(#XMLID_144_);fill:#f15b48}.st2{clip-path:url(#XMLID_145_)}.st6{fill:#b3b3b3}.st7{fill:#f48270}.st8{clip-path:url(#XMLID_146_);fill:#f15b48}.st10,.st11,.st9{clip-path:url(#XMLID_147_);fill:#f15b48}.st10,.st11{clip-path:url(#XMLID_148_)}.st11{clip-path:url(#XMLID_149_)}.st12{fill:#db1f26}.st13{fill:#ee3725}.st14{fill:#fff}.st15{fill:#2887bd}</style><radialGradient id="XMLID_143_" cx="297" cy="212" r="480.459" gradientUnits="userSpaceOnUse"><stop offset="0" stop-color="#fff"/><stop offset="1" stop-color="#e1dcd2"/></radialGradient><path id="XMLID_141_" fill="url(#XMLID_143_)" d="M5 1.4h500v707.1H5z"/><defs><path id="XMLID_130_" d="M263.9 109.7s9.9-32.5 13.2-41.5c3.3-9 74.5-18.6 119.5 15.9s52.3 80.8 50.8 130.3c-1.5 49.5-21.8 69.8-21.8 69.8s-7.5-96-54-138-107.7-36.5-107.7-36.5z"/></defs><use xlink:href="#XMLID_130_" overflow="visible" fill="#f48270"/><clipPath id="XMLID_144_"><use xlink:href="#XMLID_130_" overflow="visible"/></clipPath><path id="XMLID_140_" class="st1" d="M268.9 143.7C264.2 140.5 296 6.3 299 7.2c2.9.9-26.9 138.6-30.1 136.5z"/><path id="XMLID_139_" class="st1" d="M289 154.8c-4.9-2.8 17.5-138.9 20.5-138.2 3.1.7-17.1 140.1-20.5 138.2z"/><path id="XMLID_138_" class="st1" d="M308.8 156.9c-5-2.6 12.7-139.4 15.8-138.8 3 .6-12.4 140.6-15.8 138.8z"/><path id="XMLID_137_" class="st1" d="M334.9 162.6c-5.1-2.3 4.1-140 7.2-139.5 3 .3-3.7 141.1-7.2 139.5z"/><path id="XMLID_136_" class="st1" d="M355.2 175.3c-5.2-2.2 2.4-140 5.5-139.6 3 .4-2 141.2-5.5 139.6z"/><path id="XMLID_135_" class="st1" d="M378.4 177.1c-5.3-2-4.8-139.9-1.7-139.7 3.1.1 5.3 141 1.7 139.7z"/><path id="XMLID_134_" class="st1" d="M402.9 193.6c-5.4-1.6-15.1-139.2-12-139.2 3-.1 15.7 140.2 12 139.2z"/><path id="XMLID_133_" class="st1" d="M422 213.3c-5.4-1.6-15.1-139.2-12-139.2 3 0 15.7 140.3 12 139.2z"/><path id="XMLID_132_" class="st1" d="M436.3 232.2c-5.4-1.6-15.1-139.2-12-139.2 3.1 0 15.7 140.3 12 139.2z"/><path id="XMLID_131_" class="st1" d="M450.3 263.2c-5.4-1.6-15.1-139.2-12.1-139.2 3.1-.1 15.8 140.2 12.1 139.2z"/><defs><path id="XMLID_120_" d="M57.8 162.5s9.9-59 15.1-68.7C78.2 84 88.2 57.3 139.5 57c43.2-.3 64.5 31.9 67.2 37.9 6.4 13.9 4.6 71.5-6.1 86.7-10.7 15.1-29.2-41.3-56.2-45.8-27-4.6-86.6 26.7-86.6 26.7z"/></defs><use xlink:href="#XMLID_120_" overflow="visible" fill="#f48270"/><clipPath id="XMLID_145_"><use xlink:href="#XMLID_120_" overflow="visible"/></clipPath><path id="XMLID_129_" class="st2" d="M67.3 170.8c-4.8-2.9 20-138.6 23-137.8 3.1.7-19.6 139.7-23 137.8z"/><path id="XMLID_128_" class="st2" d="M84.8 149.2c-4.8-2.9 20.4-138.5 23.4-137.8 2.9.8-20.1 139.8-23.4 137.8z"/><path id="XMLID_127_" class="st2" d="M105.6 146.4c-5-2.6 12.2-139.5 15.2-138.9 3.1.6-11.7 140.7-15.2 138.9z"/><path id="XMLID_126_" class="st2" d="M123 142.7c-5-2.6 11-139.6 14-139 3 .5-10.6 140.8-14 139z"/><path id="XMLID_125_" class="st2" d="M137.9 142.8c-5.1-2.5 9.4-139.7 12.4-139.2s-9 140.9-12.4 139.2z"/><path id="XMLID_124_" class="st2" d="M155.5 143c-5.2-2.2 1.1-140 4.2-139.7 3.1.4-.6 141.2-4.2 139.7z"/><path id="XMLID_123_" class="st2" d="M202.8 171.7c-5.3-1.9-7.1-139.8-4-139.7 3.1.1 7.6 141 4 139.7z"/><path id="XMLID_122_" class="st2" d="M189.5 160.3c-5.3-1.9-7.1-139.8-4-139.7 3.1.2 7.6 141 4 139.7z"/><path id="XMLID_121_" class="st2" d="M174.4 154c-5.3-1.9-7.1-139.8-4-139.7 3.1.1 7.6 141 4 139.7z"/><path id="XMLID_119_" d="M34.6 364.5c0-26.7 40-49.9 156-53.7s253.7-8.3 253.7 51.7c0 38-63.7 62.5-150.6 62.3-74.4-.2-259.1 7.7-259.1-60.3z" fill="#e8e8e8"/><path id="XMLID_118_" d="M73.5 360.8c0-21.8 32.5-40.6 126.9-43.7 94.4-3.1 206.4-6.7 206.4 42.1 0 30.9-51.8 50.8-122.5 50.7-60.5-.2-210.8 6.2-210.8-49.1z" fill="#d2d0cf"/><path id="XMLID_117_" d="M119.7 359.9c0-16.3 24.4-30.4 95.1-32.7 70.7-2.3 154.6-5 154.6 31.5 0 23.2-38.8 38.1-91.8 38-45.4-.1-157.9 4.7-157.9-36.8z" fill="#c4c2c2"/><path id="XMLID_116_" class="st6" d="M171 366.1c0-8.9 13.4-16.7 52.1-18 38.8-1.3 84.8-2.8 84.8 17.3 0 12.7-21.3 20.9-50.3 20.8-24.9 0-86.6 2.6-86.6-20.1z"/><path id="XMLID_115_" class="st7" d="M102.3 217.6s3.5-32.8 11.7-33.6c50.6-4.8 48.4-59.4 50.6.5.8 21.1-62.3 33.1-62.3 33.1z"/><path id="XMLID_114_" class="st7" d="M244.2 286.2c0-31 1.2-86.3-52.1-97.5-14.5-3-24.5 15.5-34.3 29.3-9.7 13.7 86.4 68.2 86.4 68.2z"/><g><defs><path id="XMLID_110_" d="M102.3 217.6s3.5-32.8 11.7-33.6c50.6-4.8 48.4-59.4 50.6.5.8 21.1-62.3 33.1-62.3 33.1z"/></defs><clipPath id="XMLID_146_"><use xlink:href="#XMLID_110_" overflow="visible"/></clipPath><path id="XMLID_113_" class="st8" d="M104.6 237.8c-4.6-2 17.5-100.3 20.3-99.8 2.9.5-17.1 101.2-20.3 99.8z"/><path id="XMLID_112_" class="st8" d="M120.9 237.9c-4.8-1.5 6.3-101.6 9.2-101.5 2.9.2-5.9 102.5-9.2 101.5z"/><path id="XMLID_111_" class="st8" d="M133.2 234.7c-4.8-1.5 6.3-101.6 9.2-101.5 2.8.3-6 102.6-9.2 101.5z"/></g><g><defs><path id="XMLID_105_" d="M244.2 286.2c0-31 1.2-86.3-52.1-97.5-14.5-3-24.5 15.5-34.3 29.3-9.7 13.7 86.4 68.2 86.4 68.2z"/></defs><clipPath id="XMLID_147_"><use xlink:href="#XMLID_105_" overflow="visible"/></clipPath><path id="XMLID_109_" class="st9" d="M198.2 264.1c-5 0-23.7-99-20.9-99.7 2.7-.7 24.3 99.7 20.9 99.7z"/><path id="XMLID_108_" class="st9" d="M210.9 260c-5 0-23.7-99-20.9-99.7 2.8-.7 24.4 99.7 20.9 99.7z"/><path id="XMLID_107_" class="st9" d="M225.4 274.5c-5 0-23.7-99-20.9-99.7 2.7-.6 24.3 99.7 20.9 99.7z"/><path id="XMLID_106_" class="st9" d="M240.4 284.6c-5 0-23.7-99-20.9-99.7 2.7-.7 24.3 99.7 20.9 99.7z"/></g><path id="XMLID_104_" class="st7" d="M78.4 304.5s15-29.8 21.8-33.5c2.9-1.6 26.5 7.7 45.8 6.1 26-2.1 49.5-14.2 53.6-6.1 7.1 14-24.3 80.7-42.3 82.2-18.2 1.5-78.9-48.7-78.9-48.7z"/><path id="XMLID_103_" class="st7" d="M306.4 284.2s31.5 3.4 57-23.1c25.5-26.4 27.8-60.2 27.8-60.2s19.5 76.5-15 114-69.8 38.3-69.8 38.3v-69z"/><g><defs><path id="XMLID_98_" d="M78.4 304.5s15-29.8 21.8-33.5c2.9-1.6 26.5 7.7 45.8 6.1 26-2.1 49.5-14.2 53.6-6.1 7.1 14-24.3 80.7-42.3 82.2-18.2 1.5-78.9-48.7-78.9-48.7z"/></defs><clipPath id="XMLID_148_"><use xlink:href="#XMLID_98_" overflow="visible"/></clipPath><path id="XMLID_102_" class="st10" d="M72.9 333.7c-3.9-3.2 44.3-91.7 46.9-90.5 2.6 1.3-44.3 92.7-46.9 90.5z"/><path id="XMLID_101_" class="st10" d="M92.6 335c-4.1-3 38.5-94.3 41.2-93.2 2.6 1.2-38.5 95.3-41.2 93.2z"/><path id="XMLID_100_" class="st10" d="M114.2 336.9c-4.3-2.5 28.4-97.8 31.2-97 2.8.9-28.2 98.8-31.2 97z"/><path id="XMLID_99_" class="st10" d="M140.3 338.7c-4.7-1.8 13.6-100.9 16.4-100.5 2.9.4-13.2 101.8-16.4 100.5z"/></g><g><defs><path id="XMLID_93_" d="M306.4 284.2s31.5 3.4 57-23.1c25.5-26.4 27.8-60.2 27.8-60.2s19.5 76.5-15 114-69.8 38.3-69.8 38.3v-69z"/></defs><clipPath id="XMLID_149_"><use xlink:href="#XMLID_93_" overflow="visible"/></clipPath><path id="XMLID_97_" class="st11" d="M339.3 359.2c-5.5-1.3-21.5-138.3-18.4-138.5 3-.2 22.1 139.4 18.4 138.5z"/><path id="XMLID_96_" class="st11" d="M355.7 345.7c-5.5-1-28.8-137-25.8-137.3 3.1-.3 29.6 138.1 25.8 137.3z"/><path id="XMLID_95_" class="st11" d="M371.2 336.4c-5.6-.9-33.4-136-30.4-136.4 3.1-.4 34.2 137 30.4 136.4z"/><path id="XMLID_94_" class="st11" d="M388.4 321.7c-5.6-.4-44.9-132.6-41.9-133.3 2.9-.7 45.7 133.5 41.9 133.3z"/></g><path id="XMLID_92_" class="st12" d="M57.8 162.5c2.2-9 24.3-53.2 71.7-56.7 47.4-3.5 75 23.8 78.7 45.1 10 57.5-46.3 64.8-39.3 67.1 6.9 2.3 65.6-.2 74.3 59.9 8 55.5-29.9 102.4-93.5 107-63.6 4.6-90.7-26.9-91.9-31.5-1.2-4.6 19.8-52.9 24-52.5 4.4.5 54.4 40.9 77.4-1 28-51-47-48.4-51.6-48.4-4.6 0-8-37-3.4-38.1 4.6-1.2 51.1-20.2 45.5-37.5-9-28-40-13-49.5 7-1.7 3.4-43.8-14.9-42.4-20.4z"/><path class="st12" d="M424.1 171.4c-43.5-73-155.2-66.2-160.2-61.8-2.8 2.4-.8 72 0 137.8.8 69.7-2.2 130.3 0 131.2 17 6.7 60.5 16.5 123.1-18.9 52.5-29.6 77.9-119.8 37.1-188.3zm-98.2 151.8c-2.6-.1-4.2-33.5-3.8-75.7.5-43.2 1.9-86.2 3.6-86.7 5.2-1.5 54.9 20.8 54.5 80.9-.4 60.1-49.1 81.8-54.3 81.5z"/><path id="XMLID_89_" class="st13" d="M229.9 277.1c.1-23.3-5-37.8-32.6-53.7-13.6-4.2-25.6-4.4-28.5-5.3-1.7-.6-14.8 1.1-9.8-1.7 4.1-2.2 44.9-13.9 34.9-71.4-2.1-12.1-12-26.2-28.8-35.4-10.2-3.2-22.1-4.7-35.6-3.7-47.4 3.5-69.5 47.7-71.7 56.7-.6 2.5 8.1 7.8 17.7 12.5 5.6 2 9.9 3 10.4 2 8.2-17.2 33.3-27.7 50.6-20.3 7.5 3.2 9.4 7.8 13.1 19.3 5.6 17.3-40.9 36.3-45.5 37.5-3.5.9-2.4 21.9.3 32.3 10.4.6 28.3-.3 39.4 4.7 17.3 7.7 30.8 21.2 15.3 49.5-15.4 28.1-43 19.2-60.8 10.1-6.7-2.2-13.5-10.9-16.6-9.1-6.7.8-25 48.3-24 52.5.6 2.3 7.9 11.6 23.2 19.6 13.9 4.7 31.8 7.6 54.4 5.9 63.7-4.8 94.4-48.4 94.6-102z"/><path class="st13" d="M372.7 353.8c52.6-29.7 78-119.9 37.2-188.3-12.9-21.7-31.9-36.3-52.2-46-44.4-16.3-90.6-12.5-93.8-9.7-2.8 2.4-.8 72 0 137.8.7 62.9-1.7 118.5-.5 129.3 21.9 4.6 59.6 5 109.3-23.1zm-64.8-112.3c.5-43.2 1.9-86.2 3.6-86.7 1.6-.5 7.5 1.4 14.9 5.9 7.7.1 54.3 22.8 53.9 81-.4 60.1-49.2 81.7-54.4 81.5-.9 0-8.4 4.4-12.4 2.2-2.9-1.6-4.1-10.5-4.2-19.5 0-2.5-1.9-22.2-1.4-64.4z"/><path id="XMLID_86_" class="st14" d="M82.5 131.6c-3.9 4.8-18.5 24.9-19.6 28.6-1.1 3.8 4.6 8.1 7.6 8.5 3 .4 3-5.6 1.1-9-1.9-3.4 18.8-37.8 10.9-28.1z"/><path id="XMLID_85_" class="st14" d="M177.6 129.9c5.1-1.3 12 11.3 12.7 24.1.8 12.8-3.3 23-4.4 24.1-1.1 1.1 1.9-9.4-1.4-27.6-2.1-12.8-13.1-19.1-6.9-20.6z"/><path id="XMLID_84_" class="st14" d="M106.9 220.4c1.4-4.1 9-6.8 12.4-2.8 3.3 4-15.5 12-12.4 2.8z"/><path id="XMLID_83_" class="st14" d="M82.5 314.3c3.3 1 9.1 7.9 24 10.9 15 3 25.8 3.8 35.6 0s13.2-9 15-6c1.8 3-12.4 14.6-21 16.5s-20.5 4-37.8-1.5c-13.5-4.3-20-5.8-21.5-8.5-1.4-2.7 2.6-12.3 5.7-11.4z"/><path id="XMLID_82_" class="st14" d="M272.1 115.4c2.4-.8 20.5-2 40 0s50.4 14.3 50.3 17.5c-.1 3.4-29.5-7.5-58.8-7.3-19.3.2-27.8 2.3-30.5 1.5-2.4-.6-3.8-10.7-1-11.7z"/><path id="XMLID_81_" class="st14" d="M278.9 356.5c3.5-3.2 11.5.5 12 3.5s-.5 8-4 10-16.7-5.6-8-13.5z"/><path id="XMLID_80_" class="st14" d="M330.3 350.5c1.9-.7 21.4-5.4 44.5-18.3 17.4-9.7 24.8-15.7 25.7-15.4 1.4.4-9 15.4-26.2 26.4-17.7 11.3-34.3 17.2-38.8 18-4.4.8-7.2-9.9-5.2-10.7z"/><g><path class="st13" d="M131.5 412.3h11.7l34.4 85.2v-85.2h13.9v128.8h-11.7c-7.5-18-15.9-39.2-34.4-85.2v85.2h-13.9V412.3zm8.8 16.1c14.5 35.9 28.5 71.6 43 107.4h2.9V417.5H183v107.4l-43.2-107.4h-3.1v118.3h3.6V428.4zM256.4 470v14h-25.2v43.2H269v13.9h-51.6V412.3H269v13.8h-37.8V470h25.2zm-33.6-52.5v118.3h40.9v-3.2h-37.6v-53.9h25.2v-3.2h-25.2V421h37.6v-3.4h-40.9zM344.7 541.1l-14.1-80.2c-4.8 26.9-9.9 54.6-14.3 80.2h-11.5l-28.1-128.8h13.9l18.9 85.6c5-28.9 10.3-58.1 14.9-85.6h12l14.9 85.6 18.3-85.6H384l-27.7 128.8h-11.6zm-12.8-123.6H329l-18.7 107.9-23.9-107.9h-3.2L309 535.8h2.7l18.9-106 18.7 106h2.9l25.4-118.3H374l-23.1 107.9-19-107.9zM135.1 557.9l8 31.1 8-31.1h4.1v43h-4.7v-22.2l-5.5 22.2h-3.8l-5.6-21.9v21.9h-4.7v-43h4.2zm8.6 41.2l8.6-34.1v34.1h1.2v-39.5h-1.1l-9.4 36.5-9.3-36.5h-1v39.5h1.1v-34l8.7 34h1.2zM181.1 589.2c0 6.9-3 12-10.5 12-7.4 0-10.6-5.3-10.6-12v-19.7c0-6.5 3.3-12 10.6-12s10.5 5.5 10.5 12v19.7zm-19.3 0c0 5.7 2.6 10.3 8.8 10.3 6.3 0 8.7-4.5 8.7-10.3v-19.7c0-5.5-2.6-10.4-8.7-10.4s-8.8 4.8-8.8 10.4v19.7zm1.1-19.1c0-4.8 2-9.7 7.6-9.7 5.8 0 7.6 4.7 7.6 9.8v18.7c0 5.1-1.8 9.4-7.6 9.4s-7.6-4.6-7.6-9.6v-18.6zm13.5 0c0-4.1-1.3-8-5.8-8-4.3 0-5.9 3.9-5.9 7.9v18.6c0 4.1 1.5 7.9 5.9 7.9 4.5 0 5.8-3.6 5.8-7.7v-18.7zM193.3 600.8l-10-43h4.8l7.1 30.6 6.9-30.6h4.8l-9.8 43h-3.8zm-7.8-41.2l9.2 39.5h1l9-39.5h-1.2l-8.3 36.7-8.5-36.7h-1.2zM215.9 557.9v43h-4.7v-43h4.7zm-2.9 41.2h1.2v-39.5H213v39.5zM235.6 577.1v4.7h-8.4v14.4h12.6v4.7h-17.2v-43h17.2v4.6h-12.6v14.7h8.4zm-11.3 22H238V598h-12.6v-18h8.4v-1.1h-8.4v-18.2H238v-1.1h-13.6v39.5zM254.6 577.7c4.1 3.7 8.3 7.5 8.3 12.8 0 6.8-3.3 10.7-10.2 10.7-8 0-10-5.2-10-15h4.7c0 5.9.6 10.4 5.4 10.4 3.7 0 5.5-2.3 5.5-6 0-3.4-3.4-6.6-6.1-8.8l.1.1c-4.3-3.1-9.2-8-9.2-13.9s3.8-10.5 9.9-10.5c8.6 0 9.5 6.4 9.5 14.5h-4.7c0-5-.3-9.8-4.8-9.8-3.5 0-5.3 2.8-5.3 6.2 0 3.4 3.5 6.3 6.9 9.3zM244.4 588c0 7 1.8 11.5 8.3 11.5 5.7 0 8.5-3.3 8.5-8.9 0-9.3-15.2-13.6-15.2-22.2 0-4.3 2.4-8 7.1-8 6.2 0 6.6 5.5 6.6 9.9h1.1c0-6.6-1.3-11-7.7-11-5.1 0-8.2 3.9-8.2 8.8 0 5.2 4.5 9.6 8.5 12.5h-.1c3 2.5 6.8 6.6 6.8 10.1 0 4.8-2.4 7.8-7.3 7.8-6.3 0-7.1-6.1-7.1-10.4h-1.3zM286.1 557.9v43h-4.7v-43h4.7zm-2.9 1.7v39.5h1.2v-39.5h-1.2zM292.7 557.9h3.9l11.5 28.4v-28.4h4.7v43h-3.9c-2.5-6-5.3-13.1-11.5-28.4v28.4h-4.7v-43zm2.9 5.3c4.8 12 9.5 23.9 14.3 35.8h1v-39.5h-1.1v35.8l-14.4-35.8h-1V599h1.2v-35.8zM332.5 572c.2-6 1.7-14.4 8.9-14.4 7 0 8.8 6.8 8.8 12.1 0 3.4-1 7.3-3.6 9.7 2.6 2.3 3.6 6.1 3.6 9.7 0 5.7-1.4 12.1-8.8 12.1-7.9 0-8.9-7.5-8.9-14.3h4.5c.1 4.2.6 9.6 4.3 9.6 3.4 0 4.1-4.2 4.1-7.4 0-4.3-2.1-7-7.6-7.3v-4.5c5.3-.4 7.6-3.5 7.6-7.6 0-3.1-.6-7.4-4-7.4-3.6 0-4.3 5.8-4.4 9.7h-4.5zm1.8 16.5c0 5.2.8 10.8 7.1 10.8 5.9 0 7-5.4 7-10.3 0-4.1-1.1-8.4-5.5-9.6 4.1-1.2 5.5-5.9 5.5-9.8 0-4.5-1.4-10.3-7-10.3-5.7 0-7 6.3-7.1 10.9h1.1c.1-4 1-9.8 6.1-9.8 4.8 0 5.7 5.4 5.7 9.2 0 5-2.4 8.9-7.6 9.3v1.1c5.5.3 7.6 3.7 7.6 9 0 4-.8 9.2-5.8 9.2-5.4 0-5.9-5.5-6-9.7h-1.1zM365.2 557.9c7.8 0 10.6 5.4 10.6 12.2v18.5c0 6.9-2.8 12.2-10.6 12.2H356v-43h9.2zm0 41.2c6.6 0 8.9-4.5 8.9-10.5v-18.5c0-5.9-2.4-10.5-8.9-10.5h-7.4v39.5h7.4zm-.4-38.3c6.1 0 8.2 4.2 8.2 9.7v17.8c0 5.5-2.2 9.7-8.2 9.7h-5.9v-37.2h5.9zm0 35.4c4.8 0 6.4-3.4 6.4-7.9v-17.8c0-4.5-1.7-8-6.4-8h-4.1v33.7h4.1z"/><path class="st15" d="M143.3 682h-4.9v-40.7h-7.6v-4.9h20.1v4.9h-7.6V682zm-10.6-42.5h7.5v40.7h1.3v-40.7h7.6v-1.2h-16.4v1.2zM176.4 669.7c0 7.3-3.2 12.8-11.2 12.8-7.9 0-11.2-5.6-11.2-12.8v-20.9c0-6.9 3.5-12.8 11.2-12.8 7.8 0 11.2 5.9 11.2 12.8v20.9zm-20.5 0c0 6.1 2.8 11 9.3 11 6.7 0 9.3-4.7 9.3-11v-20.9c0-5.9-2.8-11-9.3-11-6.4 0-9.3 5.1-9.3 11v20.9zm1.2-20.3c0-5.1 2.2-10.3 8.1-10.3 6.2 0 8.1 5 8.1 10.4v19.9c0 5.4-2 10-8.1 10s-8.1-4.9-8.1-10.2v-19.8zm14.3.1c0-4.3-1.4-8.5-6.2-8.5-4.6 0-6.3 4.1-6.3 8.4v19.8c0 4.3 1.6 8.4 6.3 8.4 4.7 0 6.2-3.8 6.2-8.2v-19.9zM191.5 636.5c8.3 0 11.3 5.7 11.3 13v19.6c0 7.4-3 13-11.3 13h-9.8v-45.6h9.8zm0 43.7c7 0 9.4-4.7 9.4-11.1v-19.6c0-6.2-2.5-11.2-9.4-11.2h-7.9v41.9h7.9zm-.4-40.7c6.4 0 8.7 4.5 8.7 10.3v19c0 5.8-2.3 10.3-8.7 10.3h-6.2v-39.5h6.2zm0 37.7c5.1 0 6.8-3.7 6.8-8.4v-19c0-4.7-1.8-8.5-6.8-8.5h-4.3v35.8h4.3zM221.9 636.5l10.4 45.6h-5.1l-2.8-13.1h-8.7l-3 13.1h-5.1l10.4-45.6h3.9zm6.8 43.7h1.2l-9.5-41.9h-.9l-9.6 41.9h1.3l2.9-13h11.8l2.8 13zm-8.8-38.8l5.6 24.6h-11.2l5.6-24.6zm0 8.3l-3.3 14.5h6.5l-3.2-14.5zM245.1 682.1h-5v-20.8c-5.3-13.9-7.9-20.7-9.3-24.9h5.3l6.6 17.5c2.2-5.8 4.6-11.9 6.6-17.5h5.3l-9.5 24.9v20.8zm-10.3-43.8h-1.3c2.7 7.7 5.7 15.1 8.5 22.7v19.2h1.3V661l8.6-22.7h-1.3l-7.9 21-7.9-21zM294.8 669.7c0 7.3-3.2 12.8-11.2 12.8-7.9 0-11.2-5.6-11.2-12.8v-20.9c0-6.9 3.5-12.8 11.2-12.8 7.8 0 11.2 5.9 11.2 12.8v20.9zm-20.5 0c0 6.1 2.8 11 9.3 11 6.7 0 9.3-4.7 9.3-11v-20.9c0-5.9-2.8-11-9.3-11-6.4 0-9.3 5.1-9.3 11v20.9zm1.2-20.3c0-5.1 2.2-10.3 8.1-10.3 6.2 0 8.1 5 8.1 10.4v19.9c0 5.4-2 10-8.1 10s-8.1-4.9-8.1-10.2v-19.8zm14.3.1c0-4.3-1.4-8.5-6.2-8.5-4.6 0-6.3 4.1-6.3 8.4v19.8c0 4.3 1.6 8.4 6.3 8.4 4.7 0 6.2-3.8 6.2-8.2v-19.9zM298.8 636.5h4.1l12.2 30.2v-30.2h4.9v45.6h-4.1c-2.6-6.4-5.6-13.9-12.2-30.2v30.2h-4.9v-45.6zm3.1 5.6c5.1 12.7 10.1 25.4 15.2 38.1h1v-41.9H317v38.1l-15.3-38.1h-1.1v41.9h1.3v-38.1zM330.7 636.5v40.7H341v4.9h-15.2v-45.6h4.9zm-1.9 42.5v-40.8h-1.2v41.9h11.6V679h-10.4zM355.2 682.1h-5v-20.8c-5.3-13.9-7.9-20.7-9.3-24.9h5.3l6.6 17.5c2.2-5.8 4.6-11.9 6.6-17.5h5.3l-9.5 24.9v20.8zm-10.3-43.8h-1.3c2.7 7.7 5.7 15.1 8.5 22.7v19.2h1.3V661l8.6-22.7h-1.3l-7.9 21-7.9-21zM369.9 674.4v-38h5v38h-5zm5 7.6h-5v-5.7h5v5.7zm-1.9-9.5v-34.3h-1.2v34.3h1.2zm0 5.7h-1.2v2h1.2v-2z"/></g><g><defs><path id="XMLID_1_" d="M5 1.4h500v707.1H5z"/></defs><clipPath id="XMLID_150_"><use xlink:href="#XMLID_1_" overflow="visible"/></clipPath><g clip-path="url(#XMLID_150_)"><path id="XMLID_19_" d="M510 24.3c-1.3-2.6 9.7-18.3 18.1-23 8.4-4.7 15 4.7 13.3 24.2-1.7 19.5-4.7 54.5-9.2 57.5-4.4 3-12.9-2.1-12.4-4.1.5-2 9.4-37.6 10.1-51 .7-13.3.2-16.4-2.9-12.9-5.3 6.2-14.2 15.2-17 9.3z" fill="#d8d9d8"/><path id="XMLID_18_" d="M508.7 22.7c-1.3-2.6 8.3-17 16.8-21.7 8.4-4.7 15 4.7 13.3 24.2-1.7 19.5-4.7 54.5-9.2 57.5-4.4 3-12.9-2.1-12.4-4.1.5-2 9.4-37.6 10.1-51s.2-16.4-2.9-12.9c-5.3 6.1-12.9 13.9-15.7 8z" fill="#c7c6c6"/><path id="XMLID_17_" d="M458.6-14.3c2.9.5 14.9-14.4 17-23.8 2.2-9.4-8.7-13.1-26.9-6.1-18.2 7.1-51 19.7-52.6 24.8s5.6 11.8 7.4 10.8c1.8-1.1 33.5-19.5 46.1-23.9 12.6-4.4 15.7-4.7 13.2-.8-4.5 6.8-10.7 17.9-4.2 19z" fill="#e0e1e0"/><path id="XMLID_16_" class="st6" d="M460.5-13.5c2.9.5 14-12.8 16.2-22.2 2.2-9.4-8.7-13.1-26.9-6.1-18.2 7.1-51 19.7-52.6 24.8-1.6 5.1 5.6 11.8 7.4 10.8 1.8-1.1 33.5-19.5 46.1-23.9 12.6-4.4 15.7-4.7 13.2-.8-4.5 6.8-9.9 16.3-3.4 17.4z"/><path id="XMLID_15_" d="M399.9-22.1c-3.8-2.1-31.2 36.6-34 45.4-.8 4.5 46.9 36.8 52.7 38.6 4.5 1.4 18.1-17.2 25.9-21.8 7-4.1 15.2 2.1 15 6.5 1.3 1.7 1.7 3.6.8 5-2.4 3.7-15.1 22.4-16.8 29.2 8.3 7.6 54.3 41.9 58.7 41.3 4.5-.6 30.2-33.4 32.4-42.3-14-15.9-129.2-99-134.7-101.9z" fill="#eaeaea"/><path id="XMLID_14_" d="M399.7-19.7c5.8 3.2 132.9 96 132.5 102.7-.3 6.7-24.1 44.3-28.8 44.9-4.7.6-57.7-39.2-59.9-42.6-2.2-3.3 14-27.1 16.7-31.3 2.8-4.3-6.7-12.7-14.6-8.1-7.8 4.6-21.4 23.2-25.9 21.8-6.4-2-50.7-39-52.6-42.6-2-3.7 28.5-47.1 32.6-44.8z" fill="#d3d3d3"/><path id="XMLID_13_" d="M399.7-19.7c-3.8-2.1-29.7 34.2-32.4 43.1 8 8.2 45.4 39.2 51.2 40.9 4.5 1.4 18.1-17.2 25.9-21.8 7-4.1 15.2 2.1 15 6.5 1.3 1.7 1.7 3.6.8 5-2.4 3.7-15.1 22.4-16.8 29.2 8.3 7.6 54.3 41.9 58.7 41.3 4.5-.6 26.4-35 28.6-43.9-14.1-15.9-125.6-97.3-131-100.3z" fill="#e0dede"/><path id="XMLID_12_" class="st13" d="M399.7-8.8c2.4-1.3 46.6 28.4 46.9 34.1.3 5.9-21.6 27.6-26 29.2-4.4 1.6-43.5-29-43.5-31.3-.1-5.6 18-29.5 22.6-32z"/><path id="XMLID_11_" d="M400.9-4.9c2.2-1.1 41.4 25.2 41.7 30.3.3 5.2-19.2 24.5-23.1 26-3.9 1.4-38.6-25.8-38.7-27.8-.1-5 16-26.3 20.1-28.5z" fill="#ef4339"/><path id="XMLID_10_" d="M402.2.1c1.8-.9 33.4 20.3 33.6 24.4.2 4.2-15.5 19.8-18.6 20.9-3.1 1.2-31.1-20.8-31.2-22.4-.1-4 12.9-21.1 16.2-22.9z" fill="#f04c48"/><path id="XMLID_9_" d="M404.4 6c1.3-.7 24.9 15.2 25.1 18.2.2 3.1-11.6 14.8-13.9 15.6-2.3.9-23.2-15.5-23.3-16.7-.1-3 9.6-15.8 12.1-17.1z" fill="#f05555"/><path id="XMLID_8_" d="M474.1 48.4c2.4-1.3 47.7 32.3 47.9 36.2.2 4-16.6 28.2-21 29.8-4.4 1.6-46.7-31.1-48.1-32.9-1.5-1.7 16.6-30.6 21.2-33.1z" fill="#2366a8"/><path id="XMLID_7_" d="M475.6 52.5c2.2-1.1 42 28.4 42.2 31.9.1 3.5-14.7 24.8-18.5 26.2-3.8 1.4-41.1-27.4-42.4-29-1.3-1.5 14.6-26.9 18.7-29.1z" fill="#2973b0"/><path id="XMLID_6_" d="M477.7 57.7c1.8-.9 34.7 23.5 34.8 26.4.1 2.9-12.1 20.5-15.3 21.7-3.2 1.2-34-22.6-35-23.9-1-1.4 12.1-22.4 15.5-24.2z" fill="#307db3"/><path id="XMLID_5_" class="st15" d="M480.1 62.6c1.4-.7 27.1 18.3 27.2 20.6.1 2.3-9.5 16-11.9 16.9-2.5.9-26.5-17.7-27.3-18.7-.9-1 9.4-17.4 12-18.8z"/><path id="XMLID_4_" class="st14" d="M410.1-.3c.2-1.5-8.2-6-11.2-3.1S388.6 8.7 390.3 10c2 1.5 9.6-10.9 10.9-11.7 3.3-1.8 8.5 4.5 8.9 1.4z"/><path id="XMLID_3_" class="st14" d="M385.7 13.5c1.1-1.6 4.1 1.4 2.8 3.9-1.4 2.4-5.3-.2-2.8-3.9z"/><path id="XMLID_2_" class="st14" d="M476.7 55.1c.2-.1 17 10.8 16.1 12.1-1 1.3-7.8-3.6-13.1-6.8-5.4-3.2-4.5-4.7-3-5.3z"/></g></g></svg>