<svg version="1.1" id="Layer_1" xmlns="http://www.w3.org/2000/svg" xmlns:xlink="http://www.w3.org/1999/xlink" x="0" y="0" width="510" height="710" xml:space="preserve"><style>.st1{fill:#6a0c0d}.st2{fill:#fff}.st5{fill:#a9a8a8}.st6{fill:#cd942b}.st8{fill:#febf32}.st9{fill:#e0aa26}.st10{fill:#ffd161}.st11{fill:#fcb027}.st12{fill:#f3b524}.st13{fill:#a4702a}</style><path id="XMLID_143_" fill="#febc11" d="M5 1.4h500v707.1H5z"/><path class="st1" d="M32.2 637.1c9.3 0 12.8 5.9 12.8 25.4 0 19.8-4.1 26.4-13.6 26.4-9.4 0-13-5.4-13-26.2-.1-19.2 4.4-25.6 13.8-25.6zm-.6 45.8c5.2 0 7-5.6 7-20.3 0-14.4-1.4-19.5-6.6-19.5-5 0-7.1 5.5-7.1 21 0 13.4 1.6 18.8 6.7 18.8zM72.6 640.6c0 1-.4 2.3-1.4 3.4-.9-.8-3.7-1.8-7.1-1.8-4.3 0-7 1.8-7 5 0 2.7 1.2 4.5 3.3 7.1l7.8 8.9c3.7 4.5 4.8 7.7 4.8 12.2 0 7.3-3.1 13.6-12.9 13.6-6.6 0-9.4-2.3-9.4-4.3 0-1.2.5-2.9 1.5-4.2 1.5 1.4 4 2.5 7.4 2.5 5.1 0 7.1-3 7.1-7.4 0-3.3-1-5.7-4.2-9.4l-7.2-8.4c-3.3-4-4.5-7-4.5-10.4 0-6.1 4.3-10.4 12.4-10.4 6.8 0 9.4 1.6 9.4 3.6zM99.6 640.8c0 1.4-.5 2.7-.9 3.5-.7-.6-2.5-1.8-4.7-1.8-4.5 0-9.2 3.2-9.2 22.2 0 14.7 3 17.9 7.2 17.9 2.8 0 5.3-1.2 6.6-2.2.5.9.9 2.3.9 3.5 0 2.8-3.6 5.2-8.9 5.2-6.8 0-12-3.1-12-24.1 0-24.7 7.7-28.3 14.2-28.3 5.4.1 6.8 2.2 6.8 4.1zM131.3 688.4c-.9 0-2 0-3.5-.1l-3.1-12.8h-12.5l-2.7 11.8c-.2.8-.4 1.2-2.7 1.2-.8 0-2.3-.1-3.7-.2l12.8-49.6c.1-.7.9-1 2.2-1 1 0 2.1.1 2.7.2l12.9 49.4c.4.6-.1 1.1-2.4 1.1zm-7.7-18.3l-2.5-10.2c-1.2-4.8-2.2-10.4-2.5-13.8-.4 3.5-1.4 9-2.5 13.8l-2.5 10.2h10zM158.4 688.4c-.9 0-2.2-.1-3.5-.1-.7-12.2-4.2-18.2-5.9-20.5-.4.1-.9.1-1.4.1h-2.5V687c0 1.2-.1 1.2-5.9 1.2v-49.3s0-1.2 1.2-1.2h7.2c9.1 0 13.3 4.3 13.3 14.3 0 7.6-2.5 12-6.3 14.1 2.3 3.1 6.1 9.7 6.8 20.8-.1 1.1-.3 1.5-3 1.5zm-10.2-26.1c4 0 6.1-3 6.1-10.6 0-5.6-1.4-8.9-5.7-8.9h-3.5v19.5h3.1zM199.6 637.8c0 4.7 0 5-1.2 5H187v15.3h10.8c0 4.4 0 5.3-1.1 5.3H187V687s.1 1.2-1.2 1.2H181v-49.3s.1-1.2 1.2-1.2h17.4zM211.3 637.8V687c0 1.2-.1 1.2-6 1.2v-47.8c0-2.6.1-2.6 6-2.6zM237.6 682.7v4.3c0 1-.5 1.2-1.2 1.2h-17.2v-48.8c0-1.7.1-1.7 5.9-1.7v45h12.5zM272.7 637.8V687c0 1.2 0 1.2-6 1.2l.2-17.5c.2-7.1 1.2-19.9 1.4-21.6-1.5 5.4-4.1 14.7-4.7 16.4l-3.8 11c-.1.5-.5.6-.8.6h-2.5l-3.7-11.5c-.6-1.6-3.1-10.7-4.6-16.3l-.1.1s1.3 13.3 1.4 21l.1 16.6c0 1.2-.4 1.2-5.8 1.2v-49.3c0-1.1.6-1.2 1.2-1.2h4.3l6.8 21.8c.9 3 2.3 8 2.3 8s1.2-5 2.1-7.8l6.3-20.8c.2-.6.4-1.2 1.2-1.2h4.7zM312.6 637.8c0 4.7 0 5-1.2 5h-11.5v15.3h10.8c0 4.4 0 5.3-1.1 5.3h-9.7V687s.1 1.2-1.2 1.2H294v-49.3s.1-1.2 1.2-1.2h17.4zM324.2 683h12.3c0 4.9 0 5.3-1.2 5.3h-17.1V639s.1-1.2 1.2-1.2h17.3c0 4.7 0 5.3-1.2 5.3H324v15.1h11c0 4.4 0 5.4-1.1 5.4h-9.7V683zM363.7 640.6c0 1-.4 2.3-1.4 3.4-.9-.8-3.7-1.8-7.1-1.8-4.3 0-7 1.8-7 5 0 2.7 1.2 4.5 3.3 7.1l7.8 8.9c3.7 4.5 4.8 7.7 4.8 12.2 0 7.3-3.1 13.6-12.9 13.6-6.6 0-9.4-2.3-9.4-4.3 0-1.2.5-2.9 1.5-4.2 1.5 1.4 4 2.5 7.4 2.5 5.1 0 7.1-3 7.1-7.4 0-3.3-1-5.7-4.2-9.4l-7.2-8.4c-3.3-4-4.5-7-4.5-10.4 0-6.1 4.3-10.4 12.4-10.4 6.8 0 9.4 1.6 9.4 3.6zM393.9 637.8v4.3c0 .9-.4 1.2-1.2 1.2h-8.9v43.8c0 1.2-.1 1.2-5.8 1.2v-45h-9.8V639c0-.8.4-1.2 1.2-1.2h24.5zM405.4 637.8V687c0 1.2-.1 1.2-6 1.2v-47.8c0-2.6.2-2.6 6-2.6zM412.1 637.8h4.8l6 27.9c1.2 6.4 2.2 13 2.9 17.6.6-4.6 1.4-11.2 2.6-17.6l5.3-26.2c.2-1.2.4-1.7 1.5-1.7h5.1l-11.1 50.7c-1.6.2-2.7.3-4.9.3-1.9 0-2.9-1.7-3.5-4.2-2.9-11.8-10-45.1-10-45.1-.3-1.2-.3-1.7 1.3-1.7zM467.5 688.4c-.9 0-2 0-3.5-.1l-3.1-12.8h-12.5l-2.7 11.8c-.2.8-.4 1.2-2.7 1.2-.8 0-2.3-.1-3.7-.2l12.8-49.6c.1-.7.9-1 2.2-1 1 0 2.1.1 2.7.2l12.9 49.4c.4.6-.1 1.1-2.4 1.1zm-7.8-18.3l-2.5-10.2c-1.2-4.8-2.2-10.4-2.5-13.8-.4 3.5-1.4 9-2.5 13.8l-2.4 10.2h9.9zM493.7 682.7v4.3c0 1-.5 1.2-1.2 1.2h-17.2v-48.8c0-1.7.1-1.7 5.9-1.7v45h12.5z"/><g><path class="st2" d="M30.7 635c9.3 0 12.8 5.9 12.8 25.4 0 19.8-4.1 26.4-13.6 26.4-9.4 0-13-5.4-13-26.2 0-19.2 4.5-25.6 13.8-25.6zm-.5 45.8c5.2 0 7-5.6 7-20.3 0-14.4-1.4-19.5-6.6-19.5-5 0-7.1 5.5-7.1 21 0 13.5 1.6 18.8 6.7 18.8zM71.2 638.5c0 1-.4 2.3-1.4 3.4-.9-.8-3.7-1.8-7.1-1.8-4.3 0-7 1.8-7 5 0 2.7 1.2 4.5 3.3 7.1l7.8 8.9c3.7 4.5 4.8 7.7 4.8 12.2 0 7.3-3.1 13.6-12.9 13.6-6.6 0-9.4-2.3-9.4-4.3 0-1.2.5-2.9 1.5-4.2 1.5 1.4 4 2.5 7.4 2.5 5.1 0 7.1-3 7.1-7.4 0-3.3-1-5.7-4.2-9.4l-7.2-8.4c-3.3-4-4.5-7-4.5-10.4 0-6.1 4.3-10.4 12.4-10.4 6.8 0 9.4 1.6 9.4 3.6zM98.2 638.7c0 1.4-.5 2.7-.9 3.5-.7-.6-2.5-1.8-4.7-1.8-4.5 0-9.2 3.2-9.2 22.2 0 14.7 3 17.9 7.2 17.9 2.8 0 5.3-1.2 6.6-2.2.5.9.9 2.3.9 3.5 0 2.8-3.6 5.2-8.9 5.2-6.8 0-12-3.1-12-24.1 0-24.7 7.7-28.3 14.2-28.3 5.4.1 6.8 2.2 6.8 4.1zM129.9 686.3c-.9 0-2 0-3.5-.1l-3.1-12.8h-12.5l-2.7 11.8c-.2.8-.4 1.2-2.7 1.2-.8 0-2.3-.1-3.7-.2l12.8-49.6c.1-.7.9-1 2.2-1 1 0 2.1.1 2.7.2l12.9 49.4c.4.6-.1 1.1-2.4 1.1zm-7.8-18.3l-2.5-10.2c-1.2-4.8-2.2-10.4-2.5-13.8-.4 3.5-1.4 9-2.5 13.8l-2.5 10.2h10zM157 686.3c-.9 0-2.2-.1-3.5-.1-.7-12.2-4.2-18.2-5.9-20.5-.4.1-.9.1-1.4.1h-2.5V685c0 1.2-.1 1.2-5.9 1.2v-49.3s0-1.2 1.2-1.2h7.2c9.1 0 13.3 4.3 13.3 14.3 0 7.6-2.5 12-6.3 14.1 2.3 3.1 6.1 9.7 6.8 20.8-.1 1-.3 1.4-3 1.4zm-10.2-26.1c4 0 6.1-3 6.1-10.6 0-5.6-1.4-8.9-5.7-8.9h-3.5v19.5h3.1zM198.2 635.7c0 4.7 0 5-1.2 5h-11.5V656h10.8c0 4.4 0 5.3-1.1 5.3h-9.7v23.6s.1 1.2-1.2 1.2h-4.8v-49.3s.1-1.2 1.2-1.2h17.5zM209.9 635.7v49.2c0 1.2-.1 1.2-6 1.2v-47.8c0-2.6.1-2.6 6-2.6zM236.2 680.6v4.3c0 1-.5 1.2-1.2 1.2h-17.2v-48.8c0-1.7.1-1.7 5.9-1.7v45h12.5zM271.3 635.7v49.2c0 1.2 0 1.2-6 1.2l.2-17.5c.2-7.1 1.2-19.9 1.4-21.6-1.5 5.4-4.1 14.7-4.7 16.4l-3.8 11c-.1.5-.5.6-.8.6h-2.5l-3.7-11.5c-.6-1.6-3.1-10.7-4.6-16.3l-.1.1s1.3 13.3 1.4 21l.1 16.6c0 1.2-.4 1.2-5.8 1.2v-49.3c0-1.1.6-1.2 1.2-1.2h4.3l6.8 21.8c.9 3 2.3 8 2.3 8s1.2-5 2.1-7.8l6.3-20.8c.2-.6.4-1.2 1.2-1.2h4.7zM311.1 635.7c0 4.7 0 5-1.2 5h-11.5V656h10.8c0 4.4 0 5.3-1.1 5.3h-9.7v23.6s.1 1.2-1.2 1.2h-4.8v-49.3s.1-1.2 1.2-1.2h17.5zM322.8 680.9h12.3c0 4.9 0 5.3-1.2 5.3h-17.1v-49.3s.1-1.2 1.2-1.2h17.3c0 4.7 0 5.3-1.2 5.3h-11.5v15h10.8c0 4.4 0 5.4-1.1 5.4h-9.7v19.5zM362.3 638.5c0 1-.4 2.3-1.4 3.4-.9-.8-3.7-1.8-7.1-1.8-4.3 0-7 1.8-7 5 0 2.7 1.2 4.5 3.3 7.1l7.8 8.9c3.7 4.5 4.8 7.7 4.8 12.2 0 7.3-3.1 13.6-12.9 13.6-6.6 0-9.4-2.3-9.4-4.3 0-1.2.5-2.9 1.5-4.2 1.5 1.4 4 2.5 7.4 2.5 5.1 0 7.1-3 7.1-7.4 0-3.3-1-5.7-4.2-9.4l-7.2-8.4c-3.3-4-4.5-7-4.5-10.4 0-6.1 4.3-10.4 12.4-10.4 6.8 0 9.4 1.6 9.4 3.6zM392.5 635.7v4.3c0 .9-.4 1.2-1.2 1.2h-8.9V685c0 1.2-.1 1.2-5.8 1.2v-45h-9.8v-4.3c0-.8.4-1.2 1.2-1.2h24.5zM404 635.7v49.2c0 1.2-.1 1.2-6 1.2v-47.8c0-2.6.1-2.6 6-2.6zM410.7 635.7h4.8l6 27.9c1.2 6.4 2.2 13 2.9 17.6.6-4.6 1.4-11.2 2.6-17.6l5.3-26.2c.2-1.2.4-1.7 1.5-1.7h5.1l-11.1 50.7c-1.6.2-2.7.3-4.9.3-1.9 0-2.9-1.7-3.5-4.2-2.9-11.8-10-45.1-10-45.1-.3-1.2-.3-1.7 1.3-1.7zM466.1 686.3c-.9 0-2 0-3.5-.1l-3.1-12.8H447l-2.7 11.8c-.2.8-.4 1.2-2.7 1.2-.8 0-2.3-.1-3.7-.2l12.8-49.6c.1-.7.9-1 2.2-1 1 0 2.1.1 2.7.2l12.9 49.4c.4.6-.1 1.1-2.4 1.1zm-7.8-18.3l-2.5-10.2c-1.2-4.8-2.2-10.4-2.5-13.8-.4 3.5-1.4 9-2.5 13.8l-2.4 10.2h9.9zM492.3 680.6v4.3c0 1-.5 1.2-1.2 1.2H474v-48.8c0-1.7.1-1.7 5.9-1.7v45h12.4z"/></g><g><defs><path id="XMLID_55_" d="M5 1.4h500v707.1H5z"/></defs><clipPath id="XMLID_145_"><use xlink:href="#XMLID_55_" overflow="visible"/></clipPath><g clip-path="url(#XMLID_145_)"><path id="XMLID_100_" class="st2" d="M255-117.9h-11.3L255 200.9l11.3-318.8z"/><path id="XMLID_99_" class="st2" d="M210.6-114.8l-11.1 1.6L255 200.9l-33.2-317.2z"/><path id="XMLID_98_" class="st2" d="M167.1-105.5l-10.8 3.1L255 200.9l-77-309.5z"/><path id="XMLID_97_" class="st2" d="M125.3-90.3L115-85.7l140 286.6L135.6-94.9z"/><path id="XMLID_96_" class="st2" d="M86.1-69.4l-9.6 5.9L255 200.9 95.6-75.4z"/><path id="XMLID_95_" class="st2" d="M50.1-43.3L41.4-36 255 200.9 58.7-50.5z"/><path id="XMLID_94_" class="st2" d="M18.1-12.4L10.5-4 255 200.9 25.6-20.8z"/><path id="XMLID_93_" class="st2" d="M-9.3 22.7l-6.3 9.3L255 200.9-3 13.3z"/><path id="XMLID_92_" class="st2" d="M-31.6 61.2l-4.9 10.1L255 200.9-26.6 51z"/><path id="XMLID_91_" class="st2" d="M-48.2 102.4l-3.5 10.7L255 200.9-44.7 91.7z"/><path id="XMLID_90_" class="st2" d="M-59 145.6l-1.9 11.1L255 200.9l-312-66.4z"/><path id="XMLID_89_" class="st2" d="M-63.6 189.8l-.4 11.3 319-.2-318.2-22.4z"/><path id="XMLID_88_" class="st2" d="M-62.1 234.3l1.2 11.2L255 200.9-63.3 223z"/><path id="XMLID_87_" class="st2" d="M-54.3 278.1l2.7 10.9L255 200.9l-312.1 66.2z"/><path id="XMLID_86_" class="st2" d="M-40.6 320.4l4.2 10.4L255 200.9l-299.8 109z"/><path id="XMLID_85_" class="st2" d="M-21.1 360.3l5.6 9.8L255 200.9-26.7 350.6z"/><path id="XMLID_84_" class="st2" d="M3.8 397.2l6.9 8.9L255 200.9-3.2 388.3z"/><path id="XMLID_83_" class="st2" d="M33.5 430.3l8.1 7.8L255 200.9 25.4 422.4z"/><path id="XMLID_82_" class="st2" d="M67.6 458.9l9.1 6.6L255 200.9 58.5 452.2z"/><path id="XMLID_81_" class="st2" d="M105.3 482.4l10 5.3L255 200.9 95.4 477.1z"/><path id="XMLID_80_" class="st2" d="M146 500.5l10.6 3.9L255 200.9 135.4 496.7z"/><path id="XMLID_79_" class="st2" d="M188.7 512.8l11 2.3L255 200.9l-77.3 309.5z"/><path id="XMLID_78_" class="st2" d="M232.8 519l11.2.8 11-318.9-33.5 317.3z"/><path id="XMLID_77_" class="st2" d="M277.2 519l11.3-.8L255 200.9l11 318.9z"/><path id="XMLID_76_" class="st2" d="M321.3 512.8l11-2.4L255 200.9l55.3 314.2z"/><path id="XMLID_75_" class="st2" d="M364 500.5l10.6-3.8L255 200.9l98.4 303.5z"/><path id="XMLID_74_" class="st2" d="M404.7 482.4l9.9-5.3L255 200.9l139.7 286.8z"/><path id="XMLID_73_" class="st2" d="M442.4 458.9l9.1-6.7L255 200.9l178.3 264.6z"/><path id="XMLID_72_" class="st2" d="M476.5 430.3l8.1-7.9L255 200.9l213.4 237.2z"/><path id="XMLID_71_" class="st2" d="M506.2 397.2l7-8.9L255 200.9l244.3 205.2z"/><path id="XMLID_70_" class="st2" d="M531.1 360.3l5.6-9.7L255 200.9l270.5 169.2z"/><path id="XMLID_69_" class="st2" d="M550.6 320.4l4.2-10.5-299.8-109 291.4 129.9z"/><path id="XMLID_68_" class="st2" d="M564.3 278.1l2.8-11L255 200.9 561.6 289z"/><path id="XMLID_67_" class="st2" d="M572.1 234.3l1.2-11.3L255 200.9l315.9 44.6z"/><path id="XMLID_66_" class="st2" d="M573.6 189.8l-.4-11.3L255 200.9l319 .2z"/><path id="XMLID_65_" class="st2" d="M569 145.6l-2-11.1-312 66.4 315.9-44.2z"/><path id="XMLID_64_" class="st2" d="M558.2 102.4l-3.5-10.7L255 200.9l306.7-87.8z"/><path id="XMLID_63_" class="st2" d="M541.6 61.2l-5-10.2L255 200.9 546.5 71.3z"/><path id="XMLID_62_" class="st2" d="M519.3 22.7l-6.3-9.4-258 187.6L525.6 32z"/><path id="XMLID_61_" class="st2" d="M491.9-12.4l-7.5-8.4L255 200.9 499.5-4z"/><path id="XMLID_60_" class="st2" d="M459.9-43.3l-8.6-7.2L255 200.9 468.6-36z"/><path id="XMLID_59_" class="st2" d="M423.9-69.4l-9.5-6L255 200.9 433.5-63.5z"/><path id="XMLID_58_" class="st2" d="M384.7-90.3l-10.3-4.6L255 200.9 395-85.7z"/><path id="XMLID_57_" class="st2" d="M342.9-105.5l-10.9-3.1-77 309.5 98.7-303.3z"/><path id="XMLID_56_" class="st2" d="M299.4-114.8l-11.2-1.5L255 200.9l55.5-314.1z"/></g></g><g><defs><path id="XMLID_47_" d="M179.6 496.4c3.3 1.9 149.8.6 151.8-1.5 2.9-2.9-21.6-40.8-23.6-40.8h-98.9c-3.7 0-35 39-29.3 42.3z"/></defs><use xlink:href="#XMLID_47_" overflow="visible" fill="#939393"/><clipPath id="XMLID_146_"><use xlink:href="#XMLID_47_" overflow="visible"/></clipPath><g clip-path="url(#XMLID_146_)"><path id="XMLID_54_" class="st5" d="M230.1 505.4c-7.1 3 17.8-81.5 20.2-78.4 2.4 3-12 75-20.2 78.4z"/><path id="XMLID_53_" class="st5" d="M181.5 504.2c-7.7.3 45.5-69.9 46.6-66.2 1.2 3.7-37.7 66-46.6 66.2z"/><path id="XMLID_52_" class="st5" d="M204.3 508.1c-7.5 1.7 31.4-77.3 33.2-73.9 1.8 3.4-24.6 71.9-33.2 73.9z"/><path id="XMLID_51_" class="st5" d="M252.3 505.8c-6.5 4.2 3.4-83.3 6.3-80.7 2.8 2.5 1.2 75.9-6.3 80.7z"/><path id="XMLID_50_" class="st5" d="M328.5 504.2c7.7.3-45.5-69.9-46.6-66.2-1.2 3.7 37.7 66 46.6 66.2z"/><path id="XMLID_49_" class="st5" d="M305.7 508.1c7.5 1.7-31.4-77.3-33.2-73.9-1.8 3.4 24.6 71.9 33.2 73.9z"/><path id="XMLID_48_" class="st5" d="M279.9 505.4c7.1 3-17.8-81.5-20.2-78.4-2.4 3 12 75 20.2 78.4z"/></g><path id="XMLID_46_" class="st6" d="M235.9 482.3c-2.4-.7-9.1-2.3-3.3-19.2 6.9-20-9.8-35.5-10.2-61.1-.1-7.6 4.3-26.9 3.7-33.4-.7-6.9-10.9-27.5-13-42.8-4.1-29.3 2.4-48.1 2.4-52.2 0-4.1-24.5-14.3-26.1-29.3-3.4-31.6 3.7-62.9 8.9-75.8 7.4-18.4 27.8-14.3 32.7-18 4.9-3.7 5.7-13.9 2.9-15.9-2.9-2-9.8-11-7.3-28.1 2.4-17.1 9.8-22.4 21.2-22.8 11.4-.4 19.6 8.2 21.2 21.2 1.6 13 0 21.6-5.3 27.3-5.3 5.7-2.9 16.7 1.6 19.2 4.5 2.4 20.8 3.7 25.3 13.9s12.1 33.8 12 69.7c-.1 20.1-25.8 36.7-25 38.3.8 1.6 9.4 14.3 5.7 54.2-1.5 16.8-9.4 37.1-8.2 40.4 1.2 3.3 8.6 21.2 6.9 43.2-1.6 22-6.1 27.3-3.3 56.2 1 9.9-1.2 14-7.7 15.9-6.5 2-14.7-3.7-16.7-3.7-2.1-.1-4.5 6.8-18.4 2.8z"/><path id="XMLID_45_" d="M179.6 493s149.9-2 152 0c2 2 2.2 108.3-.2 110.8-2.4 2.4-149 0-151.9 0-2.8-.1-4.3-112 .1-110.8z" fill="#737373"/><path id="XMLID_44_" class="st8" d="M192.4 510.6c6.2-1.2 127.7-3.8 128.3.3.5 4.1 4.2 58.2.9 61.6-3.2 3.4-130.5 4-132.3-1.2-1.7-5.4-1.7-59.8 3.1-60.7z"/><path id="XMLID_43_" class="st9" d="M192.4 517.2c6.2-1.2 127.7-3.8 128.3.3.5 4.1 4.2 58.2.9 61.6-3.2 3.4-130.5 4-132.3-1.2-1.7-5.3-1.7-59.8 3.1-60.7z"/><path class="st10" d="M220.4 544.3c-.1 1.1-.3 2.1-.5 3.1s-.6 1.9-1 2.8c-.4.9-1 1.7-1.7 2.4s-1.5 1.4-2.5 1.9c-.8.4-1.5.8-2.3 1-.8.2-1.6.3-2.5.3-1.4 0-2.7-.2-3.8-.5-1.1-.4-2.1-.8-2.9-1.4-.8-.6-1.6-1.2-2.1-1.9-.6-.7-1.1-1.4-1.4-2.1-.4-.7-.7-1.3-.8-1.9-.2-.6-.3-1-.3-1.4 0-.6-.1-1.2-.2-1.9-.1-.6 0-1.3.1-1.9.2-1.1.6-2.2 1.2-3.3.5-1.1 1.2-2.1 2.1-2.9.8-.9 1.8-1.6 3-2.2 1.1-.6 2.4-1 3.9-1.2.8-.1 1.7-.1 2.5 0s1.7.4 2.5.7c1.4.5 2.5 1.3 3.5 2.2.9 1 1.7 2.1 2.3 3.5.3.7.6 1.5.9 2.2-.1.9.1 1.7 0 2.5zm-5.7-.1v-.6c0-.1 0-.3-.1-.4 0-.1 0-.2-.1-.3 0-.1 0-.2-.1-.3-.1-.3-.3-.7-.6-1.1-.3-.4-.7-.8-1.1-1.1-.4-.4-.9-.7-1.5-.9-.5-.2-1.1-.4-1.6-.4-1 0-1.9.2-2.6.6-.7.4-1.3.9-1.7 1.5-.4.6-.7 1.3-.9 2-.2.7-.3 1.4-.3 2 0 .4.1.8.3 1.4.2.5.6 1 1 1.5s1 .9 1.7 1.2c.7.3 1.4.5 2.2.5.9 0 1.7-.2 2.4-.6.7-.4 1.2-.8 1.7-1.4.4-.6.8-1.1 1-1.8.2-.6.3-1.2.3-1.8z"/><path class="st11" d="M220.4 547.3c-.1 1.1-.3 2.1-.5 3.1s-.6 1.9-1 2.8c-.4.9-1 1.7-1.7 2.4s-1.5 1.4-2.5 1.9c-.8.4-1.5.8-2.3 1-.8.2-1.6.3-2.5.3-1.4 0-2.7-.2-3.8-.5-1.1-.4-2.1-.8-2.9-1.4-.8-.6-1.6-1.2-2.1-1.9-.6-.7-1.1-1.4-1.4-2.1-.4-.7-.7-1.3-.8-1.9-.2-.6-.3-1-.3-1.4 0-.6-.1-1.2-.2-1.9-.1-.6 0-1.3.1-1.9.2-1.1.6-2.2 1.2-3.3.5-1.1 1.2-2.1 2.1-2.9.8-.9 1.8-1.6 3-2.2 1.1-.6 2.4-1 3.9-1.2.8-.1 1.7-.1 2.5 0s1.7.4 2.5.7c1.4.5 2.5 1.3 3.5 2.2.9 1 1.7 2.1 2.3 3.5.3.7.6 1.5.9 2.2-.1.9.1 1.6 0 2.5zm-5.7-.2v-.6c0-.1 0-.3-.1-.4 0-.1 0-.2-.1-.3 0-.1 0-.2-.1-.3-.1-.3-.3-.7-.6-1.1-.3-.4-.7-.8-1.1-1.1-.4-.4-.9-.7-1.5-.9-.5-.2-1.1-.4-1.6-.4-1 0-1.9.2-2.6.6-.7.4-1.3.9-1.7 1.5-.4.6-.7 1.3-.9 2-.2.7-.3 1.4-.3 2 0 .4.1.8.3 1.4.2.5.6 1 1 1.5s1 .9 1.7 1.2c.7.3 1.4.5 2.2.5.9 0 1.7-.2 2.4-.6.7-.4 1.2-.8 1.7-1.4.4-.6.8-1.1 1-1.8.2-.6.3-1.2.3-1.8z"/><path class="st10" d="M236.4 534.2c.6.3 1.1.6 1.5 1 1.7 1.6 1.5 2.8 1.4 2.9-.4.5-1.1.2-1.5.7-.4.4-.8.9-1.3 1.3-.2.2-.4.2-.7.1-.2-.2-.5-.4-.7-.6-.2-.2-.5-.3-.7-.5-.3-.2-.6-.4-1-.5-.3-.2-.6-.3-1-.4-.4-.1-.7-.2-1.1-.1-.3.1-.5.3-.7.6-.1.3-.2.6-.1 1s.2.7.5.9c.4.3.7.5 1.1.7l1.2.6c.6.3 1.1.6 1.7.9.6.3 1.1.6 1.6.9.5.3 1 .7 1.4 1.2.4.4.8.9 1.2 1.4.5.6.7 1.2.8 1.9.1.7.1 1.4 0 2.1-.3 2.8-1.8 4.6-4.5 5.5-1.1.4-2.1.5-3.1.5s-2.1-.2-3.1-.5-1.8-.6-2.7-1.1l-2.4-1.5c-.1-.1-.3-.2-.4-.3-.2-.2-.6.7-.7.6-.1-.1 0-1.3 0-1.4 0-.1.2-.7.3-1 .3-.5.5-1 .7-1.5.2-.5.4-1 .7-1.5.1-.2.2-.4.2-.5.1-.2.2-.3.3-.5.1-.1.2-.2.3-.2.1 0 .2 0 .3.1l.8.8.8.8c.6.6 1.3 1 2 1.4.7.3 1.5.6 2.2.9.3.1.6.1 1 0 .3-.1.6-.2.9-.4.2-.2.4-.4.5-.7.1-.3.1-.6 0-.9-.1-.3-.2-.6-.5-.8-.3-.3-.6-.6-1-.8-.3-.2-.7-.5-1.1-.7-.6-.4-1.2-.7-1.8-1.1-.6-.3-1.3-.6-1.9-.9-1-.5-1.7-1.1-2.3-1.8-.5-.7-.9-1.6-1.2-2.6-.3-1.4-.1-2.7.7-3.9.3-.5.6-.8 1-1.2.3-.3.8-.6 1.5-1 .9-.5 1.9-.8 2.8-.9.9-.1 1.7-.2 2.5-.1.7.1 1.4.2 2 .3.9.5 1.3.6 1.6.8z"/><path class="st11" d="M236.4 536.5c.6.3 1.1.6 1.5 1 1.7 1.6 1.5 2.8 1.4 2.9-.4.5-1.1.2-1.5.7-.4.4-.8.9-1.3 1.3-.2.2-.4.2-.7.1-.2-.2-.5-.4-.7-.6-.2-.2-.5-.3-.7-.5-.3-.2-.6-.4-1-.5-.3-.2-.6-.3-1-.4-.4-.1-.7-.2-1.1-.1-.3.1-.5.3-.7.6-.1.3-.2.6-.1 1s.2.7.5.9c.4.3.7.5 1.1.7l1.2.6c.6.3 1.1.6 1.7.9.6.3 1.1.6 1.6.9.5.3 1 .7 1.4 1.2.4.4.8.9 1.2 1.4.5.6.7 1.2.8 1.9.1.7.1 1.4 0 2.1-.3 2.8-1.8 4.6-4.5 5.5-1.1.4-2.1.5-3.1.5s-2.1-.2-3.1-.5-1.8-.6-2.7-1.1l-2.4-1.5c-.1-.1-.3-.2-.4-.3-.2-.2-.6-.6-.7-.8 0-.1-.1-1 0-1.2.3-.5.8-.7 1.1-1.2.2-.5.4-1 .7-1.5.1-.2.2-.4.2-.5.1-.2.2-.3.3-.5.1-.1.2-.2.3-.2.1 0 .2 0 .3.1l.8.8.8.8c.6.6 1.3 1 2 1.4.7.3 1.5.6 2.2.9.3.1.6.1 1 0 .3-.1.6-.2.9-.4.2-.2.4-.4.5-.7.1-.3.1-.6 0-.9-.1-.3-.2-.6-.5-.8-.3-.3-.6-.6-1-.8-.3-.2-.7-.5-1.1-.7-.6-.4-1.2-.7-1.8-1.1-.6-.3-1.3-.6-1.9-.9-1-.5-1.7-1.1-2.3-1.8-.5-.7-.9-1.6-1.2-2.6-.3-1.4-.1-2.7.7-3.9.3-.5.6-.8 1-1.2.3-.3.8-.6 1.5-1 .9-.5 1.9-.8 2.8-.9.9-.1 1.7-.2 2.5-.1.7.1 1.4.2 2 .3.8.5 1.2.6 1.5.7z"/><path class="st10" d="M243.6 546.1c0-1.5.2-2.9.6-4.2.4-1.3.9-2.5 1.6-3.7.3-.5.7-1 1.1-1.4.4-.4.9-.8 1.4-1.1 1.3-.8 2.6-1.3 3.9-1.7 1.4-.3 2.8-.4 4.3-.3.9.1 1.8.3 2.6.6s1.6.7 2.4 1c1.3.5.9 1 .5 1.5-.5.6-1.2.8-1.6 1.3-.5.6-.9 1.1-1.4 1.7-.2.2-.3.3-.5.3h-.7c-.5-.1-1-.1-1.5-.2-.5 0-1 0-1.4.1-.7.1-1.3.3-1.8.6s-1 .7-1.4 1.1c-.4.5-.7 1-.8 1.6s-.3 1.2-.2 1.9c0 .4.1.8.1 1.2 0 .4.1.8.2 1.2.2.6.5 1.2.9 1.6.4.4 1 .6 1.7.7.5.1.9.1 1.4.2.5 0 .9 0 1.4-.1.6-.2 1.2-.4 1.6-.7.4-.3.8-.8 1.3-1.4.3-.7.8-.8 1.3-.4l1.8 1.2c.6.4.9 1 1.5 1.4 1.1 1.2.7 1.5.5 1.9-.1.2-.8 0-1.3.4s-1 .9-1.6 1.3c-.6.4-1.3.9-2 1.3s-1.3.7-1.9.8c-.8.2-1.5.3-2.3.4-.8 0-1.5 0-2.3-.1-1-.1-2-.4-2.9-.8-.9-.4-1.8-.9-2.6-1.6-.1-.1-.3-.3-.6-.5l-.8-.8c-.3-.3-.5-.6-.8-.9-.3-.3-.5-.7-.6-1.1-.2-.4-.3-.8-.4-1.1-.1-.4-.2-.7-.4-1.1-.1-.4-.1-.8-.2-1.2 0-.3-.1-.6-.1-.9z"/><path class="st11" d="M243.6 548.2c0-1.5.2-2.9.6-4.2.4-1.3.9-2.5 1.6-3.7.3-.5.7-1 1.1-1.4.4-.4.9-.8 1.4-1.1 1.3-.8 2.6-1.3 3.9-1.7 1.4-.3 2.8-.4 4.3-.3.9.1 1.8.3 2.6.6s1.6.7 2.4 1c1.3.5.9 1 .5 1.5-.5.6-1.2.8-1.6 1.3-.5.6-.9 1.1-1.4 1.7-.2.2-.3.3-.5.3h-.7c-.5-.1-1-.1-1.5-.2-.5 0-1 0-1.4.1-.7.1-1.3.3-1.8.6s-1 .7-1.4 1.1c-.4.5-.7 1-.8 1.6-.2.6-.3 1.2-.2 1.9 0 .4.1.8.1 1.2 0 .4.1.8.2 1.2.2.6.5 1.2.9 1.6.4.4 1 .6 1.7.7.5.1.9.1 1.4.2.5 0 .9 0 1.4-.1.6-.2 1.2-.4 1.6-.7.4-.3.8-.8 1.3-1.4.3-.7.8-.8 1.3-.4l1.8 1.2c.6.4 1.4 0 2 .5.3.3.1.5.1 1.5 0 .2-.3.5-.5.9-.1.2-.4.5-.9.9s-1 .9-1.6 1.3c-.6.4-1.3.9-2 1.3s-1.3.7-1.9.8c-.8.2-1.5.3-2.3.4-.8 0-1.5 0-2.3-.1-1-.1-2-.4-2.9-.8-.9-.4-1.8-.9-2.6-1.6-.1-.1-.3-.3-.6-.5l-.8-.8c-.3-.3-.5-.6-.8-.9-.3-.3-.5-.7-.6-1.1-.2-.4-.3-.8-.4-1.1-.1-.4-.2-.7-.4-1.1-.1-.4-.1-.8-.2-1.2 0-.4-.1-.7-.1-1z"/><path class="st10" d="M281.7 533.9c.4 0 .7 0 .8.1.1.1.2.3.3.7.2.8.3 1.5.5 2.2.1.7.3 1.4.5 2.2.4 1.7.8 3.3 1.2 4.9.4 1.6.8 3.2 1.2 4.9.2.7.4 1.5.5 2.2.2.7.4 1.5.5 2.2.1.3.1.6.2.9.1.3.1.6.2.8.1.5.2 1.8-.3 1.9l-.5-1c-.8 0-1.7.1-2.5 0h-2.4c-.3 0-.6-.1-.6-.2-.1-.1-.1-.4-.2-.8-.1-1-.3-2-.6-3 0-.2-.1-.4-.3-.4h-2.9c-.8 0-1.6 0-2.4.1-.2 0-.3 0-.4.1-.1.1-.2.2-.2.4-.1.5-.3 1-.4 1.5-.1.5-.3 1-.4 1.5-.1.3-.2.4-.3.5-.1.1-.3.2-.6.2h-4.4c-.5 0-1 1.1-1.1 1.1-.6 0-.4-1.4-.3-2 .2-.7.5-1.4.7-2.1.2-.7.5-1.3.7-2 .5-1.5 1-3.1 1.4-4.6.5-1.5 1-3.1 1.5-4.6.2-.5.4-1.2.6-1.9.2-.8.5-1.5.7-2.2.2-.7.4-1.3.6-1.8.2-.5.3-.8.3-.8.1-.2.1-.4.2-.6 0-.1.1-.2.2-.3.1-.1.2-.1.4-.1H281.7zm-2.6 13.6c.4 0 .5-.2.4-.6l-.6-2.4-.6-2.4c0-.1-.1-.1-.1-.2s-.1-.1-.2-.1-.1 0-.2.1c0 .1 0 .1-.1.2-.3.7-.5 1.5-.8 2.2-.3.7-.5 1.5-.8 2.2-.1.3-.2.6-.2.8v.4c.1.1.2.1.3.1h.7c.3 0 .5 0 .7-.1h.6c.6-.1.8-.2.9-.2z"/><path class="st11" d="M281.7 536c.4 0 .7 0 .8.1.1.1.2.3.3.7.2.8.3 1.5.5 2.2.1.7.3 1.4.5 2.2.4 1.7.8 3.3 1.2 4.9.4 1.6.8 3.2 1.2 4.9.2.7.4 1.5.5 2.2.2.7.4 1.5.5 2.2.1.3.3.1.4.4.1.3.1.6.2.8.1.5-.2 1.3-.7 1.4h-.2c-.8 0-1.7.1-2.5 0H282c-.3 0-.6-.1-.6-.2-.1-.1-.1-.4-.2-.8-.1-1-.3-2-.6-3 0-.2-.1-.4-.3-.4h-2.9c-.8 0-1.6 0-2.4.1-.2 0-.3 0-.4.1-.1.1-.2.2-.2.4-.1.5-.3 1-.4 1.5-.1.5-.3 1-.4 1.5-.1.3-.2.4-.3.5-.1.1-.3.2-.6.2h-5.2c-.6 0-.8-.9-.6-1.5.2-.7.5-.8.8-1.5.2-.7.5-1.3.7-2 .5-1.5 1-3.1 1.4-4.6.5-1.5 1-3.1 1.5-4.6.2-.5.4-1.2.6-1.9s.5-1.5.7-2.2c.2-.7.4-1.3.6-1.8.2-.5.3-.8.3-.8.1-.2.1-.4.2-.6 0-.1.1-.2.2-.3.1-.1.2-.1.4-.1H281.7zm-2.6 13.6c.4 0 .5-.2.4-.6l-.6-2.4-.6-2.4c0-.1-.1-.1-.1-.2s-.1-.1-.2-.1-.1 0-.2.1c0 .1 0 .1-.1.2-.3.7-.5 1.5-.8 2.2-.3.7-.5 1.5-.8 2.2-.1.3-.2.6-.2.8v.4c.1.1.2.1.3.1h.7c.3 0 .5 0 .7-.1h.6c.6-.1.8-.1.9-.2z"/><path class="st10" d="M300.1 533.6c1.2 0 2.5.1 3.7.2 1.2.1 2.4.4 3.6.9.6.3 1.1.6 1.6.9.5.4.9.8 1.2 1.3.5.8.9 1.6 1.1 2.5.2.9.3 1.7.2 2.5-.1.8-.3 1.6-.6 2.4-.3.8-.7 1.5-1.2 2.1-.2.3-.5.5-.8.7-.3.2-.7.4-1 .6-.2.1-.3.2-.3.3 0 .1 0 .3.1.4.4.7.8 1.3 1.2 2 .4.7.8 1.3 1.2 2 .2.3.4.6.6 1 .2.4.8 1.6 1 1.9.2.3.6 2.2-.3 2.7-.1.2.1-1.2 0-1.2s-.5-1.2-.7-1.2c-.7 0-1.5-.1-2.2 0h-2.2c-.3 0-.4 0-.6-.1-.1-.1-.2-.2-.3-.4-.4-.8-.9-1.7-1.4-2.7-.5-1-1-1.9-1.5-2.7-.1-.2-.2-.3-.3-.4-.1-.1-.2-.3-.3-.4-.2-.3-.5-.5-.9-.5-.3 0-.5 0-.7-.1-.2 0-.5-.1-.7-.1-.4 0-.6 0-.7.1-.1.1-.2.4-.2.7 0 .9 0 1.8.1 2.7 0 .9 0 1.8.1 2.7 0 .3 0 .6-.1.7-.1.1-.3.2-.6.3-.1 0-.2.1-.4.1h-4.3c-.2 0-.3 0-.5-.1-.4 0-.6-.3-.7-.7 0-.2-.1-.4-.1-.6 0-.2-.1-.4-.1-.6v-2.8c0-.9 0-1.8.1-2.8v-2.6-2.6-4.2-4.2c0-.5.1-.8.2-.9.1-.1.5-.2 1-.2h2.9c.5 0 1 0 1.4-.1.4 0 .8 0 1.2-.1.5.5.8.6 1.2.6zm-1.2 7.7v2.3c0 .4.2.6.6.6.5 0 .9-.1 1.4-.1.4 0 .9 0 1.4-.1.5-.1.9-.2 1.3-.4s.8-.5 1.2-.8c.3-.3.4-.6.5-1 .1-.4.1-.8 0-1.2-.1-.4-.2-.7-.5-1-.2-.3-.5-.5-.9-.6-1.6-.4-3.1-.6-4.6-.5-.1 0-.1.1-.2.2s-.1.2-.1.3v1.1c-.1.5-.1.9-.1 1.2z"/><path class="st11" d="M300.1 536.2c1.2 0 2.5.1 3.7.2 1.2.1 2.4.4 3.6.9.6.3 1.1.6 1.6.9.5.4.9.8 1.2 1.3.5.8.9 1.6 1.1 2.5.2.9.3 1.7.2 2.6-.1.8-.3 1.6-.6 2.4-.3.8-.7 1.5-1.2 2.1-.2.3-.5.5-.8.7-.3.2-.7.4-1 .6-.2.1-.3.2-.3.3 0 .1 0 .3.1.4.4.7.8 1.3 1.2 2 .4.7.8 1.3 1.2 2 .2.3.4.6.6 1 .2.4.3-.6.5-.3s.7 2.3-.1 2.5h-.4c-.7 0-1.5-.1-2.2 0h-2.2c-.3 0-.4 0-.6-.1-.1-.1-.2-.2-.3-.4-.4-.8-.9-1.7-1.4-2.7-.5-1-1-1.9-1.5-2.7-.1-.2-.2-.3-.3-.4-.1-.1-.2-.3-.3-.4-.2-.3-.5-.5-.9-.5-.3 0-.5 0-.7-.1-.2 0-.5-.1-.7-.1-.4 0-.6 0-.7.1-.1.1-.2.4-.2.7 0 .9 0 1.8.1 2.7 0 .9 0 1.8.1 2.7 0 .3 0 .6-.1.7-.1.1-.3.2-.6.3-.1 0-.2.1-.4.1h-4.3c-.2 0-.3 0-.5-.1-.4 0-.6-.3-.7-.7 0-.2-.1-.4-.1-.6 0-.2-.1-.4-.1-.6v-2.8c0-.9 0-1.8.1-2.8V548v-2.6-4.2-4.2c0-.5.1-.8.2-.9.1-.1.5-.2 1-.2h2.9c.5 0 1 0 1.4-.1.4 0 .8 0 1.2-.1.5.5.8.5 1.2.5zm-1.2 7.8v2.3c0 .4.2.6.6.6.5 0 .9-.1 1.4-.1.4 0 .9 0 1.4-.1.5-.1.9-.2 1.3-.4s.8-.5 1.2-.8c.3-.3.4-.6.5-1 .1-.4.1-.8 0-1.2-.1-.4-.2-.7-.5-1-.2-.3-.5-.5-.9-.6-1.6-.4-3.1-.6-4.6-.5-.1 0-.1.1-.2.2s-.1.2-.1.3v1.1c-.1.5-.1.8-.1 1.2z"/><path class="st8" d="M220.4 545.8c-.1 1.1-.3 2.1-.5 3.1s-.6 1.9-1 2.8c-.4.9-1 1.7-1.7 2.4s-1.5 1.4-2.5 1.9c-.8.4-1.5.8-2.3 1-.8.2-1.6.3-2.5.3-1.4 0-2.7-.2-3.8-.5-1.1-.4-2.1-.8-2.9-1.4-.8-.6-1.6-1.2-2.1-1.9-.6-.7-1.1-1.4-1.4-2.1-.4-.7-.7-1.3-.8-1.9-.2-.6-.3-1-.3-1.4 0-.6-.1-1.2-.2-1.9-.1-.6 0-1.3.1-1.9.2-1.1.6-2.2 1.2-3.3.5-1.1 1.2-2.1 2.1-2.9.8-.9 1.8-1.6 3-2.2 1.1-.6 2.4-1 3.9-1.2.8-.1 1.7-.1 2.5 0s1.7.4 2.5.7c1.4.5 2.5 1.3 3.5 2.2.9 1 1.7 2.1 2.3 3.5.3.7.6 1.5.9 2.2-.1.9.1 1.7 0 2.5zm-5.7-.1v-.6c0-.1 0-.3-.1-.4 0-.1 0-.2-.1-.3 0-.1 0-.2-.1-.3-.1-.3-.3-.7-.6-1.1-.3-.4-.7-.8-1.1-1.1-.4-.4-.9-.7-1.5-.9-.5-.2-1.1-.4-1.6-.4-1 0-1.9.2-2.6.6-.7.4-1.3.9-1.7 1.5-.4.6-.7 1.3-.9 2-.2.7-.3 1.4-.3 2 0 .4.1.8.3 1.4.2.5.6 1 1 1.5s1 .9 1.7 1.2c.7.3 1.4.5 2.2.5.9 0 1.7-.2 2.4-.6.7-.4 1.2-.8 1.7-1.4.4-.6.8-1.1 1-1.8.2-.7.3-1.3.3-1.8zM236.4 535.3c.6.3 1.1.6 1.5 1 .4.4.8.9 1.3 1.3.1.1.2.3.1.5 0 .2-.1.3-.2.4-.4.5-.8.9-1.2 1.4-.4.4-.8.9-1.3 1.3-.2.2-.4.2-.7.1-.2-.2-.5-.4-.7-.6-.2-.2-.5-.3-.7-.5-.3-.2-.6-.4-1-.5-.3-.2-.6-.3-1-.4-.4-.1-.7-.2-1.1-.1-.3.1-.5.3-.7.6-.1.3-.2.6-.1 1s.2.7.5.9c.4.3.7.5 1.1.7l1.2.6c.6.3 1.1.6 1.7.9.6.3 1.1.6 1.6.9.5.3 1 .7 1.4 1.2.4.4.8.9 1.2 1.4.5.6.7 1.2.8 1.9.1.7.1 1.4 0 2.1-.3 2.8-1.8 4.6-4.5 5.5-1.1.4-2.1.5-3.1.5s-2.1-.2-3.1-.5-1.8-.6-2.7-1.1l-2.4-1.5c-.1-.1-.3-.2-.4-.3-.2-.2-.4-.3-.5-.4-.1-.1-.2-.2-.2-.3 0-.1 0-.2.1-.4.1-.1.2-.4.3-.6.3-.5.5-1 .7-1.5.2-.5.4-1 .7-1.5.1-.2.2-.4.2-.5.1-.2.2-.3.3-.5.1-.1.2-.2.3-.2.1 0 .2 0 .3.1l.8.8.8.8c.6.6 1.3 1 2 1.4.7.3 1.5.6 2.2.9.3.1.6.1 1 0 .3-.1.6-.2.9-.4.2-.2.4-.4.5-.7.1-.3.1-.6 0-.9-.1-.3-.2-.6-.5-.8-.3-.3-.6-.6-1-.8-.3-.2-.7-.5-1.1-.7-.6-.4-1.2-.7-1.8-1.1-.6-.3-1.3-.6-1.9-.9-1-.5-1.7-1.1-2.3-1.8-.5-.7-.9-1.6-1.2-2.6-.3-1.4-.1-2.7.7-3.9.3-.5.6-.8 1-1.2.3-.3.8-.6 1.5-1 .9-.5 1.9-.8 2.8-.9.9-.1 1.7-.2 2.5-.1.7.1 1.4.2 2 .3.7.4 1.1.6 1.4.7zM243.6 547.1c0-1.5.2-2.9.6-4.2.4-1.3.9-2.5 1.6-3.7.3-.5.7-1 1.1-1.4.4-.4.9-.8 1.4-1.1 1.3-.8 2.6-1.3 3.9-1.7 1.4-.3 2.8-.4 4.3-.3.9.1 1.8.3 2.6.6s1.6.7 2.4 1c.6.2.7.6.2 1.2-.5.6-.9 1.1-1.4 1.7-.5.5-.9 1.1-1.4 1.7-.2.2-.3.3-.5.3h-.7c-.5-.1-1-.1-1.5-.2-.5 0-1 0-1.4.1-.7.1-1.3.3-1.8.6s-1 .7-1.4 1.1c-.4.5-.7 1-.8 1.6-.2.6-.3 1.2-.2 1.9 0 .4.1.8.1 1.2 0 .4.1.8.2 1.2.2.6.5 1.2.9 1.6.4.4 1 .7 1.7.7.5.1.9.1 1.4.2.5 0 .9 0 1.4-.1.6-.2 1.2-.4 1.6-.7.4-.3.8-.8 1.3-1.4.3-.7.8-.8 1.3-.4l1.8 1.2c.6.4 1.1.8 1.7 1.2.3.3.5.5.4.7-.1.2-.3.5-.5.9-.1.2-.4.5-.9.9s-1 .9-1.6 1.3c-.6.4-1.3.9-2 1.3s-1.3.7-1.9.8c-.8.2-1.5.3-2.3.4-.8 0-1.5 0-2.3-.1-1-.1-2-.4-2.9-.8-.9-.4-1.8-.9-2.6-1.6-.1-.1-.3-.3-.6-.5l-.8-.8c-.3-.3-.5-.6-.8-.9-.3-.3-.5-.7-.6-1.1-.2-.4-.3-.8-.4-1.1-.1-.4-.2-.7-.4-1.1-.1-.4-.1-.8-.2-1.2.1-.3 0-.6 0-1zM281.7 535.1c.4 0 .7 0 .8.1.1.1.2.3.3.7.2.8.3 1.5.5 2.2.1.7.3 1.4.5 2.2.4 1.7.8 3.3 1.2 4.9.4 1.6.8 3.2 1.2 4.9.2.7.4 1.5.5 2.2.2.7.4 1.5.5 2.2.1.3.1.6.2.9.1.3.1.6.2.8.1.5 0 .8-.6.9h-.2c-.8 0-1.7.1-2.5 0h-2.4c-.3 0-.6-.1-.6-.2-.1-.1-.1-.4-.2-.8-.1-1-.3-2-.6-3 0-.2-.1-.4-.3-.4h-2.9c-.8 0-1.6 0-2.4.1-.2 0-.3 0-.4.1-.1.1-.2.2-.2.4-.1.5-.3 1-.4 1.5-.1.5-.3 1-.4 1.5-.1.3-.2.4-.3.5-.1.1-.3.2-.6.2h-5.2c-.6 0-.7-.3-.6-.9.2-.7.5-1.4.7-2.1.2-.7.5-1.3.7-2 .5-1.5 1-3.1 1.4-4.6.5-1.5 1-3.1 1.5-4.6.2-.5.4-1.2.6-1.9s.5-1.5.7-2.2c.2-.7.4-1.3.6-1.8.2-.5.3-.8.3-.8.1-.2.1-.4.2-.6 0-.1.1-.2.2-.3.1-.1.2-.1.4-.1H281.7zm-2.6 13.6c.4 0 .5-.2.4-.6l-.6-2.4-.6-2.4c0-.1-.1-.1-.1-.2s-.1-.1-.2-.1-.1 0-.2.1c0 .1 0 .1-.1.2-.3.7-.5 1.5-.8 2.2-.3.7-.5 1.5-.8 2.2-.1.3-.2.6-.2.8v.4c.1.1.2.1.3.1h.7c.3 0 .5 0 .7-.1h.6c.6-.2.8-.2.9-.2zM300.1 535.1c1.2 0 2.5.1 3.7.2 1.2.1 2.4.4 3.6.9.6.3 1.1.6 1.6.9.5.4.9.8 1.2 1.3.5.8.9 1.6 1.1 2.5.2.9.3 1.7.2 2.6-.1.8-.3 1.6-.6 2.4-.3.8-.7 1.5-1.2 2.1-.2.3-.5.5-.8.7-.3.2-.7.4-1 .6-.2.1-.3.2-.3.3 0 .1 0 .3.1.4.4.7.8 1.3 1.2 2 .4.7.8 1.3 1.2 2 .2.3.4.6.6 1 .2.4.4.8.6 1 .2.3.2.6.1.8-.1.2-.2.3-.3.3h-.4c-.7 0-1.5-.1-2.2 0h-2.2c-.3 0-.4 0-.6-.1-.1-.1-.2-.2-.3-.4-.4-.8-.9-1.7-1.4-2.7-.5-1-1-1.9-1.5-2.7-.1-.2-.2-.3-.3-.4-.1-.1-.2-.3-.3-.4-.2-.3-.5-.5-.9-.5-.3 0-.5 0-.7-.1-.2 0-.5-.1-.7-.1-.4 0-.6 0-.7.1-.1.1-.2.4-.2.7 0 .9 0 1.8.1 2.7 0 .9 0 1.8.1 2.7 0 .3 0 .6-.1.7-.1.1-.3.2-.6.3-.1 0-.2.1-.4.1h-4.3c-.2 0-.3 0-.5-.1-.4 0-.6-.3-.7-.7 0-.2-.1-.4-.1-.6 0-.2-.1-.4-.1-.6v-2.8c0-.9 0-1.8.1-2.8v-2.6-2.6-4.2-4.2c0-.5.1-.8.2-.9.1-.1.5-.2 1-.2h2.9c.5 0 1 0 1.4-.1.4 0 .8 0 1.2-.1.5.5.8.5 1.2.6zm-1.2 7.7v2.3c0 .4.2.6.6.6.5 0 .9-.1 1.4-.1.4 0 .9 0 1.4-.1.5-.1.9-.2 1.3-.4s.8-.5 1.2-.8c.3-.3.4-.6.5-1 .1-.4.1-.8 0-1.2-.1-.4-.2-.7-.5-1-.2-.3-.5-.5-.9-.6-1.6-.4-3.1-.6-4.6-.5-.1 0-.1.1-.2.2s-.1.2-.1.3v1.1c-.1.5-.1.9-.1 1.2z"/><path id="XMLID_18_" class="st12" d="M280.9 165.2c-4.5-10.2-20.8-11.4-25.3-13.9-4.5-2.4-6.9-13.5-1.6-19.2 5.3-5.7 6.9-14.3 5.3-27.3-1.4-11-7.4-18.8-16.1-20.7-8.8 1.6-14.6 7.6-16.7 22.3-2.4 17.1 4.5 26.1 7.3 28.1 2.9 2 2 12.2-2.9 15.9-4.9 3.7-25.3-.4-32.7 18-5.2 12.8-12.3 44.2-8.9 75.8 1.6 15.1 26.1 25.3 26.1 29.3 0 4.1-6.5 22.8-2.4 52.2 2.1 15.3 12.3 35.9 13 42.8.7 6.6-3.8 25.8-3.7 33.4.4 25.7 17.1 41.2 10.2 61.1-5.8 16.8.9 18.5 3.3 19.2.9.3 1.7.5 2.5.6 10.4 3.1 15-3.5 15.8-3.5 1.2 0 4.6 2 8.4 3.2 8.8-2.5 7.3-6.2 6.4-15.4-2.9-28.9 1.6-34.2 3.3-56.2 1.6-22-5.7-39.9-6.9-43.2-1.2-3.3 6.6-23.6 8.2-40.4 3.6-39.9-4.9-52.6-5.7-54.2-.8-1.6 24.9-18.2 25-38.3.2-35.8-7.4-59.4-11.9-69.6z"/><path id="XMLID_17_" class="st9" d="M255.6 151.3c-4.5-2.4-3.9-14.2 1.4-19.9 5.3-5.7 5.9-16.9 2.8-29.6-4.3-18.1-7.5-12.3-12.2-16-8.1 1.9-13.3 8.3-15.3 22.1-2.4 16.8 4.4 25.1 7.2 27.1 2.9 2 4.9 14 0 17.6-4.9 3.6-25.3-.4-32.7 17.6-5.2 12.6-12.3 43.4-8.9 74.4 1.6 14.8 26.1 24.8 26.1 28.8s-6.5 22.4-2.4 51.2c2.1 15 12.3 35.2 13 42 .7 6.4-3.8 25.3-3.7 32.8.4 25.2 17.1 40.4 10.2 60-5.8 16.5 5.2 15.7 7.6 16.4 13.9 4 20.7-4 20.3-8.5-2.9-28.9 1.6-34.2 3.3-56.2 1.6-22-5.7-39.9-6.9-43.2-1.2-3.3 6.6-23.6 8.2-40.4 3.6-39.9-4.9-52.6-5.7-54.2-.8-1.6 24.9-18.2 25-38.3.1-35.9-7.5-59.5-12-69.7-4.5-10.3-20.8-11.5-25.3-14z"/><path id="XMLID_16_" class="st13" d="M245.5 304.8c.7-2.5 2.3-6.3 3.5-1.6 1.2 4.7 3 36.5 3.4 46.6.4 10.1 4.5 35.9 4.3 45.5-.2 9.5.8 65.4 0 70-.8 4.7-2.6-63.5-5.1-71.2-2.4-7.7-2-34.5-2.6-45.1-.6-10.6-4.5-40.5-3.5-44.2z"/><path id="XMLID_15_" class="st12" d="M238.3 362.8c-2.6 1.9-.6 12.4 3.7 13 4.3.6 6.2-2.6 5.5-7.7-.7-5-6.6-7.3-9.2-5.3z"/><path id="XMLID_14_" class="st12" d="M257.1 362.2c-2.4 1.3-2.2 10.4 1.3 11.5 3.6 1.1 5.6-1.3 5.7-5.7.2-4.4-4.4-7.1-7-5.8z"/><path id="XMLID_13_" class="st6" d="M297.7 217c1.6 5.7 3.7 22.5-3.7 31.7-7.3 9.1-14.7 24.4-26.2 24.5-11.5.1-29 .3-27.1-7.2 1.8-7.5 1.6-14.6 7.7-14.6s10.4 3.5 17.3 3c6.9-.4 23.5-3.7 25.8-19.3 2.2-15.6 6.2-18.1 6.2-18.1z"/><path id="XMLID_12_" class="st12" d="M220 270.6c6.3 1.5 22.5 2.8 32.1 1 9.5-1.8 7.9-15.6 5.9-17.1-2-1.4-8.5-1-12.4 1.4-3.8 2.4-9.3 4.1-21.5 1.2-12.2-2.8-22.3-17.9-26.9-27.4-4.6-9.5-6 8.5-5.4 11.4.6 2.9 12.8 25.9 28.2 29.5z"/><path id="XMLID_11_" class="st6" d="M216.3 183.5c1.4.1-.6 5.3-1.6 16.2-1 11-4.5 29.6-4.3 33.7.2 4.1-3.2-.4-2.2-8.5s1.2-41.8 8.1-41.4z"/><path id="XMLID_10_" class="st6" d="M261.2 160.3c2 .8 10.2 14.5 12.6 34.8 1.4 12.1 7.4 43 7 45.9-.4 2.8-12.2 9.2-14.5 8.8-2.2-.4-6.2-55.5-6.8-62.6-1.4-16-2.3-28.4 1.7-26.9z"/><path id="XMLID_9_" class="st12" d="M221 169.3c-.9 1.5-4 12.6-4.2 15.9-.2 3.2-6.5 45.1-6.3 48.3.2 3.1 13 16.4 15.1 16.3 2.1-.1 4.5-44.7 5.7-57.5 2.5-28 6-28.9 3.1-30.7-2.9-1.8-10.3 2.3-13.4 7.7z"/><path id="XMLID_8_" class="st13" d="M272.1 183.5c1.9-.6 7.7 33.1 8.3 39.6.6 6.5.1 12.7-.9 13.1-.9.4-11.4-51.4-7.4-52.7z"/><path id="XMLID_7_" class="st2" d="M232.4 101c-.8-1.3.5-8 5.6-12.3 5.3-4.3 6.5-2.8 6.9-1 .4 1.8-4.3 2.1-7.8 6.5-1.6 2.2-4 7.9-4.7 6.8z"/><path id="XMLID_6_" class="st2" d="M214.7 159c-1.9-1.7-8.6 2.9-10.2 9-1.6 6.1 17.6-2.1 10.2-9z"/><path id="XMLID_5_" class="st2" d="M230.7 188.2c2.4-.8 2.1 1.5 1 12.3-1 9.7-1.1 30.2-3.4 31.6-2.4 1.4-.2-43.1 2.4-43.9z"/><path id="XMLID_4_" class="st2" d="M226 298c-2.6 2.4-2.7 17.9-1.1 26.9 1.8 9.7 4.3 8 4.1 5-.7-10.2-.7-34.1-3-31.9z"/><path id="XMLID_3_" class="st2" d="M258.7 395c-1.9 0-1 35.1 0 36.1 1.1 1.1 4.5-36.1 0-36.1z"/><path id="XMLID_2_" class="st2" d="M236.7 462c1.5-3.5 7.5-3.5 7.7 4.2.2 7.8-13.9 10.4-7.7-4.2z"/><path id="XMLID_1_" class="st2" d="M240.7 359.8c-1.5-.9-5.7 3.5-6 7.3-.3 3.8 2.5 6.2 3.3 4.5.8-1.7-1-4.4 1.1-7.4 1.5-2 5.3-2.1 1.6-4.4z"/></g></svg>