<svg version="1.1" id="Layer_1" xmlns="http://www.w3.org/2000/svg" xmlns:xlink="http://www.w3.org/1999/xlink" x="0" y="0" width="510" height="710" xml:space="preserve"><style>.st3{fill:#1a1818}.st4{fill:#010101}.st5,.st6{clip-path:url(#XMLID_391_);fill:#ada5a5}.st6{clip-path:url(#XMLID_392_)}.st9{fill:#fff}.st10{fill:#fdb625}.st11{fill:#fec366}</style><radialGradient id="XMLID_390_" cx="245.429" cy="449.286" r="305.724" gradientUnits="userSpaceOnUse"><stop offset="0" stop-color="#3256a6"/><stop offset="1" stop-color="#010101"/></radialGradient><path id="XMLID_388_" fill="url(#XMLID_390_)" d="M5 1.4h500v707.1H5z"/><path id="XMLID_387_" d="M139.6 508.4s-10.5.6-9 2.9S158.9 646.7 160 648c1.1 1.4 6.6 6 10.4 3.4 3.9-2.6-30.8-143-30.8-143z" fill="#484141"/><path id="XMLID_386_" d="M88.5 458.6c1.6-1.4 156.8-148 167.7-152.4 1.8-.7 8.5-.4 15.2 7.2 11.8 13.5 25.1 39.4 24.3 43-1.2 5-127.1 118.8-156.1 151.9-3.1 3.5-7.5 2.2-9 2.9.1 0-49.4-46.2-42.1-52.6z" fill="#353030"/><path id="XMLID_385_" class="st3" d="M95.4 458.5C97.1 457 260.8 305.4 265.6 308c4.8 2.6 40.8 44.5 39.5 50.2-1.4 5.7-167.6 152-167.6 152s-49.4-45.3-42.1-51.7z"/><path id="XMLID_384_" class="st3" d="M360.8 458.4c-2.7-3.7-223 43.8-223.7 50.1-.7 6.4 25 144.7 30.9 143.4 5.9-1.3 210.8-44.7 220.1-49.5 5.3-2.6-21.4-136-27.3-144z"/><path id="XMLID_383_" class="st4" d="M137.5 510.3s166.3-146.3 167.6-152c.7-2.9-8.4-15.3-18.1-27.1-45.8 43-139.4 131.3-168.7 160.4 9.9 10.1 19.2 18.7 19.2 18.7z"/><path id="XMLID_382_" class="st4" d="M137.1 508.5c-.2 2.2.4 9.8 4.6 32.4l228.4-49.3c-4.9-22.7-7.2-30.4-9.3-33.3-2.6-3.6-223 43.8-223.7 50.2z"/><defs><path id="XMLID_374_" d="M137.5 510.3s166.3-146.3 167.6-152c.7-2.9-8.4-15.3-18.1-27.1-45.8 43-139.4 131.3-168.7 160.4 9.9 10.1 19.2 18.7 19.2 18.7z"/></defs><clipPath id="XMLID_391_"><use xlink:href="#XMLID_374_" overflow="visible"/></clipPath><path id="XMLID_381_" class="st5" d="M114.8 475.5s54.3 10.8 54.6 12c.3 1.2-5.2 10.3-5.2 10.3l-52.4-9.1 3-13.2z"/><path id="XMLID_380_" class="st5" d="M138.7 452s54.3 10.8 54.6 12c.3 1.2-5.2 10.3-5.2 10.3l-52.4-9.1 3-13.2z"/><path id="XMLID_379_" class="st5" d="M164.4 429.9s54.3 10.8 54.6 12c.3 1.2-5.2 10.3-5.2 10.3l-52.4-9.1 3-13.2z"/><path id="XMLID_378_" class="st5" d="M190.8 405.9s54.3 10.8 54.6 12c.3 1.2-5.2 10.3-5.2 10.3l-52.4-9.1 3-13.2z"/><path id="XMLID_377_" class="st5" d="M217.1 381.9s54.3 10.8 54.6 12c.3 1.2-5.2 10.3-5.2 10.3l-52.4-9.1 3-13.2z"/><path id="XMLID_376_" class="st5" d="M241.3 360.2s54.3 10.8 54.6 12c.3 1.2-5.2 10.3-5.2 10.3l-52.4-9.1 3-13.2z"/><path id="XMLID_375_" class="st5" d="M261.4 333.9s54.3 10.8 54.6 12c.3 1.2-5.2 10.3-5.2 10.3l-52.4-9.1 3-13.2z"/><defs><path id="XMLID_366_" d="M137.1 508.5c-.2 2.2.4 9.8 4.6 32.4l228.4-49.3c-4.9-22.7-7.2-30.4-9.3-33.3-2.6-3.6-223 43.8-223.7 50.2z"/></defs><clipPath id="XMLID_392_"><use xlink:href="#XMLID_366_" overflow="visible"/></clipPath><path id="XMLID_373_" class="st6" d="M362.3 463.1s-24.3 49.8-23.5 50.7c.8 1 11.3 2.1 11.3 2.1l24.5-47.3-12.3-5.5z"/><path id="XMLID_372_" class="st6" d="M336.8 450.3s-32.5 68.8-31.7 69.7c.8 1 11.3 2.1 11.3 2.1l32.7-66.3-12.3-5.5z"/><path id="XMLID_371_" class="st6" d="M306.8 448.7s-39 79.3-38.2 80.3c.8 1 11.3 2.1 11.3 2.1l39.2-76.9-12.3-5.5z"/><path id="XMLID_370_" class="st6" d="M271.2 458.2s-38.4 76.2-37.6 77.2c.8 1 11.3 2.1 11.3 2.1l38.6-73.8-12.3-5.5z"/><path id="XMLID_369_" class="st6" d="M234.4 468.2s-36.7 72.6-35.9 73.6c.8 1 11.3 2.1 11.3 2.1l36.9-70.2-12.3-5.5z"/><path id="XMLID_368_" class="st6" d="M200.3 477.6S165.7 547 166.5 548c.8 1 11.3 2.1 11.3 2.1l34.8-67-12.3-5.5z"/><path id="XMLID_367_" class="st6" d="M167.8 480.5s-35.2 66.6-34.4 67.5c.8 1 11.5 12.2 11.5 12.2l35.2-74.2-12.3-5.5z"/><path id="XMLID_365_" d="M154.2 556c1.1-.3 189.3-40.2 191.3-35.5 2 4.7 18.7 74 9.4 78.6-9.3 4.6-180.3 39.6-183 39.3-2.6-.5-21.3-81.5-17.7-82.4z" fill="#211e1e"/><path id="XMLID_364_" d="M163.9 563.6c2-.7 113.6-23.2 114.9-21.6 1.3 1.6 12.4 48.4 10.7 49.5-1.7 1-110.3 26.7-113 24.7-2.7-2-16.2-51.4-12.6-52.6z" opacity=".64" fill="#2d2a2a"/><path class="st9" d="M168.1 594.2c-.1-.4-.3-1.6-.4-1.7l-.2-.2-2.7-12.6c-.2 0-.3-.2-.4-.4 0-.2-.2-.7.3-.9h1c.1 0 .4-.2.4-.3v.2c3.1-.7 6.1-1.7 9.3-2.4.7-.2 2.3-.4 2.5.5l.4 2c0 .2-.2.2-.3.2-1.7.4-3.3.6-5 .9-.4.1-.8.3-1.3.4-.4.1-3.6.2-3.4 1.2l.6 2.6s-.1.3-.1.4c.2.9.6 2.5 1 2.7 1.2-.1 2.6-.3 3.9-.6.8-.2 1.5-.3 2.1-.5.1 0 1.3.4 1.5.3.1 0 .3-.3.5-.4 0 0 .2.1.2.2-.4.9-.2.9-.2 1.9 0 .4-1.5.8-2.2.9-1.7.4-2.9 0-4.6.3-.4.1-.5-.1-.6-.1-.7.2-.8.3-.6 1 .1.5.9 3.6 1.2 3.6l1.2 5.5c.1.4-.3.5-.5.5s-.3 0-.4-.1c-.1 0-.9.6-1.6.8-.2 0-.8-.4-.8-.6-.4-1.5-.4-3.6-.8-5.3zm.3-6.8c.2 0 .4-.4.4-.5-.1-.3-.8-.8-1-.8h.3c.3-.1.3-.4.2-.6-.1-.5-.3-.5-.4-.7-.2-.9.2-2.1 0-3.1-.4.1-.9.1-1.3 0 0-.2.5-.4.9-.5l-.2-.9c-.2 0-.5.1-.7-.1.4-.1.4-.2.4-.4s-.1-.4-.3-.4l.2-.2-1.6.4c.1.4.7.6 1 .6-.5.1-.6.2-.5.5.1.4.4.7.5 1.1.2.7.1 1.3 1 1.7l-.6.1c1 1 .2 1 .3 1.8 0 .2.1.6.5.6 0 0 .1 0 .1-.1h-.2c-.4.1-.4.3-.3.6 0 .2.1.5.4.4 0 0 .1 0 .1-.1 0 .1-.2.3-.2.3l.1.1c.1.2.7.2.9.2zm-.5 1c.4-.1.6-.3.7-.6-.4-.1-.8-.1-1.3 0 .1.3.2.7.6.6zm1 1.5c-.1-.5-.4-.5-.5-1-.1-.4.4-.3.3-.7v-.1c-.3.2-1.1.7-1 1.3l.1.1c.1.5.8.5 1.1.4zm1.3 9.2c1.2-.3 1.2-1.2.9-2.2v-.1c0-.2-.1-.5-.2-.8-.1-.5-.2-1-.3-1.1l-.7-.1.7-.2v-.2c-.1-.5-.6-1.4-.8-2.2-.5-.2-.9-.3-1.4-.2.1.4.2 1 .3 1.5.2 1.1.6 2.2 1.6 2.4l-.8.2.4 1.9.3.1c-.2.3-.1.8 0 1zm-.7-7.4c-.2-1-.5-.8-.7-1.5l-.8.2c.3 1 .4 1.6 1.5 1.3zm.4-3c.4-.1 1.8-.3 2-1-.2.1-.3.1-.5.1-1 .2-1.5 0-2.4.2.1.7.5.4.9.7zm-1.3-8.8h.3c.3-.1.3-.2.2-.4 0-.2-.1-.4-.3-.4-.3.1-.3.6-.2.8zm3.6 8.1l1-.2c-.1-.4-.2-.4-.5-.3-.3 0-.4.2-.5.5zm1.9.1c.7-.1.7-.4.6-1-.5.1-1.1.4-1.3.9.2.2.4.1.7.1zm-2.1-9.5c.4-.1.8-.5 1.1-.9l-1.4.3c-.1 0-.2.3-.2.4.1.3.4.2.5.2zm3.4 9.2c.4-.1 1.2-.3 1.1-.9l-1.2.3.1.6zm-.7-9.8c.2-.2 1-.5.9-1l-1 .2s-.1.5-.1.7l.2.1zm2.7-.3c-.1-.4-.2-.7-.6-.6-.3.1-.4.2-.5.5 0 .2.6.2 1.1.1zM186.8 596.1l-1.6.3-.2-.2c-.1-.3-.4-2-.5-2.4 0-.1-.3-.7-.4-.8 0-.2-.3-2.2-.3-2.4-.4-2-2-8.5-2.2-9.2 0-.2-.1-.4-.1-.7-.1-.4-1.2-3.5-1.6-5.4-.1-.3 1.8-.8 2.3-.9.3-.1 1.2-.3 1.3.3.1.3-.2.5-.3.7.5 2.1 1.5 4.3 2 6.4.1.4 0 .6 0 1 .1.3.6 1.8.6 2.2l2.3 10.6c0 .1 0 .4-.1.5-.4.1-.8-.1-1.1-.4l-.1.4zm-5-19.2c0 .1-.1.7-.2.8h.2c.6-.1 1-.5.8-1.1-.1-.6-.4-.9-1-.8-.1 0-.6.1-.5.3 0 .1.3.6.4.8l.3-.3v.3zm.3 2c.4-.1.7-.9.6-1.2-.3.1-1 .5-.9.9 0 .2.2.4.3.3zm4.2 16.1c.2 0 .4-.1.7-.2 0-.5 0-.8-.1-1.3-.1-.4-.3-.5-.4-.7-.1-.3.1-.3 0-1.1 0-.2-.1-.8-.5-.7 0 0-.5.4-.6.6.1-.3.6-1.1.7-1.6l-1.5.3c.2 1 .1 1.9.4 2.9 0 .2.3 1.1.3 1.3.3.6.4.6 1 .5zm-4.1-14.4c.1.3.3 1 .5.9.6-.1.9-1.3.7-1.8 0-.2-.3-.1-.5-.1-.9.2-.9.4-.8.8.1 0 .1.1.1.2zm.8 2.5l.2 1.6c.7-.3 1.4-1.4 1.2-2.2 0-.2-.3-.1-.5-.1-.3.1-1 .4-.9.7zm1.1 3.7c.4-.1.9-1 .8-1.4l-1.2.2v.7c.1.4.3.5.4.5zm-1.8-7.5l.9-.2-.2-.8c-.1.3-.8.7-.7 1zm2.1 9.9l.3-.1.8-1.2v-.2c-1.1.2-1.3.5-1.1 1.5zm-1.4-7c.2 0 .3-.1.4-.1.5-.1.8-.2.7-.7 0-.2-.1-.6-.4-.6-.1.3-.7 1-.7 1.4zm1.9 2.8c-.1-.5-.2-1.3-.6-1.2l-.8 1.2c.1.2 1 .1 1.4 0zm-.5 2.7l1-.4-.2-1.1c-.6.4-.9 1.1-1 1.4l.2.1zm.4 2.3c.9-.2 1.2-.3 1-1.3-.1 0-.2-.2-.3-.2-.5.1-.8 1.1-.7 1.5zm1.4 2.3c-.2 0-.6.3-.8.4.2-.2.3-.3.6-.4h.2zM192.4 589.7c0-.1-.4-3.6-.5-5.5-.6-1-1.1-2.9-1.5-4.9-.2-1.2-.5-2.4-.7-3.5-.4-.2-.5-1.1-.7-1.9 0-.2-.1-.4 0-.5l.3-.5 2.6-.6.3.1s.6 1.4.8 1.9c.5 1.2.8 2.5 1.1 3.8.7 3.3.7 6.5 1.4 9.8.1.4.4 1.4.4 1.5l.4.3c-.1.1-.2.2-.1.3 0 .2.2.4.2.5.4-.1 3.8-.7 4.5-.8.3.2.8.1 1.2 0 1.6-.4 2.3-1 3.6-1.3.1.6.5 1.1.6 1.6.1.4-.5 1-.6 1.1-.1 0-1.1 0-1.2.1-.6.7-1.5 1.1-2.7 1.3-.8.2-1.7.3-2.4.4-.4.1-1.1.3-1.9.4-1.8.4-4 .7-4.3-.8l-.7-3.2-.1.4zm1.3.9c0 .2.3 1 .4 1.2.4-.3.6-.6.8-1-.2 0-.5-.1-.7-.3.3-.1.6-.3.6-.4 0-.1-.2-.2-.3-.3 0-.2.2-.6.1-1.1l-.9.2c.9-.3.9-1 .7-1.8-1.7.4-1.5 1.1-1.1 2.8.1.2.4.7.4.7zm-2.8-13.5c.8-.2 1.7-.3 1.5-1.3-.1-.6-.6-2.6-1.2-2.4-.1 0-.7.3-1.1.5.3 1 .5 1.1.7 1.1.1 0 .2-.1.3-.1.1 0 .2 0 .3.2-.1.7-.6 1.3-.5 2zm.6 2.7c0 .1.1.4.2.5 1.1-.6 1.2-2.2 1-3.2-.5.1-1 .9-1.3 1.2.1.5.7.2.8.6v.1c-.6.1-.8.2-.7.8zm1.6 7.5c1.4-.3 1.2-1.4 1-2.5 0-.2-.2-.9-.3-1.4-.5.5-1.1 1-.9 1.8 0 .2.5.1.6.3.1.5-.5 1.1-.4 1.8zm-2-9.8h.2c.2 0 .4-.1.4-.3h-.1c-.1.1-.4.2-.5.3zm.8 3.8c.1 0 .6-.1.7-.1 1-.2 1-.8.7-1.8l-.3.1-1.1 1.8zm.2.8c.2 0 .8-.2.7-.5l-.1-.1-.7.4.1.2zm2.1 10.1c.2 0 1.2-.2 1.1-.6 0-.1-.2-.4-.3-.4l-.8 1zm.6.7c.7-.2 1-.2 1.2-1.1h-.2c-.5.1-1.4.4-1.5 1 .1.1.4.1.5.1zm-2.2-9c.3-.1.4-.5.5-.6l-.6.1.1.5zm0-1.1l1-.2-.2-.9c-.1.1-.5.8-.8 1.1zm4.8 9.7c.3-.1.8-.9.8-1-.2 0-.6.1-.9.4l-.1-.4c-.3.1-1.4.3-1.3.9.5 0 1.3-.1 1.5.1zm1.2-.1c.4-.1.9-.3 1.1-.7.1.1.4.3.5.3.4-.1.7-.8.6-1.1-.4 0-2.5.5-2.2 1.5zm2.2-.6h.3c.2 0 .5-.4.8-.4l.2.2c.5-.1 3.1-1 3-1.5-1.4.3-2.5.8-3.9 1.1l-.4.6zM207.7 590.2c0-2.2-.1-4.3-.5-6.4-.1-.4-.2-.7-.3-1.1l-.3-7.4c-.2-1-.3-2.2-.4-3.6 0-.5-.5-2.4.3-2.6.1 0 .6.1.8.1 0 0 .4-.3.5-.3 1.5.2 6.5 7.3 8.2 8.2.7-.8.9-2.9 1.3-3.8 0-.2.8-2.2.9-2.4.2-.5.9-3.3 1-3.9.1-.6.8-.8 1.3-.9.4-.1 1.5-.1 1.7.7v.3c0 .1.1.2.1.3 1.6 5.1 3.1 6.8 5.2 14.4.3 1.2 1 2.4 1.3 3.7.3 1.3-.2 1.3-1.1 1.5-.6.1-2.1.4-2.2-.3-.1-.4-.1-1.4-.1-1.3-.5-1.5-1-3.9-1.1-4.3-.2-.9-1.9-4.9-1.9-5l-.2-.2c-.1-.5-.9-3.7-1.2-3.7l-.4.1.2.8c0 .1-1.2 6.2-1.8 8.7-.1.6-.2 1.7-.9 1.9-.9.2-1.6-.2-1.8-1.1-2.1-2.3-4.6-4.9-6.2-7.6 0 0-.2-.1-.3-.1 0 .3.1 1.9.1 2.3.4 1.7.2 4 .6 5.8 0 .2.1.4.2.7l.5 6.9c0 .4-.5.6-.8.6-.9.2-1.3.2-2.2-.2-.3-.3-.4-.7-.5-.8zm2-.2c.4-.1.3-.6.2-1.1-.1-.3-.2-.6-.2-.7l-.4.1-.1-.2c0-.1 0-.4.1-.5-.8.2-.7 1.4-.6 2 .2.4.7.5 1 .4zm-1.2-5.6c1.1-.2 1-1 .9-1.7-.3-1.2-.6-1.1-1.9-.8l.5 1.5c0 .1.7.4.7.4.1.1-.1.6-.2.6zm1.1.9c0-.1-.1-.5-.2-.6l-.4.3-.1-.3c-.8.2-.6 1.1-.3 2.6 1.1-.2 1.1-1.3 1-2zm-1.9-4.6l.1.4c.2 0 .8-.5 1.1-.7-.1-.1-.3-.1-.4-.1-.3.1-.8.3-.8.4zm-.1-1.2c.1 0 .6-.2.8-.4-.1-.2-.2-.2-.4-.1-.1 0-.2.1-.4.1v.4zm1.4.5c.2 0 .2-.2.1-.4 0-.1-.1-.3-.3-.3 0 0-1 .5-1.1.9l1.3-.2zm-.8 1.6s1.1-.2 1-.7c0-.1-.2-.1-.2 0-.4 0-.9.2-.8.7zm-.1-3c.4-.1.9-.4.9-.6 0-.1-.1-.1-.1-.2l-1.3-.4-.1.6.6-.1c0 .3-.2.5-.5.6.1.1.3.1.5.1zm.8-1.4c-.2-1-.4-1.4-1.5-1.2 0 .2.3.3.5.4-.3.1-.4.2-.3.4.2.5.9.5 1.3.4zm-.6-1.6c.5-.1.5-.9.4-1.3-.9.2-.9-.1-1.4 0l.2 1c.3.1.7.4.8.3zm.2-3v.1c.3-.1 1.1-.7 1-1-.1-.4-.8-.4-1-.3-.4.1-1.5.6-1.4 1.2.4-.1.8-.5 1.2-.7-.1 0-.2.3-.1.4 0 .1.3.2.3.3zm-1.6-1.4c.2 0 .5-.3.8-.4.1.2.6.1.9.1-.1-.4-.2-.4-.5-.4l-.1-.4c-.1 0-1.2.1-1.3.1l.2 1zm1.4 2.8c.5-.1.8-.1.9-.8-.1 0-1 .5-1.3.7.1.1.2.1.4.1zm1.2-.3l.3-.1c.2 0 1.1-.2 1.1-.6 0-.1-.3-.3-.5-.4-.4.4-.8 1-.9 1.1zm.9.7c.1 0 .3-.4.4-.6-.1 0-.4.1-.4.1-.1 0-.6.1-.5.3.1.1.5.2.5.2zm1.1 1c.4-.1.7-.2 1-.4-.1-.2-.3-.4-.5-.5-.2 0-.6.5-.5.9zm.6.5c.2 0 .3-.3.5-.3l-.6.1.1.2zm.8 1c.1 0 .7-.2.6-.6l-.9.2c0 .2.1.4.3.4zm-.2-.8l.6-.1-.1-.4c-.3 0-.6.2-.5.5zm.4 1.4c.4-.1 1-.2 1.1-.7-.1-.1-.3-.1-.4-.1-.3.1-.7.4-.7.8zm.2.5c.1.3.4.3.6.2.4-.1.8-.1.8-.6l-1.4.3v.1zm1 .7h.4c.3-.1.6-.1.7-.4 0-.1-.3-.3-.4-.3h-.1c-.2-.1-.5.4-.6.7zm.6.8c.4-.1.7-.3.7-.6l-.8.2.1.4zm1.3 1.5c1.6-.3 2.7-1.4 2.3-3.2-.2.1-.3.2-.6.3.1 0 .4-.3.3-.5 0-.1-.3-.3-.3-.5h.7c.4-.1.3-.6.2-.9l-.6.1c.4-.5 1.5-1.9 1.3-2.8-.8.2-1.7.8-1.5 1.7 0 .2.2.2.5.2-1 .4-1.2 2-1.5 2.8l.5.2c-.5.6-1.9.4-2 1.2l.3.1c.1-.1.8-.3.9-.4.1 0 .5-.1.6-.1v.2c-.4.3-1.2 1.1-1.1 1.6zm-.5-.7c0 .1 0 .1 0 0 .3 0 .5-.2.4-.5-.2.1-.5.3-.4.5zm1 1l.1.1c.1 0 .4-.4.3-.4v-.1c-.2.1-.4.3-.4.4zm.5.8c.4-.1.4-.6.5-.8h-.1c-.3.1-.4.4-.4.8zm1.2-8.4c.4-.1.8-.4 1.1-.7-.1-.1-.5-.3-.7-.3-.4.1-.5.7-.4 1zm3.7-1.7c.6-.1.9-.2.9-.4 0-.1-.3-.5-.3-.6l-1.3-4h-.2c-.6.1-1.1.8-1.4 1.3.3.4 1.1.1 1.5.3-.2.7-1.4.8-1.3 1.4l1.6-.3.3.3c-.5.5-3.1 1.1-2.9 2 0 0 0 .1.1.1l.7-.4-.2-.2c.1-.1 1.1-.4 1.3-.5h.2l-.2.2c.6.3.3 1 1.2.8zm-2.5.6c.2 0 .3-.1.5-.3 0-.1-.2-.2-.2-.2-.1 0-.6.3-.8.4.2.1.3.1.5.1zm-.3-1.8l.9-.2c-.2-.2-.4-.1-.6-.1-.2 0-.4 0-.3.3zm.3-1.3c.3-.1.5 0 .7-.4-.1-.2-.3-.1-.5-.1s-.3.1-.2.5zm2.3 1.1l-.6.1.6-.3v.2zm.5 2.4c.3-.1.5-.3.7-.5-.5 0-1.2.1-1.3.1.1.1.5.4.6.4zm.3.5l.8.1-.1-.7c-.2.1-.8.3-.7.6zm.4.8c.2-.1.2-.3.2-.5-.2 0-.3.1-.4.3l.2.2zm1 .9l-.2-1.1c-.4.1-.8.4-.7.8.1.4.5.4.9.3zm-.4 1s.8-.3.7-.5c-.1-.3-.5-.3-.7-.2-.1 0-.2.1-.2.1l.2.6zm1.2.8c.3-.1.2-.6.1-.9-.3.1-1.1.3-1 .8l.1.1h.8zm-.4 1c.4-.1.6-.3.7-.6-.3 0-.6-.1-.9 0l.2.6zm1.1 1.1l-.3-1.2c-.3.1-.7.5-.7.7.1.5.5.6 1 .5zm-.5.6c.2 0 .3-.1.3-.3l-.4.1.1.2zm1 1l-.3-1.2c-.4.2-.7.6-.6 1 .1.4.7.3.9.2zm-.3 1.9l.9-.2-.2-.8c-.4.1-.8.5-.7 1zm0-.8l.5-.7-.6.1.1.6zm.3 1.4c.1 0 .5-.1.5-.3l-.6.1.1.2zm.9 2.6c.6-.2.8-.4.7-.7-.1-.4-.6-2-.9-1.9-.2 0-.6.4-.6.7.1.3.8 1.8.8 1.9zM240.8 581.7c-.8-3.9-1.2-7.8-2.1-11.9-.4-.8-.8-1.7-1-2.6-.3-1.4-.2-2.5-.5-3.9 0-.2-.1-.5-.2-.7.7-.4 1-.4 1.6-.6.7-.2 1-.2 1.9-.2 2.1 2.1 4.4 4.1 6.1 6.5.1.3 5.8 5.6 6.5 5.5.3-.1-.6-4-.7-4.5-.1-.5-.6-2.7-1-4.3-.1-.1-.3-.6-.4-.7-.2-1.2-.3-2.2-.5-3.3-.2-.9.5-1.2 1.2-1.3.8-.2 1.7-.4 1.8.1.1.3 0 .6.1.9.1.4.4.8.5 1.3.5 2.3 1.4 4.3 1.9 6.7.4 2 .5 4.1.9 6.1.4 1.6.7 3.4 1.3 5 0 .2.4.6.5 1.1-.8.2-2.2.1-2.5.1-.9-.9-2.7-1-3-2.5-.4.1-.4.1-.5-.3-1.1.2-1.8-1.5-2.6-2.3-.7.2-1.2-.9-1.5-1.3-.6-.5-1.4-.8-1.8-1.5-.6-.9-4.5-4.6-5-4.5-.2 0-.1 1-.1 1.3.7 3.2 1.8 6.2 2.5 9.4.3 1.3.1 2.6.4 3.9.2.8-1.3 1.1-2 1.2h-1c-.1-.6-.7-2.3-.8-2.7zm1.2 1.1l.5-.1.8-1.2v-.2c-.9.2-1.5.5-1.3 1.5zm-.4-2.4c.1.5.3.9.8.8.4-.1 1.1-.2.9-.7l-.1-.3c-.2.3-.6.8-1.1.9.2-.2.2-.4.1-.6 0-.2-.1-.4-.2-.6 0-.2.3-1.6.3-1.8-1 .3-1.1.8-.9 1.7.1.1.1.4.2.6zm-3.4-16.8l.6-.5c-.1 0-.4-.1-.5-.1-.1 0-.4.1-.3.3 0 0 .1.3.2.3zm.3 1.6l1.2-2.1h-.2c-.6.1-1.4 1.3-1.2 1.9 0 .1.2.2.2.2zm.3 1.8h.2l2.8-2.3s-.3-.6-.5-.5c-.7.1-2.2 2-2.5 2.8zm-.2-.8h.2l1.4-1.3h-.2c-.6.1-1.6.7-1.4 1.3zm1.1 3.5c.2-.2 1-1.2.9-1.7-.2-.2-.5-.8-.6-1.3 0 .1-.8.6-1 .9l.4 2 .3.1zm1.6 7.5l.6-1h-.2c-.1 0-.7.3-.7.6.1.1.3.4.3.4zm-1.4-6.2c.1 0 .9-.8.9-.9v-.2c-.6.1-1 .4-.9 1.1zm.8 2.2c.4-.4.8-.9.6-1.5-.4.1-1.1.3-1 .9 0 .1.3.6.4.6zm.2 2l.8-1.2v-.2c-.7.4-1 .4-.8 1.4zm-.6-3.5c.5-.1.8-.5.7-1.1-.4.1-.8.6-.7 1.1zm1 4.1c.5-.1 1-.4.9-1.1l-.1-.3c-.3.2-.8.9-.8 1.4zm.6 2.1c.4-.1 1-.3.9-.9 0-.1-.2-.5-.3-.6-.4.4-.8.9-.6 1.5zm-.8-4.3c.4-.1.7-.2.6-.6 0-.2-.1-.3-.3-.4-.2.3-.4.7-.3 1zm1.3 6.1c.6-.1.8-1 .7-1.5-.6.1-.8 1.1-.7 1.5zm-2.8-15.3h.1c-.1 0 .7-.6.9-.9 0-.1-.2-.4-.3-.4-.4.1-.6 1-.7 1.3zm4.4 4.4c.1 0 1.2-.3 1.2-.6-.2-.7-1.4-1.8-2-2.4l-1.2-.8c-.2.1-.6.5-.9.8.6.7.7 1 1.4.9.2.8.3 1.1 1 1.5l.4-.9.1.2c.1.5-.1.8 0 1.3zm1.2.8c.4-.1.5-.6.4-1-.4.1-.8.2-1 .5.1.2.4.5.6.5zm1.1 1c.3-.1.6-.2.6-.6-.1-.4-.4-.5-.9-.6 0 0-.5.3-.4.6.1.6.5.6.7.6zm.9 1c.3-.3.3-.8.2-1.2-.4.1-.9.2-.8.7.1.3.2.5.6.5zm1.4 1.6c.4-.1.3-.9.3-1.1-.1-.4-.6-1.2-1.1-1.1-.1 0-.2.8-.4.9.1.4.4.5.8.4.3-.1.5-.2.6-.2-.1.2-.6.4-.5.6-.1.2.2.5.3.5zm2.7 2.1c.3-.1.8-.3.7-.7-.1-.3-.9-.6-.9-.6-.1 0-.1.1-.1.1l-1.4-1.8h-.1c-.4.1-.4.8-.3 1.1.1.5.4.7.9.6v.6c0 .2.1.3.4.2.1 0 .3-.1.5-.3 0 .1-.1.6-.1.6 0 .3.2.2.4.2zm1 1c.2 0 .7-.4.9-.6-.1-.4-.1-.5-.3-.5-.1 0-.2.1-.4.1l-.1-.5c-.4.1-.9.6-.9 1 0 0 .2.2.3.2.1 0 .3-.2.3-.3l.2.6zm2.4 1.6c1.8-.4 1.5-2.7 1.3-3.8 0-.2-.1-.4-.3-.3-1.4.3-.5 2.2-1.9 2.5v-.1c0-.1-.2-.2-.3-.3-.1.1-.7.5-.9.8l.9.6c.4-.4 1.3-1.5 1.9-1.6.1.4-.6 1.7-.7 2.2zm-1.1.3c.5-.1 1.3-1.2 1.2-1.6l-.1-.1c-.4.2-1.2.9-1.1 1.7zm1 .6c.4-.1.7-.2.6-.7-.3.2-.7.3-.6.7zm-2.5-14.9h.2l.8-1.2-.2-.2.3-.3s0-.9-.1-1.3c0-.1-.2-.3-.3-.3l-1.2.3s0 .6-.1.8c.1.4.4.9.8 1l-.6.1.4 1.1zm.3 1.5c.3-.1 1.1-2 1-2.1h-.2l-1 1.4.2.7zm.7 2h.2l.8-1.2c-.2-.3-1-.2-1.1-.2-.2 0-.3.6-.3.7 0 .2.3.7.4.7zm1 4.8l1.4-.3-.2-.8c-.1 0-.5.2-.7.4.2-.4.7-1.8.6-2.2-.7.1-.4 1-1.1 1.3l-.1-.4c.5-.6.9-1.5.8-2.2l-.8.2c.1-.4.7-.5.6-1 0-.1-.3-.3-.4-.3-.4.1-1 1-.9 1.5h.2s.1.1.1.2-.3.5-.3.5c-.1.6.1 1.5.2 2.1.2.9.4.4.6.8.2-.2.1.1 0 .2zm.5 2c.5-.1 1-.7 1.2-1.1l-.8.2c.2-.2.5-.8.4-.9l-1.2.3.4 1.5zm.9 4.5c.6-.1 1.1-.6 1-1.3h-.2l-.8 1.3zm1.3 1c.2 0 .1-.6 0-.7l-.1-.3-.9.6.1.4h.9zm-2.8-14.1c-.1-.4-.3-1.4-.6-1.4-.1.2-.4.9-.4 1.3.2.4.9.2 1 .1zM261 575.7c.3-2.2.2-4.4.5-6.5.2-1.6.6-2.8.7-4.5l.1-.2c0-.6-.2-2.4.6-2.5-.1-.6.1-4.5.5-4.9 2.8-.6 3.1-.8 4.2 1.2 0 0 .5.6.5.7v.3c.6-.1.9 1.8 1.8 2.2-.1 0-.2.2-.2.2.1.4.6.8.7 1.3l.4-.1c0 .1-.1.4-.1.5.1.3 1 .9 1.1 1.2.3.7.7 1.8 1.2 2.5.9 1.1.9-.1 1.8 2.5.7 2.1 2.8 4.3 4 6.1.1.6-.4.8-.9.9-.7.1-1.2-.2-1.8-.1-.3.1-.6.3-.9.4-.4.1-1.1-1.4-1.7-2.3-.5-.8-1.9-3.1-3.1-2.8-.8.2-1.6.5-2.4.7-1.3.3-2.5.3-4 .7-.1 1.4-.1 1.9-.6 4.2-.2.8.4 2.2-.6 2.4-.8.2-1.2.2-2.2 0-.2-1.2.3-3.3.4-4.1zm.9 2.9c.3-.1.2-.6.2-.7l-.3.1c.1-.3.7-1.1.7-1.6h-.3c-.7.1-.9 1.2-.8 1.7.1.3.2.6.5.5zm.1-3.6l.1.2c.4-.4 1-1.2 1-1.2-.1 0-.4.1-.4.1-.5.1-.7.8-.7.9zm.2-1.2c.6-.1.9-.5 1.2-1.1h-.2c-.4.1-.8.7-1 1.1zm0-1.1l.1.2c.3-.3.8-.6 1-1-.1-.2-.4-.2-.5-.1-.5.1-.7.5-.6.9zm-.1-2s.1.3.1.4c.5-.5 1.3-1.1 1.5-2h-.2c-.9.3-1.6.6-1.4 1.6zm.6.7l.8-.2-.2-.8-.6 1zm.2-4c-.5.1-.5 1.2-.5 1.6.1-.1 1.3-1.2 1.9-1.9l-1.4.3zm1.3 4.7h.2c.4-.1 1.5-.4 1.4-.9-.1-.3-.3-.4-.5-.3-.1 0-1.1.8-1.4 1.2h.3zM263 567c1.4-.3 1.7-.6 1.7-2.1h-.2c-.5 1-1.6 1.7-1.5 2.1zm.4 1.9c.4-.1 1-.6.9-1l-.1-.1c-.4.3-.9.5-.8 1.1zm-.3-2.8c.7-.6 2.3-2.2 2-3.4h-.2c-.2 0-1.6 1.6-1.6 1.8.5-.1.8-.4 1.2-.5-.1 1-1.9.5-1.6 1.8-.1.3.1.3.2.3zm.2-2.6l.1.2c1-.5 1.8-1.6 2.1-2.7l2.2-1.3c-.3-1.3-1.8-2.1-1.8-2.1-.1 0-.2.1-.4.1s-.9-.2-1.2-.2c-.8.2-.1 2.1-.5 2.6l.8-.2c-.3 1-1.5.8-1.2 2.3.1.3.2.4.5.3-.5.3-.7.6-.6 1zm2.8 6.1c1.2-.3 2.5-.8 3.8-1-.2-1-1.6-2.4-1.8-3.1l-2.2-2.6c.1 2.1-.3 4.5-1.1 6.4v.1c.1.4.9.3 1.3.2zm.1 2c.5-.1.9-.5 1.1-.9h-.4c-.4 0-.8.4-.7.9zm1-.1c.3-.1.6-.1.8-.1.8-.2 1.7-.5 2-1.4-.2-.3-1-.2-1.1-.2-.3.1-.8.9-.8 1l-.1-.4c-.2.3-.9.7-.8 1.1zm-.5-9.6c.3-.1.8-1.1 1.3-1.8-.7.2-1.5.4-2 1 0 .3.5.8.7.8zm2.7 4.1c.5-.6.9-1.4.8-2.2-.1-.4-.3-1.4-.8-1.3-.1 0-.5.4-.6.6l.6-1c0-.1-1-1.7-1.2-1.6h-.2l-1.1 1.7v.1c.1.3.5.4.7.3-.2.1-.2.4-.1.6 0 .2.2.7.5.6.1 0 .3-.2.5-.4.1.4-.1.7 0 1.1.4-.1.8-.4 1.3-.5-.2.5-.9.4-.8 1.1.1.4.1.7.4.9zm.8 4.7c.3-.1.4-.3.4-.6-.4.1-.5.3-.4.6zm.5-3.3c.7-.2 1-1 .8-1.6-.1-.4-.5-1.4-1-1.3-.1.2-.5 1.2-.5 1.4-.1.1-.2.3-.2.3s.2.3.3.2c.4-.1.8-.4 1.1-.4l-1.1.9v.1c.2.2.5.4.6.4zm1.7 3.6c.8-.2 1-1.1.9-1.7-.2-1-.6-1.6-1.2-2.6-.5.1-1 .7-1 1.3l1-.2v.2c-.2.4-1.1 1.8-1.3 2.6.1 0 .4 0 .4-.1.7-.2 1.2-.9 1.9-1-.2.5-.9 1-1.4 1.3.2.2.4.2.7.2zm-1.2-2.3l.4-.5c-.3.1-.4.3-.4.5zm2.3 3.9c.4-.1.8-1.3.7-1.7 0-.2-.2-.9-.5-.9.1 0-1 .9-1.1 1.3.1 0 .1.2.3.1.1 0 1-.4 1-.4-.2.5-1.1.6-1 1.2.2.3.3.5.6.4zm.4.5c.3-.1 1.4-.5 1.3-1 0-.2-.2-.7-.4-.7-.4.1-.6.8-.9 1.7zm.9 1.1s.1-.1 0 0l.9-1.2-.1-.3c-.4.1-1.5.6-1.4 1 0 .1.4.5.6.5zm1.8 1c.3-.1.4-.2.4-.4-.1-.4-.7-1.2-1-1.5-.2.3-.9.8-.8 1.3.1 0 .5-.2.8-.4l-.6 1c.2.2.8.1 1.2 0zM279.4 574.7c0-2.2-.1-4.3-.5-6.4-.1-.4-.2-.7-.3-1.1l-.3-7.4c-.2-1-.3-2.2-.4-3.6 0-.5-.5-2.4.3-2.6.1 0 .6.1.8.1 0 0 .4-.3.5-.3 1.5.2 6.5 7.3 8.2 8.2.7-.8.9-2.9 1.3-3.8 0-.2.8-2.2.9-2.4.2-.5.9-3.3 1-3.9.1-.6.8-.8 1.3-.9.4-.1 1.5-.1 1.7.7v.3c0 .1.1.2.1.3 1.6 5.1 3.1 6.8 5.2 14.4.3 1.2 1 2.4 1.3 3.7.3 1.3-.2 1.3-1.1 1.5-.6.1-2.1.4-2.2-.3-.1-.4-.1-1.4-.1-1.3-.5-1.5-1-3.9-1.1-4.3-.2-.9-1.9-4.9-1.9-5l-.2-.2c-.1-.5-.9-3.7-1.2-3.7l-.4.1.2.8c0 .1-1.2 6.2-1.8 8.7-.1.6-.2 1.7-.9 1.9-.9.2-1.6-.2-1.8-1.1-2.1-2.3-4.6-4.9-6.2-7.6 0 0-.2-.1-.3-.1 0 .3.1 1.9.1 2.3.4 1.7.2 4 .6 5.8 0 .2.1.4.2.7l.5 6.9c0 .4-.5.6-.8.6-.9.2-1.3.2-2.2-.2-.3-.3-.5-.7-.5-.8zm2-.2c.4-.1.3-.6.2-1.1-.1-.3-.2-.6-.2-.7l-.4.1-.1-.2c0-.1 0-.4.1-.5-.8.2-.7 1.4-.6 2 .2.4.7.5 1 .4zm-1.2-5.5c1.1-.2 1-1 .9-1.7-.3-1.2-.6-1.1-1.9-.8l.5 1.5c0 .1.7.4.7.4.1 0-.1.5-.2.6zm1.1.8c0-.1-.1-.5-.2-.6l-.4.3-.1-.3c-.8.2-.6 1.1-.3 2.6 1.1-.1 1.1-1.2 1-2zm-1.9-4.6l.1.4c.2 0 .8-.5 1.1-.7-.1-.1-.3-.1-.4-.1-.3.1-.8.3-.8.4zm-.1-1.2c.1 0 .6-.2.8-.4-.1-.2-.2-.2-.4-.1-.1 0-.2.1-.4.1v.4zm1.4.5c.2 0 .2-.2.1-.4 0-.1-.1-.3-.3-.3 0 0-1 .5-1.1.9l1.3-.2zm-.8 1.6s1.1-.2 1-.7c0-.1-.2-.1-.2 0-.4.1-.9.2-.8.7zm-.1-3c.4-.1.9-.4.9-.6 0-.1-.1-.1-.1-.2l-1.3-.4-.1.6.6-.1c0 .3-.2.5-.5.6.1.1.3.1.5.1zm.8-1.4c-.2-1-.4-1.4-1.5-1.2 0 .2.3.3.5.4-.3.1-.4.2-.3.4.2.5.9.5 1.3.4zm-.6-1.5c.5-.1.5-.9.4-1.3-.9.2-.9-.1-1.4 0l.2 1c.3 0 .7.3.8.3zm.2-3.1v.1c.3-.1 1.1-.7 1-1-.1-.4-.8-.4-1-.3-.4.1-1.5.6-1.4 1.2.4-.1.8-.5 1.2-.7-.1 0-.2.3-.1.4 0 .1.3.2.3.3zm-1.6-1.4c.2 0 .5-.3.8-.4.1.2.6.1.9.1-.1-.4-.2-.4-.5-.4l-.1-.4c-.1 0-1.2.1-1.3.1l.2 1zm1.3 2.8c.5-.1.8-.1.9-.8-.1 0-1 .5-1.3.7.1.1.3.1.4.1zm1.3-.3l.3-.1c.2 0 1.1-.2 1.1-.6 0-.1-.3-.3-.5-.4-.4.5-.8 1-.9 1.1zm.9.7c.1 0 .3-.4.4-.6-.1 0-.4.1-.4.1-.1 0-.6.1-.5.3.1.1.5.2.5.2zm1.1 1c.4-.1.7-.2 1-.4-.1-.2-.3-.4-.5-.5-.2.1-.6.5-.5.9zm.5.5c.2 0 .3-.3.5-.3l-.6.1.1.2zm.9 1c.1 0 .7-.2.6-.6l-.9.2c0 .2.1.5.3.4zm-.2-.8l.6-.1-.1-.4c-.3 0-.6.2-.5.5zm.4 1.4c.4-.1 1-.2 1.1-.7-.1-.1-.3-.1-.4-.1-.3.1-.8.4-.7.8zm.2.5c.1.3.4.3.6.2.4-.1.8-.1.8-.6l-1.4.3v.1zm1 .7h.4c.3-.1.6-.1.7-.4 0-.1-.3-.3-.4-.3h-.1c-.2-.1-.5.5-.6.7zm.6.8c.4-.1.7-.3.7-.6l-.8.2.1.4zm1.3 1.5c1.6-.3 2.7-1.4 2.3-3.2-.2.1-.3.2-.6.3.1 0 .4-.3.3-.5 0-.1-.3-.3-.3-.5h.7c.4-.1.3-.6.2-.9l-.6.1c.4-.5 1.5-1.9 1.3-2.8-.8.2-1.7.8-1.5 1.7 0 .2.2.2.5.2-1 .4-1.2 2-1.5 2.8l.5.2c-.5.6-1.9.4-2 1.2l.3.1c.1-.1.8-.3.9-.4.1 0 .5-.1.6-.1v.2c-.4.3-1.3 1.1-1.1 1.6zm-.5-.6c.3 0 .5-.2.4-.5-.2.1-.5.2-.4.5zm1 .9l.1.1c.1 0 .4-.4.3-.4v-.1l-.4.4zm.5.8c.4-.1.4-.6.5-.8h-.1c-.3.2-.4.4-.4.8zm1.2-8.3c.4-.1.8-.4 1.1-.7-.1-.1-.5-.3-.7-.3-.5 0-.5.6-.4 1zm3.6-1.7c.6-.1.9-.2.9-.4 0-.1-.3-.5-.3-.6l-1.3-4h-.2c-.6.1-1.1.8-1.4 1.3.3.4 1.1.1 1.5.3-.2.7-1.4.8-1.3 1.4l1.6-.3.3.3c-.5.5-3.1 1.1-2.9 2 0 0 0 .1.1.1l.7-.4-.2-.2c.1-.1 1.1-.4 1.3-.5h.2l-.2.2c.7.2.4.9 1.2.8zm-2.4.5c.2 0 .3-.1.5-.3 0-.1-.2-.2-.2-.2-.1 0-.6.3-.8.4.2.2.3.1.5.1zm-.3-1.8l.9-.2c-.2-.2-.4-.1-.6-.1-.2 0-.4.1-.3.3zm.2-1.3c.3-.1.5 0 .7-.4-.1-.2-.3-.1-.5-.1-.1 0-.2.1-.2.5zm2.4 1.1l-.6.1.6-.3v.2zm.5 2.4c.3-.1.5-.3.7-.5-.5 0-1.2.1-1.3.1.1.2.5.4.6.4zm.3.5l.8.1-.1-.7c-.2.1-.8.3-.7.6zm.4.8c.2-.1.2-.3.2-.5-.2 0-.3.1-.4.3l.2.2zm1 .9l-.2-1.1c-.4.1-.8.4-.7.8.1.5.5.4.9.3zm-.4 1.1s.8-.3.7-.5c-.1-.3-.5-.3-.7-.2-.1 0-.2.1-.2.1l.2.6zm1.2.7c.3-.1.2-.6.1-.9-.3.1-1.1.3-1 .8l.1.1c.1.1.7 0 .8 0zm-.4 1c.4-.1.6-.3.7-.6-.3 0-.6-.1-.9 0l.2.6zm1.1 1.1l-.3-1.2c-.3.1-.7.5-.7.7.1.5.5.6 1 .5zm-.5.6c.2 0 .3-.1.3-.3l-.4.1.1.2zm1 1l-.3-1.2c-.4.2-.7.6-.6 1 .1.4.7.3.9.2zm-.3 1.9l.9-.2-.2-.8c-.4.1-.8.6-.7 1zm-.1-.8l.5-.7-.6.1.1.6zm.4 1.4c.1 0 .5-.1.5-.3l-.6.1.1.2zm.9 2.7c.6-.2.8-.4.7-.7-.1-.4-.6-2-.9-1.9-.2 0-.6.4-.6.7.1.2.8 1.8.8 1.9zM307.4 569.9c-.4.1-1.4.2-1.7-.3-.4-1.9-.7-3.9-1.1-5.9-.4-2-.8-4.2-1.8-6.2L301 549l4-.9c.7.1 1.1 0 1.8-.2.2 0 .4-.1.5-.3 1.6-.4 3.6-1 4.1-1.1.4-.1 2.2-.3 2.6-.4.1 0 .3.3.3.4.2.9-.1 1.1.1 1.9 0 .1.1.2.1.3l-.7.4c-.9.1-1.8.3-2.7.5-2.1.5-4.3 1.1-6.2 2.1-.1.5-.1.8 0 1.3.1.7.5 1.3.7 2 0 0 .1 1.3.2 1.9l.5.3c.1 0 .8-.1 1-.2 1.4-.3 1.7-.6 2.3-.8.1.1.2.2.3.2h.1c.1 0 .2-.1.2-.4l3.6-.8c.1.1.4.4.5.6l.3-.3c-.2.2-.1.4 0 .9.1.4.3 1.2.3 1.3l-.3.4c-2.6.6-4.8 1.2-7.5 1.9h-.3c-.1 0-.2.1-.2.2l1.3 6 .3.3c.1.1 2.2-.2 3.3-.5.8-.2 2.2-1.1 3.1-1.3.4-.1 1.6-.2 1.6-.2l.3.1c0-.2.2-.2.3-.3.1 0 .2 0 .4-.1l-.3.2s.3-.1.4-.1c.4-.1.5-.1.7.1.1 0 .3-.3.4-.3.4.1.6.5.7.9.2.7.4 1.8.1 2.4-.1 0-.8.2-.9.2-1 .2-1.5.3-2.6 0l-8.3 2.3zm-4.5-18.8h.2c.3-.1 2.3-1.5 2.3-1.7-.5-.1-1.1 0-1.7.1-.2 0-1.5.3-1.5.4v1c.2 0 .6-.3.9-.6l-.2.8zm-.2 1.2c.4-.1.7-.5.9-.9h-.1c-.5.1-.9.4-.8.9zm.4 1.8c0 .1.1.3.1.3.6-.7.8-1 .6-1.9 0-.1-.1-.4-.1-.5-.2.3-.8.8-.8 1 0 .2.3.2.6.1.1 0 .2-.1.3-.1-.3.5-.8.5-.7 1.1zm.4 1.6l.3 1.3c.4-.1 1.1-1 1-1.5 0-.1-.5-.1-.7-.1l-.6.3zm1.1 3.6l.8-1.2-.1-.3c-.3.1-1.3.2-1.2.7.2.3.3.5.5.8zm-1.1-4.2c1.1-.2 1.1-.3.9-1.3-.5.2-.7.9-.9 1.3zm2.3 10.1c0 .2.1.4.1.4l.3-.1c.1 0 .2-.7.2-.9 0-.2-.2-.6-.3-.5-.4.1-.4.7-.3 1.1zm-1.5-7.5c.6-.1 1-.4.9-1.1-.5.1-1 .6-.9 1.1zm.8 3.8c.5-.1.6-.2.5-.7l-.1-.2c-.1.1-.5.5-.4.9zm-.2-1.2c.3-.1.6-.3.6-.6-.4 0-.7.2-.6.6zm.7 2.3c.2-.2.2-.5.1-.7-.1 0-.5.1-.4.4l.3.3zm.8 4.8c.4-.1.4-.5.3-.7l-.5.1.2.6zm.6 1.5c.2-.4.7-1 .6-1.2l-.5.1-.1-.4c-.2.2-.3.9-.4 1.1v.1c.1.2.2.2.4.3zm-1.2-5c.4-.1.3-.7.3-1-.6 0-.4.6-.3 1zm1.7 4.9c.5-.1.6-.3.9-.8-.3.2-.6.5-.9.8zm-.6-9.6c.4-.1 1.2-.5 1.1-1l-2.2.5c-.2 0-.2.3-.1.5l1.2-.3v.3zm2 9.3h.2c.2 0 .3-.1.3-.3h-.1s-.3.1-.4.3zm-2.9-18.3c0 .1.1 0 .1 0 .3-.1.3-.2.3-.4 0-.1-.1-.2-.1-.2-.3.1-.3.6-.3.6zm2.3 8.9c.7-.1 1.5-.9 1.8-1.6-.1 0-.4.1-.5.1-.7 0-1.5.7-1.3 1.5zm2 9.1c.1 0 .5-.1.6-.1.5-.1 1-.2 1-.9 0 0-.3 0-.4.1-.5 0-1 .4-1.2.9zm-3.1-19.2h.2v-.2l-.2.2zm2.7 9.5l1-.2c.1 0 0-.9 0-1h-.2l-.8 1.2zm3 9.1c.2 0 .5-.4.6-.8h-.1c-.1.1-.4.5-.5.8zm-.7-9.8l1.6-.3c-.3-.2-.6-.5-.8-.8-.4.1-.7.6-.8 1.1zm1.9 8.7s.5-.1.6-.3h-.2c-.2.1-.4.1-.4.3zm.1.6c.6-.1.8-.2 1.1-.6l.1.4 1.4-.9-2 .4-.6.7zm-3.3-19.1c.1.4.3.4.6.3.4-.1.9-.4.8-.8l-1.4.3c-.1.1-.1.1 0 .2zm5.1 18.9l.1.3c.5-.1.9-.5 1.1-1 0 0-.2 0-.3.1-.2.1-.9.5-.9.6zm1.5.3c.8-.2.7-1 .6-1.6l-.9.2.3 1.4zM333.5 563.9c-.1 0-.3.2-.2.4-.4-.2-1.5-1-1.6-1.5 0-.1 0-.4.1-.5h-.2c-.1-.6-.3-1.3-.2-2-.6-2.9-1-5.2-1.5-7.5-.3-1.3-.7-2.9-1.2-3.3-.2-.5-.2-1-.8-.9-.1.1-1.2 1-1.4 1.1 0 0-.1 0-.1.1h-.1l.2-.2c-.1-.1-.2-.2-.3-.1 0 0-.1 0-.1.1-.5-.6-.9-1.1-1-1.9-.1-.7.5-.5.5-.7 1.4-1 2.2-2.2 2.9-3.8l2.3-.5c.1.4.4.6.5 1.1.1.3.2.6 0 .9l.3-.1c.1.3.2.7 0 1l.3-.1c.1.4.4 2.1.4 2.4v.8l.2.2.7 3.4c.2 0 .3.3.3.4 0 .2.1.5-.1.6l.2.1-.1.3.2.2.6 2.6.3.1 1.2 5.5-.3.1c0 .2.3 1 .3 1.2 0 .1 0 .4-.1.4l-1 .2c-.2-.2-.7-.2-1.2-.1zm1.4-.8l-.3-1.5-.4-.1c.5-.3.5-.7.4-1.2-.1-.6-.2-1-.4-.9-.4.1-.8.4-1.1.5.4-.1 1.1-1.1 1.1-1.5l-.9.2c.2-.3.7-.6.6-1-.1-.3-.2-.3-.7-.2.3-.3.5-.5.4-.9 0-.2-.2-.4-.5-.3.1-.1.3-.4.3-.5-.1-.5-.4-2-1.2-1.8-.1 0-.3.2-.3.3.1-.3.4-.6.6-.7l-.4-1.8-.2-.2.1-.3-1.6-7.3c0-.2-1.1 0-1.1 0-.1 0-.3.1-.3.3l.3.1c-1 .8-1.4 2.1-2.3 2.9-.4.4-.9.5-.8 1.3 1.2-.3 1.5-1.5 2-1.6.4-.1.6-.1 1 .2-.2.1-.2.3-.2.5s.2.2.3.3c0 .2-.1.4-.1.7.8 1.4.9 1.9 1.5 4.6.2 1.1.5 2.2.5 2.6.4.2.4.8.5 1.2l.3-.1s.1.1.1.2c0 0-.1.2-.3.3.2.9.2 1.7.3 2.4.1.3.1.4.5.3-.3.3-.3.8-.2 1.1.6-.1.5-.5 1.3-.7-.3.8-1.4.9-1.2 1.9.2 1.1 1.6.8 2.4.7zm-4.6-18.6c-.2.6-1 .7-1.4 1.1.2-.6.6-1 1.2-1.1 0 .1.2 0 .2 0zm3.9 17.8s.3 0 .4.1c-.3.2-.9.4-.9.4 0-.1.3-.4.5-.5zM339.9 564.1c.2-.5.4-1.1.3-1.5 0-.6.1-2.1.2-2.1l.3-.5 2.5-8.2.8-3c-.1-.5 1-6.4 1.1-7.3.3-1.3.4-2.1 1.4-3.2.7.2 1.8-.4 3 .4.1.6-.8 6.3-1.2 6.7l-.3-.2-.3 1.3.3-.3-2.6 10.1-.3.5.5-.1-.9 2.9h-.1c-.4.1-.6 4-1.3 4.4 0 0-.3.1-.4.1-.9.2-1.8.2-2.8.4 0-.3-.1-.4-.2-.4zm.4-.6l2.2-.5c.2 0 .4-.6.3-.7-1 .2-1.4.6-2.4.8-.1.1-.1.3-.1.4zm1.6-.9c.3-.1 0-.5.5-.6h.5c.2 0 .3-.2.3-.6l-1 .2c.5-.3.7-.7 1.2-1 .2-.6 1.1-3.3 1.2-4 0-.1.1-1.3.1-1.5.1-.8.8-1.7.6-2.6l-.5.1c.2-.1.2-.1.2-.2s-.1-.2-.1-.3c.2 0 .2-.1.3-.1.1 0 .2 0 .4.1.5-1-.2-1.1.4-2 .1-.2 1.5-3.6 1.3-4.4-.1-.2-.8-.2-.9-.5v-.1c.3.1 1 .2 1 .2 1-.2.4-3.4 1-3.5.1 0 .1-2.2.1-2.3v-.1c-.1-.3-1.5-.1-1.7 0 0 .2.1.3.4.4-1 .5-1.4 2-1.2 3.1 0 .1.4.3.7.4h-.3c-.6.1-.8 1-.6 1.6 0 .1.2.2.2.2-.5.3-.4.9-.8 1.2l-.5 3.4c.2 1-1.7 5.3-1.7 6.6 0 0 0 .2.1.3 0 .2-.6.8-.5 1.3 0 0 .1.2.2.2-.8.2-1.6 3.1-1.5 3.7.1.3.1.5.5.5l-.8.2c.1-.1.7.1.9.1zm1.8-4.7v.2c-.2 0-.4 0-.7-.1l.7-.1zm1.3.1c.1-.3.1-.5.1-.6-.1.2-.2.4-.1.6zM359.8 558.9c-.5.1-2.8-1.2-2.9-1.9-.1-.4-.2-2.1.4-2.3 1.5-.3 3.3.3 4.9 0 1.9-.4 2.2-.9 2.9-2.7v-.1c0-.1-.4-.5-.6-.6.4-.2.7-.7.6-1.2-.1-.3-.3-.3-.4-.5h.2c-.4-1.8-2.2-2.3-3.9-1.9 0 0-.3.3-.4.3l-.2-.2c-.1 0-.3.1-.4.1 0 0-2.2 0-2.7-.1 0 0-.2-.1-.3-.1 0 0-.3.1-.6.3-.5.1-.7-.2-.8-.7-.4-1.7-.1-3.5-.5-5.2-.1-.5-.4-1-.5-1.5-.1-.6-.4-3.1-.3-3.2l2.6-.6.2.2.2-.2c1.9-.4 3.5-1.2 5.4-1.6.1 0 .9-.2 1.1-.2l-.1.2c.1 0 .1-.1.2-.1.7-.2 1.1 2.3 1.2 2.4.1.6-2 1-3 1.2l-.1-.3-.4.3-3.4.7.9 4c0 .2.5.1.9 0 .6-.1.3.2.7.3.6.2 1 0 1.6 0 .2 0 1.8.3 2.4.3.4.1 1 .7 1.2.6 0 0 .1 0 .1-.1 1.7.8 2.6 2.5 3 4.2.3 1.4 0 2.4-.1 3.7l-1.7 2.6h-.2l.1.4s-.9.8-1.2 1.1c-1.1.8-3.5 1.8-4.8 2.1l-.1-.3c-.1.3-1.1.6-1.2.6zm-1.8-1.6c.2 0 .2-.4.2-.5l.2.1c.3-.2.4-1 .4-1.1-.1-.1-.3-.2-.4-.1-.6.1-.9.7-.8 1.3.1.2.3.3.4.3zm3.1.7c.7-.2 2.3-1.1 2.7-1.4l-.1-.6c.1.1.6.3.7.3.1 0 .2 0 .7-.3-.5-.6-.8-.7-1.2-.6-.6.1-1 .5-1.6.6l.2.8c-.5.1-.3-.4-.8-.5 0 0 .1.2.1.4.1.3.1.6-.1.6-.6-.9-.7-1.8-2-1.5-.5.1-.9 1.4-.9 1.7.2.8 1.8.6 2.3.5zm-1.8-11.2c.1 0 .5-.1.5-.1.3-.2 1-1.1 1-1.2v-.2c-.7.5-1.6.7-2.4.9l-.1-.1.3-.5s0-.4-.5-.5c-1 .2-1.4 1-1.2 1.9.9.1 1.5 0 2.4-.2zm-3-2.5s.1.1 0 0c.4-.2.7-.6.9-.9-.3 0-1 .5-.9.9zm-1.1-5.4c.1 0 .4-.1.4-.1.4-.1.7-.3.9-.7h-.3c-.3.1-.9.3-1 .8zm.7 2.1h.1c.1 0 .3-.4.3-.4l-.1-.1-.3.5zm.4 1.8l.3-.5h-.1c-.1 0-.3.2-.2.5zm1.3 1.5l.4-.1v-.2c-.2 0-.3.1-.4.3zm3.1 2.6h.2c.2 0 1.2-.5 1.1-.7l-.1-.1c-.3.1-1 .4-1.2.8zm0-.8h.3c.5-.1 1.4-.4 1.5-1-.3-.1-.5-.1-.7 0-.6.1-.7.3-1.1 1zm1.6.5c.5-.2 2.2-1.1 2.2-1.1l.1-.3c-.1-.1-.8 0-1 0h-.2c-.5.3-.9 1.3-1.1 1.4zm3.4 8.8c.2 0 .3-.3.3-.3-.1-.4-.6-.5-.9-.4-.2 0-.4.1-.6.4.2 0 .9.3 1.2.3zm-2.4-8.5c.8-.2 1.1-.4 1.7-1.1-.1 0-.3.1-.3.1-.4.1-1.5.4-1.4 1zm2.9 7.5c.4-.1.7-.3.9-.6-.6-.1-.7-1-1.5-.8.1.4.4.6.8.6l-.9.2c.2.6.3.7.7.6zm-2.9-16.7c.2 0 1-.3.9-.6-.1-.4-.4-.6-.8-.7l-.8 1.2c.3.2.4.2.7.1zm1.3 9.2h.2s1.2-.5 1.5-.7c-.2-.4-.4-.4-.7-.3-.4 0-.8.7-1 1zm.4.6h.1c.2 0 .4-.1.4-.3h-.1c-.1 0-.3.1-.4.3zm2.5 5.7c.3-.1.6-1.1.5-1.4-.5.1-1.9.3-1.9.9.2 0 1.3.5 1.4.5zm.4-1.8c.3-.4.4-1 .2-1.5-.8.2-1.7.5-2.3 1.1.5.5 1.7.5 2.1.4zm-2.1-2.9c.2 0 .7-.3.7-.6-.3.1-.7.2-.9.4 0 .1.1.2.2.2zm.3 1.6c.1 0 .4 0 .4-.1.1 0 .6-.1.5-.4 0 0-.3 0-.4.1-.1.1-.5.1-.5.4zm1.2-.7c.6-.1.9-.2.8-.7 0 0-.3-.6-.4-.9-.5.1-1.8.5-1.6 1.2.1.6.7.6 1.2.4zm-1.3-1.7c.1 0 1.2-.4 1.1-.7 0-.1-.2-.3-.3-.3-.3.1-.9.5-.8 1z"/><path id="XMLID_99_" class="st9" d="M49 43.1H25.3c-3.8 0-7-3.1-7-7V24.3c0-3.8 3.1-7 7-7H49c3.8 0 7 3.1 7 7v11.8c0 3.9-3.1 7-7 7z"/><path id="XMLID_98_" class="st9" d="M49 86.4H25.3c-3.8 0-7-3.1-7-7V67.7c0-3.8 3.1-7 7-7H49c3.8 0 7 3.1 7 7v11.8c0 3.8-3.1 6.9-7 6.9z"/><path id="XMLID_97_" class="st9" d="M49 129.8H25.3c-3.8 0-7-3.1-7-7V111c0-3.8 3.1-7 7-7H49c3.8 0 7 3.1 7 7v11.8c0 3.9-3.1 7-7 7z"/><path id="XMLID_96_" class="st9" d="M49 173.1H25.3c-3.8 0-7-3.1-7-7v-11.8c0-3.8 3.1-7 7-7H49c3.8 0 7 3.1 7 7v11.8c0 3.9-3.1 7-7 7z"/><path id="XMLID_95_" class="st9" d="M49 216.5H25.3c-3.8 0-7-3.1-7-7v-11.8c0-3.8 3.1-7 7-7H49c3.8 0 7 3.1 7 7v11.8c0 3.9-3.1 7-7 7z"/><path id="XMLID_94_" class="st9" d="M49 259.8H25.3c-3.8 0-7-3.1-7-7V241c0-3.8 3.1-7 7-7H49c3.8 0 7 3.1 7 7v11.8c0 3.9-3.1 7-7 7z"/><path id="XMLID_93_" class="st9" d="M49 303.2H25.3c-3.8 0-7-3.1-7-7v-11.8c0-3.8 3.1-7 7-7H49c3.8 0 7 3.1 7 7v11.8c0 3.9-3.1 7-7 7z"/><path id="XMLID_92_" class="st9" d="M49 346.5H25.3c-3.8 0-7-3.1-7-7v-11.8c0-3.8 3.1-7 7-7H49c3.8 0 7 3.1 7 7v11.8c0 3.9-3.1 7-7 7z"/><path id="XMLID_91_" class="st9" d="M49 389.9H25.3c-3.8 0-7-3.1-7-7v-11.8c0-3.8 3.1-7 7-7H49c3.8 0 7 3.1 7 7v11.8c0 3.9-3.1 7-7 7z"/><path id="XMLID_90_" class="st9" d="M49 433.2H25.3c-3.8 0-7-3.1-7-7v-11.8c0-3.8 3.1-7 7-7H49c3.8 0 7 3.1 7 7v11.8c0 3.9-3.1 7-7 7z"/><path id="XMLID_89_" class="st9" d="M49 476.6H25.3c-3.8 0-7-3.1-7-7v-11.8c0-3.8 3.1-7 7-7H49c3.8 0 7 3.1 7 7v11.8c0 3.9-3.1 7-7 7z"/><path id="XMLID_88_" class="st9" d="M49 519.9H25.3c-3.8 0-7-3.1-7-7v-11.8c0-3.8 3.1-7 7-7H49c3.8 0 7 3.1 7 7V513c0 3.8-3.1 6.9-7 6.9z"/><path id="XMLID_87_" class="st9" d="M49 563.3H25.3c-3.8 0-7-3.1-7-7v-11.8c0-3.8 3.1-7 7-7H49c3.8 0 7 3.1 7 7v11.8c0 3.9-3.1 7-7 7z"/><path id="XMLID_5_" class="st9" d="M49 606.6H25.3c-3.8 0-7-3.1-7-7v-11.8c0-3.8 3.1-7 7-7H49c3.8 0 7 3.1 7 7v11.8c0 3.9-3.1 7-7 7z"/><path id="XMLID_4_" class="st9" d="M49 650H25.3c-3.8 0-7-3.1-7-7v-11.8c0-3.8 3.1-7 7-7H49c3.8 0 7 3.1 7 7V643c0 3.9-3.1 7-7 7z"/><path id="XMLID_3_" class="st9" d="M49 693.4H25.3c-3.8 0-7-3.1-7-7v-11.8c0-3.8 3.1-7 7-7H49c3.8 0 7 3.1 7 7v11.8c0 3.8-3.1 7-7 7z"/><path id="XMLID_86_" class="st9" d="M474.9 43.1h-23.8c-3.8 0-7-3.1-7-7V24.3c0-3.8 3.1-7 7-7h23.8c3.8 0 7 3.1 7 7v11.8c0 3.9-3.2 7-7 7z"/><path id="XMLID_85_" class="st9" d="M474.9 86.4h-23.8c-3.8 0-7-3.1-7-7V67.7c0-3.8 3.1-7 7-7h23.8c3.8 0 7 3.1 7 7v11.8c0 3.8-3.2 6.9-7 6.9z"/><path id="XMLID_84_" class="st9" d="M474.9 129.8h-23.8c-3.8 0-7-3.1-7-7V111c0-3.8 3.1-7 7-7h23.8c3.8 0 7 3.1 7 7v11.8c0 3.9-3.2 7-7 7z"/><path id="XMLID_83_" class="st9" d="M474.9 173.1h-23.8c-3.8 0-7-3.1-7-7v-11.8c0-3.8 3.1-7 7-7h23.8c3.8 0 7 3.1 7 7v11.8c0 3.9-3.2 7-7 7z"/><path id="XMLID_82_" class="st9" d="M474.9 216.5h-23.8c-3.8 0-7-3.1-7-7v-11.8c0-3.8 3.1-7 7-7h23.8c3.8 0 7 3.1 7 7v11.8c0 3.9-3.2 7-7 7z"/><path id="XMLID_81_" class="st9" d="M474.9 259.8h-23.8c-3.8 0-7-3.1-7-7V241c0-3.8 3.1-7 7-7h23.8c3.8 0 7 3.1 7 7v11.8c0 3.9-3.2 7-7 7z"/><path id="XMLID_80_" class="st9" d="M474.9 303.2h-23.8c-3.8 0-7-3.1-7-7v-11.8c0-3.8 3.1-7 7-7h23.8c3.8 0 7 3.1 7 7v11.8c0 3.9-3.2 7-7 7z"/><path id="XMLID_79_" class="st9" d="M474.9 346.5h-23.8c-3.8 0-7-3.1-7-7v-11.8c0-3.8 3.1-7 7-7h23.8c3.8 0 7 3.1 7 7v11.8c0 3.9-3.2 7-7 7z"/><path id="XMLID_78_" class="st9" d="M474.9 389.9h-23.8c-3.8 0-7-3.1-7-7v-11.8c0-3.8 3.1-7 7-7h23.8c3.8 0 7 3.1 7 7v11.8c0 3.9-3.2 7-7 7z"/><path id="XMLID_77_" class="st9" d="M474.9 433.2h-23.8c-3.8 0-7-3.1-7-7v-11.8c0-3.8 3.1-7 7-7h23.8c3.8 0 7 3.1 7 7v11.8c0 3.9-3.2 7-7 7z"/><path id="XMLID_76_" class="st9" d="M474.9 476.6h-23.8c-3.8 0-7-3.1-7-7v-11.8c0-3.8 3.1-7 7-7h23.8c3.8 0 7 3.1 7 7v11.8c0 3.9-3.2 7-7 7z"/><path id="XMLID_75_" class="st9" d="M474.9 519.9h-23.8c-3.8 0-7-3.1-7-7v-11.8c0-3.8 3.1-7 7-7h23.8c3.8 0 7 3.1 7 7V513c0 3.8-3.2 6.9-7 6.9z"/><path id="XMLID_74_" class="st9" d="M474.9 563.3h-23.8c-3.8 0-7-3.1-7-7v-11.8c0-3.8 3.1-7 7-7h23.8c3.8 0 7 3.1 7 7v11.8c0 3.9-3.2 7-7 7z"/><path id="XMLID_73_" class="st9" d="M474.9 606.6h-23.8c-3.8 0-7-3.1-7-7v-11.8c0-3.8 3.1-7 7-7h23.8c3.8 0 7 3.1 7 7v11.8c0 3.9-3.2 7-7 7z"/><path id="XMLID_2_" class="st9" d="M474.9 650h-23.8c-3.8 0-7-3.1-7-7v-11.8c0-3.8 3.1-7 7-7h23.8c3.8 0 7 3.1 7 7V643c0 3.9-3.2 7-7 7z"/><path id="XMLID_1_" class="st9" d="M474.9 693.4h-23.8c-3.8 0-7-3.1-7-7v-11.8c0-3.8 3.1-7 7-7h23.8c3.8 0 7 3.1 7 7v11.8c0 3.8-3.2 7-7 7z"/><g><path id="XMLID_72_" class="st10" d="M323 375.3c1-2.3 2.8-2.4 4.1-.2l7.2 12.8c1.3 2.2 4.4 4.2 6.9 4.4l14.6 1.3c2.5.2 3.2 1.9 1.5 3.8l-9.9 10.8c-1.7 1.9-2.7 5.4-2.1 7.9l3.3 14.3c.6 2.5-.9 3.6-3.2 2.6l-13.4-6.1c-2.3-1.1-6-.8-8.2.5l-12.6 7.6c-2.2 1.3-3.7.3-3.4-2.2l1.6-14.6c.3-2.5-1.1-6-3-7.6l-11.1-9.6c-1.9-1.7-1.5-3.5 1-4l14.4-2.9c2.5-.5 5.3-2.8 6.3-5.2l6-13.6z"/><path id="XMLID_71_" class="st11" d="M345.9 402c1.7-1.9 1.1-4.3-1.4-4.6l-12.4-2.9c-2.5-.2-5.6-2.2-6.9-4.4l-4.9-8.6-3.1 7.3c-1 2.3-3.8 4.7-6.3 5.2l-7 1.4c-7.3.9-9 2.2-9 2.2-.9.8-.8 2 .6 3.2l11.1 9.6c1.9 1.7 3.3 5.1 3 7.6l-1.6 14.6v1.1s-.3 3.9 5.3.1c1.7-1.2 4.3-2.6 8.5-5.1l2.3-1.4c2.2-1.3 5.9-1.5 8.2-.5l6.8 3.1-2.7-11.7c-.6-2.5.4-6 2.1-7.9l7.4-8.3z"/><path id="XMLID_70_" class="st9" d="M300.2 398.6c-.4-.9 12.4-3.5 12.9-2.3 1.9 4.6-12.4 3.6-12.9 2.3z"/><path id="XMLID_69_" class="st9" d="M323.7 376.8c-.6.2-.9 3-.7 3.7.3.7 2.3 1.1 3.1-.8.8-1.9-.8-3.3-2.4-2.9z"/><path id="XMLID_68_" class="st9" d="M315.4 395.5c-.5.2-.4 2.4-.1 2.9.3.5 1.9.6 2.3-.9s-1-2.5-2.2-2z"/></g><g><path id="XMLID_67_" class="st10" d="M105.7 251.1c-.2-1.3.6-1.8 1.7-1.2l6.6 3.6c1.1.6 3 .7 4.2.1l6.7-3.3c1.2-.6 1.9 0 1.7 1.3l-1.4 7.4c-.2 1.3.3 3.1 1.2 4l5.3 5.4c.9.9.6 1.8-.7 2l-7.5.9c-1.3.2-2.8 1.2-3.5 2.4l-3.5 6.7c-.6 1.2-1.5 1.1-2.1 0l-3.2-6.8c-.6-1.2-2.1-2.3-3.3-2.5l-7.4-1.2c-1.3-.2-1.6-1.1-.6-2l5.5-5.1c1-.9 1.6-2.7 1.4-4l-1.1-7.7z"/><path id="XMLID_66_" class="st11" d="M122.8 256.6c.2-1.3-.7-2.2-1.8-1.6l-6.2 2c-1.2.6-3.1.5-4.2-.1l-4.4-2.4.6 4c.2 1.3-.4 3.1-1.4 4l-2.7 2.5c-2.9 2.3-3.3 3.4-3.3 3.4-.2.6.2 1.1 1.1 1.3l7.4 1.2c1.3.2 2.8 1.4 3.3 2.5l3.2 6.8c.1.2.2.3.3.5 0 0 .9 1.8 2.3-1.4.4-1 1.2-2.3 2.3-4.5l.6-1.2c.6-1.2 2.2-2.2 3.5-2.4l3.8-.5-4.3-4.4c-.9-.9-1.5-2.7-1.2-4l1.1-5.7z"/><path id="XMLID_65_" class="st9" d="M101.9 267.4c-.4-.3 4.5-4.9 5-4.4 2.1 1.4-4.4 4.8-5 4.4z"/><path id="XMLID_64_" class="st9" d="M106.4 251.5c-.2.2.4 1.5.7 1.8.3.2 1.3-.1 1.1-1.2-.1-1-1.2-1.1-1.8-.6z"/><path id="XMLID_63_" class="st9" d="M107.8 261.9c-.2.2.5 1.2.7 1.3.3.2 1-.2.8-1-.3-.8-1.1-.8-1.5-.3z"/></g><g><path id="XMLID_62_" class="st10" d="M152.2 68.3c1.3-1.6 2.7-1.3 3.2.7l2.8 11.4c.5 2 2.4 4.2 4.4 4.9l11 4.2c1.9.7 2.1 2.2.3 3.3l-10 6.2c-1.7 1.1-3.2 3.6-3.3 5.7l-.6 11.8c-.1 2-1.5 2.6-3 1.3l-9-7.6c-1.6-1.3-4.5-2-6.4-1.4l-11.4 3.1c-2 .5-3-.6-2.2-2.5l4.5-10.9c.8-1.9.5-4.8-.6-6.6l-6.5-9.9c-1.1-1.7-.4-3 1.7-2.8l11.8.9c2 .2 4.8-1 6-2.6l7.3-9.2z"/><path id="XMLID_61_" class="st11" d="M164 93.9c1.7-1.1 1.8-3.1-.1-3.8l-8.9-5c-1.9-.7-3.9-2.9-4.4-4.9l-1.9-7.7-4 5c-1.3 1.6-4 2.8-6 2.6l-5.7-.4c-5.8-.9-7.4-.2-7.4-.2-.9.4-1.1 1.4-.3 2.6l6.5 9.9c1.1 1.7 1.4 4.7.6 6.6l-4.5 10.9c-.1.3-.2.6-.2.8 0 0-1.1 3 4.1 1.2 1.6-.6 3.9-1.1 7.7-2.1l2-.6c2-.5 4.9.1 6.4 1.4l4.6 3.9.5-9.6c.1-2 1.6-4.6 3.3-5.7l7.7-4.9z"/><path id="XMLID_60_" class="st9" d="M129.5 81.3c-.1-.8 10.4 0 10.5 1.1.4 4-10.4.1-10.5-1.1z"/><path id="XMLID_59_" class="st9" d="M152.5 69.6c-.5 0-1.4 2.1-1.3 2.7 0 .6 1.5 1.4 2.6.1.9-1.3-.1-2.7-1.3-2.8z"/><path id="XMLID_58_" class="st9" d="M141.9 82.3c-.4 0-.9 1.8-.8 2.2.1.5 1.3.9 2-.2s-.2-2.1-1.2-2z"/></g><g><path id="XMLID_57_" class="st10" d="M352.3 655.1c.7-.9 1.6-.7 1.8.4l1.6 6.6c.3 1.1 1.4 2.4 2.5 2.8l6.3 2.4c1.1.4 1.2 1.3.2 1.9l-5.7 3.6c-1 .6-1.9 2.1-1.9 3.3l-.3 6.8c-.1 1.2-.8 1.5-1.7.8l-5.2-4.4c-.9-.8-2.6-1.1-3.7-.8l-6.5 1.8c-1.1.3-1.7-.3-1.3-1.4l2.6-6.3c.4-1.1.3-2.8-.4-3.8l-3.7-5.7c-.6-1-.2-1.7 1-1.6l6.7.5c1.2.1 2.7-.6 3.5-1.5l4.2-5.4z"/><path id="XMLID_56_" class="st11" d="M359.1 669.8c1-.6 1.1-1.8 0-2.2l-5.1-2.9c-1.1-.4-2.2-1.7-2.5-2.8l-1.1-4.4-2.3 2.8c-.7.9-2.3 1.6-3.5 1.5l-3.3-.2c-3.3-.5-4.3-.1-4.3-.1-.5.2-.6.8-.2 1.5l3.7 5.7c.6 1 .8 2.7.4 3.8l-2.6 6.3c-.1.2-.1.3-.1.5 0 0-.6 1.7 2.3.7.9-.3 2.2-.6 4.4-1.2l1.2-.3c1.1-.3 2.8.1 3.7.8l2.6 2.2.3-5.5c.1-1.2.9-2.6 1.9-3.3l4.5-2.9z"/><path id="XMLID_55_" class="st9" d="M339.3 662.6c-.1-.4 5.9 0 6 .6.3 2.3-5.9 0-6-.6z"/><path id="XMLID_54_" class="st9" d="M352.5 655.9c-.3 0-.8 1.2-.8 1.6 0 .4.9.8 1.5 0s0-1.6-.7-1.6z"/><path id="XMLID_53_" class="st9" d="M346.5 663.1c-.2 0-.5 1-.4 1.3.1.3.8.5 1.1-.1.3-.6-.2-1.2-.7-1.2z"/></g><g><path id="XMLID_52_" class="st10" d="M87.3 597.9c-.2-1.2.5-1.7 1.5-1.1l6 3c1.1.5 2.7.5 3.8-.1l5.9-3.3c1-.6 1.7-.1 1.6 1.1l-1 6.7c-.2 1.2.4 2.8 1.2 3.6l4.9 4.6c.9.8.6 1.6-.5 1.8l-6.7 1.1c-1.2.2-2.5 1.2-3 2.3l-2.9 6.1c-.5 1.1-1.3 1.1-1.9 0l-3.1-6c-.5-1-1.9-2-3.1-2.2l-6.7-.8c-1.2-.1-1.4-.9-.6-1.8l4.7-4.8c.8-.8 1.3-2.5 1.1-3.6l-1.2-6.6z"/><path id="XMLID_51_" class="st11" d="M102.9 602.2c.2-1.2-.7-2-1.7-1.4l-5.5 2.1c-1 .6-2.7.6-3.8.1l-4.1-2 .7 3.6c.2 1.2-.3 2.8-1.1 3.6l-2.3 2.3c-2.5 2.2-2.9 3.2-2.9 3.2-.2.5.2 1 1.1 1.1l6.7.8c1.2.1 2.6 1.1 3.1 2.2l3.1 6c.1.2.2.3.3.4 0 0 .9 1.6 2-1.3.3-.9 1-2.1 1.9-4.1l.5-1.1c.5-1.1 1.9-2.1 3-2.3l3.4-.6-4-3.8c-.9-.8-1.4-2.4-1.2-3.6l.8-5.2z"/><path id="XMLID_50_" class="st9" d="M84.6 612.7c-.4-.2 3.8-4.5 4.3-4.2 2 1.3-3.7 4.6-4.3 4.2z"/><path id="XMLID_49_" class="st9" d="M88 598.3c-.2.2.4 1.4.7 1.6.3.2 1.2-.2 1-1.1-.2-.9-1.2-1-1.7-.5z"/><path id="XMLID_48_" class="st9" d="M89.6 607.6c-.1.2.5 1 .7 1.2.2.1.9-.2.7-1-.3-.7-1-.7-1.4-.2z"/></g><g><path id="XMLID_47_" class="st10" d="M135.3 319.4c-.1-.5.2-.8.7-.5l2.9 1.4c.5.2 1.3.2 1.8 0l2.8-1.6c.5-.3.8 0 .7.5l-.5 3.2c-.1.6.2 1.3.6 1.7l2.3 2.2c.4.4.3.8-.3.9l-3.2.5c-.5.1-1.2.6-1.4 1.1l-1.4 2.9c-.2.5-.6.5-.9 0l-1.5-2.8c-.3-.5-.9-1-1.5-1l-3.2-.4c-.6-.1-.7-.4-.3-.8l2.2-2.3c.4-.4.6-1.2.5-1.7l-.3-3.3z"/><path id="XMLID_46_" class="st11" d="M142.8 321.5c.1-.6-.3-.9-.8-.7l-2.6 1c-.5.3-1.3.3-1.8 0l-1.9-1 .3 1.7c.1.5-.1 1.3-.5 1.7l-1.1 1.1c-1.2 1.1-1.4 1.5-1.4 1.5-.1.3.1.5.5.5l3.2.4c.6.1 1.2.5 1.5 1l1.5 2.8c0 .1.1.1.1.2 0 0 .4.7 1-.6.2-.4.5-1 .9-2l.2-.5c.2-.5.9-1 1.4-1.1l1.6-.3-1.9-1.8c-.4-.4-.7-1.1-.6-1.7l.4-2.2z"/><path id="XMLID_45_" class="st9" d="M134.1 326.5c-.2-.1 1.8-2.2 2.1-2 .8.6-1.9 2.1-2.1 2z"/><path id="XMLID_44_" class="st9" d="M135.7 319.6c-.1.1.2.7.3.8.1.1.6-.1.5-.5-.1-.5-.6-.5-.8-.3z"/><path id="XMLID_43_" class="st9" d="M136.4 324c-.1.1.2.5.3.6.1.1.4-.1.3-.5 0-.3-.4-.3-.6-.1z"/></g><g><path id="XMLID_42_" class="st10" d="M408.2 292c.9 0 1.1.6.6 1.3l-3.3 3.9c-.6.7-.9 1.9-.6 2.8l1.4 5c.2.9-.2 1.3-1.1 1l-4.8-1.9c-.8-.3-2.1-.2-2.9.3l-4.3 2.8c-.7.5-1.3.2-1.2-.7l.4-5.1c.1-.9-.5-2.1-1.1-2.6l-4-3.2c-.7-.6-.6-1.2.3-1.4l5-1.2c.9-.2 1.8-1.1 2.1-1.9l1.8-4.8c.3-.8 1-.9 1.4-.1l2.7 4.4c.5.8 1.6 1.4 2.5 1.5l5.1-.1z"/><path id="XMLID_41_" class="st11" d="M402.2 302.8c.8.3 1.6-.2 1.3-1l-.5-4.4c-.2-.9 0-2.1.6-2.8l2.2-2.6-2.8-.1c-.9 0-2-.7-2.5-1.5l-1.3-2.1c-1.2-2.3-1.8-2.7-1.8-2.7-.4-.2-.8 0-1 .6l-1.8 4.8c-.3.8-1.3 1.7-2.1 1.9l-5 1.2c-.1 0-.2.1-.3.1 0 0-1.3.4.6 1.7.6.4 1.4 1.1 2.7 2.2l.7.6c.7.6 1.2 1.7 1.1 2.6l-.2 2.6 3.5-2.3c.7-.5 2-.6 2.9-.3l3.7 1.5z"/><path id="XMLID_40_" class="st9" d="M397.8 287.4c.2-.2 2.7 3.6 2.3 4-1.3 1.1-2.7-3.7-2.3-4z"/><path id="XMLID_39_" class="st9" d="M407.8 292.4c-.1-.2-1.1 0-1.3.2-.2.2-.1.9.6.9.8.1 1-.6.7-1.1z"/><path id="XMLID_38_" class="st9" d="M400.7 292c-.1-.1-.8.2-1 .3-.1.2 0 .7.6.6s.7-.6.4-.9z"/></g><g><path class="st11" d="M233.6 40.7v1.4c0 .5-.2.7-.7.7H223v43c0 .7 0 .7-2.1.7V42.8h-10.3v-1.4c0-.5.2-.7.7-.7h22.3zM259.8 40.7v45.1c0 .7-.1.7-2.2.7V62.4h-16.8v23.3c0 .7-.1.7-2.2.7v-45c0-.7.1-.7 2.2-.7v19.6h16.8V41.4c.1-.6.1-.7 2.2-.7zM284.3 84.4c0 1.9 0 2.1-.6 2.1h-15.8V41.4s0-.7.7-.7h15.6c0 1.8 0 2.1-.5 2.1H270v17.6h12.8c0 1.7 0 2-.6 2H270v22h14.3zM321.8 42.7c0 .5-.1.9-.4 1.4-1.4-1.1-3.2-2-6-2-6.9 0-11.6 3.9-11.6 21.8 0 18.9 4.6 21.1 10.1 21.1 3.8 0 6.1-2.2 6.5-3.1V63.1h-7.7v-1.3c0-.5.3-.7.7-.7h9v21.7c-.6 1-2.9 4.3-8.8 4.3-6.9 0-12.2-3.5-12.2-23.1 0-19.7 5.6-23.9 13.5-23.9 3.9-.1 6.9 1.3 6.9 2.6zM347.4 85.6c0 .7-.1.8-1 .9h-1.2c-1.6-12.6-6-18.7-7.1-20.1-.5.1-1 .1-1.5.1h-5.2v19.3c0 .7 0 .7-2.2.7V41.4s0-.7.7-.7h7c8.2 0 10.9 5.6 10.9 12 0 7.4-2.8 11.8-7.7 13.2 1.8 2.3 6.1 9.1 7.3 19.7zm-10.9-21.2c6.3 0 9.2-4.5 9.2-11.6 0-5.4-2-10-8.8-10h-5.5v21.6h5.1zM370.6 84.4c0 1.9 0 2.1-.6 2.1h-15.8V41.4s0-.7.7-.7h15.6c0 1.8 0 2.1-.5 2.1h-13.7v17.6h12.8c0 1.7 0 2-.6 2h-12.2v22h14.3zM401.3 86.5c-.3 0-.9 0-1.4-.1l-3.7-13.5h-15.4L377.3 86c-.1.5-.5.5-1.2.5-.2 0-.7 0-1.3-.1l12.9-45.8c0-.1.3-.3.6-.3s.7.1.8.1L402 85.6c.2.7 0 .9-.7.9zm-5.7-15.6l-4-14.4c-1.6-5.8-3-11.3-3.2-12.9-.2 1.6-1.6 7.2-3.1 12.9l-3.9 14.4h14.2zM423.2 40.7v1.4c0 .5-.2.7-.7.7h-9.9v43c0 .7 0 .7-2.1.7V42.8h-10.3v-1.4c0-.5.2-.7.7-.7h22.3zM257.4 112.7v80.8c0 .8-.5 1.3-1.3 1.3h-2.3l-15-33.5c-.4-.9-12.9-29.7-17.2-39.7.1 10.4.1 42.4.1 43.1v28.8c0 1.3 0 1.3-3.9 1.3V114c0-.9.5-1.3 1.3-1.3h2.3l14.8 32.9c.4 1.1 13.8 32 17.5 40.2-.1-9.6-.1-43-.1-43.8v-28c0-1.3 0-1.3 3.8-1.3zM274.9 112.7v80.8c0 1.3-.1 1.3-3.9 1.3V115c.1-2.3.2-2.3 3.9-2.3zM322.9 116.3c0 .8-.1 1.6-.7 2.5-2.6-2-5.7-3.5-10.8-3.5-12.3 0-20.9 7-20.9 39 0 33.9 8.3 37.7 18.1 37.7 6.8 0 10.9-3.9 11.7-5.6v-33.5h-13.7v-2.3c0-.9.5-1.3 1.3-1.3H324v38.9c-1.1 1.9-5.3 7.7-15.7 7.7-12.4 0-21.8-6.2-21.8-41.5s10.1-42.9 24.3-42.9c6.7 0 12.1 2.4 12.1 4.8zM373.4 112.7v80.8c0 1.3-.1 1.3-3.9 1.3v-43.1h-30.1v41.8c0 1.3-.1 1.3-3.9 1.3V114c0-1.3.1-1.3 3.9-1.3v35.2h30.1V114c.1-1.2.1-1.3 3.9-1.3zM423.2 112.7v2.5c0 .8-.4 1.3-1.3 1.3h-17.7v77.1c0 1.2 0 1.2-3.8 1.2v-78.3H382V114c0-.9.4-1.3 1.3-1.3h39.9zM219.5 219.3c5.1 0 7 3.7 7 14.1 0 10.5-2.2 14.5-7.5 14.5-5 0-7.2-3.5-7.2-14.5.1-10.2 2.6-14.1 7.7-14.1zm-.4 27.2c4.3 0 6.1-3.5 6.1-13.3 0-9.5-1.7-12.6-5.7-12.6-4.2 0-6.2 3.5-6.2 13.3 0 9.2 1.7 12.6 5.8 12.6zM241.2 219.7c0 1.1 0 1.2-.3 1.2h-8.3v10.7h7.8c0 1 0 1.2-.4 1.2h-7.4V247s0 .4-.4.4h-.9v-27.3s0-.4.4-.4h9.5zM266.9 219.7V247c0 .4 0 .4-1.3.4v-13l.1-10.7c-.9 2.9-3.3 10.6-3.4 10.7l-2.4 7.3c-.1.3-.3.4-.4.4h-.7l-2.4-7.7c0-.2-2.3-7.4-3.3-10.6 0 2.6.1 9.7.1 10.2v13c0 .4 0 .4-1.3.4v-27.3c0-.3.2-.4.4-.4h.8l4.8 15.5 1.5 5s1.4-4.6 1.5-4.9l4.8-15.2c0-.1.1-.4.4-.4h.8zM279.2 219.3c5.1 0 7 3.7 7 14.1 0 10.5-2.2 14.5-7.5 14.5-5 0-7.2-3.5-7.2-14.5 0-10.2 2.5-14.1 7.7-14.1zm-.5 27.2c4.3 0 6.1-3.5 6.1-13.3 0-9.5-1.7-12.6-5.7-12.6-4.2 0-6.2 3.5-6.2 13.3 0 9.2 1.8 12.6 5.8 12.6zM288.7 219.7h1l5.4 19.1c.8 2.9 1.2 5 1.7 7.3.4-2.3.9-4.4 1.6-7.3l4.9-18.5c.1-.4.1-.6.5-.6h1l-7.4 28.1c-.1 0-.4.1-.9.1-.3 0-.6-.9-1-2.3-1.8-6.7-7-25.2-7-25.2-.1-.5-.2-.7.2-.7zM309.5 219.7V247c0 .4 0 .4-1.3.4v-27c0-.7.1-.7 1.3-.7zM324.8 246.2c0 1.1 0 1.3-.4 1.3h-9.6v-27.3s0-.4.4-.4h9.5c0 1.1 0 1.3-.3 1.3h-8.3v10.7h7.8c0 1 0 1.2-.4 1.2h-7.4v13.3h8.7zM346 246.2c0 1.1 0 1.3-.4 1.3H336v-27.3s0-.4.4-.4h9.5c0 1.1 0 1.3-.3 1.3h-8.3v10.7h7.8c0 1 0 1.2-.4 1.2h-7.4v13.3h8.7zM365 247.5h-.8l-2.3-8.2h-9.3l-2.1 7.9c-.1.3-.3.3-.7.3h-.8l7.8-27.8c0-.1.2-.2.4-.2s.4 0 .5.1l7.8 27.4c0 .3-.1.5-.5.5zm-3.5-9.5l-2.4-8.7c-1-3.5-1.8-6.9-1.9-7.8-.1 1-1 4.4-1.9 7.8l-2.4 8.7h8.6zM378.8 219.7v.8c0 .3-.1.4-.4.4h-6V247c0 .4 0 .4-1.3.4V221h-6.2v-.8c0-.3.1-.4.4-.4h13.5zM392.3 246.2c0 1.1 0 1.3-.4 1.3h-9.6v-27.3s0-.4.4-.4h9.5c0 1.1 0 1.3-.3 1.3h-8.3v10.7h7.8c0 1 0 1.2-.4 1.2h-7.4v13.3h8.7zM407.4 246.9c0 .4-.1.5-.6.5h-.8c-1-7.6-3.6-11.3-4.3-12.2h-4V247c0 .4 0 .4-1.3.4v-27.3s0-.4.4-.4h4.2c5 0 6.6 3.4 6.6 7.3 0 4.5-1.7 7.2-4.6 8 1.1 1.4 3.7 5.5 4.4 11.9zm-6.6-12.9c3.8 0 5.5-2.7 5.5-7.1 0-3.3-1.2-6.1-5.4-6.1h-3.3V234h3.2zM422.6 220.9c0 .3-.2.6-.4.8-.7-.6-2.2-1.2-4.6-1.2-3 0-5 1.5-5 3.8 0 1.8 1.1 3.2 2.5 4.6l5 4.9c2.3 2.4 3.1 4.2 3.1 7 0 4.2-2.1 7.1-6.8 7.1-3.6 0-5.2-1.3-5.2-1.9 0-.4.2-.7.6-.9.8.8 2.1 1.5 4.7 1.5 3.8 0 5.5-2.3 5.5-5.5 0-2.6-.8-4.3-3.2-6.7l-4.5-4.4c-1.8-1.8-2.9-3.4-2.9-5.5 0-3 2.4-5.1 6.5-5.1 3.2-.1 4.7.8 4.7 1.5z"/></g></svg>