<svg version="1.1" id="Layer_1" xmlns="http://www.w3.org/2000/svg" xmlns:xlink="http://www.w3.org/1999/xlink" x="0" y="0" width="510" height="710" xml:space="preserve"><style>.st1{fill:#e8e8e8}.st5{fill:#4f251a}.st7{fill:#190e0f}.st8{fill:#733428}.st10{fill:#250f0f}.st11{clip-path:url(#XMLID_81_);fill:#23100d}.st12{clip-path:url(#XMLID_82_);fill:#fcb129}.st18{fill:#f3f3f3}.st19{fill:#fdfeff}.st27{fill:#989898}</style><radialGradient id="XMLID_80_" cx="142.238" cy="306.286" r="437.184" gradientUnits="userSpaceOnUse"><stop offset="0" stop-color="#fff"/><stop offset=".323" stop-color="#faf9f7"/><stop offset=".641" stop-color="#f1eee9"/><stop offset=".955" stop-color="#e3dfd5"/><stop offset="1" stop-color="#e1dcd2"/></radialGradient><path id="XMLID_78_" fill="url(#XMLID_80_)" d="M5 1.4h500v707.1H5z"/><path id="XMLID_77_" class="st1" d="M113.5 225.3c8.2-25.9 143.6-83.8 280.5 43.1 80.5 74.6 74.5 100.9 0 137.2-74.5 36.5-333.6-12.4-280.5-180.3z"/><path id="XMLID_76_" d="M138.3 237.8c6.8-21.4 118.6-69.3 231.8 35.6 66.5 61.7 61.6 83.3 0 113.4-61.6 30.2-275.7-10.3-231.8-149z" fill="#d2d0cf"/><path id="XMLID_75_" d="M162.5 249.2c5-15.8 87.6-51.1 171.1 26.3 49.1 45.5 45.4 61.5 0 83.7-45.4 22.3-203.5-7.6-171.1-110z" fill="#c4c2c2"/><path id="XMLID_74_" d="M178.7 249.7c3.2-10 55.5-32.4 108.5 16.7 31.1 28.9 28.8 39 0 53.1-28.8 14.1-129-4.8-108.5-69.8z" fill="#b3b3b3"/><path id="XMLID_73_" class="st5" d="M107.7 121.1c1.9-5.1 16.4 31.9 51.4 26.3 35.1-5.5 32.4-6.2 79.4-22.7 47-16.5 107.2-5.4 131.7 11.8 24.5 17.3 32.7 22.1 29.4 43.7s-7.1 61.5-10.6 59.6c-3.6-1.9-6.2-40.3-45.9-50.2-39.7-9.9-111.2 13.2-140.9 22.5-29.8 9.3-57.6 7.9-71.5-2-13.9-10-24.9-84.1-23-89z"/><path id="XMLID_72_" d="M107.9 122c1.9-5.1 14.4 32.6 49.5 27.1s32.4-6.2 79.4-22.7c47-16.5 107.2-5.4 131.7 11.8 24.5 17.3 34.4 20.4 31.1 42s-8.7 63.2-12.3 61.3c-3.6-1.9-6.2-40.3-45.9-50.2-39.7-9.9-111.2 13.2-140.9 22.5-29.8 9.3-57.6 7.9-71.5-2-13.9-10-22.9-84.8-21.1-89.8z" fill="#270f10"/><path id="XMLID_71_" class="st7" d="M364.6 144.6c2 .4 31.1 23 32.6 29.1 1.5 6.1-6.9 49.5-7.5 50-.7.5-16.9-22.8-22.2-27.2-5.3-4.4-8.6-2.9-8.4-5.7.2-2.9-.7-47.5 5.5-46.2z"/><path id="XMLID_70_" class="st7" d="M303.1 125.9c1.6 0 19.6 2 33 6.1 13.3 4.2 21 5.5 20.6 10.3-.4 4.8-2.2 47.9-4.2 47.9s-11.5-4.6-26.4-6.2c-7.2-.8-23.3.6-23.7 0-.4-.5-3-58.1.7-58.1z"/><path id="XMLID_69_" class="st7" d="M238.1 135.4c2.8-1.6 15.4-7 26.8-9.4 11.4-2.4 28.1-2 28.5 0 .4 2 3.3 57.7 1.5 58.2-1.8.5-12.5 2.4-24.8 5.3s-22.8 7.5-25 4.8c-2.2-2.7-8.4-58.2-7-58.9z"/><path id="XMLID_68_" class="st7" d="M176.4 151.2c2.1-.7 28.3-6.1 34.7-9 6.4-2.9 20.4-7.2 20.4-5.3 0 2 5.5 59.3 4.2 60.2-1.3.9-22.6 7.5-29.5 9.9-6.9 2.4-26.2 7.9-26.7 5.7s-5.2-60.8-3.1-61.5z"/><path id="XMLID_67_" class="st8" d="M269.3 221.7c30.5-2.9 67.5-4 94.6-15.9 27.1-11.9 35.7-40.4 35.7-40.4l-2.3 87.6s-24.2 22.3-67.8 26.2c-43.7 4-68.8 18.5-73.5 32.4-4.6 13.9-35.1-53.6-31.1-68.8 4-15.2 28.5-19.6 44.4-21.1z"/><path id="XMLID_66_" d="M269.3 223.7c30.5-2.9 67.5-4 94.6-15.9 27.1-11.9 35.7-40.4 35.7-40.4s5.6 80.1-1.1 88.1c-8.8 10.6-25.3 21.8-69 25.7-43.7 4-68.8 18.5-73.5 32.4-4.6 13.9-32.5-54.7-29.7-70.2 2.6-14.3 27.1-18.2 43-19.7z" fill="#3a1717"/><path id="XMLID_65_" class="st10" d="M230.4 247.2c3.1-2.3 14.5-11.4 23.2-13.2 8.7-1.8 18.8-4.2 19.4-2.9.7 1.3 7.2 53.6 6.1 54.2-1.1.7-18.7 8.6-21.1 12.2-2.4 3.6-5 12.7-13.2-4.3-8-17.1-24.3-38.7-14.4-46z"/><path id="XMLID_64_" class="st10" d="M281.4 230.7c2.7-2.1 42.6-6.2 49-7.1 6.4-.9 7.2 49.6 3.7 50.5-3.5.9-20.1 2.9-28 4.6-7.8 1.8-16.2 4.6-18.4 3.3-2.2-1.2-9-49.2-6.3-51.3z"/><path id="XMLID_63_" class="st10" d="M341.5 223.6c1.6-.9 16.9-7 29-12.3 12.1-5.3 18.2-14.5 20.4-11.6s4 50.2 2.4 53.3c-1.5 3.1-14.4 9.9-25.6 14s-19.2 5.6-22.5 4.5c-3.2-1.1-5.2-47-3.7-47.9z"/><path id="XMLID_62_" class="st8" d="M382.9 277.9c6.1-2.6 5.3 117.8 4 121.8-1.3 4-45.7 15.9-84 7.9-38.4-7.9-65.5-42.4-65.5-46.3 0-4-18.1-117.2-11.4-121.1 1.2-.7-4.4 40.3 55.1 48.9 59.4 8.7 81.9-2.6 101.8-11.2z"/><path id="XMLID_61_" class="st5" d="M382.4 281.2c6.1-2.6 5.3 117.8 4 121.8-1.3 4-45.7 15.9-84 7.9-38.4-7.9-65.5-42.4-65.5-46.3 0-4-16.5-119.1-11.9-119.8 4.6-.7-4 39 55.6 47.6 59.5 8.7 82-2.6 101.8-11.2z"/><path id="XMLID_60_" class="st7" d="M142.1 154.3c-18.9-4.6-25.9-13.4-26.4-14.3 0 0-3.7-2-5.3-3.6-.6-.6-1.3-.5-2-.1 1.9 19.1 7.3 51.9 14.9 67.6 5 2.1 12.5 4.9 18.3 6.6 9.2 2.6 29 .9 29.4 0 .4-.9-2.2-53.8-3.3-56.2-1-2.5-14.4 2.7-25.6 0z"/><defs><path id="XMLID_57_" d="M382.4 281.2c6.1-2.6 5.3 117.8 4 121.8-1.3 4-45.7 15.9-84 7.9-38.4-7.9-65.5-42.4-65.5-46.3 0-4-16.5-119.1-11.9-119.8 4.6-.7-4 39 55.6 47.6 59.5 8.7 82-2.6 101.8-11.2z"/></defs><clipPath id="XMLID_81_"><use xlink:href="#XMLID_57_" overflow="visible"/></clipPath><path id="XMLID_59_" class="st11" d="M391.8 283.8c-4.6 1.1-2.4 6.1-17.1 11.6-14.7 5.5-51.4 9.2-62.6 8.3-11.2-.9-14.3 4.2-14.9 7-.7 2.9-3.5 84.8-1.8 86.6 1.8 1.8 25.6 11.5 52.1 8.6 26.5-2.9 50.6-12.4 52.2-14.8 1.6-2.3-7.9-107.3-7.9-107.3z"/><path id="XMLID_58_" class="st11" d="M279.3 304.9c2.1.7 6.2 6.6 6 14.9-.2 8.3-3.1 70.1-3.7 71.6-3.6 8-45.5-30.3-51.2-37.6-5.7-7.2-11.1-86.9-11.1-86.9s14.6 17.8 24 23.1c9.5 5.4 24.3 11.2 36 14.9z"/><g><defs><path id="XMLID_50_" d="M88.3 233.4c.8 6.6 15.3 212.6 15.3 216.4s21 17.2 68.7 16.5c47.7-.6 66.2-15.3 66.2-17.8s17.8-220.2 13.4-224.7c-4.5-4.4-164.4 3-163.6 9.6z"/></defs><use xlink:href="#XMLID_50_" overflow="visible" fill="#ffc95e"/><clipPath id="XMLID_82_"><use xlink:href="#XMLID_50_" overflow="visible"/></clipPath><path id="XMLID_56_" class="st12" d="M46.2 355.6c2.7-12 119-206.7 119.1-204.5.1 2.2 15.8 7.6 15.8 9.2 0 1.6-129.5 222.5-129.5 222.5l-5.4-27.2z"/><path id="XMLID_55_" class="st12" d="M64.9 395.9c2.7-12 119-206.7 119.1-204.5.1 2.2 15.8 7.6 15.8 9.2S70.3 423.1 70.3 423.1l-5.4-27.2z"/><path id="XMLID_54_" class="st12" d="M89.5 431.4c2.7-12 166.1-284.9 166.1-282.7.1 2.2 15.8 7.6 15.8 9.2 0 1.6-176.5 300.6-176.5 300.6l-5.4-27.1z"/><path id="XMLID_53_" class="st12" d="M108.2 474.1c2.7-12 166.1-284.9 166.1-282.6s15.8 7.6 15.8 9.2c0 1.6-176.5 300.6-176.5 300.6l-5.4-27.2z"/><path id="XMLID_52_" class="st12" d="M135.4 499.6c2.7-12 166.1-284.9 166.1-282.7.1 2.2 15.8 7.6 15.8 9.2 0 1.6-176.5 300.6-176.5 300.6l-5.4-27.1z"/><path id="XMLID_51_" class="st12" d="M165.3 520.2c2.7-12 166.1-284.9 166.1-282.6.1 2.2 15.8 7.6 15.8 9.2 0 1.6-176.5 300.6-176.5 300.6l-5.4-27.2z"/><defs><path id="XMLID_47_" d="M88.3 233.4c.8 6.6 15.3 212.6 15.3 216.4s21 17.2 68.7 16.5c47.7-.6 66.2-15.3 66.2-17.8s17.8-220.2 13.4-224.7c-4.5-4.4-164.4 3-163.6 9.6z"/></defs><clipPath id="XMLID_83_"><use xlink:href="#XMLID_47_" overflow="visible"/></clipPath><path id="XMLID_49_" d="M116.7 170.5s13.3 326.1 11.7 328.8c-1.6 2.7-64.7-33-64.7-33L22.3 187.6l94.4-17.1z" opacity=".29" clip-path="url(#XMLID_83_)" fill="#fff"/><path id="XMLID_48_" d="M215.9 205.8c-1.6-.2-.2 73.3-2 94.5-1.8 21.2-12.3 187.6-9.8 187.6 2.6 0 60.7-27.7 60.7-27.7l8.8-282.9-57.7 28.5z" opacity=".38" clip-path="url(#XMLID_83_)" fill="#dc9027"/><defs><path id="XMLID_45_" d="M88.3 233.4c.8 6.6 15.3 212.6 15.3 216.4s21 17.2 68.7 16.5c47.7-.6 66.2-15.3 66.2-17.8s17.8-220.2 13.4-224.7c-4.5-4.4-164.4 3-163.6 9.6z"/></defs><clipPath id="XMLID_84_"><use xlink:href="#XMLID_45_" overflow="visible"/></clipPath><path id="XMLID_46_" d="M74.5 227.1c-1.6 1.9-20 32.9 70 37.2 90 4.4 126.4-14.2 135.1-22.1 8.7-7.8-115.3-37.8-149.6-29.6-34.3 8.2-55.5 14.5-55.5 14.5z" opacity=".29" clip-path="url(#XMLID_84_)" fill="#bb8b42"/><g><defs><path id="XMLID_42_" d="M245.3 164.9c9.8 11.8 12.4 62 12.3 68.5 0 6.5-64.3 14-92.3 15.9-28 1.9-81-1.1-82.7-8.8-1.7-7.7 7.4-71.5 18.9-75.6 11.4-4.1 140.1-4.5 143.8 0z"/></defs><use xlink:href="#XMLID_42_" overflow="visible" fill="#d3d3d3"/><clipPath id="XMLID_85_"><use xlink:href="#XMLID_42_" overflow="visible"/></clipPath><path id="XMLID_44_" d="M140.3 144.1c2.2 3.8-16.5 75.3-21.1 102.5-4.5 27.2-8.7 43.8-25.4 41.7-16.6-2.2-52-79.4-41.1-97.9 10.9-18.5 80.5-58.2 87.6-46.3z" opacity=".21" clip-path="url(#XMLID_85_)" fill="#fdfeff"/><path id="XMLID_43_" d="M204.1 169.2c1.9 9.8 16.1 97.9 14.7 111.5-1.3 13.6 63.4 5.4 71.6 3.3 8.2-2.2-29.7-132.7-32.8-134.3-3.1-1.8-53.5 19.5-53.5 19.5z" opacity=".71" clip-path="url(#XMLID_85_)" fill="#c6c4c2"/></g><path id="XMLID_41_" class="st1" d="M96.6 169.1c1.7-8.5 49.6-14.6 78.9-14 29.3.6 68.1 0 72.6 14s-46.5 18.5-82.1 18.5-73.2.6-69.4-18.5z"/><path id="XMLID_40_" class="st18" d="M107.6 169.7c1.2-6.2 36.4-10.7 57.9-10.3 21.5.5 50 0 53.2 10.3 3.3 10.3-34.1 13.5-60.2 13.5-26.2 0-53.7.5-50.9-13.5z"/><path id="XMLID_39_" class="st19" d="M116.7 170.5c.6-3.1 18.2-5.4 28.9-5.1 10.7.2 25 0 26.6 5.1 1.6 5.1-17 6.8-30.1 6.8-13 0-26.8.2-25.4-6.8z"/><path id="XMLID_38_" class="st1" d="M75.6 232.8c8.3-12.4 26.1 8.2 101.2 5.7 75.1-2.5 80.5-20.7 87.5-5.1 4 8.8-18.2 22-89.7 23.9-66.3 1.7-107.5-11.8-99-24.5z"/><path id="XMLID_37_" class="st18" d="M94.8 239.6c6.6-7 20.8 4.6 80.6 3.2 59.8-1.4 64.1-11.7 69.7-2.9 3.2 5-14.5 12.4-71.5 13.5-52.8 1.1-85.6-6.6-78.8-13.8z"/><path id="XMLID_36_" class="st19" d="M104.1 240.2c4.6-3.3 13.7 3.1 53.4 4.6 39.8 1.5 42.9-3.4 46.4 1.2 2 2.6-10 5.7-47.8 4.1-35.1-1.5-56.7-6.5-52-9.9z"/><path id="XMLID_35_" d="M204.1 170.2c-2.8-2.8 4.9-9.3 17.9-3.7 8.8 3.7-10.6 10.9-17.9 3.7z" fill="#969696"/><path id="XMLID_34_" d="M206.4 167.2c2-5.6 23.5-77 29.3-80.2 5.7-3.2 68.7 3.2 70.6 5.1 1.9 1.9 2 10.2-2.2 11.2-6.4 1.7-57.9-7.7-59.8-7.1-1.9.6-20.1 65.8-23.4 73.6-1.4 3.4-16.4 2.7-14.5-2.6z" fill="#ffc95e"/><path id="XMLID_33_" d="M300.8 94.9c1.7-4 6.5-.8 4.9 3.8-1.6 4.6-8.7 5.2-4.9-3.8z" fill="#e39e25"/><g><defs><path id="XMLID_30_" d="M206.4 167.2c2-5.6 23.5-77 29.3-80.2 5.7-3.2 68.7 3.2 70.6 5.1 1.9 1.9 2 10.2-2.2 11.2-6.4 1.7-57.9-7.7-59.8-7.1-1.9.6-20.1 65.8-23.4 73.6-1.4 3.4-16.4 2.7-14.5-2.6z"/></defs><clipPath id="XMLID_86_"><use xlink:href="#XMLID_30_" overflow="visible"/></clipPath><path id="XMLID_32_" d="M210.2 174.6c3-7.9 26.4-81.6 29.4-83.5 3-1.9 57.8 6 58.2 4.4.8-3.1 2.8-6 6.3-6.6 3.5-.5-60.9-11.4-67.2-9.8-6.3 1.6-24.2 46.7-26.7 49.9-2.4 3.2-9.5 42.9-9.5 42.9l9.5 2.7z" opacity=".26" clip-path="url(#XMLID_86_)" fill="#fff"/><path id="XMLID_31_" d="M215.8 175.3s23.5-79.3 26.8-80.9c3.3-1.6 54.3 3.8 54.5 5.2.5 4 3.7 5 6.7 7.4 3 2.4-55.4-.4-55.4.1-.1.5-25.6 66.1-25.6 66.1l-7 2.1z" opacity=".24" clip-path="url(#XMLID_86_)" fill="#e39e25"/></g><path id="XMLID_29_" d="M235.9 89.7c1.2.1 2.9-.8 0 6.7s-8.6 26.7-10 26.5c-1.4-.2.8-9.8 4.3-19 3.4-9.1 4.5-14.3 5.7-14.2z" fill="#fff"/></g><g><path class="st10" d="M110.5 540.8h9.5V605h-6.7v-25.8l.6-24-8.7 49.7h-6.8l-9.1-49.7.6 24V605h-6.7v-64.2h9.4l9.2 52.8 8.7-52.8zM129.7 558.2c0-7.3 1.3-12.3 3.9-15 2.1-2.1 5.1-3.2 9-3.2 5.7 0 9.4 2.4 11 7.1.9 2.8 1.4 6.5 1.4 11.2v28.3c0 6.7-.9 11.6-2.8 14.6-1.9 3.1-5.2 4.6-9.8 4.6-4.7 0-8-1.5-9.9-4.6-1.9-3.1-2.9-7.9-2.9-14.6v-28.4zm17.9-.4c0-4.1-.3-7-1-8.7-.7-1.7-2-2.6-4-2.6s-3.4.9-4.2 2.6c-.8 1.8-1.2 4.6-1.2 8.7v28.9c0 4.9.3 8.2 1 10 .7 1.8 2.1 2.6 4.1 2.6 2.1 0 3.4-.9 4.1-2.7.7-1.8 1-5.1 1-9.9v-28.9zM184 540.8h7.1l-9.7 64.2h-8.8l-10.7-64.2h7.2l4.3 27.2 3.6 23.9h.1l3.2-23.9 3.7-27.2zM199.1 540.8h7.6V605h-7.6v-64.2zM217.8 540.8H237v6.3h-11.6v22h11v6.3h-11v23.4h11.8v6.3h-19.3v-64.3zM264.3 540.8h7.6v58h11.9v6.2h-19.4v-64.2zM307.7 540.8h7.5v47.7c0 6-.9 10.4-2.8 13.1s-5.2 4.1-9.8 4.1-7.9-1.4-9.9-4.1-2.9-7.1-2.9-13.1v-47.7h7.6v47.6c0 4.3.2 6.8.5 7.7.4.8.7 1.5 1.1 2 .7.9 1.9 1.4 3.5 1.4 1.7 0 2.9-.5 3.7-1.5.8-1 1.2-2.5 1.3-4.6.1-2 .1-3.7.1-4.9v-47.7zM345.2 540.8h6.7V605h-5.5L332 560.9l.4 16.2V605h-7v-64.2h5.7l14.9 43.7-.8-18.6v-25.1zM361.7 559.3c0-4.9.4-8.4 1.2-10.7.8-2.3 1.7-4 2.6-5 2.1-2.3 5.1-3.5 9.1-3.5 5.5 0 9.1 2.5 10.7 7.3.9 2.8 1.4 6.5 1.4 11.2v7.1h-7.4v-7.2c0-4.1-.2-6.9-.7-8.3-.5-1.4-1-2.4-1.6-2.9-.6-.5-1.4-.7-2.4-.7-2 0-3.4 1-4.2 2.9-.8 1.9-1.1 4.9-1.1 9v27.8c0 4.9.3 8.3 1 10.2.7 1.9 2 2.9 4 2.9s3.3-1 4-2.9c.7-1.9 1-5.4 1-10.2v-7.1h7.5v7c0 6.7-.9 11.7-2.8 14.9-1.8 3.2-5 4.8-9.6 4.8s-7.8-1.6-9.8-4.9c-1.9-3.3-2.9-8.2-2.9-14.8v-26.9zM413.8 540.8h7.6V605h-7.6v-31.1h-10.3V605h-7.6v-64.2h7.6v26.9h10.3v-26.9z"/></g><g opacity=".71"><path class="st27" d="M87.6 625.2h3.6v43.9h-5.1v-37c-.6.7-1.4 1.2-2.4 1.6-1 .4-2 .6-3 .6v-3.6c1.4-.2 2.8-.8 4-1.7 1.3-.9 2.2-2.2 2.9-3.8zM104 640.2c.6-1.2 2-1.7 4.3-1.7h.1c1.1 0 2.1.4 3 1.2 1.8 1.6 2.7 5.9 2.7 12.9 0 5.4-.1 8.8-.4 10.1-.3 1.3-.5 2.4-.8 3.1-.9 2.6-3 3.9-6.5 3.9-5.1 0-7.7-2.8-7.7-8.4v-4.8h5v4.9c0 1.3.2 2.2.6 3 .4.7 1.1 1.1 2 1.1 1 0 1.7-.3 2.1-1 .4-.7.6-1.8.6-3.2v-13.1c0-1.8-.2-3.1-.6-3.9-.4-.8-1-1.2-2-1.2-1.9 0-2.9 1.6-2.9 4.7l-4.4-.4v-21.8H113v4.6h-9v10zM143.1 625.3h5.2v33.3c0 7.4-2.6 11.2-7.8 11.2-2.8 0-4.8-.8-6.1-2.5-1.3-1.7-1.9-4.3-1.9-7.7v-5.7h5v5.4c0 2.2.1 3.6.3 4.1.2.5.4.9.6 1.2.4.6 1.1.9 2 .9.9 0 1.6-.3 2-.9.4-.6.6-1.4.7-2.3.1-.9.1-2 .1-3.3v-33.7zM167.3 625.3h5.1v32.6c0 4.1-.6 7.1-1.9 9-1.3 1.9-3.5 2.8-6.7 2.8s-5.4-.9-6.7-2.8c-1.3-1.9-2-4.9-2-9v-32.6h5.2v32.5c0 2.9.1 4.7.4 5.3.2.6.5 1 .8 1.4.5.6 1.3.9 2.4.9 1.1 0 2-.3 2.5-1s.8-1.7.9-3.1c0-1.4.1-2.5.1-3.4v-32.6zM193 625.3h4.6v43.9h-3.8l-9.9-30.1.3 11.1v19.1h-4.8v-43.9h3.9l10.2 29.9-.5-12.7v-17.3zM204.7 625.3h13.1v4.3h-8v15h7.5v4.3h-7.5v16h8.1v4.3h-13.2v-43.9zM236 638.9c-.3-1-.4-2.3-.4-3.8 0-3.2.6-5.7 1.8-7.6 1.2-1.9 3.4-2.8 6.7-2.8 4.3 0 6.8 2 7.5 6.1.3 1.8.5 4 .5 6.7v2.6h-4.9v-2.9c0-2.8-.1-4.7-.4-5.6-.3-1-.6-1.6-1-1.9-.4-.3-1-.5-1.6-.5-1.2 0-2.1.5-2.7 1.4-.5.9-.8 2.3-.8 4.1 0 1.8.2 3.1.7 3.9.5.8 1.1 1.6 1.8 2.4.7.8 1.1 1.2 1.2 1.3l3 3.2c3.6 3.8 5.4 8 5.4 12.6 0 3.8-.6 6.7-1.8 8.7-1.2 2-3.4 3-6.7 3-4 0-6.5-1.7-7.6-5.2-.6-2-.9-4.5-.9-7.7v-4.6h5v4.5c0 3.2.2 5.4.7 6.7.5 1.3 1.3 1.9 2.6 1.9s2.1-.3 2.6-.9c.5-.6.8-1.5.8-2.7.1-1.2.1-2.6.1-4.1 0-3-1.3-5.9-4-8.6l-2.9-2.9c-2.5-2.7-4.1-5.1-4.7-7.3zM255.4 625.3h14.5v4.3h-4.5v39.6h-5.1v-39.6h-4.8v-4.3zM278.9 625.3h6.2l7.3 43.9h-4.9l-1.2-8.4h-8l-1.1 8.4h-4.9l6.6-43.9zm-.1 31.3h6.7l-3.5-23.2-3.2 23.2zM297.6 625.3h9.2c2.6 0 4.5.5 5.6 1.6 1.1 1.1 1.8 2.9 2.1 5.5.1 1.1.1 2.7.1 5s-.3 4.1-.9 5.7c-.6 1.5-1.6 2.5-3.1 3 1.1.2 1.9.8 2.5 1.7.6 1 1 2.5 1.2 4.6.2 2.1.3 5.3.3 9.5s.1 6.6.4 7.3h-5.1c-.3-.5-.4-5.5-.4-14.8 0-3.1-.3-5-.9-5.5-.6-.5-1.5-.8-2.8-.8l-3.1-.2v21.2h-5.2v-43.8zm11.9 10.7c0-3.4-.3-5.3-.9-5.9-.6-.5-1.5-.8-2.6-.8h-3.2v14.8h3.3c1 0 1.7-.2 2.2-.6.5-.4.8-1.1 1-2.2.2-1.1.3-2.8.3-5.1v-.2zM318.5 625.3H333v4.3h-4.5v39.6h-5.1v-39.6h-4.8v-4.3zM354.6 640.2c.6-1.2 2-1.7 4.3-1.7h.1c1.1 0 2.1.4 3 1.2 1.8 1.6 2.7 5.9 2.7 12.9 0 5.4-.1 8.8-.4 10.1s-.5 2.4-.8 3.1c-.9 2.6-3 3.9-6.5 3.9-5.1 0-7.7-2.8-7.7-8.4v-4.8h5v4.9c0 1.3.2 2.2.6 3 .4.7 1.1 1.1 2 1.1 1 0 1.7-.3 2.1-1 .4-.7.6-1.8.6-3.2v-13.1c0-1.8-.2-3.1-.6-3.9-.4-.8-1-1.2-2-1.2-1.9 0-2.9 1.6-2.9 4.7l-4.4-.4v-21.8h13.8v4.6h-9.1v10zM372.1 625.3h8.8c3.9 0 6.3 1.6 7.3 4.8.6 2 .9 4.4.9 7.1 0 2.7-.1 4.7-.2 6.1-.3 3-1.1 5.2-2.4 6.5-1.2 1.4-3.1 2.1-5.7 2.1h-3.7v17.2h-5.2v-43.8zm11.9 12.4c0-3-.2-5.1-.7-6.4-.5-1.3-1.4-1.9-2.8-1.9h-3.3v18.3h3.1c1.5 0 2.4-.6 2.9-1.9.5-1.3.7-3.7.7-7.2v-.9zM412.9 625.3h6.5v43.9h-4.6v-17.6l.4-16.4-6 34h-4.7l-6.2-34 .4 16.4v17.6h-4.6v-43.9h6.4l6.3 36.1 6.1-36.1z"/></g></svg>