<svg version="1.1" id="Layer_1" xmlns="http://www.w3.org/2000/svg" xmlns:xlink="http://www.w3.org/1999/xlink" x="0" y="0" width="510" height="710" xml:space="preserve"><style>.st0{fill:#f15c3e}.st2{fill:#ffc95e}.st4{fill:#fece95}.st9{fill:#4f251a}.st10{fill:#010101}.st11{opacity:.16;fill:#fff}.st17{fill:#9c1c1f}.st18{fill:#b82025}.st19{fill:#ba3a26}.st20{opacity:.48;fill:#a31d21}.st35{fill:#be2026}.st36{fill:#db2a26}.st37{fill:#dc5031}.st38{opacity:.48;fill:#c62127}.st53{fill:#e11f26}.st54{fill:#ee3725}.st55{opacity:.48;fill:#e81d25}</style><path id="XMLID_263_" class="st0" d="M5 1.4h500v707.1H5z"/><defs><path id="XMLID_217_" d="M172.5 150c-1.6-19.4 12.7-53 53.3-53.1 45.3 0 63.1 24.4 61.3 50.6-1.2 17.3-19.7 46.1-57.2 46-28.8 0-54.6-10.5-57.4-43.5z"/></defs><use xlink:href="#XMLID_217_" overflow="visible" fill="#f3b524"/><clipPath id="XMLID_265_"><use xlink:href="#XMLID_217_" overflow="visible"/></clipPath><g clip-path="url(#XMLID_265_)"><path id="XMLID_262_" class="st2" d="M229.4 125.6c-1.8-.6-3.1-47.7-2-47.7s3.3 48.1 2 47.7z"/><path id="XMLID_261_" class="st2" d="M226.3 125.7c-1.9-.4-9.7-46.9-8.6-47 1 0 9.9 47.3 8.6 47z"/><path id="XMLID_260_" class="st2" d="M223.2 126.3c-1.9-.1-16.1-45.1-15.1-45.3 1-.2 16.4 45.4 15.1 45.3z"/><path id="XMLID_259_" class="st2" d="M220.2 127.3c-1.9.2-22.2-42.4-21.2-42.8.9-.3 22.5 42.7 21.2 42.8z"/><path id="XMLID_258_" class="st2" d="M217.4 128.7c-1.9.4-27.9-38.9-27-39.4.9-.5 28.2 39.1 27 39.4z"/><path id="XMLID_257_" class="st2" d="M214.8 130.5c-1.8.7-33-34.6-32.2-35.3.8-.6 33.4 34.9 32.2 35.3z"/><path id="XMLID_256_" class="st2" d="M212.4 132.7c-1.7.9-37.5-29.7-36.8-30.4.8-.8 38 29.7 36.8 30.4z"/><path id="XMLID_255_" class="st2" d="M210.4 135.1c-1.5 1.2-41.3-24.2-40.7-25 .7-.9 41.8 24.2 40.7 25z"/><path id="XMLID_254_" class="st2" d="M208.8 137.8c-1.4 1.4-44.3-18.2-43.8-19.1.5-.9 44.7 18.2 43.8 19.1z"/><path id="XMLID_253_" class="st2" d="M207.5 140.7c-1.2 1.5-46.4-11.9-46-12.8.4-1 46.8 11.7 46 12.8z"/><path id="XMLID_252_" class="st2" d="M206.7 143.7c-.9 1.7-47.6-5.3-47.3-6.3.2-1 47.9 5.2 47.3 6.3z"/><path id="XMLID_251_" class="st2" d="M206.3 146.9c-.7 1.8-47.8 1.4-47.7.3 0-1 48.1-1.6 47.7-.3z"/><path id="XMLID_250_" class="st2" d="M206.3 150c-.4 1.9-47.2 8-47.2 7-.1-1 47.5-8.2 47.2-7z"/><path id="XMLID_249_" class="st2" d="M206.8 153.2c-.2 1.9-45.6 14.5-45.8 13.5s45.9-14.9 45.8-13.5z"/><path id="XMLID_248_" class="st2" d="M207.7 156.2c.1 1.9-43.1 20.7-43.5 19.7-.4-1 43.4-21 43.5-19.7z"/><path id="XMLID_247_" class="st2" d="M209 159.1c.4 1.9-39.8 26.5-40.3 25.6-.5-1 40-26.9 40.3-25.6z"/><path id="XMLID_246_" class="st2" d="M210.7 161.7c.6 1.8-35.7 31.8-36.4 30.9-.6-.8 35.9-32.1 36.4-30.9z"/><path id="XMLID_245_" class="st2" d="M212.7 164.1c.9 1.7-31 36.5-31.7 35.7-.7-.7 31.1-36.8 31.7-35.7z"/><path id="XMLID_244_" class="st2" d="M215.1 166.2c1.1 1.6-25.6 40.4-26.4 39.8-.9-.7 25.6-40.9 26.4-39.8z"/><path id="XMLID_243_" class="st2" d="M217.7 168c1.3 1.4-19.7 43.6-20.6 43.1-.9-.6 19.7-44.1 20.6-43.1z"/><path id="XMLID_242_" class="st2" d="M220.6 169.3c1.5 1.2-13.5 45.9-14.4 45.5-1-.4 13.4-46.3 14.4-45.5z"/><path id="XMLID_241_" class="st2" d="M223.6 170.3c1.7 1-6.9 47.3-8 47.1-1-.3 6.9-47.8 8-47.1z"/><path id="XMLID_240_" class="st2" d="M226.7 170.8c1.8.7-.3 47.8-1.3 47.7-1.1-.1.1-48.2 1.3-47.7z"/><path id="XMLID_239_" class="st2" d="M229.9 170.9c1.9.5 6.4 47.4 5.3 47.5-1.1-.1-6.6-47.9-5.3-47.5z"/><path id="XMLID_238_" class="st2" d="M233 170.5c1.9.2 12.9 46.1 11.9 46.3-1.1.1-13.2-46.5-11.9-46.3z"/><path id="XMLID_237_" class="st2" d="M236.1 169.7c1.9 0 19.2 43.8 18.2 44.1-1 .4-19.6-44.1-18.2-44.1z"/><path id="XMLID_236_" class="st2" d="M239 168.5c1.9-.3 25.1 40.7 24.2 41.2-1 .4-25.5-41-24.2-41.2z"/><path id="XMLID_235_" class="st2" d="M241.7 166.9c1.8-.6 30.5 36.8 29.7 37.4-.9.6-31-37-29.7-37.4z"/><path id="XMLID_234_" class="st2" d="M244.2 164.9c1.7-.8 35.4 32.2 34.6 32.9s-35.8-32.3-34.6-32.9z"/><path id="XMLID_233_" class="st2" d="M246.3 162.6c1.6-1.1 39.5 27 38.8 27.8-.6.8-39.9-27.1-38.8-27.8z"/><path id="XMLID_232_" class="st2" d="M248.2 160.1c1.5-1.3 42.9 21.2 42.3 22.1-.6.9-43.3-21.3-42.3-22.1z"/><path id="XMLID_231_" class="st2" d="M249.6 157.2c1.3-1.5 45.4 15.1 45 16-.4 1-45.8-15-45-16z"/><path id="XMLID_230_" class="st2" d="M250.7 154.3c1-1.6 47.1 8.6 46.8 9.6-.3 1-47.5-8.5-46.8-9.6z"/><path id="XMLID_229_" class="st2" d="M251.3 151.2c.8-1.7 47.8 2 47.7 3-.2 1-48.2-1.8-47.7-3z"/><path id="XMLID_228_" class="st2" d="M251.5 148c.6-1.8 47.6-4.7 47.6-3.7 0 1.1-48 5-47.6 3.7z"/><path id="XMLID_227_" class="st2" d="M251.3 144.9c.3-1.9 46.5-11.3 46.6-10.2.1 1-46.8 11.5-46.6 10.2z"/><path id="XMLID_226_" class="st2" d="M250.6 141.8c0-1.9 44.5-17.7 44.8-16.6.2 1-44.9 17.9-44.8 16.6z"/><path id="XMLID_225_" class="st2" d="M249.5 138.8c-.2-1.9 41.6-23.7 42-22.7.4 1-41.9 24-42 22.7z"/><path id="XMLID_224_" class="st2" d="M247.9 136.1c-.5-1.9 37.9-29.2 38.4-28.3.6.8-38 29.5-38.4 28.3z"/><path id="XMLID_223_" class="st2" d="M246.1 133.5c-.8-1.8 33.4-34.2 34.1-33.4.7.8-33.6 34.6-34.1 33.4z"/><path id="XMLID_222_" class="st2" d="M243.9 131.3c-1-1.6 28.4-38.5 29.1-37.8.8.6-28.5 38.9-29.1 37.8z"/><path id="XMLID_221_" class="st2" d="M241.3 129.3c-1.2-1.5 22.7-42.1 23.6-41.5.9.6-22.7 42.6-23.6 41.5z"/><path id="XMLID_220_" class="st2" d="M238.6 127.8c-1.4-1.3 16.6-44.9 17.6-44.4.9.5-16.6 45.3-17.6 44.4z"/><path id="XMLID_219_" class="st2" d="M235.7 126.6c-1.6-1.1 10.2-46.7 11.2-46.4 1 .4-10.2 47.2-11.2 46.4z"/><path id="XMLID_218_" class="st2" d="M232.6 125.9c-1.7-.9 3.6-47.7 4.7-47.5s-3.5 48.1-4.7 47.5z"/></g><path id="XMLID_216_" d="M283.3 144.5c0-1.1-19.3-28.4-55.1-28.4s-53 31.7-54.2 34.4c-.4.8 3.5 5.3 11.5 9.8 9.3 7.5 23.8 15.6 43.2 15.6 21.4 0 36.1-11.3 44.8-21 6.4-5.3 9.8-10 9.8-10.4z" fill="#cd942b"/><path id="XMLID_215_" class="st4" d="M228.9 173.1c26.8 0 42.4-18.6 48.1-27.2-4.8 2.6-12.8 9.1-18.6 12.6-6.9 4.2-20.2 6.7-26.6 6.9-6.4.2-16.2.2-27.6-4.3-7.6-3-17.6-7.5-23.8-10 6.2 7.3 22.8 22 48.5 22z"/><path id="XMLID_214_" d="M177.9 150c1.2-2.4 17.2-31.3 50.5-31.3s51.3 24.9 51.3 25.8c0 1-18.3 24.4-52 23.9-33.6-.4-50.6-16.8-49.8-18.4z" fill="#eae8e4"/><path id="XMLID_213_" d="M228.4 118.8c-33.4 0-49.4 28.9-50.5 31.3 3.9-.8 14.1-9.5 21-13.6s20.2-6.7 26.6-6.9c6.4-.2 16.2-.2 27.6 4.3 8.9 3.5 21 9 26.5 11 .1-.1.1-.2.1-.3.1-1-17.9-25.8-51.3-25.8z" fill="#f8bb78"/><path id="XMLID_212_" class="st4" d="M228.4 118.8c-26.8 0-42.4 18.6-48.1 27.2 4.8-2.6 12.8-9.1 18.6-12.6 6.9-4.2 20.2-6.7 26.6-6.9 6.4-.2 16.2-.2 27.6 4.3 7.6 3 17.6 7.5 23.8 10-6.2-7.3-22.8-22-48.5-22z"/><path id="XMLID_211_" d="M207.7 152.4c-2-8.8 3.2-23.8 20.5-23.4 17.3.4 21.4 10.2 22.6 18.6 1.2 8.4-6 20.2-19.5 20.9s-21.6-6.8-23.6-16.1z" fill="#270f10"/><path id="XMLID_210_" d="M246.6 146.5c-.9-6.4-3.5-13.7-12.6-16.9-1.8-.3-3.7-.5-5.9-.6-17.3-.4-22.4 14.6-20.5 23.4 1.5 6.5 5.7 12 12.7 14.6 2 .4 4.2.5 6.6.4 13.6-.7 20.8-12.6 19.7-20.9z" fill="#3a1717"/><path id="XMLID_209_" class="st9" d="M212.4 152.4c-1.9-8.3 2.6-22.1 17.6-23.3-.6 0-1.2-.1-1.9-.1-17.3-.4-22.4 14.6-20.5 23.4 1.5 6.5 5.7 12 12.7 14.6 1.8.3 3.8.5 5.9.4-7.6-2.3-12.3-8.1-13.8-15z"/><path id="XMLID_208_" class="st10" d="M215.4 150.5c-1.2-5.5 2-14.9 12.8-14.7 10.8.3 13.4 6.4 14.1 11.6s-3.8 12.7-12.2 13.1c-8.4.5-13.3-4.2-14.7-10z"/><path id="XMLID_207_" class="st11" d="M231 132.3c1.5-1.7 8.8.7 11.5 3.5 2.7 2.7 5.3 7.1 3.6 7.8-1.1.5-3.8-4-6.6-6.5-4.5-4-9.9-3.1-8.5-4.8z"/><path id="XMLID_206_" class="st11" d="M214.9 158.6c.6-.7 2.9-.6 4.7 1.4 1.8 2 1.8 2.9.6 3.8-1.1.9-7-3.3-5.3-5.2z"/><path id="XMLID_205_" d="M224.6 138.3c.7.2 14.9 8 14.7 8.7-.1.7-13 11-13.7 11.1-.7.1-1.8-20.1-1-19.8z" fill="#fff"/><g><defs><path id="XMLID_31_" d="M5 1.4h500v707.1H5z"/></defs><clipPath id="XMLID_266_"><use xlink:href="#XMLID_31_" overflow="visible"/></clipPath><g clip-path="url(#XMLID_266_)"><path id="XMLID_204_" class="st9" d="M25.7 358.6c8.8-7.4 465.4-1.8 465.4 2.1 0 3.9-1.3 250.1-12.9 250.1s-451.3-.5-454.2-3.4c-2.9-2.9-5.1-243.1 1.7-248.8z"/><path id="XMLID_203_" d="M51.3 379.7c1.4-4.1 402.2-2.7 409.4 4.5 7.2 7.2-2.8 192.7-6.2 196.1-3.4 3.4-396.4-.9-401-2-10.6-2.5-5-190.2-2.2-198.6z" fill="#e2e2e2"/><defs><path id="XMLID_200_" d="M72.4 644s1 23 .3 34.8c-.2 4-15.8 4.1-15.8.4 0-17.2 1-42.1 0-41.1-.8.9 15.5 5.9 15.5 5.9z"/></defs><use xlink:href="#XMLID_200_" overflow="visible" fill="#b82025"/><clipPath id="XMLID_267_"><use xlink:href="#XMLID_200_" overflow="visible"/></clipPath><path id="XMLID_202_" clip-path="url(#XMLID_267_)" fill="#ba3a26" d="M63 647.5v49.9l-9.5-5.4.3-47.2z"/><path id="XMLID_201_" clip-path="url(#XMLID_267_)" fill="#a31d21" d="M68.7 652.6v41.1l7.8-4.4 2.3-36.7z"/><path id="XMLID_199_" class="st17" d="M40.8 628.3c-3.8.1-11.8-2.3-12.8 5.1-1 7.4-.3 23.4 1 24.1 1.3.7 10.8.2 15.2 0 2.7-.2-1.1-29.3-3.4-29.2z"/><path id="XMLID_198_" class="st17" d="M88.2 628.3c3.8.1 11.8-2.3 12.8 5.1 1 7.4.3 23.4-1 24.1-1.3.7-10.8.2-15.2 0-2.8-.2 1.1-29.3 3.4-29.2z"/><path id="XMLID_197_" class="st18" d="M37.4 648.9C35.7 626.6 36 598.7 62 597c38.1-2.4 30 41.7 29.9 55.5 0 6.3-10.4 7.1-28.9 7.1-13.4 0-24.9-1.1-25.6-10.7z"/><path id="XMLID_196_" class="st19" d="M89.2 612c-3.9-9.3-11.8-16-27.2-15-26 1.6-26.3 29.6-24.6 51.8.3 3.6 2 6 4.7 7.6.2-6 1.4-38 5.7-45 4.7-7.7 10.7-7.9 18.9-8.1 9.1-.2 17.8 5.2 22.5 8.7z"/><path id="XMLID_195_" class="st20" d="M54.9 624.9c-1 6.3-1.2 25.6-1.4 34.4 2.9.3 6.2.3 9.5.3 11.8 0 20.3-.3 24.9-2.2.5-10 .3-24.1-.6-30.8-2.1-14.8-30.3-14.1-32.4-1.7z"/><g><defs><path id="XMLID_192_" d="M138.4 644s1 23 .3 34.8c-.2 4-15.8 4.1-15.8.4 0-17.2 1-42.1 0-41.1-.9.9 15.5 5.9 15.5 5.9z"/></defs><use xlink:href="#XMLID_192_" overflow="visible" fill="#b82025"/><clipPath id="XMLID_268_"><use xlink:href="#XMLID_192_" overflow="visible"/></clipPath><path id="XMLID_194_" clip-path="url(#XMLID_268_)" fill="#ba3a26" d="M128.9 647.5v49.9l-9.4-5.4.3-47.2z"/><path id="XMLID_193_" clip-path="url(#XMLID_268_)" fill="#a31d21" d="M134.7 652.6v41.1l7.7-4.4 2.4-36.7z"/><path id="XMLID_191_" class="st17" d="M106.7 628.3c-3.8.1-11.8-2.3-12.8 5.1-1 7.4-.3 23.4 1 24.1 1.3.7 10.8.2 15.2 0 2.8-.2-1-29.3-3.4-29.2z"/><path id="XMLID_190_" class="st17" d="M154.2 628.3c3.8.1 11.8-2.3 12.8 5.1 1 7.4.3 23.4-1 24.1-1.3.7-10.8.2-15.2 0-2.8-.2 1-29.3 3.4-29.2z"/><path id="XMLID_189_" class="st18" d="M103.4 648.9c-1.7-22.2-1.5-50.2 24.6-51.8 38.1-2.4 30 41.7 29.9 55.5 0 6.3-10.4 7.1-28.9 7.1-13.5-.1-24.9-1.2-25.6-10.8z"/><path id="XMLID_188_" class="st19" d="M155.1 612c-3.9-9.2-11.7-15.9-27.2-14.9-26 1.6-26.3 29.6-24.6 51.8.3 3.6 2 6 4.7 7.6.2-6 1.4-38 5.7-45 4.7-7.7 10.7-7.9 18.9-8.1 9.2-.3 17.9 5.1 22.5 8.6z"/><path id="XMLID_187_" class="st20" d="M120.9 624.9c-1 6.3-1.2 25.6-1.4 34.4 2.9.3 6.1.3 9.5.3 11.8 0 20.3-.3 24.9-2.2.5-10 .3-24.1-.6-30.8-2.1-14.8-30.4-14.1-32.4-1.7z"/></g><g><defs><path id="XMLID_184_" d="M203.6 644s1 23 .3 34.8c-.2 4-15.8 4.1-15.8.4 0-17.2 1-42.1 0-41.1-.9.9 15.5 5.9 15.5 5.9z"/></defs><use xlink:href="#XMLID_184_" overflow="visible" fill="#b82025"/><clipPath id="XMLID_269_"><use xlink:href="#XMLID_184_" overflow="visible"/></clipPath><path id="XMLID_186_" clip-path="url(#XMLID_269_)" fill="#ba3a26" d="M194.1 647.5v49.9l-9.4-5.4.2-47.2z"/><path id="XMLID_185_" clip-path="url(#XMLID_269_)" fill="#a31d21" d="M199.9 652.6v41.1l7.7-4.4 2.4-36.7z"/><path id="XMLID_183_" class="st17" d="M171.9 628.3c-3.8.1-11.8-2.3-12.8 5.1-1 7.4-.3 23.4 1 24.1 1.3.7 10.8.2 15.2 0 2.8-.2-1-29.3-3.4-29.2z"/><path id="XMLID_182_" class="st17" d="M219.4 628.3c3.8.1 11.8-2.3 12.8 5.1 1 7.4.3 23.4-1 24.1-1.3.7-10.8.2-15.2 0-2.8-.2 1-29.3 3.4-29.2z"/><path id="XMLID_181_" class="st18" d="M168.5 648.9c-1.7-22.2-1.5-50.2 24.6-51.8 38.1-2.4 30 41.7 29.9 55.5 0 6.3-10.4 7.1-28.9 7.1-13.4-.1-24.8-1.2-25.6-10.8z"/><path id="XMLID_180_" class="st19" d="M220.3 612c-3.9-9.2-11.7-15.9-27.2-14.9-26 1.6-26.3 29.6-24.6 51.8.3 3.6 2 6 4.7 7.6.2-6 1.4-38 5.7-45 4.7-7.7 10.7-7.9 18.9-8.1 9.2-.3 17.8 5.1 22.5 8.6z"/><path id="XMLID_179_" class="st20" d="M186 624.9c-1 6.3-1.2 25.6-1.4 34.4 2.9.3 6.2.3 9.5.3 11.8 0 20.3-.3 24.9-2.2.5-10 .3-24.1-.6-30.8-2-14.8-30.3-14.1-32.4-1.7z"/></g><g><defs><path id="XMLID_176_" d="M268.8 644s1 23 .3 34.8c-.2 4-15.8 4.1-15.8.4 0-17.2 1-42.1 0-41.1-.9.9 15.5 5.9 15.5 5.9z"/></defs><use xlink:href="#XMLID_176_" overflow="visible" fill="#b82025"/><clipPath id="XMLID_270_"><use xlink:href="#XMLID_176_" overflow="visible"/></clipPath><path id="XMLID_178_" clip-path="url(#XMLID_270_)" fill="#ba3a26" d="M259.3 647.5v49.9l-9.5-5.4.3-47.2z"/><path id="XMLID_177_" clip-path="url(#XMLID_270_)" fill="#a31d21" d="M265 652.6v41.1l7.8-4.4 2.4-36.7z"/><path id="XMLID_175_" class="st17" d="M237.1 628.3c-3.8.1-11.8-2.3-12.8 5.1-1 7.4-.3 23.4 1 24.1 1.3.7 10.8.2 15.2 0 2.8-.2-1.1-29.3-3.4-29.2z"/><path id="XMLID_174_" class="st17" d="M284.5 628.3c3.8.1 11.8-2.3 12.8 5.1 1 7.4.3 23.4-1 24.1-1.3.7-10.8.2-15.2 0-2.7-.2 1.1-29.3 3.4-29.2z"/><path id="XMLID_173_" class="st18" d="M233.7 648.9c-1.7-22.2-1.5-50.2 24.6-51.8 38.1-2.4 30 41.7 29.9 55.5 0 6.3-10.4 7.1-28.9 7.1-13.4-.1-24.8-1.2-25.6-10.8z"/><path id="XMLID_172_" class="st19" d="M285.5 612c-3.9-9.2-11.7-15.9-27.2-14.9-26 1.6-26.3 29.6-24.6 51.8.3 3.6 2 6 4.7 7.6.2-6 1.4-38 5.7-45 4.7-7.7 10.7-7.9 18.9-8.1 9.2-.3 17.8 5.1 22.5 8.6z"/><path id="XMLID_171_" class="st20" d="M251.2 624.9c-1 6.3-1.2 25.6-1.4 34.4 2.9.3 6.2.3 9.5.3 11.8 0 20.3-.3 24.9-2.2.5-10 .3-24.1-.6-30.8-2-14.8-30.3-14.1-32.4-1.7z"/></g><g><defs><path id="XMLID_168_" d="M334 644s1 23 .3 34.8c-.2 4-15.8 4.1-15.8.4 0-17.2 1-42.1 0-41.1-.9.9 15.5 5.9 15.5 5.9z"/></defs><use xlink:href="#XMLID_168_" overflow="visible" fill="#b82025"/><clipPath id="XMLID_271_"><use xlink:href="#XMLID_168_" overflow="visible"/></clipPath><path id="XMLID_170_" clip-path="url(#XMLID_271_)" fill="#ba3a26" d="M324.5 647.5v49.9L315 692l.3-47.2z"/><path id="XMLID_169_" clip-path="url(#XMLID_271_)" fill="#a31d21" d="M330.2 652.6v41.1l7.8-4.4 2.3-36.7z"/><path id="XMLID_167_" class="st17" d="M302.3 628.3c-3.8.1-11.8-2.3-12.8 5.1-1 7.4-.3 23.4 1 24.1 1.3.7 10.8.2 15.2 0 2.7-.2-1.1-29.3-3.4-29.2z"/><path id="XMLID_166_" class="st17" d="M349.7 628.3c3.8.1 11.8-2.3 12.8 5.1 1 7.4.3 23.4-1 24.1-1.3.7-10.8.2-15.2 0-2.7-.2 1.1-29.3 3.4-29.2z"/><path id="XMLID_165_" class="st18" d="M298.9 648.9c-1.7-22.2-1.5-50.2 24.6-51.8 38.1-2.4 30 41.7 29.9 55.5 0 6.3-10.4 7.1-28.9 7.1-13.4-.1-24.8-1.2-25.6-10.8z"/><path id="XMLID_164_" class="st19" d="M350.7 612c-3.9-9.2-11.7-15.9-27.2-14.9-26 1.6-26.3 29.6-24.6 51.8.3 3.6 2 6 4.7 7.6.2-6 1.4-38 5.7-45 4.7-7.7 10.7-7.9 18.9-8.1 9.2-.3 17.8 5.1 22.5 8.6z"/><path id="XMLID_163_" class="st20" d="M316.4 624.9c-1 6.3-1.2 25.6-1.4 34.4 2.9.3 6.2.3 9.5.3 11.8 0 20.3-.3 24.9-2.2.5-10 .3-24.1-.6-30.8-2.1-14.8-30.3-14.1-32.4-1.7z"/></g><g><defs><path id="XMLID_160_" d="M399.1 644s1 23 .3 34.8c-.2 4-15.8 4.1-15.8.4 0-17.2 1-42.1 0-41.1-.8.9 15.5 5.9 15.5 5.9z"/></defs><use xlink:href="#XMLID_160_" overflow="visible" fill="#b82025"/><clipPath id="XMLID_272_"><use xlink:href="#XMLID_160_" overflow="visible"/></clipPath><path id="XMLID_162_" clip-path="url(#XMLID_272_)" fill="#ba3a26" d="M389.7 647.5v49.9l-9.5-5.4.3-47.2z"/><path id="XMLID_161_" clip-path="url(#XMLID_272_)" fill="#a31d21" d="M395.4 652.6v41.1l7.8-4.4 2.3-36.7z"/><path id="XMLID_159_" class="st17" d="M367.5 628.3c-3.8.1-11.8-2.3-12.8 5.1-1 7.4-.3 23.4 1 24.1 1.3.7 10.8.2 15.2 0 2.7-.2-1.1-29.3-3.4-29.2z"/><path id="XMLID_158_" class="st17" d="M414.9 628.3c3.8.1 11.8-2.3 12.8 5.1 1 7.4.3 23.4-1 24.1-1.3.7-10.8.2-15.2 0-2.8-.2 1.1-29.3 3.4-29.2z"/><path id="XMLID_157_" class="st18" d="M364.1 648.9c-1.7-22.2-1.5-50.2 24.6-51.8 38.1-2.4 30 41.7 29.9 55.5 0 6.3-10.4 7.1-28.9 7.1-13.4-.1-24.9-1.2-25.6-10.8z"/><path id="XMLID_156_" class="st19" d="M415.9 612c-3.9-9.2-11.7-15.9-27.2-14.9-26 1.6-26.3 29.6-24.6 51.8.3 3.6 2 6 4.7 7.6.2-6 1.4-38 5.7-45 4.7-7.7 10.7-7.9 18.9-8.1 9.1-.3 17.8 5.1 22.5 8.6z"/><path id="XMLID_155_" class="st20" d="M381.6 624.9c-1 6.3-1.2 25.6-1.4 34.4 2.9.3 6.2.3 9.5.3 11.8 0 20.3-.3 24.9-2.2.5-10 .3-24.1-.6-30.8-2.1-14.8-30.3-14.1-32.4-1.7z"/></g><g><defs><path id="XMLID_152_" d="M462 644s1 23 .3 34.8c-.2 4-15.8 4.1-15.8.4 0-17.2 1-42.1 0-41.1-.9.9 15.5 5.9 15.5 5.9z"/></defs><use xlink:href="#XMLID_152_" overflow="visible" fill="#b82025"/><clipPath id="XMLID_273_"><use xlink:href="#XMLID_152_" overflow="visible"/></clipPath><path id="XMLID_154_" clip-path="url(#XMLID_273_)" fill="#ba3a26" d="M452.5 647.5v49.9l-9.4-5.4.3-47.2z"/><path id="XMLID_153_" clip-path="url(#XMLID_273_)" fill="#a31d21" d="M458.3 652.6v41.1l7.7-4.4 2.4-36.7z"/><path id="XMLID_151_" class="st17" d="M433.5 628.3c-3.8.1-11.8-2.3-12.8 5.1-1 7.4-.3 23.4 1 24.1 1.3.7 10.8.2 15.2 0 2.7-.2-1.1-29.3-3.4-29.2z"/><path id="XMLID_150_" class="st17" d="M477.8 628.3c3.8.1 11.8-2.3 12.8 5.1 1 7.4.3 23.4-1 24.1-1.3.7-10.8.2-15.2 0-2.8-.2 1-29.3 3.4-29.2z"/><path id="XMLID_149_" class="st18" d="M427 648.9c-1.7-22.2-1.5-50.2 24.6-51.8 38.1-2.4 30 41.7 29.9 55.5 0 6.3-10.4 7.1-28.9 7.1-13.5-.1-24.9-1.2-25.6-10.8z"/><path id="XMLID_148_" class="st19" d="M478.7 612c-3.9-9.2-11.7-15.9-27.2-14.9-26 1.6-26.3 29.6-24.6 51.8.3 3.6 2 6 4.7 7.6.2-6 1.4-38 5.7-45 4.7-7.7 10.7-7.9 18.9-8.1 9.2-.3 17.9 5.1 22.5 8.6z"/><path id="XMLID_147_" class="st20" d="M444.5 624.9c-1 6.3-1.2 25.6-1.4 34.4 2.9.3 6.2.3 9.5.3 11.8 0 20.3-.3 24.9-2.2.5-10 .3-24.1-.6-30.8-2.1-14.8-30.4-14.1-32.4-1.7z"/></g><g><defs><path id="XMLID_144_" d="M72.4 672.9s1 23 .3 34.8c-.2 4-15.8 4.1-15.8.4 0-17.2 1-42.1 0-41.1-.8.9 15.5 5.9 15.5 5.9z"/></defs><use xlink:href="#XMLID_144_" overflow="visible" fill="#db2a26"/><clipPath id="XMLID_274_"><use xlink:href="#XMLID_144_" overflow="visible"/></clipPath><path id="XMLID_146_" clip-path="url(#XMLID_274_)" fill="#dc5031" d="M63 676.4v49.9l-9.5-5.4.3-47.2z"/><path id="XMLID_145_" clip-path="url(#XMLID_274_)" fill="#c62127" d="M68.7 681.5v41.1l7.8-4.4 2.3-36.7z"/><path id="XMLID_143_" class="st35" d="M40.8 657.2c-3.8.1-11.8-2.3-12.8 5.1-1 7.4-.3 23.4 1 24.1 1.3.7 10.8.2 15.2 0 2.7-.2-1.1-29.3-3.4-29.2z"/><path id="XMLID_142_" class="st35" d="M88.2 657.2c3.8.1 11.8-2.3 12.8 5.1 1 7.4.3 23.4-1 24.1-1.3.7-10.8.2-15.2 0-2.8-.2 1.1-29.3 3.4-29.2z"/><path id="XMLID_141_" class="st36" d="M37.4 677.8c-1.7-22.2-1.5-50.2 24.6-51.8 38.1-2.4 30 41.7 29.9 55.5 0 6.3-10.4 7.1-28.9 7.1-13.4-.1-24.9-1.2-25.6-10.8z"/><path id="XMLID_140_" class="st37" d="M89.2 640.9C85.3 631.7 77.5 625 62 626c-26 1.6-26.3 29.6-24.6 51.8.3 3.6 2 6 4.7 7.6.2-6 1.4-38 5.7-45 4.7-7.7 10.7-7.9 18.9-8.1 9.1-.2 17.8 5.1 22.5 8.6z"/><path id="XMLID_139_" class="st38" d="M54.9 653.8c-1 6.3-1.2 25.6-1.4 34.4 2.9.3 6.2.3 9.5.3 11.8 0 20.3-.3 24.9-2.2.5-10 .3-24.1-.6-30.8-2.1-14.8-30.3-14.1-32.4-1.7z"/><g><defs><path id="XMLID_136_" d="M138.4 672.9s1 23 .3 34.8c-.2 4-15.8 4.1-15.8.4 0-17.2 1-42.1 0-41.1-.9.9 15.5 5.9 15.5 5.9z"/></defs><use xlink:href="#XMLID_136_" overflow="visible" fill="#db2a26"/><clipPath id="XMLID_275_"><use xlink:href="#XMLID_136_" overflow="visible"/></clipPath><path id="XMLID_138_" clip-path="url(#XMLID_275_)" fill="#dc5031" d="M128.9 676.4v49.9l-9.4-5.4.3-47.2z"/><path id="XMLID_137_" clip-path="url(#XMLID_275_)" fill="#c62127" d="M134.7 681.5v41.1l7.7-4.4 2.4-36.7z"/><path id="XMLID_135_" class="st35" d="M106.7 657.2c-3.8.1-11.8-2.3-12.8 5.1-1 7.4-.3 23.4 1 24.1 1.3.7 10.8.2 15.2 0 2.8-.2-1-29.3-3.4-29.2z"/><path id="XMLID_134_" class="st35" d="M154.2 657.2c3.8.1 11.8-2.3 12.8 5.1 1 7.4.3 23.4-1 24.1-1.3.7-10.8.2-15.2 0-2.8-.2 1-29.3 3.4-29.2z"/><path id="XMLID_133_" class="st36" d="M103.4 677.8c-1.7-22.2-1.5-50.2 24.6-51.8 38.1-2.4 30 41.7 29.9 55.5 0 6.3-10.4 7.1-28.9 7.1-13.5-.1-24.9-1.2-25.6-10.8z"/><path id="XMLID_132_" class="st37" d="M155.1 640.9c-3.9-9.2-11.7-15.9-27.2-14.9-26 1.6-26.3 29.6-24.6 51.8.3 3.6 2 6 4.7 7.6.2-6 1.4-38 5.7-45 4.7-7.7 10.7-7.9 18.9-8.1 9.2-.2 17.9 5.1 22.5 8.6z"/><path id="XMLID_131_" class="st38" d="M120.9 653.8c-1 6.3-1.2 25.6-1.4 34.4 2.9.3 6.1.3 9.5.3 11.8 0 20.3-.3 24.9-2.2.5-10 .3-24.1-.6-30.8-2.1-14.8-30.4-14.1-32.4-1.7z"/></g><g><defs><path id="XMLID_128_" d="M203.6 672.9s1 23 .3 34.8c-.2 4-15.8 4.1-15.8.4 0-17.2 1-42.1 0-41.1-.9.9 15.5 5.9 15.5 5.9z"/></defs><use xlink:href="#XMLID_128_" overflow="visible" fill="#db2a26"/><clipPath id="XMLID_276_"><use xlink:href="#XMLID_128_" overflow="visible"/></clipPath><path id="XMLID_130_" clip-path="url(#XMLID_276_)" fill="#dc5031" d="M194.1 676.4v49.9l-9.4-5.4.2-47.2z"/><path id="XMLID_129_" clip-path="url(#XMLID_276_)" fill="#c62127" d="M199.9 681.5v41.1l7.7-4.4 2.4-36.7z"/><path id="XMLID_127_" class="st35" d="M171.9 657.2c-3.8.1-11.8-2.3-12.8 5.1-1 7.4-.3 23.4 1 24.1 1.3.7 10.8.2 15.2 0 2.8-.2-1-29.3-3.4-29.2z"/><path id="XMLID_126_" class="st35" d="M219.4 657.2c3.8.1 11.8-2.3 12.8 5.1 1 7.4.3 23.4-1 24.1-1.3.7-10.8.2-15.2 0-2.8-.2 1-29.3 3.4-29.2z"/><path id="XMLID_125_" class="st36" d="M168.5 677.8c-1.7-22.2-1.5-50.2 24.6-51.8 38.1-2.4 30 41.7 29.9 55.5 0 6.3-10.4 7.1-28.9 7.1-13.4-.1-24.8-1.2-25.6-10.8z"/><path id="XMLID_124_" class="st37" d="M220.3 640.9c-3.9-9.2-11.7-15.9-27.2-14.9-26 1.6-26.3 29.6-24.6 51.8.3 3.6 2 6 4.7 7.6.2-6 1.4-38 5.7-45 4.7-7.7 10.7-7.9 18.9-8.1 9.2-.2 17.8 5.1 22.5 8.6z"/><path id="XMLID_123_" class="st38" d="M186 653.8c-1 6.3-1.2 25.6-1.4 34.4 2.9.3 6.2.3 9.5.3 11.8 0 20.3-.3 24.9-2.2.5-10 .3-24.1-.6-30.8-2-14.8-30.3-14.1-32.4-1.7z"/></g><g><defs><path id="XMLID_120_" d="M268.8 672.9s1 23 .3 34.8c-.2 4-15.8 4.1-15.8.4 0-17.2 1-42.1 0-41.1-.9.9 15.5 5.9 15.5 5.9z"/></defs><use xlink:href="#XMLID_120_" overflow="visible" fill="#db2a26"/><clipPath id="XMLID_277_"><use xlink:href="#XMLID_120_" overflow="visible"/></clipPath><path id="XMLID_122_" clip-path="url(#XMLID_277_)" fill="#dc5031" d="M259.3 676.4v49.9l-9.5-5.4.3-47.2z"/><path id="XMLID_121_" clip-path="url(#XMLID_277_)" fill="#c62127" d="M265 681.5v41.1l7.8-4.4 2.4-36.7z"/><path id="XMLID_119_" class="st35" d="M237.1 657.2c-3.8.1-11.8-2.3-12.8 5.1-1 7.4-.3 23.4 1 24.1 1.3.7 10.8.2 15.2 0 2.8-.2-1.1-29.3-3.4-29.2z"/><path id="XMLID_118_" class="st35" d="M284.5 657.2c3.8.1 11.8-2.3 12.8 5.1 1 7.4.3 23.4-1 24.1-1.3.7-10.8.2-15.2 0-2.7-.2 1.1-29.3 3.4-29.2z"/><path id="XMLID_117_" class="st36" d="M233.7 677.8c-1.7-22.2-1.5-50.2 24.6-51.8 38.1-2.4 30 41.7 29.9 55.5 0 6.3-10.4 7.1-28.9 7.1-13.4-.1-24.8-1.2-25.6-10.8z"/><path id="XMLID_116_" class="st37" d="M285.5 640.9c-3.9-9.2-11.7-15.9-27.2-14.9-26 1.6-26.3 29.6-24.6 51.8.3 3.6 2 6 4.7 7.6.2-6 1.4-38 5.7-45 4.7-7.7 10.7-7.9 18.9-8.1 9.2-.2 17.8 5.1 22.5 8.6z"/><path id="XMLID_115_" class="st38" d="M251.2 653.8c-1 6.3-1.2 25.6-1.4 34.4 2.9.3 6.2.3 9.5.3 11.8 0 20.3-.3 24.9-2.2.5-10 .3-24.1-.6-30.8-2-14.8-30.3-14.1-32.4-1.7z"/></g><g><defs><path id="XMLID_112_" d="M334 672.9s1 23 .3 34.8c-.2 4-15.8 4.1-15.8.4 0-17.2 1-42.1 0-41.1-.9.9 15.5 5.9 15.5 5.9z"/></defs><use xlink:href="#XMLID_112_" overflow="visible" fill="#db2a26"/><clipPath id="XMLID_278_"><use xlink:href="#XMLID_112_" overflow="visible"/></clipPath><path id="XMLID_114_" clip-path="url(#XMLID_278_)" fill="#dc5031" d="M324.5 676.4v49.9l-9.5-5.4.3-47.2z"/><path id="XMLID_113_" clip-path="url(#XMLID_278_)" fill="#c62127" d="M330.2 681.5v41.1l7.8-4.4 2.3-36.7z"/><path id="XMLID_111_" class="st35" d="M302.3 657.2c-3.8.1-11.8-2.3-12.8 5.1-1 7.4-.3 23.4 1 24.1 1.3.7 10.8.2 15.2 0 2.7-.2-1.1-29.3-3.4-29.2z"/><path id="XMLID_110_" class="st35" d="M349.7 657.2c3.8.1 11.8-2.3 12.8 5.1 1 7.4.3 23.4-1 24.1-1.3.7-10.8.2-15.2 0-2.7-.2 1.1-29.3 3.4-29.2z"/><path id="XMLID_109_" class="st36" d="M298.9 677.8c-1.7-22.2-1.5-50.2 24.6-51.8 38.1-2.4 30 41.7 29.9 55.5 0 6.3-10.4 7.1-28.9 7.1-13.4-.1-24.8-1.2-25.6-10.8z"/><path id="XMLID_108_" class="st37" d="M350.7 640.9c-3.9-9.2-11.7-15.9-27.2-14.9-26 1.6-26.3 29.6-24.6 51.8.3 3.6 2 6 4.7 7.6.2-6 1.4-38 5.7-45 4.7-7.7 10.7-7.9 18.9-8.1 9.2-.2 17.8 5.1 22.5 8.6z"/><path id="XMLID_107_" class="st38" d="M316.4 653.8c-1 6.3-1.2 25.6-1.4 34.4 2.9.3 6.2.3 9.5.3 11.8 0 20.3-.3 24.9-2.2.5-10 .3-24.1-.6-30.8-2.1-14.8-30.3-14.1-32.4-1.7z"/></g><g><defs><path id="XMLID_104_" d="M399.1 672.9s1 23 .3 34.8c-.2 4-15.8 4.1-15.8.4 0-17.2 1-42.1 0-41.1-.8.9 15.5 5.9 15.5 5.9z"/></defs><use xlink:href="#XMLID_104_" overflow="visible" fill="#db2a26"/><clipPath id="XMLID_279_"><use xlink:href="#XMLID_104_" overflow="visible"/></clipPath><path id="XMLID_106_" clip-path="url(#XMLID_279_)" fill="#dc5031" d="M389.7 676.4v49.9l-9.5-5.4.3-47.2z"/><path id="XMLID_105_" clip-path="url(#XMLID_279_)" fill="#c62127" d="M395.4 681.5v41.1l7.8-4.4 2.3-36.7z"/><path id="XMLID_103_" class="st35" d="M367.5 657.2c-3.8.1-11.8-2.3-12.8 5.1-1 7.4-.3 23.4 1 24.1 1.3.7 10.8.2 15.2 0 2.7-.2-1.1-29.3-3.4-29.2z"/><path id="XMLID_102_" class="st35" d="M414.9 657.2c3.8.1 11.8-2.3 12.8 5.1 1 7.4.3 23.4-1 24.1-1.3.7-10.8.2-15.2 0-2.8-.2 1.1-29.3 3.4-29.2z"/><path id="XMLID_101_" class="st36" d="M364.1 677.8c-1.7-22.2-1.5-50.2 24.6-51.8 38.1-2.4 30 41.7 29.9 55.5 0 6.3-10.4 7.1-28.9 7.1-13.4-.1-24.9-1.2-25.6-10.8z"/><path id="XMLID_100_" class="st37" d="M415.9 640.9c-3.9-9.2-11.7-15.9-27.2-14.9-26 1.6-26.3 29.6-24.6 51.8.3 3.6 2 6 4.7 7.6.2-6 1.4-38 5.7-45 4.7-7.7 10.7-7.9 18.9-8.1 9.1-.2 17.8 5.1 22.5 8.6z"/><path id="XMLID_99_" class="st38" d="M381.6 653.8c-1 6.3-1.2 25.6-1.4 34.4 2.9.3 6.2.3 9.5.3 11.8 0 20.3-.3 24.9-2.2.5-10 .3-24.1-.6-30.8-2.1-14.8-30.3-14.1-32.4-1.7z"/></g><g><defs><path id="XMLID_96_" d="M462 672.9s1 23 .3 34.8c-.2 4-15.8 4.1-15.8.4 0-17.2 1-42.1 0-41.1-.9.9 15.5 5.9 15.5 5.9z"/></defs><use xlink:href="#XMLID_96_" overflow="visible" fill="#db2a26"/><clipPath id="XMLID_280_"><use xlink:href="#XMLID_96_" overflow="visible"/></clipPath><path id="XMLID_98_" clip-path="url(#XMLID_280_)" fill="#dc5031" d="M452.5 676.4v49.9l-9.4-5.4.3-47.2z"/><path id="XMLID_97_" clip-path="url(#XMLID_280_)" fill="#c62127" d="M458.3 681.5v41.1l7.7-4.4 2.4-36.7z"/><path id="XMLID_95_" class="st35" d="M433.5 657.2c-3.8.1-11.8-2.3-12.8 5.1-1 7.4-.3 23.4 1 24.1 1.3.7 10.8.2 15.2 0 2.7-.2-1.1-29.3-3.4-29.2z"/><path id="XMLID_94_" class="st35" d="M477.8 657.2c3.8.1 11.8-2.3 12.8 5.1 1 7.4.3 23.4-1 24.1-1.3.7-10.8.2-15.2 0-2.8-.2 1-29.3 3.4-29.2z"/><path id="XMLID_93_" class="st36" d="M427 677.8c-1.7-22.2-1.5-50.2 24.6-51.8 38.1-2.4 30 41.7 29.9 55.5 0 6.3-10.4 7.1-28.9 7.1-13.5-.1-24.9-1.2-25.6-10.8z"/><path id="XMLID_92_" class="st37" d="M478.7 640.9c-3.9-9.2-11.7-15.9-27.2-14.9-26 1.6-26.3 29.6-24.6 51.8.3 3.6 2 6 4.7 7.6.2-6 1.4-38 5.7-45 4.7-7.7 10.7-7.9 18.9-8.1 9.2-.2 17.9 5.1 22.5 8.6z"/><path id="XMLID_91_" class="st38" d="M444.5 653.8c-1 6.3-1.2 25.6-1.4 34.4 2.9.3 6.2.3 9.5.3 11.8 0 20.3-.3 24.9-2.2.5-10 .3-24.1-.6-30.8-2.1-14.8-30.4-14.1-32.4-1.7z"/></g></g><g><defs><path id="XMLID_88_" d="M70.7 700.5s1 23 .3 34.8c-.2 4-15.8 4.1-15.8.4 0-17.2 1-42.1 0-41.1-.9.9 15.5 5.9 15.5 5.9z"/></defs><use xlink:href="#XMLID_88_" overflow="visible" fill="#ee3725"/><clipPath id="XMLID_281_"><use xlink:href="#XMLID_88_" overflow="visible"/></clipPath><path id="XMLID_90_" clip-path="url(#XMLID_281_)" fill="#f15c3e" d="M61.2 704v49.8l-9.5-5.3.3-47.2z"/><path id="XMLID_89_" clip-path="url(#XMLID_281_)" fill="#e81d25" d="M66.9 709v41.1l7.8-4.3L77 709z"/><path id="XMLID_87_" class="st53" d="M39 684.8c-3.8.1-11.8-2.3-12.8 5.1-1 7.4-.3 23.4 1 24.1 1.3.7 10.8.2 15.2 0 2.7-.2-1.1-29.3-3.4-29.2z"/><path id="XMLID_86_" class="st53" d="M86.4 684.8c3.8.1 11.8-2.3 12.8 5.1 1 7.4.3 23.4-1 24.1-1.3.7-10.8.2-15.2 0-2.7-.2 1.1-29.3 3.4-29.2z"/><path id="XMLID_85_" class="st54" d="M35.6 705.3c-1.7-22.2-1.5-50.2 24.6-51.8 38.1-2.4 30 41.7 29.9 55.5 0 6.3-10.4 7.1-28.9 7.1-13.4 0-24.9-1.1-25.6-10.8z"/><path id="XMLID_84_" class="st0" d="M87.4 668.4c-3.9-9.2-11.7-15.9-27.2-14.9-26 1.6-26.3 29.6-24.6 51.8.3 3.6 2 6 4.7 7.6.2-6 1.4-38 5.7-45 4.7-7.7 10.7-7.9 18.9-8.1 9.2-.2 17.8 5.2 22.5 8.6z"/><path id="XMLID_83_" class="st55" d="M53.1 681.4c-1 6.3-1.2 25.6-1.4 34.4 2.9.3 6.2.3 9.5.3 11.8 0 20.3-.3 24.9-2.2.5-10 .3-24.1-.6-30.8-2.1-14.8-30.3-14.1-32.4-1.7z"/><g><defs><path id="XMLID_80_" d="M136.6 700.5s1 23 .3 34.8c-.2 4-15.8 4.1-15.8.4 0-17.2 1-42.1 0-41.1-.9.9 15.5 5.9 15.5 5.9z"/></defs><use xlink:href="#XMLID_80_" overflow="visible" fill="#ee3725"/><clipPath id="XMLID_282_"><use xlink:href="#XMLID_80_" overflow="visible"/></clipPath><path id="XMLID_82_" clip-path="url(#XMLID_282_)" fill="#f15c3e" d="M127.1 704v49.8l-9.4-5.3.3-47.2z"/><path id="XMLID_81_" clip-path="url(#XMLID_282_)" fill="#e81d25" d="M132.9 709v41.1l7.7-4.3L143 709z"/><path id="XMLID_79_" class="st53" d="M104.9 684.8c-3.8.1-11.8-2.3-12.8 5.1-1 7.4-.3 23.4 1 24.1 1.3.7 10.8.2 15.2 0 2.8-.2-1-29.3-3.4-29.2z"/><path id="XMLID_78_" class="st53" d="M152.4 684.8c3.8.1 11.8-2.3 12.8 5.1 1 7.4.3 23.4-1 24.1-1.3.7-10.8.2-15.2 0-2.8-.2 1-29.3 3.4-29.2z"/><path id="XMLID_77_" class="st54" d="M101.6 705.3c-1.7-22.2-1.5-50.2 24.6-51.8 38.1-2.4 30 41.7 29.9 55.5 0 6.3-10.4 7.1-28.9 7.1-13.5 0-24.9-1.1-25.6-10.8z"/><path id="XMLID_76_" class="st0" d="M153.3 668.4c-3.9-9.2-11.7-15.9-27.2-14.9-26 1.6-26.3 29.6-24.6 51.8.3 3.6 2 6 4.7 7.6.2-6 1.4-38 5.7-45 4.7-7.7 10.7-7.9 18.9-8.1 9.2-.2 17.9 5.2 22.5 8.6z"/><path id="XMLID_75_" class="st55" d="M119.1 681.4c-1 6.3-1.2 25.6-1.4 34.4 2.9.3 6.2.3 9.5.3 11.8 0 20.3-.3 24.9-2.2.5-10 .3-24.1-.6-30.8-2.1-14.8-30.4-14.1-32.4-1.7z"/></g><g><defs><path id="XMLID_72_" d="M201.8 700.5s1 23 .3 34.8c-.2 4-15.8 4.1-15.8.4 0-17.2 1-42.1 0-41.1-.9.9 15.5 5.9 15.5 5.9z"/></defs><use xlink:href="#XMLID_72_" overflow="visible" fill="#ee3725"/><clipPath id="XMLID_283_"><use xlink:href="#XMLID_72_" overflow="visible"/></clipPath><path id="XMLID_74_" clip-path="url(#XMLID_283_)" fill="#f15c3e" d="M192.3 704v49.8l-9.4-5.3.3-47.2z"/><path id="XMLID_73_" clip-path="url(#XMLID_283_)" fill="#e81d25" d="M198.1 709v41.1l7.7-4.3 2.4-36.8z"/><path id="XMLID_71_" class="st53" d="M170.1 684.8c-3.8.1-11.8-2.3-12.8 5.1-1 7.4-.3 23.4 1 24.1 1.3.7 10.8.2 15.2 0 2.8-.2-1-29.3-3.4-29.2z"/><path id="XMLID_70_" class="st53" d="M217.6 684.8c3.8.1 11.8-2.3 12.8 5.1 1 7.4.3 23.4-1 24.1-1.3.7-10.8.2-15.2 0-2.8-.2 1-29.3 3.4-29.2z"/><path id="XMLID_69_" class="st54" d="M166.8 705.3c-1.7-22.2-1.5-50.2 24.6-51.8 38.1-2.4 30 41.7 29.9 55.5 0 6.3-10.4 7.1-28.9 7.1-13.5 0-24.9-1.1-25.6-10.8z"/><path id="XMLID_68_" class="st0" d="M218.5 668.4c-3.9-9.2-11.7-15.9-27.2-14.9-26 1.6-26.3 29.6-24.6 51.8.3 3.6 2 6 4.7 7.6.2-6 1.4-38 5.7-45 4.7-7.7 10.7-7.9 18.9-8.1 9.2-.2 17.8 5.2 22.5 8.6z"/><path id="XMLID_67_" class="st55" d="M184.3 681.4c-1 6.3-1.2 25.6-1.4 34.4 2.9.3 6.1.3 9.5.3 11.8 0 20.3-.3 24.9-2.2.5-10 .3-24.1-.6-30.8-2.1-14.8-30.4-14.1-32.4-1.7z"/></g><g><defs><path id="XMLID_64_" d="M267 700.5s1 23 .3 34.8c-.2 4-15.8 4.1-15.8.4 0-17.2 1-42.1 0-41.1-.9.9 15.5 5.9 15.5 5.9z"/></defs><use xlink:href="#XMLID_64_" overflow="visible" fill="#ee3725"/><clipPath id="XMLID_284_"><use xlink:href="#XMLID_64_" overflow="visible"/></clipPath><path id="XMLID_66_" clip-path="url(#XMLID_284_)" fill="#f15c3e" d="M257.5 704v49.8l-9.4-5.3.2-47.2z"/><path id="XMLID_65_" clip-path="url(#XMLID_284_)" fill="#e81d25" d="M263.3 709v41.1l7.7-4.3 2.4-36.8z"/><path id="XMLID_63_" class="st53" d="M235.3 684.8c-3.8.1-11.8-2.3-12.8 5.1-1 7.4-.3 23.4 1 24.1 1.3.7 10.8.2 15.2 0 2.8-.2-1-29.3-3.4-29.2z"/><path id="XMLID_62_" class="st53" d="M282.7 684.8c3.8.1 11.8-2.3 12.8 5.1 1 7.4.3 23.4-1 24.1-1.3.7-10.8.2-15.2 0-2.7-.2 1.1-29.3 3.4-29.2z"/><path id="XMLID_61_" class="st54" d="M231.9 705.3c-1.7-22.2-1.5-50.2 24.6-51.8 38.1-2.4 30 41.7 29.9 55.5 0 6.3-10.4 7.1-28.9 7.1-13.4 0-24.8-1.1-25.6-10.8z"/><path id="XMLID_60_" class="st0" d="M283.7 668.4c-3.9-9.2-11.7-15.9-27.2-14.9-26 1.6-26.3 29.6-24.6 51.8.3 3.6 2 6 4.7 7.6.2-6 1.4-38 5.7-45 4.7-7.7 10.7-7.9 18.9-8.1 9.2-.2 17.8 5.2 22.5 8.6z"/><path id="XMLID_59_" class="st55" d="M249.4 681.4c-1 6.3-1.2 25.6-1.4 34.4 2.9.3 6.2.3 9.5.3 11.8 0 20.3-.3 24.9-2.2.5-10 .3-24.1-.6-30.8-2-14.8-30.3-14.1-32.4-1.7z"/></g><g><defs><path id="XMLID_56_" d="M332.2 700.5s1 23 .3 34.8c-.2 4-15.8 4.1-15.8.4 0-17.2 1-42.1 0-41.1-.9.9 15.5 5.9 15.5 5.9z"/></defs><use xlink:href="#XMLID_56_" overflow="visible" fill="#ee3725"/><clipPath id="XMLID_285_"><use xlink:href="#XMLID_56_" overflow="visible"/></clipPath><path id="XMLID_58_" clip-path="url(#XMLID_285_)" fill="#f15c3e" d="M322.7 704v49.8l-9.5-5.3.3-47.2z"/><path id="XMLID_57_" clip-path="url(#XMLID_285_)" fill="#e81d25" d="M328.4 709v41.1l7.8-4.3 2.4-36.8z"/><path id="XMLID_55_" class="st53" d="M300.5 684.8c-3.8.1-11.8-2.3-12.8 5.1-1 7.4-.3 23.4 1 24.1 1.3.7 10.8.2 15.2 0 2.8-.2-1.1-29.3-3.4-29.2z"/><path id="XMLID_54_" class="st53" d="M347.9 684.8c3.8.1 11.8-2.3 12.8 5.1 1 7.4.3 23.4-1 24.1-1.3.7-10.8.2-15.2 0-2.7-.2 1.1-29.3 3.4-29.2z"/><path id="XMLID_53_" class="st54" d="M297.1 705.3c-1.7-22.2-1.5-50.2 24.6-51.8 38.1-2.4 30 41.7 29.9 55.5 0 6.3-10.4 7.1-28.9 7.1-13.4 0-24.8-1.1-25.6-10.8z"/><path id="XMLID_52_" class="st0" d="M348.9 668.4c-3.9-9.2-11.7-15.9-27.2-14.9-26 1.6-26.3 29.6-24.6 51.8.3 3.6 2 6 4.7 7.6.2-6 1.4-38 5.7-45 4.7-7.7 10.7-7.9 18.9-8.1 9.2-.2 17.8 5.2 22.5 8.6z"/><path id="XMLID_51_" class="st55" d="M314.6 681.4c-1 6.3-1.2 25.6-1.4 34.4 2.9.3 6.2.3 9.5.3 11.8 0 20.3-.3 24.9-2.2.5-10 .3-24.1-.6-30.8-2-14.8-30.3-14.1-32.4-1.7z"/></g><g><defs><path id="XMLID_48_" d="M397.4 700.5s1 23 .3 34.8c-.2 4-15.8 4.1-15.8.4 0-17.2 1-42.1 0-41.1-.9.9 15.5 5.9 15.5 5.9z"/></defs><use xlink:href="#XMLID_48_" overflow="visible" fill="#ee3725"/><clipPath id="XMLID_286_"><use xlink:href="#XMLID_48_" overflow="visible"/></clipPath><path id="XMLID_50_" clip-path="url(#XMLID_286_)" fill="#f15c3e" d="M387.9 704v49.8l-9.5-5.3.3-47.2z"/><path id="XMLID_49_" clip-path="url(#XMLID_286_)" fill="#e81d25" d="M393.6 709v41.1l7.8-4.3 2.3-36.8z"/><path id="XMLID_47_" class="st53" d="M365.7 684.8c-3.8.1-11.8-2.3-12.8 5.1-1 7.4-.3 23.4 1 24.1 1.3.7 10.8.2 15.2 0 2.7-.2-1.1-29.3-3.4-29.2z"/><path id="XMLID_46_" class="st53" d="M413.1 684.8c3.8.1 11.8-2.3 12.8 5.1 1 7.4.3 23.4-1 24.1-1.3.7-10.8.2-15.2 0-2.7-.2 1.1-29.3 3.4-29.2z"/><path id="XMLID_45_" class="st54" d="M362.3 705.3c-1.7-22.2-1.5-50.2 24.6-51.8 38.1-2.4 30 41.7 29.9 55.5 0 6.3-10.4 7.1-28.9 7.1-13.4 0-24.9-1.1-25.6-10.8z"/><path id="XMLID_44_" class="st0" d="M414.1 668.4c-3.9-9.2-11.7-15.9-27.2-14.9-26 1.6-26.3 29.6-24.6 51.8.3 3.6 2 6 4.7 7.6.2-6 1.4-38 5.7-45 4.7-7.7 10.7-7.9 18.9-8.1 9.1-.2 17.8 5.2 22.5 8.6z"/><path id="XMLID_43_" class="st55" d="M379.8 681.4c-1 6.3-1.2 25.6-1.4 34.4 2.9.3 6.2.3 9.5.3 11.8 0 20.3-.3 24.9-2.2.5-10 .3-24.1-.6-30.8-2.1-14.8-30.3-14.1-32.4-1.7z"/></g><g><defs><path id="XMLID_40_" d="M460.2 700.5s1 23 .3 34.8c-.2 4-15.8 4.1-15.8.4 0-17.2 1-42.1 0-41.1-.9.9 15.5 5.9 15.5 5.9z"/></defs><use xlink:href="#XMLID_40_" overflow="visible" fill="#ee3725"/><clipPath id="XMLID_287_"><use xlink:href="#XMLID_40_" overflow="visible"/></clipPath><path id="XMLID_42_" clip-path="url(#XMLID_287_)" fill="#f15c3e" d="M450.8 704v49.8l-9.5-5.3.3-47.2z"/><path id="XMLID_41_" clip-path="url(#XMLID_287_)" fill="#e81d25" d="M456.5 709v41.1l7.7-4.3 2.4-36.8z"/><path id="XMLID_39_" class="st53" d="M431.7 684.8c-3.8.1-11.8-2.3-12.8 5.1-1 7.4-.3 23.4 1 24.1 1.3.7 10.8.2 15.2 0 2.8-.2-1.1-29.3-3.4-29.2z"/><path id="XMLID_38_" class="st53" d="M476 684.8c3.8.1 11.8-2.3 12.8 5.1 1 7.4.3 23.4-1 24.1-1.3.7-10.8.2-15.2 0-2.8-.2 1-29.3 3.4-29.2z"/><path id="XMLID_37_" class="st54" d="M425.2 705.3c-1.7-22.2-1.5-50.2 24.6-51.8 38.1-2.4 30 41.7 29.9 55.5 0 6.3-10.4 7.1-28.9 7.1-13.5 0-24.9-1.1-25.6-10.8z"/><path id="XMLID_36_" class="st0" d="M476.9 668.4c-3.9-9.2-11.7-15.9-27.2-14.9-26 1.6-26.3 29.6-24.6 51.8.3 3.6 2 6 4.7 7.6.2-6 1.4-38 5.7-45 4.7-7.7 10.7-7.9 18.9-8.1 9.2-.2 17.9 5.2 22.5 8.6z"/><path id="XMLID_35_" class="st55" d="M442.7 681.4c-1 6.3-1.2 25.6-1.4 34.4 2.9.3 6.2.3 9.5.3 11.8 0 20.3-.3 24.9-2.2.5-10 .3-24.1-.6-30.8-2.1-14.8-30.3-14.1-32.4-1.7z"/></g></g><path id="XMLID_34_" d="M105.5 399.8C94 409.4 80.1 466.5 82 507.6c1.9 41.1 12.3 61.3 177.2 61.3 164.9 0 181.6-11.5 182-84.6.4-73.1 3.9-88.6-115-89.9-118.9-1.4-199.8-12.2-220.7 5.4z" fill="#e8e8e8"/><path id="XMLID_33_" d="M127.1 465.8c5.7-23.1 12.3-46.5 91.4-47.2 79.1-.7 160.2-2 177.2 19.5 17 21.6 16.2 70.2-4.3 89.7s-204.1 6-225.8 7.3c-21.7 1.4-51.9-14.7-38.5-69.3z" fill="#ededed"/><path id="XMLID_32_" d="M182.9 447.6c13.1-8.9 143.3-10.1 160.7 7.1 17.3 17.2 12.4 57.6-9.1 63.7-21.4 6.1-127.1 14.1-146.4 3.4-19.2-10.9-14.5-67.9-5.2-74.2z" fill="#f3f3f3"/></g></g><g><path class="st0" d="M193.6 453.7h15.2v7.6h-24.3V423h9.1v30.7zM240.8 430.3h-18.2v7.9h14.3v7.2h-14.3v8.4h18.2v7.6h-27.4V423h27.4v7.3zM270.4 423v7.6h-9.5v30.7h-9.1v-30.7h-9.5V423h28.1zM273.7 438.6l3.9-7.6h-3.9v-8h8.2v7l-5.1 8.6h-3.1zM315.5 431.4l-7.6 2.6c-1-3-3.2-4.5-6.5-4.5-3.5 0-5.3 1.2-5.3 3.5 0 .9.3 1.7 1 2.3.7.6 2.2 1.2 4.5 1.7 3.9.8 6.8 1.6 8.6 2.4 1.8.8 3.3 2.1 4.6 3.9 1.2 1.8 1.9 3.8 1.9 6 0 3.5-1.3 6.5-4 9s-6.6 3.8-11.8 3.8c-3.9 0-7.3-.9-10-2.7-2.8-1.8-4.6-4.4-5.5-8l8.3-1.9c.9 3.6 3.5 5.4 7.8 5.4 2.1 0 3.6-.4 4.6-1.2 1-.8 1.5-1.7 1.5-2.8 0-1.1-.5-2-1.4-2.6-.9-.6-2.7-1.2-5.3-1.7-4.9-1-8.3-2.4-10.4-4.1-2.1-1.7-3.1-4.3-3.1-7.7 0-3.4 1.2-6.3 3.7-8.6s5.8-3.5 10.1-3.5c7.3-.3 12.2 2.7 14.3 8.7zM189.1 481.3L176 533.6h-12l-8.6-34.6-8.3 34.6h-12l-13.5-52.3h12.5l7.2 31.9c0 .2.2.7.4 1.7.1.4.2.9.4 1.6l8.6-35.2H162l8.8 35.2c.2-.7.4-1.8.8-3.3l7.4-31.9h10.1zM218.3 481.3l16.4 52.3h-13.2l-3.2-10.8h-16.9l-3.3 10.8h-10.8l16.8-52.3h14.2zm-14 31.9h11.1l-5.5-18.4-5.6 18.4zM269.5 481.3v10.4h-13v42h-12.4v-42h-13v-10.4h38.4zM316.7 500.7l-12.8.8c-.2-7.4-3.1-11.1-8.6-11.1-6.4 0-9.6 5.7-9.6 17.1 0 6.6.9 11 2.6 13.4 1.7 2.3 4.2 3.5 7.3 3.5 5.1 0 8.2-3.3 9.3-9.9l11.9.7c-.8 6.3-3.1 11-7 14.3-3.9 3.3-8.7 4.9-14.3 4.9-6.9 0-12.6-2.4-16.9-7.2-4.3-4.8-6.5-11.4-6.5-19.8 0-7.9 2.1-14.4 6.3-19.4 4.2-5 9.9-7.6 17.2-7.6 12.4.1 19.5 6.8 21.1 20.3zM364.2 481.3v52.3h-12V512h-16.3v21.6h-12v-52.3h12v20.4h16.3v-20.4h12zM377.5 518l-3.8-36.7h14.7l-3.8 36.7h-7.1zm-2.5 15.6v-12.1h12v12.1h-12z"/></g><g><path class="st10" d="M156.3 154.5h-25.2v-47.3c0-6.7-.2-11-.6-13-.4-2-1.4-3.7-3.1-5-1.7-1.3-4-2-6.9-2-2.8 0-5.6 1-8.5 3-2.9 2-4.3 7.6-4.3 17v47.3H82.6v-47.3c0-6.8-.3-11.2-.9-13.2-.6-2-1.8-3.6-3.5-4.9-1.7-1.2-3.9-1.9-6.6-1.9-4.3 0-7.6 1.4-9.7 4.1-2.1 2.7-3.2 8-3.2 15.9v47.3H34.3V69.1H58v13c4-9.9 12-14.8 24.1-14.8 10.9 0 18.8 4.9 23.6 14.8 4.7-9.9 13-14.8 24.8-14.8 5.6 0 10.5 1.2 14.5 3.5 4.1 2.3 7 5.3 8.7 9 1.7 3.7 2.6 10.1 2.6 19.2v55.5z"/></g><g><path class="st10" d="M328.2 294.7h-6.5v-12.2c0-1.7 0-2.8-.2-3.3-.1-.5-.4-.9-.8-1.3-.4-.3-1-.5-1.8-.5-.7 0-1.4.3-2.2.8-.7.5-1.1 2-1.1 4.4v12.2h-6.5v-12.2c0-1.8-.1-2.9-.2-3.4-.2-.5-.5-.9-.9-1.3-.4-.3-1-.5-1.7-.5-1.1 0-2 .4-2.5 1.1-.5.7-.8 2.1-.8 4.1v12.2h-6.3v-22h6.1v3.4c1-2.5 3.1-3.8 6.2-3.8 2.8 0 4.8 1.3 6.1 3.8 1.2-2.5 3.4-3.8 6.4-3.8 1.5 0 2.7.3 3.8.9 1 .6 1.8 1.4 2.2 2.3.5 1 .7 2.6.7 5v14.1zM352.7 294.7h-6.3c-.2-.9-.3-2-.3-3.4-1.1 1.6-2.2 2.6-3.3 3.1-1.1.5-2.3.8-3.7.8-2.1 0-3.7-.6-5-1.7-1.3-1.1-1.9-2.6-1.9-4.5 0-1.4.4-2.7 1.1-3.8.7-1.2 1.9-2.1 3.6-2.7 1.6-.7 4.6-1.2 9-1.5v-1.3c0-2.1-1.1-3.2-3.2-3.2-2.3 0-3.5 1.1-3.8 3.2l-6-.6c.4-2.5 1.6-4.3 3.6-5.3s4.2-1.6 6.7-1.6c1.5 0 2.9.2 4.2.5 1.3.3 2.4.9 3.1 1.6.7.7 1.2 1.4 1.5 2.2.3.8.4 2.1.4 4.1v10c-.1 1.9 0 3.2.3 4.1zm-6.9-10.6c-4.5.5-6.8 1.8-6.8 4.1 0 .8.2 1.4.7 2 .5.6 1.2.8 2 .8 1.1 0 2.1-.5 2.9-1.4.8-1 1.2-2.1 1.2-3.5v-2zM363.7 294.7h-6.3v-22h6v4.1c.9-3.1 2.5-4.6 4.8-4.6.3 0 .7 0 1.2.1v6.4c-1.3 0-2.4.2-3.1.6-.7.4-1.3 1.1-1.8 2.2s-.7 2.5-.7 4.3v8.9zM392.1 294.7h-6.3c-.2-.9-.3-2-.3-3.4-1.1 1.6-2.2 2.6-3.3 3.1-1.1.5-2.3.8-3.7.8-2.1 0-3.7-.6-5-1.7-1.3-1.1-1.9-2.6-1.9-4.5 0-1.4.4-2.7 1.1-3.8.7-1.2 1.9-2.1 3.6-2.7 1.6-.7 4.6-1.2 9-1.5v-1.3c0-2.1-1.1-3.2-3.2-3.2-2.3 0-3.5 1.1-3.8 3.2l-6-.6c.4-2.5 1.6-4.3 3.6-5.3s4.2-1.6 6.7-1.6c1.5 0 2.9.2 4.2.5 1.3.3 2.4.9 3.1 1.6.7.7 1.2 1.4 1.5 2.2.3.8.4 2.1.4 4.1v10c-.1 1.9 0 3.2.3 4.1zm-6.9-10.6c-4.5.5-6.8 1.8-6.8 4.1 0 .8.2 1.4.7 2 .5.6 1.2.8 2 .8 1.1 0 2.1-.5 2.9-1.4.8-1 1.2-2.1 1.2-3.5v-2zM404.4 277.7v9.3c0 1.2.2 1.9.5 2.3.3.4 1.2.6 2.5.6.6 0 1.3 0 2.1-.1v4.8c-1.9.3-3.3.5-4.1.5-2.7 0-4.6-.5-5.8-1.6-1.1-1-1.7-2.9-1.7-5.6v-10.3h-3.5v-5.1h3.9l.5-6.5 5.6-.4v6.9h4.7v5.1h-4.7zM419.5 264.9v10.7c1.2-2.3 3.2-3.5 6-3.5 1.5 0 2.8.3 3.8 1 1.1.6 1.8 1.5 2.2 2.5.4 1 .6 2.5.6 4.5v14.6h-6.5v-12.4c0-1.5-.1-2.5-.2-3.1-.1-.6-.4-1-.8-1.4-.4-.4-.9-.6-1.6-.6-.8 0-1.6.3-2.4 1-.8.6-1.2 2-1.2 4.1v12.4h-6.3v-29.8h6.4zM446.5 272.2c3.4 0 6 1.1 7.9 3.3 1.9 2.2 2.8 4.9 2.8 8.2 0 3.3-1 6-2.9 8.1-2 2.2-4.6 3.3-7.8 3.3-3.1 0-5.7-1.1-7.5-3.2-1.9-2.2-2.8-4.9-2.8-8.3 0-2.3.4-4.3 1.3-6 .9-1.6 2-3 3.5-4 1.4-.9 3.2-1.4 5.5-1.4zm.2 4.2c-1.2 0-2.2.5-2.8 1.4-.6 1-.9 2.8-.9 5.7 0 2.6.3 4.5.9 5.6.6 1.1 1.5 1.7 2.8 1.7 1.1 0 2-.5 2.7-1.4.7-1 1-2.8 1-5.5 0-2.9-.3-4.9-.9-5.9-.7-1-1.6-1.6-2.8-1.6zM480.4 294.7h-6.5v-12.4c0-1.5-.1-2.5-.2-3.1-.1-.6-.4-1-.9-1.4-.5-.4-1-.6-1.7-.6-2.3 0-3.4 1.7-3.4 5.1v12.4h-6.5v-22h6v3.7c1-1.8 2-2.9 3-3.4s2-.8 3.2-.8c2.1 0 3.8.6 5.1 1.7 1.3 1.1 1.9 3.3 1.9 6.6v14.2z"/></g><g><path class="st10" d="M334.4 175.7l-15.7 45.9h-10.5l-15.8-45.9h14.1l8.9 29.1 9.1-29.1h9.9z"/></g><g><path class="st10" d="M478.4 185.8h-46c0 1.3-.1 2.4-.1 3.3 0 5.1 1.4 8.9 4.1 11.5 2.7 2.6 5.9 3.9 9.7 3.9 7 0 11.2-3.7 12.7-11.2l19.1 1.4c-5.3 16.5-16.1 24.7-32.5 24.7-7.1 0-13.2-1.4-18.1-4.3-5-2.9-9.1-7-12.3-12.5-3.2-5.5-4.8-12-4.8-19.7 0-11.4 3.2-20.5 9.7-27.5 6.5-7 14.8-10.5 25-10.5 9.2 0 17.1 3.2 23.6 9.7 6.7 6.7 9.9 17 9.9 31.2zm-46-12.3h25.4c-.7-9.8-4.7-14.7-12.1-14.7-7.9 0-12.3 4.9-13.3 14.7z"/></g><g><path class="st10" d="M397.9 30.5v32.9H365V30.5h32.9zm0 42.3v111.4H365V72.8h32.9z"/></g></svg>