<svg version="1.1" id="Layer_1" xmlns="http://www.w3.org/2000/svg" xmlns:xlink="http://www.w3.org/1999/xlink" x="0" y="0" width="510" height="710" xml:space="preserve"><style>.st0{opacity:.38;clip-path:url(#XMLID_788_)}.st1{fill:#eaf4f3}.st9{fill:#b2742a}.st10{fill:#a26628}.st11{fill:#a71e22}.st12{fill:#961a1e}.st14{fill:#fff}</style><defs><path id="XMLID_762_" d="M5 1.4h500v707.1H5z"/></defs><radialGradient id="XMLID_787_" cx="219.429" cy="391.143" r="403.296" gradientUnits="userSpaceOnUse"><stop offset="0" stop-color="#8ad1f4"/><stop offset="1" stop-color="#367ca6"/></radialGradient><use xlink:href="#XMLID_762_" overflow="visible" fill="url(#XMLID_787_)"/><clipPath id="XMLID_788_"><use xlink:href="#XMLID_762_" overflow="visible"/></clipPath><g class="st0"><path id="XMLID_785_" class="st1" d="M184.8 317.4H181c-1.7-12.3-12.2-21.7-25-21.7-12.7 0-23.3 9.5-25 21.7h-3.8c-14 0-25.4 11.4-25.4 25.4 0 14 11.4 25.4 25.4 25.4h57.4c14 0 25.4-11.4 25.4-25.4.2-14-11.2-25.4-25.2-25.4z"/></g><g class="st0"><path id="XMLID_784_" class="st1" d="M535.4 82.5h-3.8c-1.7-12.3-12.2-21.7-25-21.7-12.7 0-23.3 9.5-25 21.7H478c-14 0-25.4 11.4-25.4 25.4 0 14 11.4 25.4 25.4 25.4h57.4c14 0 25.4-11.4 25.4-25.4 0-14.1-11.4-25.4-25.4-25.4z"/></g><g class="st0"><path id="XMLID_783_" class="st1" d="M407.1 616.9h-5.7c-2.6-18.6-18.5-33-37.8-33-19.3 0-35.3 14.3-37.8 33H320c-21.2 0-38.4 17.2-38.4 38.4s17.2 38.4 38.4 38.4h87c21.2 0 38.4-17.2 38.4-38.4.1-21.2-17.1-38.4-38.3-38.4z"/></g><g class="st0"><path id="XMLID_782_" class="st1" d="M137.7 670.3h-4c-1.8-13.1-13-23.1-26.5-23.1-13.6 0-24.7 10.1-26.5 23.1h-4c-14.9 0-27 12.1-27 27s12.1 27 27 27h61.1c14.9 0 27-12.1 27-27-.2-14.9-12.2-27-27.1-27z"/></g><g clip-path="url(#XMLID_788_)"><path id="XMLID_781_" d="M-39.5 342c7.2 3.2 52.2 27.9 132.2 7.8 80-20.1 120.5-46.5 126.8-45.6 6.3.9 33.2 127.3 49 210.9 15.9 83.6-1.1 152.3-79.3 173.8-78.3 21.5-168-2.4-204.5-170.5C-51.8 350.1-53.6 335.7-39.5 342z" fill="#ffc655"/><path id="XMLID_780_" d="M244.2 296.6c4.9-1.8 53.4 19.9 137.1 5.6 83.7-14.3 141.5-46.4 140.8-33.9-.6 12.5 67.3 318-40.7 355.7-82.3 28.7-171.9 4.3-202.1-136.6-30.3-141-53.6-184-35.1-190.8z" fill="#ee3224"/><path id="XMLID_779_" d="M-24.6 348.2c-8.5-.6-16-1.7-22.7-3-2.3 12.2 6.2 54.2 32 173.1 21.9 101 63.1 149.9 109.4 168.2 17.2.5 34.5-2 51.2-6.6 78.3-21.5 95.2-90.2 79.3-173.8-11.7-61.7-29.4-146.7-40.4-187.3-20.9 9-51.2 20.8-91.6 30.9-57.6 14.6-97 5.8-117.2-1.5z" fill="#ffd073"/><path id="XMLID_778_" d="M489.2 273.2c-25 8.3-62.6 21.2-107.9 28.9-83.7 14.3-132.2-7.4-137.1-5.6-18.5 6.8 4.8 49.8 35.1 190.8 11.9 55.5 33 92.8 59.3 116 33 12.7 70.1 10.3 105.7-2.2 90.2-31.3 57.7-249.4 44.9-327.9z" fill="#ef4432"/><path id="XMLID_777_" d="M-24.6 348.2c-8.5-.6-16-1.7-22.7-3-2.3 12.2 6.2 54.2 32 173.1C-2 579.4 18.3 621.4 42.5 649.1c15.1-.2 30.3-2.6 45-6.6 78.3-21.5 95.2-90.2 79.3-173.8-7.7-40.6-18-91.2-27.3-132.7-13.8 4.7-29.3 9.4-46.9 13.8-57.6 14.5-97 5.7-117.2-1.6z" fill="#ffd885"/><path id="XMLID_776_" d="M457.3 283.6c-21.4 6.6-47.1 13.6-76 18.6-83.7 14.3-132.2-7.4-137.1-5.6-18.5 6.8 4.8 49.8 35.1 190.8 9.1 42.2 23.5 73.9 41.4 96.9 27.8 5.7 57.5 2.2 86.3-7.8 78.9-27.6 63.9-198.2 50.3-292.9z" fill="#f05443"/><path id="XMLID_775_" class="st9" d="M-6.3 527.1c-2.4-1.2 7.2-26.7 28.8-42.8 21.6-16.2 37.2-17.7 50.6-14.5 17.6 4.1 17 32.9-.8 36.5-17.7 3.6-23.6-12.4-55.9 2.8-18.5 8.6-22.7 18-22.7 18z"/><path id="XMLID_774_" class="st10" d="M-.4 519.3c-2.1-1.1 6.2-22.9 24.8-36.9s32-15.2 43.5-12.5c15.1 3.5 14.6 28.3-.6 31.4-15.3 3.1-20.3-10.7-48.1 2.4-16 7.5-19.6 15.6-19.6 15.6z"/><path id="XMLID_773_" class="st9" d="M247.5 490.8c2.1-1.8-13.2-24.3-37.9-35s-40.3-8.6-52.6-2.4c-16.2 8.1-8.9 35.9 9.2 35.3 18.1-.6 20.1-17.6 55-10.3 20 4.2 26.3 12.4 26.3 12.4z"/><path id="XMLID_772_" class="st10" d="M238.8 484.7c1.7-1.5-11-20.3-31.7-29.2-20.6-9-33.7-7.1-43.9-2-13.5 6.8-7.4 30 7.7 29.5 15.1-.5 16.8-14.7 46-8.6 16.7 3.5 21.9 10.3 21.9 10.3z"/><path id="XMLID_771_" class="st11" d="M282.9 429.5c.6-3 15.3 16.4 47.2 10.1 23.1-4.6 34.7.3 39.6 5.1 11.4 11 1.5 40.8-32.9 34.5-34.4-6.4-54.9-44.2-53.9-49.7z"/><path id="XMLID_770_" class="st12" d="M288.2 433.1c.5-2.2 12.4 11.9 38.9 6.9 19.1-3.6 28.7-.1 32.7 3.3 9.3 7.9.8 29.9-27.6 25.6-28.4-4.3-44.8-31.8-44-35.8z"/><path id="XMLID_769_" class="st11" d="M522.6 401.9c-1.2-2.8-11.1 19.5-43.6 20.6-23.5.8-33.7 8.2-37.4 14-8.6 13.3 7.8 40.1 39.9 26.1 32.1-14.2 43.3-55.6 41.1-60.7z"/><path id="XMLID_768_" class="st12" d="M514.3 410.7c-.8-2.4-10.6 15.2-37.5 13.6-19.4-1.2-28.4 4.2-31.9 8.6-8.1 10.3 3.4 33.6 30.9 24.5 27.5-9.1 39.9-42.4 38.5-46.7z"/><path id="XMLID_767_" class="st9" d="M38.4 615.9s15.9-53.2 65.4-69.6c49.5-16.4 86.8-7.9 104-2.9 17.2 5 36.3 22 35 25.4-1.2 3.4-17.4-7.5-50-11.9-26.9-3.7-71.7.7-94.2 13.6-37.7 21.4-56.9 47.1-60.2 45.4z"/><path id="XMLID_766_" class="st10" d="M50.9 603.8s13.7-42.6 55.7-56c42-13.4 73.5-6.8 88-2.9s31.6 14.7 30.6 17.4c-1.1 2.7-15.8-3.2-43.3-6.5-22.8-2.8-60.7.9-79.8 11.4-32 17.3-48.4 37.9-51.2 36.6z"/><path id="XMLID_765_" class="st11" d="M521.5 472.7s-15.9 53.2-65.4 69.6c-49.5 16.4-84.2 6.2-101.3 1.2-17.2-5-38.9-20.3-37.7-23.7 1.2-3.4 17.4 7.5 50 11.9 26.9 3.7 71.7-.7 94.2-13.6 37.7-21.4 56.9-47.2 60.2-45.4z"/><path id="XMLID_764_" d="M512.3 481.5c3.2.7-16 39.9-53.8 52.9-37.9 13-83.1 8.9-96.3 4.8-13.2-4.1-31.2-11-30.3-13.6.9-2.7 11.7 3.1 36.7 6.8 31.6 4.7 75.5-4 92.8-14.2 28.8-17.1 48-37.4 50.9-36.7z" fill="#8c181b"/></g><g class="st0"><path id="XMLID_763_" class="st1" d="M24 76.3h-5.3c-2.4-17.5-17.4-31-35.6-31-18.2 0-33.1 13.5-35.6 31h-5.3c-20 0-36.1 16.2-36.1 36.1 0 20 16.2 36.1 36.1 36.1H24c20 0 36.1-16.2 36.1-36.1C60.2 92.5 44 76.3 24 76.3z"/></g><g><path class="st14" d="M75.4 67.9h-2l-.2-.2v-3c0-.1-.2-.9-.2-1 0-.3.2-2.7.2-3 0-2.5-.2-10.9-.2-11.8V48c0-.5-.5-4.6-.5-7 0-.4 2.5-.5 3-.5.3 0 1.5 0 1.5.7 0 .3-.3.6-.5.8 0 2.7.7 5.6.7 8.4 0 .5-.2.7-.2 1.2 0 .4.2 2.4.2 2.8V68c0 .1-.1.5-.2.5-.5 0-1-.4-1.3-.8l-.3.2zm-1.1-24.7c0 .1-.4.8-.5 1h.2c.8 0 1.3-.4 1.3-1.1 0-.8-.2-1.2-1.1-1.2-.1 0-.7 0-.7.3 0 .2.2.9.2 1l.5-.3V43.2zm-.2 2.5c.6 0 1.1-.9 1.1-1.3-.4 0-1.4.4-1.4.9 0 .2.2.4.3.4zm.9 20.8h.9c.2-.7.2-1 .2-1.6 0-.5-.2-.7-.2-.9 0-.3.2-.4.2-1.3 0-.2.1-1-.4-1 0 0-.7.4-.9.6.2-.3 1.1-1.2 1.2-1.8h-2c0 1.2-.3 2.3-.3 3.6v1.6c.4.7.6.8 1.3.8zm-1.1-18.7c0 .4.2 1.3.4 1.3.8 0 1.4-1.4 1.4-2 0-.2-.4-.2-.6-.2-1.2 0-1.1.2-1.1.8-.1-.2-.1 0-.1.1zm.2 3.2l-.2 2c.9-.2 2-1.4 2-2.3 0-.2-.3-.2-.5-.2-.4 0-1.3.2-1.3.5zm.4 4.9c.5 0 1.3-.9 1.3-1.5h-1.5s-.2.7-.2.9c0 .3.2.6.4.6zm-.2-9.7h1.1v-1c-.2.3-1.1.7-1.1 1zm0 12.7h.3l1.3-1.3v-.2c-1.3-.1-1.6.2-1.6 1.5zm0-8.9h.6c.6 0 1.1 0 1.1-.7 0-.2 0-.7-.3-.8-.4.3-1.2.9-1.4 1.5zm1.7 3.9c0-.6 0-1.6-.4-1.6l-1.3 1.3c0 .2 1.2.3 1.7.3zm-1.4 3.2l1.3-.3v-1.4c-.8.3-1.4 1.1-1.6 1.4l.3.3zm-.1 2.9c1.1 0 1.6-.1 1.6-1.4-.1 0-.2-.3-.4-.3-.5 0-1.2 1.2-1.2 1.7zm1.1 3.2c-.3 0-.8.2-1 .2.3-.2.4-.3.8-.3 0 .1.2.1.2.1zM83.2 64.5c0-5 .5-9.8.5-15.2-.2-1-.6-2.3-.6-3.4 0-1.8.4-3.2.4-5V40c.9-.2 1.3-.2 2.1-.2.9 0 1.3 0 2.4.2 2 3.1 4.3 6.2 5.8 9.6 0 .4 5.7 8.4 6.5 8.4.4 0 .4-5.1.4-5.7v-5.4c0-.2-.2-.9-.2-1 0-1.5.2-2.7.2-4.1 0-1.1.9-1.3 1.8-1.3 1 0 2.1 0 2.1.6 0 .3-.2.8-.2 1.1 0 .5.3 1.1.3 1.7 0 3 .6 5.7.6 8.7 0 2.6-.5 5.2-.5 7.7 0 2.1 0 4.3.2 6.4 0 .2.4.9.4 1.5-1 0-2.7-.4-3.1-.5-.9-1.3-3-1.9-3-3.8-.5 0-.5 0-.5-.5-1.4 0-1.8-2.3-2.6-3.5-.9 0-1.2-1.4-1.5-2-.5-.8-1.4-1.4-1.8-2.3-.5-1.3-4.2-6.8-4.9-6.8-.2 0-.4 1.2-.4 1.6 0 4.1.6 8 .6 12.1 0 1.7-.6 3.2-.6 4.9 0 1-1.9 1-2.8 1-.1 0-.8-.1-1.2-.2-.2-.8-.4-3.1-.4-3.7zm1.1 1.8h.7l1.3-1.2v-.3c-1.2 0-2 .1-2 1.5zm.1-3.1c0 .6.1 1.1.8 1.1.6 0 1.4 0 1.4-.7 0 0 0-.4-.1-.4-.3.3-1 .8-1.6.8.2-.2.3-.4.3-.7v-.8c0-.2.8-1.8.8-2.1-1.3.2-1.5.7-1.5 1.8 0 .4-.1.7-.1 1zm.3-21.4l.8-.5c-.1-.1-.5-.2-.6-.3-.1 0-.5 0-.5.3.1.1.3.4.3.5zm0 2l2-2.3h-.2c-.8 0-2 1.3-2 2 0 .2.2.3.2.3zm-.2 2.3h.2l4.1-2s-.2-.8-.5-.8c-.8 0-3.1 2-3.8 2.8zm0-1h.2l2-1.3h-.2c-.7 0-2 .5-2 1.3zm.5 4.5c.2-.2 1.6-1.2 1.6-1.9-.2-.3-.4-1.1-.4-1.7 0 .1-1.1.5-1.5.8v2.5l.3.3zm0 9.7l1-1h-.3c-.2 0-1 .2-1 .5 0 .1.2.4.3.5zm-.1-8c.1 0 1.4-.7 1.4-.9v-.2c-.8-.1-1.4.2-1.4 1.1zm.4 2.9c.6-.4 1.2-.9 1.2-1.7-.5 0-1.5.1-1.5.8 0 .1.2.8.3.9zm-.3 2.5l1.3-1.3v-.2c-1 .3-1.3.2-1.3 1.5zm.2-4.5c.7 0 1.1-.5 1.1-1.1-.5 0-1.1.5-1.1 1.1zm.1 5.3c.7 0 1.4-.2 1.4-1.1 0 0 0-.4-.1-.5-.4.3-1.2 1-1.3 1.6zm.2 2.7c.5 0 1.3-.1 1.3-.9 0-.1-.2-.7-.2-.8-.6.4-1.1.9-1.1 1.7zm.2-5.4c.5 0 .9-.1.9-.6 0-.2 0-.4-.3-.5-.3.3-.6.6-.6 1.1zm0 7.8c.8 0 1.3-1 1.3-1.6-.8-.1-1.3 1-1.3 1.6zm.6-19.5h.1c-.1 0 1.1-.5 1.4-.8 0-.1-.2-.5-.3-.5-.5 0-1.1 1-1.2 1.3zm4.2 6.6c.2 0 1.6 0 1.6-.4 0-.9-1.2-2.6-1.8-3.4l-1.2-1.3c-.2 0-.8.5-1.3.8.6 1 .6 1.4 1.4 1.4 0 1 0 1.4.9 2.1l.7-1v.3c0 .5-.3.9-.3 1.5zm1.2 1.2c.5 0 .8-.7.8-1.1-.5 0-1 0-1.4.4.1.3.4.7.6.7zm1.1 1.6c.4 0 .8-.1.8-.5 0-.5-.3-.7-.9-1 0 0-.7.2-.7.6.1.7.6.9.8.9zm.8 1.5c.5-.3.6-.9.6-1.4-.5 0-1.1 0-1.1.7-.1.3.1.5.5.7zm1.4 2.3c.5 0 .7-1 .7-1.3 0-.5-.4-1.6-1-1.6-.2 0-.5.9-.8 1 0 .6.3.7.8.7.4 0 .7-.1.7-.1-.2.2-.8.3-.8.6 0 .2.2.7.4.7zm2.6 3.2c.4 0 1-.2 1-.6 0-.4-.9-.9-.9-.9h-.1l-1.3-2.5h-.1c-.6 0-.7.9-.7 1.3 0 .7.2.9.9.9 0 .2-.1.5-.1.7 0 .2.1.4.4.4.1 0 .5-.1.7-.3 0 .1-.2.7-.2.8-.1.2.3.2.4.2zm1 1.6c.2 0 .9-.3 1.3-.5 0-.6 0-.7-.2-.7-.1 0-.3.1-.5.1v-.7c-.5 0-1.3.4-1.3.9 0 0 .2.3.2.4.2 0 .5-.2.5-.3v.8zm2.6 2.5c2.3 0 2.5-2.9 2.5-4.3 0-.2 0-.5-.3-.5-1.8 0-1.2 2.5-3 2.5v-.1c0-.2-.1-.3-.2-.4-.2.1-1 .5-1.3.8l1 1c.5-.4 1.9-1.5 2.7-1.5 0 .5-1.2 2-1.4 2.5zm-1.4 0c.7 0 1.9-1.1 1.9-1.7v-.2c-.8.3-1.9 1-1.9 1.9zm1 1.1c.5 0 .9-.1.9-.7-.5.1-.9.2-.9.7zm.8-18.8h.3l1.3-1.3-.2-.2.5-.2s.2-1.1.2-1.6c0-.1-.2-.5-.2-.5H102s-.2.7-.3 1c0 .5.2 1.2.8 1.4h-.8v1.4zm0 1.8c.3 0 1.8-2.2 1.8-2.3h-.3l-1.6 1.5v.8zm.3 2.7h.3l1.2-1.2c-.1-.4-1.1-.5-1.2-.5-.2 0-.5.7-.6.8 0 .2.2.9.3.9zm0 6h1.8v-1c-.1 0-.7.1-1 .3.4-.4 1.4-2 1.4-2.6-.9 0-.7 1.1-1.6 1.3V54c.7-.6 1.5-1.6 1.5-2.5h-1c.3-.4 1-.4 1-1.1 0-.2-.3-.5-.4-.5-.6 0-1.5.9-1.5 1.6h.3v.2c0 .1-.5.5-.5.5-.2.7-.3 1.8-.3 2.6 0 1.1.4.7.6 1.2.1.1-.1.4-.3.4zm0 2.7c.6 0 1.4-.5 1.8-1.1h-1c.3-.2.8-.8.8-1h-1.6v2.1zm0 5.7c.8 0 1.6-.4 1.6-1.3h-.3l-1.3 1.3zm1.3 1.5c.2.1.2-.7.2-.9V65l-1.2.5v.5l1 .3zm.3-17.9c0-.5 0-1.8-.3-1.8-.2.2-.8 1-.8 1.4 0 .5.9.4 1.1.4zM117.1 71.9c0-.1 3-.5 3.6-2v-2.2c0-1.8-.4-3.6-.4-5.3 0-1.1 0-1.7.3-2.9l-.3-18.4c0-.2.3-.7.5-.8h1.2c1.4 0 1.4-.3 2.2-.3.3 0 .6.5.6.8 0 .1-.2.9-.2 1V44c0 1.3 0 2.3.2 3.6-.2.2-.2.5-.2.8V49.3c0 .2-.5 1.8-.5 2.1 0 .4.3.6.3 1.4 0 .8-.3.6-.3.8 0 0 .3.4.3.5 0 .6-.3.7-.3 2.3 0 .8 0 2.4.5 2.5v4.3l-.2.3.2.3c0 .1-.2 1.2-.2 1.5v.2c0 .2.2 1.6.2 1.8 0 7.9-5.2 6.2-5.3 6.8H117v-2.2zm3.2.6c.3 0 1.4-.6 2.1-.8h-.6c-.6 0-1.5.1-1.5.8zm1.4-25.6c1.1 0 2.3-.3 2.3-1.5 0-1.1-.5-3.2-.5-3.9l-2.3-.4v.4c0 .5.1 1.1.6 1.1.1 0 .3 0 .5-.1-.1.4-.5 1.2-.5 1.3h.7c0 .5-.7.7-.9 1.6h.3l1.5-1.6v.5l-1.5 2v.6zm-.1 4.2c.5 0 1.6-.7 1.6-1.2v-.1c-1.3 0-1.6 0-1.6 1.3zm0 7c1.6 0 1.8-3 1.8-4-.7 0-1.1 1-1.4 1.4.2.4.8.5 1 .5-1.3 0-1.4 1.5-1.4 2.1zm0 5.1c.7 0 1.2-.4 1.6-.9h-.6c-.8 0-1 .1-1 .9zm.5-3.3c-.1 0-.2-.1-.3-.1-.2 0-.2.1-.2.6 1.6 0 2.2-1.7 2.2-3-.8 0-1.7.7-1.7 1.6h.3c.1.8-.1.9-.3.9zm-.4-11.9v.4l1.2-1.2c-.7 0-1.2.1-1.2.8zm.2 13.8c.3 0 1.8-.4 1.8-.5V60c-.9 0-1.7 1.2-2 1.6l.2.2zm.2 7.1c.3-.1 1.3-.7 1.3-1.1 0-.2-.9-.3-1-.6.2 0 .3.1.5.1.7 0 .7-.6.7-1.4-.6 0-.7.7-.9.7l-.2-.1c.2-.7 1.1-.9 1.1-1.6-.5 0-1.6.1-1.6.3v1.1c0 1.1-.2 1.2-.2 1.7-.1 0 .3.8.3.9zm-.2-19.6c0 .1 0 .1 0 0 1.6 0 2.1-.1 2.1-1.6 0-.1-.2-.5-.2-.5-.5.3-1.9 1.7-1.9 2.1zm.8 3.2c.2 0 .7 0 .7-.3v-1.8c-.6.6-1.6 1.4-1.6 1.8.1.3.6.3.9.3zm-.8 1.8c.6 0 1.4-.5 1.4-1 0-.1 0-.2-.1-.3l-1.3.3v1zm0 9.6v.6c1.6 0 1.6-.1 1.6-1.7-.2 0-1.6.8-1.6 1.1zm.5 5.5c.8 0 1 0 1-.6-.4 0-.7.1-1 .6zm0 1.5l.4.1c.3 0 .7 0 .7-.5 0-.2-.1-.1-.3-.1-.4 0-.6.1-.8.5zM134.2 65.6h-.2c-.1 0-1.4-.9-1.8-1.3-1.4-1.1-3.1-6.1-3.1-8.2v-.4c-.1 0-.2-.2-.2-.3 0-.9.4-2.2.5-3.2.6-5.5 2.3-8 6.8-10.9h.1c.8 0 4-1 5.1-1h1.1s5 .9 5.8 1.2c.6.2 1.1.3 1.6.8 3.8 3.9 5.3 6.1 5.3 11.2 0 2.9-.8 5.4-1.3 7.9-.2 1.1-1 1.1-1 2.3v.3c-1.9 3.4-7.2 3.8-10.1 3.8l-4.8-.5-3.8-1.7zm-4.1-9.5c.7 0 1.1-.6 1.1-1.3-.9 0-1.1.5-1.1 1.3zm.1-3.1h.2c.3 0 1.1-.2 1.1-.7 0-.3-.7-.7-1-.7 0 .5 0 1-.3 1.4zm.5 4.2h.5c.4 0 .8 0 .8-.5 0-.2 0-.5-.3-.5-.5 0-.9.8-1 1zm.4-7.7c.5 0 .8-.1 1.1-.3-.1-.2-.6-.5-.7-.5-.4 0-.4.7-.4.8zm.6 1.4c.3 0 .3-.5.3-.6-.2 0-.7 0-.8.3 0 .1.4.3.5.3zm-.2 10.4l.5-.5c0-.1-.2-.3-.3-.3-.1 0-.4.2-.5.3.2.1.3.3.3.5zm.4-2h.5V59c-.2 0-.3.1-.5.3zm.2-12.4c.5 0 .8-.1 1.3-.3-.1-.2-.7-.5-.8-.5-.1.1-.5.6-.5.8zm.3 14.7c.3 0 .6-.1.6-.4V61c-.4.1-.6.3-.6.6zm1.1 2.3c.5 0 .5-1 .5-1.3h-1.4c0 .3.7 1.3.9 1.3zm4.2.4c1 .5 2 .2 3 .7h1.6c4.8 0 7-.8 8.2-5.4v-3.1c0-3.5.2-8.4-2.8-11h-.2c-.4 0-3.9-1.4-4.4-1.4-.7 0-1.3.6-2 .6-.5 0-.5-.3-.9-.3-4.4 0-7.7 5.2-7.7 9.1 0 .7.9 7.6 1.6 7.6h.5c.2 0 .4.5.4.8.2.4 1.1 1.3 1.1 1.4 1.2.1.8.5 1.6 1zm-3-18.1c.2 0 .5-.4.5-.5-.8-.2-.9-.2-1.8-.2.5.3 1.2.6 1.3.7zm15.8.4c.4 0 .9-.4.9-.8s-.4-.5-.8-.5c0 0-1.7-1.8-2.5-2.5-1-1-5.8-1.3-7.2-1.3-.7 0-1.7 0-1.7.8-.1-.2-.5-.5-.6-.5-.2 0-2.9 1.4-2.9 1.5l.5.4h-1.6v.1s.3 1.1 1.4 1.1c.3 0 .7-.2.9-.5-.2 0-.5-.4-.5-.5 0-.1.1-.4.2-.5.6 0 .4.3 1.2.3.7 0 1.1 0 1.6-1.1 0 .3.4.3.6.3 0 0 2.2 0 2.2-.8 0 .1.2.4.2.5.1 0 .7-.2.9-.3 0 0 .8 1.1 2.2 1.1.2 0 .6-.1.7-.3.5 1.3 2.4 2.1 3.6 2.5.1.4.3 1 .7 1zm-15.8 17.8c.2 0 .5-.1.5-.3h-.5v.3zm3.6 1.7c.3 0 .9-.2.9-.6h-.2c-.3 0-.8 0-.9.3-.1.1.1.3.2.3zm5.5.8l1-.5h-1v.5zm6.1-2.6c-.8.9-2.3 1.5-3.3 1.8 3.3 0 6.6-2.9 6.6-6.4-.9 0-1.6.4-1.6 1.3h.8c-.2.5-1.3.3-1.3.9 0 .1.6.7.8.9-2.1.1-1 .4-2 1.5zm1.7-14.4h2c0-.8-.7-3.6-1.9-3.6-.4 0-1.2 1.1-1.2 1.3 0 .2.6.6.7.6h.1c-.2.3-.3.5-.3.9.5 0 .6-.5 1.2-.5 0 0-.9.9-.9 1.1l.3.2zm0 1c.2 0 1-.4 1.3-.5-.5 0-1.5-.1-1.8.3.1 0 .5.2.5.2zm0 1.4c0 .2.1.9.4.9.5 0 2.2-.7 2.2-1.6 0-.2-.2-1.1-.2-1.3-.6 0-1.8.7-2.5 1.3l2 .6h-1.9zm.2 7c.3 0 .7 0 .8-.3 0 0 .2.2.3.2 1.2 0 1.3-2.7 1.3-3.6V55l-2.7.6.9.9c-.2 0-.8.2-.8.4s.4.3.6.3c.4 0 .7-.2 1.2-.2-.3.6-1.6.2-1.6 1 0 .4.3.4.3.5.1.3-.3.5-.3.8zm1-4.8h.4c.3 0 1.2.1 1.2-.5 0-.3 0-1.1-.3-1.1-.6 0-1.8.8-2.2 1.2.2.4.6.4.9.4zM166.7 67.3c-.6 0-1.9-.1-1.9-1v-8.6c-.2-.2-.5-.5-.5-.7 0-.5.6-1.1.6-2 0-1.8-.9-2-2-3.4-.5-.6-2.3-3.2-2.3-3.6-.9 0-1-1.3-1.6-2-.4-.5-1.7-1.8-1.8-1.8h-1.4c0-.5.9-.4.9-.9 0-.8-.8-1.2-.8-1.9 0-.3 2.5-.7 3.2-.7.9 0 5.7 9.9 8.3 9.9 1.1 0 4.6-7.4 6-8.6.4.3.2.8.9.8.5 0 .9-.2 1.1-.8-.4-.7-1.1-.4-1.1-1.3h3.4c.1 0 .2.5.2.7 0 .4-1.2.7-1.5 1.1-1.8 2.8-4.3 6.7-4.8 7.8-.9 1.5-2.5 2.5-2.5 4.5 0 .1.1.2.2.3l-.2.3v8.3c-.2.6-.3 1.4-.3 2.1 0 .6 0 1.1.1 1.4-.1.1-.4.3-.5.3-.7.1-.8-.2-1.7-.2zM158 43.2h.4c.3 0 1.1 0 1.1-.3 0-.8-1.4-.9-1.8-.9-.1 0-.7.2-.8.2v.1c0 .4.2.7.5.7s.5-.1.8-.3l-.2.5zm1.2 1.4c.4 0 .7-.7.9-1h-.3c-.2 0-1.1.1-1.3.5.2.2.5.5.7.5zm.8 1.2h.1c.3 0 .7-.7 1.1-.8-.2-.5-.9-.8-1-.8-.1.2-.7.8-.8.9h.8l-.2.7zm3.5 4.4c.4 0 .6-.2.6-.6s-.6-.8-.6-1.1v-.2c-.7-.5-1.5-1.3-1.7-2.3h-.4s.1-.1.1-.2-.4-.3-.5-.3c-.2 0-.5.7-.5.7 0 .7.9.6.9 1 0 .1 0 .2-.1.3.6.8 2.2 1.6 2.2 2.7zm.5.5v.2c.3 0 .8-.2.8-.4s-.2-.5-.5-.5c-.1 0-.3.4-.3.7zm1.3 1.2c.2 0 .3-.3.3-.5h-.6c0 .2.1.4.3.5zm.6 8.5c.7 0 1.2-.5 1.4-1.1h-.4c-.7-.1-1 .2-1 1.1zm.4 1.9c.4-.1.7-.2.7-.5-.4 0-.7 0-.7.5zm0 2.5l.8-.8h-.8v.8zm.3-6.8h1.3c.2-.2.3-1.7.3-2.9-1 0-.2 1.9-1.6 2.9zm.8 4.8c.4 0 .8 0 .8-.4v-.1c-.3 0-.7.2-.8.5zm1.7-11.4h.2c.1 0 .6-.7.8-1l.1-.3c-.5-.1-1.1.8-1.1 1.3zm1.3-1.7c.3 0 2.1-3.3 2.5-3.9.1-.2.9-1.3 1-1.5-1.5 0-1.3 1.2-1.8 2-.3.5-1.5 2.4-1.8 2.8v.6zM191 62.6c.9-2.6 1.4-5.3 2.3-7.9.7-1.9 1.5-3.3 2.1-5.3l.2-.2c.2-.8.3-2.9 1.4-2.9 0-.8 1.4-5.4 1.9-5.9 3.6 0 3.9-.1 4.8 2.5 0 0 .5.9.5 1v.4c.8 0 .6 2.5 1.6 3.2-.1 0-.3.2-.3.2 0 .6.5 1.1.5 1.8h.5c-.1.1-.2.4-.2.5 0 .4.9 1.4 1 1.8.2 1 .3 2.4.8 3.3.8 1.6 1.1.2 1.5 3.5.3 2.7 2.3 6 3.2 8.6 0 .7-.7.8-1.4.8-.9 0-1.4-.6-2.1-.6-.4 0-.8.2-1.1.2-.4 0-.9-2-1.4-3.3-.4-1.1-1.5-4.3-3-4.3-1.1 0-2.1.2-3.2.2-1.7 0-3.2-.2-5.1-.2-.5 1.6-.6 2.3-1.8 5-.4.9-.1 2.8-1.4 2.8-1 0-1.6-.1-2.7-.5-.1-1.4 1.1-3.8 1.4-4.7zm.4 3.7c.3 0 .5-.7.5-.7h-.3c.2-.3 1.1-1.2 1.3-1.8h-.4c-.9 0-1.4 1.2-1.4 1.9-.1.3-.1.6.3.6zm1.1-4.3v.3c.6-.3 1.6-1.2 1.6-1.2h-.5c-.7-.1-1.1.8-1.1.9zm.6-1.5c.7 0 1.3-.3 1.8-1h-.3c-.6 0-1.2.7-1.5 1zm.2-1.2v.2c.5-.2 1.1-.5 1.5-1-.1-.3-.4-.3-.6-.3-.6 0-.9.5-.9 1.1zm.5-2.5v.5c.7-.5 1.9-1 2.3-2h-.2c-1.3-.1-2.1.2-2.1 1.5zm.5.9h1.1v-1l-1.1 1zm1.3-4.7c-.7 0-.9 1.3-1 1.8.1 0 1.9-1.1 2.8-1.8h-1.8zm.3 6h.2c.5 0 1.9-.1 1.9-.8 0-.4-.2-.5-.5-.5-.1 0-1.5.7-2 1.1.1.2.3.2.4.2zm-.2-6.5c1.8 0 2.2-.3 2.6-2.1h-.2c-.9 1-2.4 1.6-2.4 2.1zm.1 2.4c.5 0 1.4-.5 1.4-1v-.2c-.7.3-1.4.4-1.4 1.2zm.3-3.5c1-.6 3.4-2 3.4-3.6h-.3c-.3 0-2.4 1.5-2.4 1.8.6 0 1-.3 1.6-.3-.4 1.1-2.5.1-2.5 1.8-.1.2.1.3.2.3zm.9-3.1v.3c1.4-.4 2.7-1.4 3.3-2.7l3-1c0-1.7-1.7-3-1.6-3h-.5c-.2 0-1.1-.5-1.5-.5-1 0-.6 2.5-1.3 3h1c-.6 1.1-2 .6-2 2.5 0 .3.1.5.5.5-.5 0-.9.4-.9.9zm1.8 8.2c1.6 0 3.2-.3 4.9-.3 0-1.3-1.4-3.4-1.4-4.2l-2-3.8c-.5 2.6-1.5 5.4-3 7.6v.1c0 .5 1.1.6 1.5.6zm-.3 2.4c.6 0 1.2-.4 1.6-.9-.1 0-.5-.1-.5-.1-.5 0-1.1.4-1.1 1zm1.3.2h1.1c1.1 0 2.2-.2 2.8-1.1-.2-.4-1.1-.5-1.3-.5-.4 0-1.1.9-1.2 1V58c-.6.2-1.4.5-1.4 1.1zm1.8-11.9c.4 0 1.3-1.2 2-1.8-.9 0-2 .1-2.7.7 0 .3.5 1.1.7 1.1zm2.3 5.8c.7-.6 1.5-1.5 1.5-2.5 0-.5 0-1.8-.7-1.8-.1 0-.7.4-.9.6l1-1c0-.2-.8-2.3-1-2.3h-.2l-1.8 1.8v.2c0 .3.5.6.8.6-.3 0-.3.4-.3.7 0 .2 0 .9.4.9.1 0 .5-.2.7-.3 0 .6-.3.8-.3 1.4.6 0 1.1-.3 1.8-.3-.3.6-1.3.3-1.3 1.2 0 .1 0 .4.3.8zm-.3 5.9c.4 0 .6-.2.6-.7-.4.1-.6.3-.6.7zm1.5-3.9c.9 0 1.4-.9 1.4-1.7 0-.5-.2-1.9-.8-1.9-.2.2-.9 1.3-1 1.5-.1.1-.3.3-.3.4 0 0 .1.4.3.4.5 0 1.1-.2 1.5-.2l-1.5.8v.1c0 .2.2.6.4.6zm1.1 4.8c1 0 1.5-1.1 1.5-1.9 0-1.3-.3-2.1-.7-3.4-.7 0-1.4.6-1.6 1.3h1.3v.2c-.4.5-1.8 1.9-2.2 2.8h.5c.9 0 1.6-.8 2.5-.8-.4.5-1.4.9-2 1.2.1.5.3.6.7.6zm-.8-3l.6-.5c-.5 0-.6.1-.6.5zm1.7 5.3c.6 0 1.4-1.4 1.4-1.9 0-.3 0-1.2-.4-1.2.1 0-1.4.9-1.6 1.3.1 0 .1.2.4.2.1 0 1.3-.2 1.4-.2-.3.6-1.5.4-1.5 1.2-.1.3 0 .6.3.6zm.3.7c.4 0 1.8-.2 1.8-.9 0-.3 0-.9-.4-.9-.2 0-.7.8-1.4 1.8zm.9 1.5c.1 0 .1 0 0 0l1.4-1.2v-.4c-.5 0-2 .3-2 .9 0 .2.3.7.6.7zm1.9 1.8c.4 0 .6-.2.6-.4 0-.6-.5-1.6-.8-2.1-.4.2-1.4.7-1.4 1.3.2 0 .7-.1 1.1-.3l-1 1c.2.5 1.1.5 1.5.5zM215.2 64.5c0-5 .5-9.8.5-15.2-.2-1-.6-2.3-.6-3.4 0-1.8.4-3.2.4-5V40c.9-.2 1.3-.2 2.1-.2.9 0 1.3 0 2.4.2 2 3.1 4.3 6.2 5.8 9.6 0 .4 5.7 8.4 6.5 8.4.4 0 .4-5.1.4-5.7v-5.4c0-.2-.2-.9-.2-1 0-1.5.2-2.7.2-4.1 0-1.1.9-1.3 1.8-1.3 1 0 2.1 0 2.1.6 0 .3-.2.8-.2 1.1 0 .5.3 1.1.3 1.7 0 3 .6 5.7.6 8.7 0 2.6-.5 5.2-.5 7.7 0 2.1 0 4.3.2 6.4 0 .2.4.9.4 1.5-1 0-2.7-.4-3.1-.5-.9-1.3-3-1.9-3-3.8-.5 0-.5 0-.5-.5-1.4 0-1.8-2.3-2.6-3.5-.9 0-1.2-1.4-1.5-2-.5-.8-1.4-1.4-1.8-2.3-.5-1.3-4.2-6.8-4.9-6.8-.2 0-.4 1.2-.4 1.6 0 4.1.6 8 .6 12.1 0 1.7-.6 3.2-.6 4.9 0 1-1.9 1-2.8 1-.1 0-.8-.1-1.2-.2-.2-.8-.4-3.1-.4-3.7zm1.1 1.8h.7l1.3-1.2v-.3c-1.2 0-2 .1-2 1.5zm.2-3.1c0 .6.1 1.1.8 1.1.6 0 1.4 0 1.4-.7 0 0 0-.4-.1-.4-.3.3-1 .8-1.6.8.2-.2.3-.4.3-.7v-.8c0-.2.8-1.8.8-2.1-1.3.2-1.5.7-1.5 1.8-.1.4-.1.7-.1 1zm.2-21.4l.8-.5c-.1-.1-.5-.2-.6-.3-.1 0-.5 0-.5.3.1.1.3.4.3.5zm0 2l2-2.3h-.2c-.8 0-2 1.3-2 2 0 .2.2.3.2.3zm-.2 2.3h.2l4.1-2s-.2-.8-.5-.8c-.8 0-3.1 2-3.8 2.8zm0-1h.2l2-1.3h-.2c-.7 0-2 .5-2 1.3zm.5 4.5c.2-.2 1.6-1.2 1.6-1.9-.2-.3-.4-1.1-.4-1.7 0 .1-1.1.5-1.5.8v2.5l.3.3zm0 9.7l1-1h-.3c-.2 0-1 .2-1 .5 0 .1.2.4.3.5zm-.1-8c.1 0 1.4-.7 1.4-.9v-.2c-.8-.1-1.4.2-1.4 1.1zm.4 2.9c.6-.4 1.2-.9 1.2-1.7-.5 0-1.5.1-1.5.8 0 .1.2.8.3.9zm-.3 2.5l1.3-1.3v-.2c-.9.3-1.3.2-1.3 1.5zm.2-4.5c.7 0 1.1-.5 1.1-1.1-.5 0-1.1.5-1.1 1.1zm.1 5.3c.7 0 1.4-.2 1.4-1.1 0 0 0-.4-.1-.5-.3.3-1.2 1-1.3 1.6zm.2 2.7c.5 0 1.3-.1 1.3-.9 0-.1-.2-.7-.2-.8-.6.4-1.1.9-1.1 1.7zm.2-5.4c.5 0 .9-.1.9-.6 0-.2 0-.4-.3-.5-.3.3-.6.6-.6 1.1zm0 7.8c.8 0 1.3-1 1.3-1.6-.8-.1-1.3 1-1.3 1.6zm.6-19.5h.1c-.1 0 1.1-.5 1.4-.8 0-.1-.2-.5-.3-.5-.5 0-1.1 1-1.2 1.3zm4.2 6.6c.2 0 1.6 0 1.6-.4 0-.9-1.2-2.6-1.8-3.4l-1.2-1.3c-.2 0-.8.5-1.3.8.6 1 .6 1.4 1.4 1.4 0 1 0 1.4.9 2.1l.7-1v.3c0 .5-.3.9-.3 1.5zm1.2 1.2c.5 0 .8-.7.8-1.1-.5 0-1 0-1.4.4.2.3.4.7.6.7zm1.1 1.6c.4 0 .8-.1.8-.5 0-.5-.3-.7-.9-1 0 0-.7.2-.7.6.1.7.6.9.8.9zm.8 1.5c.5-.3.6-.9.6-1.4-.5 0-1.1 0-1.1.7 0 .3.1.5.5.7zm1.4 2.3c.5 0 .7-1 .7-1.3 0-.5-.4-1.6-1-1.6-.2 0-.5.9-.8 1 0 .6.3.7.8.7.4 0 .7-.1.7-.1-.2.2-.8.3-.8.6 0 .2.2.7.4.7zm2.6 3.2c.4 0 1-.2 1-.6 0-.4-.9-.9-.9-.9h-.1l-1.3-2.5h-.1c-.6 0-.7.9-.7 1.3 0 .7.2.9.9.9 0 .2-.1.5-.1.7 0 .2.1.4.4.4.1 0 .5-.1.7-.3 0 .1-.2.7-.2.8 0 .2.3.2.4.2zm1 1.6c.2 0 .9-.3 1.3-.5 0-.6 0-.7-.2-.7-.1 0-.3.1-.5.1v-.7c-.5 0-1.3.4-1.3.9 0 0 .2.3.2.4.2 0 .5-.2.5-.3v.8zm2.6 2.5c2.3 0 2.5-2.9 2.5-4.3 0-.2 0-.5-.3-.5-1.8 0-1.2 2.5-3 2.5v-.1c0-.2-.1-.3-.2-.4-.2.1-1 .5-1.3.8l1 1c.5-.4 1.9-1.5 2.7-1.5 0 .5-1.1 2-1.4 2.5zm-1.4 0c.7 0 1.9-1.1 1.9-1.7v-.2c-.8.3-1.9 1-1.9 1.9zm1 1.1c.4 0 .9-.1.9-.7-.5.1-.9.2-.9.7zm.9-18.8h.3l1.3-1.3-.2-.2.5-.2s.2-1.1.2-1.6c0-.1-.2-.5-.2-.5h-1.5s-.2.7-.3 1c0 .5.2 1.2.8 1.4h-.8v1.4zm0 1.8c.3 0 1.8-2.2 1.8-2.3h-.3l-1.6 1.5v.8zm.2 2.7h.3l1.2-1.2c-.1-.4-1.1-.5-1.2-.5-.2 0-.5.7-.6.8.1.2.3.9.3.9zm0 6h1.8v-1c-.1 0-.7.1-1 .3.4-.4 1.4-2 1.4-2.6-.9 0-.7 1.1-1.6 1.3V54c.7-.6 1.5-1.6 1.5-2.5h-1c.3-.4 1-.4 1-1.1 0-.2-.3-.5-.4-.5-.6 0-1.5.9-1.5 1.6h.3v.2c0 .1-.5.5-.5.5-.2.7-.3 1.8-.3 2.6 0 1.1.4.7.6 1.2.1.1-.1.4-.3.4zm0 2.7c.6 0 1.4-.5 1.8-1.1h-1c.3-.2.8-.8.8-1h-1.6v2.1zm0 5.7c.8 0 1.6-.4 1.6-1.3h-.3l-1.3 1.3zm1.3 1.5c.2.1.2-.7.2-.9V65l-1.2.5v.5l1 .3zm.3-17.9c0-.5 0-1.8-.3-1.8-.2.2-.8 1-.8 1.4 0 .5.9.4 1.1.4zM242.3 63c0-3.4.3-6.8.3-10.3 0-1-.3-2-.3-3 0-2 .6-3.9.6-5.9 0-.7-.2-1.4-.2-2.2 0-1 6.4-1.1 10.1-1.1h2.3c2.8.3 7.5 2.9 8.3 4.6 1.6 1.1 3.1 6.1 3.1 8.2 0 3.1-.7 5.6-2.3 8.2-.2.4-.3 1.2-1 1.3l.2.2-.5.3.3.2c-1 1.4-4.3 2.3-5.5 2.6-4.5.5-8.6.7-12.9 1-.9.1-1 .5-1.7.5-.3 0-.6 0-.6-.5-.2-.5-.2-3.5-.2-4.1zm1.3.9c0 .3.2 1.5.2 1.8 1.3 0 3.9 0 4.6.3 0-.1.2-.5.2-.5.4 0 .6.2 1 .2 2.1 0 4.2-.7 6.3-.7h1.5c.5-.5 1.4-.6 2-.6 0-.1-.3-.3-.6-.4.9 0 2-.2 2.8-.7 0-.1-.9-.6-1.6-.6-.4 0-1.6 1.2-1.9 1.4-1.8.7-4.6.7-6.6.7-.3 0-3.4.3-3.8.3-.4 0-3.1 0-3.2-.7v-.9c0-1 .2-1.1.2-1.6 0-.2-.1-.9-.5-1 .3-.1.5-1.7.5-1.8 0-.9-.2-1.6-.2-2.3s.2-.7.2-1.2c0-.7-.4-1-1.2-1 0 1.3 0 3.2-.3 4.5l.3.2v1.8c-.1 0-.3.2-.3.2 0 .1.3.9.3 1 0 .1-.3.9-.3 1 .1 0 .4.5.4.6zm-.1-15.7h1.7c0-.7-.5-1.2-.5-1.9 0-.5.2-.8.2-1.4 0-.4 0-.7-.2-1.1-.9.3-1 1.2-1 2.1-.1.7.5 1-.2 2.3zm.4 5.9h.9v-3c0-.5-.6-.8-1-.9h1.4s-.2-1.4-.4-1.4h-1.3c0 1.9.4 3.5.4 5.3zm-.1-10.3c.9 0 3.8-1.2 4.4-1.6h-1.4c-1.5 0-3-.2-3 1.6zm2.3 19.7l.5.2c.2 0 1.9.1 2.4.1 4 0 8.6-.2 11.3-3.4h.1c.9 0 1.9-5.5 1.9-6.8 0-1.2-1.3-5.8-2.3-6.1-.5-.1-1.1 0-1.1-.7 0-.2 0-.3.1-.4-.9-.5-2.7-1.7-2.7-1.8-1.8-.6-3.6-1.3-5.6-1.3-1 0-4.1.4-4.3.8l-.3.5c0 4.5-.3 9-.3 13.6 0 2.1 0 5.1.3 5.3zm5.9-21c.4 0 1.6-.7 1.8-.7h-.2c-.4 0-2.6.2-3 .2 0 .3 1.2.5 1.4.5zm2.9.4c.1 0 .7-.2.9-.5-.1-.3-.3-.3-.5-.3-.3 0-.5 0-.7.3v-.6c-.1 0-.8.3-1 .6.1.4.8.5 1.3.5zm9 10.2c.3 0 1 0 1-.4 0-.1-.6-.4-.8-.5h1.3v-.4l-1-.5c.1 0 .2-.3.2-.4 0-.2-.3-.2-.5-.3.4-.2.5-.4.5-.8 0-.3-.2-.5-.5-.5s-.5 0-.8.3c.2-.1.5-.7.5-.8 0-1.9-2.2-3.7-3.3-4.8h-.2c-.3-.1-1.5-.4-1.8-.5 0-.6-2-.7-2-.7-.1 0-.9.4-1 .5.6.4 1.1.4 1.8.4 0 .6.4.8 1.1.8.2 0 .5 0 .6-.3v.8h1.3l-.5.5c.2 0 2 1.6 2 1.9h.5c-.1.2-.3.4-.5.6.7.8.6 1.7 1.5 2.3-.5 0-.5.2-.5.4 0 1.1 1.1.2 1.1 1.3 0 .1-.6.3-.6.4 0 .5.2.7.6.7zm-2.7 9.4c1.1 0 2.4-.7 2.4-2 0-.3 0-.5-.5-.5.9 0 1.5-.6 1.5-1.5 0-.3-.6-.4-1-.5.4-.1.6-.5 1-.5h.2c.1-.6.2-1.6.2-1.6-.2 0-1.8 0-1.8.6l.3.4c0 .2-.4.6-.5.6l.2.2c-.9 0-.6 1.6-.7 2 0 .2-.5.5-.5.7v.1l-1.8 1.8c.3.1.6.2 1 .2zm.9-1.2c-.2 0-.5 0-.5-.1s.2-.1.5-.1c.2 0 .5 0 .5.1-.1 0-.3.1-.5.1zm1.1-5.6c1.6 0 2.3-1 2.3-2.6-1.3-.1-2.3 1.5-2.3 2.6zM280.9 67.5c-.1 0-.3.1-.4.1-1.6 0-2.6-1.4-3-2.5 1.5 0 1.3-2.8 1.8-2.8l3.5 2.1s.4-.1.7-.1c.2 0 .5 0 .5.2h1c1.2 0 1.1.3 1.6.3 2.2 0 7.1-.7 7.1-3.9 0-1.1-.7-3-1.8-3.4l-11.1-4.8c-2.2-.9-3-3.2-3-5.4 0-1.5 1-2.7 1.7-3.9 1.8-2.5 5.7-3.1 8.6-3.1.8 0 .9.3 2.9.3 1.1.2 3.7.7 3.8.7l.7.8v3c0 .3-.7 1.3-.9 1.3-2.3-1-5-2.9-7.6-2.9-2.5 0-5.9.9-5.9 4 0 1.3 2.5 3.4 3.5 3.4h.5c2.5.7 3 2.5 6.3 2.5 2.7.5 6.1 3.1 6.1 6.1 0 1.2-.5 1.9-.7 3.1-.9 3.1-.8 3.8-4.1 4.3l-.2.2c-1.7.7-3.2 1.1-5 1.1-2 0-4.9-.3-6.3-.6-.2-.1-.2-.1-.3-.1zm-1.5-18.8c.4 0 .5-.5.5-.8h-.9c0 .3 0 .8.4.8zm.1-1.5c.5 0 .6-.5.6-.8H279c0 .3.2.8.5.8zm-.2-1.3h1v-.4c-.2 0-.9 0-1 .4zm0 3.2h.2c.3 0 .6-.1.6-.4v-.1l-.8.5zm.2.8h.6v-.2h-.6v.2zm1.1 16.4c.3 0 .8-.2.8-.9v-.1c-.1 0-.9.4-1 .5l-.2-.1v-.2c.1-.1 1.1-.4 1.2-.8 0-.1-.5-.3-.7-.3-.7 0-.9.9-.9 1.1-.1.8.3.8.8.8zm-.6-21.1c.8 0 1.3-.7 1.3-1.6-.6.2-1.3.9-1.3 1.6zm.3 5.2h.3c.2 0 .4 0 .5-.3-.1-.2-.3-.3-.4-.3-.1 0-.4.3-.4.6zm.4.7c0 .1.4.2.6.4.6 0 .6-.5.6-.8-.5-.1-1.1.1-1.2.4zm.8 15.2h.6l-.2-.2c.4-.3.8-.8.8-1-.9 0-1.2.6-1.2 1.2zm.3-23.3c0 .1.3.1.3.1.5 0 1.8-.5 1.8-1.1-.5 0-2.1.4-2.1 1zm.3 8.6h1.1c0-.3-.5-.5-.7-.5-.3 0-.3.3-.4.5zm1.5 15c.7 0 1-.7 1-1.3-.4 0-2 0-2 1 .4.2.6.3 1 .3zm.8-13.9c.1 0 .5-.3.5-.5l-.3-.2-1.3.2c.2.1.9.5 1.1.5zm.6 14.1h2.1s.2-.2.2-.3c0-.8-.4-1-1-1-1.2.1-1.3.4-1.3 1.3zm1.5-13.8c0-.7-1-.7-1.4-.7 0 .8.8.7 1.4.7zm-.2-10.9c.2 0 .9-.2.9-.5-.2 0-.9.1-1.4.2.1.1.5.3.5.3zm7.9 2.5l.5-2c0-.5-5.4-1.3-6.8-1.3 0 0-.3.3-.3.4 0 .4.3.4.6.4.4 0 .9 0 .9-.3.1.5.6.9 1 .9.3 0 .5 0 .5-.3l.8.7.8-.7v.8s.7-.3 1.2-.5h.3c0 .4-.3.8-.3 1.2 0 .4.2.5.8.7zm-5.5 9.6h.2c-.5-.2-1-.5-1.3-.5.3.3.6.5 1.1.5zm.2 12.7c.2 0 .7 0 .8-.3 1.8-.2 5.3-.7 5.5-3-.2-.2-.4-.2-.8-.2-.5 0-.7 2.1-1.8 2.1-.1 0-.4-.3-.7-.3-1 0-2.1.3-2.9.3h-.9c-.1 0-.5.3-.5.5 0 .4.7.9 1.3.9zm.1-.8l.3.2h-.5v-.2h.2zm1.4-11.1l.2-.3h-.5l.3.3zm2.3 1.3v-.4h-.2c.1 0 .2-.3.2-.4 0-.5-.5-.6-.9-.6-.3 0-.8 0-.9.3.3.4 1.1 1.1 1.8 1.1zm-.1-12.8s.1 0 0 0l.5-.5h-.1c-.1.1-.4.3-.4.5zm.5 13.2h1.8c0-.4-.7-.5-1-.5-.4 0-.8.1-.8.5zm1.5 2.4c.9 0 1.6-1 1.6-1.1 0-.6-.6-.8-1-.8-.1 0-1.2.3-1.2.5v.3l1.2.5c-.4 0-.6.2-.6.6zm0 3.8c1.1 0 1.4-1 1.4-2-.3 0-1.1.3-1.1.7 0 .1.1.5.2.7-.3 0-.5.2-.5.6zm.9-2.6c1.1 0 1.1-.7 1.1-1.6-.5 0-1.6.7-1.6 1.2-.1.3.2.4.5.4zM305.3 65.6h-.2c-.1 0-1.4-.9-1.8-1.3-1.4-1.1-3.1-6.1-3.1-8.2v-.4c-.1 0-.2-.2-.2-.3 0-.9.4-2.2.5-3.2.6-5.5 2.3-8 6.8-10.9h.1c.8 0 4-1 5.1-1h1.1s5 .9 5.8 1.2c.6.2 1.1.3 1.6.8 3.8 3.9 5.3 6.1 5.3 11.2 0 2.9-.8 5.4-1.3 7.9-.2 1.1-1 1.1-1 2.3v.3c-1.9 3.4-7.2 3.8-10.1 3.8l-4.8-.5-3.8-1.7zm-4.1-9.5c.7 0 1.1-.6 1.1-1.3-.9 0-1.1.5-1.1 1.3zm.1-3.1h.2c.3 0 1.1-.2 1.1-.7 0-.3-.7-.7-1-.7 0 .5 0 1-.3 1.4zm.5 4.2h.5c.4 0 .8 0 .8-.5 0-.2 0-.5-.3-.5-.5 0-.9.8-1 1zm.4-7.7c.5 0 .8-.1 1.1-.3-.1-.2-.6-.5-.7-.5-.4 0-.4.7-.4.8zm.5 1.4c.3 0 .3-.5.3-.6-.2 0-.7 0-.8.3.1.1.5.3.5.3zm-.2 10.4l.5-.5c0-.1-.2-.3-.3-.3-.1 0-.4.2-.5.3.3.1.3.3.3.5zm.5-2h.5V59c-.2 0-.3.1-.5.3zm.2-12.4c.5 0 .8-.1 1.3-.3-.1-.2-.7-.5-.8-.5-.1.1-.5.6-.5.8zm.2 14.7c.3 0 .6-.1.6-.4V61c-.3.1-.6.3-.6.6zm1.2 2.3c.5 0 .5-1 .5-1.3h-1.4c0 .3.7 1.3.9 1.3zm4.2.4c1 .5 2 .2 3 .7h1.6c4.8 0 7-.8 8.2-5.4v-3.1c0-3.5.2-8.4-2.8-11h-.2c-.4 0-3.9-1.4-4.4-1.4-.7 0-1.3.6-2 .6-.5 0-.5-.3-.9-.3-4.4 0-7.7 5.2-7.7 9.1 0 .7.9 7.6 1.6 7.6h.5c.2 0 .4.5.4.8.2.4 1.1 1.3 1.1 1.4 1.2.1.8.5 1.6 1zm-3-18.1c.2 0 .5-.4.5-.5-.8-.2-.9-.2-1.8-.2.5.3 1.2.6 1.3.7zm15.8.4c.4 0 .9-.4.9-.8s-.4-.5-.8-.5c0 0-1.7-1.8-2.5-2.5-1-1-5.8-1.3-7.2-1.3-.7 0-1.7 0-1.7.8-.1-.2-.5-.5-.6-.5-.2 0-2.9 1.4-2.9 1.5l.5.4h-1.6v.1s.3 1.1 1.4 1.1c.3 0 .7-.2.9-.5-.2 0-.5-.4-.5-.5 0-.1.1-.4.2-.5.6 0 .4.3 1.2.3.7 0 1.1 0 1.6-1.1 0 .3.4.3.6.3 0 0 2.2 0 2.2-.8 0 .1.2.4.2.5.1 0 .7-.2.9-.3 0 0 .8 1.1 2.2 1.1.2 0 .6-.1.7-.3.5 1.3 2.4 2.1 3.6 2.5.1.4.3 1 .7 1zm-15.8 17.8c.2 0 .5-.1.5-.3h-.5v.3zm3.6 1.7c.3 0 .9-.2.9-.6h-.2c-.3 0-.8 0-.9.3-.1.1.1.3.2.3zm5.5.8l1-.5h-1v.5zm6.1-2.6c-.8.9-2.3 1.5-3.3 1.8 3.3 0 6.6-2.9 6.6-6.4-.9 0-1.6.4-1.6 1.3h.8c-.2.5-1.3.3-1.3.9 0 .1.6.7.8.9-2.1.1-1 .4-2 1.5zm1.7-14.4h2c0-.8-.7-3.6-1.9-3.6-.4 0-1.2 1.1-1.2 1.3 0 .2.6.6.7.6h.1c-.2.3-.3.5-.3.9.5 0 .6-.5 1.2-.5 0 0-.9.9-.9 1.1l.3.2zm0 1c.2 0 1-.4 1.3-.5-.5 0-1.5-.1-1.8.3.1 0 .5.2.5.2zm0 1.4c0 .2.1.9.4.9.5 0 2.2-.7 2.2-1.6 0-.2-.2-1.1-.2-1.3-.6 0-1.8.7-2.5 1.3l2 .6h-1.9zm.2 7c.3 0 .7 0 .8-.3 0 0 .2.2.3.2 1.2 0 1.3-2.7 1.3-3.6V55l-2.7.6.9.9c-.2 0-.8.2-.8.4s.4.3.6.3c.4 0 .7-.2 1.2-.2-.3.6-1.6.2-1.6 1 0 .4.3.4.3.5.1.3-.3.5-.3.8zm1-4.8h.4c.3 0 1.2.1 1.2-.5 0-.3 0-1.1-.3-1.1-.6 0-1.8.8-2.2 1.2.2.4.6.4.9.4zM344 63.8c0-1-2.1-3.4-2.8-4.3-.2-.3-1.3-1.9-1.5-2.3-1.2-.2-1.7-.3-2.8-.3-1.7 0-2.3.2-2.3 2 0 2.1.3 4.1.3 6.4 0 .9-.1 1.7-.8 2.3-.5.1-2.2.2-2.6.2-.7 0-.8-.3-.8-.9 0-2.6.6-5.2.6-7.9 0-.9 0-1.2-.3-2.1v-8.6c0-.5-.5-1.2-.5-1.5 0-.4.2-.8.2-1.3 0-.7-.7-2.8-.8-3.2 0-1.6.6-2 2.5-2 1.1 0 1.8.3 2.7.3.7 0 2.3-.3 4-.3 1.8 0 5.2-.1 6.8 1.3l1.8 1.8v.5h.2c.1 1.1.5 2 .5 3.6 0 2-.3 4.2-1.5 5.8-.5.6-1.7 1.8-1.8 1.8h-.3c-.6 0-.5.5-.8.5-.2 0-.6-.2-.6-.3l.1-.2 1.2-1.3s-.4-.1-.5-.1c-1 0-.8 1.1-1.5 1.4-.2 0-1.3.4-1.5.5.2.5 1 .2 1.3.7l-.5.5h1.1c0-.1-.1-.4-.1-.7 0-.2.1-.3.3-.4.3 1.1 1.3 1.8 1.8 2.8.9 2.7 2.4 5.2 4.8 8.8 0 .7-2 .8-2.6.8-1.7 0-.9-1.5-1.8-1.5l-1.5-2.8zm-9.7-21.2h.3l-.7-.8.3-.2c-.7-.2-1.1-.2-1.7-.2-.4 0-.6 0-.9.2.2.2.5.6.7.6.2 0 .3-.1.3-.3.5.2 1 .7 1.7.7zm-2.2 3.5c0 1 .7 2.5.7 2.7.4-.5.5-.9.5-1.2 0-.4-.4-2.3-.4-2.3-.6 0-.8.4-.8.8zm.3 11.9c.2-.2.7-.7.7-1.1 0-.3-.3-.4-.6-.4s-.5.1-.5.6c.1 0 .3.7.4.9zm.8 8.3c.5 0 .7-2.6.7-3.2 0-.4 0-.9-.4-.9-.6 0-1.1.7-1.1 1.3 0 .2 0 .5.2.5-.3.1-.4.8-.5 1 .4 0 1.2-1 1.4-1h.1c-.2.8-1.3 1-1.3 1.8 0 .4.5.5.9.5zm-.8-11.4l.2-.4-.3-.8.1 1.2zm-.1 7.2v.3c.5-.2.9-.6 1.2-1h-.5c-.5 0-.7.1-.7.7zm.2-1.9c.5-.3.9-.5.9-1V59c-.4.2-1 .5-1 1l.1.2zm0 .9c.9 0 1.1-.2 1.4-1.2h-.2c-.6 0-1.2.6-1.2 1.2zm.3-2.6c.5 0 .7-.4.8-.8-.4.1-.8.3-.8.8zm3.4-5.3c1.5 0 2.2 0 3.2-.3 2.8-.4 5.1 0 5.1-3.2 0-1.6-.3-2.9-1-4.4-2-1.3-4.6-1.3-6.8-1.3-1 0-2-.1-2.5.8.2 1.7.2 2.2.2 5.1v2.7c.3.5 1.1.6 1.8.6zm-1.2 1.7c.1 0 .4 0 .4-.3h-.8c.1.3.3.3.4.3zm1.8-12.1c.7 0 1.1 0 1.1-.2l-.5-1h-2l-.5.5c.3.6 1.2.7 1.9.7zm-.4 11.7c0 .2 2.8.3 2.9.4.2-.1.3-.3.3-.6l-3.2.2zm2.7-11.7c.4 0 .7-.3 1.2-.3 0-.4 0-1.2-.4-1.2l-2 .2c.3.2.7 1.3 1.2 1.3zm2.2 13.7c0-.4-.4-.9-.9-.9 0 .6.2.9.9.9zm.9-13.3c.3-.5.1-.8.5-1.2l.2.2c.2-.1.2-.3.3-.4 0 0-.1-.4-.3-.4h-2.5c.1 1.2.7 1.8 1.8 1.8zm-1.6 12s1.4-.3 1.6-.8h-.5c-.5-.1-1.1.1-1.1.8zm.6 2.2h.5v-.2h-.5v.2zm2.9 1.1c0-.8-.7-.8-1.4-.8-.3 0-.7 0-.7.4v.2c.6.1 1.3.2 2.1.2zm-1.4.8c.2 0 .9 0 1-.3h-1v.3zm4.8-13v-.2c0-.9-1.3-3.9-2.6-4.1-.2 0-1-.2-1.2-.3-.3.3-.4 1.3-.4 1.8v.3c.7 0 1-.2 1.6-.2v.2c0 .1-.6.7-.7.8l.2.3 2.3.5v.1c0 .2-.2.5-.5.5l1.3.3zM346 64.8c.3.5 1.2 1.8 1.2 1.8h.8c-.5-1.6-1.4-2.5-2-3.8-.4-.7-1.2-3.4-1.8-3.6-.1.1-.7.3-.7.5.2 0 .7.2.7.3 0 .3-.3.3-.3.7 0 .3.1.5.5.5h.3l-.5.3c0 .4.1.5.2.5.2 0 .4-.2.6-.2 0 1.2.3 1.8 1 3zm-1.5-11.9h.8s-.2-.2-.3-.2c-.1-.1-.5.1-.5.2zm0-7.6c0 .1 0 .2.2.2.1 0 .2-.1.2-.2s-.1-.2-.2-.2-.2.1-.2.2zm2.1 5.3c.9 0 .9-2.8.9-3.2h-.7c0-.1-.2-.2-.2-.3l.5-.2c-.6-.4-1.6-.4-2.2-.4 0 .8 1.1 2.3 1.6 2.7 0 .1-.1.2-.2.2-.4 0-.5-.3-.9-.3.2.6.3 1.5 1.2 1.5zm-1.2 1.6c.5 0 .9-.1.9-.7-.5 0-.9.1-.9.7zM367.1 63.8c0-1-2.1-3.4-2.8-4.3-.2-.3-1.3-1.9-1.5-2.3-1.2-.2-1.7-.3-2.8-.3-1.7 0-2.3.2-2.3 2 0 2.1.3 4.1.3 6.4 0 .9-.1 1.7-.8 2.3-.5.1-2.2.2-2.6.2-.7 0-.8-.3-.8-.9 0-2.6.6-5.2.6-7.9 0-.9 0-1.2-.3-2.1v-8.6c0-.5-.5-1.2-.5-1.5 0-.4.2-.8.2-1.3 0-.7-.7-2.8-.8-3.2 0-1.6.6-2 2.5-2 1.1 0 1.8.3 2.7.3.7 0 2.3-.3 4-.3 1.8 0 5.2-.1 6.8 1.3l1.8 1.8v.5h.2c.1 1.1.5 2 .5 3.6 0 2-.3 4.2-1.5 5.8-.5.6-1.7 1.8-1.8 1.8h-.3c-.6 0-.5.5-.8.5-.2 0-.6-.2-.6-.3l.1-.2 1.2-1.3s-.4-.1-.5-.1c-1 0-.8 1.1-1.5 1.4-.2 0-1.3.4-1.5.5.2.5 1 .2 1.3.7l-.5.5h1.1c0-.1-.1-.4-.1-.7 0-.2.1-.3.3-.4.3 1.1 1.3 1.8 1.8 2.8.9 2.7 2.4 5.2 4.8 8.8 0 .7-2 .8-2.6.8-1.7 0-.9-1.5-1.8-1.5l-1.5-2.8zm-9.7-21.2h.3l-.7-.8.3-.2c-.7-.2-1.1-.2-1.7-.2-.4 0-.6 0-.9.2.2.2.5.6.7.6.2 0 .3-.1.3-.3.6.2 1.1.7 1.7.7zm-2.2 3.5c0 1 .7 2.5.7 2.7.4-.5.5-.9.5-1.2 0-.4-.4-2.3-.4-2.3-.5 0-.8.4-.8.8zm.3 11.9c.2-.2.7-.7.7-1.1 0-.3-.3-.4-.6-.4s-.5.1-.5.6c.1 0 .3.7.4.9zm.9 8.3c.5 0 .7-2.6.7-3.2 0-.4 0-.9-.4-.9-.6 0-1.1.7-1.1 1.3 0 .2 0 .5.2.5-.3.1-.4.8-.5 1 .4 0 1.2-1 1.4-1h.1c-.2.8-1.3 1-1.3 1.8 0 .4.4.5.9.5zm-.9-11.4l.2-.4-.3-.8.1 1.2zm0 7.2v.3c.5-.2.9-.6 1.2-1h-.5c-.5 0-.7.1-.7.7zm.2-1.9c.5-.3.9-.5.9-1V59c-.4.2-1 .5-1 1-.1 0 .1.2.1.2zm0 .9c.9 0 1.1-.2 1.4-1.2h-.2c-.7 0-1.2.6-1.2 1.2zm.2-2.6c.5 0 .7-.4.8-.8-.3.1-.8.3-.8.8zm3.5-5.3c1.5 0 2.2 0 3.2-.3 2.8-.4 5.1 0 5.1-3.2 0-1.6-.3-2.9-1-4.4-2-1.3-4.6-1.3-6.8-1.3-1 0-2-.1-2.5.8.2 1.7.2 2.2.2 5.1v2.7c.2.5 1 .6 1.8.6zm-1.2 1.7c.1 0 .4 0 .4-.3h-.8c.1.3.2.3.4.3zm1.7-12.1c.7 0 1.1 0 1.1-.2l-.5-1h-2l-.5.4c.3.7 1.2.8 1.9.8zm-.3 11.7c0 .2 2.8.3 2.9.4.2-.1.3-.3.3-.6l-3.2.2zm2.6-11.7c.4 0 .7-.3 1.2-.3 0-.4 0-1.2-.4-1.2l-2 .2c.4.2.8 1.3 1.2 1.3zm2.2 13.7c0-.4-.4-.9-.9-.9 0 .6.2.9.9.9zm1-13.3c.3-.5.1-.8.5-1.2l.2.2c.2-.1.2-.3.3-.4 0 0-.1-.4-.3-.4h-2.5c0 1.2.6 1.8 1.8 1.8zm-1.6 12s1.4-.3 1.6-.8h-.5c-.6-.1-1.1.1-1.1.8zm.5 2.2h.5v-.2h-.5v.2zm2.9 1.1c0-.8-.7-.8-1.4-.8-.3 0-.7 0-.7.4v.2c.7.1 1.4.2 2.1.2zm-1.3.8c.2 0 .9 0 1-.3h-1v.3zm4.7-13v-.2c0-.9-1.3-3.9-2.6-4.1-.2 0-1-.2-1.2-.3-.3.3-.4 1.3-.4 1.8v.3c.7 0 1-.2 1.6-.2v.2c0 .1-.6.7-.7.8l.2.3 2.3.5v.1c0 .2-.2.5-.5.5l1.3.3zm-1.4 18.5c.3.5 1.2 1.8 1.2 1.8h.8c-.5-1.6-1.4-2.5-2-3.8-.4-.7-1.2-3.4-1.8-3.6-.1.1-.7.3-.7.5.2 0 .7.2.7.3 0 .3-.3.3-.3.7 0 .3.1.5.5.5h.3l-.5.3c0 .4.1.5.2.5.2 0 .4-.2.6-.2 0 1.2.3 1.8 1 3zm-1.6-11.9h.8s-.2-.2-.3-.2c-.1-.1-.4.1-.5.2zm.1-7.6c0 .1 0 .2.2.2.1 0 .2-.1.2-.2s-.1-.2-.2-.2c-.2 0-.2.1-.2.2zm2 5.3c.9 0 .9-2.8.9-3.2h-.6c0-.1-.2-.2-.2-.3l.5-.2c-.6-.4-1.6-.4-2.2-.4 0 .8 1.1 2.3 1.6 2.7 0 .1-.1.2-.2.2-.4 0-.5-.3-.9-.3.2.6.2 1.5 1.1 1.5zm-1.1 1.6c.5 0 .9-.1.9-.7-.5 0-.9.1-.9.7zM380.3 65.6h-.2c-.1 0-1.4-.9-1.8-1.3-1.4-1.1-3.1-6.1-3.1-8.2v-.4c-.1 0-.2-.2-.2-.3 0-.9.4-2.2.5-3.2.6-5.5 2.3-8 6.8-10.9h.1c.8 0 4-1 5.1-1h1.1s5 .9 5.8 1.2c.6.2 1.1.3 1.6.8 3.8 3.9 5.3 6.1 5.3 11.2 0 2.9-.8 5.4-1.3 7.9-.2 1.1-1 1.1-1 2.3v.3c-1.9 3.4-7.2 3.8-10.1 3.8l-4.8-.5-3.8-1.7zm-4-9.5c.7 0 1.1-.6 1.1-1.3-.9 0-1.1.5-1.1 1.3zm0-3.1h.2c.3 0 1.1-.2 1.1-.7 0-.3-.7-.7-1-.7.1.5 0 1-.3 1.4zm.5 4.2h.5c.4 0 .8 0 .8-.5 0-.2 0-.5-.3-.5-.4 0-.9.8-1 1zm.4-7.7c.5 0 .8-.1 1.1-.3-.1-.2-.6-.5-.7-.5-.4 0-.4.7-.4.8zm.6 1.4c.3 0 .3-.5.3-.6-.2 0-.7 0-.8.3.1.1.4.3.5.3zm-.2 10.4l.5-.5c0-.1-.2-.3-.3-.3s-.4.2-.5.3c.3.1.3.3.3.5zm.5-2h.5V59c-.2 0-.4.1-.5.3zm.2-12.4c.5 0 .8-.1 1.3-.3-.1-.2-.7-.5-.8-.5-.2.1-.5.6-.5.8zm.2 14.7c.3 0 .6-.1.6-.4V61c-.3.1-.6.3-.6.6zm1.2 2.3c.5 0 .5-1 .5-1.3h-1.4c0 .3.6 1.3.9 1.3zm4.2.4c1 .5 2 .2 3 .7h1.6c4.8 0 7-.8 8.2-5.4v-3.1c0-3.5.2-8.4-2.8-11h-.2c-.4 0-3.9-1.4-4.4-1.4-.7 0-1.3.6-2 .6-.5 0-.5-.3-.9-.3-4.4 0-7.7 5.2-7.7 9.1 0 .7.9 7.6 1.6 7.6h.5c.2 0 .4.5.4.8.2.4 1.1 1.3 1.1 1.4 1.2.1.7.5 1.6 1zm-3.1-18.1c.2 0 .5-.4.5-.5-.8-.2-.9-.2-1.8-.2.5.3 1.3.6 1.3.7zm15.9.4c.4 0 .9-.4.9-.8s-.4-.5-.8-.5c0 0-1.7-1.8-2.5-2.5-1-1-5.8-1.3-7.2-1.3-.7 0-1.7 0-1.7.8-.1-.2-.5-.5-.6-.5-.2 0-2.9 1.4-2.9 1.5l.5.4h-1.6v.1s.3 1.1 1.4 1.1c.3 0 .7-.2.9-.5-.2 0-.5-.4-.5-.5 0-.1.1-.4.2-.5.6 0 .4.3 1.2.3.7 0 1.1 0 1.6-1.1 0 .3.4.3.6.3 0 0 2.2 0 2.2-.8 0 .1.2.4.2.5.1 0 .7-.2.9-.3 0 0 .8 1.1 2.2 1.1.2 0 .6-.1.7-.3.5 1.3 2.4 2.1 3.6 2.5 0 .4.2 1 .7 1zm-15.9 17.8c.2 0 .5-.1.5-.3h-.5v.3zm3.6 1.7c.3 0 .9-.2.9-.6h-.2c-.3 0-.8 0-.9.3-.1.1.2.3.2.3zm5.6.8l1-.5h-1v.5zm6-2.6c-.8.9-2.3 1.5-3.3 1.8 3.3 0 6.6-2.9 6.6-6.4-.9 0-1.6.4-1.6 1.3h.8c-.2.5-1.3.3-1.3.9 0 .1.6.7.8.9-2 .1-.9.4-2 1.5zm1.8-14.4h2c0-.8-.7-3.6-1.9-3.6-.4 0-1.2 1.1-1.2 1.3 0 .2.6.6.7.6h.1c-.2.3-.3.5-.3.9.5 0 .6-.5 1.2-.5 0 0-.9.9-.9 1.1l.3.2zm0 1c.2 0 1-.4 1.3-.5-.5 0-1.5-.1-1.8.3.1 0 .4.2.5.2zm-.1 1.4c0 .2.1.9.4.9.5 0 2.2-.7 2.2-1.6 0-.2-.2-1.1-.2-1.3-.6 0-1.8.7-2.5 1.3l2 .6h-1.9zm.3 7c.3 0 .7 0 .8-.3 0 0 .2.2.3.2 1.2 0 1.3-2.7 1.3-3.6V55l-2.7.6.9.9c-.2 0-.8.2-.8.4s.4.3.6.3c.4 0 .7-.2 1.2-.2-.3.6-1.6.2-1.6 1 0 .4.3.4.3.5 0 .3-.3.5-.3.8zm.9-4.8h.4c.3 0 1.2.1 1.2-.5 0-.3 0-1.1-.3-1.1-.6 0-1.8.8-2.2 1.2.3.4.6.4.9.4zM427.6 66.3l-1.3-4.1V62c0-1-1.4-2.6-1.4-3.8v-.3l-2-6.6c0-.3.1-.2.3-.5l-.5-.3c-.1-.3-1.2-3.8-1.7-3.8-.2 0-.6 1.6-1.1 4.1-.7 2.5-4.4 16.4-5.8 16.4-.3 0-2-.3-2-.5 0 0-.6.3-1.1.3-.8 0-2.4-4.9-2.9-6.8l-1.2-4.6v-.2c0-1-1.4-3.3-1.4-4.6v-.2c-.2-.7-1.3-4.1-1.5-4.8-.4-1.4-1.3-3.2-1.3-4.5 0-.7 1.3-.8 2.5-.8.8 0 2.1 0 2.1.6 0 0 0 1-.3 1.3 0 0 .3.2.3.7.8 4.8 2.5 8 3.6 12.1v.2l2.1 6.3v.1c.1 0 .7-.6.7-.8l3.3-11.8v-1c0-.1.9-3.1 1.2-4.3.3-1 .4-1.5.8-2.8.5-.5 1.2-.6 2.1-.6.7 0 3.4 0 3.4.6 0 .7-.8.7-.8 1.4 0 1.4 1.4 4 1.8 5.4.7 1.5 2.3 4.7 2.3 6.6l1.5 4.1v.2c0 .6.7 1.6 1.1 1.8 2-3.4 3.5-19.9 4.8-20.2.6 0 .7.2 1.6.2.7 0 1.1-.5 1.6-.5s.9.9.9 1.2c0 .3-.5 1.1-.5 1.3-.4 1.5-.8 4.1-.8 5.9v.9c-.2.8-1.3 4.3-1.5 5.1-.7 2.4-3.5 13.2-4.7 13.2-1.2 0-2.4-.6-3.6-.6-.1-.4-.6-.8-.6-.8zm-21.1-15.5c0 .1.2.3.3.5.6-.4 1.2-1 1.2-1.9 0 0-.2-.7-.5-1.1-.9-1.2-.5-6.3-2.8-6.3v-.3c-.1 0-.7.1-1 .3.5.6.7 1.8 1 2.5.2.3.5 1.5.5 1.8 0 0 .6 0 1-.5-.1.1-.9.8-1 1v.1c0 .4.4 1.9 1 1.9.2 0 .5-.2.8-.2-.3.2-.5.6-.5.9 0 .3.3.5.6.5h.2c-.2 0-.8.5-.8.8zm1.8 5.8c.8 0 1.4-1.5 1.4-1.6h-1.6v-.4h1.3v-1.1c-.4 0-.5.5-.9.5 0-.7.5-1.1.5-1.7v-.2c-.1-.3-.4-1.6-.7-1.6-.5 0-1 1.3-1.1 1.6 0 .1-.1.3-.1.3h1.3c-.4.2-1 .4-1 .9-.1 1.1.4 2.5.9 3.3zM410 60c.5 0 .9 0 .9-.6 0-.2-.2-.9-.5-1-.1.3-.5.7-.6.7h-.1c.2-.6.5-1.1.5-1.8 0-.2 0-1.3-.4-1.3-.7.5-1.2 1.3-1.2 1.4h1.1l-1 .6c.4.9.1 2 1.3 2zm-.7 1.1c0 .2 0 .6.3.6.6 0 1.3-.9 1.3-1.3v-.2l-1.6.2v.7zm.6 1.7h.5c.7 0 1-.1 1-1.3 0-.2 0-.5-.2-.5-.8.3-1.3 1-1.3 1.8zm1.5 1.9h.2c1 0 1.9-.6 2.7-1 1-2.7 1.9-5.3 2.8-7.8v-.6c-1.6.5-1.8 5.6-2.8 7.1-.2.3-1 1.3-1.6 1.3-.8 0-.6-.8-1.2-.8-.4 0-1.2 0-1.2.4 0 .2.4.7.5.9 0 0 .2 0 1-.2l-.4.7zm2.2 1.1c.4-.3.5-.9.5-1.3-.7 0-1.6.3-2.3.7.2.4 1.2.6 1.8.6zm3.1-10.7c1-.5 1.4-1.1 1.4-2.3-1.4 0-1.4 1.3-1.4 2.3zm.7-2.5c.6-.5 1-1.1 1.2-1.8-.4 0-1 0-1 .5 0 .2 0 .5.3.5-.2 0-.8.3-.8.4.1.1.1.3.3.4zm.2-2c.5 0 1.4-.1 1.4-.7l-.5-.3c.1 0 .2.1.2.1.7 0 .8-1.1.8-1.4-1.1-.1-1.9 1.3-1.9 2.3zm.6-2.5c.3 0 1.3-.1 1.3-.7 0-.2-.3-.2-.4-.2-.8.1-.9.1-.9.9zm.5-2c.2 0 .6-.2 1.3-.6-.1-.2-.3-.2-.5-.2-.5 0-.7.4-.8.8zm0 .7h1.1v-.5c-.5-.1-.9.2-1.1.5zm5.1-.6c0-.9-.8-3.9-1.9-3.9-.5 0-.9.1-1.4.5l.5-.5c0-.1-.4-.2-.5-.2-.9 0-.8 1.2-.8 1.8h.6c-.2.2-.8.6-.8 1.1.4 0 .9-.2 1-.6.1.5.9 1 1.3 1s.6-.4.8-.8c0 0 .3.3.3.4 0 .1-.6.7-.8.9-.1.3 1.2.3 1.7.3zm-1 .9c.2 0 .7-.3.7-.5h-.2c-.3 0-.4 0-.7.2-.1.1.1.3.2.3zm.9 2c.5 0 .8-.6.8-1.1 0-.6-.3-1.1-.6-1.5-.2.2-1.1.9-1.1 1.1 0 .4.4.4.7.4h.6c-.2.1-.8.5-1 .7.3.4.4.4.6.4zm.3 1.2h1.4s0-1-.4-1.3c-.6.1-1 .9-1 1.3zm.5 1.3c.1-.1.7-.6.7-.8-.1 0-.4-.1-.5-.1-.4 0-.8 0-.8.5.1.3.5.4.6.4zm-.1 1.9s.6.6.8.9c.6-.3.8-.5.8-1 0-.2 0-.5-.2-.5.1-.1.2-.2.2-.4s-.2-.9-.6-.9c-.3 0-.9.8-.9.9 0 .1.3.5.3.7-.1 0-.3.2-.4.3zm1.1 3c1 0 .5-.8 1.6-.9l-.6-1.8c-.5 0-1.1 1-1.2 1.3.2.2.5.4.7.5-.3.3-.5.5-.5.9zm.5.7c.9 0 1.6-.1 1.6-1.1-.8 0-1.1.4-1.6 1.1zm.4 1.8c.6 0 1.3-1 1.3-1.6-.6 0-1.7 0-1.7.8 0 .2.2.8.4.8zm.7 1c.6 0 1.3.1 1.3-.6 0-.4-.1-.9-.5-1.2-.3.4-1 1.3-1 1.4-.1.1 0 .3.2.4zm.5 1.7c.5-.5 1-1.2 1-1.7-.3.2-1.5.3-1.5.6s0 .9.5 1.1zm1.2 2.3h.5l-.5-.2c.2-.3.5-.7.5-1.1-.5 0-1 .1-1.6.2.1 1 .5 1.1 1.1 1.1zm-.9-1.7c.5 0 1.2 0 1.2-.7 0-.2 0-.6-.2-.7-.6.3-1 .8-1 1.4zm1.3 3.5h.1l1.5-1.3v-.3c-.8 0-1.5.4-2.3.4 0 .1.3 1.2.7 1.2zm1.3.3c1.2 0 1.4-.7 1.4-1.7-.9 0-1.4 1-1.4 1.7zm.3-2.7c1.2 0 1.8-.7 2-1.8-.3.3-1.3 1.3-2 1.8zm.8-1.4c1.4 0 2-1.9 2-2.8-.8.7-1.8 1.5-1.8 1.7 0 .1.4.3.6.3-.3 0-.8.2-1 .5 0 .1.1.3.2.3zm.5-2.4c.7 0 1.3-.9 1.6-1.2h-1.6v1.2zm1.2-1.6c1.2 0 1.4-1.1 1.4-2-.6.1-2 1-2 1.8-.1.1.3.2.6.2zm-.5-1.6h.1c.2 0 .7-.5.7-.8-.4 0-.6.4-.8.8zm.8-1.3c1.5 0 2-.7 2-2.3-.9.4-1.8 1.5-2.3 2l.3.3zm0-1.2c.5-.6 1.2-.9 1.8-1.5h-.3c-1.2-.1-1.5.1-1.5 1.5zm.2-2c1.8 0 2.6-.2 2.6-2.4-.9.8-2.6 1.9-2.6 2.4zm.1-1.5c1 0 1.6-.9 2.3-1.3h-.7c-1.2 0-1.6.7-1.6 1.3zm.7-4.1c-.3 0-.6.8-.6 1v.2c.8-.3 2.2-1.1 2.3-1.3h-1.7zm.2 2.3c1.6 0 2.1-.6 2.1-2h-.3l-2.3 1.7c.2.1.5.2.5.3zm0-4.3v.5c.5-.3 1.6-.9 2-1.6h-.1c-.7 0-1.9.1-1.9 1.1zm.3-1.3s1.6 0 2-.3v-1c-.5 0-1.4-.2-1.8-.3-.3.1-.3.3-.3.5 0 .4.3.3.3.5.1.2-.1.6-.2.6zm0 2.8c1.3 0 2.3-.3 2.3-1.7 0-.1-.2-.4-.3-.4-.5.6-2 1.1-2 2.1z"/></g><g><path class="st14" d="M72 177.3c0-10 1-20.1 1-30.3 0-3-1-5.8-1-8.8 0-5.9 1.7-11.6 1.7-17.2 0-2.2-.7-4.2-.7-6.4 0-3 18.7-3.3 29.7-3.3h6.6c8.2 1 21.9 8.5 24.4 13.6 4.8 3.3 9.2 17.8 9.2 24.2 0 9.2-2.2 16.4-6.9 24.2-.7 1.1-1 3.6-2.9 3.7l.6.7-1.4.8.8.5c-2.9 4.2-12.6 6.9-16.3 7.6-13.1 1.3-25.3 2-37.9 3-2.5.2-3 1.6-5.1 1.6-1 0-1.8 0-1.8-1.6.1-1.8 0-10.5 0-12.3zm4 2.7c0 .8.5 4.5.6 5.2 3.9 0 11.6-.1 13.5.8 0-.2.6-1.4.7-1.6 1.1 0 1.8.7 3 .7 6.3 0 12.4-2.2 18.7-2.2h4.5c1.3-1.3 4.1-1.8 6-1.8 0-.4-1-1-1.8-1.2 2.7 0 6-.5 8.3-2.2-.1-.2-2.5-1.8-4.8-1.8-1.1 0-4.7 3.6-5.5 4-5.3 2.2-13.5 1.9-19.5 2.2-1 .1-9.9.8-11.1.8-1.2 0-9 0-9.5-2.2 0-.4-.1-2.2-.1-2.6 0-3 .6-3.4.6-4.8 0-.7-.4-2.5-1.3-3 1-.4 1.3-4.9 1.3-5.2 0-2.5-.6-4.7-.6-6.9s.7-2 .7-3.5c0-2.2-1.1-2.9-3.5-2.9 0 3.7.1 9.4-1 13.2l.8.7v5.2c-.4 0-.8.6-.8.7 0 .4.8 2.8.8 3 0 .4-.8 2.6-.8 3-.1.5.6 2.1.8 2.4zm-.5-46.1h4.9c0-1.9-1.6-3.5-1.6-5.5 0-1.6.7-2.3.7-4 0-1.1.1-2.2-.6-3.1-2.5 1-3 3.5-3 6 .1 1.8 1.6 2.5-.4 6.6zm1.2 17.1h2.8v-8.8c0-1.4-1.8-2.4-2.9-2.6h4c0-.1-.6-4.1-1.1-4.1h-3.9c0 5.5 1.1 10.3 1.1 15.5zm-.3-30.1c2.7 0 11.2-3.5 12.9-4.8h-4.2c-4.2-.1-8.7-.7-8.7 4.8zm6.9 57.8l1.4.5c.7.1 5.7.4 7.1.4 11.7 0 25.3-.5 33.1-9.9.1.1.2.1.2.1 2.8 0 5.7-16.3 5.7-19.9 0-3.5-3.7-17.1-6.6-18.1-1.3-.4-3.4-.1-3.4-1.9 0-.5.1-1 .2-1.2-2.5-1.3-7.9-4.9-8.1-5.2-5.3-1.8-10.6-3.7-16.4-3.7-3 0-11.9 1.1-12.5 2.3l-.8 1.4c0 13.4-.8 26.5-.8 40 .1 5.9-.1 14.7.9 15.2zm17.1-61.8c1.1 0 4.7-1.9 5.2-2.2h-.7c-1.3.1-7.6.5-8.9.6.4 1.1 4 1.6 4.4 1.6zm8.7 1.3c.4 0 2-.6 2.5-1.3-.4-.8-.8-.8-1.6-.8s-1.4.1-2.2.8v-1.7c-.4 0-2.4.8-3 1.7.8.8 2.7 1.3 4.3 1.3zm26.5 30c.8 0 2.9 0 2.9-1.3 0-.2-1.7-1.1-2.4-1.4h3.9v-1.1l-3-1.6c.4 0 .7-.8.7-1.1 0-.6-.8-.7-1.6-1 1.2-.7 1.6-1.2 1.6-2.4 0-1-.5-1.4-1.6-1.4-.8 0-1.4.1-2.3.8.5-.4 1.4-2 1.6-2.3 0-5.7-6.4-10.8-9.8-14.2h-.6c-.8-.2-4.5-1.2-5.2-1.4 0-1.8-5.8-2.2-6-2.2-.4.1-2.6 1.1-3 1.6 1.8 1.1 3.4 1.3 5.4 1.3 0 1.7 1.2 2.4 3.3 2.4.5 0 1.6 0 1.7-.8v2.3h3.9l-1.6 1.4c.7-.1 5.9 4.7 5.9 5.5h1.6c-.4.7-1 1.2-1.4 1.8 1.9 2.4 1.8 4.9 4.3 6.7-1.3 0-1.6.6-1.6 1.3 0 3.4 3.1.6 3.1 3.7 0 .2-1.7.8-1.7 1.1 0 .1 0 .1.1.1 0 1.5.4 2.2 1.8 2.2zm-8.1 27.5c3.1 0 7.1-2.2 7.1-6 0-1-.1-1.6-1.4-1.6 2.5 0 4.3-1.7 4.3-4.3 0-1-1.8-1.2-2.9-1.6 1.1-.4 1.8-1.4 3-1.4.2 0 .5 0 .7.1.4-1.7.7-4.6.7-4.8-.7 0-5.3 0-5.3 1.7 0 .1.8 1.3.8 1.3-.1.5-1.1 1.7-1.4 1.8l.6.6c-2.5 0-1.7 4.6-2.2 5.9 0 .5-1.6 1.6-1.6 1.9 0 .2 0 .4.1.4l-5.2 5.2c.8.6 1.7.8 2.7.8zm2.6-3.5c-.6 0-1.6-.1-1.6-.4 0-.2.7-.2 1.4-.2s1.6 0 1.6.2c-.2.2-.8.4-1.4.4zm3.3-16.5c4.7 0 6.7-3 6.7-7.7-3.6 0-6.7 4.5-6.7 7.7zM191.5 179.5c0-3-6.3-10-8.2-12.8-.6-.8-3.9-5.7-4.5-6.6-3.5-.7-4.9-.8-8.3-.8-4.9 0-6.6.7-6.6 5.9 0 6.3 1 12.2 1 18.8 0 2.6-.2 5.1-2.3 6.6-1.3.2-6.5.7-7.6.7-2 0-2.3-.8-2.3-2.5 0-7.7 1.7-15.3 1.7-23.1 0-2.5-.1-3.5-.8-6.3v-25.3c0-1.6-1.4-3.6-1.4-4.5 0-1.2.7-2.4.7-3.9 0-2.2-2.2-8.3-2.3-9.5 0-4.8 1.7-6 7.3-6 3.1 0 5.2.8 7.9.8 2.2 0 6.6-.8 11.7-.8 5.4 0 15.2-.4 20 3.7 1.4 1.3 5.2 5.2 5.2 5.2v1.6h.7c.2 3.4 1.6 5.9 1.6 10.5 0 5.8-1 12.3-4.5 17-1.3 1.7-4.9 5.3-5.2 5.3-.4 0-.6-.1-.8-.1-1.8 0-1.3 1.6-2.3 1.6-.6 0-1.7-.6-1.7-1l.2-.5 3.6-3.7c-.1-.1-1.2-.2-1.4-.2-2.9 0-2.4 3.4-4.5 4-.6.1-3.7 1.2-4.5 1.4.7 1.6 2.9.6 3.7 2.2l-1.4 1.6h3.3c0-.4-.4-1.2-.4-1.9 0-.5.2-1 .8-1.2 1 3.1 3.7 5.4 5.3 8.3 2.8 7.9 7.1 15.3 14.2 25.9 0 2-6 2.3-7.7 2.3-4.9 0-2.6-4.3-5.2-4.3l-5-8.4zM163 117.1c.1 0 .8-.1 1-.1l-2.2-2.3.8-.7c-2-.5-3.1-.7-4.9-.7-1.1 0-1.7 0-2.7.7.5.6 1.3 1.7 1.9 1.7.5 0 1-.2 1-1 1.7 1.2 3.2 2.4 5.1 2.4zm-6.4 10.5c0 2.9 2.2 7.2 2 7.8 1.1-1.3 1.3-2.7 1.3-3.6 0-1.1-1.2-6.6-1.2-6.6-1.5-.1-2.1 1.1-2.1 2.4zm.8 34.8c.7-.7 2.2-2.2 2.2-3.4 0-1-.8-1.3-1.7-1.3-.8 0-1.3.4-1.3 1.7 0 .5.5 2.5.8 3zm2.4 24.5c1.6 0 1.9-7.7 1.9-9.3 0-1.2-.1-2.7-1.1-2.7-1.8 0-3.4 2-3.4 3.7 0 .6 0 1.3.6 1.6-.8.4-1.2 2.3-1.3 2.9 1.2 0 3.5-3 4.1-3 0 0 .2.1.4.1-.5 2.3-3.7 2.9-3.7 5.2 0 1.3 1.3 1.5 2.5 1.5zm-2.4-33.4l.6-1.1-.8-2.3.2 3.4zm-.1 21.2s.1.8.1 1c1.3-.7 2.6-1.7 3.6-2.9-.2 0-1.3-.1-1.4-.1-1.8-.1-2.3.2-2.3 2zm.6-5.7c1.6-.8 2.5-1.6 2.5-3 0 0-.1-.6-.1-.7-1.1.5-2.9 1.6-2.9 2.9 0 .3.4.8.5.8zm-.1 2.7c2.8 0 3.4-.6 4-3.5h-.7c-1.6 0-3.3 1.7-3.3 3.5zm.8-7.7c1.4 0 2-1.3 2.4-2.3-1 .3-2.4 1-2.4 2.3zm10.2-15.6c4.3 0 6.4 0 9.3-1 8.2-1.2 15.1 0 15.1-9.3 0-4.7-1-8.4-3-13-5.9-3.9-13.5-3.9-20.1-3.9-3 0-5.9-.2-7.3 2.4.6 4.9.7 6.4.7 14.9 0 3.5-.1 6.9-.1 8.1.8 1.6 3.2 1.8 5.4 1.8zm-3.7 5.1c.2 0 1.1-.1 1.1-.8h-2.3c.4.7.9.8 1.2.8zm5.2-35.8c1.9 0 3.4.1 3.4-.7l-1.4-3h-6l-1.4 1.6c.7 2 3.4 2.1 5.4 2.1zm-.9 34.5c0 .7 8.2 1 8.7 1.3.7-.4 1-1 1-1.7l-9.7.4zm7.7-34.5c1.2 0 2.2-.8 3.6-.8 0-1.1 0-3.5-1.1-3.5l-5.9.6c1 .7 2 3.7 3.4 3.7zm6.5 40.4c0-1.2-1.3-2.7-2.6-2.7-.1 1.9.5 2.7 2.6 2.7zm2.7-38.9c.8-1.4.4-2.3 1.4-3.6l.7.7c.7-.4.7-1 .8-1.1 0-.1-.2-1.2-.8-1.2h-7.2c.1 3.3 1.8 5.2 5.1 5.2zm-4.5 35s4-1 4.6-2.4c-.1 0-1.3-.1-1.6-.1-1.5 0-3 .5-3 2.5zm1.5 6.5h1.4v-.6h-1.4v.6zm8.5 3.3c0-2.4-1.9-2.4-4.1-2.4-1 0-2.2.1-2.2 1.1 0 .1.1.4.1.5 1.9.4 4 .8 6.2.8zm-4 2.3c.7 0 2.5 0 3-1h-3v1zm14.1-38.1c0-.1.1-.2.1-.5 0-2.8-3.9-11.6-7.6-12.2-.6-.1-3-.6-3.6-.8-1 1-1.1 3.7-1.1 5.2v1c1.9 0 2.9-.7 4.6-.7 0 .1.1.4.1.5 0 .2-1.8 2-2.2 2.3l.7.8 6.6 1.4s.1.2.1.4c0 .7-.7 1.3-1.4 1.3v.5l3.7.8zm-4.4 54.3c.8 1.4 3.5 5.2 3.6 5.2h2.3c-1.4-4.7-4.1-7.5-5.9-11.2-1.3-1.9-3.5-10.1-5.3-10.5-.4.2-2.2.8-2.2 1.6.7 0 2.2.5 2.2 1 0 1-.8 1-.8 2s.4 1.4 1.6 1.4c.2 0 .5-.1.8-.1l-1.6.8c0 1.2.2 1.6.6 1.6.5 0 1.2-.5 1.8-.5.1 3.4.9 5.3 2.9 8.7zm-4.5-35h2.4c0-.1-.6-.7-1-.7-.2 0-1.3.6-1.4.7zm.2-22.3c0 .4.1.7.6.7.2 0 .5-.4.5-.7 0-.4-.2-.7-.5-.7-.5 0-.6.3-.6.7zm6 15.5c2.8 0 2.8-8.2 2.8-9.5h-1.9c0-.2-.5-.6-.5-.8 0 0 1.4-.6 1.6-.7-1.8-1.1-4.6-1.1-6.4-1.1 0 2.4 3.1 6.6 4.8 7.8 0 .2-.4.7-.6.7-1.1 0-1.4-1-2.6-1-.1 2.1.2 4.6 2.8 4.6zm-3.5 4.8c1.6 0 2.5-.4 2.5-2-1.3 0-2.5.4-2.5 2zM219.9 176c2.8-7.7 4-15.7 6.7-23.1 2-5.7 4.3-9.6 6-15.7l.6-.6c.6-2.3 1-8.7 4-8.7 0-2.3 4-16 5.7-17.3 10.6 0 11.6-.4 14.2 7.5 0 .1 1.3 2.5 1.4 2.9 0 .4-.1 1-.1 1.1 2.3 0 1.7 7.2 4.6 9.4-.2 0-.8.5-.8.6 0 1.7 1.6 3.4 1.6 5.2h1.6c-.2.2-.7 1.2-.7 1.6 0 1.1 2.8 4 2.9 5.2.6 2.9 1 7.1 2.3 9.8 2.3 4.6 3.3.5 4.5 10.4 1 8.1 6.7 17.7 9.5 25.2 0 2.2-1.9 2.4-4 2.4-2.5 0-4-1.7-6.3-1.7-1.2 0-2.3.7-3.4.7-1.3 0-2.8-6-4.2-9.6-1.3-3.4-4.3-12.5-8.9-12.5-3.1 0-6.1.7-9.3.7-4.9 0-9.3-.7-15.1-.7-1.3 4.8-1.7 6.6-5.3 14.8-1.2 2.6-.4 8.3-4 8.3-3 0-4.6-.4-7.9-1.6-.1-4.4 3.4-11.5 4.4-14.3zm1 11.1c1 0 1.3-2 1.3-2.2h-1c.7-.8 3.3-3.5 3.7-5.2-.1 0-1-.1-1.1-.1-2.5 0-4.1 3.6-4.1 5.7.2.8.2 1.8 1.2 1.8zm3.3-12.9c0 .1.1.7.1 1 1.7-1 4.6-3.6 4.6-3.6-.4 0-1.4-.1-1.6-.1-1.8-.1-3.1 2.6-3.1 2.7zm1.7-4.2c2.2 0 3.7-1 5.2-3h-.8c-1.8 0-3.5 1.9-4.4 3zm.6-3.7c0 .1.1.7.1.7 1.4-.7 3.4-1.6 4.5-2.9-.2-.8-1.2-.8-1.8-.8-1.9 0-2.8 1.3-2.8 3zm1.4-7.4c0 .1.1 1.2.1 1.4 2.2-1.4 5.7-3 6.7-5.9h-.7c-3.5.1-6.1.7-6.1 4.5zm1.6 2.9h3.1v-2.9l-3.1 2.9zm3.7-14.1c-2 0-2.5 3.9-3 5.2.4-.1 5.7-3.3 8.3-5.2h-5.3zm1.1 17.8h.7c1.6 0 5.7-.2 5.7-2.3 0-1.1-.7-1.6-1.4-1.6-.4 0-4.5 1.9-6 3.1.2.7.5.8 1 .8zm-.6-19.1c5.2 0 6.5-.8 7.7-6.3h-.7c-2.5 3-7 4.7-7 6.3zm.1 7c1.6 0 4-1.4 4-3 0-.1-.1-.4-.1-.5-1.7.8-3.9 1.3-3.9 3.5zm1-10.1c2.9-1.7 9.9-6 9.9-10.5h-.8c-.8 0-7.1 4.3-7.1 5.3 1.8 0 3-.8 4.7-.8-1.2 3.4-7.3.4-7.3 5.3-.1.2.5.7.6.7zm2.8-9.2c0 .1.1.8.1.8 4.1-1.1 7.8-4.2 9.8-8.1l8.9-3c0-4.9-4.9-8.8-4.7-8.8-.4 0-.8.1-1.4.1-.7 0-3.1-1.6-4.3-1.6-3 0-1.8 7.3-3.7 8.8h3c-1.8 3.3-6 1.7-6 7.5 0 1 .2 1.6 1.6 1.6-2.4.1-3.3 1-3.3 2.7zm5.3 24c4.7 0 9.5-.8 14.3-.8 0-3.7-4-10-4-12.4l-5.8-11.2c-1.3 7.6-4.5 15.8-8.9 22.3 0 .1-.1.2-.1.4 0 1.6 3.3 1.7 4.5 1.7zm-.9 7.1c1.8 0 3.5-1.2 4.7-2.5-.4 0-1.3-.2-1.6-.2-1.5-.2-3.1.9-3.1 2.7zm3.6.7c1 0 2 .1 3.1.1 3.1 0 6.4-.5 8.3-3.4-.5-1.2-3.4-1.6-3.9-1.6-1.1 0-3.4 2.5-3.6 3v-1.4c-1.3.7-3.9 1.5-3.9 3.3zm5.5-35.2c1.2 0 3.7-3.5 6-5.3-2.6 0-5.9.4-8.1 2.2 0 .7 1.3 3.1 2.1 3.1zm6.7 17c2.2-1.8 4.5-4.5 4.5-7.5 0-1.3.1-5.3-1.9-5.3-.2 0-1.9 1.1-2.5 1.7l2.9-3c0-.5-2.4-6.7-2.9-6.7h-.7l-5.2 5.2s-.1.4-.1.5c0 1 1.6 1.7 2.3 1.8-1 .1-.8 1.2-.8 1.9s0 2.6 1.2 2.6c.2 0 1.3-.6 1.9-1 0 1.7-.8 2.4-.8 4 1.7 0 3.3-.8 5.2-.8-1 1.8-3.7.8-3.7 3.5-.2 1.2-.4 2.2.6 3.1zm-1 17.6c1.1 0 1.7-.7 1.8-1.9-1.2.1-1.8.7-1.8 1.9zm4.4-11.6c2.6 0 4.2-2.8 4.2-4.9 0-1.6-.6-5.5-2.4-5.5-.5.6-2.5 3.9-2.9 4.5-.4.4-1 .8-1 1.1 0-.1.4 1.1 1 1.1 1.3 0 3.3-.7 4.5-.7l-4.5 2.3-.1.2c0 .7.8 1.9 1.2 1.9zm3.3 14.1c2.9 0 4.5-3.1 4.5-5.5 0-3.7-1-6.1-2.2-10.1-2 0-4 1.8-4.7 3.7h3.7v.7c-1.1 1.3-5.2 5.5-6.6 8.2.2 0 1.3.1 1.4.1 2.8 0 4.8-2.3 7.5-2.3-1.2 1.6-4 2.8-6 3.6.8 1.4 1.2 1.6 2.4 1.6zm-2.4-8.9l1.7-1.4c-1.2 0-1.7.5-1.7 1.4zm5.1 15.7c1.7 0 4-4.1 4-5.7 0-.8.1-3.5-1.1-3.5.2 0-4.2 2.5-4.8 3.9.4 0 .2.7 1.1.7.2-.1 3.9-.7 4-.7-1 1.8-4.5 1.3-4.5 3.6 0 .8.3 1.7 1.3 1.7zm.9 2.1c1.1 0 5.3-.6 5.3-2.5 0-.8 0-2.8-1.1-2.8-.8 0-2.2 2.4-4.2 5.3zm2.7 4.5c.1 0 .2-.1.2-.1l3.9-3.5v-1.2c-1.3 0-5.9 1-5.9 2.5 0 .7 1 2.3 1.8 2.3zm5.5 5.2c1.1 0 1.7-.5 1.7-1.3 0-1.7-1.6-4.7-2.4-6.1-1.1.7-4 2.2-4 3.9.5 0 2-.2 3.3-.8l-2.9 3c.5 1.3 3 1.3 4.3 1.3zM288.6 186.9c1.7-7.8 3-15.4 3-23.4 0-1.3-.1-2.8-.1-4.1l4.6-26.9c0-3.7.6-8.2 1.4-13.2.2-1.7-.1-9 3.3-9 .2 0 1.9.8 2.8.8.1 0 1.8-.8 2-.8 5.2 1.7 17.6 31.2 23.1 35.8 3.3-2.4 5.7-9.8 7.5-12.8.4-.8 4.7-7.2 5.2-8.1 1.1-1.8 5.9-11.3 6.7-13.4.8-2 3.5-2.3 5.5-2.3 1.7 0 5.5.7 5.5 3.9 0 .2-.1.5-.1 1 0 .2.1.6.1 1.1 1.9 19.7 5.8 27 7.3 55.8.2 4.7 1.7 9.5 1.7 14.2 0 4.8-1.8 4.6-5.1 4.6-2.3 0-7.7-.2-7.7-2.8 0-1.7.7-4.9.7-4.8-.6-5.7-.7-14.7-.7-16.4 0-3.5-2.9-19.1-3-19.3l-.7-.7c0-2-.2-14.1-1.4-14.1h-1.6v2.9c0 .4-9.3 21.2-13.4 29.7-1 1.9-1.9 6-4.6 6-3.4 0-5.5-1.9-5.7-5.3-5.9-9.9-12.8-21.2-16.4-32-.1 0-.7-.6-.8-.7-.1 1.2-1.2 7-1.4 8.2 0 6.4-2.4 14.4-2.4 21.3 0 .8 0 1.7.1 2.5l-3.7 25.3c-.2 1.6-2.2 1.7-3.3 1.7-3.3 0-4.7-.4-7.8-2.5-.1-.3-.5-2-.6-2.2zm7.5.7c1.3 0 1.6-1.9 1.6-3.9 0-1.1-.1-2.2-.1-2.8h-1.3c0-.1-.1-.7-.1-.7.1-.4.4-1.3.6-1.6-3.1 0-3.6 4.6-3.6 6.7-.2 1.7 1.5 2.3 2.9 2.3zm0-20.9c4 0 4.5-2.8 4.5-5.5 0-4.5-1.2-4.5-6.1-4.5 0 1 .6 4.7.8 5.7.1.2 2.2 1.8 2.3 2.2-.1.5-1.2 2.1-1.5 2.1zm3.1 3.8c0-.4-.1-1.9-.1-2.2l-1.6.7v-1c-3.1 0-3.1 3.5-3.1 9.3 3.7 0 4.8-3.9 4.8-6.8zm-3.1-17.8v1.6c.6 0 3.4-1.3 4.3-1.6-.1-.4-1.1-.6-1.3-.6-1 0-3 .2-3 .6zm.6-4.4c.4 0 2.2-.4 3-.8-.1-.7-.7-.8-1.3-.8-.4 0-1 .1-1.7.1v1.5zm4.5 2.8c.8 0 .8-.7.8-1.4 0-.5 0-1.1-.8-1.4 0 0-3.9 1-4.6 2.3l4.6.5zm-4.2 5.2c.1 0 4.2 0 4.2-1.7 0-.5-.6-.4-.8-.4-1.5 0-3.4 0-3.4 2.1zm2.2-11c1.7 0 3.6-.6 3.6-1.4 0-.2-.1-.5-.2-.8l-4.3-2.3-.7 1.9h2.2c-.2 1-1.2 1.6-2.2 1.9 0 .6.9.7 1.6.7zm3.8-4.3c0-3.6-.5-5.5-4.3-5.5 0 .8.8 1.4 1.7 1.7-1.2 0-1.6.6-1.6 1.3 0 2 2.8 2.5 4.2 2.5zm-.8-6c2 0 2.5-3 2.5-4.3-3.3 0-3-1.2-5.1-1.2v3.9c.8.2 2.1 1.6 2.6 1.6zm3-10.8c0 .1 0 .2-.1.4 1 0 4.3-1.7 4.3-2.8 0-1.3-2.5-1.9-3.4-1.9-1.4 0-5.8.8-5.8 3.3 1.4 0 3.3-1.3 4.7-1.6-.2 0-.8 1.1-.8 1.4 0 .3 1.1.8 1.1 1.2zm-4.8-6.3c.6 0 1.9-.8 3.1-.8.1 1 2 1 3 1 0-1.3-.5-1.7-1.6-1.7v-1.6c-.4-.2-4.5-.6-4.6-.6v3.7zm2.8 11c2 0 2.9.1 4-2.3-.4 0-4 1.1-5.2 1.6.1.6.6.7 1.2.7zm4.7 0h1.1c.8 0 4.2.1 4.2-1.2 0-.4-1-1.2-1.6-1.8-1.3 1-3.4 2.7-3.7 3zm2.6 3.2c.4 0 1.3-1.1 1.9-1.7-.2 0-1.4-.1-1.6-.1-.5 0-2-.1-2.2.8.5.4 1.9 1 1.9 1zm3.1 4.3c1.3 0 2.5-.1 3.9-.8-.2-.7-.7-1.7-1.3-2.3-.8.4-2.6 1.8-2.6 3.1zm1.7 2.3c.7 0 1.4-.8 2.2-.8h-2.2v.8zm2.2 4.3c.5 0 2.5-.4 2.5-1.6h-3.4c0 .5.3 1.6.9 1.6zm-.1-3h2.4v-1.7c-1.1 0-2.4.4-2.4 1.7zm.6 5.4c1.6 0 3.7-.1 4.7-1.8-.2-.6-.8-.6-1.3-.6-1.6 0-3.4.9-3.4 2.4zm.1 1.8c0 1.2 1.2 1.2 2 1.2 1.3 0 2.9.1 3.3-1.7h-5.2c0 .2-.1.4-.1.5zm3.2 3.3c.2 0 1.2.1 1.3.1 1.2 0 2.2 0 2.9-1 0-.2-1-1.2-1.3-1.4l-.4-.1c-.4 0-2 1.7-2.5 2.4zm1.4 3.2c1.3 0 2.6-.7 2.9-1.7h-2.9v1.7zm3.5 6.7c6 0 10.7-3.1 10.7-9.9-.7.4-1.4.6-2.3.6.4 0 1.6-1 1.6-1.4 0-.5-.8-1.3-.8-2.2.7.2 2.6.7 2.5.7 1.3 0 1.4-2 1.4-3h-2.4c1.7-1.6 6.7-5.7 6.7-9-3 0-6.7 1.6-6.7 4.9 0 .6.7.8 1.4 1.2-3.7.7-5.9 6.1-7.5 8.8l1.6 1c-2.2 1.8-7.2 0-8.2 2.9l.8.7c.4-.2 3.1-.6 3.6-.7.4 0 1.8.1 2.2.1v.6c-1 .6-4.6 2.6-4.6 4.7zm-1.2-2.8c0 .1.1.2.1.2.8 0 1.7-.6 1.7-1.6-.9.1-1.8.3-1.8 1.4zm2.7 4.2c0 .1.2.2.2.6.5 0 1.6-1.1 1.6-1.2 0-.1-.1-.2-.1-.2-.6 0-1.7.6-1.7.8zm1.5 3.1c1.4 0 2-1.7 2.5-2.5-.1 0-.5-.1-.5-.1-1.2.5-2 1.3-2 2.6zm10.6-29c1.7 0 3.3-1 4.6-1.7-.4-.5-1.7-1.6-2.3-1.7-1.7 0-2.3 2.2-2.3 3.4zm14.4-3.2c2.4 0 3.5-.1 3.5-.7 0-.4-.6-2-.7-2.3l-1.6-15.5c-.1 0-.7-.1-.7-.1-2.3 0-4.7 2-6 3.7.7 1.8 3.7 1.2 5.3 2.2-1.4 2.4-5.5 1.7-5.9 4.1h5.9l.7 1.2c-2.3 1.2-12 1.7-12 4.8 0 .1.1.2.1.4l2.9-.7-.5-.7c.5-.1 4.2-.7 5.1-.7h.7l-.7.7c2.2 1.2.8 3.6 3.9 3.6zm-9 0c.7 0 1.3-.2 2-.7 0-.2-.5-.8-.7-.8-.5 0-2.5.6-3.1.8.5.7.9.7 1.8.7zm0-6.8h3.5c-.7-.7-1.3-.8-2.2-.8-.7 0-1.2 0-1.3.8zm2-4.3c1.2 0 1.8.2 3-1-.2-.7-1-.7-1.6-.7-.9 0-1.4.2-1.4 1.7zm7.5 5.8h-2.3l2.3-.7v.7zm.2 8.9c1 0 2-.6 2.8-1.4-1.8-.4-4.5-.7-4.7-.7 0 .9 1.5 2.1 1.9 2.1zm.5 2.1l2.9 1v-2.5c-.6 0-3 .2-3 1.3 0 .1 0 .2.1.2zm.7 3.1c.7-.4 1-.8 1-1.6-.7 0-1.2.2-1.7.8l.7.8zm3.1 4v-4.1c-1.3 0-3.1.8-3.1 2.2-.1 1.8 1.5 1.9 3.1 1.9zM357 149s3-.5 3-1.1c0-1.2-1.6-1.3-2.3-1.3-.2 0-.7.1-.7.1v2.3zm3.6 3.7c1 0 1.1-2.2 1.1-3.1-1.2 0-4.1.4-4.1 2 0 .1.1.4.1.5.4.2 2.4.6 2.9.6zm-2.3 3.1c1.3 0 2.5-.7 3.1-1.6-1-.2-2.2-.8-3.1-.8v2.4zm3.1 4.9v-4.5c-1.2 0-2.8 1.4-3.1 1.8 0 2 1.3 2.7 3.1 2.7zm-2.2 1.7c.6 0 1.2-.2 1.4-1h-1.4v1zm3 4.6v-4.6c-1.4.5-3 1.6-3 3.3 0 1.4 2.1 1.3 3 1.3zm-2.7 6.5h3.4v-3.1c-1.6 0-3.4 1.4-3.4 3.1zm.5-3l2.2-2.2H360v2.2zm0 5.4c.5 0 1.8 0 2.2-.8H360v.8zm1.4 10.2c2.3-.4 3-.7 3-2.2 0-1.6-.5-7.6-1.9-7.6-.8 0-2.5.8-2.5 1.9 0 1.4 1.4 7.6 1.4 7.9zM381.8 176c2.8-7.7 4-15.7 6.7-23.1 2-5.7 4.3-9.6 6-15.7l.6-.6c.6-2.3 1-8.7 4-8.7 0-2.3 4-16 5.7-17.3 10.6 0 11.6-.4 14.2 7.5 0 .1 1.3 2.5 1.4 2.9 0 .4-.1 1-.1 1.1 2.3 0 1.7 7.2 4.6 9.4-.2 0-.8.5-.8.6 0 1.7 1.6 3.4 1.6 5.2h1.6c-.2.2-.7 1.2-.7 1.6 0 1.1 2.8 4 2.9 5.2.6 2.9 1 7.1 2.3 9.8 2.3 4.6 3.3.5 4.5 10.4 1 8.1 6.7 17.7 9.5 25.2 0 2.2-1.9 2.4-4 2.4-2.5 0-4-1.7-6.3-1.7-1.2 0-2.3.7-3.4.7-1.3 0-2.8-6-4.2-9.6-1.3-3.4-4.3-12.5-8.9-12.5-3.1 0-6.1.7-9.3.7-4.9 0-9.3-.7-15.1-.7-1.3 4.8-1.7 6.6-5.3 14.8-1.2 2.6-.4 8.3-4 8.3-3 0-4.6-.4-7.9-1.6-.1-4.4 3.4-11.5 4.4-14.3zm1.1 11.1c1 0 1.3-2 1.3-2.2h-1c.7-.8 3.3-3.5 3.7-5.2-.1 0-1-.1-1.1-.1-2.5 0-4.1 3.6-4.1 5.7.1.8.1 1.8 1.2 1.8zm3.2-12.9c0 .1.1.7.1 1 1.7-1 4.6-3.6 4.6-3.6-.4 0-1.4-.1-1.6-.1-1.7-.1-3.1 2.6-3.1 2.7zm1.7-4.2c2.2 0 3.7-1 5.2-3h-.8c-1.7 0-3.4 1.9-4.4 3zm.6-3.7c0 .1.1.7.1.7 1.4-.7 3.4-1.6 4.5-2.9-.2-.8-1.2-.8-1.8-.8-1.8 0-2.8 1.3-2.8 3zm1.5-7.4c0 .1.1 1.2.1 1.4 2.2-1.4 5.7-3 6.7-5.9h-.7c-3.6.1-6.1.7-6.1 4.5zm1.5 2.9h3.1v-2.9l-3.1 2.9zm3.8-14.1c-2 0-2.5 3.9-3 5.2.4-.1 5.7-3.3 8.3-5.2h-5.3zm1 17.8h.7c1.6 0 5.7-.2 5.7-2.3 0-1.1-.7-1.6-1.4-1.6-.4 0-4.5 1.9-6 3.1.2.7.6.8 1 .8zm-.6-19.1c5.2 0 6.5-.8 7.7-6.3h-.7c-2.5 3-7 4.7-7 6.3zm.2 7c1.6 0 4-1.4 4-3 0-.1-.1-.4-.1-.5-1.8.8-3.9 1.3-3.9 3.5zm.9-10.1c2.9-1.7 9.9-6 9.9-10.5h-.8c-.8 0-7.1 4.3-7.1 5.3 1.8 0 3-.8 4.7-.8-1.2 3.4-7.3.4-7.3 5.3-.1.2.5.7.6.7zm2.8-9.2c0 .1.1.8.1.8 4.1-1.1 7.8-4.2 9.8-8.1l8.9-3c0-4.9-4.9-8.8-4.7-8.8-.4 0-.8.1-1.4.1-.7 0-3.1-1.6-4.3-1.6-3 0-1.8 7.3-3.7 8.8h3c-1.8 3.3-6 1.7-6 7.5 0 1 .2 1.6 1.6 1.6-2.3.1-3.3 1-3.3 2.7zm5.3 24c4.7 0 9.5-.8 14.3-.8 0-3.7-4-10-4-12.4l-5.8-11.2c-1.3 7.6-4.5 15.8-8.9 22.3 0 .1-.1.2-.1.4 0 1.6 3.3 1.7 4.5 1.7zm-.8 7.1c1.8 0 3.5-1.2 4.7-2.5-.4 0-1.3-.2-1.6-.2-1.6-.2-3.1.9-3.1 2.7zm3.6.7c1 0 2 .1 3.1.1 3.1 0 6.4-.5 8.3-3.4-.5-1.2-3.4-1.6-3.9-1.6-1.1 0-3.4 2.5-3.6 3v-1.4c-1.4.7-3.9 1.5-3.9 3.3zm5.4-35.2c1.2 0 3.7-3.5 6-5.3-2.6 0-5.9.4-8.1 2.2 0 .7 1.4 3.1 2.1 3.1zm6.7 17c2.2-1.8 4.5-4.5 4.5-7.5 0-1.3.1-5.3-1.9-5.3-.2 0-1.9 1.1-2.5 1.7l2.9-3c0-.5-2.4-6.7-2.9-6.7h-.8l-5.2 5.2s-.1.4-.1.5c0 1 1.6 1.7 2.3 1.8-1 .1-.8 1.2-.8 1.9s0 2.6 1.2 2.6c.2 0 1.3-.6 1.9-1 0 1.7-.8 2.4-.8 4 1.7 0 3.3-.8 5.2-.8-1 1.8-3.7.8-3.7 3.5-.1 1.2-.2 2.2.7 3.1zm-.9 17.6c1.1 0 1.7-.7 1.8-1.9-1.2.1-1.8.7-1.8 1.9zm4.3-11.6c2.6 0 4.2-2.8 4.2-4.9 0-1.6-.6-5.5-2.4-5.5-.5.6-2.5 3.9-2.9 4.5-.4.4-1 .8-1 1.1 0-.1.4 1.1 1 1.1 1.3 0 3.3-.7 4.5-.7l-4.5 2.3-.1.2c0 .7.8 1.9 1.2 1.9zm3.4 14.1c2.9 0 4.5-3.1 4.5-5.5 0-3.7-1-6.1-2.2-10.1-2 0-4 1.8-4.7 3.7h3.7v.7c-1.1 1.3-5.2 5.5-6.6 8.2.2 0 1.3.1 1.4.1 2.8 0 4.8-2.3 7.5-2.3-1.2 1.6-4 2.8-6 3.6.7 1.4 1.2 1.6 2.4 1.6zm-2.4-8.9l1.7-1.4c-1.3 0-1.7.5-1.7 1.4zm5 15.7c1.7 0 4-4.1 4-5.7 0-.8.1-3.5-1.1-3.5.2 0-4.2 2.5-4.8 3.9.4 0 .2.7 1.1.7.2-.1 3.9-.7 4-.7-1 1.8-4.5 1.3-4.5 3.6 0 .8.4 1.7 1.3 1.7zm1 2.1c1.1 0 5.3-.6 5.3-2.5 0-.8 0-2.8-1.1-2.8-.8 0-2.3 2.4-4.2 5.3zm2.6 4.5c.1 0 .2-.1.2-.1l3.9-3.5v-1.2c-1.3 0-5.9 1-5.9 2.5 0 .7 1 2.3 1.8 2.3zm5.6 5.2c1.1 0 1.7-.5 1.7-1.3 0-1.7-1.6-4.7-2.4-6.1-1.1.7-4 2.2-4 3.9.5 0 2-.2 3.3-.8l-2.9 3c.4 1.3 2.9 1.3 4.3 1.3z"/></g><g><path class="st14" d="M68 236.8v-3.2l-.4-.4v-24.4c-.4-.1-.5-.5-.5-.9s-.1-1.3.9-1.5c.1 0 1.7.4 1.9.4.2 0 .7-.2.9-.4v.3c6 0 12-.7 18.1-.7 1.4 0 4.4.2 4.4 1.9v3.9c0 .3-.4.3-.7.3-3.2 0-6.4-.3-9.6-.3-.9 0-1.6.3-2.5.3-.8 0-6.7-1.1-6.7.8v5c-.1 0-.3.6-.3.7 0 1.7.1 4.8.7 5.4 2.2.4 4.9.4 7.4.4 1.5 0 2.8-.1 4.1-.1.2 0 2.3 1.2 2.7 1.2.2 0 .6-.5 1.1-.5.1 0 .3.2.3.4-1.1 1.5-.7 1.5-1.1 3.4-.2.8-3.1.9-4.4.9-3.2 0-5.4-1.2-8.6-1.2-.8 0-.9-.4-1.1-.4-1.4 0-1.5.3-1.5 1.7 0 1.1.2 7 .7 7.1v10.6c0 .7-.7.8-1.1.8-.3 0-.6-.1-.7-.4-.2 0-2 .7-3.3.7-.4 0-1.3-1.1-1.3-1.5-.2-3.1.6-6.9.6-10.3zm3.3-12.4c.3 0 .9-.6.9-.8 0-.6-1.2-1.8-1.5-1.9.2.1.4.1.5.1.6 0 .6-.6.6-.9 0-.9-.4-1-.4-1.5 0-1.7 1.2-3.8 1.2-5.7-.8 0-1.7-.2-2.4-.4 0-.4 1.1-.5 1.9-.5v-1.7c-.4 0-1.1 0-1.2-.5.8 0 .9-.2.9-.6 0-.4 0-.7-.4-.9l.4-.3h-3.2c0 .7 1 1.3 1.6 1.5-1 0-1.2.1-1.2.7 0 .7.4 1.4.4 2.2 0 1.4-.2 2.5 1.2 3.5h-1.2c1.4 2.3-.1 2-.1 3.4 0 .4 0 1.2.6 1.2.1 0 .1 0 .2-.1-.2-.1-.3-.1-.4-.1-.7 0-.8.5-.8 1.1 0 .3.1 1 .6 1 .1 0 .1-.1.2-.1 0 .2-.5.4-.5.6 0 .1.1.2.1.2.4.3 1.5.5 2 .5zm-1.5 1.6c.7 0 1.2-.4 1.5-.9-.6-.3-1.5-.4-2.4-.4.1.6.2 1.3.9 1.3zm1.3 3.2c0-1-.5-1-.5-2 0-.8.8-.4.8-1.1l-.1-.1c-.6.3-2.3.9-2.3 2 0 .1.1.2.1.2.2.8 1.5 1 2 1zm-1.3 17.5c2.4 0 2.6-1.7 2.6-3.7v-.2-1.5c0-.9-.1-1.9-.2-2.1l-1.2-.5h1.4c0-.1.1-.2.1-.4 0-1-.6-2.9-.6-4.4-.8-.6-1.5-.9-2.4-.9 0 .8-.1 1.9-.1 2.9 0 2.2.2 4.4 2 5h-1.5v3.6l.4.4c-.6.4-.5 1.5-.5 1.8zm1.8-13.9c0-1.9-.7-1.7-.7-3h-1.5c0 2 0 3 2.2 3zm1.8-5.4c.8 0 3.4.1 4.1-1.1-.4.1-.7.1-1 .1-1.9 0-2.8-.6-4.6-.6 0 1.3.8.9 1.5 1.6zm1.1-16.8c.2.1.4.1.5.1.5 0 .6-.2.6-.7 0-.4 0-.7-.4-.9-.5.3-.7 1.2-.7 1.5zm3.4 16.5h1.9c0-.7-.2-.8-.7-.8-.6 0-.9.2-1.2.8zm3.5.8c1.3 0 1.5-.5 1.5-1.6-.9 0-2.2.2-2.7 1.2.3.4.8.4 1.2.4zm-.1-18.3c.8 0 1.7-.7 2.4-1.2H81c-.2 0-.5.6-.5.7 0 .5.6.5.8.5zm2.7 18.3c.7 0 2.4-.1 2.4-1.2H84v1.2zm2.7-18.4c.4-.2 2-.6 2-1.5h-2c-.1 0-.4.9-.4 1.2 0 0 .3.3.4.3zm5 .6c0-.9-.1-1.4-.9-1.4-.6 0-.8.1-1.2.7.1.5 1.1.7 2.1.7zM101.7 247.8h-3.1l-.4-.4v-4.6c0-.2-.4-1.4-.4-1.5 0-.4.4-4.1.4-4.6 0-3.8-.4-16.5-.4-17.9 0-.4.1-.8.1-1.4 0-.7-.8-6.9-.8-10.5 0-.6 3.7-.7 4.6-.7.5 0 2.3-.1 2.3 1.1 0 .5-.5.9-.8 1.2 0 4.1 1.1 8.5 1.1 12.6 0 .7-.3 1.1-.3 1.9.1.6.3 3.6.3 4.3v20.5c0 .1-.2.7-.3.8-.8 0-1.5-.6-1.9-1.2l-.4.4zm-1.6-37.4c0 .2-.6 1.2-.7 1.5 0 0 .2.1.4.1 1.2 0 2-.6 2-1.7 0-1.2-.4-1.9-1.6-1.9-.2 0-1.1 0-1.1.4 0 .2.2 1.3.4 1.5l.7-.4v.5zm-.3 3.9c.9 0 1.6-1.3 1.6-2-.6 0-2 .6-2 1.4 0 .1.2.6.4.6zm1.4 31.3h1.4c.3-1 .4-1.5.4-2.4 0-.7-.4-1-.4-1.4 0-.5.4-.6.4-2 0-.3.1-1.5-.6-1.5-.1 0-1.1.6-1.3.9.3-.5 1.6-1.8 1.9-2.7h-3c0 1.9-.5 3.5-.5 5.5 0 .4.1 2.1.1 2.5.2.9.5 1.1 1.6 1.1zm-1.7-28.3c0 .6.2 1.9.6 1.9 1.2 0 2.1-2 2.1-3.1 0-.3-.6-.4-.9-.4-1.8 0-1.7.4-1.7 1.2-.1.1-.1.3-.1.4zm.3 4.9l-.4 3.1c1.4-.4 3.1-2 3.1-3.5 0-.4-.5-.4-.8-.4-.5 0-1.8.3-1.9.8zm.6 7.3c.8 0 2-1.4 2-2.3h-2.2c-.1.1-.3 1.1-.3 1.3-.1.7.2 1 .5 1zm-.3-14.5h1.7v-1.5c-.4.4-1.7.9-1.7 1.5zm0 19.1h.5l2-1.9v-.4c-2 0-2.5.4-2.5 2.3zm0-13.4h.9c.9 0 1.6-.1 1.6-1.1 0-.3.1-1.1-.5-1.2-.4.4-1.7 1.4-2 2.3zm2.6 5.9c0-.9.1-2.4-.6-2.4l-2 2c0 .2 1.8.4 2.6.4zm-2.1 4.8l2-.4v-2.2c-1.2.5-2.2 1.7-2.4 2.2l.4.4zm-.2 4.3c1.7 0 2.4-.1 2.4-2-.1-.1-.2-.4-.6-.4-.8-.1-1.8 1.7-1.8 2.4zm1.7 4.9c-.4 0-1.2.4-1.5.4.5-.4.6-.4 1.2-.4 0-.1.3 0 .3 0zM113.2 238.1c0-.2.6-6.7 1.3-10.3-.7-2-.8-5.7-.8-9.6 0-2.2.1-4.6.1-6.8-.6-.5-.6-2.2-.6-3.7 0-.4 0-.8.1-.9l.8-.7h4.9l.4.4c.1.1.5 2.8.7 3.8.4 2.4.4 4.9.4 7.4 0 6.3-1.2 12.4-1.2 18.7 0 .8.1 2.8.1 2.9l.7.8c-.2.1-.4.2-.4.6 0 .3.2.8.2 1 .7.1 7.3.2 8.7.2.6.4 1.4.5 2.2.5 3.2 0 4.6-.9 7.2-.9 0 1.2.4 2.2.4 3.3 0 .9-1.3 1.7-1.5 1.7-.2-.1-2.1-.4-2.3-.4-1.4 1-3.2 1.4-5.4 1.4-1.6 0-3.3-.2-4.6-.2-.8 0-2.1.1-3.6.1-3.4 0-7.6-.4-7.6-3.2V238h-.2zm2.1 2.3c0 .4.2 2 .3 2.4.8-.4 1.4-.9 1.9-1.5-.4-.2-.9-.4-1.1-.8.5 0 1.2-.3 1.2-.5s-.2-.4-.5-.6c0-.4.6-1.1.6-1.9H116c1.8-.2 2-1.5 2-3.1-3.2 0-3.2 1.4-3.2 4.6.1.3.5 1.3.5 1.4zm.2-26c1.6 0 3.2.1 3.2-1.9 0-1.2 0-4.9-1.2-4.9-.2 0-1.4.2-2.3.4.1 1.9.4 2.3.8 2.3.2 0 .4-.1.6-.1.2 0 .3.1.4.4-.4 1.4-1.5 2.4-1.5 3.8zm0 5.2c0 .2 0 .9.1 1.1 2.3-.7 3.2-3.7 3.2-5.6-1 0-2.2 1.2-2.8 1.7 0 .9 1.2.6 1.2 1.4 0 .1-.1.2-.1.2-1.1-.1-1.6 0-1.6 1.2zm0 14.5c2.7 0 2.8-2.1 2.8-4.3 0-.4-.1-1.7-.1-2.7-1.1.8-2.4 1.4-2.4 2.9 0 .4.9.4.9.7.2 1.1-1.2 2-1.2 3.4zm.1-18.9c.1 0 .4.1.4.1.4 0 .7 0 .9-.4h-.2c-.2 0-.8 0-1.1.3zm0 7.2c.2.1 1.1.1 1.2.1 1.9 0 2.1-1.1 2.1-3.1h-.6l-2.7 3zm0 1.7c.4 0 1.5-.1 1.5-.6 0-.1-.1-.2-.1-.2l-1.5.4v.4zm0 19.4c.4 0 2.4.1 2.4-.7 0-.2-.2-.7-.4-.9l-2 1.6zm.9 1.6c1.4 0 1.9-.1 2.6-1.5-.1 0-.3-.1-.4-.1-1 0-2.7.2-3.1 1.2.1.3.5.4.9.4zm-.5-17.5c.5 0 1-.7 1.1-.9H116v.9zm.4-2h1.9v-1.7c-.4 0-1.3 1.1-1.9 1.7zm4.9 19.8c.6 0 1.8-1.4 1.9-1.5-.4 0-1.2-.1-1.9.4v-.7c-.5 0-2.8 0-2.8 1.2 1 0 2.5.2 2.8.6zm2.2.2c.9 0 1.9-.1 2.4-.9.1.3.7.8.9.8.7 0 1.5-1.2 1.5-1.8-.9-.1-4.8-.1-4.8 1.9zm4.3-.2c.1 0 .5.1.6.1.4 0 1.1-.5 1.7-.5.1 0 .3.4.4.4.9 0 6.2-.6 6.2-1.6-2.7 0-5 .5-7.7.5l-1.2 1.1zM141.9 245.3c.9-4 1.5-7.9 1.5-12 0-.7-.1-1.4-.1-2.1l2.3-13.8c0-1.9.3-4.2.7-6.8.1-.9-.1-4.6 1.7-4.6.1 0 1 .4 1.4.4.1 0 .9-.4 1.1-.4 2.7.9 9 16 11.9 18.4 1.7-1.2 2.9-5 3.8-6.6.2-.4 2.4-3.7 2.7-4.1.6-.9 3-5.8 3.5-6.9.4-1 1.8-1.2 2.8-1.2.9 0 2.8.4 2.8 2 0 .1-.1.2-.1.5 0 .1.1.3.1.6 1 10.1 3 13.9 3.8 28.6.1 2.4.9 4.9.9 7.3 0 2.5-.9 2.4-2.6 2.4-1.2 0-4-.1-4-1.4 0-.9.4-2.5.4-2.5-.3-2.9-.4-7.5-.4-8.4 0-1.8-1.5-9.8-1.5-9.9l-.4-.4c0-1.1-.1-7.2-.7-7.2h-.8v1.5c0 .2-4.8 10.9-6.9 15.3-.5 1-1 3.1-2.4 3.1-1.7 0-2.8-1-2.9-2.7-3-5.1-6.6-10.9-8.4-16.5-.1 0-.4-.3-.4-.4l-.7 4.2c0 3.3-1.2 7.4-1.2 11 0 .4 0 .9.1 1.3l-1.9 13c-.1.8-1.1.9-1.7.9-1.7 0-2.4-.2-4-1.3-.2-.4-.4-1.2-.4-1.3zm3.8.3c.7 0 .8-1 .8-2 0-.6-.1-1.1-.1-1.4h-.7c0-.1-.1-.4-.1-.4.1-.2.2-.7.3-.8-1.6 0-1.9 2.4-1.9 3.5.2.8 1 1.1 1.7 1.1zm0-10.7c2 0 2.3-1.4 2.3-2.8 0-2.3-.6-2.3-3.2-2.3 0 .5.3 2.4.4 2.9.1.1 1.1.9 1.2 1.1.1.3-.5 1.1-.7 1.1zm1.6 1.9c0-.2-.1-1-.1-1.1l-.8.4v-.5c-1.6 0-1.6 1.8-1.6 4.8 2 0 2.5-2.1 2.5-3.6zm-1.6-9.1v.8c.3 0 1.7-.7 2.2-.8-.1-.2-.6-.3-.7-.3-.4 0-1.5.1-1.5.3zm.3-2.2c.2 0 1.1-.2 1.5-.4-.1-.4-.4-.4-.7-.4-.2 0-.5.1-.9.1v.7zm2.4 1.4c.4 0 .4-.4.4-.7 0-.2 0-.6-.4-.7 0 0-2 .5-2.4 1.2l2.4.2zm-2.2 2.6c.1 0 2.2 0 2.2-.9 0-.2-.3-.2-.4-.2-.8.1-1.8.1-1.8 1.1zm1.1-5.6c.9 0 1.9-.3 1.9-.7 0-.1-.1-.2-.1-.4l-2.2-1.2-.4 1h1.1c-.1.5-.6.8-1.1 1 0 .2.5.3.8.3zm2-2.2c0-1.9-.2-2.8-2.2-2.8 0 .4.4.7.9.9-.6 0-.8.3-.8.7-.1.9 1.4 1.2 2.1 1.2zm-.4-3.1c1.1 0 1.3-1.5 1.3-2.2-1.7 0-1.5-.6-2.6-.6v2c.3.1 1 .8 1.3.8zm1.5-5.5c0 .1 0 .1-.1.2.5 0 2.2-.9 2.2-1.4 0-.7-1.3-1-1.7-1-.7 0-3 .4-3 1.7.7 0 1.7-.7 2.4-.8-.1 0-.4.6-.4.7.1.1.6.3.6.6zm-2.5-3.3c.3 0 1-.4 1.6-.4.1.5 1.1.5 1.5.5 0-.7-.2-.9-.8-.9v-.8c-.2-.1-2.3-.3-2.4-.3v1.9zm1.5 5.7c1 0 1.5.1 2-1.2-.2 0-2 .6-2.7.8.1.3.4.4.7.4zm2.4 0h.6c.4 0 2.2.1 2.2-.6 0-.2-.5-.6-.8-.9-.8.4-1.8 1.3-2 1.5zm1.3 1.6c.2 0 .7-.6 1-.9-.1 0-.7-.1-.8-.1-.2 0-1.1-.1-1.1.4.2.3.9.6.9.6zm1.7 2.2c.7 0 1.3-.1 2-.4-.1-.4-.4-.9-.7-1.2-.4.3-1.3 1-1.3 1.6zm.8 1.2c.4 0 .7-.4 1.1-.4h-1.1v.4zm1.1 2.2c.2 0 1.3-.2 1.3-.8h-1.7c0 .3.1.8.4.8zm0-1.5h1.2v-.9c-.5 0-1.2.2-1.2.9zm.3 2.8c.8 0 1.9-.1 2.4-.9-.1-.3-.4-.3-.7-.3-.8-.1-1.7.4-1.7 1.2zm0 .9c0 .6.6.6 1.1.6.7 0 1.5.1 1.7-.9h-2.7c0 .1-.1.2-.1.3zm1.7 1.7c.1 0 .6.1.7.1.6 0 1.1 0 1.5-.5 0-.1-.5-.6-.7-.7l-.2-.1c-.2-.1-1 .8-1.3 1.2zm.7 1.6c.7 0 1.4-.4 1.5-.9h-1.5v.9zm1.8 3.4c3.1 0 5.5-1.6 5.5-5.1-.4.2-.7.3-1.2.3.2 0 .8-.5.8-.7 0-.2-.4-.7-.4-1.1.4.1 1.4.4 1.3.4.7 0 .7-1.1.7-1.5h-1.2c.9-.8 3.5-2.9 3.5-4.6-1.5 0-3.5.8-3.5 2.5 0 .3.4.4.7.6-1.9.4-3 3.2-3.8 4.5l.8.5c-1.1.9-3.7 0-4.2 1.5l.4.4c.2-.1 1.6-.3 1.9-.4.2 0 .9.1 1.1.1v.3c-.6.2-2.4 1.3-2.4 2.3zm-.6-1.4c0 .1.1.1.1.1.4 0 .9-.3.9-.8-.5 0-1 .2-1 .7zm1.4 2.2c0 .1.1.1.1.3.2 0 .8-.6.8-.6 0-.1-.1-.1-.1-.1-.3-.1-.8.3-.8.4zm.7 1.6c.7 0 1.1-.9 1.3-1.3-.1 0-.2-.1-.2-.1-.6.3-1.1.7-1.1 1.4zm5.5-14.9c.9 0 1.7-.5 2.4-.9-.2-.2-.9-.8-1.2-.9-.9 0-1.2 1.2-1.2 1.8zm7.4-1.7c1.2 0 1.8-.1 1.8-.4 0-.2-.3-1.1-.4-1.2l-.8-8c-.1 0-.4-.1-.4-.1-1.2 0-2.4 1.1-3.1 1.9.4.9 1.9.6 2.7 1.1-.7 1.2-2.8.9-3 2.1h3l.4.6c-1.2.6-6.2.9-6.2 2.5 0 .1.1.1.1.2l1.5-.4-.2-.4c.2-.1 2.2-.4 2.6-.4h.4l-.4.4c1.1.9.4 2.1 2 2.1zm-4.6 0c.4 0 .7-.1 1.1-.4 0-.1-.2-.4-.4-.4s-1.3.3-1.6.4c.2.4.4.4.9.4zm0-3.5h1.8c-.4-.4-.7-.4-1.1-.4-.4 0-.7 0-.7.4zm1-2.2c.6 0 .9.1 1.5-.5-.1-.4-.5-.4-.8-.4-.4.1-.7.2-.7.9zm3.8 3h-1.2l1.2-.4v.4zm.2 4.6c.5 0 1.1-.3 1.4-.7-.9-.2-2.3-.4-2.4-.4 0 .5.7 1.1 1 1.1zm.2 1.1l1.5.5v-1.3c-.3 0-1.5.1-1.5.7v.1zm.4 1.5c.4-.2.5-.4.5-.8-.4 0-.6.1-.9.4l.4.4zm1.5 2.1v-2.1c-.7 0-1.6.4-1.6 1.1 0 1 .8 1 1.6 1zm-1.1 1.8s1.5-.2 1.5-.6c0-.6-.8-.7-1.2-.7-.1 0-.4.1-.4.1v1.2zm1.9 1.9c.5 0 .6-1.1.6-1.6-.6 0-2.1.2-2.1 1.1 0 .1.1.2.1.2.1.1 1.1.3 1.4.3zm-1.2 1.6c.7 0 1.3-.4 1.6-.8-.5-.1-1.1-.4-1.6-.4v1.2zm1.6 2.5v-2.3c-.6 0-1.4.7-1.6.9 0 1.1.7 1.4 1.6 1.4zm-1.2.9c.3 0 .6-.1.7-.5h-.7v.5zm1.6 2.3v-2.4c-.7.2-1.5.8-1.5 1.7-.1.8 1 .7 1.5.7zm-1.4 3.4h1.7v-1.6c-.8 0-1.7.7-1.7 1.6zm.3-1.6l1.1-1.1h-1.1v1.1zm0 2.8c.2 0 .9 0 1.1-.4h-1.1v.4zm.7 5.3c1.2-.2 1.5-.4 1.5-1.1 0-.8-.2-3.9-1-3.9-.4 0-1.3.4-1.3 1 .1.6.8 3.8.8 4zM207.3 236.8v-3.2l-.4-.4v-24.4c-.4-.1-.5-.5-.5-.9s-.1-1.3.9-1.5c.1 0 1.7.4 1.9.4.2 0 .7-.2.9-.4v.3c6 0 12-.7 18.1-.7 1.4 0 4.4.2 4.4 1.9v3.9c0 .3-.4.3-.7.3-3.2 0-6.4-.3-9.6-.3-.9 0-1.6.3-2.5.3-.8 0-6.7-1.1-6.7.8v5c-.1 0-.3.6-.3.7 0 1.7.1 4.8.7 5.4 2.2.4 4.9.4 7.4.4 1.5 0 2.8-.1 4.1-.1.2 0 2.3 1.2 2.7 1.2.2 0 .6-.5 1.1-.5.1 0 .3.2.3.4-1.1 1.5-.7 1.5-1.1 3.4-.2.8-3.1.9-4.4.9-3.2 0-5.4-1.2-8.6-1.2-.8 0-.9-.4-1.1-.4-1.4 0-1.5.3-1.5 1.7 0 1.1.2 7 .7 7.1v10.6c0 .7-.7.8-1.1.8-.3 0-.6-.1-.7-.4-.2 0-2 .7-3.3.7-.4 0-1.3-1.1-1.3-1.5-.2-3.1.6-6.9.6-10.3zm3.2-12.4c.3 0 .9-.6.9-.8 0-.6-1.2-1.8-1.5-1.9.2.1.4.1.5.1.6 0 .6-.6.6-.9 0-.9-.4-1-.4-1.5 0-1.7 1.2-3.8 1.2-5.7-.8 0-1.7-.2-2.4-.4 0-.4 1.1-.5 1.9-.5v-1.7c-.4 0-1.1 0-1.2-.5.8 0 .9-.2.9-.6 0-.4 0-.7-.4-.9l.4-.3h-3.2c0 .7 1 1.3 1.6 1.5-1 0-1.2.1-1.2.7 0 .7.4 1.4.4 2.2 0 1.4-.2 2.5 1.2 3.5h-1.2c1.4 2.3-.1 2-.1 3.4 0 .4 0 1.2.6 1.2.1 0 .1 0 .2-.1-.2-.1-.3-.1-.4-.1-.7 0-.8.5-.8 1.1 0 .3.1 1 .6 1 .1 0 .1-.1.2-.1 0 .2-.5.4-.5.6 0 .1.1.2.1.2.5.3 1.6.5 2 .5zm-1.4 1.6c.7 0 1.2-.4 1.5-.9-.6-.3-1.5-.4-2.4-.4.1.6.2 1.3.9 1.3zm1.3 3.2c0-1-.5-1-.5-2 0-.8.8-.4.8-1.1l-.1-.1c-.6.3-2.3.9-2.3 2 0 .1.1.2.1.2.2.8 1.5 1 2 1zm-1.3 17.5c2.4 0 2.6-1.7 2.6-3.7v-.2-1.5c0-.9-.1-1.9-.2-2.1l-1.2-.5h1.4c0-.1.1-.2.1-.4 0-1-.6-2.9-.6-4.4-.8-.6-1.5-.9-2.4-.9 0 .8-.1 1.9-.1 2.9 0 2.2.2 4.4 2 5h-1.5v3.6l.4.4c-.6.4-.5 1.5-.5 1.8zm1.8-13.9c0-1.9-.7-1.7-.7-3h-1.5c0 2 0 3 2.2 3zm1.7-5.4c.8 0 3.4.1 4.1-1.1-.4.1-.7.1-1 .1-1.9 0-2.8-.6-4.6-.6.1 1.3.9.9 1.5 1.6zm1.2-16.8c.2.1.4.1.5.1.5 0 .6-.2.6-.7 0-.4 0-.7-.4-.9-.5.3-.7 1.2-.7 1.5zm3.4 16.5h1.9c0-.7-.2-.8-.7-.8-.6 0-.9.2-1.2.8zm3.5.8c1.3 0 1.5-.5 1.5-1.6-.9 0-2.2.2-2.7 1.2.3.4.8.4 1.2.4zm-.1-18.3c.8 0 1.7-.7 2.4-1.2h-2.7c-.2 0-.5.6-.5.7 0 .5.6.5.8.5zm2.7 18.3c.7 0 2.4-.1 2.4-1.2h-2.4v1.2zm2.7-18.4c.4-.2 2-.6 2-1.5h-2c-.1 0-.4.9-.4 1.2 0 0 .3.3.4.3zm5 .6c0-.9-.1-1.4-.9-1.4-.6 0-.8.1-1.2.7.1.5 1.1.7 2.1.7zM240.2 247.5c-.8 0-2.7-.2-3.1-1.3 0-3.7.4-7.5.4-11.3 0-4 .1-8.2-.8-12.1v-16.4h7.7c1.2.4 2 .4 3.5.4.4 0 .8-.1 1.1-.4 3.2 0 7.1-.4 8-.4.7 0 4.2.3 4.9.4.1.1.4.6.5.8 0 1.7-.6 2-.6 3.5 0 .2.1.4.1.7l-1.5.4c-1.7-.1-3.5-.2-5.3-.2-4.1 0-8.4.4-12.2 1.4-.4.9-.5 1.5-.5 2.4 0 1.3.5 2.6.5 3.9 0 0-.3 2.5-.4 3.6l.7.7c.1 0 1.5.1 2 .1 2.7 0 3.5-.5 4.5-.5.2.2.4.4.6.4h-.1l.1.1c.2 0 .5-.1.5-.6h6.9c.2.2.6.8.7 1.3l.7-.4c-.4.4-.4.7-.4 1.6 0 .7 0 2.3.1 2.6l-.8.7c-5 0-9.4.2-14.5.5-.1 0-.4-.1-.6-.1-.2 0-.5.1-.5.4v11.5l.4.7c.1.2 4.1.4 6.2.4 1.5 0 4.4-1.1 6.2-1.1.9 0 3 .2 3.1.4l.4.3c.1-.3.4-.4.7-.4.1 0 .4.1.8.1l-.7.3c.1 0 .5-.1.9-.1.8 0 1.1-.1 1.3.5.1 0 .7-.4.8-.4.7.4.9 1.2.9 2 0 1.4.1 3.5-.9 4.5-.2 0-1.5.1-1.7.1-1.9 0-2.9-.1-4.8-1h-15.8zm-.9-36.5h.4c.6 0 4.8-1.9 4.9-2.3-.9-.4-2-.4-3.1-.4-.4 0-3 0-3 .1l-.4 1.9c.4 0 1.3-.4 2-.7l-.8 1.4zm-.8 2c.8 0 1.5-.6 1.9-1.2h-.2c-.8 0-1.7.4-1.7 1.2zm.1 3.5c0 .1.1.5.1.6 1.3-1.1 1.9-1.6 1.9-3.2 0-.1-.1-.8-.1-.9-.5.5-1.8 1.2-1.8 1.5 0 .4.6.5 1 .5.2 0 .4-.1.6-.1-.8.8-1.7.5-1.7 1.6zm0 3.3v2.5c.8 0 2.4-1.4 2.4-2.4 0-.2-.9-.4-1.2-.4-.4 0-1.2.1-1.2.3zm.7 7l2-2v-.5c-.6 0-2.4-.1-2.4.8 0 .6.2 1 .4 1.7zm-.4-8.1c2.2 0 2.1-.2 2.1-2-.9 0-1.7 1.3-2.1 2zm.2 19.4c0 .4.1.7.1.7h.6c.2 0 .7-1.2.7-1.6 0-.4-.2-1.1-.4-1.1l-.1.1c-.8 0-.9 1.1-.9 1.9zm.1-14.4c1.1 0 2-.3 2-1.6-.9 0-2 .6-2 1.6zm0 7.3c.9 0 1.2-.2 1.2-1.1l-.1-.4c-.3.2-1.1.8-1.1 1.5zm.1-2.3c.6 0 1.3-.2 1.3-.9-.6-.1-1.3.1-1.3.9zm.4 4.5c.5-.2.5-.9.5-1.2-.2 0-.9.1-.9.5 0 0 .3.6.4.7zm-.4 9.2c.7 0 .9-.7.9-1.2h-.9v1.2zm.4 3c.6-.6 1.7-1.6 1.7-2h-1v-.7c-.4.2-1 1.6-1.1 1.9v.1c0 .4.2.5.4.7zm-.2-9.7c.9 0 .9-1.2.9-1.8-.9 0-.9 1-.9 1.8zm1.3 9.7c1.1 0 1.3-.2 2-1.2-.7.4-1.3.7-2 1.2zm2.7-18c.7 0 2.5-.5 2.5-1.5h-4.3c-.4 0-.4.6-.4.8h2.3v.7zm0 18c.1 0 .3.1.4.1.3 0 .6-.1.7-.5h-.2s-.6.1-.9.4zm1.9-34.9c0 .1.1.1.2.1.5 0 .7-.2.7-.7 0-.1-.1-.4-.1-.4-.5.2-.8 1-.8 1zm.7 17.3c1.3 0 3.2-1.1 3.9-2.3-.1 0-.7-.1-.9-.1-1.3 0-3 1-3 2.4zm.1 17.6c.1 0 .9.1 1.1.1 1 0 1.9 0 2.3-1.2-.1 0-.6-.1-.7-.1-1 0-2.1.4-2.7 1.2zm1.9-36.6h.4v-.4l-.4.4zm1.2 18.6h1.9c.2 0 .4-1.6.4-1.9h-.4l-1.9 1.9zm1.9 18c.3 0 1.1-.6 1.5-1.2 0 0-.1-.1-.2-.1-.1.1-1 .8-1.3 1.3zm2.6-18.4h3.1c-.4-.5-.9-1.2-1.2-1.9-.8.3-1.6 1.1-1.9 1.9zm0 16.8c.1 0 1 .1 1.2-.4h-.4c-.3.1-.6.1-.8.4zm0 1.2c1.2 0 1.5 0 2.3-.7v.7l3-1.2h-3.8l-1.5 1.2zm1.5-36.6c0 .7.5.8 1 .8.7 0 1.9-.3 1.9-1.2h-2.8c-.1.1-.1.3-.1.4zm2 37v.6c.9 0 1.9-.6 2.4-1.4h-.5c-.4 0-1.9.6-1.9.8zm2.6 1.2c1.6 0 1.7-1.5 1.7-2.7h-1.7v2.7zM272.3 247.1c-.2 0-.4.1-.6.1-2.4 0-4-2.1-4.6-3.8 2.2 0 1.9-4.2 2.7-4.2l5.3 3.1s.6-.1 1.1-.1c.4 0 .7.1.8.4.2 0 .9-.1 1.5-.1 1.8 0 1.7.5 2.4.5 3.3 0 10.7-1 10.7-5.9 0-1.6-1.1-4.5-2.7-5.1l-16.8-7.3c-3.3-1.4-4.6-4.8-4.6-8.2 0-2.3 1.5-4.1 2.6-5.9 2.8-3.8 8.5-4.6 12.9-4.6 1.2 0 1.4.4 4.3.4 1.6.2 5.6 1 5.8 1.1l1.1 1.2v4.6c0 .4-1.1 2-1.4 2-3.5-1.5-7.5-4.4-11.4-4.4-3.7 0-8.9 1.4-8.9 6.1 0 2 3.7 5.1 5.3 5.1.3 0 .7-.1.8-.1 3.8 1.1 4.6 3.8 9.5 3.8 4.1.8 9.2 4.7 9.2 9.2 0 1.9-.8 2.9-1.1 4.6-1.3 4.7-1.2 5.7-6.2 6.5-.1 0-.4.3-.4.4-2.6 1-4.9 1.6-7.6 1.6-3 0-7.4-.4-9.5-.9 0 0-.1-.1-.2-.1zm-2.3-28.4c.6 0 .7-.7.7-1.2h-1.4c0 .4.1 1.2.7 1.2zm.1-2.3c.7 0 .9-.7.9-1.2h-1.7c.1.5.3 1.2.8 1.2zm-.3-2h1.5v-.6c-.3.1-1.4.1-1.5.6zm0 4.9c.1 0 .3.1.3.1.4 0 .9-.2.9-.6 0-.1-.1-.1-.1-.1l-1.1.6zm.3 1.2h.9v-.4h-.9v.4zm1.6 24.9c.5 0 1.2-.3 1.2-1.4 0-.1-.1-.1-.1-.1-.2.1-1.3.6-1.5.7-.1 0-.2-.1-.3-.1v-.2c.2-.1 1.6-.6 1.9-1.2-.1-.2-.7-.4-1.1-.4-1 0-1.3 1.3-1.3 1.7 0 .9.6 1 1.2 1zm-.8-32c1.2 0 1.9-1.1 1.9-2.4-.9.3-1.9 1.3-1.9 2.4zm.4 7.9c.1 0 .4.1.4.1.3 0 .6 0 .8-.4-.2-.3-.5-.5-.6-.5-.2-.1-.5.4-.6.8zm.7 1c0 .2.6.2.9.6.9 0 .9-.7.9-1.2-.8-.1-1.8.2-1.8.6zm1.2 23h.9l-.4-.3c.6-.4 1.2-1.2 1.2-1.5-1.3 0-1.7.8-1.7 1.8zm.5-35.2c0 .1.4.1.5.1.7 0 2.7-.8 2.7-1.6-.9 0-3.2.6-3.2 1.5zm.3 13h1.7c0-.4-.7-.7-1.1-.7-.4 0-.5.5-.6.7zm2.4 22.6c1 0 1.5-1.1 1.5-2-.6 0-3.1 0-3.1 1.5.6.4.9.5 1.6.5zm1.1-21c.2 0 .7-.5.7-.7l-.4-.4-1.9.4c.2.2 1.3.7 1.6.7zm.9 21.4h3.2c.1 0 .3-.3.4-.4 0-1.2-.6-1.5-1.5-1.5-1.9 0-2.1.5-2.1 1.9zm2.2-20.8c0-1-1.5-1-2.1-1 0 1.1 1.3 1 2.1 1zm-.1-16.6c.4 0 1.4-.2 1.4-.7-.2 0-1.4.1-2.1.3 0 .1.6.4.7.4zm11.8 3.8l.8-3c0-.7-8.2-2-10.3-2-.1 0-.4.4-.4.6 0 .6.5.6.9.6.6 0 1.3.1 1.4-.5.2.8.9 1.3 1.5 1.3.4 0 .7 0 .8-.5l1.2 1.1 1.2-1.1v1.2c-.1.1 1.1-.4 1.9-.8.1 0 .3.1.4.1 0 .6-.4 1.2-.4 1.8-.1.7.1 1 1 1.2zm-8.3 14.6c.1 0 .3-.1.4-.1-.7-.3-1.5-.7-2-.7.4.4.9.8 1.6.8zm.3 19.1c.2 0 1.1.1 1.2-.5 2.7-.4 8-1 8.4-4.6-.4-.3-.7-.4-1.2-.4-.7 0-1.1 3.2-2.8 3.2-.1 0-.6-.4-1-.4-1.5 0-3.2.4-4.4.4-.6 0-1.1 0-1.3-.1-.1.1-.7.5-.8.7 0 1 1.1 1.7 1.9 1.7zm.2-1.3c.1 0 .4.3.5.4h-.7v-.3c.1 0 .2-.1.2-.1zm2.1-16.7l.3-.4h-.8l.5.4zm3.4 2v-.6h-.4c.1-.1.4-.5.4-.6 0-.8-.8-.9-1.4-.9-.4 0-1.2-.1-1.3.4.6.7 1.8 1.7 2.7 1.7zm0-19.3l.1.1.7-.8h-.2c-.2 0-.6.4-.6.7zm.7 19.9h2.7c0-.7-1.1-.7-1.5-.7-.7-.1-1.2.1-1.2.7zm2.3 3.7c1.3 0 2.4-1.5 2.4-1.7 0-.9-.9-1.2-1.5-1.2-.1 0-1.9.5-1.9.7v.4l1.9.7c-.6.2-.9.5-.9 1.1zm0 5.7c1.6 0 2.2-1.5 2.2-3-.5 0-1.7.5-1.7 1.1 0 .2.2.7.4 1-.6 0-.9.3-.9.9zm1.3-4c1.7 0 1.6-1 1.6-2.5-.8 0-2.5 1-2.5 1.9.1.6.5.6.9.6zM311.5 214.6v-2.3c0-.9-4.2-.9-5.4-.9-.8 0-1.7.1-2.5.1-.9 0-4.1.1-4.1-.7 0-1.4 1.2-2 1.2-3.8.2-.2.4-.9 3-.9v.6c7.3 0 14.7.4 22 .4 1.2 0 2.4 0 3.7-.1.6.2.7 1 .7 1.7 0 1 .1 1.8-.4 2.4-.8.1-4.2.4-5 .4-2.4.1-4.3.9-6.9 1.1-.4 1.4-.4 3.2-.4 4.8 0 5.7.5 11 .5 16.7 0 5.5-.4 7.1-.4 10.9-.1 1.1 0 2.3-1.6 2.3-.5 0-.9-.4-1.4-.4 0 .1-1.2.4-1.7.4-.3 0-1.5-.9-1.5-1.1l.2-31.6zm-9-5.2c.9 0 3.1.1 3.8-1-.6-.1-3.5-.8-3.8-.8v1.8zm3.8-.3c.8 0 1.4.1 2.3.1.9 0 2-.1 2-.6s-.7-.6-1.2-.6c-1 .1-2.5.7-3.1 1.1zm5.8.5c1 0 1.4-.1 1.9-1.2-.1 0-.7-.1-1-.1-.6 0-1.4 0-1.7.8.1.5.5.5.8.5zm1.3 29.9c0-1.5 1.8-1.8 2.1-3.2h-.2c-.5 0-2.8.8-2.8 2.2 0 .3.8 1 .9 1zm-.2-12.7c.7-.6 1.4-1.5 1.9-2.3 0-.1-.2-.4-.2-.4-1.4 0-2 .4-2 1.5-.1.3-.2 1.1.3 1.2zm0 4.5c.8-.7 1.8-1.6 2.3-2.7-1.1 0-2.7.6-2.7 1.9 0 .5 0 .7.4.8zm.2 13.4c.6 0 2.2-3.1 2.2-3.8h-.6v-1.1l-1.9.7-.4 3.9c.2 0 .4.3.7.3zm-.2-29.8c.6 0 1.9-1.4 1.9-2.5 0-.1-.4-.5-.8-.5 0-2 .7-2.7.7-2.8v1.4c.9 0 2.4-1.2 2.4-2.2-1.8 0-3.9.2-3.9 2.4 0 1.5.4 1.6.4 2.4 0 .3-.5 1-.7 1.8zm0 7.6c.7-.6 1.2-1.1 1.2-1.9 0-.1-.1-.4-.1-.4-1.1.2-1.1 1.3-1.1 2.3zm0 11.1c1.6-.6 2.4-1 2.4-2.7 0-.2-.1-1.1-.1-1.2l-2.3 3v.9zm0 1.6c.2 0 .4-.6.4-.6 0-.1-.1-.2-.1-.2-.2.1-.3.4-.3.8zm.4-6.8c.7 0 2-.2 2-1.2 0-.6-.1-1-.5-1.5-.8.4-1.5 1.6-1.5 2.7zm0 7.9l2.3-1.1s.1-.3.1-.5c0-.3.1-.9-.4-1.1l-2 2.7zm.3-16.8c.1 0 .4.1.4.1.7 0 .8-.9.8-1.5 0-.1-.1-.9-.1-1.3-.3.9-.8 1.8-1.1 2.7zm0 3.5h.9v-1.5l-.9 1.5zm0 22.4c.6-.1 1.2-.5 1.2-1 0-.1-.1-.4-.1-.4-.4.4-.9.9-1.1 1.4zm.3-6.3c1.1 0 1.4-.4 1.6-1.6 0 0-.1-.1-.2-.1-.4.2-1.4.9-1.4 1.7zm.9-25c-.1.6-.7 1.1-.7 1.5 1.8-.6 1.5-2.6 1.5-4.1-.2.4-.7 2.3-.8 2.6zm-.3 27.9h-.5l.5-.3v.3zm3.3-32.4h.4v-.7h-.4v.7zm1.2 0h2.7c.1 0 .4-.5.4-.6 0-.6-.9-.6-1.5-.6-.4 0-.9.1-1.5.1v1.1zm4.2-.5h4.5c0-.6-.6-.7-1.8-.7-.4.1-2.5.3-3 .4l.3.3zM339.3 247.8h-3.1l-.4-.4v-4.6c0-.2-.4-1.4-.4-1.5 0-.4.4-4.1.4-4.6 0-3.8-.4-16.5-.4-17.9 0-.4.1-.8.1-1.4 0-.7-.8-6.9-.8-10.5 0-.6 3.7-.7 4.6-.7.5 0 2.3-.1 2.3 1.1 0 .5-.5.9-.8 1.2 0 4.1 1.1 8.5 1.1 12.6 0 .7-.3 1.1-.3 1.9.1.6.3 3.6.3 4.3v20.5c0 .1-.2.7-.3.8-.8 0-1.5-.6-1.9-1.2l-.4.4zm-1.6-37.4c0 .2-.6 1.2-.7 1.5 0 0 .2.1.4.1 1.2 0 2-.6 2-1.7 0-1.2-.4-1.9-1.6-1.9-.2 0-1.1 0-1.1.4 0 .2.2 1.3.4 1.5l.7-.4v.5zm-.3 3.9c.9 0 1.6-1.3 1.6-2-.6 0-2 .6-2 1.4 0 .1.2.6.4.6zm1.4 31.3h1.4c.3-1 .4-1.5.4-2.4 0-.7-.4-1-.4-1.4 0-.5.4-.6.4-2 0-.3.1-1.5-.6-1.5-.1 0-1.1.6-1.3.9.3-.5 1.6-1.8 1.9-2.7h-3c0 1.9-.5 3.5-.5 5.5 0 .4.1 2.1.1 2.5.2.9.5 1.1 1.6 1.1zm-1.7-28.3c0 .6.2 1.9.6 1.9 1.2 0 2.1-2 2.1-3.1 0-.3-.6-.4-.9-.4-1.8 0-1.7.4-1.7 1.2-.1.1-.1.3-.1.4zm.3 4.9l-.4 3.1c1.4-.4 3.1-2 3.1-3.5 0-.4-.5-.4-.8-.4-.5 0-1.8.3-1.9.8zm.6 7.3c.8 0 2-1.4 2-2.3h-2.2c-.1.1-.3 1.1-.3 1.3-.1.7.2 1 .5 1zm-.3-14.5h1.7v-1.5c-.4.4-1.7.9-1.7 1.5zm0 19.1h.5l2-1.9v-.4c-2 0-2.5.4-2.5 2.3zm0-13.4h.9c.9 0 1.6-.1 1.6-1.1 0-.3.1-1.1-.5-1.2-.4.4-1.7 1.4-2 2.3zm2.6 5.9c0-.9.1-2.4-.6-2.4l-2 2c0 .2 1.8.4 2.6.4zm-2.1 4.8l2-.4v-2.2c-1.2.5-2.2 1.7-2.4 2.2l.4.4zm-.2 4.3c1.7 0 2.4-.1 2.4-2-.1-.1-.2-.4-.6-.4-.8-.1-1.8 1.7-1.8 2.4zm1.7 4.9c-.4 0-1.2.4-1.5.4.5-.4.6-.4 1.2-.4 0-.1.2 0 .3 0zM347.1 207.8c0-.4.6-1.2 1.2-1.2h4.1c.2 0 .4.6.4.9 0 2.5 1.6 5.4 2.7 7.6 1.1 2.3 8 25.2 10.2 25.2.3 0 4-9.5 4-10.1 0-.1-.1-.2-.1-.2 2.6-7.6 5.4-15.2 8-22.8.2-.7 1.8-.9 3-.9 1.3 0 3.2-.1 3.2.9-1.4 4.5-2.7 8.7-4.6 12.9.1 0 .4.3.4.4 0 1.7-2 4.6-2 6.7 0 .2 0 .4.1.6-1.5 3.1-2.2 6.3-4.1 9.2-1 1.5-1.7 7.1-2.8 7.1 0 4-4.4 2.8-4.5 3.6h-2.8c0-.8-1.7-.7-2.1-1.5-.8-3.8-2.8-7.2-4.5-10.7-2.3-4.6-2.4-10.1-4.6-14.8-1.5-1.5-2.1-4.5-2.7-6.6-.2-.8-1.6-4.6-1.9-5.3-.6-.4-.6-.7-.6-1zm3.8 5.3c.4 0 1.3-.5 1.3-1 0 0-.6-.8-.9-.9.4-.1.4-.4.4-.7 0-.8-.7-2-1.5-2-.1 0-.7.1-.7.1 0 .9 1.4 4.5 1.4 4.5zm.4 1.8h.4c.6 0 1.6-.1 1.6-.8 0 0-.1-.7-.4-1.3-.9.3-1.6 1-1.6 2.1zm1 1.8c.8 0 1.2-.6 1.2-1.4-.8 0-1.8.1-2.2.5.2.3 1 .9 1 .9zm2.1 5.2h1.6c0-1.5-1.2-2.3-1.2-2.5.1 0 .2-.7.4-1l-1.1-2.2c-.4.3-1.2 1.1-1.2 1.7 0 .5.9.7 1.2.9-.2 0-.7.6-.7.7 0 .8.4.9 1.1.9.2 0 .4 0 .5-.1-.5.5-.6 1.4-.6 1.6zm2.4 3.2c.1 0 .6-.1.7-.1-.6-.6-1.4-1.4-1.4-2.4h-1.4c.1 1.3.7 2.5 2.1 2.5zm0 3.7c1.1 0 1.2-.9 1.2-1.7 0-1.3-.5-1.4-1.1-1.4-.2 0-.7.1-1.3.1.7.9.4 1.9 1.2 3zm1.4 2c.4 0 .8-.1 1.2-.1-.1-.7-.3-2-.8-2.7-.5.4-1.5 1.3-1.5 2s.5.8 1.1.8zm-.3 3.6v.5c.1-.2.4-.4.6-.4.7 0 1.5.5 2 .5v-2.1H359c.6-.1.6-1.3.6-1.5h-2.3c0 1.7.6 1.7.6 3zm3.8 3.7c0-.7-.4-2.4-1.3-2.4-.4 0-1.5 0-1.5.6 0 1.5 1.8 1.8 2.8 1.8zm.3 4.4c0 1 .4 1.2.9 1.2.7 0 1.2.1 1.7-.4-1.2-.6-2.2-3.2-2.7-4.5H360c.7 1.3 2 3.5 2 3.7zm1.8 3.1c1.1 0 2.4-1.9 2.9-2.7-1 .6-3.6 1.7-3.5 2.1-.1.3.1.6.6.6zm2.9-1.5c.9 0 2.7-1.5 2.7-2.4l-.1-.1c-.3 0-1 1.1-2.6 2v.5zm.3 1.2h1.5v-.5l-1.5.5zm1.6-1.7c.2 0 .8-.4.8-.5 0-.1-.1-.2-.1-.2l-.7.7zm.2-2.3c.8 0 1.4-.6 1.6-1.4 0 0-.2-.1-.4-.1-.7.1-1.2.7-1.2 1.5zm.1-1.8l1.5-.7v-.4h-1.5v1.1zm.8-3c.3 0 .6-.2.7-.4h-.7v.4zm0 .7c.5 0 .9.1 1.3.1.6 0 1-.1 1-.9l-2.3.8zm.7-4.5c0 .4.1.7.1 1.1 1.6-.7 4.6-2 4.6-4.1 0-.1-.1-.4-.1-.4-.4.2-3.4 1.3-3.4 1.7 0 .2.6.8 1.2.9-.9 0-1.4.1-1.9-.4-.4.3-.5.7-.5 1.2zm0 2.8c1.4 0 3.2-.4 3.2-2.1 0-.1-.1-.4-.1-.5l-3.1 2v.6zm1.5-5.8c1.1 0 2.5-.9 3.2-1.3-.7-.2-1.6-.4-1.9-.4-.9.1-1.3.9-1.3 1.7zm.9-3.2h-.4c1-.4 3.1-1.2 3.1-1.5-.8-.2-1.8-.4-2.3-.4-.4.7-.4 1.8-.4 1.9zm1.2.9c2 0 2.3-.1 2.3-1.7-1.2 0-2.2.4-3.2 1.2.1.3.5.5.9.5zm-.4-3.9c0 .2.1.4.2.4.2 0 .4-.2.4-.4s-.1-.4-.4-.4c-.2 0-.2.2-.2.4zm.2-.8c.7 0 2.9-.5 3.5-1.5-.7-.1-2.1-.7-2.2-.7-.7-.1-.8 1.7-1.3 2.2zm1.3 1.6c2.4 0 1.5-1 2.3-2-.2 0-2.2.9-3 1.5-.1.4.4.5.7.5zm2.4-3.9c.8 0 1.4-3.5 1.4-3.5-1.4.7-2.5 1.6-3.4 2.7.4 0 1.6.8 2 .8zm-1.6-3c.9 0 1.6-.6 2.2-1.2-.2-.1-.9-.4-1.1-.4-.9 0-1.1.9-1.1 1.6zm3-1.9c.8 0 1.2-1.1 1.2-1.7 0-.1-.1-.6-.1-.6-.9.6-2.6 1.9-2.7 1.9.6.2 1.1.4 1.6.4zm-1.3-1.9c.7 0 2.8-.8 2.8-1.7 0-.3-.5-.4-.8-.6.1-.3.5-.4.8-.4.1 0 .2.1.4.1.3-.6.9-1.8.9-2.7h-2.4c0 1.8-1.7 3.2-1.7 5.3zM385.1 239.7c1.4-4 2-8 3.5-11.9 1-2.9 2.2-5 3.1-8l.3-.3c.3-1.2.5-4.5 2-4.5 0-1.2 2-8.2 2.9-8.9 5.4 0 5.9-.2 7.3 3.8 0 .1.7 1.3.7 1.5 0 .2-.1.5-.1.6 1.2 0 .9 3.7 2.4 4.8-.1 0-.4.2-.4.3 0 .9.8 1.7.8 2.7h.8c-.1.1-.4.6-.4.8 0 .6 1.4 2 1.5 2.7.3 1.5.5 3.6 1.2 5 1.2 2.4 1.7.2 2.3 5.3.5 4.1 3.5 9.1 4.9 12.9 0 1.1-1 1.2-2 1.2-1.3 0-2-.9-3.2-.9-.6 0-1.2.4-1.7.4-.7 0-1.4-3.1-2.2-5-.7-1.7-2.2-6.4-4.6-6.4-1.6 0-3.2.4-4.8.4-2.5 0-4.8-.4-7.7-.4-.7 2.5-.9 3.4-2.7 7.6-.6 1.4-.2 4.3-2 4.3-1.5 0-2.4-.2-4.1-.8-.1-2.1 1.7-5.8 2.2-7.2zm.6 5.7c.5 0 .7-1.1.7-1.1h-.5c.4-.4 1.7-1.8 1.9-2.7-.1 0-.5-.1-.6-.1-1.3 0-2.1 1.9-2.1 2.9 0 .5 0 1 .6 1zm1.7-6.6c0 .1.1.4.1.5.9-.5 2.4-1.9 2.4-1.9-.2 0-.7-.1-.8-.1-1.1 0-1.7 1.4-1.7 1.5zm.8-2.2c1.1 0 1.9-.5 2.7-1.5h-.4c-.9-.1-1.8.9-2.3 1.5zm.3-1.9c0 .1.1.4.1.4.7-.4 1.7-.8 2.3-1.5-.1-.4-.6-.4-.9-.4-1-.1-1.5.6-1.5 1.5zm.8-3.8c0 .1.1.6.1.7 1.1-.7 2.9-1.5 3.5-3h-.4c-1.9 0-3.2.3-3.2 2.3zm.8 1.5h1.6v-1.5l-1.6 1.5zm1.9-7.3c-1 0-1.3 2-1.5 2.7.2-.1 2.9-1.7 4.3-2.7H392zm.6 9.2h.4c.8 0 2.9-.1 2.9-1.2 0-.6-.4-.8-.7-.8-.2 0-2.3 1-3.1 1.6 0 .3.2.4.5.4zm-.4-9.8c2.7 0 3.3-.4 4-3.2h-.4c-1.3 1.5-3.6 2.4-3.6 3.2zm.1 3.6c.8 0 2-.7 2-1.5 0-.1-.1-.2-.1-.2-.8.3-1.9.5-1.9 1.7zm.5-5.2c1.5-.9 5.1-3.1 5.1-5.4h-.4c-.4 0-3.6 2.2-3.6 2.7.9 0 1.5-.4 2.4-.4-.6 1.7-3.8.2-3.8 2.7-.1.1.2.4.3.4zm1.4-4.7c0 .1.1.4.1.4 2.1-.6 4-2.2 5-4.1l4.6-1.5c0-2.5-2.5-4.5-2.4-4.5-.2 0-.4.1-.7.1-.4 0-1.6-.8-2.2-.8-1.5 0-.9 3.8-1.9 4.5h1.5c-.9 1.7-3.1.9-3.1 3.8 0 .5.1.8.8.8-1.2-.1-1.7.4-1.7 1.3zm2.7 12.3c2.4 0 4.9-.4 7.4-.4 0-1.9-2-5.1-2-6.4l-3-5.8c-.7 3.9-2.3 8.1-4.6 11.4 0 .1-.1.1-.1.2.1.9 1.7 1 2.3 1zm-.4 3.6c.9 0 1.8-.6 2.4-1.3-.2 0-.7-.1-.8-.1-.8-.1-1.6.5-1.6 1.4zm1.9.4c.5 0 1.1.1 1.6.1 1.6 0 3.3-.2 4.3-1.7-.2-.6-1.7-.8-2-.8-.6 0-1.7 1.3-1.9 1.5v-.7c-.7.2-2 .7-2 1.6zm2.7-18.1c.6 0 1.9-1.8 3.1-2.7-1.4 0-3 .2-4.1 1.1 0 .4.7 1.6 1 1.6zm3.5 8.7c1.1-.9 2.3-2.3 2.3-3.8 0-.7.1-2.7-1-2.7-.1 0-1 .6-1.3.9l1.5-1.5c0-.2-1.2-3.5-1.5-3.5h-.4l-2.7 2.7-.1.2c0 .5.8.9 1.2.9-.5.1-.4.6-.4 1s0 1.4.6 1.4c.1 0 .7-.3 1-.5 0 .9-.4 1.2-.4 2 .9 0 1.7-.4 2.7-.4-.5.9-1.9.4-1.9 1.8 0 .6-.1 1.1.4 1.5zm-.5 9.1c.6 0 .9-.4.9-1-.6 0-.9.4-.9 1zm2.2-6c1.4 0 2.2-1.4 2.2-2.5 0-.8-.3-2.8-1.2-2.8-.2.3-1.3 2-1.5 2.3-.2.2-.5.4-.5.6 0-.1.2.6.5.6.7 0 1.7-.4 2.3-.4l-2.3 1.2-.1.1c0 .3.5.9.6.9zm1.8 7.3c1.5 0 2.3-1.6 2.3-2.8 0-1.9-.5-3.2-1.1-5.2-1.1 0-2 .9-2.4 1.9h1.9v.4c-.6.7-2.7 2.8-3.4 4.2.1 0 .7.1.7.1 1.4 0 2.5-1.2 3.8-1.2-.6.8-2 1.4-3.1 1.9.4.6.7.7 1.3.7zm-1.3-4.6l.9-.7c-.6 0-.9.2-.9.7zm2.6 8c.9 0 2-2.1 2-2.9 0-.4.1-1.8-.6-1.8.1 0-2.2 1.3-2.5 2 .2 0 .1.4.6.4.1-.1 2-.4 2-.4-.5.9-2.3.7-2.3 1.9.2.4.3.8.8.8zm.5 1.2c.6 0 2.7-.3 2.7-1.3 0-.4 0-1.4-.6-1.4-.3-.1-1.1 1.2-2.1 2.7zm1.4 2.2c.1 0 .1-.1.1-.1l2-1.8v-.6c-.7 0-3 .5-3 1.3 0 .4.5 1.2.9 1.2zm2.8 2.7c.6 0 .9-.2.9-.7 0-.9-.8-2.4-1.2-3.2-.6.4-2 1.1-2 2 .2 0 1.1-.1 1.7-.4l-1.5 1.5c.2.8 1.5.8 2.1.8zM421.2 238.1c0-.2.6-6.7 1.3-10.3-.7-2-.8-5.7-.8-9.6 0-2.2.1-4.6.1-6.8-.6-.5-.6-2.2-.6-3.7 0-.4 0-.8.1-.9l.8-.7h4.9l.4.4c.1.1.5 2.8.7 3.8.4 2.4.4 4.9.4 7.4 0 6.3-1.2 12.4-1.2 18.7 0 .8.1 2.8.1 2.9l.7.8c-.2.1-.4.2-.4.6 0 .3.2.8.2 1 .7.1 7.3.2 8.7.2.6.4 1.4.5 2.2.5 3.2 0 4.6-.9 7.2-.9 0 1.2.4 2.2.4 3.3 0 .9-1.3 1.7-1.5 1.7-.2-.1-2.1-.4-2.3-.4-1.4 1-3.2 1.4-5.4 1.4-1.6 0-3.3-.2-4.6-.2-.8 0-2.1.1-3.6.1-3.4 0-7.6-.4-7.6-3.2V238h-.2zm2.1 2.3c0 .4.2 2 .3 2.4.8-.4 1.4-.9 1.9-1.5-.4-.2-.9-.4-1.1-.8.5 0 1.2-.3 1.2-.5s-.2-.4-.5-.6c0-.4.6-1.1.6-1.9H424c1.8-.2 2-1.5 2-3.1-3.2 0-3.2 1.4-3.2 4.6.1.3.5 1.3.5 1.4zm.2-26c1.6 0 3.2.1 3.2-1.9 0-1.2 0-4.9-1.2-4.9-.2 0-1.4.2-2.3.4.1 1.9.4 2.3.8 2.3.2 0 .4-.1.6-.1.2 0 .3.1.4.4-.4 1.4-1.5 2.4-1.5 3.8zm0 5.2c0 .2 0 .9.1 1.1 2.3-.7 3.2-3.7 3.2-5.6-1 0-2.2 1.2-2.8 1.7 0 .9 1.2.6 1.2 1.4 0 .1-.1.2-.1.2-1.1-.1-1.6 0-1.6 1.2zm0 14.5c2.7 0 2.8-2.1 2.8-4.3 0-.4-.1-1.7-.1-2.7-1.1.8-2.4 1.4-2.4 2.9 0 .4.9.4.9.7.2 1.1-1.2 2-1.2 3.4zm.1-18.9c.1 0 .4.1.4.1.4 0 .7 0 .9-.4h-.2c-.2 0-.8 0-1.1.3zm0 7.2c.2.1 1.1.1 1.2.1 1.9 0 2.1-1.1 2.1-3.1h-.6l-2.7 3zm0 1.7c.4 0 1.5-.1 1.5-.6 0-.1-.1-.2-.1-.2l-1.5.4v.4zm0 19.4c.4 0 2.4.1 2.4-.7 0-.2-.2-.7-.4-.9l-2 1.6zm.9 1.6c1.4 0 1.9-.1 2.6-1.5-.1 0-.3-.1-.4-.1-1 0-2.7.2-3.1 1.2.1.3.5.4.9.4zm-.5-17.5c.5 0 1-.7 1.1-.9H424v.9zm.4-2h1.9v-1.7c-.4 0-1.3 1.1-1.9 1.7zm4.9 19.8c.6 0 1.8-1.4 1.9-1.5-.4 0-1.2-.1-1.9.4v-.7c-.5 0-2.8 0-2.8 1.2 1 0 2.5.2 2.8.6zm2.2.2c.9 0 1.9-.1 2.4-.9.1.3.7.8.9.8.7 0 1.5-1.2 1.5-1.8-.9-.1-4.8-.1-4.8 1.9zm4.3-.2c.1 0 .5.1.6.1.4 0 1.1-.5 1.7-.5.1 0 .3.4.4.4.9 0 6.2-.6 6.2-1.6-2.7 0-5 .5-7.7.5l-1.2 1.1z"/></g></svg>